<?xml version="1.0" encoding="UTF-8" standalone="no"?>
<!-- Created with Inkscape (http://www.inkscape.org/) -->

<svg
   xmlns:dc="http://purl.org/dc/elements/1.1/"
   xmlns:cc="http://creativecommons.org/ns#"
   xmlns:rdf="http://www.w3.org/1999/02/22-rdf-syntax-ns#"
   xmlns:svg="http://www.w3.org/2000/svg"
   xmlns="http://www.w3.org/2000/svg"
   xmlns:sodipodi="http://sodipodi.sourceforge.net/DTD/sodipodi-0.dtd"
   xmlns:inkscape="http://www.inkscape.org/namespaces/inkscape"
   width="18.035334mm"
   height="17.500378mm"
   viewBox="0 0 18.035334 17.500378"
   version="1.1"
   id="svg13826"
   inkscape:version="0.92.3 (2405546, 2018-03-11)"
   sodipodi:docname="node.svg">
  <defs
     id="defs13820" />
  <sodipodi:namedview
     id="base"
     pagecolor="#ffffff"
     bordercolor="#666666"
     borderopacity="1.0"
     inkscape:pageopacity="0.0"
     inkscape:pageshadow="2"
     inkscape:zoom="11.313708"
     inkscape:cx="31.220167"
     inkscape:cy="15.416497"
     inkscape:document-units="mm"
     inkscape:current-layer="layer1"
     showgrid="false"
     inkscape:window-width="3840"
     inkscape:window-height="1537"
     inkscape:window-x="-8"
     inkscape:window-y="-8"
     inkscape:window-maximized="1"
     fit-margin-top="0"
     fit-margin-left="0"
     fit-margin-right="0"
     fit-margin-bottom="0"
     inkscape:snap-bbox="true"
     inkscape:bbox-paths="true"
     inkscape:bbox-nodes="true"
     inkscape:snap-bbox-edge-midpoints="true"
     inkscape:snap-bbox-midpoints="true"
     inkscape:object-paths="true"
     inkscape:snap-intersection-paths="true" />
  <metadata
     id="metadata13823">
    <rdf:RDF>
      <cc:Work
         rdf:about="">
        <dc:format>image/svg+xml</dc:format>
        <dc:type
           rdf:resource="http://purl.org/dc/dcmitype/StillImage" />
        <dc:title />
      </cc:Work>
    </rdf:RDF>
  </metadata>
  <g
     inkscape:label="Calque 1"
     inkscape:groupmode="layer"
     id="layer1"
     transform="translate(-0.99262638,-1.174181)">
    <g
       id="g70"
       transform="matrix(1.0148887,0,0,1.0148887,16.902146,-2.698726)">
      <path
         inkscape:export-ydpi="250.55"
         inkscape:export-xdpi="250.55"
         inkscape:export-filename="new.png"
         inkscape:connector-curvature="0"
         id="path3055"
         d="m -6.8492015,4.2724668 a 1.1191255,1.1099671 0 0 0 -0.4288818,0.1085303 l -5.8524037,2.7963394 a 1.1191255,1.1099671 0 0 0 -0.605524,0.7529759 l -1.443828,6.2812846 a 1.1191255,1.1099671 0 0 0 0.151943,0.851028 1.1191255,1.1099671 0 0 0 0.06362,0.08832 l 4.0508,5.036555 a 1.1191255,1.1099671 0 0 0 0.874979,0.417654 l 6.4961011,-0.0015 a 1.1191255,1.1099671 0 0 0 0.8749788,-0.416906 L 1.3818872,15.149453 A 1.1191255,1.1099671 0 0 0 1.5981986,14.210104 L 0.15212657,7.9288154 A 1.1191255,1.1099671 0 0 0 -0.45339794,7.1758396 L -6.3065496,4.3809971 A 1.1191255,1.1099671 0 0 0 -6.8492015,4.2724668 Z"
         style="fill:#326ce5;fill-opacity:1;stroke:none;stroke-width:0;stroke-miterlimit:4;stroke-dasharray:none;stroke-opacity:1" />
      <path
         id="path3054-2-9"
         d="M -6.8523435,3.8176372 A 1.1814304,1.171762 0 0 0 -7.3044284,3.932904 l -6.1787426,2.9512758 a 1.1814304,1.171762 0 0 0 -0.639206,0.794891 l -1.523915,6.6308282 a 1.1814304,1.171762 0 0 0 0.160175,0.89893 1.1814304,1.171762 0 0 0 0.06736,0.09281 l 4.276094,5.317236 a 1.1814304,1.171762 0 0 0 0.92363,0.440858 l 6.8576188,-0.0015 a 1.1814304,1.171762 0 0 0 0.9236308,-0.44011 l 4.2745966,-5.317985 a 1.1814304,1.171762 0 0 0 0.228288,-0.990993 L 0.53894439,7.6775738 A 1.1814304,1.171762 0 0 0 -0.10026101,6.8834313 L -6.2790037,3.9321555 A 1.1814304,1.171762 0 0 0 -6.8523435,3.8176372 Z m 0.00299,0.4550789 a 1.1191255,1.1099671 0 0 1 0.5426517,0.1085303 l 5.85315169,2.7948425 A 1.1191255,1.1099671 0 0 1 0.15197811,7.9290648 L 1.598051,14.21035 a 1.1191255,1.1099671 0 0 1 -0.2163123,0.939348 l -4.0493032,5.037304 a 1.1191255,1.1099671 0 0 1 -0.8749789,0.416906 l -6.4961006,0.0015 a 1.1191255,1.1099671 0 0 1 -0.874979,-0.417652 l -4.0508,-5.036554 a 1.1191255,1.1099671 0 0 1 -0.06362,-0.08832 1.1191255,1.1099671 0 0 1 -0.151942,-0.851028 l 1.443827,-6.2812853 a 1.1191255,1.1099671 0 0 1 0.605524,-0.7529758 l 5.8524036,-2.7963395 a 1.1191255,1.1099671 0 0 1 0.4288819,-0.1085303 z"
         style="color:#000000;font-style:normal;font-variant:normal;font-weight:normal;font-stretch:normal;font-size:medium;line-height:normal;font-family:Sans;-inkscape-font-specification:Sans;text-indent:0;text-align:start;text-decoration:none;text-decoration-line:none;letter-spacing:normal;word-spacing:normal;text-transform:none;writing-mode:lr-tb;direction:ltr;baseline-shift:baseline;text-anchor:start;display:inline;overflow:visible;visibility:visible;fill:#ffffff;fill-opacity:1;fill-rule:nonzero;stroke:none;stroke-width:0;stroke-miterlimit:4;stroke-dasharray:none;marker:none;enable-background:accumulate"
         inkscape:connector-curvature="0" />
    </g>
    <path
       style="opacity:1;fill:#ffffff;fill-opacity:1;stroke:#eeeeee;stroke-width:0;stroke-miterlimit:10;stroke-dasharray:none;stroke-dashoffset:11.23642349;stroke-opacity:1"
       d="M 34.013672 14.498047 C 33.490851 14.481417 18.915211 21.648081 18.724609 22.015625 C 18.266644 22.898833 14.947592 38.199544 15.142578 38.529297 C 15.255964 38.72073 17.645288 41.748651 20.451172 45.257812 L 25.554688 51.638672 L 33.949219 51.640625 L 42.345703 51.644531 L 47.6875 44.970703 L 53.029297 38.298828 L 51.160156 30.103516 C 50.131369 25.595423 49.211183 21.830905 49.117188 21.740234 C 48.85451 21.48746 34.297026 14.507197 34.013672 14.498047 z "
       transform="matrix(0.26458333,0,0,0.26458333,0.99262638,1.174181)"
       id="path1994" />
    <path
       inkscape:connector-curvature="0"
       id="path362"
       d="m 11.818619,9.5857783 c -0.128054,0 -0.251376,0.019225 -0.367896,0.054711 -0.10617,-0.702078 -0.711837,-1.2400222 -1.443489,-1.2400222 -0.7316513,0 -1.3373193,0.5379442 -1.4434883,1.2400222 -0.11652,-0.035489 -0.239843,-0.054711 -0.367896,-0.054711 -0.697347,0 -1.262498,0.5654477 -1.262498,1.2624987 0,0.697346 0.565151,1.262498 1.262498,1.262498 h 3.6227693 c 0.697346,0 1.262498,-0.565152 1.262498,-1.262498 0,-0.697051 -0.565152,-1.2624987 -1.262498,-1.2624987"
       style="fill:#326ce5;fill-opacity:1;fill-rule:nonzero;stroke:none;stroke-width:0.07570849" />
    <path
       inkscape:connector-curvature="0"
       id="path364"
       d="m 8.1958497,9.6236324 c -0.675166,0 -1.224644,0.5494786 -1.224644,1.2246446 0,0.675165 0.549478,1.224643 1.224644,1.224643 h 3.6227693 c 0.675166,0 1.224643,-0.549478 1.224643,-1.224643 0,-0.675166 -0.549477,-1.2246446 -1.224643,-1.2246446 -0.121252,0 -0.241321,0.018042 -0.356953,0.053233 l -0.042,0.012716 -0.0065,-0.043471 C 11.309362,8.9576352 10.704877,8.4383223 10.007235,8.4383223 c -0.6976423,0 -1.3021263,0.5193129 -1.4062263,1.2077867 l -0.0065,0.043475 -0.04199,-0.012717 C 8.4371847,9.641671 8.3171147,9.623631 8.1958637,9.623631 Z M 11.818619,12.148629 H 8.1958497 c -0.716865,0 -1.300353,-0.583192 -1.300353,-1.300352 0,-0.716865 0.583488,-1.3003528 1.300353,-1.3003528 0.11445,0 0.227716,0.015081 0.337435,0.044656 0.127462,-0.7041483 0.753535,-1.2299675 1.4739493,-1.2299675 0.720414,0 1.346488,0.5258192 1.47395,1.2299675 0.109718,-0.029572 0.222985,-0.044656 0.337435,-0.044656 0.716865,0 1.300352,0.5834878 1.300352,1.3003528 0,0.71716 -0.583487,1.300352 -1.300352,1.300352"
       style="fill:none;fill-opacity:1;fill-rule:nonzero;stroke:none;stroke-width:0.07570849" />
  </g>
</svg>
