<?xml version="1.0" encoding="UTF-8" standalone="no"?>
<svg
   xmlns:dc="http://purl.org/dc/elements/1.1/"
   xmlns:cc="http://creativecommons.org/ns#"
   xmlns:rdf="http://www.w3.org/1999/02/22-rdf-syntax-ns#"
   xmlns:svg="http://www.w3.org/2000/svg"
   xmlns="http://www.w3.org/2000/svg"
   xmlns:sodipodi="http://sodipodi.sourceforge.net/DTD/sodipodi-0.dtd"
   xmlns:inkscape="http://www.inkscape.org/namespaces/inkscape"
   version="1.1"
   id="Layer_1"
   x="0px"
   y="0px"
   viewBox="0 0 2300 1300"
   xml:space="preserve"
   sodipodi:docname="backblaze.svg"
   width="2300"
   height="1300"
   inkscape:version="1.0.2-2 (e86c870879, 2021-01-15)"><metadata
   id="metadata41"><rdf:RDF><cc:Work
       rdf:about=""><dc:format>image/svg+xml</dc:format><dc:type
         rdf:resource="http://purl.org/dc/dcmitype/StillImage" /><dc:title></dc:title></cc:Work></rdf:RDF></metadata><defs
   id="defs39">   </defs><sodipodi:namedview
   pagecolor="#ffffff"
   bordercolor="#666666"
   borderopacity="1"
   objecttolerance="10"
   gridtolerance="10"
   guidetolerance="10"
   inkscape:pageopacity="0"
   inkscape:pageshadow="2"
   inkscape:window-width="2308"
   inkscape:window-height="1234"
   id="namedview37"
   showgrid="false"
   inkscape:zoom="0.37288834"
   inkscape:cx="642.23282"
   inkscape:cy="459.13136"
   inkscape:window-x="0"
   inkscape:window-y="0"
   inkscape:window-maximized="0"
   inkscape:current-layer="Layer_1"
   inkscape:snap-bbox="true"
   inkscape:bbox-paths="true"
   inkscape:bbox-nodes="true"
   inkscape:snap-bbox-edge-midpoints="true"
   inkscape:snap-bbox-midpoints="true"
   inkscape:document-rotation="0" /> <style
   type="text/css"
   id="style2"> .st0{fill:#0F1131;} .st1{fill:#E21E29;} </style> <g
   id="g24"
   transform="matrix(9.9153889,0,0,9.9153889,-511.48723,475.46699)"> <g
   id="g22"> <path
   class="st0"
   d="m 86.31,78.05 h -4.27 c -1.55,-0.04 -3.83,-0.04 -6.78,-0.08 v -1.36 l 2.87,-1.24 V 53.84 L 75.26,52.6 v -1.36 c 1.44,-0.04 3.19,-0.04 5.23,-0.08 2.03,-0.04 3.75,-0.04 5.15,-0.04 7.82,0 11.57,1.99 11.57,6.02 0,2.23 -0.88,3.63 -3.11,5.02 -1.12,0.64 -2.75,1.16 -4.67,1.36 2.67,0.16 4.63,0.55 5.94,1.32 2.03,1.12 3.07,2.83 3.07,5.07 0,5.39 -4.19,8.14 -12.13,8.14 z M 84.44,53.24 v 9.49 h 0.24 c 3.71,0 5.94,-1.91 5.94,-5.38 0,-2.87 -1.52,-4.11 -6.18,-4.11 z m 0.51,11.69 h -0.52 v 10.85 c 0.36,0.04 0.72,0.05 1.08,0.04 4.43,0 6.34,-1.72 6.34,-5.74 0,-3.55 -2.23,-5.14 -6.9,-5.15 z"
   id="path4" /> <path
   class="st0"
   d="m 120.17,76.26 c -1.47,1.43 -3.45,2.22 -5.5,2.19 -1.91,0 -3.27,-1.36 -3.27,-3.15 v -0.08 c -1.4,2.11 -3.39,3.23 -5.74,3.23 -3.03,0 -5.11,-2.03 -5.11,-5.07 0,-2.55 1.4,-4.39 4.11,-5.5 1.64,-0.64 3.75,-1 6.74,-1.16 v -0.64 c 0,-1.32 -0.24,-2.15 -0.72,-2.79 -0.64,-0.8 -1.75,-1.28 -3.03,-1.28 -1.8,0 -3.35,0.84 -5.11,2.95 l -1.08,-0.6 c 1.56,-4.03 4.59,-6.42 8.38,-6.42 2.75,0 4.95,0.96 6.26,2.83 0.8,1.12 1.2,2.59 1.2,4.55 v 8.7 c 0,0.96 0.48,1.44 1.32,1.44 0.37,-0.01 0.74,-0.09 1.08,-0.24 z m -13.56,-3.87 c 0,1.64 0.92,2.59 2.47,2.59 0.84,0 1.52,-0.24 2.31,-1 v -5.5 c -1.64,0.04 -2.83,0.44 -3.67,1.12 -0.75,0.6 -1.11,1.51 -1.11,2.79 z"
   id="path6" /> <path
   class="st0"
   d="m 138.72,72.11 c -1.8,4.35 -4.51,6.34 -8.54,6.34 -2.83,0 -5.03,-0.92 -6.66,-2.71 -1.64,-1.8 -2.47,-4.15 -2.47,-7.14 0,-3.11 1,-5.66 3.03,-7.66 2,-1.99 4.51,-2.99 7.5,-2.99 2.03,0 4.59,0.6 6.3,1.44 l 0.08,6.98 -1.96,0.24 -1.2,-2.39 c -0.44,-0.88 -1.12,-2.23 -2.03,-4.03 -0.39,-0.12 -0.79,-0.18 -1.2,-0.16 -2.75,0 -4.35,2.47 -4.35,6.78 0,4.43 1.99,7.18 5.23,7.18 2.08,0 3.51,-0.68 5.3,-2.55 z"
   id="path8" /> <path
   class="st0"
   d="m 150.64,76.62 v 1.36 h -10.81 v -1.36 l 2.47,-1.24 V 52.49 l -2.67,-0.68 v -1.72 l 8.58,-1.72 0.16,0.12 v 18.39 l 6.66,-5.26 -2.43,-1.32 v -1.6 h 8.93 v 1.64 l -3.31,1.32 -4.39,3.15 7.1,10.81 1.56,0.96 v 1.4 h -7.58 l -5.78,-9.81 -0.76,0.52 v 6.7 z"
   id="path10" /> <path
   class="st0"
   d="m 182.43,60.51 c 1.36,1.72 2.03,3.87 2.03,6.54 0,3.47 -0.92,6.22 -2.79,8.26 -1.87,2.04 -4.47,3.06 -7.86,3.06 -1.91,0 -4.03,-0.44 -6.14,-1.36 l -1.72,1.36 -1,-0.32 V 52.49 l -2.67,-0.68 v -1.72 l 8.58,-1.72 0.16,0.12 v 12.68 c 1.24,-2.03 3.51,-3.23 6.06,-3.23 2.2,0.01 3.96,0.85 5.35,2.57 z m -8.37,0.87 c -1.28,0 -2.59,0.92 -3.03,1.87 v 12.41 c 0.6,0.28 1.48,0.44 2.27,0.44 3.18,0 4.91,-2.67 4.91,-7.62 0,-4.47 -1.6,-7.1 -4.15,-7.1 z"
   id="path12" /> <path
   class="st0"
   d="m 196.59,76.62 v 1.36 h -11.01 v -1.36 l 2.47,-1.24 V 52.49 l -2.67,-0.68 v -1.72 l 8.58,-1.72 0.16,0.12 v 26.88 z"
   id="path14" /> <path
   class="st0"
   d="m 218.05,76.26 c -1.47,1.43 -3.45,2.22 -5.51,2.19 -1.91,0 -3.27,-1.36 -3.27,-3.15 v -0.08 c -1.4,2.11 -3.39,3.23 -5.74,3.23 -3.03,0 -5.11,-2.03 -5.11,-5.07 0,-2.55 1.4,-4.39 4.11,-5.5 1.64,-0.64 3.75,-1 6.74,-1.16 v -0.64 c 0,-1.32 -0.24,-2.15 -0.72,-2.79 -0.64,-0.8 -1.76,-1.28 -3.03,-1.28 -1.8,0 -3.35,0.84 -5.11,2.95 l -1.08,-0.6 c 1.55,-4.03 4.59,-6.42 8.38,-6.42 2.75,0 4.95,0.96 6.26,2.83 0.8,1.12 1.2,2.59 1.2,4.55 v 8.7 c 0,0.96 0.48,1.44 1.32,1.44 0.37,-0.01 0.74,-0.09 1.08,-0.24 z m -13.56,-3.87 c 0,1.64 0.92,2.59 2.47,2.59 0.83,0 1.51,-0.24 2.31,-1 v -5.5 c -1.64,0.04 -2.83,0.44 -3.67,1.12 -0.75,0.6 -1.11,1.51 -1.11,2.79 z"
   id="path16" /> <path
   class="st0"
   d="m 221.84,58.59 h 15.64 l 0.64,1.24 -10.42,16.07 5.94,-0.08 3.07,-5.5 1.24,0.12 0.2,7.26 -0.24,0.28 h -16.87 l -0.52,-1.36 10.45,-16.07 -5.23,0.04 -3.23,5.03 -1.4,-0.16 0.52,-6.62 z"
   id="path18" /> <path
   class="st0"
   d="m 258.17,72.03 c -1.28,3.99 -4.75,6.42 -8.93,6.42 -2.71,0 -4.87,-0.92 -6.51,-2.71 -1.64,-1.8 -2.43,-4.19 -2.43,-7.1 0,-2.99 0.96,-5.54 2.87,-7.62 1.87,-2.03 4.15,-3.07 6.82,-3.07 3.47,0 5.98,1.2 7.3,3.43 0.68,1.16 1.08,2.67 1.08,4.47 0,0.48 -0.03,0.96 -0.08,1.44 l -11.97,-0.04 c 0.12,4.27 2.19,6.74 5.5,6.74 0.86,0.01 1.72,-0.15 2.51,-0.48 0.72,-0.32 1.72,-1 2.95,-2.08 z m -11.8,-6.66 6.1,-0.08 c 0,-3.23 -1.08,-5.38 -2.71,-5.38 -1.96,-0.01 -3.11,1.83 -3.39,5.46 z"
   id="path20" /> </g> </g><g
   id="g32"
   transform="matrix(15.308996,0,0,15.308996,467.02233,-485.43992)"> <path
   class="st1"
   d="m 56.8,83.61 c -2.52,0.81 -7.98,1.24 -10.81,-2.27 -3.46,-4.28 -0.98,-7.63 -3.08,-7.14 -8.2,1.89 -11.94,-3.32 -12.58,-4.77 -0.01,-0.01 -0.34,-1 -0.48,-0.1 0,0.01 -0.01,0.03 -0.01,0.04 0,0.01 0,0.01 0,0.01 v 0.01 c -0.26,1.22 -0.37,4.14 0.26,6.73 0.8,3.27 3.22,8.85 10.01,11.63 5.71,2.34 12.96,1.22 17.8,-3.69 1.19,-1.22 0.92,-1.11 -1.11,-0.45 z"
   id="path26" /> <path
   class="st1"
   d="m 43.88,38.14 c -1.91,-2.34 -3.87,-3.62 -3.87,-3.62 1.48,3.06 3.55,9.25 -3.15,16.27 v 0 c -4.1,4.26 -6.98,8.73 -5.33,13.75 0.83,2.5 2.7,5.68 6.55,6.31 1.38,0.23 3.04,0 3.95,-0.32 5.57,-1.94 4.76,-7.74 3.52,-11.45 -0.16,-0.48 -0.43,-1.66 -0.54,-2.1 -0.85,-3.64 1.76,-6.02 2.56,-8.63 0.06,-0.21 0.12,-0.41 0.16,-0.62 0.1,-0.48 0.15,-0.96 0.18,-1.45 0,-4.12 -2.24,-5.94 -4.03,-8.14 z"
   id="path28" /> <path
   class="st1"
   d="m 62.53,71.29 c -0.3,-3.58 -1.85,-6.25 -6.24,-11.25 -2.18,-2.48 -3.65,-5.46 -3.55,-7.73 0.31,-2.73 1.5,-4.16 1.5,-4.16 0,0 -1.61,0.76 -2.76,2 -1.01,1.09 -1.96,1.99 -2.94,4.22 -0.06,0.32 -0.12,0.65 -0.17,0.99 -0.52,3.72 2.6,7.13 1.63,11.77 -0.25,1.21 -0.81,1.61 -1.77,3.71 -1.16,2.51 -0.87,5.87 0.81,8 1.52,1.93 4.26,2.79 6.92,2.15 4.77,-1.13 6.94,-5.16 6.57,-9.7 z"
   id="path30" /> </g> </svg>
