<?xml version="1.0" encoding="UTF-8" standalone="no"?>
<svg
   xmlns:dc="http://purl.org/dc/elements/1.1/"
   xmlns:cc="http://creativecommons.org/ns#"
   xmlns:rdf="http://www.w3.org/1999/02/22-rdf-syntax-ns#"
   xmlns:svg="http://www.w3.org/2000/svg"
   xmlns="http://www.w3.org/2000/svg"
   xmlns:sodipodi="http://sodipodi.sourceforge.net/DTD/sodipodi-0.dtd"
   xmlns:inkscape="http://www.inkscape.org/namespaces/inkscape"
   id="Ebene_1"
   data-name="Ebene 1"
   width="600"
   height="400"
   viewBox="0 0 600 400"
   version="1.1"
   sodipodi:docname="ibm.svg"
   inkscape:version="1.0.2-2 (e86c870879, 2021-01-15)">
  <metadata
     id="metadata9">
    <rdf:RDF>
      <cc:Work
         rdf:about="">
        <dc:format>image/svg+xml</dc:format>
        <dc:type
           rdf:resource="http://purl.org/dc/dcmitype/StillImage" />
        <dc:title></dc:title>
      </cc:Work>
    </rdf:RDF>
  </metadata>
  <defs
     id="defs7">
    <clipPath
       id="clipPath18"
       clipPathUnits="userSpaceOnUse">
      <path
         id="path16"
         d="M 0,928 H 1502 V 0 H 0 Z" />
    </clipPath>
    <clipPath
       id="clipPath46"
       clipPathUnits="userSpaceOnUse">
      <path
         id="path44"
         d="M 530.797,799.473 H 943.992 V 653.641 H 530.797 Z" />
    </clipPath>
    <clipPath
       id="clipPath62"
       clipPathUnits="userSpaceOnUse">
      <path
         id="path60"
         d="M 585.703,706.566 H 943.992 V 559.715 H 585.703 Z" />
    </clipPath>
    <clipPath
       id="clipPath78"
       clipPathUnits="userSpaceOnUse">
      <path
         id="path76"
         d="M 481.614,655.137 H 834.062 V 412.859 H 481.614 Z" />
    </clipPath>
    <clipPath
       id="clipPath94"
       clipPathUnits="userSpaceOnUse">
      <path
         id="path92"
         d="M 481.614,561.215 H 780.625 V 319.953 H 481.614 Z" />
    </clipPath>
    <clipPath
       id="clipPath110"
       clipPathUnits="userSpaceOnUse">
      <path
         id="path108"
         d="M 778.891,703.57 H 1020.96 V 319.953 H 778.891 Z" />
    </clipPath>
    <clipPath
       id="clipPath130"
       clipPathUnits="userSpaceOnUse">
      <path
         id="path128"
         d="M 778.891,703.57 H 1020.96 V 319.953 H 778.891 Z" />
    </clipPath>
    <clipPath
       id="clipPath150"
       clipPathUnits="userSpaceOnUse">
      <path
         id="path148"
         d="m 634.402,799.473 c -12.886,0 -24.785,-6.891 -31.199,-18.071 v 0 L 486.32,577.606 c -6.355,-11.087 -6.355,-24.696 0,-35.785 v 0 L 603.203,338.024 c 6.414,-11.176 18.313,-18.071 31.199,-18.071 v 0 h 233.77 c 12.883,0 24.781,6.895 31.195,18.071 v 0 l 116.883,203.797 c 6.355,11.089 6.355,24.698 0,35.785 v 0 l -72.258,125.964 -44.625,77.832 c -6.414,11.18 -18.312,18.071 -31.195,18.071 v 0 z" />
    </clipPath>
    <mask
       id="mask166"
       height="1"
       width="1"
       y="0"
       x="0"
       maskUnits="userSpaceOnUse">
      <g
         id="g176">
        <g
           id="g174">
          <g
             id="g172">
            <g
               id="g170">
              <path
                 id="path168"
                 style="fill:url(#radialGradient164);stroke:none"
                 d="M -32768,32767 H 32767 V -32768 H -32768 Z" />
            </g>
          </g>
        </g>
      </g>
    </mask>
    <radialGradient
       id="radialGradient164"
       spreadMethod="pad"
       gradientTransform="matrix(553.65015,0,0,553.65015,559.08789,767.08496)"
       gradientUnits="userSpaceOnUse"
       r="1"
       cy="0"
       cx="0"
       fy="0"
       fx="0">
      <stop
         id="stop160"
         offset="0"
         style="stop-opacity:0.09999237;stop-color:#ffffff" />
      <stop
         id="stop162"
         offset="1"
         style="stop-opacity:0;stop-color:#ffffff" />
    </radialGradient>
    <radialGradient
       id="radialGradient186"
       spreadMethod="pad"
       gradientTransform="matrix(553.65015,0,0,553.65015,559.08789,767.08496)"
       gradientUnits="userSpaceOnUse"
       r="1"
       cy="0"
       cx="0"
       fy="0"
       fx="0">
      <stop
         id="stop182"
         offset="0"
         style="stop-opacity:1;stop-color:#ffffff" />
      <stop
         id="stop184"
         offset="1"
         style="stop-opacity:1;stop-color:#ffffff" />
    </radialGradient>
    <clipPath
       id="clipPath196"
       clipPathUnits="userSpaceOnUse">
      <path
         id="path194"
         d="M 128,80 H 1374 V 272 H 128 Z" />
    </clipPath>
    <clipPath
       id="clipPath254"
       clipPathUnits="userSpaceOnUse">
      <path
         id="path252"
         d="M 0,136 H 416 V 0 H 0 Z" />
    </clipPath>
  </defs>
  <sodipodi:namedview
     pagecolor="#ffffff"
     bordercolor="#666666"
     borderopacity="1"
     objecttolerance="10"
     gridtolerance="10"
     guidetolerance="10"
     inkscape:pageopacity="0"
     inkscape:pageshadow="2"
     inkscape:window-width="1414"
     inkscape:window-height="1208"
     id="namedview5"
     showgrid="false"
     inkscape:zoom="0.50625"
     inkscape:cx="64.876059"
     inkscape:cy="385.75497"
     inkscape:window-x="310"
     inkscape:window-y="72"
     inkscape:window-maximized="0"
     inkscape:current-layer="Ebene_1"
     inkscape:document-rotation="0" />
  <path
     d="m 92.222221,107.60494 v 11.494 h 81.751999 v -11.494 z m 93.334999,0 v 11.494 h 116.501 c 0,0 -11.9,-11.494 -27.661,-11.494 z m 139.355,0 v 11.494 h 70.481 l -4.183,-11.494 z m 121.012,0 -4.183,11.494 h 69.841 v -11.494 z m -353.701999,22.353 v 11.494 h 81.751999 v -11.494 z m 93.334999,0.017 v 11.478 h 130.019 c 0,0 -1.518,-8.847 -4.167,-11.478 z m 139.355,0 v 11.478 h 78.208 l -3.872,-11.478 z m 112.645,0 -3.872,11.478 h 77.897 v -11.478 z m -321.841,22.336 v 11.511 h 35.404 v -11.511 z m 93.335,0 v 11.511 h 35.405 v -11.511 z m 69.841,0 v 11.511 h 35.405 c 0,0 2.248,-6.079 2.248,-11.511 z m 69.514,0 v 11.511 h 62.77 l -4.184,-11.511 z m 81.44,0 -4.2,11.511 h 63.082 v -11.511 z m -314.13,22.371 v 11.494 h 35.404 v -11.494 z m 93.335,0 v 11.494 h 90.431 c 0,0 7.565,-5.898 9.975,-11.494 z m 139.355,0 v 11.494 h 35.404 v -6.399 l 2.248,6.399 h 64.854 l 2.412,-6.399 v 6.399 h 35.404 v -11.494 h -66.462 l -3.527,9.735 -3.544,-9.735 z m -232.69,22.353 v 11.494 h 35.404 v -11.494 z m 93.335,0 v 11.494 h 100.406 c -2.41,-5.578 -9.975,-11.494 -9.975,-11.494 z m 139.355,0 v 11.494 h 35.404 v -11.494 z m 41.835,0 4.282,11.494 h 48.628 l 4.069,-11.494 z m 63.082,0 v 11.494 h 35.405 v -11.494 z m -337.607,22.353 v 11.494 h 35.404 v -11.494 z m 93.335,0 v 11.494 h 35.405 v -11.494 z m 69.841,0 v 11.494 h 37.652 c 0,-5.425 -2.247,-11.494 -2.247,-11.494 z m 69.514,0 v 11.494 h 35.404 v -11.494 z m 49.875,0 4.15,11.494 h 32.6 l 4.183,-11.494 z m 55.042,0 v 11.494 h 35.405 v -11.494 z m -360.460999,22.353 v 11.511 h 81.751999 v -11.511 z m 92.694999,0 v 11.511 h 125.852 c 2.649,-2.636 4.167,-11.511 4.167,-11.511 z m 139.995,0 v 11.511 h 58.258 v -11.511 z m 80.784,0 4.265,11.511 h 16.587 l 4.003,-11.511 z m 46.987,0 v 11.511 h 58.899 v -11.511 z m -360.460999,22.37 v 11.494 h 81.751999 v -11.494 z m 92.694999,0 v 11.478 h 88.84 c 15.761,0 27.661,-11.478 27.661,-11.478 z m 139.995,0 v 11.494 h 58.258 v -11.494 z m 88.872,0 4.102,11.462 0.705,0.016 4.168,-11.478 z m 38.899,0 v 11.494 h 58.899 v -11.494 z"
     fill="#1f70c1"
     id="path2-3" />
</svg>
