<?xml version="1.0" encoding="UTF-8" standalone="no"?>
<svg
   id="Ebene_1"
   data-name="Ebene 1"
   width="2300"
   height="1300"
   viewBox="0 0 2300 1300"
   version="1.1"
   sodipodi:docname="rht.svg"
   inkscape:version="1.1 (c68e22c387, 2021-05-23)"
   xmlns:inkscape="http://www.inkscape.org/namespaces/inkscape"
   xmlns:sodipodi="http://sodipodi.sourceforge.net/DTD/sodipodi-0.dtd"
   xmlns="http://www.w3.org/2000/svg"
   xmlns:svg="http://www.w3.org/2000/svg"
   xmlns:rdf="http://www.w3.org/1999/02/22-rdf-syntax-ns#"
   xmlns:cc="http://creativecommons.org/ns#"
   xmlns:dc="http://purl.org/dc/elements/1.1/">
  <metadata
     id="metadata9">
    <rdf:RDF>
      <cc:Work
         rdf:about="">
        <dc:format>image/svg+xml</dc:format>
        <dc:type
           rdf:resource="http://purl.org/dc/dcmitype/StillImage" />
      </cc:Work>
    </rdf:RDF>
  </metadata>
  <defs
     id="defs7">
    <clipPath
       id="clipPath18"
       clipPathUnits="userSpaceOnUse">
      <path
         id="path16"
         d="M 0,928 H 1502 V 0 H 0 Z" />
    </clipPath>
    <clipPath
       id="clipPath46"
       clipPathUnits="userSpaceOnUse">
      <path
         id="path44"
         d="M 530.797,799.473 H 943.992 V 653.641 H 530.797 Z" />
    </clipPath>
    <clipPath
       id="clipPath62"
       clipPathUnits="userSpaceOnUse">
      <path
         id="path60"
         d="M 585.703,706.566 H 943.992 V 559.715 H 585.703 Z" />
    </clipPath>
    <clipPath
       id="clipPath78"
       clipPathUnits="userSpaceOnUse">
      <path
         id="path76"
         d="M 481.614,655.137 H 834.062 V 412.859 H 481.614 Z" />
    </clipPath>
    <clipPath
       id="clipPath94"
       clipPathUnits="userSpaceOnUse">
      <path
         id="path92"
         d="M 481.614,561.215 H 780.625 V 319.953 H 481.614 Z" />
    </clipPath>
    <clipPath
       id="clipPath110"
       clipPathUnits="userSpaceOnUse">
      <path
         id="path108"
         d="M 778.891,703.57 H 1020.96 V 319.953 H 778.891 Z" />
    </clipPath>
    <clipPath
       id="clipPath130"
       clipPathUnits="userSpaceOnUse">
      <path
         id="path128"
         d="M 778.891,703.57 H 1020.96 V 319.953 H 778.891 Z" />
    </clipPath>
    <clipPath
       id="clipPath150"
       clipPathUnits="userSpaceOnUse">
      <path
         id="path148"
         d="m 634.402,799.473 c -12.886,0 -24.785,-6.891 -31.199,-18.071 v 0 L 486.32,577.606 c -6.355,-11.087 -6.355,-24.696 0,-35.785 v 0 L 603.203,338.024 c 6.414,-11.176 18.313,-18.071 31.199,-18.071 v 0 h 233.77 c 12.883,0 24.781,6.895 31.195,18.071 v 0 l 116.883,203.797 c 6.355,11.089 6.355,24.698 0,35.785 v 0 l -72.258,125.964 -44.625,77.832 c -6.414,11.18 -18.312,18.071 -31.195,18.071 v 0 z" />
    </clipPath>
    <mask
       id="mask166"
       height="1"
       width="1"
       y="0"
       x="0"
       maskUnits="userSpaceOnUse">
      <g
         id="g176">
        <g
           id="g174">
          <g
             id="g172">
            <g
               id="g170">
              <path
                 id="path168"
                 style="fill:url(#radialGradient164);stroke:none"
                 d="M -32768,32767 H 32767 V -32768 H -32768 Z" />
            </g>
          </g>
        </g>
      </g>
    </mask>
    <radialGradient
       id="radialGradient164"
       spreadMethod="pad"
       gradientTransform="matrix(553.65015,0,0,553.65015,559.08789,767.08496)"
       gradientUnits="userSpaceOnUse"
       r="1"
       cy="0"
       cx="0"
       fy="0"
       fx="0">
      <stop
         id="stop160"
         offset="0"
         style="stop-opacity:0.09999237;stop-color:#ffffff" />
      <stop
         id="stop162"
         offset="1"
         style="stop-opacity:0;stop-color:#ffffff" />
    </radialGradient>
    <radialGradient
       id="radialGradient186"
       spreadMethod="pad"
       gradientTransform="matrix(553.65015,0,0,553.65015,559.08789,767.08496)"
       gradientUnits="userSpaceOnUse"
       r="1"
       cy="0"
       cx="0"
       fy="0"
       fx="0">
      <stop
         id="stop182"
         offset="0"
         style="stop-opacity:1;stop-color:#ffffff" />
      <stop
         id="stop184"
         offset="1"
         style="stop-opacity:1;stop-color:#ffffff" />
    </radialGradient>
    <clipPath
       id="clipPath196"
       clipPathUnits="userSpaceOnUse">
      <path
         id="path194"
         d="M 128,80 H 1374 V 272 H 128 Z" />
    </clipPath>
    <clipPath
       id="clipPath254"
       clipPathUnits="userSpaceOnUse">
      <path
         id="path252"
         d="M 0,136 H 416 V 0 H 0 Z" />
    </clipPath>
  </defs>
  <sodipodi:namedview
     pagecolor="#ffffff"
     bordercolor="#666666"
     borderopacity="1"
     objecttolerance="10"
     gridtolerance="10"
     guidetolerance="10"
     inkscape:pageopacity="0"
     inkscape:pageshadow="2"
     inkscape:window-width="1414"
     inkscape:window-height="1208"
     id="namedview5"
     showgrid="false"
     inkscape:zoom="0.1789864"
     inkscape:cx="1488.9399"
     inkscape:cy="393.88467"
     inkscape:window-x="26"
     inkscape:window-y="23"
     inkscape:window-maximized="0"
     inkscape:current-layer="Ebene_1"
     inkscape:document-rotation="0"
     inkscape:pagecheckerboard="0"
     width="2300px" />
  <path
     d="m 1452.1955,337.60778 a 67.316475,67.316475 0 0 1 1.4905,16.49254 c 0,71.54779 -86.9825,84.09751 -147.1345,84.14559 -233.9729,0 -408.70718,-145.01892 -408.70718,-189.35163 a 29.571166,29.571166 0 0 1 1.05784,-9.61664 L 881.3037,282.8891 a 88.76158,88.76158 0 0 0 -7.21247,35.24499 c 0,87.07866 197.14107,218.5862 422.17047,218.39387 99.5322,0 175.2152,-37.5049 175.119,-104.91753 0,-5.1449 0,-9.32814 -8.3184,-48.70828 z"
     id="path2"
     style="stroke-width:4.80832" />
  <path
     d="m 1306.5515,438.19783 c 60.152,0 147.2307,-12.5978 147.1345,-84.1456 a 67.316475,67.316475 0 0 0 -1.4905,-16.44445 l -35.9663,-155.59721 c -8.3184,-34.23523 -15.6271,-49.76611 -75.7791,-79.77002 -46.6888,-23.801189 -148.3367,-63.133245 -178.3886,-63.085161 -27.9844,0 -36.2548,36.302821 -69.4322,36.350905 -32.1195,0 -56.0169,-26.92659 -86.0689,-26.878506 -28.84988,0 -47.6985,19.76219 -62.17154,60.200162 0,0 -40.34181,114.05332 -45.4867,130.64202 a 29.571166,29.571166 0 0 0 -1.05784,9.61664 c 0,44.3327 174.73428,189.54396 408.70718,189.35163 m 156.5108,-55.48801 c 8.3184,39.38014 8.3184,43.56338 8.3184,48.70828 0,67.31647 -75.5868,104.82137 -175.119,104.91754 -224.9813,0 -422.07431,-131.31522 -422.17047,-218.39388 a 88.76158,88.76158 0 0 1 7.21247,-35.24498 c -80.87598,4.18322 -185.55309,18.80052 -185.50502,111.07218 0,151.3659 359.08542,337.68828 643.16092,337.44787 217.7206,0 272.5836,-98.76289 272.5355,-176.51342 0,-61.2099 -52.8915,-130.59395 -148.4328,-171.99359"
     fill="#ee0000"
     id="path4"
     style="stroke-width:4.80832" />
  <path
     d="m 1925.6707,1149.9734 c 0,57.1228 34.3795,84.915 97.08,84.915 a 250.03262,250.03262 0 0 0 57.171,-8.078 v -66.2587 a 118.04425,118.04425 0 0 1 -36.9279,5.5777 c -25.8207,0 -35.3893,-8.078 -35.3893,-32.36 v -101.696 h 74.8175 v -68.27816 h -74.8175 v -86.54976 l -81.7414,17.69463 v 68.75897 h -54.286 v 68.37432 h 54.0936 z m -254.5524,1.4906 c 0,-17.6946 17.6946,-26.3015 44.4769,-26.3015 a 207.33474,207.33474 0 0 1 48.564,6.0584 v 34.4277 a 103.95587,103.95587 0 0 1 -51.1124,12.6458 c -26.2534,0 -41.9285,-10.1455 -41.9285,-26.8304 m 24.9552,84.4341 c 28.8498,0 52.1222,-6.0585 73.8557,-20.7239 v 16.2041 h 80.9241 v -171.4166 c 0,-65.24896 -43.9962,-100.97477 -117.323,-100.97477 -40.9669,0 -81.453,9.61663 -125.0163,29.33074 l 29.3307,60.20023 c 31.3502,-13.1748 57.6998,-21.2528 80.924,-21.2528 33.6582,0 51.0643,13.1267 51.0643,39.9571 v 12.9344 a 237.91566,237.91566 0 0 0 -60.681,-7.5491 c -68.759,0 -110.2547,28.85 -110.2547,80.3951 0,47.0255 37.4087,82.8955 97.08,82.8955 m -444.4811,-4.5198 h 86.9825 v -138.5758 h 145.644 v 138.5758 h 86.9825 V 877.38974 h -86.8863 V 1013.4171 H 1338.5748 V 877.38974 h -86.9825 z M 920.05876,1097.3704 c 0,-38.4666 30.3405,-67.7492 70.29763,-67.7492 a 82.799265,82.799265 0 0 1 56.64201,20.7238 v 93.5219 a 78.66411,78.66411 0 0 1 -56.64201,21.2527 c -39.42821,0 -70.29763,-29.3307 -70.29763,-67.7492 m 127.94934,134.0079 h 80.9241 V 859.69512 l -81.7415,17.69462 v 100.63813 a 135.9312,135.9312 0 0 0 -68.2781,-17.69462 c -77.8467,0 -139.05666,60.15215 -139.05666,137.03715 a 135.88311,135.88311 0 0 0 136.55633,137.518 120.78499,120.78499 0 0 0 71.78823,-23.2242 z M 676.85391,1026.063 c 25.77259,0 47.50619,16.6849 56.11309,42.4575 H 621.31782 c 8.07797,-26.7824 28.321,-42.4575 55.63225,-42.4575 m -138.04686,71.7882 c 0,77.8948 63.71024,138.5758 145.64401,138.5758 45.00587,0 77.84669,-12.117 111.74535,-40.4379 l -54.14169,-48.0832 c -12.59779,13.1267 -31.35023,20.1949 -53.56467,20.1949 a 69.191719,69.191719 0 0 1 -65.77781,-42.4574 h 190.64987 v -20.2431 c 0,-84.963 -57.12284,-146.12488 -135.01761,-146.12488 A 137.3737,137.3737 0 0 0 538.99938,1097.8031 M 397.82712,951.72636 c 28.84992,0 45.00587,18.22353 45.00587,39.95713 0,21.73361 -16.20404,39.95721 -45.00587,39.95721 H 311.85437 V 951.72636 Z M 224.72761,1231.3783 h 87.12676 v -128.9591 h 66.21056 l 66.78756,128.9591 h 97.07997 l -77.89478,-141.6051 a 107.08128,107.08128 0 0 0 66.78756,-99.62837 c 0,-63.71023 -50.10269,-112.75509 -125.01631,-112.75509 H 224.87186 Z"
     id="path6"
     style="stroke-width:4.80832" />
</svg>
