<?xml version="1.0" encoding="UTF-8" standalone="no"?>
<svg
   xmlns:dc="http://purl.org/dc/elements/1.1/"
   xmlns:cc="http://creativecommons.org/ns#"
   xmlns:rdf="http://www.w3.org/1999/02/22-rdf-syntax-ns#"
   xmlns:svg="http://www.w3.org/2000/svg"
   xmlns="http://www.w3.org/2000/svg"
   xmlns:sodipodi="http://sodipodi.sourceforge.net/DTD/sodipodi-0.dtd"
   xmlns:inkscape="http://www.inkscape.org/namespaces/inkscape"
   inkscape:export-ydpi="100.095"
   inkscape:export-xdpi="100.095"
   inkscape:export-filename="C:\Users\strix\Dropbox\logo-for-pystol\pystol.png"
   sodipodi:docname="pystol_full_big.svg"
   inkscape:version="1.0 (4035a4fb49, 2020-05-01)"
   id="svg8"
   version="1.1"
   viewBox="0 0 119.0625 28.045833"
   height="106"
   width="450">
  <defs
     id="defs2" />
  <sodipodi:namedview
     inkscape:document-rotation="0"
     units="px"
     inkscape:snap-global="false"
     inkscape:window-maximized="0"
     inkscape:window-y="-8"
     inkscape:window-x="-8"
     inkscape:window-height="1537"
     inkscape:window-width="1920"
     inkscape:snap-intersection-paths="true"
     inkscape:snap-bbox-midpoints="true"
     inkscape:snap-bbox-edge-midpoints="true"
     inkscape:bbox-nodes="true"
     inkscape:bbox-paths="true"
     inkscape:snap-bbox="true"
     showgrid="false"
     inkscape:current-layer="layer1"
     inkscape:document-units="mm"
     inkscape:cy="37.678204"
     inkscape:cx="121.43478"
     inkscape:zoom="1.9999999"
     inkscape:pageshadow="2"
     inkscape:pageopacity="0.0"
     borderopacity="1.0"
     bordercolor="#666666"
     pagecolor="#ffffff"
     id="base" />
  <metadata
     id="metadata5">
    <rdf:RDF>
      <cc:Work
         rdf:about="">
        <dc:format>image/svg+xml</dc:format>
        <dc:type
           rdf:resource="http://purl.org/dc/dcmitype/StillImage" />
        <dc:title />
      </cc:Work>
    </rdf:RDF>
  </metadata>
  <g
     transform="translate(0,-268.95422)"
     id="layer1"
     inkscape:groupmode="layer"
     inkscape:label="Capa 1">
    <flowRoot
       transform="matrix(0.87072268,0,0,0.87072268,0.04723551,-680.45548)"
       style="font-style:normal;font-weight:normal;font-size:40px;line-height:1.25;font-family:sans-serif;letter-spacing:0px;word-spacing:0px;fill:#000000;fill-opacity:1;stroke:none"
       id="flowRoot1527"
       xml:space="preserve"><flowRegion
         id="flowRegion1529"><rect
           y="2375.5129"
           x="1066.317"
           height="1187.9395"
           width="2169.4036"
           id="rect1531" /></flowRegion><flowPara
         id="flowPara1533" /></flowRoot>
    <path
       style="vector-effect:none;fill:#fc624d;fill-opacity:1;stroke:#fc624d;stroke-width:0.0180773;stroke-linecap:round;stroke-linejoin:miter;stroke-miterlimit:4;stroke-dasharray:none;stroke-dashoffset:0;stroke-opacity:1"
       d="m 28.604918,271.05761 v 3.1e-4 c -0.245788,0.007 -0.493957,0.074 -0.722943,0.20615 l -8.980596,5.18499 c -0.02548,0.0147 -0.04898,0.0312 -0.07324,0.047 -0.439566,0.26707 -0.733361,0.75065 -0.733361,1.30668 v 10.36997 c 0,0.58219 0.321147,1.08609 0.795554,1.34391 0.003,0.002 0.0055,0.004 0.0088,0.005 l 8.980283,5.18499 c 0.0064,0.004 0.01315,0.006 0.01957,0.0101 0.03189,0.0181 0.06488,0.0344 0.09818,0.0502 0.0096,0.004 0.01908,0.01 0.02873,0.0139 0.03934,0.0177 0.07985,0.0331 0.120911,0.0473 0.0067,0.002 0.01323,0.005 0.01989,0.007 0.04148,0.0138 0.08364,0.0254 0.126593,0.0357 0.0062,0.002 0.0124,0.003 0.01863,0.005 0.03745,0.008 0.07551,0.0149 0.113967,0.0206 0.01307,0.002 0.02607,0.004 0.03915,0.005 0.03299,0.004 0.06649,0.006 0.100075,0.008 0.01716,6e-4 0.03435,0.002 0.05146,0.002 0.0102,1.6e-4 0.0201,0.002 0.03031,0.002 0.02285,0 0.04496,-0.002 0.06756,-0.004 0.01735,-6e-4 0.03474,-0.002 0.05209,-0.002 0.03293,-0.002 0.06527,-0.007 0.09755,-0.0113 0.01656,-0.002 0.03313,-0.005 0.04957,-0.008 0.03317,-0.006 0.06581,-0.0129 0.09818,-0.0209 0.0149,-0.004 0.02972,-0.008 0.04451,-0.0117 0.0328,-0.009 0.06505,-0.0193 0.09692,-0.0306 0.01405,-0.005 0.02775,-0.0101 0.04167,-0.0155 0.0317,-0.0123 0.06283,-0.0255 0.09345,-0.0397 0.01399,-0.006 0.02786,-0.0132 0.04167,-0.0202 0.02914,-0.0147 0.05749,-0.0305 0.08555,-0.047 0.01582,-0.009 0.03152,-0.0186 0.04704,-0.0284 0.02242,-0.0144 0.04434,-0.0293 0.06598,-0.0448 0.02053,-0.0147 0.04076,-0.0297 0.06061,-0.0454 0.01808,-0.0144 0.03563,-0.0293 0.05304,-0.0445 0.0201,-0.0175 0.0401,-0.0353 0.05935,-0.054 0.01503,-0.0146 0.02947,-0.0296 0.04388,-0.0448 0.0198,-0.0209 0.03933,-0.0419 0.05808,-0.0641 0.01454,-0.0172 0.02825,-0.0349 0.04199,-0.0527 0.01552,-0.0201 0.03087,-0.0403 0.04546,-0.0613 0.01552,-0.0222 0.03016,-0.0451 0.04451,-0.0682 0.0086,-0.0137 0.01802,-0.0265 0.0262,-0.0408 0.0036,-0.006 0.0062,-0.0129 0.0098,-0.0192 0.01307,-0.0234 0.02482,-0.0475 0.03662,-0.0717 0.01094,-0.0222 0.02211,-0.0442 0.03189,-0.0667 0.0084,-0.0193 0.01547,-0.0392 0.02304,-0.059 0.01112,-0.0289 0.02203,-0.0577 0.03125,-0.0868 0.0043,-0.0136 0.0078,-0.0275 0.01168,-0.0413 0.01008,-0.0353 0.01976,-0.0707 0.02715,-0.10639 0.0025,-0.0116 0.0035,-0.0236 0.006,-0.0354 0.0069,-0.0372 0.01308,-0.0744 0.01705,-0.11174 0.0018,-0.019 0.0025,-0.0385 0.0044,-0.0578 0.0018,-0.028 0.0042,-0.056 0.0042,-0.084 1.58e-4,-0.009 0.0012,-0.0184 0.0012,-0.0278 v -9.53841 l 1.8926,-1.09263 c 0.732761,-0.42305 0.983791,-1.35049 0.562886,-2.07949 -0.420887,-0.729 -1.349568,-0.9752 -2.082328,-0.55215 l -2.645216,1.52734 c -0.503774,0.29085 -0.779906,0.82011 -0.766509,1.35939 -1.9e-5,0.002 -3.16e-4,0.004 -3.16e-4,0.006 v 7.74619 l -5.993829,-3.45997 v -8.63459 l 7.514821,-4.33859 7.727599,4.46109 v 8.63207 l -1.892596,1.09262 c -0.732748,0.42305 -0.984085,1.35049 -0.563201,2.07948 0.420904,0.72901 1.349903,0.97521 2.082645,0.55216 l 2.645214,-1.52702 c 0.01289,-0.008 0.02435,-0.0162 0.03694,-0.024 0.02835,-0.0174 0.05658,-0.0349 0.08366,-0.054 0.01276,-0.009 0.02479,-0.0188 0.03725,-0.0281 0.02663,-0.0201 0.05279,-0.0406 0.07798,-0.0622 0.01619,-0.0139 0.03152,-0.0285 0.04704,-0.043 0.02016,-0.0189 0.04055,-0.0378 0.05967,-0.0578 0.01521,-0.0158 0.02915,-0.0323 0.04357,-0.0486 0.01851,-0.0211 0.03695,-0.0423 0.0543,-0.0644 0.01368,-0.0174 0.02663,-0.0352 0.03946,-0.053 0.01491,-0.0208 0.02939,-0.0416 0.04325,-0.0631 0.01362,-0.0212 0.02636,-0.0427 0.03883,-0.0644 0.01185,-0.0206 0.02354,-0.0413 0.03441,-0.0625 0.0121,-0.0234 0.02327,-0.0471 0.0341,-0.071 0.0089,-0.0198 0.01745,-0.0395 0.02557,-0.0596 0.01118,-0.0279 0.02115,-0.0562 0.03063,-0.0846 0.0061,-0.0176 0.01178,-0.0349 0.01704,-0.0527 0.0087,-0.0296 0.01614,-0.0593 0.02305,-0.0893 0.0043,-0.0189 0.0087,-0.0376 0.01232,-0.0568 0.0063,-0.0333 0.01105,-0.0667 0.01516,-0.10039 0.0018,-0.015 0.0038,-0.0298 0.0057,-0.0448 0.0031,-0.0348 0.0048,-0.0697 0.0054,-0.10481 3.16e-4,-0.0132 0.0019,-0.0259 0.0019,-0.0392 v -10.36966 c 0,-0.58949 -0.329336,-1.09829 -0.813547,-1.35307 -0.01118,-0.007 -0.02147,-0.0145 -0.03283,-0.0211 l -8.980594,-5.18496 c -0.02975,-0.0172 -0.06024,-0.0314 -0.09061,-0.0464 -0.263155,-0.17708 -0.575452,-0.26842 -0.892471,-0.25918 z m 4.678924,13.12252 a 1.5182326,1.5182326 0 0 0 -0.723258,0.203 1.5182326,1.5182326 0 0 0 -0.555939,2.07412 1.5182326,1.5182326 0 0 0 2.074121,0.55562 1.5182326,1.5182326 0 0 0 0.555624,-2.07381 1.5182326,1.5182326 0 0 0 -1.350548,-0.75893 z"
       id="path1036-2-6"
       inkscape:connector-curvature="0"
       inkscape:export-xdpi="100.095"
       inkscape:export-ydpi="100.095"
       inkscape:export-filename="C:\Users\strix\Dropbox\kubeinit\docs\src\white_text_logo.png" />
    <path
       inkscape:connector-curvature="0"
       id="path879"
       style="font-style:normal;font-variant:normal;font-weight:bold;font-stretch:normal;font-size:medium;line-height:1.25;font-family:Quicksand;-inkscape-font-specification:'Quicksand Bold';letter-spacing:-2.62202px;word-spacing:0px;fill:#000000;fill-opacity:1;stroke:none;stroke-width:0.471196"
       d="m 42.998161,289.56474 c 0.584283,0 1.03663,-0.4712 1.03663,-1.03663 v -2.67639 l 1.960172,-1.99787 4.071125,5.33393 c 0.207326,0.24502 0.490044,0.37696 0.77276,0.37696 0.245021,0 0.471196,-0.0754 0.659674,-0.24502 0.452348,-0.35811 0.527738,-1.01779 0.150782,-1.45129 l -4.184212,-5.48471 4.146516,-4.12766 c 0.395805,-0.41466 0.395805,-1.07433 0,-1.47013 -0.414651,-0.41466 -1.055476,-0.41466 -1.470129,0 l -6.106688,6.12553 v -5.40932 c 0,-0.54658 -0.452347,-1.03662 -1.03663,-1.03662 -0.584283,0 -1.036628,0.49004 -1.036628,1.03662 v 11.02597 c 0,0.56543 0.452345,1.03663 1.036628,1.03663 z"
       inkscape:export-xdpi="100.095"
       inkscape:export-ydpi="100.095"
       inkscape:export-filename="C:\Users\strix\Dropbox\kubeinit\docs\src\white_text_logo.png" />
    <path
       inkscape:connector-curvature="0"
       id="path881"
       style="font-style:normal;font-variant:normal;font-weight:bold;font-stretch:normal;font-size:medium;line-height:1.25;font-family:Quicksand;-inkscape-font-specification:'Quicksand Bold';letter-spacing:-2.62202px;word-spacing:0px;fill:#000000;fill-opacity:1;stroke:none;stroke-width:0.471196"
       d="m 60.129297,285.64439 v -4.50462 c 0,-0.52775 -0.490047,-0.99894 -1.017785,-0.99894 -0.565428,0 -0.980082,0.47119 -0.980082,0.99894 v 4.50462 c -0.01883,1.07432 -0.885844,1.92248 -1.979017,1.92248 -1.074325,0 -1.922477,-0.84816 -1.922477,-1.92248 v -4.50462 c 0,-0.52775 -0.433499,-0.99894 -0.998933,-0.99894 -0.546587,0 -0.998934,0.47119 -0.998934,0.99894 v 4.50462 c 0,2.14866 1.771693,3.92035 3.920344,3.92035 2.167494,0 3.976884,-1.77169 3.976884,-3.92035 z"
       inkscape:export-xdpi="100.095"
       inkscape:export-ydpi="100.095"
       inkscape:export-filename="C:\Users\strix\Dropbox\kubeinit\docs\src\white_text_logo.png" />
    <path
       inkscape:connector-curvature="0"
       id="path883"
       style="font-style:normal;font-variant:normal;font-weight:bold;font-stretch:normal;font-size:medium;line-height:1.25;font-family:Quicksand;-inkscape-font-specification:'Quicksand Bold';letter-spacing:-2.62202px;word-spacing:0px;fill:#000000;fill-opacity:1;stroke:none;stroke-width:0.471196"
       d="m 61.234198,288.54695 c 0,0.54659 0.452343,1.01779 1.017781,1.01779 0.508891,0 0.904696,-0.35811 0.998932,-0.81046 0.716218,0.49005 1.620916,0.81046 2.563305,0.81046 2.54445,0 4.580015,-2.14865 4.580015,-4.69311 0,-2.58214 -2.035565,-4.7308 -4.580015,-4.7308 -0.923544,0 -1.828242,0.30157 -2.525606,0.79161 v -3.54339 c 0,-0.54658 -0.452348,-1.01778 -1.036631,-1.01778 -0.565438,0 -1.017781,0.4712 -1.017781,1.01778 v 7.46373 c 0,0 0,0 0,0.0188 0,0 0,0 0,0 z m 2.808321,-5.57894 c 0.471195,-0.49005 1.074324,-0.77277 1.771697,-0.77277 0.678518,0 1.300494,0.28272 1.771687,0.77277 0.471201,0.47119 0.753916,1.14971 0.753916,1.90362 0,0.71622 -0.282715,1.39475 -0.753916,1.86594 -0.471193,0.49004 -1.093169,0.77276 -1.771687,0.77276 -0.697373,0 -1.300502,-0.28272 -1.771697,-0.77276 -0.471193,-0.47119 -0.753909,-1.14972 -0.753909,-1.86594 0,-0.75391 0.282716,-1.43243 0.753909,-1.90362 z"
       inkscape:export-xdpi="100.095"
       inkscape:export-ydpi="100.095"
       inkscape:export-filename="C:\Users\strix\Dropbox\kubeinit\docs\src\white_text_logo.png" />
    <path
       inkscape:connector-curvature="0"
       id="path885"
       style="font-style:normal;font-variant:normal;font-weight:bold;font-stretch:normal;font-size:medium;line-height:1.25;font-family:Quicksand;-inkscape-font-specification:'Quicksand Bold';letter-spacing:-2.62202px;word-spacing:0px;fill:#000000;fill-opacity:1;stroke:none;stroke-width:0.471196"
       d="m 75.790251,289.56474 c 1.338193,0 2.450217,-0.39581 3.373763,-1.24396 0.433501,-0.3958 0.24502,-0.96124 0,-1.22511 -0.245025,-0.30156 -1.017783,-0.3581 -1.413588,0.0565 -0.471195,0.35811 -1.281655,0.52774 -1.960175,0.4712 -0.659674,-0.0565 -1.413583,-0.39581 -1.809388,-0.84815 -0.339259,-0.32042 -0.546585,-0.81047 -0.640826,-1.24395 h 5.993608 c 0.527739,0 0.923535,-0.30158 0.980072,-0.75392 0.0188,-0.0377 0.0188,-0.13194 0.0188,-0.16963 0,0 0,0 0,0 0,0 0,0 0,0 0,-0.0377 0,-0.0754 0,-0.0942 -0.150787,-2.54446 -2.09211,-4.3727 -4.542327,-4.3727 -2.58215,0 -4.580016,2.14866 -4.598863,4.71196 0.01883,2.5633 2.016713,4.6931 4.598863,4.71195 z m 0,-7.63337 c 1.639761,0.13194 2.601,1.24396 2.789475,1.99787 H 73.2458 c 0.15078,-0.77276 0.942388,-1.92247 2.544451,-1.99787 z"
       inkscape:export-xdpi="100.095"
       inkscape:export-ydpi="100.095"
       inkscape:export-filename="C:\Users\strix\Dropbox\kubeinit\docs\src\white_text_logo.png" />
    <path
       inkscape:connector-curvature="0"
       id="path889"
       style="font-style:normal;font-variant:normal;font-weight:bold;font-stretch:normal;font-size:medium;line-height:1.25;font-family:Quicksand;-inkscape-font-specification:'Quicksand Bold';letter-spacing:-2.62202px;word-spacing:0px;fill:#000000;fill-opacity:1;stroke:none;stroke-width:0.471196"
       d="m 88.735069,280.14083 c -0.735066,0 -1.432436,0.22618 -1.997868,0.58429 -0.169632,-0.35811 -0.527739,-0.58429 -0.923546,-0.58429 -0.565432,0 -0.998933,0.45235 -0.998933,0.99894 v 2.92141 c 0,0 0,0 0,0 v 4.50462 c 0,0.54659 0.433501,0.99894 0.998933,0.99894 0.490045,0 0.904701,-0.35811 0.998933,-0.81046 0.03772,-0.0754 0.03772,-0.13193 0.03772,-0.18848 v -4.50462 c 0,-1.05548 0.829308,-1.90363 1.884789,-1.90363 1.074317,0 1.960166,0.84815 1.960166,1.90363 v 4.50462 c 0,0.54659 0.471195,0.99894 0.998933,0.99894 0.546588,0 0.980083,-0.45235 0.980083,-0.99894 v -4.50462 c 0,-2.12981 -1.752848,-3.92035 -3.939182,-3.92035 z"
       inkscape:export-xdpi="100.095"
       inkscape:export-ydpi="100.095"
       inkscape:export-filename="C:\Users\strix\Dropbox\kubeinit\docs\src\white_text_logo.png" />
    <path
       id="path891"
       style="font-style:normal;font-variant:normal;font-weight:bold;font-stretch:normal;font-size:medium;line-height:1.25;font-family:Quicksand;-inkscape-font-specification:'Quicksand Bold';letter-spacing:-2.62202px;word-spacing:0px;fill:#000000;fill-opacity:1;stroke:none;stroke-width:0.471196"
       d="m 94.665075,280.15963 c -0.56543,0 -1.017891,0.43358 -1.017891,1.03671 v 7.35076 c 0,0.56545 0.452461,1.0176 1.017891,1.0176 0.584288,0 1.017591,-0.45215 1.017591,-1.0176 v -7.35076 c 0,-0.60313 -0.433303,-1.03671 -1.017591,-1.03671 z"
       inkscape:export-xdpi="100.095"
       inkscape:export-ydpi="100.095"
       inkscape:export-filename="C:\Users\strix\Dropbox\kubeinit\docs\src\white_text_logo.png" />
    <path
       inkscape:connector-curvature="0"
       id="path893"
       style="font-style:normal;font-variant:normal;font-weight:bold;font-stretch:normal;font-size:medium;line-height:1.25;font-family:Quicksand;-inkscape-font-specification:'Quicksand Bold';letter-spacing:-2.62202px;word-spacing:0px;fill:#000000;fill-opacity:1;stroke:none;stroke-width:0.471196"
       d="m 100.59554,280.14083 h -0.4712 v -2.73293 c 0,-0.58428 -0.452352,-1.03663 -1.036632,-1.03663 -0.58428,0 -1.055476,0.45235 -1.055476,1.03663 v 2.73293 h -0.54658 c -0.58428,0 -1.036633,0.45235 -1.036633,1.03664 0,0.56543 0.452353,1.03662 1.036633,1.03662 h 0.54658 v 5.25855 c 0,1.14971 0.942391,2.0921 2.092108,2.0921 0.58428,0 1.03663,-0.45235 1.03663,-1.03663 0,-0.58428 -0.45235,-1.05547 -1.03663,-1.05547 0,0 0,0 0,0 v -5.25855 h 0.4712 c 0.56543,0 1.05548,-0.47119 1.05548,-1.03662 0,-0.58429 -0.49005,-1.03664 -1.05548,-1.03664 z"
       inkscape:export-xdpi="100.095"
       inkscape:export-ydpi="100.095"
       inkscape:export-filename="C:\Users\strix\Dropbox\kubeinit\docs\src\white_text_logo.png" />
    <path
       style="font-style:normal;font-variant:normal;font-weight:bold;font-stretch:normal;font-size:medium;line-height:1.25;font-family:Quicksand;-inkscape-font-specification:'Quicksand Bold';letter-spacing:-2.62202px;word-spacing:0px;fill:#000000;fill-opacity:1;stroke:none;stroke-width:0.471196"
       d="m 82.673935,278.58034 c -0.565439,0 -1.017903,0.43359 -1.017903,1.03671 v 1.57929 5.77148 1.57928 c 0,0.56545 0.452464,1.0176 1.017903,1.0176 0.584276,0 1.017586,-0.45215 1.017586,-1.0176 v -1.57928 -5.77148 -1.57929 c 0,-0.60312 -0.43331,-1.03671 -1.017586,-1.03671 z"
       id="path891-4"
       inkscape:export-xdpi="100.095"
       inkscape:export-ydpi="100.095"
       inkscape:export-filename="C:\Users\strix\Dropbox\kubeinit\docs\src\white_text_logo.png" />
    <circle
       style="vector-effect:none;fill:#fc624d;fill-opacity:1;stroke:#fc624d;stroke-width:0.0140867;stroke-linecap:round;stroke-linejoin:miter;stroke-miterlimit:4;stroke-dasharray:none;stroke-dashoffset:0;stroke-opacity:1"
       id="path886-5"
       cx="82.673889"
       cy="276.45642"
       r="1.4851937"
       inkscape:export-xdpi="100.095"
       inkscape:export-ydpi="100.095"
       inkscape:export-filename="C:\Users\strix\Dropbox\kubeinit\docs\src\white_text_logo.png" />
  </g>
</svg>
