<?xml version="1.0" encoding="UTF-8" standalone="no"?>
<svg
   xmlns:dc="http://purl.org/dc/elements/1.1/"
   xmlns:cc="http://creativecommons.org/ns#"
   xmlns:rdf="http://www.w3.org/1999/02/22-rdf-syntax-ns#"
   xmlns:svg="http://www.w3.org/2000/svg"
   xmlns="http://www.w3.org/2000/svg"
   xmlns:sodipodi="http://sodipodi.sourceforge.net/DTD/sodipodi-0.dtd"
   xmlns:inkscape="http://www.inkscape.org/namespaces/inkscape"
   inkscape:export-ydpi="100.095"
   inkscape:export-xdpi="100.095"
   inkscape:export-filename="C:\Users\strix\Dropbox\logo-for-pystol\pystol.png"
   sodipodi:docname="pystol-base.svg"
   inkscape:version="1.0 (4035a4fb49, 2020-05-01)"
   id="svg8"
   version="1.1"
   viewBox="0 0 36.777083 8.4666666"
   height="32"
   width="139">
  <defs
     id="defs2" />
  <sodipodi:namedview
     inkscape:document-rotation="0"
     units="px"
     inkscape:snap-global="false"
     inkscape:window-maximized="0"
     inkscape:window-y="-8"
     inkscape:window-x="-8"
     inkscape:window-height="1537"
     inkscape:window-width="1920"
     inkscape:snap-intersection-paths="true"
     inkscape:snap-bbox-midpoints="true"
     inkscape:snap-bbox-edge-midpoints="true"
     inkscape:bbox-nodes="true"
     inkscape:bbox-paths="true"
     inkscape:snap-bbox="true"
     showgrid="false"
     inkscape:current-layer="layer1"
     inkscape:document-units="mm"
     inkscape:cy="13.689184"
     inkscape:cx="47.522387"
     inkscape:zoom="22.627416"
     inkscape:pageshadow="2"
     inkscape:pageopacity="0.0"
     borderopacity="1.0"
     bordercolor="#666666"
     pagecolor="#ffffff"
     id="base" />
  <metadata
     id="metadata5">
    <rdf:RDF>
      <cc:Work
         rdf:about="">
        <dc:format>image/svg+xml</dc:format>
        <dc:type
           rdf:resource="http://purl.org/dc/dcmitype/StillImage" />
        <dc:title />
      </cc:Work>
    </rdf:RDF>
  </metadata>
  <g
     transform="translate(0,-288.53338)"
     id="layer1"
     inkscape:groupmode="layer"
     inkscape:label="Capa 1">
    <flowRoot
       transform="translate(0.19843751,-9.6903651)"
       style="font-style:normal;font-weight:normal;font-size:10.5833px;line-height:1.25;font-family:sans-serif;letter-spacing:0px;word-spacing:0px;fill:#000000;fill-opacity:1;stroke:none;stroke-width:0.264583"
       id="flowRoot1527"
       xml:space="preserve"><flowRegion
         style="stroke-width:0.264583"
         id="flowRegion1529"><rect
           style="stroke-width:0.07000434"
           y="628.52112"
           x="282.1297"
           height="314.30899"
           width="573.98804"
           id="rect1531" /></flowRegion><flowPara
         style="stroke-width:0.264583"
         id="flowPara1533" /></flowRoot>
    <path
       style="vector-effect:none;fill:#fc624d;fill-opacity:1;stroke:#fc624d;stroke-width:0.00632599;stroke-linecap:round;stroke-linejoin:miter;stroke-miterlimit:4;stroke-dasharray:none;stroke-dashoffset:0;stroke-opacity:1"
       d="m 7.9385714,288.62097 v 1.1e-4 c -0.086012,0.002 -0.1728562,0.0259 -0.2529881,0.0722 l -3.1426856,1.81445 c -0.0089,0.005 -0.017145,0.011 -0.025625,0.0165 -0.1538229,0.0935 -0.2566336,0.26268 -0.2566336,0.45726 v 3.62889 c 0,0.20374 0.1123818,0.38007 0.2783975,0.47029 0.00106,6.3e-4 0.00187,10e-4 0.00308,0.002 l 3.1425759,1.81444 c 0.0022,10e-4 0.00461,0.002 0.00681,0.003 0.011159,0.007 0.022703,0.012 0.034357,0.0176 0.0034,10e-4 0.0067,0.003 0.010105,0.004 0.013762,0.007 0.027942,0.0115 0.042309,0.0166 0.00231,8.4e-4 0.00461,0.002 0.00692,0.002 0.01452,0.004 0.029271,0.009 0.044297,0.0125 0.0022,4.1e-4 0.00428,10e-4 0.00648,0.002 0.013103,0.003 0.026426,0.005 0.039881,0.008 0.00461,6.3e-4 0.00912,0.001 0.013697,0.002 0.011544,10e-4 0.023263,0.002 0.035016,0.003 0.00604,2.1e-4 0.012016,8.4e-4 0.018013,8.4e-4 0.00351,5e-5 0.00703,6.2e-4 0.010654,6.2e-4 0.00802,0 0.015728,-8.3e-4 0.023637,-10e-4 0.00604,-2.1e-4 0.012159,-4.2e-4 0.018233,-8.4e-4 0.011522,-8.3e-4 0.022835,-0.002 0.034137,-0.004 0.00582,-8.4e-4 0.011599,-0.002 0.017343,-0.002 0.01161,-0.002 0.023033,-0.004 0.034357,-0.008 0.00516,-0.001 0.010434,-0.002 0.015575,-0.004 0.011478,-0.003 0.022769,-0.007 0.033917,-0.011 0.00494,-0.002 0.00967,-0.003 0.014586,-0.005 0.011093,-0.004 0.021989,-0.009 0.032698,-0.014 0.00494,-0.002 0.00978,-0.004 0.014586,-0.007 0.010215,-0.005 0.020122,-0.011 0.029941,-0.0165 0.00549,-0.003 0.011027,-0.007 0.016464,-0.01 0.0078,-0.005 0.01552,-0.01 0.023087,-0.0157 0.00714,-0.005 0.014268,-0.01 0.021209,-0.0159 0.00637,-0.005 0.012466,-0.01 0.018562,-0.0156 0.00703,-0.007 0.014037,-0.0124 0.02077,-0.0189 0.00527,-0.005 0.010325,-0.01 0.015355,-0.0157 0.00692,-0.008 0.013762,-0.0147 0.020331,-0.0224 0.00505,-0.005 0.00989,-0.0122 0.014696,-0.0184 0.00538,-0.007 0.010764,-0.0141 0.015904,-0.0214 0.00538,-0.008 0.010544,-0.0157 0.015575,-0.0238 0.00297,-0.004 0.00626,-0.009 0.00912,-0.0143 0.00132,-0.002 0.0022,-0.004 0.0034,-0.007 0.00461,-0.008 0.00868,-0.0166 0.012818,-0.0251 0.00384,-0.008 0.00769,-0.0155 0.011159,-0.0233 0.00297,-0.007 0.00538,-0.0137 0.00802,-0.0206 0.00384,-0.01 0.00769,-0.0202 0.010984,-0.0304 0.00154,-0.004 0.00275,-0.01 0.00406,-0.0145 0.00351,-0.0124 0.00692,-0.0247 0.00945,-0.0372 8.556e-4,-0.004 0.00121,-0.009 0.00209,-0.0124 0.00242,-0.013 0.00461,-0.026 0.00593,-0.0391 6.48e-4,-0.007 8.985e-4,-0.0135 0.00154,-0.0202 6.47e-4,-0.01 0.00143,-0.0197 0.00143,-0.0293 5.49e-5,-0.003 4.382e-4,-0.007 4.382e-4,-0.01 v -3.33789 l 0.6623,-0.38235 c 0.2564238,-0.14805 0.3442694,-0.47259 0.1969774,-0.72771 -0.1472855,-0.2551 -0.4722709,-0.34126 -0.7286936,-0.19321 l -0.925672,0.53447 c -0.1762908,0.10182 -0.2729211,0.28699 -0.2682333,0.47571 -6.6e-6,8.4e-4 -1.109e-4,0.001 -1.109e-4,0.002 v 2.71073 l -2.0974915,-1.2108 v -3.02161 l 2.6297503,-1.51826 2.7042099,1.56113 v 3.02072 l -0.6623111,0.38362 c -0.2564194,0.14804 -0.3443726,0.47259 -0.1970872,0.72769 0.147292,0.25511 0.4723873,0.34126 0.7288043,0.19323 l 0.925671,-0.53438 c 0.0045,-0.002 0.0086,-0.005 0.01293,-0.009 0.0099,-0.007 0.0198,-0.0122 0.02927,-0.0189 0.0045,-0.003 0.0087,-0.007 0.01304,-0.01 0.0093,-0.007 0.01848,-0.0142 0.02729,-0.0217 0.0057,-0.004 0.01103,-0.01 0.01647,-0.015 0.007,-0.007 0.01419,-0.0132 0.02088,-0.0202 0.0053,-0.005 0.01021,-0.0113 0.01525,-0.017 0.0065,-0.008 0.01293,-0.0148 0.019,-0.0225 0.0048,-0.007 0.0093,-0.0123 0.01381,-0.0186 0.0053,-0.008 0.01032,-0.0146 0.01514,-0.0221 0.0047,-0.008 0.0092,-0.0149 0.01359,-0.0225 0.0042,-0.008 0.0082,-0.0145 0.01204,-0.0219 0.0043,-0.008 0.0081,-0.0165 0.01193,-0.0248 0.0031,-0.007 0.0062,-0.0138 0.0089,-0.0209 0.004,-0.01 0.0074,-0.0197 0.01076,-0.0297 0.0021,-0.007 0.0042,-0.0122 0.0059,-0.0185 0.0031,-0.01 0.0056,-0.0208 0.008,-0.0313 0.0015,-0.007 0.0031,-0.0132 0.0043,-0.0199 0.0022,-0.0116 0.0038,-0.0234 0.0053,-0.0351 6.47e-4,-0.005 0.0013,-0.01 0.002,-0.0157 0.0011,-0.0122 0.0016,-0.0244 0.0019,-0.0367 1.1e-4,-0.004 6.68e-4,-0.009 6.68e-4,-0.0137 v -3.62878 c 0,-0.20629 -0.115249,-0.38433 -0.284694,-0.4735 -0.004,-0.002 -0.0075,-0.005 -0.01149,-0.008 l -3.1426839,-1.81443 c -0.010434,-0.005 -0.021077,-0.011 -0.03171,-0.0163 -0.092086,-0.0619 -0.2013752,-0.0939 -0.3123126,-0.0907 z m 1.6373509,4.59211 a 0.531293,0.531293 0 0 0 -0.2530979,0.0711 0.531293,0.531293 0 0 0 -0.1945467,0.72582 0.531293,0.531293 0 0 0 0.7258213,0.19443 0.531293,0.531293 0 0 0 0.194437,-0.72571 0.531293,0.531293 0 0 0 -0.4726137,-0.26558 z"
       id="path1036-2-6"
       inkscape:connector-curvature="0"
       inkscape:export-xdpi="100.095"
       inkscape:export-ydpi="100.095"
       inkscape:export-filename="C:\Users\strix\Dropbox\kubeinit\docs\src\white_text_logo.png" />
    <path
       inkscape:connector-curvature="0"
       id="path879"
       style="font-style:normal;font-variant:normal;font-weight:bold;font-stretch:normal;font-size:medium;line-height:1.25;font-family:Quicksand;-inkscape-font-specification:'Quicksand Bold';letter-spacing:-2.62202px;word-spacing:0px;fill:#000000;fill-opacity:1;stroke:none;stroke-width:0.164891"
       d="m 12.975369,295.09738 c 0.204463,0 0.362759,-0.16488 0.362759,-0.36275 v -0.93658 l 0.685946,-0.69914 1.424657,1.86656 c 0.07255,0.0858 0.171487,0.13191 0.270421,0.13191 0.08574,0 0.164891,-0.0264 0.230847,-0.0858 0.158296,-0.12532 0.184678,-0.35616 0.05277,-0.50787 l -1.464231,-1.91932 1.45104,-1.44444 c 0.138508,-0.14512 0.138508,-0.37596 0,-0.51446 -0.145103,-0.14512 -0.369355,-0.14512 -0.51446,0 l -2.136985,2.14357 v -1.89295 c 0,-0.19127 -0.158296,-0.36275 -0.362759,-0.36275 -0.204466,0 -0.36276,0.17148 -0.36276,0.36275 v 3.85845 c 0,0.19787 0.158294,0.36276 0.36276,0.36276 z"
       inkscape:export-xdpi="100.095"
       inkscape:export-ydpi="100.095"
       inkscape:export-filename="C:\Users\strix\Dropbox\kubeinit\docs\src\white_text_logo.png" />
    <path
       inkscape:connector-curvature="0"
       id="path881"
       style="font-style:normal;font-variant:normal;font-weight:bold;font-stretch:normal;font-size:medium;line-height:1.25;font-family:Quicksand;-inkscape-font-specification:'Quicksand Bold';letter-spacing:-2.62202px;word-spacing:0px;fill:#000000;fill-opacity:1;stroke:none;stroke-width:0.164891"
       d="m 18.970268,293.72549 v -1.57635 c 0,-0.18468 -0.171487,-0.34958 -0.356165,-0.34958 -0.197867,0 -0.342971,0.1649 -0.342971,0.34958 v 1.57635 c -0.0066,0.37596 -0.309994,0.67276 -0.692542,0.67276 -0.375951,0 -0.672755,-0.2968 -0.672755,-0.67276 v -1.57635 c 0,-0.18468 -0.151698,-0.34958 -0.349568,-0.34958 -0.191274,0 -0.349569,0.1649 -0.349569,0.34958 v 1.57635 c 0,0.7519 0.61999,1.37189 1.371892,1.37189 0.758497,0 1.391678,-0.61999 1.391678,-1.37189 z"
       inkscape:export-xdpi="100.095"
       inkscape:export-ydpi="100.095"
       inkscape:export-filename="C:\Users\strix\Dropbox\kubeinit\docs\src\white_text_logo.png" />
    <path
       inkscape:connector-curvature="0"
       id="path883"
       style="font-style:normal;font-variant:normal;font-weight:bold;font-stretch:normal;font-size:medium;line-height:1.25;font-family:Quicksand;-inkscape-font-specification:'Quicksand Bold';letter-spacing:-2.62202px;word-spacing:0px;fill:#000000;fill-opacity:1;stroke:none;stroke-width:0.164891"
       d="m 19.356919,294.74122 c 0,0.19128 0.158294,0.35616 0.356164,0.35616 0.178083,0 0.316591,-0.12531 0.349568,-0.2836 0.250635,0.17148 0.567226,0.2836 0.897007,0.2836 0.890411,0 1.60274,-0.7519 1.60274,-1.64231 0,-0.9036 -0.712329,-1.65551 -1.60274,-1.65551 -0.323186,0 -0.639777,0.10556 -0.883814,0.27702 v -1.23997 c 0,-0.19128 -0.158296,-0.35617 -0.362761,-0.35617 -0.19787,0 -0.356164,0.16489 -0.356164,0.35617 v 2.61186 c 0,0 0,0 0,0.007 0,0 0,0 0,0 z m 0.982749,-1.95231 c 0.164891,-0.17149 0.37595,-0.27042 0.61999,-0.27042 0.237442,0 0.455098,0.099 0.619988,0.27042 0.164893,0.1649 0.263827,0.40234 0.263827,0.66616 0,0.25064 -0.09893,0.48808 -0.263827,0.65297 -0.16489,0.17148 -0.382546,0.27042 -0.619988,0.27042 -0.24404,0 -0.455099,-0.099 -0.61999,-0.27042 -0.164891,-0.16489 -0.263824,-0.40233 -0.263824,-0.65297 0,-0.26382 0.09893,-0.50126 0.263824,-0.66616 z"
       inkscape:export-xdpi="100.095"
       inkscape:export-ydpi="100.095"
       inkscape:export-filename="C:\Users\strix\Dropbox\kubeinit\docs\src\white_text_logo.png" />
    <path
       inkscape:connector-curvature="0"
       id="path885"
       style="font-style:normal;font-variant:normal;font-weight:bold;font-stretch:normal;font-size:medium;line-height:1.25;font-family:Quicksand;-inkscape-font-specification:'Quicksand Bold';letter-spacing:-2.62202px;word-spacing:0px;fill:#000000;fill-opacity:1;stroke:none;stroke-width:0.164891"
       d="m 24.45069,295.09738 c 0.46829,0 0.857434,-0.1385 1.180621,-0.43531 0.1517,-0.1385 0.08574,-0.33637 0,-0.42871 -0.08575,-0.10555 -0.356166,-0.12532 -0.494674,0.0198 -0.164891,0.12531 -0.448505,0.18468 -0.685947,0.16489 -0.230847,-0.0198 -0.494672,-0.13851 -0.63318,-0.2968 -0.118721,-0.11213 -0.191274,-0.28362 -0.224252,-0.43531 h 2.097414 c 0.184678,0 0.323183,-0.10556 0.342968,-0.26383 0.0066,-0.0132 0.0066,-0.0461 0.0066,-0.0593 0,0 0,0 0,0 0,0 0,0 0,0 0,-0.0132 0,-0.0264 0,-0.033 -0.05276,-0.89042 -0.732117,-1.53019 -1.589551,-1.53019 -0.903601,0 -1.602739,0.7519 -1.609334,1.64891 0.0066,0.89701 0.705733,1.64231 1.609334,1.64891 z m 0,-2.67123 c 0.573821,0.0461 0.910199,0.43532 0.976154,0.69914 H 23.56028 c 0.05277,-0.27042 0.329781,-0.67275 0.89041,-0.69914 z"
       inkscape:export-xdpi="100.095"
       inkscape:export-ydpi="100.095"
       inkscape:export-filename="C:\Users\strix\Dropbox\kubeinit\docs\src\white_text_logo.png" />
    <path
       inkscape:connector-curvature="0"
       id="path889"
       style="font-style:normal;font-variant:normal;font-weight:bold;font-stretch:normal;font-size:medium;line-height:1.25;font-family:Quicksand;-inkscape-font-specification:'Quicksand Bold';letter-spacing:-2.62202px;word-spacing:0px;fill:#000000;fill-opacity:1;stroke:none;stroke-width:0.164891"
       d="m 28.980622,291.79956 c -0.25723,0 -0.501269,0.0792 -0.699137,0.20447 -0.05937,-0.12531 -0.184678,-0.20447 -0.323187,-0.20447 -0.197868,0 -0.349569,0.1583 -0.349569,0.34958 v 1.02232 c 0,0 0,0 0,0 v 1.57636 c 0,0.19127 0.151701,0.34956 0.349569,0.34956 0.171486,0 0.316593,-0.12531 0.349569,-0.2836 0.0132,-0.0264 0.0132,-0.0461 0.0132,-0.0659 v -1.57637 c 0,-0.36935 0.290209,-0.66615 0.659565,-0.66615 0.375949,0 0.685946,0.2968 0.685946,0.66615 v 1.57637 c 0,0.19126 0.164891,0.34956 0.349568,0.34956 0.191273,0 0.342973,-0.1583 0.342973,-0.34956 v -1.57637 c 0,-0.7453 -0.613395,-1.37189 -1.378487,-1.37189 z"
       inkscape:export-xdpi="100.095"
       inkscape:export-ydpi="100.095"
       inkscape:export-filename="C:\Users\strix\Dropbox\kubeinit\docs\src\white_text_logo.png" />
    <path
       id="path891"
       style="font-style:normal;font-variant:normal;font-weight:bold;font-stretch:normal;font-size:medium;line-height:1.25;font-family:Quicksand;-inkscape-font-specification:'Quicksand Bold';letter-spacing:-2.62202px;word-spacing:0px;fill:#000000;fill-opacity:1;stroke:none;stroke-width:0.164891"
       d="m 31.055782,291.80614 c -0.19787,0 -0.356206,0.15173 -0.356206,0.36279 v 2.57234 c 0,0.19787 0.158336,0.3561 0.356206,0.3561 0.204464,0 0.356095,-0.15823 0.356095,-0.3561 v -2.57234 c 0,-0.21106 -0.151631,-0.36279 -0.356095,-0.36279 z"
       inkscape:export-xdpi="100.095"
       inkscape:export-ydpi="100.095"
       inkscape:export-filename="C:\Users\strix\Dropbox\kubeinit\docs\src\white_text_logo.png" />
    <path
       inkscape:connector-curvature="0"
       id="path893"
       style="font-style:normal;font-variant:normal;font-weight:bold;font-stretch:normal;font-size:medium;line-height:1.25;font-family:Quicksand;-inkscape-font-specification:'Quicksand Bold';letter-spacing:-2.62202px;word-spacing:0px;fill:#000000;fill-opacity:1;stroke:none;stroke-width:0.164891"
       d="m 33.131097,291.79956 h -0.164893 v -0.95636 c 0,-0.20447 -0.158296,-0.36276 -0.362759,-0.36276 -0.204465,0 -0.369356,0.15829 -0.369356,0.36276 v 0.95636 h -0.191271 c -0.204465,0 -0.362762,0.1583 -0.362762,0.36277 0,0.19787 0.158297,0.36275 0.362762,0.36275 h 0.191271 v 1.84019 c 0,0.40233 0.329782,0.73211 0.732115,0.73211 0.204465,0 0.362761,-0.15829 0.362761,-0.36275 0,-0.20447 -0.158296,-0.36936 -0.362761,-0.36936 0,0 0,0 0,0 v -1.84019 h 0.164893 c 0.197868,0 0.369355,-0.16488 0.369355,-0.36275 0,-0.20447 -0.171487,-0.36277 -0.369355,-0.36277 z"
       inkscape:export-xdpi="100.095"
       inkscape:export-ydpi="100.095"
       inkscape:export-filename="C:\Users\strix\Dropbox\kubeinit\docs\src\white_text_logo.png" />
    <path
       style="font-style:normal;font-variant:normal;font-weight:bold;font-stretch:normal;font-size:medium;line-height:1.25;font-family:Quicksand;-inkscape-font-specification:'Quicksand Bold';letter-spacing:-2.62202px;word-spacing:0px;fill:#000000;fill-opacity:1;stroke:none;stroke-width:0.164891"
       d="m 26.859578,291.25348 c -0.19787,0 -0.356206,0.15174 -0.356206,0.3628 v 0.55265 2.01968 0.55266 c 0,0.19787 0.158336,0.3561 0.356206,0.3561 0.204463,0 0.356097,-0.15823 0.356097,-0.3561 v -0.55266 -2.01968 -0.55265 c 0,-0.21106 -0.151634,-0.3628 -0.356097,-0.3628 z"
       id="path891-4"
       inkscape:export-xdpi="100.095"
       inkscape:export-ydpi="100.095"
       inkscape:export-filename="C:\Users\strix\Dropbox\kubeinit\docs\src\white_text_logo.png" />
    <circle
       style="vector-effect:none;fill:#fc624d;fill-opacity:1;stroke:#fc624d;stroke-width:0.00492951;stroke-linecap:round;stroke-linejoin:miter;stroke-miterlimit:4;stroke-dasharray:none;stroke-dashoffset:0;stroke-opacity:1"
       id="path886-5"
       cx="26.85956"
       cy="290.51022"
       r="0.51973128"
       inkscape:export-xdpi="100.095"
       inkscape:export-ydpi="100.095"
       inkscape:export-filename="C:\Users\strix\Dropbox\kubeinit\docs\src\white_text_logo.png" />
  </g>
</svg>
