<?xml version="1.0" encoding="UTF-8" standalone="no"?>
<svg
   xmlns:dc="http://purl.org/dc/elements/1.1/"
   xmlns:cc="http://creativecommons.org/ns#"
   xmlns:rdf="http://www.w3.org/1999/02/22-rdf-syntax-ns#"
   xmlns:svg="http://www.w3.org/2000/svg"
   xmlns="http://www.w3.org/2000/svg"
   xmlns:sodipodi="http://sodipodi.sourceforge.net/DTD/sodipodi-0.dtd"
   xmlns:inkscape="http://www.inkscape.org/namespaces/inkscape"
   width="34mm"
   height="9.7150002mm"
   viewBox="0 0 33.999999 9.7150006"
   version="1.1"
   id="svg8"
   inkscape:version="1.0 (4035a4fb49, 2020-05-01)"
   sodipodi:docname="pystol_full.svg"
   inkscape:export-filename="C:\Users\strix\Dropbox\logo-for-pystol\pystol.png"
   inkscape:export-xdpi="100.095"
   inkscape:export-ydpi="100.095">
  <defs
     id="defs2" />
  <sodipodi:namedview
     id="base"
     pagecolor="#ffffff"
     bordercolor="#666666"
     borderopacity="1.0"
     inkscape:pageopacity="0.0"
     inkscape:pageshadow="2"
     inkscape:zoom="7.9999996"
     inkscape:cx="64.08458"
     inkscape:cy="22.313835"
     inkscape:document-units="mm"
     inkscape:current-layer="layer1"
     showgrid="false"
     inkscape:snap-bbox="true"
     inkscape:bbox-paths="true"
     inkscape:bbox-nodes="true"
     inkscape:snap-bbox-edge-midpoints="true"
     inkscape:snap-bbox-midpoints="true"
     inkscape:snap-intersection-paths="true"
     inkscape:window-width="1920"
     inkscape:window-height="1537"
     inkscape:window-x="0"
     inkscape:window-y="0"
     inkscape:window-maximized="0"
     inkscape:snap-global="false"
     units="mm"
     inkscape:document-rotation="0" />
  <metadata
     id="metadata5">
    <rdf:RDF>
      <cc:Work
         rdf:about="">
        <dc:format>image/svg+xml</dc:format>
        <dc:type
           rdf:resource="http://purl.org/dc/dcmitype/StillImage" />
        <dc:title></dc:title>
      </cc:Work>
    </rdf:RDF>
  </metadata>
  <g
     inkscape:label="Capa 1"
     inkscape:groupmode="layer"
     id="layer1"
     transform="translate(0,-288.53338)">
    <flowRoot
       xml:space="preserve"
       id="flowRoot1527"
       style="font-style:normal;font-weight:normal;font-size:10.5833px;line-height:1.25;font-family:sans-serif;letter-spacing:0px;word-spacing:0px;fill:#000000;fill-opacity:1;stroke:none;stroke-width:0.264583"><flowRegion
         id="flowRegion1529"
         style="stroke-width:0.264583"><rect
           id="rect1531"
           width="573.98804"
           height="314.30899"
           x="282.1297"
           y="628.52112"
           style="stroke-width:0.0700042" /></flowRegion><flowPara
         id="flowPara1533"
         style="stroke-width:0.264583" /></flowRoot>
    <g
       transform="matrix(1.1991948,0,0,1.1991948,-5.7321788,-57.75327)"
       id="g854">
      <path
         style="vector-effect:none;fill:#fc624d;fill-opacity:1;stroke:#fc624d;stroke-width:0.00613332;stroke-linecap:round;stroke-linejoin:miter;stroke-miterlimit:4;stroke-dasharray:none;stroke-dashoffset:0;stroke-opacity:1"
         d="m 8.3553452,288.7743 v 1.1e-4 c -0.083392,0.002 -0.1675916,0.0251 -0.2452832,0.07 l -3.0469718,1.75918 c -0.00864,0.005 -0.016616,0.0106 -0.024848,0.0159 -0.1491376,0.0906 -0.2488176,0.25468 -0.2488176,0.44333 v 3.51836 c 0,0.19754 0.1089601,0.3685 0.2699188,0.45598 0.00105,6.1e-4 0.00187,0.002 0.003,0.002 l 3.0468657,1.75918 c 0.00218,10e-4 0.00446,0.002 0.00664,0.004 0.01082,0.006 0.022013,0.0117 0.033311,0.017 0.00325,0.002 0.00647,0.003 0.00975,0.005 0.013348,0.006 0.027093,0.0112 0.041023,0.016 0.00226,7.5e-4 0.00449,0.002 0.00675,0.002 0.014073,0.004 0.028376,0.009 0.042951,0.0121 0.00211,4.1e-4 0.0042,7.5e-4 0.00632,0.002 0.012706,0.003 0.025619,0.005 0.038667,0.007 0.00443,6.1e-4 0.00885,0.002 0.013281,0.002 0.011193,0.001 0.022559,0.002 0.033954,0.003 0.00583,2e-4 0.011655,7.5e-4 0.017459,7.5e-4 0.00346,5e-5 0.00682,6e-4 0.010284,6e-4 0.00775,0 0.015254,-7.5e-4 0.022922,-0.001 0.00589,-2.1e-4 0.011789,-4.1e-4 0.017674,-7.5e-4 0.011171,-7.5e-4 0.022145,-0.002 0.033097,-0.004 0.00562,-7.5e-4 0.01124,-0.002 0.016817,-0.002 0.011254,-0.002 0.022328,-0.004 0.033312,-0.007 0.00506,-10e-4 0.010085,-0.002 0.015102,-0.004 0.01113,-0.003 0.022073,-0.007 0.032883,-0.0104 0.00476,-0.001 0.00941,-0.004 0.014137,-0.005 0.010758,-0.005 0.021318,-0.009 0.031705,-0.0135 0.00475,-0.002 0.00945,-0.004 0.01414,-0.007 0.00989,-0.005 0.019504,-0.0103 0.029027,-0.0159 0.00537,-0.003 0.010695,-0.006 0.01596,-0.01 0.00761,-0.005 0.015045,-0.01 0.022386,-0.0152 0.00697,-0.005 0.013829,-0.0101 0.020566,-0.0154 0.00614,-0.005 0.012089,-0.01 0.017996,-0.0151 0.00682,-0.006 0.013607,-0.012 0.020136,-0.0183 0.0051,-0.005 0.01,-0.01 0.014889,-0.0152 0.00671,-0.007 0.013344,-0.0142 0.019707,-0.0217 0.00494,-0.006 0.00958,-0.0118 0.014245,-0.0179 0.00527,-0.007 0.010472,-0.0136 0.015424,-0.0208 0.00527,-0.008 0.010231,-0.0153 0.015102,-0.0231 0.0029,-0.004 0.00611,-0.009 0.00889,-0.0138 0.00124,-0.002 0.00212,-0.005 0.00332,-0.007 0.00443,-0.008 0.00842,-0.0161 0.012424,-0.0243 0.00371,-0.007 0.0075,-0.015 0.010819,-0.0226 0.00284,-0.007 0.00525,-0.0133 0.00782,-0.02 0.00378,-0.01 0.00748,-0.0195 0.010604,-0.0294 0.00146,-0.004 0.00264,-0.009 0.00396,-0.014 0.00342,-0.012 0.0067,-0.024 0.00921,-0.0361 8.316e-4,-0.004 0.0012,-0.008 0.00203,-0.012 0.00232,-0.0126 0.00443,-0.0252 0.00578,-0.0379 6.278e-4,-0.007 8.689e-4,-0.013 0.0015,-0.0196 6.278e-4,-0.01 0.0014,-0.019 0.0014,-0.0285 5.37e-5,-0.003 4.253e-4,-0.006 4.253e-4,-0.009 v -3.23623 l 0.6421289,-0.37071 c 0.248614,-0.14354 0.333784,-0.4582 0.1909779,-0.70554 -0.1427999,-0.24734 -0.457887,-0.33087 -0.7065005,-0.18733 l -0.8974794,0.5182 c -0.1709222,0.0987 -0.2646095,0.27825 -0.2600642,0.46122 -6.3e-6,7.5e-4 -1.071e-4,10e-4 -1.071e-4,0.002 v 2.62817 L 5.8203537,294.2882 v -2.92957 l 2.5496584,-1.47202 2.6218509,1.51358 v 2.92871 l -0.642127,0.37071 c -0.24861,0.14353 -0.333885,0.4582 -0.191086,0.70554 0.142807,0.24734 0.458001,0.33087 0.706608,0.18734 l 0.897479,-0.5181 c 0.0044,-0.002 0.0083,-0.005 0.01253,-0.008 0.0096,-0.006 0.0192,-0.0118 0.02838,-0.0183 0.0043,-0.003 0.0084,-0.006 0.01264,-0.01 0.009,-0.007 0.01791,-0.0138 0.02646,-0.0211 0.0055,-0.004 0.0107,-0.01 0.01596,-0.0146 0.0068,-0.007 0.01376,-0.0128 0.02024,-0.0196 0.0052,-0.005 0.0099,-0.0109 0.01478,-0.0165 0.0063,-0.007 0.01254,-0.0144 0.01842,-0.0219 0.0046,-0.006 0.009,-0.0119 0.01339,-0.018 0.0051,-0.007 0.01,-0.0141 0.01467,-0.0214 0.0046,-0.007 0.0089,-0.0145 0.01317,-0.0219 0.004,-0.007 0.008,-0.014 0.01167,-0.0212 0.0041,-0.008 0.0079,-0.0159 0.01157,-0.0241 0.003,-0.007 0.0059,-0.0134 0.0087,-0.0202 0.0038,-0.009 0.0072,-0.019 0.01039,-0.0287 0.0021,-0.006 0.004,-0.0118 0.0058,-0.0179 0.0029,-0.01 0.0055,-0.0202 0.0078,-0.0303 0.0015,-0.007 0.0029,-0.0128 0.0042,-0.0192 0.0021,-0.0113 0.0038,-0.0226 0.0051,-0.0341 6.28e-4,-0.005 0.0013,-0.0101 0.0019,-0.0152 10e-4,-0.0118 0.0016,-0.0237 0.0018,-0.0356 1.07e-4,-0.004 6.48e-4,-0.009 6.48e-4,-0.0132 v -3.51826 c 0,-0.2 -0.111738,-0.37263 -0.276023,-0.45907 -0.0038,-0.002 -0.0073,-0.005 -0.01114,-0.007 l -3.0469718,-1.75917 c -0.010094,-0.006 -0.020439,-0.0106 -0.030741,-0.0157 -0.089284,-0.0601 -0.1952417,-0.0911 -0.3028011,-0.0879 z m 1.5874841,4.45227 a 0.51511199,0.51511199 0 0 0 -0.24539,0.0688 0.51511199,0.51511199 0 0 0 -0.1886214,0.70371 0.51511199,0.51511199 0 0 0 0.7037161,0.18852 0.51511199,0.51511199 0 0 0 0.188514,-0.70361 0.51511199,0.51511199 0 0 0 -0.4582187,-0.25749 z"
         id="path1036-2-6"
         inkscape:connector-curvature="0"
         inkscape:export-xdpi="100.095"
         inkscape:export-ydpi="100.095"
         inkscape:export-filename="C:\Users\strix\Dropbox\kubeinit\docs\src\white_text_logo.png" />
      <path
         inkscape:connector-curvature="0"
         id="path879"
         style="font-style:normal;font-variant:normal;font-weight:bold;font-stretch:normal;font-size:medium;line-height:1.25;font-family:Quicksand;-inkscape-font-specification:'Quicksand Bold';letter-spacing:-2.62202px;word-spacing:0px;fill:#ffffff;fill-opacity:1;stroke:none;stroke-width:0.159869"
         d="m 13.238742,295.05347 c 0.198237,0 0.351712,-0.15986 0.351712,-0.35171 v -0.90805 l 0.665055,-0.67785 1.381267,1.80972 c 0.07034,0.0831 0.166264,0.12789 0.262185,0.12789 0.08313,0 0.159869,-0.0255 0.223817,-0.0831 0.153475,-0.1215 0.179053,-0.34531 0.05116,-0.49239 l -1.419636,-1.86088 1.406846,-1.40045 c 0.13429,-0.14069 0.13429,-0.3645 0,-0.49879 -0.140684,-0.14069 -0.358106,-0.14069 -0.498791,0 l -2.071901,2.07829 v -1.83529 c 0,-0.18545 -0.153475,-0.35171 -0.351712,-0.35171 -0.198238,0 -0.351712,0.16626 -0.351712,0.35171 v 3.74093 c 0,0.19185 0.153474,0.35171 0.351712,0.35171 z"
         inkscape:export-xdpi="100.095"
         inkscape:export-ydpi="100.095"
         inkscape:export-filename="C:\Users\strix\Dropbox\kubeinit\docs\src\white_text_logo.png" />
      <path
         inkscape:connector-curvature="0"
         id="path881"
         style="font-style:normal;font-variant:normal;font-weight:bold;font-stretch:normal;font-size:medium;line-height:1.25;font-family:Quicksand;-inkscape-font-specification:'Quicksand Bold';letter-spacing:-2.62202px;word-spacing:0px;fill:#ffffff;fill-opacity:1;stroke:none;stroke-width:0.159869"
         d="m 19.051062,293.72337 v -1.52836 c 0,-0.17904 -0.166265,-0.33891 -0.345319,-0.33891 -0.19184,0 -0.332526,0.15987 -0.332526,0.33891 v 1.52836 c -0.0064,0.3645 -0.300552,0.65226 -0.671448,0.65226 -0.364502,0 -0.652266,-0.28776 -0.652266,-0.65226 v -1.52836 c 0,-0.17904 -0.147079,-0.33891 -0.338922,-0.33891 -0.185448,0 -0.338922,0.15987 -0.338922,0.33891 v 1.52836 c 0,0.729 0.601107,1.3301 1.33011,1.3301 0.735396,0 1.349293,-0.6011 1.349293,-1.3301 z"
         inkscape:export-xdpi="100.095"
         inkscape:export-ydpi="100.095"
         inkscape:export-filename="C:\Users\strix\Dropbox\kubeinit\docs\src\white_text_logo.png" />
      <path
         inkscape:connector-curvature="0"
         id="path883"
         style="font-style:normal;font-variant:normal;font-weight:bold;font-stretch:normal;font-size:medium;line-height:1.25;font-family:Quicksand;-inkscape-font-specification:'Quicksand Bold';letter-spacing:-2.62202px;word-spacing:0px;fill:#ffffff;fill-opacity:1;stroke:none;stroke-width:0.159869"
         d="m 19.425937,294.70816 c 0,0.18545 0.153473,0.34531 0.345317,0.34531 0.172658,0 0.306948,-0.1215 0.338921,-0.27497 0.243001,0.16627 0.549951,0.27497 0.869688,0.27497 0.863292,0 1.553927,-0.729 1.553927,-1.59229 0,-0.87608 -0.690635,-1.60508 -1.553927,-1.60508 -0.313343,0 -0.620293,0.10231 -0.856897,0.26857 v -1.20221 c 0,-0.18545 -0.153475,-0.34532 -0.351712,-0.34532 -0.191844,0 -0.345317,0.15987 -0.345317,0.34532 v 2.53232 c 0,0 0,0 0,0.007 0,0 0,0 0,0 z m 0.952818,-1.89285 c 0.159869,-0.16626 0.364501,-0.26219 0.601108,-0.26219 0.230211,0 0.441237,0.0959 0.601106,0.26219 0.159871,0.15987 0.255791,0.39008 0.255791,0.64587 0,0.243 -0.09592,0.47321 -0.255791,0.63308 -0.159869,0.16626 -0.370895,0.26219 -0.601106,0.26219 -0.236607,0 -0.441239,-0.0959 -0.601108,-0.26219 -0.159868,-0.15987 -0.255789,-0.39008 -0.255789,-0.63308 0,-0.25579 0.09592,-0.486 0.255789,-0.64587 z"
         inkscape:export-xdpi="100.095"
         inkscape:export-ydpi="100.095"
         inkscape:export-filename="C:\Users\strix\Dropbox\kubeinit\docs\src\white_text_logo.png" />
      <path
         inkscape:connector-curvature="0"
         id="path885"
         style="font-style:normal;font-variant:normal;font-weight:bold;font-stretch:normal;font-size:medium;line-height:1.25;font-family:Quicksand;-inkscape-font-specification:'Quicksand Bold';letter-spacing:-2.62202px;word-spacing:0px;fill:#ffffff;fill-opacity:1;stroke:none;stroke-width:0.159869"
         d="m 24.364572,295.05347 c 0.454027,0 0.83132,-0.13429 1.144664,-0.42205 0.14708,-0.13429 0.08313,-0.32613 0,-0.41566 -0.08313,-0.10231 -0.345317,-0.1215 -0.479608,0.0192 -0.159869,0.1215 -0.434845,0.17905 -0.665056,0.15987 -0.223817,-0.0192 -0.479606,-0.13429 -0.613896,-0.28777 -0.115105,-0.10871 -0.185447,-0.27497 -0.217422,-0.42205 h 2.033535 c 0.179053,0 0.31334,-0.10232 0.332523,-0.25579 0.0064,-0.0128 0.0064,-0.0448 0.0064,-0.0575 0,0 0,0 0,0 0,0 0,0 0,0 0,-0.0128 0,-0.0256 0,-0.032 -0.05116,-0.86329 -0.70982,-1.48358 -1.541139,-1.48358 -0.876082,0 -1.553926,0.729 -1.56032,1.59868 0.0064,0.86969 0.684238,1.5923 1.56032,1.5987 z m 0,-2.58987 c 0.556345,0.0448 0.882478,0.42205 0.946424,0.67784 H 23.50128 c 0.05116,-0.26218 0.319738,-0.65226 0.863292,-0.67784 z"
         inkscape:export-xdpi="100.095"
         inkscape:export-ydpi="100.095"
         inkscape:export-filename="C:\Users\strix\Dropbox\kubeinit\docs\src\white_text_logo.png" />
      <path
         inkscape:connector-curvature="0"
         id="path889"
         style="font-style:normal;font-variant:normal;font-weight:bold;font-stretch:normal;font-size:medium;line-height:1.25;font-family:Quicksand;-inkscape-font-specification:'Quicksand Bold';letter-spacing:-2.62202px;word-spacing:0px;fill:#ffffff;fill-opacity:1;stroke:none;stroke-width:0.159869"
         d="m 28.756541,291.8561 c -0.249395,0 -0.486002,0.0767 -0.677844,0.19824 -0.05755,-0.1215 -0.179054,-0.19824 -0.313344,-0.19824 -0.191842,0 -0.338922,0.15347 -0.338922,0.33891 v 0.99119 c 0,0 0,0 0,0 v 1.52836 c 0,0.18544 0.14708,0.33891 0.338922,0.33891 0.166264,0 0.30695,-0.1215 0.338922,-0.27497 0.01279,-0.0255 0.01279,-0.0448 0.01279,-0.064 v -1.52836 c 0,-0.3581 0.281371,-0.64586 0.639477,-0.64586 0.3645,0 0.665056,0.28776 0.665056,0.64586 v 1.52836 c 0,0.18544 0.159869,0.33891 0.338922,0.33891 0.185446,0 0.332526,-0.15347 0.332526,-0.33891 v -1.52836 c 0,-0.7226 -0.594713,-1.3301 -1.336504,-1.3301 z"
         inkscape:export-xdpi="100.095"
         inkscape:export-ydpi="100.095"
         inkscape:export-filename="C:\Users\strix\Dropbox\kubeinit\docs\src\white_text_logo.png" />
      <path
         id="path891"
         style="font-style:normal;font-variant:normal;font-weight:bold;font-stretch:normal;font-size:medium;line-height:1.25;font-family:Quicksand;-inkscape-font-specification:'Quicksand Bold';letter-spacing:-2.62202px;word-spacing:0px;fill:#ffffff;fill-opacity:1;stroke:none;stroke-width:0.159869"
         d="m 30.768499,291.86247 c -0.191842,0 -0.345356,0.14711 -0.345356,0.35174 v 2.494 c 0,0.19184 0.153514,0.34525 0.345356,0.34525 0.198238,0 0.345251,-0.15341 0.345251,-0.34525 v -2.494 c 0,-0.20463 -0.147013,-0.35174 -0.345251,-0.35174 z"
         inkscape:export-xdpi="100.095"
         inkscape:export-ydpi="100.095"
         inkscape:export-filename="C:\Users\strix\Dropbox\kubeinit\docs\src\white_text_logo.png" />
      <path
         inkscape:connector-curvature="0"
         id="path893"
         style="font-style:normal;font-variant:normal;font-weight:bold;font-stretch:normal;font-size:medium;line-height:1.25;font-family:Quicksand;-inkscape-font-specification:'Quicksand Bold';letter-spacing:-2.62202px;word-spacing:0px;fill:#ffffff;fill-opacity:1;stroke:none;stroke-width:0.159869"
         d="m 32.78061,291.8561 h -0.159871 v -0.92725 c 0,-0.19823 -0.153476,-0.35171 -0.351712,-0.35171 -0.198237,0 -0.358106,0.15348 -0.358106,0.35171 v 0.92725 h -0.185447 c -0.198237,0 -0.351713,0.15347 -0.351713,0.35171 0,0.19184 0.153476,0.35171 0.351713,0.35171 h 0.185447 v 1.78414 c 0,0.39008 0.319738,0.70981 0.709818,0.70981 0.198238,0 0.351713,-0.15347 0.351713,-0.35171 0,-0.19823 -0.153475,-0.3581 -0.351713,-0.3581 0,0 0,0 0,0 v -1.78414 h 0.159871 c 0.191842,0 0.358106,-0.15987 0.358106,-0.35171 0,-0.19824 -0.166264,-0.35171 -0.358106,-0.35171 z"
         inkscape:export-xdpi="100.095"
         inkscape:export-ydpi="100.095"
         inkscape:export-filename="C:\Users\strix\Dropbox\kubeinit\docs\src\white_text_logo.png" />
      <path
         style="font-style:normal;font-variant:normal;font-weight:bold;font-stretch:normal;font-size:medium;line-height:1.25;font-family:Quicksand;-inkscape-font-specification:'Quicksand Bold';letter-spacing:-2.62202px;word-spacing:0px;fill:#ffffff;fill-opacity:1;stroke:none;stroke-width:0.159869"
         d="m 26.700096,291.32664 c -0.191844,0 -0.345358,0.14711 -0.345358,0.35174 v 0.53583 1.95817 0.53583 c 0,0.19184 0.153514,0.34525 0.345358,0.34525 0.198235,0 0.345251,-0.15341 0.345251,-0.34525 v -0.53583 -1.95817 -0.53583 c 0,-0.20463 -0.147016,-0.35174 -0.345251,-0.35174 z"
         id="path891-4"
         inkscape:export-xdpi="100.095"
         inkscape:export-ydpi="100.095"
         inkscape:export-filename="C:\Users\strix\Dropbox\kubeinit\docs\src\white_text_logo.png" />
      <circle
         style="vector-effect:none;fill:#fc624d;fill-opacity:1;stroke:#fc624d;stroke-width:0.00477938;stroke-linecap:round;stroke-linejoin:miter;stroke-miterlimit:4;stroke-dasharray:none;stroke-dashoffset:0;stroke-opacity:1"
         id="path886-5"
         cx="26.700079"
         cy="290.60602"
         r="0.50390244"
         inkscape:export-xdpi="100.095"
         inkscape:export-ydpi="100.095"
         inkscape:export-filename="C:\Users\strix\Dropbox\kubeinit\docs\src\white_text_logo.png" />
    </g>
  </g>
</svg>
