<?xml version="1.0" encoding="UTF-8" standalone="no"?>
<svg
   xmlns:dc="http://purl.org/dc/elements/1.1/"
   xmlns:cc="http://creativecommons.org/ns#"
   xmlns:rdf="http://www.w3.org/1999/02/22-rdf-syntax-ns#"
   xmlns:svg="http://www.w3.org/2000/svg"
   xmlns="http://www.w3.org/2000/svg"
   xmlns:sodipodi="http://sodipodi.sourceforge.net/DTD/sodipodi-0.dtd"
   xmlns:inkscape="http://www.inkscape.org/namespaces/inkscape"
   inkscape:export-ydpi="100.095"
   inkscape:export-xdpi="100.095"
   inkscape:export-filename="C:\Users\strix\Dropbox\logo-for-pystol\pystol.png"
   sodipodi:docname="pystol_icon.svg"
   inkscape:version="1.0 (4035a4fb49, 2020-05-01)"
   id="svg8"
   version="1.1"
   viewBox="0 0 19.999999 20.000001"
   height="20mm"
   width="20mm">
  <defs
     id="defs2" />
  <sodipodi:namedview
     inkscape:document-rotation="0"
     units="mm"
     inkscape:snap-global="false"
     inkscape:window-maximized="0"
     inkscape:window-y="-8"
     inkscape:window-x="-8"
     inkscape:window-height="1537"
     inkscape:window-width="1920"
     inkscape:snap-intersection-paths="true"
     inkscape:snap-bbox-midpoints="true"
     inkscape:snap-bbox-edge-midpoints="true"
     inkscape:bbox-nodes="true"
     inkscape:bbox-paths="true"
     inkscape:snap-bbox="true"
     showgrid="false"
     inkscape:current-layer="layer1"
     inkscape:document-units="mm"
     inkscape:cy="88.777246"
     inkscape:cx="107.35495"
     inkscape:zoom="5.656854"
     inkscape:pageshadow="2"
     inkscape:pageopacity="0.0"
     borderopacity="1.0"
     bordercolor="#666666"
     pagecolor="#ffffff"
     id="base" />
  <metadata
     id="metadata5">
    <rdf:RDF>
      <cc:Work
         rdf:about="">
        <dc:format>image/svg+xml</dc:format>
        <dc:type
           rdf:resource="http://purl.org/dc/dcmitype/StillImage" />
        <dc:title />
      </cc:Work>
    </rdf:RDF>
  </metadata>
  <g
     transform="translate(0,-277.00005)"
     id="layer1"
     inkscape:groupmode="layer"
     inkscape:label="Capa 1">
    <flowRoot
       style="font-style:normal;font-weight:normal;font-size:10.5833px;line-height:1.25;font-family:sans-serif;letter-spacing:0px;word-spacing:0px;fill:#000000;fill-opacity:1;stroke:none;stroke-width:0.264583"
       id="flowRoot1527"
       xml:space="preserve"><flowRegion
         style="stroke-width:0.264583"
         id="flowRegion1529"><rect
           style="stroke-width:0.07000434"
           y="628.52112"
           x="282.1297"
           height="314.30899"
           width="573.98804"
           id="rect1531" /></flowRegion><flowPara
         style="stroke-width:0.264583"
         id="flowPara1533" /></flowRoot>
    <path
       style="vector-effect:none;fill:#fc624d;fill-opacity:1;stroke:#fc624d;stroke-width:0.0130036;stroke-linecap:round;stroke-linejoin:miter;stroke-miterlimit:4;stroke-dasharray:none;stroke-dashoffset:0;stroke-opacity:1"
       d="m 9.9949247,278.42906 v 2.3e-4 c -0.176805,0.005 -0.355322,0.0532 -0.52004,0.14829 l -6.460074,3.72976 c -0.01833,0.0106 -0.03523,0.0224 -0.05269,0.0338 -0.316197,0.19211 -0.527534,0.53996 -0.527534,0.93993 v 7.45951 c 0,0.4188 0.231013,0.78127 0.572271,0.96673 0.0022,10e-4 0.004,0.003 0.0064,0.004 l 6.459849,3.72976 c 0.0046,0.003 0.0095,0.005 0.01408,0.007 0.02294,0.013 0.04667,0.0247 0.07062,0.0361 0.0069,0.003 0.01372,0.007 0.02067,0.01 0.0283,0.0127 0.05744,0.0238 0.08698,0.034 0.0048,0.002 0.0095,0.003 0.01431,0.005 0.02984,0.01 0.06016,0.0183 0.09106,0.0257 0.0045,8.6e-4 0.0089,0.002 0.0134,0.003 0.02694,0.006 0.05432,0.0107 0.08198,0.0148 0.0094,0.001 0.01875,0.003 0.02816,0.004 0.02373,0.003 0.04783,0.004 0.07199,0.006 0.01235,4.3e-4 0.02471,0.002 0.03702,0.002 0.0073,1.2e-4 0.01446,0.001 0.0218,0.001 0.01644,0 0.03234,-0.002 0.0486,-0.003 0.01248,-4.3e-4 0.02499,-8.6e-4 0.03747,-0.002 0.02368,-0.002 0.04695,-0.005 0.07017,-0.008 0.01191,-0.002 0.02383,-0.003 0.03565,-0.005 0.02386,-0.004 0.04734,-0.009 0.07063,-0.015 0.01072,-0.003 0.02138,-0.005 0.03202,-0.008 0.0236,-0.007 0.0468,-0.0139 0.06972,-0.022 0.01011,-0.003 0.01996,-0.007 0.02997,-0.0111 0.02281,-0.009 0.0452,-0.0183 0.06722,-0.0286 0.01006,-0.005 0.02004,-0.01 0.02998,-0.0145 0.02096,-0.0106 0.04135,-0.0219 0.06154,-0.0338 0.01138,-0.007 0.02268,-0.0134 0.03384,-0.0204 0.01613,-0.0104 0.0319,-0.0211 0.04746,-0.0322 0.01477,-0.0106 0.02932,-0.0214 0.0436,-0.0327 0.01301,-0.0103 0.02563,-0.0211 0.03815,-0.032 0.01446,-0.0126 0.02885,-0.0254 0.04269,-0.0389 0.01081,-0.0105 0.02119,-0.0213 0.03157,-0.0322 0.01424,-0.015 0.02829,-0.0301 0.04178,-0.0461 0.01046,-0.0124 0.02032,-0.0251 0.0302,-0.0379 0.01116,-0.0145 0.0222,-0.0289 0.0327,-0.0441 0.01116,-0.016 0.02169,-0.0324 0.03202,-0.0491 0.0062,-0.01 0.01296,-0.0191 0.01885,-0.0293 0.0026,-0.005 0.0045,-0.009 0.007,-0.0138 0.0094,-0.0168 0.01786,-0.0342 0.02634,-0.0516 0.0079,-0.0159 0.0159,-0.0318 0.02294,-0.0479 0.006,-0.0139 0.01113,-0.0283 0.01658,-0.0425 0.008,-0.0207 0.01585,-0.0415 0.02248,-0.0625 0.0031,-0.01 0.0056,-0.0198 0.0084,-0.0297 0.0073,-0.0254 0.01421,-0.0509 0.01953,-0.0765 0.0018,-0.008 0.0025,-0.017 0.0043,-0.0255 0.0049,-0.0267 0.0094,-0.0535 0.01226,-0.0804 0.0013,-0.0137 0.0018,-0.0277 0.0032,-0.0416 0.0013,-0.0201 0.003,-0.0403 0.003,-0.0604 1.14e-4,-0.007 9.02e-4,-0.0132 9.02e-4,-0.02 v -6.86133 l 1.361417,-0.78596 c 0.527102,-0.30432 0.707676,-0.97146 0.404904,-1.49586 -0.302759,-0.5244 -0.970795,-0.7015 -1.497896,-0.39718 l -1.9028013,1.09867 c -0.362383,0.20922 -0.561015,0.58993 -0.551378,0.97786 -1.4e-5,0.002 -2.27e-4,0.003 -2.27e-4,0.005 v 5.57215 l -4.311583,-2.4889 v -6.21118 l 5.4056883,-3.12092 5.558747,3.20903 v 6.20937 l -1.361414,0.78596 c -0.527092,0.30432 -0.707889,0.97146 -0.405131,1.49585 0.302772,0.5244 0.971035,0.7015 1.498123,0.39718 l 1.902801,-1.09844 c 0.0093,-0.005 0.01752,-0.0117 0.02657,-0.0173 0.02039,-0.0125 0.0407,-0.0251 0.06018,-0.0389 0.0092,-0.006 0.01783,-0.0135 0.0268,-0.0202 0.01916,-0.0144 0.03797,-0.0291 0.05609,-0.0447 0.01165,-0.01 0.02267,-0.0205 0.03384,-0.0309 0.0145,-0.0136 0.02917,-0.0272 0.04292,-0.0416 0.01094,-0.0114 0.02097,-0.0232 0.03134,-0.035 0.01331,-0.0152 0.02658,-0.0304 0.03906,-0.0463 0.0098,-0.0125 0.01916,-0.0253 0.02839,-0.0381 0.01073,-0.0149 0.02114,-0.0299 0.03111,-0.0454 0.0098,-0.0152 0.01897,-0.0307 0.02793,-0.0463 0.0085,-0.0148 0.01693,-0.0297 0.02475,-0.045 0.0087,-0.0168 0.01675,-0.0339 0.02453,-0.0511 0.0064,-0.0142 0.01255,-0.0284 0.01839,-0.0429 0.008,-0.0201 0.01522,-0.0404 0.02203,-0.0609 0.0044,-0.0126 0.0085,-0.0251 0.01226,-0.0379 0.0062,-0.0213 0.01161,-0.0427 0.01658,-0.0643 0.0031,-0.0136 0.0062,-0.0271 0.0089,-0.0409 0.0045,-0.024 0.008,-0.048 0.01091,-0.0722 0.0013,-0.0108 0.0027,-0.0214 0.0041,-0.0323 0.0022,-0.025 0.0034,-0.0502 0.0039,-0.0754 2.27e-4,-0.009 0.0014,-0.0186 0.0014,-0.0282 v -7.45928 c 0,-0.42404 -0.236903,-0.79003 -0.585214,-0.97331 -0.008,-0.005 -0.01544,-0.0105 -0.02362,-0.0152 l -6.460072,-3.72973 c -0.0214,-0.0124 -0.04333,-0.0226 -0.06518,-0.0334 -0.189297,-0.12738 -0.413944,-0.19309 -0.6419873,-0.18644 z m 3.3657233,9.43952 a 1.0921208,1.0921208 0 0 0 -0.520267,0.14602 1.0921208,1.0921208 0 0 0 -0.399907,1.49199 1.0921208,1.0921208 0 0 0 1.491991,0.39968 1.0921208,1.0921208 0 0 0 0.399681,-1.49176 1.0921208,1.0921208 0 0 0 -0.971498,-0.54593 z"
       id="path1036-2-6"
       inkscape:connector-curvature="0"
       inkscape:export-xdpi="100.095"
       inkscape:export-ydpi="100.095"
       inkscape:export-filename="C:\Users\strix\Dropbox\kubeinit\docs\src\white_text_logo.png" />
  </g>
</svg>
