<?xml version="1.0" encoding="UTF-8" standalone="no"?>
<svg
   xmlns:dc="http://purl.org/dc/elements/1.1/"
   xmlns:cc="http://creativecommons.org/ns#"
   xmlns:rdf="http://www.w3.org/1999/02/22-rdf-syntax-ns#"
   xmlns:svg="http://www.w3.org/2000/svg"
   xmlns="http://www.w3.org/2000/svg"
   xmlns:sodipodi="http://sodipodi.sourceforge.net/DTD/sodipodi-0.dtd"
   xmlns:inkscape="http://www.inkscape.org/namespaces/inkscape"
   width="60mm"
   height="69mm"
   viewBox="0 0 60 68.999999"
   version="1.1"
   id="svg8"
   inkscape:version="1.0 (4035a4fb49, 2020-05-01)"
   sodipodi:docname="pystol_full_big.svg"
   inkscape:export-filename="C:\Users\strix\Dropbox\logo-for-pystol\pystol.png"
   inkscape:export-xdpi="100.095"
   inkscape:export-ydpi="100.095">
  <defs
     id="defs2" />
  <sodipodi:namedview
     id="base"
     pagecolor="#ffffff"
     bordercolor="#666666"
     borderopacity="1.0"
     inkscape:pageopacity="0.0"
     inkscape:pageshadow="2"
     inkscape:zoom="1.9999999"
     inkscape:cx="-15.837077"
     inkscape:cy="70.991179"
     inkscape:document-units="mm"
     inkscape:current-layer="layer1"
     showgrid="false"
     inkscape:snap-bbox="true"
     inkscape:bbox-paths="true"
     inkscape:bbox-nodes="true"
     inkscape:snap-bbox-edge-midpoints="true"
     inkscape:snap-bbox-midpoints="true"
     inkscape:snap-intersection-paths="true"
     inkscape:window-width="1920"
     inkscape:window-height="1537"
     inkscape:window-x="0"
     inkscape:window-y="0"
     inkscape:window-maximized="0"
     inkscape:snap-global="true"
     units="mm"
     inkscape:document-rotation="0" />
  <metadata
     id="metadata5">
    <rdf:RDF>
      <cc:Work
         rdf:about="">
        <dc:format>image/svg+xml</dc:format>
        <dc:type
           rdf:resource="http://purl.org/dc/dcmitype/StillImage" />
        <dc:title></dc:title>
      </cc:Work>
    </rdf:RDF>
  </metadata>
  <g
     inkscape:label="Capa 1"
     inkscape:groupmode="layer"
     id="layer1"
     transform="translate(0,-268.95422)">
    <flowRoot
       xml:space="preserve"
       id="flowRoot1527"
       style="font-style:normal;font-weight:normal;font-size:40px;line-height:1.25;font-family:sans-serif;letter-spacing:0px;word-spacing:0px;fill:#000000;fill-opacity:1;stroke:none"
       transform="matrix(0.87072268,0,0,0.87072268,0.04723551,-680.45548)"><flowRegion
         id="flowRegion1529"><rect
           id="rect1531"
           width="2169.4036"
           height="1187.9395"
           x="1066.317"
           y="2375.5129" /></flowRegion><flowPara
         id="flowPara1533" /></flowRoot>
    <g
       transform="matrix(1.0052021,0,0,1.0052021,-46.451467,48.625165)"
       id="g874">
      <path
         style="vector-effect:none;fill:#fc624d;fill-opacity:1;stroke:#fc624d;stroke-width:0.039049;stroke-linecap:round;stroke-linejoin:miter;stroke-miterlimit:4;stroke-dasharray:none;stroke-dashoffset:0;stroke-opacity:1"
         d="m 75.764358,219.24742 v 6.8e-4 c -0.530929,0.0151 -1.067003,0.15985 -1.561638,0.44531 l -19.399086,11.20015 c -0.05503,0.0318 -0.1058,0.0674 -0.158207,0.10151 -0.949511,0.57691 -1.584141,1.62149 -1.584141,2.82258 v 22.40028 c 0,1.2576 0.693713,2.34608 1.718485,2.903 0.0065,0.004 0.01188,0.008 0.01901,0.0108 l 19.39841,11.20015 c 0.01382,0.008 0.0284,0.0129 0.04227,0.0219 0.06889,0.0391 0.140147,0.0743 0.212079,0.10843 0.02074,0.009 0.04121,0.0217 0.06206,0.0301 0.08498,0.0382 0.172484,0.0715 0.261181,0.10215 0.01447,0.004 0.02857,0.0108 0.04296,0.0151 0.08961,0.0298 0.180672,0.0549 0.273455,0.0771 0.01339,0.004 0.02679,0.006 0.04024,0.0108 0.0809,0.0173 0.16311,0.0322 0.246182,0.0445 0.02823,0.004 0.05631,0.008 0.08456,0.0108 0.07126,0.008 0.143626,0.0129 0.216174,0.0173 0.03707,10e-4 0.0742,0.004 0.111159,0.004 0.02203,3.5e-4 0.04342,0.004 0.06547,0.004 0.04936,0 0.09712,-0.004 0.145938,-0.009 0.03748,-0.001 0.07504,-0.004 0.11252,-0.004 0.07113,-0.004 0.140991,-0.0151 0.210719,-0.0244 0.03577,-0.004 0.07157,-0.0108 0.107076,-0.0173 0.07165,-0.013 0.142158,-0.0278 0.212081,-0.0451 0.03218,-0.008 0.0642,-0.0173 0.09615,-0.0253 0.07085,-0.0194 0.140516,-0.0417 0.209358,-0.0661 0.03035,-0.0108 0.05994,-0.0218 0.09001,-0.0335 0.06848,-0.0265 0.13572,-0.0551 0.201863,-0.0858 0.03022,-0.013 0.06018,-0.0286 0.09001,-0.0436 0.06294,-0.0317 0.124184,-0.0658 0.184797,-0.10151 0.03417,-0.0194 0.06808,-0.0401 0.101616,-0.0614 0.04843,-0.0311 0.09578,-0.0633 0.142524,-0.0967 0.04435,-0.0317 0.08805,-0.0641 0.130925,-0.0981 0.03905,-0.0311 0.07696,-0.0633 0.114572,-0.0961 0.04342,-0.0378 0.08662,-0.0762 0.128202,-0.11665 0.03247,-0.0315 0.06366,-0.0639 0.09479,-0.0967 0.04277,-0.0451 0.08496,-0.0905 0.125459,-0.13846 0.03141,-0.0372 0.06102,-0.0754 0.0907,-0.11384 0.03352,-0.0434 0.06668,-0.0871 0.0982,-0.13241 0.03352,-0.048 0.06515,-0.0975 0.09615,-0.14733 0.01858,-0.0296 0.03893,-0.0572 0.0566,-0.0881 0.0078,-0.0129 0.01339,-0.0278 0.02117,-0.0415 0.02823,-0.0505 0.05361,-0.10258 0.07911,-0.15488 0.02364,-0.048 0.04776,-0.0955 0.06889,-0.14408 0.01815,-0.0417 0.03342,-0.0846 0.04977,-0.12745 0.02402,-0.0624 0.04759,-0.12464 0.0675,-0.1875 0.0092,-0.0294 0.01685,-0.0593 0.02523,-0.0892 0.02178,-0.0762 0.04269,-0.15272 0.05864,-0.22981 0.0054,-0.0251 0.0075,-0.051 0.01297,-0.0765 0.01491,-0.0804 0.02826,-0.16071 0.03683,-0.24137 0.0039,-0.0411 0.0054,-0.0831 0.0096,-0.12485 0.0039,-0.0605 0.009,-0.12096 0.009,-0.18146 3.42e-4,-0.0194 0.0025,-0.0397 0.0025,-0.0601 v -20.60404 l 4.088227,-2.3602 c 1.582845,-0.91383 2.125097,-2.9172 1.215896,-4.49192 -0.909163,-1.57472 -2.915217,-2.10655 -4.49806,-1.19271 l -5.713961,3.29922 c -1.088209,0.62827 -1.684684,1.77153 -1.655745,2.93644 -4.2e-5,0.004 -6.83e-4,0.008 -6.83e-4,0.013 v 16.73263 l -12.9473,-7.47398 v -18.65168 l 16.232849,-9.37184 16.692474,9.63645 v 18.64624 l -4.088218,2.36018 c -1.582818,0.91384 -2.125732,2.9172 -1.216577,4.4919 0.909199,1.57475 2.915941,2.10657 4.498745,1.19274 l 5.713957,-3.29854 c 0.02784,-0.0173 0.0526,-0.035 0.0798,-0.0518 0.06124,-0.0376 0.12222,-0.0754 0.180715,-0.11664 0.02756,-0.0194 0.05355,-0.0407 0.08047,-0.0607 0.05752,-0.0434 0.114033,-0.0877 0.168446,-0.13435 0.03498,-0.03 0.06808,-0.0616 0.101616,-0.0929 0.04355,-0.0409 0.08759,-0.0817 0.128894,-0.12486 0.03285,-0.0341 0.06296,-0.0698 0.09412,-0.10502 0.03999,-0.0455 0.07982,-0.0914 0.117294,-0.1391 0.02955,-0.0376 0.05753,-0.076 0.08524,-0.11449 0.03221,-0.0449 0.06349,-0.0898 0.09343,-0.13631 0.02942,-0.0458 0.05694,-0.0923 0.08387,-0.1391 0.0256,-0.0445 0.05085,-0.0892 0.07433,-0.135 0.02614,-0.0505 0.05027,-0.10173 0.07366,-0.15337 0.01923,-0.0428 0.03769,-0.0854 0.05524,-0.12875 0.02415,-0.0603 0.04569,-0.1214 0.06616,-0.18275 0.01318,-0.038 0.02544,-0.0754 0.0368,-0.11384 0.01879,-0.0639 0.03487,-0.12808 0.04979,-0.19289 0.0092,-0.0408 0.01879,-0.0812 0.02661,-0.12269 0.01361,-0.0719 0.02387,-0.14408 0.03275,-0.21686 0.0039,-0.0324 0.0082,-0.0643 0.01232,-0.0967 0.0067,-0.0752 0.01041,-0.15055 0.01166,-0.2264 6.82e-4,-0.0285 0.0041,-0.056 0.0041,-0.0846 v -22.39961 c 0,-1.27336 -0.711403,-2.37243 -1.757352,-2.92278 -0.02415,-0.0151 -0.04638,-0.0313 -0.07092,-0.0456 L 77.888033,219.90511 c -0.06426,-0.0372 -0.130126,-0.0678 -0.195729,-0.10023 -0.568444,-0.38251 -1.243039,-0.57982 -1.927836,-0.55986 z m 10.106997,28.34611 a 3.2795514,3.2795514 0 0 0 -1.562319,0.4385 3.2795514,3.2795514 0 0 0 -1.200889,4.48033 3.2795514,3.2795514 0 0 0 4.480332,1.20021 3.2795514,3.2795514 0 0 0 1.200209,-4.47967 3.2795514,3.2795514 0 0 0 -2.917333,-1.63937 z"
         id="path1036-2-6"
         inkscape:connector-curvature="0"
         inkscape:export-xdpi="100.095"
         inkscape:export-ydpi="100.095"
         inkscape:export-filename="C:\Users\strix\Dropbox\kubeinit\docs\src\white_text_logo.png" />
      <path
         inkscape:connector-curvature="0"
         id="path879"
         style="font-style:normal;font-variant:normal;font-weight:bold;font-stretch:normal;font-size:medium;line-height:1.25;font-family:Quicksand;-inkscape-font-specification:'Quicksand Bold';letter-spacing:-2.62202px;word-spacing:0px;fill:#ffffff;fill-opacity:1;stroke:none;stroke-width:0.471196"
         d="m 47.280238,287.07229 c 0.584283,0 1.03663,-0.4712 1.03663,-1.03663 v -2.67639 l 1.960172,-1.99787 4.071125,5.33393 c 0.207326,0.24502 0.490044,0.37696 0.77276,0.37696 0.245021,0 0.471196,-0.0754 0.659674,-0.24502 0.452348,-0.35811 0.527738,-1.01779 0.150782,-1.45129 l -4.184212,-5.48471 4.146516,-4.12766 c 0.395805,-0.41466 0.395805,-1.07433 0,-1.47013 -0.414651,-0.41466 -1.055476,-0.41466 -1.470129,0 l -6.106688,6.12553 v -5.40932 c 0,-0.54658 -0.452347,-1.03662 -1.03663,-1.03662 -0.584283,0 -1.036628,0.49004 -1.036628,1.03662 v 11.02597 c 0,0.56543 0.452345,1.03663 1.036628,1.03663 z"
         inkscape:export-xdpi="100.095"
         inkscape:export-ydpi="100.095"
         inkscape:export-filename="C:\Users\strix\Dropbox\kubeinit\docs\src\white_text_logo.png" />
      <path
         inkscape:connector-curvature="0"
         id="path881"
         style="font-style:normal;font-variant:normal;font-weight:bold;font-stretch:normal;font-size:medium;line-height:1.25;font-family:Quicksand;-inkscape-font-specification:'Quicksand Bold';letter-spacing:-2.62202px;word-spacing:0px;fill:#ffffff;fill-opacity:1;stroke:none;stroke-width:0.471196"
         d="m 64.411373,283.15194 v -4.50462 c 0,-0.52775 -0.490046,-0.99894 -1.017784,-0.99894 -0.565428,0 -0.980082,0.47119 -0.980082,0.99894 v 4.50462 c -0.01883,1.07432 -0.885844,1.92248 -1.979017,1.92248 -1.074325,0 -1.922477,-0.84816 -1.922477,-1.92248 v -4.50462 c 0,-0.52775 -0.433499,-0.99894 -0.998933,-0.99894 -0.546588,0 -0.998934,0.47119 -0.998934,0.99894 v 4.50462 c 0,2.14866 1.771693,3.92035 3.920344,3.92035 2.167494,0 3.976883,-1.77169 3.976883,-3.92035 z"
         inkscape:export-xdpi="100.095"
         inkscape:export-ydpi="100.095"
         inkscape:export-filename="C:\Users\strix\Dropbox\kubeinit\docs\src\white_text_logo.png" />
      <path
         inkscape:connector-curvature="0"
         id="path883"
         style="font-style:normal;font-variant:normal;font-weight:bold;font-stretch:normal;font-size:medium;line-height:1.25;font-family:Quicksand;-inkscape-font-specification:'Quicksand Bold';letter-spacing:-2.62202px;word-spacing:0px;fill:#ffffff;fill-opacity:1;stroke:none;stroke-width:0.471196"
         d="m 65.516274,286.0545 c 0,0.54659 0.452343,1.01779 1.017781,1.01779 0.508891,0 0.904696,-0.35811 0.998933,-0.81046 0.716218,0.49005 1.620915,0.81046 2.563305,0.81046 2.54445,0 4.580015,-2.14865 4.580015,-4.69311 0,-2.58214 -2.035565,-4.7308 -4.580015,-4.7308 -0.923545,0 -1.828243,0.30157 -2.525606,0.79161 v -3.54339 c 0,-0.54658 -0.452348,-1.01778 -1.036631,-1.01778 -0.565438,0 -1.017781,0.4712 -1.017781,1.01778 v 7.46373 c 0,0 0,0 0,0.0188 0,0 0,0 0,0 z m 2.808321,-5.57894 c 0.471195,-0.49005 1.074325,-0.77277 1.771698,-0.77277 0.678517,0 1.300494,0.28272 1.771687,0.77277 0.4712,0.47119 0.753916,1.14971 0.753916,1.90362 0,0.71622 -0.282715,1.39475 -0.753916,1.86594 -0.471193,0.49004 -1.09317,0.77276 -1.771687,0.77276 -0.697373,0 -1.300502,-0.28272 -1.771698,-0.77276 -0.471192,-0.47119 -0.753909,-1.14972 -0.753909,-1.86594 0,-0.75391 0.282717,-1.43243 0.753909,-1.90362 z"
         inkscape:export-xdpi="100.095"
         inkscape:export-ydpi="100.095"
         inkscape:export-filename="C:\Users\strix\Dropbox\kubeinit\docs\src\white_text_logo.png" />
      <path
         inkscape:connector-curvature="0"
         id="path885"
         style="font-style:normal;font-variant:normal;font-weight:bold;font-stretch:normal;font-size:medium;line-height:1.25;font-family:Quicksand;-inkscape-font-specification:'Quicksand Bold';letter-spacing:-2.62202px;word-spacing:0px;fill:#ffffff;fill-opacity:1;stroke:none;stroke-width:0.471196"
         d="m 80.072327,287.07229 c 1.338194,0 2.450217,-0.39581 3.373763,-1.24396 0.433502,-0.3958 0.24502,-0.96124 0,-1.22511 -0.245025,-0.30156 -1.017782,-0.3581 -1.413588,0.0565 -0.471195,0.35811 -1.281655,0.52774 -1.960175,0.4712 -0.659674,-0.0565 -1.413583,-0.39581 -1.809388,-0.84815 -0.339259,-0.32042 -0.546585,-0.81047 -0.640826,-1.24395 h 5.993608 c 0.527739,0 0.923535,-0.30158 0.980072,-0.75392 0.0188,-0.0377 0.0188,-0.13194 0.0188,-0.16963 0,0 0,0 0,0 0,0 0,0 0,0 0,-0.0377 0,-0.0754 0,-0.0942 -0.150787,-2.54446 -2.09211,-4.3727 -4.542327,-4.3727 -2.58215,0 -4.580016,2.14866 -4.598863,4.71196 0.01883,2.5633 2.016713,4.6931 4.598863,4.71195 z m 0,-7.63337 c 1.639762,0.13194 2.601,1.24396 2.789475,1.99787 h -5.333925 c 0.15078,-0.77276 0.942387,-1.92247 2.54445,-1.99787 z"
         inkscape:export-xdpi="100.095"
         inkscape:export-ydpi="100.095"
         inkscape:export-filename="C:\Users\strix\Dropbox\kubeinit\docs\src\white_text_logo.png" />
      <path
         inkscape:connector-curvature="0"
         id="path889"
         style="font-style:normal;font-variant:normal;font-weight:bold;font-stretch:normal;font-size:medium;line-height:1.25;font-family:Quicksand;-inkscape-font-specification:'Quicksand Bold';letter-spacing:-2.62202px;word-spacing:0px;fill:#ffffff;fill-opacity:1;stroke:none;stroke-width:0.471196"
         d="m 93.017145,277.64838 c -0.735066,0 -1.432435,0.22618 -1.997868,0.58429 -0.169632,-0.35811 -0.527738,-0.58429 -0.923546,-0.58429 -0.565432,0 -0.998932,0.45235 -0.998932,0.99894 v 2.92141 c 0,0 0,0 0,0 v 4.50462 c 0,0.54659 0.433501,0.99894 0.998932,0.99894 0.490045,0 0.904702,-0.35811 0.998933,-0.81046 0.03772,-0.0754 0.03772,-0.13193 0.03772,-0.18848 v -4.50462 c 0,-1.05548 0.829308,-1.90363 1.884789,-1.90363 1.074317,0 1.960166,0.84815 1.960166,1.90363 v 4.50462 c 0,0.54659 0.471195,0.99894 0.998933,0.99894 0.546588,0 0.980083,-0.45235 0.980083,-0.99894 v -4.50462 c 0,-2.12981 -1.752848,-3.92035 -3.939182,-3.92035 z"
         inkscape:export-xdpi="100.095"
         inkscape:export-ydpi="100.095"
         inkscape:export-filename="C:\Users\strix\Dropbox\kubeinit\docs\src\white_text_logo.png" />
      <path
         id="path891"
         style="font-style:normal;font-variant:normal;font-weight:bold;font-stretch:normal;font-size:medium;line-height:1.25;font-family:Quicksand;-inkscape-font-specification:'Quicksand Bold';letter-spacing:-2.62202px;word-spacing:0px;fill:#ffffff;fill-opacity:1;stroke:none;stroke-width:0.471196"
         d="m 98.947152,277.66718 c -0.565431,0 -1.017892,0.43358 -1.017892,1.03671 v 7.35076 c 0,0.56545 0.452461,1.0176 1.017892,1.0176 0.584288,0 1.01759,-0.45215 1.01759,-1.0176 v -7.35076 c 0,-0.60313 -0.433302,-1.03671 -1.01759,-1.03671 z"
         inkscape:export-xdpi="100.095"
         inkscape:export-ydpi="100.095"
         inkscape:export-filename="C:\Users\strix\Dropbox\kubeinit\docs\src\white_text_logo.png" />
      <path
         inkscape:connector-curvature="0"
         id="path893"
         style="font-style:normal;font-variant:normal;font-weight:bold;font-stretch:normal;font-size:medium;line-height:1.25;font-family:Quicksand;-inkscape-font-specification:'Quicksand Bold';letter-spacing:-2.62202px;word-spacing:0px;fill:#ffffff;fill-opacity:1;stroke:none;stroke-width:0.471196"
         d="m 104.87762,277.64838 h -0.4712 v -2.73293 c 0,-0.58428 -0.45236,-1.03663 -1.03664,-1.03663 -0.58428,0 -1.05547,0.45235 -1.05547,1.03663 v 2.73293 h -0.54658 c -0.58428,0 -1.03663,0.45235 -1.03663,1.03664 0,0.56543 0.45235,1.03662 1.03663,1.03662 h 0.54658 v 5.25855 c 0,1.14971 0.94239,2.0921 2.09211,2.0921 0.58428,0 1.03663,-0.45235 1.03663,-1.03663 0,-0.58428 -0.45235,-1.05547 -1.03663,-1.05547 0,0 0,0 0,0 v -5.25855 h 0.4712 c 0.56543,0 1.05548,-0.47119 1.05548,-1.03662 0,-0.58429 -0.49005,-1.03664 -1.05548,-1.03664 z"
         inkscape:export-xdpi="100.095"
         inkscape:export-ydpi="100.095"
         inkscape:export-filename="C:\Users\strix\Dropbox\kubeinit\docs\src\white_text_logo.png" />
      <path
         style="font-style:normal;font-variant:normal;font-weight:bold;font-stretch:normal;font-size:medium;line-height:1.25;font-family:Quicksand;-inkscape-font-specification:'Quicksand Bold';letter-spacing:-2.62202px;word-spacing:0px;fill:#ffffff;fill-opacity:1;stroke:none;stroke-width:0.471196"
         d="m 86.956012,276.08789 c -0.565439,0 -1.017904,0.43359 -1.017904,1.03671 v 1.57929 5.77148 1.57928 c 0,0.56545 0.452465,1.0176 1.017904,1.0176 0.584276,0 1.017585,-0.45215 1.017585,-1.0176 v -1.57928 -5.77148 -1.57929 c 0,-0.60312 -0.43331,-1.03671 -1.017585,-1.03671 z"
         id="path891-4"
         inkscape:export-xdpi="100.095"
         inkscape:export-ydpi="100.095"
         inkscape:export-filename="C:\Users\strix\Dropbox\kubeinit\docs\src\white_text_logo.png" />
      <circle
         style="vector-effect:none;fill:#fc624d;fill-opacity:1;stroke:#fc624d;stroke-width:0.0140867;stroke-linecap:round;stroke-linejoin:miter;stroke-miterlimit:4;stroke-dasharray:none;stroke-dashoffset:0;stroke-opacity:1"
         id="path886-5"
         cx="86.955963"
         cy="273.96399"
         r="1.4851937"
         inkscape:export-xdpi="100.095"
         inkscape:export-ydpi="100.095"
         inkscape:export-filename="C:\Users\strix\Dropbox\kubeinit\docs\src\white_text_logo.png" />
    </g>
  </g>
</svg>
