<?xml version="1.0" encoding="UTF-8" standalone="no"?>
<svg
   xmlns:dc="http://purl.org/dc/elements/1.1/"
   xmlns:cc="http://creativecommons.org/ns#"
   xmlns:rdf="http://www.w3.org/1999/02/22-rdf-syntax-ns#"
   xmlns:svg="http://www.w3.org/2000/svg"
   xmlns="http://www.w3.org/2000/svg"
   xmlns:sodipodi="http://sodipodi.sourceforge.net/DTD/sodipodi-0.dtd"
   xmlns:inkscape="http://www.inkscape.org/namespaces/inkscape"
   inkscape:export-ydpi="100.095"
   inkscape:export-xdpi="100.095"
   inkscape:export-filename="C:\Users\strix\Dropbox\logo-for-pystol\pystol.png"
   sodipodi:docname="pystol_compact.svg"
   inkscape:version="1.0 (4035a4fb49, 2020-05-01)"
   id="signet"
   version="1.1"
   viewBox="0 0 12.170833 12.170833"
   height="46"
   width="46">
  <defs
     id="defs2">
    <clipPath
       id="clipPath1086"
       clipPathUnits="userSpaceOnUse">
      <path
         inkscape:connector-curvature="0"
         id="path1084"
         d="m 785.047,369.133 h 105.824 v -7.764 H 785.047 Z" />
    </clipPath>
    <clipPath
       id="clipPath1090"
       clipPathUnits="userSpaceOnUse">
      <path
         inkscape:connector-curvature="0"
         id="path1088"
         d="m 785.047,369.133 h 105.824 v -7.764 H 785.047 Z" />
    </clipPath>
    <clipPath
       id="clipPath1054"
       clipPathUnits="userSpaceOnUse">
      <path
         inkscape:connector-curvature="0"
         id="path1052"
         d="M 784.271,387.718 H 891.649 V 367.684 H 784.271 Z" />
    </clipPath>
    <clipPath
       id="clipPath1058"
       clipPathUnits="userSpaceOnUse">
      <path
         inkscape:connector-curvature="0"
         id="path1056"
         d="M 784.271,387.718 H 891.649 V 367.684 H 784.271 Z" />
    </clipPath>
    <clipPath
       id="clipPath1054-6"
       clipPathUnits="userSpaceOnUse">
      <path
         inkscape:connector-curvature="0"
         id="path1052-0"
         d="M 784.271,387.718 H 891.649 V 367.684 H 784.271 Z" />
    </clipPath>
    <clipPath
       id="clipPath1058-6"
       clipPathUnits="userSpaceOnUse">
      <path
         inkscape:connector-curvature="0"
         id="path1056-2"
         d="M 784.271,387.718 H 891.649 V 367.684 H 784.271 Z" />
    </clipPath>
    <circle
       transform="matrix(0.36551469,-0.93080557,-0.93080557,-0.36551469,0,0)"
       r="24.123543"
       cy="1202.2144"
       cx="545.091"
       id="path1712-8"
       style="opacity:1;vector-effect:none;fill:#c25d02;fill-opacity:1;stroke:#c25d02;stroke-width:0;stroke-linecap:round;stroke-linejoin:miter;stroke-miterlimit:4;stroke-dasharray:none;stroke-dashoffset:0;stroke-opacity:1" />
    <circle
       transform="matrix(0.36551469,-0.93080557,-0.93080557,-0.36551469,0,0)"
       r="24.123543"
       cy="1202.2144"
       cx="545.091"
       id="path1712-9"
       style="opacity:1;vector-effect:none;fill:#c25d02;fill-opacity:1;stroke:#c25d02;stroke-width:0;stroke-linecap:round;stroke-linejoin:miter;stroke-miterlimit:4;stroke-dasharray:none;stroke-dashoffset:0;stroke-opacity:1" />
    <clipPath
       id="clipPath1054-6-9"
       clipPathUnits="userSpaceOnUse">
      <path
         inkscape:connector-curvature="0"
         id="path1052-0-8"
         d="M 784.271,387.718 H 891.649 V 367.684 H 784.271 Z" />
    </clipPath>
    <clipPath
       id="clipPath1058-6-1"
       clipPathUnits="userSpaceOnUse">
      <path
         inkscape:connector-curvature="0"
         id="path1056-2-7"
         d="M 784.271,387.718 H 891.649 V 367.684 H 784.271 Z" />
    </clipPath>
    <clipPath
       id="clipPath1054-6-4"
       clipPathUnits="userSpaceOnUse">
      <path
         inkscape:connector-curvature="0"
         id="path1052-0-2"
         d="M 784.271,387.718 H 891.649 V 367.684 H 784.271 Z" />
    </clipPath>
    <clipPath
       id="clipPath1058-6-15"
       clipPathUnits="userSpaceOnUse">
      <path
         inkscape:connector-curvature="0"
         id="path1056-2-2"
         d="M 784.271,387.718 H 891.649 V 367.684 H 784.271 Z" />
    </clipPath>
    <clipPath
       id="clipPath1054-6-4-3"
       clipPathUnits="userSpaceOnUse">
      <path
         inkscape:connector-curvature="0"
         id="path1052-0-2-6"
         d="M 784.271,387.718 H 891.649 V 367.684 H 784.271 Z" />
    </clipPath>
    <clipPath
       id="clipPath1058-6-15-0"
       clipPathUnits="userSpaceOnUse">
      <path
         inkscape:connector-curvature="0"
         id="path1056-2-2-2"
         d="M 784.271,387.718 H 891.649 V 367.684 H 784.271 Z" />
    </clipPath>
    <circle
       r="20.885929"
       transform="rotate(-40.99342)"
       cy="-1303.1921"
       cx="-54.698578"
       id="path1712-2-8"
       style="opacity:1;vector-effect:none;fill:#c25d02;fill-opacity:1;stroke:#c25d02;stroke-width:0;stroke-linecap:round;stroke-linejoin:miter;stroke-miterlimit:4;stroke-dasharray:none;stroke-dashoffset:0;stroke-opacity:1" />
    <circle
       transform="rotate(138.78743)"
       r="20.885929"
       cy="1303.3918"
       cx="49.713654"
       id="path1712-3"
       style="opacity:1;vector-effect:none;fill:#c25d02;fill-opacity:1;stroke:#c25d02;stroke-width:0;stroke-linecap:round;stroke-linejoin:miter;stroke-miterlimit:4;stroke-dasharray:none;stroke-dashoffset:0;stroke-opacity:1" />
    <clipPath
       id="clipPath1054-6-4-2"
       clipPathUnits="userSpaceOnUse">
      <path
         inkscape:connector-curvature="0"
         id="path1052-0-2-2"
         d="M 784.271,387.718 H 891.649 V 367.684 H 784.271 Z" />
    </clipPath>
    <clipPath
       id="clipPath1058-6-15-9"
       clipPathUnits="userSpaceOnUse">
      <path
         inkscape:connector-curvature="0"
         id="path1056-2-2-8"
         d="M 784.271,387.718 H 891.649 V 367.684 H 784.271 Z" />
    </clipPath>
    <circle
       r="20.885929"
       transform="rotate(-40.99342)"
       cy="-1303.1921"
       cx="-54.698578"
       id="path1712-2-1"
       style="opacity:1;vector-effect:none;fill:#c25d02;fill-opacity:1;stroke:#c25d02;stroke-width:0;stroke-linecap:round;stroke-linejoin:miter;stroke-miterlimit:4;stroke-dasharray:none;stroke-dashoffset:0;stroke-opacity:1" />
    <circle
       transform="rotate(138.78743)"
       r="20.885929"
       cy="1303.3918"
       cx="49.713654"
       id="path1712-5"
       style="opacity:1;vector-effect:none;fill:#c25d02;fill-opacity:1;stroke:#c25d02;stroke-width:0;stroke-linecap:round;stroke-linejoin:miter;stroke-miterlimit:4;stroke-dasharray:none;stroke-dashoffset:0;stroke-opacity:1" />
    <clipPath
       id="clipPath1054-6-0"
       clipPathUnits="userSpaceOnUse">
      <path
         inkscape:connector-curvature="0"
         id="path1052-0-5"
         d="M 784.271,387.718 H 891.649 V 367.684 H 784.271 Z" />
    </clipPath>
    <clipPath
       id="clipPath1058-6-8"
       clipPathUnits="userSpaceOnUse">
      <path
         inkscape:connector-curvature="0"
         id="path1056-2-5"
         d="M 784.271,387.718 H 891.649 V 367.684 H 784.271 Z" />
    </clipPath>
  </defs>
  <sodipodi:namedview
     inkscape:document-rotation="0"
     units="px"
     inkscape:snap-midpoints="true"
     inkscape:snap-smooth-nodes="true"
     inkscape:snap-nodes="true"
     inkscape:snap-global="true"
     inkscape:window-maximized="0"
     inkscape:window-y="-8"
     inkscape:window-x="-8"
     inkscape:window-height="1537"
     inkscape:window-width="1920"
     inkscape:snap-intersection-paths="true"
     inkscape:snap-bbox-midpoints="true"
     inkscape:snap-bbox-edge-midpoints="true"
     inkscape:bbox-nodes="true"
     inkscape:bbox-paths="true"
     inkscape:snap-bbox="true"
     showgrid="false"
     inkscape:current-layer="layer1"
     inkscape:document-units="mm"
     inkscape:cy="21.707555"
     inkscape:cx="17.493515"
     inkscape:zoom="11.313708"
     inkscape:pageshadow="2"
     inkscape:pageopacity="0.0"
     borderopacity="1.0"
     bordercolor="#666666"
     pagecolor="#ffffff"
     id="base" />
  <metadata
     id="metadata5">
    <rdf:RDF>
      <cc:Work
         rdf:about="">
        <dc:format>image/svg+xml</dc:format>
        <dc:type
           rdf:resource="http://purl.org/dc/dcmitype/StillImage" />
        <dc:title />
      </cc:Work>
    </rdf:RDF>
  </metadata>
  <g
     transform="translate(0,-284.82921)"
     id="layer1"
     inkscape:groupmode="layer"
     inkscape:label="Capa 1">
    <flowRoot
       transform="scale(0.26458333)"
       style="font-style:normal;font-weight:normal;font-size:40px;line-height:1.25;font-family:sans-serif;letter-spacing:0px;word-spacing:0px;fill:#000000;fill-opacity:1;stroke:none"
       id="flowRoot1527"
       xml:space="preserve"><flowRegion
         id="flowRegion1529"><rect
           y="2375.5129"
           x="1066.317"
           height="1187.9395"
           width="2169.4036"
           id="rect1531" /></flowRegion><flowPara
         id="flowPara1533" /></flowRoot>
    <g
       transform="matrix(0.28987731,0,0,0.28987731,-461.36484,-773.19468)"
       aria-label="THE FAULT INJECTION PLATFORM"
       style="font-style:normal;font-weight:normal;font-size:24.97233963px;line-height:1.25;font-family:sans-serif;letter-spacing:0px;word-spacing:0px;fill:#008000;fill-opacity:1;stroke:none;stroke-width:0.62430835"
       id="text1454-8-8-4-45-7-3" />
    <flowRoot
       style="font-style:normal;font-weight:normal;font-size:40px;line-height:1.25;font-family:sans-serif;letter-spacing:0px;word-spacing:0px;fill:#000000;fill-opacity:1;stroke:none"
       id="flowRoot1951"
       xml:space="preserve"><flowRegion
         id="flowRegion1953"><rect
           y="-2107.5894"
           x="-3154.8105"
           height="312.69556"
           width="309.10135"
           id="rect1955" /></flowRegion><flowPara
         id="flowPara1957" /></flowRoot>
    <path
       style="vector-effect:none;fill:#fc624d;fill-opacity:1;stroke:#fc624d;stroke-width:0.0079737;stroke-linecap:round;stroke-linejoin:miter;stroke-miterlimit:4;stroke-dasharray:none;stroke-dashoffset:0;stroke-opacity:1"
       d="m 6.0274213,285.63385 v 1.4e-4 c -0.1084148,0.003 -0.2178801,0.0326 -0.3188841,0.0909 l -3.9612633,2.28705 c -0.011237,0.006 -0.021605,0.0137 -0.032307,0.0207 -0.1938889,0.11779 -0.3234792,0.3311 -0.3234792,0.57636 v 4.5741 c 0,0.25681 0.141655,0.47907 0.350912,0.5928 0.00134,7.8e-4 0.00242,0.002 0.0039,0.002 l 3.9611251,2.28706 c 0.00283,0.002 0.0058,0.003 0.00863,0.005 0.014067,0.008 0.028618,0.0151 0.043307,0.0222 0.00423,0.002 0.00841,0.004 0.012672,0.006 0.017353,0.008 0.035222,0.0146 0.053333,0.0209 0.00294,7.8e-4 0.00583,0.002 0.00877,0.003 0.018296,0.006 0.036891,0.0112 0.055839,0.0158 0.00275,5.3e-4 0.00547,0.002 0.00822,0.002 0.016519,0.004 0.033306,0.006 0.05027,0.009 0.00576,7.9e-4 0.0115,0.002 0.017266,0.002 0.014552,0.002 0.029328,0.002 0.044143,0.003 0.00757,2.6e-4 0.015152,7.9e-4 0.022698,7.9e-4 0.0045,7e-5 0.00887,7.9e-4 0.01337,7.9e-4 0.010079,0 0.019831,-7.9e-4 0.029799,-0.002 0.00766,-2.6e-4 0.015326,-5.2e-4 0.022977,-7.9e-4 0.014522,-7.9e-4 0.028789,-0.003 0.043028,-0.005 0.0073,-7.9e-4 0.014612,-0.002 0.021864,-0.003 0.01463,-0.002 0.029028,-0.006 0.043308,-0.009 0.00658,-0.002 0.013112,-0.003 0.019633,-0.006 0.01447,-0.004 0.028697,-0.009 0.04275,-0.0135 0.0062,-0.002 0.012238,-0.005 0.01838,-0.007 0.013985,-0.006 0.027715,-0.0113 0.041218,-0.0175 0.00617,-0.003 0.01229,-0.006 0.018383,-0.009 0.012853,-0.006 0.025357,-0.0135 0.037737,-0.0207 0.00698,-0.004 0.013904,-0.008 0.02075,-0.0125 0.00989,-0.006 0.01956,-0.0129 0.029103,-0.0198 0.00905,-0.006 0.01798,-0.0131 0.026737,-0.02 0.00798,-0.006 0.015715,-0.0129 0.023395,-0.0196 0.00886,-0.008 0.01769,-0.0156 0.026179,-0.0238 0.00663,-0.006 0.012996,-0.0131 0.019356,-0.0198 0.00873,-0.009 0.017348,-0.0184 0.02562,-0.0282 0.00641,-0.008 0.012459,-0.0154 0.01852,-0.0233 0.00684,-0.009 0.013614,-0.0177 0.020052,-0.027 0.00684,-0.01 0.013301,-0.0199 0.019633,-0.03 0.00378,-0.006 0.00795,-0.0118 0.011558,-0.018 0.00161,-0.003 0.00275,-0.006 0.00432,-0.009 0.00576,-0.0103 0.01095,-0.021 0.016153,-0.0316 0.00483,-0.01 0.00975,-0.0195 0.014065,-0.0294 0.00369,-0.009 0.00683,-0.0173 0.010165,-0.026 0.0049,-0.0127 0.00972,-0.0255 0.013786,-0.0383 0.00189,-0.006 0.00343,-0.0121 0.00516,-0.0182 0.00445,-0.0156 0.00871,-0.0312 0.011974,-0.0469 0.00108,-0.006 0.00155,-0.0104 0.00264,-0.0156 0.00302,-0.0164 0.00577,-0.0328 0.00752,-0.0493 8.2e-4,-0.008 0.00114,-0.017 0.00195,-0.0255 8.2e-4,-0.0124 0.00181,-0.0247 0.00181,-0.0371 6.98e-5,-0.004 5.529e-4,-0.008 5.529e-4,-0.0123 v -4.20731 l 0.8348095,-0.48195 c 0.3232145,-0.1866 0.4339411,-0.59569 0.2482837,-0.91724 -0.1856492,-0.32155 -0.595283,-0.43015 -0.9184968,-0.24355 l -1.166782,0.67369 c -0.2222099,0.12829 -0.3440096,0.36174 -0.3381005,0.59962 -8.1e-6,7.9e-4 -1.392e-4,0.002 -1.392e-4,0.003 v 3.41679 l -2.6438265,-1.52617 v -3.80865 l 3.3147229,-1.91372 3.4085772,1.96776 v 3.80752 l -0.8348075,0.48195 c -0.3232089,0.18661 -0.4340718,0.59569 -0.2484232,0.91724 0.1856573,0.32156 0.5954304,0.43016 0.9186366,0.24355 l 1.1667801,-0.67354 c 0.0057,-0.003 0.01074,-0.007 0.01629,-0.0106 0.01251,-0.008 0.02495,-0.0154 0.0369,-0.0238 0.0056,-0.004 0.01094,-0.008 0.01643,-0.0124 0.01175,-0.009 0.02328,-0.0179 0.0344,-0.0274 0.0072,-0.006 0.01391,-0.0125 0.02075,-0.0189 0.0089,-0.008 0.01788,-0.0166 0.02632,-0.0255 0.0067,-0.007 0.01286,-0.0142 0.01921,-0.0215 0.0082,-0.009 0.0163,-0.0187 0.02395,-0.0284 0.006,-0.008 0.01175,-0.0155 0.01741,-0.0234 0.0065,-0.009 0.01296,-0.0184 0.01908,-0.0278 0.006,-0.009 0.01163,-0.0188 0.01713,-0.0284 0.0052,-0.009 0.01038,-0.0182 0.01518,-0.0276 0.0054,-0.0103 0.01027,-0.0207 0.01504,-0.0313 0.0039,-0.009 0.0077,-0.0174 0.01128,-0.0263 0.005,-0.0123 0.0093,-0.0247 0.01351,-0.0373 0.0027,-0.008 0.0052,-0.0154 0.0075,-0.0233 0.0039,-0.013 0.0071,-0.0262 0.01016,-0.0394 0.0019,-0.008 0.0038,-0.0166 0.0054,-0.0251 0.0028,-0.0147 0.0049,-0.0294 0.0067,-0.0443 7.89e-4,-0.006 0.0017,-0.0132 0.0025,-0.0198 0.0013,-0.0154 0.0021,-0.0308 0.0024,-0.0462 1.39e-4,-0.006 8.67e-4,-0.0114 8.67e-4,-0.0173 v -4.57397 c 0,-0.26002 -0.145267,-0.48444 -0.358848,-0.59683 -0.005,-0.003 -0.0095,-0.006 -0.01448,-0.009 L 6.4610708,285.7669 c -0.013122,-0.008 -0.026572,-0.0139 -0.039966,-0.0205 -0.1160753,-0.0781 -0.2538269,-0.1184 -0.3936611,-0.11432 z m 2.0638334,5.78824 a 0.66967932,0.66967932 0 0 0 -0.3190231,0.0895 0.66967932,0.66967932 0 0 0 -0.2452201,0.91488 0.66967932,0.66967932 0 0 0 0.914877,0.24508 0.66967932,0.66967932 0 0 0 0.2450808,-0.91474 0.66967932,0.66967932 0 0 0 -0.5957146,-0.33475 z"
       id="path1036-2-6"
       inkscape:connector-curvature="0"
       inkscape:export-xdpi="100.095"
       inkscape:export-ydpi="100.095"
       inkscape:export-filename="C:\Users\strix\Dropbox\kubeinit\docs\src\white_text_logo.png" />
  </g>
</svg>
