<?xml version="1.0" encoding="UTF-8" standalone="no"?>
<svg
   id="Ebene_1"
   data-name="Ebene 1"
   width="2300"
   height="1300"
   viewBox="0 0 2300 1300"
   version="1.1"
   sodipodi:docname="ibm.svg"
   inkscape:version="1.1 (c68e22c387, 2021-05-23)"
   xmlns:inkscape="http://www.inkscape.org/namespaces/inkscape"
   xmlns:sodipodi="http://sodipodi.sourceforge.net/DTD/sodipodi-0.dtd"
   xmlns="http://www.w3.org/2000/svg"
   xmlns:svg="http://www.w3.org/2000/svg"
   xmlns:rdf="http://www.w3.org/1999/02/22-rdf-syntax-ns#"
   xmlns:cc="http://creativecommons.org/ns#"
   xmlns:dc="http://purl.org/dc/elements/1.1/">
  <metadata
     id="metadata9">
    <rdf:RDF>
      <cc:Work
         rdf:about="">
        <dc:format>image/svg+xml</dc:format>
        <dc:type
           rdf:resource="http://purl.org/dc/dcmitype/StillImage" />
      </cc:Work>
    </rdf:RDF>
  </metadata>
  <defs
     id="defs7">
    <clipPath
       id="clipPath18"
       clipPathUnits="userSpaceOnUse">
      <path
         id="path16"
         d="M 0,928 H 1502 V 0 H 0 Z" />
    </clipPath>
    <clipPath
       id="clipPath46"
       clipPathUnits="userSpaceOnUse">
      <path
         id="path44"
         d="M 530.797,799.473 H 943.992 V 653.641 H 530.797 Z" />
    </clipPath>
    <clipPath
       id="clipPath62"
       clipPathUnits="userSpaceOnUse">
      <path
         id="path60"
         d="M 585.703,706.566 H 943.992 V 559.715 H 585.703 Z" />
    </clipPath>
    <clipPath
       id="clipPath78"
       clipPathUnits="userSpaceOnUse">
      <path
         id="path76"
         d="M 481.614,655.137 H 834.062 V 412.859 H 481.614 Z" />
    </clipPath>
    <clipPath
       id="clipPath94"
       clipPathUnits="userSpaceOnUse">
      <path
         id="path92"
         d="M 481.614,561.215 H 780.625 V 319.953 H 481.614 Z" />
    </clipPath>
    <clipPath
       id="clipPath110"
       clipPathUnits="userSpaceOnUse">
      <path
         id="path108"
         d="M 778.891,703.57 H 1020.96 V 319.953 H 778.891 Z" />
    </clipPath>
    <clipPath
       id="clipPath130"
       clipPathUnits="userSpaceOnUse">
      <path
         id="path128"
         d="M 778.891,703.57 H 1020.96 V 319.953 H 778.891 Z" />
    </clipPath>
    <clipPath
       id="clipPath150"
       clipPathUnits="userSpaceOnUse">
      <path
         id="path148"
         d="m 634.402,799.473 c -12.886,0 -24.785,-6.891 -31.199,-18.071 v 0 L 486.32,577.606 c -6.355,-11.087 -6.355,-24.696 0,-35.785 v 0 L 603.203,338.024 c 6.414,-11.176 18.313,-18.071 31.199,-18.071 v 0 h 233.77 c 12.883,0 24.781,6.895 31.195,18.071 v 0 l 116.883,203.797 c 6.355,11.089 6.355,24.698 0,35.785 v 0 l -72.258,125.964 -44.625,77.832 c -6.414,11.18 -18.312,18.071 -31.195,18.071 v 0 z" />
    </clipPath>
    <mask
       id="mask166"
       height="1"
       width="1"
       y="0"
       x="0"
       maskUnits="userSpaceOnUse">
      <g
         id="g176">
        <g
           id="g174">
          <g
             id="g172">
            <g
               id="g170">
              <path
                 id="path168"
                 style="fill:url(#radialGradient164);stroke:none"
                 d="M -32768,32767 H 32767 V -32768 H -32768 Z" />
            </g>
          </g>
        </g>
      </g>
    </mask>
    <radialGradient
       id="radialGradient164"
       spreadMethod="pad"
       gradientTransform="matrix(553.65015,0,0,553.65015,559.08789,767.08496)"
       gradientUnits="userSpaceOnUse"
       r="1"
       cy="0"
       cx="0"
       fy="0"
       fx="0">
      <stop
         id="stop160"
         offset="0"
         style="stop-opacity:0.09999237;stop-color:#ffffff" />
      <stop
         id="stop162"
         offset="1"
         style="stop-opacity:0;stop-color:#ffffff" />
    </radialGradient>
    <radialGradient
       id="radialGradient186"
       spreadMethod="pad"
       gradientTransform="matrix(553.65015,0,0,553.65015,559.08789,767.08496)"
       gradientUnits="userSpaceOnUse"
       r="1"
       cy="0"
       cx="0"
       fy="0"
       fx="0">
      <stop
         id="stop182"
         offset="0"
         style="stop-opacity:1;stop-color:#ffffff" />
      <stop
         id="stop184"
         offset="1"
         style="stop-opacity:1;stop-color:#ffffff" />
    </radialGradient>
    <clipPath
       id="clipPath196"
       clipPathUnits="userSpaceOnUse">
      <path
         id="path194"
         d="M 128,80 H 1374 V 272 H 128 Z" />
    </clipPath>
    <clipPath
       id="clipPath254"
       clipPathUnits="userSpaceOnUse">
      <path
         id="path252"
         d="M 0,136 H 416 V 0 H 0 Z" />
    </clipPath>
  </defs>
  <sodipodi:namedview
     pagecolor="#ffffff"
     bordercolor="#666666"
     borderopacity="1"
     objecttolerance="10"
     gridtolerance="10"
     guidetolerance="10"
     inkscape:pageopacity="0"
     inkscape:pageshadow="2"
     inkscape:window-width="1414"
     inkscape:window-height="1208"
     id="namedview5"
     showgrid="false"
     inkscape:zoom="0.1265625"
     inkscape:cx="1631.6049"
     inkscape:cy="1647.4074"
     inkscape:window-x="26"
     inkscape:window-y="23"
     inkscape:window-maximized="0"
     inkscape:current-layer="Ebene_1"
     inkscape:document-rotation="0"
     inkscape:pagecheckerboard="0"
     width="2300px" />
  <path
     d="m 147.56173,230.80863 v 55.16748 h 392.38318 v -55.16748 z m 447.97784,0 v 55.16748 h 559.16703 c 0,0 -57.1161,-55.16748 -132.7638,-55.16748 z m 668.85883,0 v 55.16748 h 338.2861 l -20.0771,-55.16748 z m 580.8185,0 -20.077,55.16748 h 335.2142 V 230.80863 Z M 147.56173,338.0958 v 55.16749 H 539.94491 V 338.0958 Z m 447.97784,0.0816 v 55.09069 h 624.04903 c 0,0 -7.2859,-42.46274 -20.0002,-55.09069 z m 668.85883,0 v 55.09069 h 375.3732 l -18.5844,-55.09069 z m 540.6596,0 -18.5843,55.09069 h 373.8804 V 338.1774 Z M 260.32534,445.38298 v 55.24908 H 430.2531 v -55.24908 z m 447.97774,0 v 55.24908 h 169.93256 v -55.24908 z m 335.21422,0 v 55.24908 h 169.9326 c 0,0 10.7896,-29.17724 10.7896,-55.24908 z m 333.6447,0 v 55.24908 h 301.2758 l -20.0819,-55.24908 z m 390.8857,0 -20.1586,55.24908 h 302.7732 V 445.38298 Z M 260.32534,552.75655 v 55.16748 H 430.2531 v -55.16748 z m 447.97774,0 v 55.16748 h 434.03952 c 0,0 36.3096,-28.30849 47.8768,-55.16748 z m 668.85892,0 v 55.16748 h 169.9278 V 577.2109 l 10.7897,30.71313 h 311.2782 l 11.5768,-30.71313 v 30.71313 h 169.9278 v -55.16748 h -318.9961 l -16.9285,46.72485 -17.01,-46.72485 z M 260.32534,660.04373 v 55.16748 H 430.2531 v -55.16748 z m 447.97774,0 v 55.16748 h 481.91632 c -11.5672,-26.7726 -47.8768,-55.16748 -47.8768,-55.16748 z m 668.85892,0 v 55.16748 h 169.9278 v -55.16748 z m 200.7945,0 20.5522,55.16748 h 233.3987 l 19.5299,-55.16748 z m 302.7732,0 v 55.16748 h 169.9326 V 660.04373 Z M 260.32534,767.3309 v 55.16749 H 430.2531 V 767.3309 Z m 447.97774,0 v 55.16749 H 878.23564 V 767.3309 Z m 335.21422,0 v 55.16749 h 180.7174 c 0,-26.03825 -10.7848,-55.16749 -10.7848,-55.16749 z m 333.6447,0 v 55.16749 h 169.9278 V 767.3309 Z m 239.3839,0 19.9187,55.16749 h 156.4694 l 20.0771,-55.16749 z m 264.1838,0 v 55.16749 h 169.9326 V 767.3309 Z M 150.63352,874.61808 v 55.24904 h 392.38319 v -55.24904 z m 444.90605,0 v 55.24904 h 604.04883 c 12.7143,-12.65191 20.0002,-55.24904 20.0002,-55.24904 z m 671.93063,0 v 55.24904 h 279.6196 v -55.24904 z m 387.7371,0 20.4706,55.24904 h 79.6123 l 19.2131,-55.24904 z m 225.5224,0 v 55.24904 h 282.6962 V 874.61808 Z M 150.63352,981.98682 v 55.16748 h 392.38319 v -55.16748 z m 444.90605,0 v 55.09068 h 426.40323 c 75.6477,0 132.7638,-55.09068 132.7638,-55.09068 z m 671.93063,0 v 55.16748 h 279.6196 v -55.16748 z m 426.5569,0 19.6883,55.01388 3.3837,0.077 20.0051,-55.09068 z m 186.7026,0 v 55.16748 h 282.6962 v -55.16748 z"
     fill="#1f70c1"
     id="path2-3"
     style="stroke-width:4.79968" />
</svg>
