<?xml version="1.0" encoding="UTF-8" standalone="no"?>
<svg
   xmlns:dc="http://purl.org/dc/elements/1.1/"
   xmlns:cc="http://creativecommons.org/ns#"
   xmlns:rdf="http://www.w3.org/1999/02/22-rdf-syntax-ns#"
   xmlns:svg="http://www.w3.org/2000/svg"
   xmlns="http://www.w3.org/2000/svg"
   xmlns:sodipodi="http://sodipodi.sourceforge.net/DTD/sodipodi-0.dtd"
   xmlns:inkscape="http://www.inkscape.org/namespaces/inkscape"
   id="Ebene_1"
   data-name="Ebene 1"
   width="600"
   height="400"
   viewBox="0 0 600 400"
   version="1.1"
   sodipodi:docname="rht.svg"
   inkscape:version="1.0.2-2 (e86c870879, 2021-01-15)">
  <metadata
     id="metadata9">
    <rdf:RDF>
      <cc:Work
         rdf:about="">
        <dc:format>image/svg+xml</dc:format>
        <dc:type
           rdf:resource="http://purl.org/dc/dcmitype/StillImage" />
        <dc:title></dc:title>
      </cc:Work>
    </rdf:RDF>
  </metadata>
  <defs
     id="defs7">
    <clipPath
       id="clipPath18"
       clipPathUnits="userSpaceOnUse">
      <path
         id="path16"
         d="M 0,928 H 1502 V 0 H 0 Z" />
    </clipPath>
    <clipPath
       id="clipPath46"
       clipPathUnits="userSpaceOnUse">
      <path
         id="path44"
         d="M 530.797,799.473 H 943.992 V 653.641 H 530.797 Z" />
    </clipPath>
    <clipPath
       id="clipPath62"
       clipPathUnits="userSpaceOnUse">
      <path
         id="path60"
         d="M 585.703,706.566 H 943.992 V 559.715 H 585.703 Z" />
    </clipPath>
    <clipPath
       id="clipPath78"
       clipPathUnits="userSpaceOnUse">
      <path
         id="path76"
         d="M 481.614,655.137 H 834.062 V 412.859 H 481.614 Z" />
    </clipPath>
    <clipPath
       id="clipPath94"
       clipPathUnits="userSpaceOnUse">
      <path
         id="path92"
         d="M 481.614,561.215 H 780.625 V 319.953 H 481.614 Z" />
    </clipPath>
    <clipPath
       id="clipPath110"
       clipPathUnits="userSpaceOnUse">
      <path
         id="path108"
         d="M 778.891,703.57 H 1020.96 V 319.953 H 778.891 Z" />
    </clipPath>
    <clipPath
       id="clipPath130"
       clipPathUnits="userSpaceOnUse">
      <path
         id="path128"
         d="M 778.891,703.57 H 1020.96 V 319.953 H 778.891 Z" />
    </clipPath>
    <clipPath
       id="clipPath150"
       clipPathUnits="userSpaceOnUse">
      <path
         id="path148"
         d="m 634.402,799.473 c -12.886,0 -24.785,-6.891 -31.199,-18.071 v 0 L 486.32,577.606 c -6.355,-11.087 -6.355,-24.696 0,-35.785 v 0 L 603.203,338.024 c 6.414,-11.176 18.313,-18.071 31.199,-18.071 v 0 h 233.77 c 12.883,0 24.781,6.895 31.195,18.071 v 0 l 116.883,203.797 c 6.355,11.089 6.355,24.698 0,35.785 v 0 l -72.258,125.964 -44.625,77.832 c -6.414,11.18 -18.312,18.071 -31.195,18.071 v 0 z" />
    </clipPath>
    <mask
       id="mask166"
       height="1"
       width="1"
       y="0"
       x="0"
       maskUnits="userSpaceOnUse">
      <g
         id="g176">
        <g
           id="g174">
          <g
             id="g172">
            <g
               id="g170">
              <path
                 id="path168"
                 style="fill:url(#radialGradient164);stroke:none"
                 d="M -32768,32767 H 32767 V -32768 H -32768 Z" />
            </g>
          </g>
        </g>
      </g>
    </mask>
    <radialGradient
       id="radialGradient164"
       spreadMethod="pad"
       gradientTransform="matrix(553.65015,0,0,553.65015,559.08789,767.08496)"
       gradientUnits="userSpaceOnUse"
       r="1"
       cy="0"
       cx="0"
       fy="0"
       fx="0">
      <stop
         id="stop160"
         offset="0"
         style="stop-opacity:0.09999237;stop-color:#ffffff" />
      <stop
         id="stop162"
         offset="1"
         style="stop-opacity:0;stop-color:#ffffff" />
    </radialGradient>
    <radialGradient
       id="radialGradient186"
       spreadMethod="pad"
       gradientTransform="matrix(553.65015,0,0,553.65015,559.08789,767.08496)"
       gradientUnits="userSpaceOnUse"
       r="1"
       cy="0"
       cx="0"
       fy="0"
       fx="0">
      <stop
         id="stop182"
         offset="0"
         style="stop-opacity:1;stop-color:#ffffff" />
      <stop
         id="stop184"
         offset="1"
         style="stop-opacity:1;stop-color:#ffffff" />
    </radialGradient>
    <clipPath
       id="clipPath196"
       clipPathUnits="userSpaceOnUse">
      <path
         id="path194"
         d="M 128,80 H 1374 V 272 H 128 Z" />
    </clipPath>
    <clipPath
       id="clipPath254"
       clipPathUnits="userSpaceOnUse">
      <path
         id="path252"
         d="M 0,136 H 416 V 0 H 0 Z" />
    </clipPath>
  </defs>
  <sodipodi:namedview
     pagecolor="#ffffff"
     bordercolor="#666666"
     borderopacity="1"
     objecttolerance="10"
     gridtolerance="10"
     guidetolerance="10"
     inkscape:pageopacity="0"
     inkscape:pageshadow="2"
     inkscape:window-width="1414"
     inkscape:window-height="1208"
     id="namedview5"
     showgrid="false"
     inkscape:zoom="0.50625"
     inkscape:cx="64.876059"
     inkscape:cy="385.75497"
     inkscape:window-x="1135"
     inkscape:window-y="187"
     inkscape:window-maximized="0"
     inkscape:current-layer="Ebene_1"
     inkscape:document-rotation="0" />
  <path
     d="m 360.37661,127.19963 a 14,14 0 0 1 0.31,3.43 c 0,14.88 -18.09,17.49 -30.6,17.5 -48.66,0 -85,-30.16 -85,-39.38 a 6.15,6.15 0 0 1 0.22,-2 l -3.66,9.07 a 18.46,18.46 0 0 0 -1.5,7.33 c 0,18.11 41,45.46 87.8,45.42 20.7,0 36.44,-7.8 36.42,-21.82 0,-1.07 0,-1.94 -1.73,-10.13 z"
     id="path2" />
  <path
     d="m 330.08661,148.11963 c 12.51,0 30.62,-2.62 30.6,-17.5 a 14,14 0 0 0 -0.31,-3.42 l -7.48,-32.359995 c -1.73,-7.12 -3.25,-10.35 -15.76,-16.59 -9.71,-4.95 -30.85,-13.13 -37.1,-13.12 -5.82,0 -7.54,7.55 -14.44,7.56 -6.68,0 -11.65,-5.6 -17.9,-5.59 -6,0 -9.92,4.11 -12.93,12.52 0,0 -8.39,23.719995 -9.46,27.169995 a 6.15,6.15 0 0 0 -0.22,2 c 0,9.22 36.34,39.42 85,39.38 m 32.55,-11.54 c 1.73,8.19 1.73,9.06 1.73,10.13 0,14 -15.72,21.8 -36.42,21.82 -46.79,0 -87.78,-27.31 -87.8,-45.42 a 18.46,18.46 0 0 1 1.5,-7.33 c -16.82001,0.87 -38.59001,3.91 -38.58001,23.1 0,31.48 74.68001,70.23 133.76001,70.18 45.28,0 56.69,-20.54 56.68,-36.71 0,-12.73 -11,-27.16 -30.87,-35.77"
     fill="#ee0000"
     id="path4" />
  <path
     d="m 458.84661,296.14963 c 0,11.88 7.15,17.66 20.19,17.66 a 52,52 0 0 0 11.89,-1.68 v -13.78 a 24.55,24.55 0 0 1 -7.68,1.16 c -5.37,0 -7.36,-1.68 -7.36,-6.73 v -21.15 h 15.56 v -14.2 h -15.56 v -18 l -17,3.68 v 14.3 h -11.29 v 14.22 h 11.25 z m -52.94,0.31 c 0,-3.68 3.68,-5.47 9.25,-5.47 a 43.12,43.12 0 0 1 10.1,1.26 v 7.16 a 21.62,21.62 0 0 1 -10.63,2.63 c -5.46,0 -8.72,-2.11 -8.72,-5.58 m 5.19,17.56 c 6,0 10.84,-1.26 15.36,-4.31 v 3.37 h 16.83 v -35.65 c 0,-13.57 -9.15,-21 -24.4,-21 -8.52,0 -16.94,2 -26,6.1 l 6.1,12.52 c 6.52,-2.74 12,-4.42 16.83,-4.42 7,0 10.62,2.73 10.62,8.31 v 2.69 a 49.48,49.48 0 0 0 -12.62,-1.57 c -14.3,0 -22.93,6 -22.93,16.72 0,9.78 7.78,17.24 20.19,17.24 m -92.44,-0.94 h 18.09 v -28.82 h 30.29 v 28.82 h 18.09 v -73.62 h -18.07 v 28.29 h -30.29 v -28.29 h -18.09 z m -68.93,-27.87 c 0,-8 6.31,-14.09 14.62,-14.09 a 17.22,17.22 0 0 1 11.78,4.31 v 19.45 a 16.36,16.36 0 0 1 -11.78,4.42 c -8.2,0 -14.62,-6.1 -14.62,-14.09 m 26.61,27.87 h 16.83 v -77.3 l -17,3.68 v 20.93 a 28.27,28.27 0 0 0 -14.2,-3.68 c -16.19,0 -28.92001,12.51 -28.92001,28.5 a 28.26,28.26 0 0 0 28.40001,28.6 25.12,25.12 0 0 0 14.93,-4.83 z m -77.19001,-42.7 c 5.36,0 9.88,3.47 11.67,8.83 h -23.22 c 1.68,-5.57 5.89,-8.83 11.57,-8.83 m -28.71,14.93 c 0,16.2 13.25,28.82 30.29,28.82 9.36,0 16.19,-2.52 23.24,-8.41 l -11.26,-10 c -2.62,2.73 -6.52,4.2 -11.14,4.2 a 14.39,14.39 0 0 1 -13.68,-8.83 h 39.65 v -4.21 c 0,-17.67 -11.88,-30.39 -28.08,-30.39 a 28.57,28.57 0 0 0 -29,28.81 m -29.36,-30.38 c 6,0 9.36,3.79 9.36,8.31 0,4.52 -3.37,8.31 -9.36,8.31 h -17.88 v -16.62 z m -36,58.16 h 18.12 v -26.82 h 13.77 l 13.89,26.82 h 20.19 l -16.2,-29.45 a 22.27,22.27 0 0 0 13.89,-20.72 c 0,-13.25 -10.42,-23.45 -26,-23.45 h -37.63 z"
     id="path6" />
</svg>
