<?xml version="1.0" encoding="UTF-8" standalone="no"?><svg xmlns="http://www.w3.org/2000/svg" xmlns:xlink="http://www.w3.org/1999/xlink" contentScriptType="application/ecmascript" contentStyleType="text/css" height="756px" preserveAspectRatio="none" style="width:1201px;height:756px;" version="1.1" viewBox="0 0 1201 756" width="1201px" zoomAndPan="magnify"><defs><filter height="300%" id="f17cy5kbu1vpf3" width="300%" x="-1" y="-1"><feGaussianBlur result="blurOut" stdDeviation="2.0"/><feColorMatrix in="blurOut" result="blurOut2" type="matrix" values="0 0 0 0 0 0 0 0 0 0 0 0 0 0 0 0 0 0 .4 0"/><feOffset dx="4.0" dy="4.0" in="blurOut2" result="blurOut3"/><feBlend in="SourceGraphic" in2="blurOut3" mode="normal"/></filter><filter height="1" id="b17cy5kbu1vpf30" width="1" x="0" y="0"><feFlood flood-color="#0000FF" result="flood"/><feComposite in="SourceGraphic" in2="flood" operator="over"/></filter><filter height="1" id="b17cy5kbu1vpf31" width="1" x="0" y="0"><feFlood flood-color="#20B2AA" result="flood"/><feComposite in="SourceGraphic" in2="flood" operator="over"/></filter><filter height="1" id="b17cy5kbu1vpf32" width="1" x="0" y="0"><feFlood flood-color="#008000" result="flood"/><feComposite in="SourceGraphic" in2="flood" operator="over"/></filter><filter height="1" id="b17cy5kbu1vpf33" width="1" x="0" y="0"><feFlood flood-color="#FF0000" result="flood"/><feComposite in="SourceGraphic" in2="flood" operator="over"/></filter><filter height="1" id="b17cy5kbu1vpf34" width="1" x="0" y="0"><feFlood flood-color="#800080" result="flood"/><feComposite in="SourceGraphic" in2="flood" operator="over"/></filter></defs><g><rect fill="#FFFFFF" filter="url(#f17cy5kbu1vpf3)" height="263.1953" style="stroke: #000000; stroke-width: 2.0;" width="1111" x="79" y="232.8281"/><line style="stroke: #A80036; stroke-width: 1.0; stroke-dasharray: 5.0,5.0;" x1="43" x2="43" y1="86.2969" y2="542.1563"/><line style="stroke: #A80036; stroke-width: 1.0; stroke-dasharray: 5.0,5.0;" x1="149" x2="149" y1="86.2969" y2="542.1563"/><line style="stroke: #A80036; stroke-width: 1.0; stroke-dasharray: 5.0,5.0;" x1="377" x2="377" y1="86.2969" y2="542.1563"/><line style="stroke: #A80036; stroke-width: 1.0; stroke-dasharray: 5.0,5.0;" x1="738" x2="738" y1="86.2969" y2="542.1563"/><line style="stroke: #A80036; stroke-width: 1.0; stroke-dasharray: 5.0,5.0;" x1="1109" x2="1109" y1="86.2969" y2="542.1563"/><text fill="#000000" font-family="sans-serif" font-size="14" lengthAdjust="spacingAndGlyphs" textLength="65" x="8" y="82.9951">RootUser</text><ellipse cx="43.5" cy="13" fill="#FEFECE" filter="url(#f17cy5kbu1vpf3)" rx="8" ry="8" style="stroke: #A80036; stroke-width: 2.0;"/><path d="M43.5,21 L43.5,48 M30.5,29 L56.5,29 M43.5,48 L30.5,63 M43.5,48 L56.5,63 " fill="none" filter="url(#f17cy5kbu1vpf3)" style="stroke: #A80036; stroke-width: 2.0;"/><text fill="#000000" font-family="sans-serif" font-size="14" lengthAdjust="spacingAndGlyphs" textLength="65" x="8" y="554.1514">RootUser</text><ellipse cx="43.5" cy="567.4531" fill="#FEFECE" filter="url(#f17cy5kbu1vpf3)" rx="8" ry="8" style="stroke: #A80036; stroke-width: 2.0;"/><path d="M43.5,575.4531 L43.5,602.4531 M30.5,583.4531 L56.5,583.4531 M43.5,602.4531 L30.5,617.4531 M43.5,602.4531 L56.5,617.4531 " fill="none" filter="url(#f17cy5kbu1vpf3)" style="stroke: #A80036; stroke-width: 2.0;"/><text fill="#000000" font-family="sans-serif" font-size="14" lengthAdjust="spacingAndGlyphs" textLength="115" x="89" y="82.9951">GitLab_Schedule</text><ellipse cx="149.5" cy="54" fill="#FEFECE" filter="url(#f17cy5kbu1vpf3)" rx="12" ry="12" style="stroke: #A80036; stroke-width: 2.0;"/><polygon fill="#A80036" points="145.5,42,151.5,37,149.5,42,151.5,47,145.5,42" style="stroke: #A80036; stroke-width: 1.0;"/><text fill="#000000" font-family="sans-serif" font-size="14" lengthAdjust="spacingAndGlyphs" textLength="115" x="89" y="554.1514">GitLab_Schedule</text><ellipse cx="149.5" cy="573.4531" fill="#FEFECE" filter="url(#f17cy5kbu1vpf3)" rx="12" ry="12" style="stroke: #A80036; stroke-width: 2.0;"/><polygon fill="#A80036" points="145.5,561.4531,151.5,556.4531,149.5,561.4531,151.5,566.4531,145.5,561.4531" style="stroke: #A80036; stroke-width: 1.0;"/><rect fill="#FEFECE" filter="url(#f17cy5kbu1vpf3)" height="30.2969" style="stroke: #A80036; stroke-width: 1.5;" width="87" x="332" y="51"/><text fill="#000000" font-family="sans-serif" font-size="14" lengthAdjust="spacingAndGlyphs" textLength="73" x="339" y="70.9951">GitHub_PR</text><rect fill="#FEFECE" filter="url(#f17cy5kbu1vpf3)" height="30.2969" style="stroke: #A80036; stroke-width: 1.5;" width="87" x="332" y="541.1563"/><text fill="#000000" font-family="sans-serif" font-size="14" lengthAdjust="spacingAndGlyphs" textLength="73" x="339" y="561.1514">GitHub_PR</text><rect fill="#FEFECE" filter="url(#f17cy5kbu1vpf3)" height="30.2969" style="stroke: #A80036; stroke-width: 1.5;" width="115" x="679" y="51"/><text fill="#000000" font-family="sans-serif" font-size="14" lengthAdjust="spacingAndGlyphs" textLength="101" x="686" y="70.9951">GitLab_Runner</text><rect fill="#FEFECE" filter="url(#f17cy5kbu1vpf3)" height="30.2969" style="stroke: #A80036; stroke-width: 1.5;" width="115" x="679" y="541.1563"/><text fill="#000000" font-family="sans-serif" font-size="14" lengthAdjust="spacingAndGlyphs" textLength="101" x="686" y="561.1514">GitLab_Runner</text><rect fill="#FEFECE" filter="url(#f17cy5kbu1vpf3)" height="30.2969" style="stroke: #A80036; stroke-width: 1.5;" width="137" x="1039" y="51"/><text fill="#000000" font-family="sans-serif" font-size="14" lengthAdjust="spacingAndGlyphs" textLength="123" x="1046" y="70.9951">Worker_machines</text><rect fill="#FEFECE" filter="url(#f17cy5kbu1vpf3)" height="30.2969" style="stroke: #A80036; stroke-width: 1.5;" width="137" x="1039" y="541.1563"/><text fill="#000000" font-family="sans-serif" font-size="14" lengthAdjust="spacingAndGlyphs" textLength="123" x="1046" y="561.1514">Worker_machines</text><polygon fill="#0000FF" points="365.5,113.4297,375.5,117.4297,365.5,121.4297,369.5,117.4297" style="stroke: #0000FF; stroke-width: 1.0;"/><line style="stroke: #0000FF; stroke-width: 1.0;" x1="43.5" x2="371.5" y1="117.4297" y2="117.4297"/><text fill="#000000" font-family="sans-serif" font-size="13" lengthAdjust="spacingAndGlyphs" textLength="75" x="50.5" y="112.3638">Add CI label</text><line style="stroke: #20B2AA; stroke-width: 1.0;" x1="149.5" x2="191.5" y1="146.5625" y2="146.5625"/><line style="stroke: #20B2AA; stroke-width: 1.0;" x1="191.5" x2="191.5" y1="146.5625" y2="159.5625"/><line style="stroke: #20B2AA; stroke-width: 1.0;" x1="150.5" x2="191.5" y1="159.5625" y2="159.5625"/><polygon fill="#20B2AA" points="160.5,155.5625,150.5,159.5625,160.5,163.5625,156.5,159.5625" style="stroke: #20B2AA; stroke-width: 1.0;"/><text fill="#000000" font-family="sans-serif" font-size="13" lengthAdjust="spacingAndGlyphs" textLength="146" x="156.5" y="141.4966">Runs every 15 minutes</text><polygon fill="#008000" points="365.5,184.6953,375.5,188.6953,365.5,192.6953,369.5,188.6953" style="stroke: #008000; stroke-width: 1.0;"/><line style="stroke: #008000; stroke-width: 1.0;" x1="149.5" x2="371.5" y1="188.6953" y2="188.6953"/><text fill="#000000" font-family="sans-serif" font-size="13" lengthAdjust="spacingAndGlyphs" textLength="161" x="156.5" y="183.6294">Get labels from open PRs</text><polygon fill="#008000" points="160.5,213.8281,150.5,217.8281,160.5,221.8281,156.5,217.8281" style="stroke: #008000; stroke-width: 1.0;"/><line style="stroke: #008000; stroke-width: 1.0;" x1="154.5" x2="376.5" y1="217.8281" y2="217.8281"/><text fill="#000000" font-family="sans-serif" font-size="13" lengthAdjust="spacingAndGlyphs" textLength="158" x="166.5" y="212.7622">Send labels for open PRs</text><path d="M79,232.8281 L156,232.8281 L156,239.8281 L146,249.8281 L79,249.8281 L79,232.8281 " fill="#EEEEEE" style="stroke: #000000; stroke-width: 1.0;"/><rect fill="none" height="263.1953" style="stroke: #000000; stroke-width: 2.0;" width="1111" x="79" y="232.8281"/><text fill="#000000" font-family="sans-serif" font-size="13" font-weight="bold" lengthAdjust="spacingAndGlyphs" textLength="32" x="94" y="245.895">loop</text><text fill="#000000" font-family="sans-serif" font-size="11" font-weight="bold" lengthAdjust="spacingAndGlyphs" textLength="99" x="171" y="245.0386">[for each label]</text><polygon fill="#008000" points="365.5,267.0938,375.5,271.0938,365.5,275.0938,369.5,271.0938" style="stroke: #008000; stroke-width: 1.0;"/><line style="stroke: #008000; stroke-width: 1.0;" x1="149.5" x2="371.5" y1="271.0938" y2="271.0938"/><text fill="#000000" font-family="sans-serif" font-size="13" lengthAdjust="spacingAndGlyphs" textLength="86" x="156.5" y="266.0278">Remove label</text><polygon fill="#008000" points="365.5,296.2266,375.5,300.2266,365.5,304.2266,369.5,300.2266" style="stroke: #008000; stroke-width: 1.0;"/><line style="stroke: #008000; stroke-width: 1.0;" x1="149.5" x2="371.5" y1="300.2266" y2="300.2266"/><text fill="#000000" font-family="sans-serif" font-size="13" lengthAdjust="spacingAndGlyphs" textLength="204" x="156.5" y="295.1606">Mark label as a "in progress job"</text><polygon fill="#008000" points="726.5,325.3594,736.5,329.3594,726.5,333.3594,730.5,329.3594" style="stroke: #008000; stroke-width: 1.0;"/><line style="stroke: #008000; stroke-width: 1.0;" x1="149.5" x2="732.5" y1="329.3594" y2="329.3594"/><text fill="#000000" font-family="sans-serif" font-size="13" lengthAdjust="spacingAndGlyphs" textLength="67" x="156.5" y="324.2935">Trigger job</text><line style="stroke: #FF0000; stroke-width: 1.0;" x1="738.5" x2="780.5" y1="358.4922" y2="358.4922"/><line style="stroke: #FF0000; stroke-width: 1.0;" x1="780.5" x2="780.5" y1="358.4922" y2="371.4922"/><line style="stroke: #FF0000; stroke-width: 1.0;" x1="739.5" x2="780.5" y1="371.4922" y2="371.4922"/><polygon fill="#FF0000" points="749.5,367.4922,739.5,371.4922,749.5,375.4922,745.5,371.4922" style="stroke: #FF0000; stroke-width: 1.0;"/><text fill="#000000" font-family="sans-serif" font-size="13" lengthAdjust="spacingAndGlyphs" textLength="357" x="745.5" y="353.4263">Configure job parameters based in the label information</text><polygon fill="#800080" points="1097.5,396.625,1107.5,400.625,1097.5,404.625,1101.5,400.625" style="stroke: #800080; stroke-width: 1.0;"/><line style="stroke: #800080; stroke-width: 1.0;" x1="738.5" x2="1103.5" y1="400.625" y2="400.625"/><text fill="#000000" font-family="sans-serif" font-size="13" lengthAdjust="spacingAndGlyphs" textLength="116" x="745.5" y="395.5591">Deploy the cluster</text><polygon fill="#800080" points="749.5,425.7578,739.5,429.7578,749.5,433.7578,745.5,429.7578" style="stroke: #800080; stroke-width: 1.0;"/><line style="stroke: #800080; stroke-width: 1.0;" x1="743.5" x2="1108.5" y1="429.7578" y2="429.7578"/><text fill="#000000" font-family="sans-serif" font-size="13" lengthAdjust="spacingAndGlyphs" textLength="121" x="755.5" y="424.6919">Send the job result</text><polygon fill="#008000" points="388.5,454.8906,378.5,458.8906,388.5,462.8906,384.5,458.8906" style="stroke: #008000; stroke-width: 1.0;"/><line style="stroke: #008000; stroke-width: 1.0;" x1="382.5" x2="737.5" y1="458.8906" y2="458.8906"/><text fill="#000000" font-family="sans-serif" font-size="13" lengthAdjust="spacingAndGlyphs" textLength="180" x="394.5" y="453.8247">Write the job result in the PR</text><polygon fill="#008000" points="388.5,484.0234,378.5,488.0234,388.5,492.0234,384.5,488.0234" style="stroke: #008000; stroke-width: 1.0;"/><line style="stroke: #008000; stroke-width: 1.0;" x1="382.5" x2="737.5" y1="488.0234" y2="488.0234"/><text fill="#000000" font-family="sans-serif" font-size="13" lengthAdjust="spacingAndGlyphs" textLength="337" x="394.5" y="482.9575">Mark the job as finished (successfully or with failures)</text><polygon fill="#0000FF" points="54.5,520.1563,44.5,524.1563,54.5,528.1563,50.5,524.1563" style="stroke: #0000FF; stroke-width: 1.0;"/><line style="stroke: #0000FF; stroke-width: 1.0;" x1="48.5" x2="376.5" y1="524.1563" y2="524.1563"/><text fill="#000000" font-family="sans-serif" font-size="13" lengthAdjust="spacingAndGlyphs" textLength="34" x="60.5" y="519.0903">Done</text><rect fill="#DDDDDD" height="111.7813" rx="5" ry="5" style="stroke: #000000; stroke-width: 1.0;" width="540" x="331" y="633.4531"/><text fill="#000000" font-family="sans-serif" font-size="14" font-weight="bold" lengthAdjust="spacingAndGlyphs" textLength="42" x="342" y="653.4482">Color</text><text fill="#000000" font-family="sans-serif" font-size="14" font-weight="bold" lengthAdjust="spacingAndGlyphs" textLength="39" x="394" y="653.4482">Type</text><text fill="#000000" font-family="sans-serif" font-size="14" font-weight="bold" lengthAdjust="spacingAndGlyphs" textLength="90" x="443" y="653.4482">Description</text><text fill="#000000" font-family="sans-serif" font-size="14" lengthAdjust="spacingAndGlyphs" textLength="0" x="341" y="669.7451"/><text fill="#000000" filter="url(#b17cy5kbu1vpf30)" font-family="sans-serif" font-size="11" lengthAdjust="spacingAndGlyphs" textLength="0" x="385" y="670.4526"/><text fill="#000000" font-family="sans-serif" font-size="14" lengthAdjust="spacingAndGlyphs" textLength="0" x="405" y="669.7451"/><path d="M411.8333,661.3802 L411.8333,663.7135 L406,663.7135 L406,664.8802 L411.8333,664.8802 L411.8333,667.2135 L415.3333,664.2607 L411.8333,661.3802 " fill="#000000" style="stroke: ; stroke-width: 0.0; stroke-dasharray: ;"/><text fill="#000000" font-family="sans-serif" font-size="14" lengthAdjust="spacingAndGlyphs" textLength="0" x="420.3333" y="669.7451"/><text fill="#000000" font-family="sans-serif" font-size="14" lengthAdjust="spacingAndGlyphs" textLength="375" x="442" y="669.7451">User action triggered by an elevated KubeInit member.</text><text fill="#000000" font-family="sans-serif" font-size="14" lengthAdjust="spacingAndGlyphs" textLength="0" x="341" y="686.042"/><text fill="#000000" filter="url(#b17cy5kbu1vpf31)" font-family="sans-serif" font-size="11" lengthAdjust="spacingAndGlyphs" textLength="0" x="385" y="686.7495"/><text fill="#000000" font-family="sans-serif" font-size="14" lengthAdjust="spacingAndGlyphs" textLength="0" x="405" y="686.042"/><path d="M411.8333,677.6771 L411.8333,680.0104 L406,680.0104 L406,681.1771 L411.8333,681.1771 L411.8333,683.5104 L415.3333,680.5576 L411.8333,677.6771 " fill="#000000" style="stroke: ; stroke-width: 0.0; stroke-dasharray: ;"/><text fill="#000000" font-family="sans-serif" font-size="14" lengthAdjust="spacingAndGlyphs" textLength="0" x="420.3333" y="686.042"/><text fill="#000000" font-family="sans-serif" font-size="14" lengthAdjust="spacingAndGlyphs" textLength="194" x="442" y="686.042">GitLab native scheduled job.</text><text fill="#000000" font-family="sans-serif" font-size="14" lengthAdjust="spacingAndGlyphs" textLength="0" x="341" y="702.3389"/><text fill="#000000" filter="url(#b17cy5kbu1vpf32)" font-family="sans-serif" font-size="11" lengthAdjust="spacingAndGlyphs" textLength="0" x="385" y="703.0464"/><text fill="#000000" font-family="sans-serif" font-size="14" lengthAdjust="spacingAndGlyphs" textLength="0" x="405" y="702.3389"/><path d="M411.8333,693.974 L411.8333,696.3073 L406,696.3073 L406,697.474 L411.8333,697.474 L411.8333,699.8073 L415.3333,696.8545 L411.8333,693.974 " fill="#000000" style="stroke: ; stroke-width: 0.0; stroke-dasharray: ;"/><text fill="#000000" font-family="sans-serif" font-size="14" lengthAdjust="spacingAndGlyphs" textLength="0" x="420.3333" y="702.3389"/><text fill="#000000" font-family="sans-serif" font-size="14" lengthAdjust="spacingAndGlyphs" textLength="423" x="442" y="702.3389">The ci/launch_e2e.py script located in the kubeinit repository.</text><text fill="#000000" font-family="sans-serif" font-size="14" lengthAdjust="spacingAndGlyphs" textLength="0" x="341" y="718.6357"/><text fill="#000000" filter="url(#b17cy5kbu1vpf33)" font-family="sans-serif" font-size="11" lengthAdjust="spacingAndGlyphs" textLength="0" x="385" y="719.3433"/><text fill="#000000" font-family="sans-serif" font-size="14" lengthAdjust="spacingAndGlyphs" textLength="0" x="405" y="718.6357"/><path d="M411.8333,710.2708 L411.8333,712.6042 L406,712.6042 L406,713.7708 L411.8333,713.7708 L411.8333,716.1042 L415.3333,713.1513 L411.8333,710.2708 " fill="#000000" style="stroke: ; stroke-width: 0.0; stroke-dasharray: ;"/><text fill="#000000" font-family="sans-serif" font-size="14" lengthAdjust="spacingAndGlyphs" textLength="0" x="420.3333" y="718.6357"/><text fill="#000000" font-family="sans-serif" font-size="14" lengthAdjust="spacingAndGlyphs" textLength="367" x="442" y="718.6357">The ci/run.sh script located in the kubeinit repository.</text><text fill="#000000" font-family="sans-serif" font-size="14" lengthAdjust="spacingAndGlyphs" textLength="0" x="341" y="734.9326"/><text fill="#000000" filter="url(#b17cy5kbu1vpf34)" font-family="sans-serif" font-size="11" lengthAdjust="spacingAndGlyphs" textLength="0" x="385" y="735.6401"/><text fill="#000000" font-family="sans-serif" font-size="14" lengthAdjust="spacingAndGlyphs" textLength="0" x="405" y="734.9326"/><path d="M411.8333,726.5677 L411.8333,728.901 L406,728.901 L406,730.0677 L411.8333,730.0677 L411.8333,732.401 L415.3333,729.4482 L411.8333,726.5677 " fill="#000000" style="stroke: ; stroke-width: 0.0; stroke-dasharray: ;"/><text fill="#000000" font-family="sans-serif" font-size="14" lengthAdjust="spacingAndGlyphs" textLength="0" x="420.3333" y="734.9326"/><text fill="#000000" font-family="sans-serif" font-size="14" lengthAdjust="spacingAndGlyphs" textLength="307" x="442" y="734.9326">Execution of the KubeInit's Ansible collection</text><line style="stroke: #000000; stroke-width: 1.0;" x1="337" x2="865" y1="640.4531" y2="640.4531"/><line style="stroke: #000000; stroke-width: 1.0;" x1="337" x2="865" y1="656.75" y2="656.75"/><line style="stroke: #000000; stroke-width: 1.0;" x1="337" x2="865" y1="673.0469" y2="673.0469"/><line style="stroke: #000000; stroke-width: 1.0;" x1="337" x2="865" y1="689.3438" y2="689.3438"/><line style="stroke: #000000; stroke-width: 1.0;" x1="337" x2="865" y1="705.6406" y2="705.6406"/><line style="stroke: #000000; stroke-width: 1.0;" x1="337" x2="865" y1="721.9375" y2="721.9375"/><line style="stroke: #000000; stroke-width: 1.0;" x1="337" x2="865" y1="738.2344" y2="738.2344"/><line style="stroke: #000000; stroke-width: 1.0;" x1="337" x2="337" y1="640.4531" y2="738.2344"/><line style="stroke: #000000; stroke-width: 1.0;" x1="389" x2="389" y1="640.4531" y2="738.2344"/><line style="stroke: #000000; stroke-width: 1.0;" x1="438" x2="438" y1="640.4531" y2="738.2344"/><line style="stroke: #000000; stroke-width: 1.0;" x1="865" x2="865" y1="640.4531" y2="738.2344"/><!--
@startuml
actor RootUser
control GitLab_Schedule

RootUser [bold,#blue]-> GitHub_PR : Add CI label
GitLab_Schedule [bold,#LightSeaGreen]-> GitLab_Schedule: Runs every 15 minutes
GitLab_Schedule [bold,#green]-> GitHub_PR : Get labels from open PRs
GitHub_PR [bold,#green]-> GitLab_Schedule: Send labels for open PRs

Loop for each label
  GitLab_Schedule [bold,#green]-> GitHub_PR : Remove label
  GitLab_Schedule [bold,#green]-> GitHub_PR : Mark label as a "in progress job"
  GitLab_Schedule [bold,#green]-> GitLab_Runner : Trigger job
  GitLab_Runner [bold,#red]-> GitLab_Runner : Configure job parameters based in the label information
  GitLab_Runner [bold,#purple]-> Worker_machines : Deploy the cluster
  Worker_machines [bold,#purple]-> GitLab_Runner : Send the job result
  GitLab_Runner [bold,#green]-> GitHub_PR : Write the job result in the PR
  GitLab_Runner [bold,#green]-> GitHub_PR : Mark the job as finished (successfully or with failures)
End

GitHub_PR [bold,#blue]-> RootUser: Done

legend
    |= Color |= Type |= Description |
    | <size:11><back:#Blue>           </back></size>|    <&arrow-right> | User action triggered by an elevated KubeInit member. |
    | <size:11><back:#LightSeaGreen>           </back></size>|    <&arrow-right> | GitLab native scheduled job. |
    | <size:11><back:#Green>           </back></size>|    <&arrow-right> | The ci/launch_e2e.py script located in the kubeinit repository.|
    | <size:11><back:#Red>           </back></size>|    <&arrow-right> | The ci/run.sh script located in the kubeinit repository.|
    | <size:11><back:#Purple>           </back></size>|    <&arrow-right> | Execution of the KubeInit's Ansible collection|
endlegend
@enduml

PlantUML version 1.2018.13(Mon Nov 26 17:11:51 UTC 2018)
(GPL source distribution)
Java Runtime: OpenJDK Runtime Environment
JVM: OpenJDK 64-Bit Server VM
Java Version: 11.0.11+9
Operating System: Linux
OS Version: 5.8.0-1039-azure
Default Encoding: UTF-8
Language: en
Country: null
--></g></svg>