<?xml version="1.0" encoding="UTF-8" standalone="no"?>
<!DOCTYPE svg PUBLIC "-//W3C//DTD SVG 1.1//EN"
 "http://www.w3.org/Graphics/SVG/1.1/DTD/svg11.dtd">
<!-- Generated by graphviz version 2.43.0 (0)
 -->
<!-- Title: kubeinit/playbook.yml  Pages: 1 -->
<svg width="2537pt" height="1467pt"
 viewBox="0.00 0.00 2537.49 1467.23" xmlns="http://www.w3.org/2000/svg" xmlns:xlink="http://www.w3.org/1999/xlink">
<g id="graph0" class="graph" transform="scale(1 1) rotate(0) translate(4 1463.23)">
<title>kubeinit/playbook.yml </title>
<polygon fill="white" stroke="transparent" points="-4,4 -4,-1463.23 2533.49,-1463.23 2533.49,4 -4,4"/>
<!-- kubeinit/playbook.yml -->
<g id="root_node" class="node">
<title>kubeinit/playbook.yml</title>
<ellipse fill="none" stroke="black" stroke-dasharray="1,5" cx="113.09" cy="-748.23" rx="113.18" ry="18"/>
<text text-anchor="middle" x="113.09" y="-744.53" font-family="Times,serif" font-size="14.00">kubeinit/playbook.yml</text>
</g>
<!-- task&#45;create&#45;network -->
<g id="play_3a185a8a&#45;9570&#45;48b4&#45;8465&#45;305d7d394668" class="node">
<title>task&#45;create&#45;network</title>
<g id="a_play_3a185a8a&#45;9570&#45;48b4&#45;8465&#45;305d7d394668"><a xlink:title="localhost">
<polygon fill="none" stroke="#000000" points="495.75,-740.77 495.75,-755.68 430.31,-766.23 337.76,-766.23 272.32,-755.68 272.32,-740.77 337.76,-730.23 430.31,-730.23 495.75,-740.77"/>
<text text-anchor="middle" x="384.04" y="-744.53" font-family="Times,serif" font-size="14.00" fill="#000000">task&#45;create&#45;network</text>
</a>
</g>
</g>
<!-- kubeinit/playbook.yml&#45;&gt;task&#45;create&#45;network -->
<g id="edge_18dc7ca1&#45;3889&#45;41df&#45;a147&#45;2e0cda4fd5d3" class="edge">
<title>kubeinit/playbook.yml&#45;&gt;task&#45;create&#45;network</title>
<path fill="none" stroke="#000000" stroke-width="2" d="M226.2,-748.23C237.9,-748.23 249.84,-748.23 261.64,-748.23"/>
<polygon fill="#000000" stroke="#000000" stroke-width="2" points="261.97,-751.73 271.97,-748.23 261.97,-744.73 261.97,-751.73"/>
<text text-anchor="middle" x="249.18" y="-752.03" font-family="Times,serif" font-size="14.00" fill="#000000">3</text>
</g>
<!-- task_40b6c002&#45;3a46&#45;4c01&#45;aa49&#45;20b2bb06808b -->
<g id="task_40b6c002&#45;3a46&#45;4c01&#45;aa49&#45;20b2bb06808b" class="node">
<title>task_40b6c002&#45;3a46&#45;4c01&#45;aa49&#45;20b2bb06808b</title>
<g id="a_task_40b6c002&#45;3a46&#45;4c01&#45;aa49&#45;20b2bb06808b"><a xlink:title="[task] kubeinit.kubeinit.kubeinit_libvirt : Install OVN packages in CentOS/RHEL">
<polygon fill="none" stroke="black" points="2338.09,-1415.77 2338.09,-1430.68 2096.22,-1441.23 1754.16,-1441.23 1512.29,-1430.68 1512.29,-1415.77 1754.16,-1405.23 2096.22,-1405.23 2338.09,-1415.77"/>
<text text-anchor="middle" x="1925.19" y="-1419.53" font-family="Times,serif" font-size="14.00">[task] kubeinit.kubeinit.kubeinit_libvirt : Install OVN packages in CentOS/RHEL</text>
</a>
</g>
</g>
<!-- task&#45;create&#45;network&#45;&gt;task_40b6c002&#45;3a46&#45;4c01&#45;aa49&#45;20b2bb06808b -->
<g id="edge_51121273&#45;06ab&#45;4e7c&#45;b30d&#45;68e3da4e37e3" class="edge">
<title>task&#45;create&#45;network&#45;&gt;task_40b6c002&#45;3a46&#45;4c01&#45;aa49&#45;20b2bb06808b</title>
<path fill="none" stroke="#000000" stroke-width="2" d="M385.75,-766.26C389.94,-861.61 414.66,-1305.95 513.89,-1389.23 595.9,-1458.06 1223.91,-1448.72 1613.74,-1435.89"/>
<polygon fill="#000000" stroke="#000000" stroke-width="2" points="1613.88,-1439.39 1623.76,-1435.56 1613.65,-1432.39 1613.88,-1439.39"/>
<text text-anchor="middle" x="908.39" y="-1448.03" font-family="Times,serif" font-size="14.00" fill="#000000">1 &#160;[when: hostvars[kubeinit_ovn_central_host].distribution_family == &#39;CentOS&#39;]</text>
</g>
<!-- task_8edc2836&#45;0dd2&#45;4e17&#45;9326&#45;b35a59fe68f3 -->
<g id="task_8edc2836&#45;0dd2&#45;4e17&#45;9326&#45;b35a59fe68f3" class="node">
<title>task_8edc2836&#45;0dd2&#45;4e17&#45;9326&#45;b35a59fe68f3</title>
<g id="a_task_8edc2836&#45;0dd2&#45;4e17&#45;9326&#45;b35a59fe68f3"><a xlink:title="[task] kubeinit.kubeinit.kubeinit_libvirt : Install OVN packages in Fedora">
<polygon fill="none" stroke="black" points="2301.43,-1361.77 2301.43,-1376.68 2081.03,-1387.23 1769.35,-1387.23 1548.95,-1376.68 1548.95,-1361.77 1769.35,-1351.23 2081.03,-1351.23 2301.43,-1361.77"/>
<text text-anchor="middle" x="1925.19" y="-1365.53" font-family="Times,serif" font-size="14.00">[task] kubeinit.kubeinit.kubeinit_libvirt : Install OVN packages in Fedora</text>
</a>
</g>
</g>
<!-- task&#45;create&#45;network&#45;&gt;task_8edc2836&#45;0dd2&#45;4e17&#45;9326&#45;b35a59fe68f3 -->
<g id="edge_4bdb291a&#45;0185&#45;494f&#45;9d5a&#45;92badbe6d3b0" class="edge">
<title>task&#45;create&#45;network&#45;&gt;task_8edc2836&#45;0dd2&#45;4e17&#45;9326&#45;b35a59fe68f3</title>
<path fill="none" stroke="#000000" stroke-width="2" d="M386.12,-766.52C391.94,-857.51 422.61,-1259.99 513.89,-1335.23 553.12,-1367.56 1134.79,-1372.26 1538.72,-1371.56"/>
<polygon fill="#000000" stroke="#000000" stroke-width="2" points="1538.83,-1375.06 1548.82,-1371.54 1538.81,-1368.06 1538.83,-1375.06"/>
<text text-anchor="middle" x="908.39" y="-1374.03" font-family="Times,serif" font-size="14.00" fill="#000000">2 &#160;[when: hostvars[kubeinit_ovn_central_host].distribution_family == &#39;Fedora&#39;]</text>
</g>
<!-- task_3a41edcd&#45;3b89&#45;44ff&#45;a360&#45;80154a531b34 -->
<g id="task_3a41edcd&#45;3b89&#45;44ff&#45;a360&#45;80154a531b34" class="node">
<title>task_3a41edcd&#45;3b89&#45;44ff&#45;a360&#45;80154a531b34</title>
<g id="a_task_3a41edcd&#45;3b89&#45;44ff&#45;a360&#45;80154a531b34"><a xlink:title="[task] kubeinit.kubeinit.kubeinit_libvirt : Install OVN packages in Ubuntu/Debian">
<polygon fill="none" stroke="black" points="2342.94,-1307.77 2342.94,-1322.68 2098.23,-1333.23 1752.15,-1333.23 1507.44,-1322.68 1507.44,-1307.77 1752.15,-1297.23 2098.23,-1297.23 2342.94,-1307.77"/>
<text text-anchor="middle" x="1925.19" y="-1311.53" font-family="Times,serif" font-size="14.00">[task] kubeinit.kubeinit.kubeinit_libvirt : Install OVN packages in Ubuntu/Debian</text>
</a>
</g>
</g>
<!-- task&#45;create&#45;network&#45;&gt;task_3a41edcd&#45;3b89&#45;44ff&#45;a360&#45;80154a531b34 -->
<g id="edge_62833d86&#45;2cfe&#45;4f21&#45;98cf&#45;52b62351e29b" class="edge">
<title>task&#45;create&#45;network&#45;&gt;task_3a41edcd&#45;3b89&#45;44ff&#45;a360&#45;80154a531b34</title>
<path fill="none" stroke="#000000" stroke-width="2" d="M386.53,-766.25C394,-851.61 430.35,-1213.83 513.89,-1281.23 552.11,-1312.06 1096.14,-1317.61 1497.1,-1317.44"/>
<polygon fill="#000000" stroke="#000000" stroke-width="2" points="1497.14,-1320.94 1507.14,-1317.44 1497.14,-1313.94 1497.14,-1320.94"/>
<text text-anchor="middle" x="908.39" y="-1320.03" font-family="Times,serif" font-size="14.00" fill="#000000">3 &#160;[when: hostvars[kubeinit_ovn_central_host].distribution_family == &#39;Debian&#39;]</text>
</g>
<!-- task_5dc1477a&#45;204a&#45;4b6e&#45;9329&#45;762706f29ede -->
<g id="task_5dc1477a&#45;204a&#45;4b6e&#45;9329&#45;762706f29ede" class="node">
<title>task_5dc1477a&#45;204a&#45;4b6e&#45;9329&#45;762706f29ede</title>
<g id="a_task_5dc1477a&#45;204a&#45;4b6e&#45;9329&#45;762706f29ede"><a xlink:title="[task] kubeinit.kubeinit.kubeinit_libvirt : Collect all HVs which are not the ovn&#45;central host">
<polygon fill="none" stroke="black" points="2392.84,-1253.77 2392.84,-1268.68 2118.9,-1279.23 1731.49,-1279.23 1457.55,-1268.68 1457.55,-1253.77 1731.49,-1243.23 2118.9,-1243.23 2392.84,-1253.77"/>
<text text-anchor="middle" x="1925.19" y="-1257.53" font-family="Times,serif" font-size="14.00">[task] kubeinit.kubeinit.kubeinit_libvirt : Collect all HVs which are not the ovn&#45;central host</text>
</a>
</g>
</g>
<!-- task&#45;create&#45;network&#45;&gt;task_5dc1477a&#45;204a&#45;4b6e&#45;9329&#45;762706f29ede -->
<g id="edge_faa18123&#45;7ee7&#45;4d8e&#45;832e&#45;05e34694dae2" class="edge">
<title>task&#45;create&#45;network&#45;&gt;task_5dc1477a&#45;204a&#45;4b6e&#45;9329&#45;762706f29ede</title>
<path fill="none" stroke="#000000" stroke-width="2" d="M387.05,-766.28C396.37,-846.31 438.14,-1167.7 513.89,-1227.23 550.91,-1256.32 1052.48,-1262.73 1447.05,-1263.21"/>
<polygon fill="#000000" stroke="#000000" stroke-width="2" points="1447.22,-1266.71 1457.23,-1263.22 1447.23,-1259.71 1447.22,-1266.71"/>
<text text-anchor="middle" x="908.39" y="-1266.03" font-family="Times,serif" font-size="14.00" fill="#000000">4 &#160;[when: ovn_host not in kubeinit_ovn_central_host]</text>
</g>
<!-- task_ebcac576&#45;6374&#45;4f71&#45;b1f8&#45;f82b7a6c88c1 -->
<g id="task_ebcac576&#45;6374&#45;4f71&#45;b1f8&#45;f82b7a6c88c1" class="node">
<title>task_ebcac576&#45;6374&#45;4f71&#45;b1f8&#45;f82b7a6c88c1</title>
<g id="a_task_ebcac576&#45;6374&#45;4f71&#45;b1f8&#45;f82b7a6c88c1"><a xlink:title="[task] kubeinit.kubeinit.kubeinit_libvirt : Install OVN packages in CentOS/RHEL">
<polygon fill="none" stroke="black" points="2338.09,-1199.77 2338.09,-1214.68 2096.22,-1225.23 1754.16,-1225.23 1512.29,-1214.68 1512.29,-1199.77 1754.16,-1189.23 2096.22,-1189.23 2338.09,-1199.77"/>
<text text-anchor="middle" x="1925.19" y="-1203.53" font-family="Times,serif" font-size="14.00">[task] kubeinit.kubeinit.kubeinit_libvirt : Install OVN packages in CentOS/RHEL</text>
</a>
</g>
</g>
<!-- task&#45;create&#45;network&#45;&gt;task_ebcac576&#45;6374&#45;4f71&#45;b1f8&#45;f82b7a6c88c1 -->
<g id="edge_a625ac4c&#45;3929&#45;40ed&#45;82fd&#45;16ce9252829d" class="edge">
<title>task&#45;create&#45;network&#45;&gt;task_ebcac576&#45;6374&#45;4f71&#45;b1f8&#45;f82b7a6c88c1</title>
<path fill="none" stroke="#000000" stroke-width="2" d="M387.68,-766.28C398.96,-840.71 445.7,-1122.37 513.89,-1174.23 553.13,-1204.07 1101,-1209.43 1502.1,-1209.29"/>
<polygon fill="#000000" stroke="#000000" stroke-width="2" points="1502.15,-1212.79 1512.14,-1209.29 1502.14,-1205.79 1502.15,-1212.79"/>
<text text-anchor="middle" x="908.39" y="-1212.03" font-family="Times,serif" font-size="14.00" fill="#000000">5 &#160;[when: hostvars[ovn_host].distribution_family == &#39;CentOS&#39;]</text>
</g>
<!-- task_05a0b131&#45;3095&#45;4cbe&#45;9049&#45;98abda28560a -->
<g id="task_05a0b131&#45;3095&#45;4cbe&#45;9049&#45;98abda28560a" class="node">
<title>task_05a0b131&#45;3095&#45;4cbe&#45;9049&#45;98abda28560a</title>
<g id="a_task_05a0b131&#45;3095&#45;4cbe&#45;9049&#45;98abda28560a"><a xlink:title="[task] kubeinit.kubeinit.kubeinit_libvirt : Install OVN packages in Fedora">
<polygon fill="none" stroke="black" points="2301.43,-1145.77 2301.43,-1160.68 2081.03,-1171.23 1769.35,-1171.23 1548.95,-1160.68 1548.95,-1145.77 1769.35,-1135.23 2081.03,-1135.23 2301.43,-1145.77"/>
<text text-anchor="middle" x="1925.19" y="-1149.53" font-family="Times,serif" font-size="14.00">[task] kubeinit.kubeinit.kubeinit_libvirt : Install OVN packages in Fedora</text>
</a>
</g>
</g>
<!-- task&#45;create&#45;network&#45;&gt;task_05a0b131&#45;3095&#45;4cbe&#45;9049&#45;98abda28560a -->
<g id="edge_098f2c6d&#45;ab1e&#45;45e4&#45;aabd&#45;dfdd1ef23395" class="edge">
<title>task&#45;create&#45;network&#45;&gt;task_05a0b131&#45;3095&#45;4cbe&#45;9049&#45;98abda28560a</title>
<path fill="none" stroke="#000000" stroke-width="2" d="M384.69,-766.41C384.62,-828.86 393.79,-1035.56 513.89,-1123.23 554.92,-1153.18 1135.21,-1156.91 1538.49,-1155.82"/>
<polygon fill="#000000" stroke="#000000" stroke-width="2" points="1538.59,-1159.32 1548.58,-1155.79 1538.57,-1152.32 1538.59,-1159.32"/>
<text text-anchor="middle" x="908.39" y="-1159.03" font-family="Times,serif" font-size="14.00" fill="#000000">6 &#160;[when: hostvars[ovn_host].distribution_family == &#39;Fedora&#39;]</text>
</g>
<!-- task_f52c7f0f&#45;3e64&#45;4771&#45;8162&#45;b6bfa6e0c8a8 -->
<g id="task_f52c7f0f&#45;3e64&#45;4771&#45;8162&#45;b6bfa6e0c8a8" class="node">
<title>task_f52c7f0f&#45;3e64&#45;4771&#45;8162&#45;b6bfa6e0c8a8</title>
<g id="a_task_f52c7f0f&#45;3e64&#45;4771&#45;8162&#45;b6bfa6e0c8a8"><a xlink:title="[task] kubeinit.kubeinit.kubeinit_libvirt : Install OVN packages in Ubuntu/Debian">
<polygon fill="none" stroke="black" points="2342.94,-1091.77 2342.94,-1106.68 2098.23,-1117.23 1752.15,-1117.23 1507.44,-1106.68 1507.44,-1091.77 1752.15,-1081.23 2098.23,-1081.23 2342.94,-1091.77"/>
<text text-anchor="middle" x="1925.19" y="-1095.53" font-family="Times,serif" font-size="14.00">[task] kubeinit.kubeinit.kubeinit_libvirt : Install OVN packages in Ubuntu/Debian</text>
</a>
</g>
</g>
<!-- task&#45;create&#45;network&#45;&gt;task_f52c7f0f&#45;3e64&#45;4771&#45;8162&#45;b6bfa6e0c8a8 -->
<g id="edge_dadd8c19&#45;02ea&#45;4484&#45;a436&#45;54eed0b0e0f4" class="edge">
<title>task&#45;create&#45;network&#45;&gt;task_f52c7f0f&#45;3e64&#45;4771&#45;8162&#45;b6bfa6e0c8a8</title>
<path fill="none" stroke="#000000" stroke-width="2" d="M385.61,-766.25C388.54,-823.61 406.29,-1002.57 513.89,-1077.23 554.2,-1105.2 1096.89,-1106.77 1497.06,-1104.03"/>
<polygon fill="#000000" stroke="#000000" stroke-width="2" points="1497.11,-1107.53 1507.08,-1103.96 1497.06,-1100.53 1497.11,-1107.53"/>
<text text-anchor="middle" x="908.39" y="-1108.03" font-family="Times,serif" font-size="14.00" fill="#000000">7 &#160;[when: hostvars[ovn_host].distribution_family == &#39;Debian&#39;]</text>
</g>
<!-- task_605c22b7&#45;cd4a&#45;42f9&#45;9837&#45;1f9d93420d27 -->
<g id="task_605c22b7&#45;cd4a&#45;42f9&#45;9837&#45;1f9d93420d27" class="node">
<title>task_605c22b7&#45;cd4a&#45;42f9&#45;9837&#45;1f9d93420d27</title>
<g id="a_task_605c22b7&#45;cd4a&#45;42f9&#45;9837&#45;1f9d93420d27"><a xlink:title="[task] kubeinit.kubeinit.kubeinit_libvirt : Refresh firewalld services list to pick up ovn services">
<polygon fill="none" stroke="black" points="2410.51,-1037.77 2410.51,-1052.68 2126.22,-1063.23 1724.16,-1063.23 1439.87,-1052.68 1439.87,-1037.77 1724.16,-1027.23 2126.22,-1027.23 2410.51,-1037.77"/>
<text text-anchor="middle" x="1925.19" y="-1041.53" font-family="Times,serif" font-size="14.00">[task] kubeinit.kubeinit.kubeinit_libvirt : Refresh firewalld services list to pick up ovn services</text>
</a>
</g>
</g>
<!-- task&#45;create&#45;network&#45;&gt;task_605c22b7&#45;cd4a&#45;42f9&#45;9837&#45;1f9d93420d27 -->
<g id="edge_176b158c&#45;8187&#45;4483&#45;823b&#45;6f4894284da5" class="edge">
<title>task&#45;create&#45;network&#45;&gt;task_605c22b7&#45;cd4a&#45;42f9&#45;9837&#45;1f9d93420d27</title>
<path fill="none" stroke="#000000" stroke-width="2" d="M387.43,-766.26C395.1,-816.07 424.12,-955.63 513.89,-1013.23 598.08,-1067.24 1149.12,-1065.35 1536.9,-1056.91"/>
<polygon fill="#000000" stroke="#000000" stroke-width="2" points="1537.26,-1060.4 1547.18,-1056.68 1537.11,-1053.4 1537.26,-1060.4"/>
<text text-anchor="middle" x="908.39" y="-1065.03" font-family="Times,serif" font-size="14.00" fill="#000000">8 &#160;[when: hostvars[ovn_host].firewalld_is_active]</text>
</g>
<!-- task_a91a396d&#45;8f28&#45;4650&#45;86fe&#45;c88d60554ee5 -->
<g id="task_a91a396d&#45;8f28&#45;4650&#45;86fe&#45;c88d60554ee5" class="node">
<title>task_a91a396d&#45;8f28&#45;4650&#45;86fe&#45;c88d60554ee5</title>
<g id="a_task_a91a396d&#45;8f28&#45;4650&#45;86fe&#45;c88d60554ee5"><a xlink:title="[task] kubeinit.kubeinit.kubeinit_libvirt : Enable OVN central in firewalld">
<polygon fill="none" stroke="black" points="2302.33,-983.77 2302.33,-998.68 2081.41,-1009.23 1768.97,-1009.23 1548.05,-998.68 1548.05,-983.77 1768.97,-973.23 2081.41,-973.23 2302.33,-983.77"/>
<text text-anchor="middle" x="1925.19" y="-987.53" font-family="Times,serif" font-size="14.00">[task] kubeinit.kubeinit.kubeinit_libvirt : Enable OVN central in firewalld</text>
</a>
</g>
</g>
<!-- task&#45;create&#45;network&#45;&gt;task_a91a396d&#45;8f28&#45;4650&#45;86fe&#45;c88d60554ee5 -->
<g id="edge_ecbf885a&#45;9a59&#45;46d0&#45;9163&#45;1a4125512a4c" class="edge">
<title>task&#45;create&#45;network&#45;&gt;task_a91a396d&#45;8f28&#45;4650&#45;86fe&#45;c88d60554ee5</title>
<path fill="none" stroke="#000000" stroke-width="2" d="M389.26,-766.46C400.56,-810.58 436.11,-922.8 513.89,-968.23 557.68,-993.81 1135.47,-995.91 1537.74,-994.21"/>
<polygon fill="#000000" stroke="#000000" stroke-width="2" points="1537.82,-997.71 1547.8,-994.17 1537.79,-990.71 1537.82,-997.71"/>
<text text-anchor="middle" x="908.39" y="-998.03" font-family="Times,serif" font-size="14.00" fill="#000000">9 &#160;[when: hostvars[kubeinit_ovn_central_host].firewalld_is_active]</text>
</g>
<!-- task_6ccdf134&#45;5ba8&#45;40f8&#45;b15f&#45;23bff47aac27 -->
<g id="task_6ccdf134&#45;5ba8&#45;40f8&#45;b15f&#45;23bff47aac27" class="node">
<title>task_6ccdf134&#45;5ba8&#45;40f8&#45;b15f&#45;23bff47aac27</title>
<g id="a_task_6ccdf134&#45;5ba8&#45;40f8&#45;b15f&#45;23bff47aac27"><a xlink:title="[task] kubeinit.kubeinit.kubeinit_libvirt : Enable OVN NAT in firewalld">
<polygon fill="none" stroke="black" points="2288.19,-929.77 2288.19,-944.68 2075.55,-955.23 1774.83,-955.23 1562.19,-944.68 1562.19,-929.77 1774.83,-919.23 2075.55,-919.23 2288.19,-929.77"/>
<text text-anchor="middle" x="1925.19" y="-933.53" font-family="Times,serif" font-size="14.00">[task] kubeinit.kubeinit.kubeinit_libvirt : Enable OVN NAT in firewalld</text>
</a>
</g>
</g>
<!-- task&#45;create&#45;network&#45;&gt;task_6ccdf134&#45;5ba8&#45;40f8&#45;b15f&#45;23bff47aac27 -->
<g id="edge_a124e302&#45;94df&#45;45e8&#45;be37&#45;0c8ed62ba802" class="edge">
<title>task&#45;create&#45;network&#45;&gt;task_6ccdf134&#45;5ba8&#45;40f8&#45;b15f&#45;23bff47aac27</title>
<path fill="none" stroke="#000000" stroke-width="2" d="M392.96,-766.31C409.5,-801.5 451.43,-878.45 513.89,-909.23 605.95,-954.59 1182.2,-952.55 1569.03,-945.74"/>
<polygon fill="#000000" stroke="#000000" stroke-width="2" points="1569.34,-949.23 1579.27,-945.56 1569.21,-942.23 1569.34,-949.23"/>
<text text-anchor="middle" x="908.39" y="-953.03" font-family="Times,serif" font-size="14.00" fill="#000000">10 &#160;[when: hostvars[kubeinit_ovn_central_host].firewalld_is_active]</text>
</g>
<!-- task_f5d5cabe&#45;0fff&#45;4dcf&#45;928e&#45;d584f0922f97 -->
<g id="task_f5d5cabe&#45;0fff&#45;4dcf&#45;928e&#45;d584f0922f97" class="node">
<title>task_f5d5cabe&#45;0fff&#45;4dcf&#45;928e&#45;d584f0922f97</title>
<g id="a_task_f5d5cabe&#45;0fff&#45;4dcf&#45;928e&#45;d584f0922f97"><a xlink:title="[task] kubeinit.kubeinit.kubeinit_libvirt : Enable OVN host in firewalld">
<polygon fill="none" stroke="black" points="2289.1,-875.77 2289.1,-890.68 2075.93,-901.23 1774.45,-901.23 1561.28,-890.68 1561.28,-875.77 1774.45,-865.23 2075.93,-865.23 2289.1,-875.77"/>
<text text-anchor="middle" x="1925.19" y="-879.53" font-family="Times,serif" font-size="14.00">[task] kubeinit.kubeinit.kubeinit_libvirt : Enable OVN host in firewalld</text>
</a>
</g>
</g>
<!-- task&#45;create&#45;network&#45;&gt;task_f5d5cabe&#45;0fff&#45;4dcf&#45;928e&#45;d584f0922f97 -->
<g id="edge_7a2cd233&#45;bd5f&#45;4099&#45;9f47&#45;98daf9c1967c" class="edge">
<title>task&#45;create&#45;network&#45;&gt;task_f5d5cabe&#45;0fff&#45;4dcf&#45;928e&#45;d584f0922f97</title>
<path fill="none" stroke="#000000" stroke-width="2" d="M399.35,-766.26C420.97,-791.89 464.69,-837.8 513.89,-856.23 608.4,-891.63 1166,-892.63 1551.09,-888.86"/>
<polygon fill="#000000" stroke="#000000" stroke-width="2" points="1551.33,-892.36 1561.29,-888.76 1551.26,-885.36 1551.33,-892.36"/>
<text text-anchor="middle" x="908.39" y="-894.03" font-family="Times,serif" font-size="14.00" fill="#000000">11 &#160;[when: hostvars[ovn_host].firewalld_is_active]</text>
</g>
<!-- task_1151ed04&#45;148b&#45;4e9b&#45;acb5&#45;2be9a16d9bdc -->
<g id="task_1151ed04&#45;148b&#45;4e9b&#45;acb5&#45;2be9a16d9bdc" class="node">
<title>task_1151ed04&#45;148b&#45;4e9b&#45;acb5&#45;2be9a16d9bdc</title>
<g id="a_task_1151ed04&#45;148b&#45;4e9b&#45;acb5&#45;2be9a16d9bdc"><a xlink:title="[task] kubeinit.kubeinit.kubeinit_libvirt : Refresh firewalld services list">
<polygon fill="none" stroke="black" points="2292.64,-821.77 2292.64,-836.68 2077.39,-847.23 1772.99,-847.23 1557.74,-836.68 1557.74,-821.77 1772.99,-811.23 2077.39,-811.23 2292.64,-821.77"/>
<text text-anchor="middle" x="1925.19" y="-825.53" font-family="Times,serif" font-size="14.00">[task] kubeinit.kubeinit.kubeinit_libvirt : Refresh firewalld services list</text>
</a>
</g>
</g>
<!-- task&#45;create&#45;network&#45;&gt;task_1151ed04&#45;148b&#45;4e9b&#45;acb5&#45;2be9a16d9bdc -->
<g id="edge_e4165193&#45;78fe&#45;4041&#45;aef9&#45;5be9a1bec8c8" class="edge">
<title>task&#45;create&#45;network&#45;&gt;task_1151ed04&#45;148b&#45;4e9b&#45;acb5&#45;2be9a16d9bdc</title>
<path fill="none" stroke="#000000" stroke-width="2" d="M438.08,-765.1C461.13,-771.68 488.6,-778.52 513.89,-782.23 880.54,-836.01 1306.31,-842.64 1593.3,-839.07"/>
<polygon fill="#000000" stroke="#000000" stroke-width="2" points="1593.5,-842.57 1603.45,-838.94 1593.41,-835.57 1593.5,-842.57"/>
<text text-anchor="middle" x="908.39" y="-841.03" font-family="Times,serif" font-size="14.00" fill="#000000">12 &#160;[when: hostvars[ovn_host].firewalld_is_active]</text>
</g>
<!-- task_0ddfff9f&#45;1f13&#45;4530&#45;a3d8&#45;341aeba35baa -->
<g id="task_0ddfff9f&#45;1f13&#45;4530&#45;a3d8&#45;341aeba35baa" class="node">
<title>task_0ddfff9f&#45;1f13&#45;4530&#45;a3d8&#45;341aeba35baa</title>
<g id="a_task_0ddfff9f&#45;1f13&#45;4530&#45;a3d8&#45;341aeba35baa"><a xlink:title="[task] kubeinit.kubeinit.kubeinit_libvirt : Enable and start OVN services in the ovn&#45;central hypervisor (CentOS based)">
<polygon fill="none" stroke="black" points="2527.98,-767.77 2527.98,-782.68 2174.87,-793.23 1675.51,-793.23 1322.4,-782.68 1322.4,-767.77 1675.51,-757.23 2174.87,-757.23 2527.98,-767.77"/>
<text text-anchor="middle" x="1925.19" y="-771.53" font-family="Times,serif" font-size="14.00">[task] kubeinit.kubeinit.kubeinit_libvirt : Enable and start OVN services in the ovn&#45;central hypervisor (CentOS based)</text>
</a>
</g>
</g>
<!-- task&#45;create&#45;network&#45;&gt;task_0ddfff9f&#45;1f13&#45;4530&#45;a3d8&#45;341aeba35baa -->
<g id="edge_2747eeaf&#45;323a&#45;4c65&#45;853c&#45;e8d8f37dbef0" class="edge">
<title>task&#45;create&#45;network&#45;&gt;task_0ddfff9f&#45;1f13&#45;4530&#45;a3d8&#45;341aeba35baa</title>
<path fill="none" stroke="#000000" stroke-width="2" d="M496.04,-750.18C679.2,-753.39 1056.42,-760.01 1377.19,-765.63"/>
<polygon fill="#000000" stroke="#000000" stroke-width="2" points="1377.56,-769.14 1387.62,-765.82 1377.68,-762.14 1377.56,-769.14"/>
<text text-anchor="middle" x="908.39" y="-767.03" font-family="Times,serif" font-size="14.00" fill="#000000">13 &#160;[when: hostvars[kubeinit_ovn_central_host].distribution_family != &#39;Debian&#39;]</text>
</g>
<!-- task_c71fb781&#45;2d31&#45;42ad&#45;a7b9&#45;ebf81476a71b -->
<g id="task_c71fb781&#45;2d31&#45;42ad&#45;a7b9&#45;ebf81476a71b" class="node">
<title>task_c71fb781&#45;2d31&#45;42ad&#45;a7b9&#45;ebf81476a71b</title>
<g id="a_task_c71fb781&#45;2d31&#45;42ad&#45;a7b9&#45;ebf81476a71b"><a xlink:title="[task] kubeinit.kubeinit.kubeinit_libvirt : Enable and start OVN services in the rest of the hypervisors (CentOS based)">
<polygon fill="none" stroke="black" points="2529.29,-713.77 2529.29,-728.68 2175.42,-739.23 1674.96,-739.23 1321.09,-728.68 1321.09,-713.77 1674.96,-703.23 2175.42,-703.23 2529.29,-713.77"/>
<text text-anchor="middle" x="1925.19" y="-717.53" font-family="Times,serif" font-size="14.00">[task] kubeinit.kubeinit.kubeinit_libvirt : Enable and start OVN services in the rest of the hypervisors (CentOS based)</text>
</a>
</g>
</g>
<!-- task&#45;create&#45;network&#45;&gt;task_c71fb781&#45;2d31&#45;42ad&#45;a7b9&#45;ebf81476a71b -->
<g id="edge_bd0eb6d9&#45;2359&#45;4d0b&#45;b4e1&#45;e9d02983686c" class="edge">
<title>task&#45;create&#45;network&#45;&gt;task_c71fb781&#45;2d31&#45;42ad&#45;a7b9&#45;ebf81476a71b</title>
<path fill="none" stroke="#000000" stroke-width="2" d="M466.33,-735.95C482.08,-734.01 498.47,-732.3 513.89,-731.23 821.07,-709.96 1166.79,-707.17 1439.05,-709.84"/>
<polygon fill="#000000" stroke="#000000" stroke-width="2" points="1439.07,-713.34 1449.11,-709.94 1439.14,-706.34 1439.07,-713.34"/>
<text text-anchor="middle" x="908.39" y="-735.03" font-family="Times,serif" font-size="14.00" fill="#000000">14 &#160;[when: hostvars[ovn_host].distribution_family != &#39;Debian&#39;]</text>
</g>
<!-- task_54d20239&#45;3a0e&#45;4872&#45;8c59&#45;912d89186a8d -->
<g id="task_54d20239&#45;3a0e&#45;4872&#45;8c59&#45;912d89186a8d" class="node">
<title>task_54d20239&#45;3a0e&#45;4872&#45;8c59&#45;912d89186a8d</title>
<g id="a_task_54d20239&#45;3a0e&#45;4872&#45;8c59&#45;912d89186a8d"><a xlink:title="[task] kubeinit.kubeinit.kubeinit_libvirt : Enable and start OVN services in the ovn&#45;central hypervisor (Ubuntu based)">
<polygon fill="none" stroke="black" points="2527.98,-659.77 2527.98,-674.68 2174.87,-685.23 1675.51,-685.23 1322.4,-674.68 1322.4,-659.77 1675.51,-649.23 2174.87,-649.23 2527.98,-659.77"/>
<text text-anchor="middle" x="1925.19" y="-663.53" font-family="Times,serif" font-size="14.00">[task] kubeinit.kubeinit.kubeinit_libvirt : Enable and start OVN services in the ovn&#45;central hypervisor (Ubuntu based)</text>
</a>
</g>
</g>
<!-- task&#45;create&#45;network&#45;&gt;task_54d20239&#45;3a0e&#45;4872&#45;8c59&#45;912d89186a8d -->
<g id="edge_b467b301&#45;04d1&#45;49e0&#45;8322&#45;2310d94d5acd" class="edge">
<title>task&#45;create&#45;network&#45;&gt;task_54d20239&#45;3a0e&#45;4872&#45;8c59&#45;912d89186a8d</title>
<path fill="none" stroke="#000000" stroke-width="2" d="M415.01,-730.16C440.35,-715.98 478.13,-697.32 513.89,-689.23 691.79,-648.98 1140.2,-648.13 1484.05,-654.44"/>
<polygon fill="#000000" stroke="#000000" stroke-width="2" points="1484.13,-657.95 1494.19,-654.63 1484.26,-650.95 1484.13,-657.95"/>
<text text-anchor="middle" x="908.39" y="-693.03" font-family="Times,serif" font-size="14.00" fill="#000000">15 &#160;[when: hostvars[kubeinit_ovn_central_host].distribution_family == &#39;Debian&#39;]</text>
</g>
<!-- task_b48a749c&#45;e62e&#45;46b3&#45;ba96&#45;9cac309310e5 -->
<g id="task_b48a749c&#45;e62e&#45;46b3&#45;ba96&#45;9cac309310e5" class="node">
<title>task_b48a749c&#45;e62e&#45;46b3&#45;ba96&#45;9cac309310e5</title>
<g id="a_task_b48a749c&#45;e62e&#45;46b3&#45;ba96&#45;9cac309310e5"><a xlink:title="[task] kubeinit.kubeinit.kubeinit_libvirt : Enable and start OVN services in the rest of the hypervisors (Ubuntu based)">
<polygon fill="none" stroke="black" points="2528.88,-605.77 2528.88,-620.68 2175.25,-631.23 1675.13,-631.23 1321.5,-620.68 1321.5,-605.77 1675.13,-595.23 2175.25,-595.23 2528.88,-605.77"/>
<text text-anchor="middle" x="1925.19" y="-609.53" font-family="Times,serif" font-size="14.00">[task] kubeinit.kubeinit.kubeinit_libvirt : Enable and start OVN services in the rest of the hypervisors (Ubuntu based)</text>
</a>
</g>
</g>
<!-- task&#45;create&#45;network&#45;&gt;task_b48a749c&#45;e62e&#45;46b3&#45;ba96&#45;9cac309310e5 -->
<g id="edge_5bb993a0&#45;cfcd&#45;4565&#45;982b&#45;b100ee4551b8" class="edge">
<title>task&#45;create&#45;network&#45;&gt;task_b48a749c&#45;e62e&#45;46b3&#45;ba96&#45;9cac309310e5</title>
<path fill="none" stroke="#000000" stroke-width="2" d="M397.98,-730.21C418.79,-702.96 462.6,-652.31 513.89,-632.23 596.96,-599.7 1042.49,-598.05 1410.88,-602.66"/>
<polygon fill="#000000" stroke="#000000" stroke-width="2" points="1410.89,-606.16 1420.94,-602.79 1410.98,-599.16 1410.89,-606.16"/>
<text text-anchor="middle" x="908.39" y="-636.03" font-family="Times,serif" font-size="14.00" fill="#000000">16 &#160;[when: hostvars[ovn_host].distribution_family == &#39;Debian&#39;]</text>
</g>
<!-- task_3476d8b4&#45;1948&#45;4fee&#45;9b07&#45;f3664c189ec5 -->
<g id="task_3476d8b4&#45;1948&#45;4fee&#45;9b07&#45;f3664c189ec5" class="node">
<title>task_3476d8b4&#45;1948&#45;4fee&#45;9b07&#45;f3664c189ec5</title>
<g id="a_task_3476d8b4&#45;1948&#45;4fee&#45;9b07&#45;f3664c189ec5"><a xlink:title="[task] kubeinit.kubeinit.kubeinit_libvirt : Configure OVS on the Hypervisors">
<polygon fill="none" stroke="black" points="2316.47,-551.77 2316.47,-566.68 2087.27,-577.23 1763.12,-577.23 1533.91,-566.68 1533.91,-551.77 1763.12,-541.23 2087.27,-541.23 2316.47,-551.77"/>
<text text-anchor="middle" x="1925.19" y="-555.53" font-family="Times,serif" font-size="14.00">[task] kubeinit.kubeinit.kubeinit_libvirt : Configure OVS on the Hypervisors</text>
</a>
</g>
</g>
<!-- task&#45;create&#45;network&#45;&gt;task_3476d8b4&#45;1948&#45;4fee&#45;9b07&#45;f3664c189ec5 -->
<g id="edge_ff46e83d&#45;2a77&#45;40c0&#45;9d4a&#45;edc4e86e8fdc" class="edge">
<title>task&#45;create&#45;network&#45;&gt;task_3476d8b4&#45;1948&#45;4fee&#45;9b07&#45;f3664c189ec5</title>
<path fill="none" stroke="#000000" stroke-width="2" d="M392.5,-730.03C408.49,-693.78 449.89,-613.31 513.89,-581.23 606.32,-534.9 1190.53,-540.12 1577.46,-549.04"/>
<polygon fill="#000000" stroke="#000000" stroke-width="2" points="1577.63,-552.55 1587.71,-549.28 1577.79,-545.55 1577.63,-552.55"/>
<text text-anchor="middle" x="908.39" y="-585.03" font-family="Times,serif" font-size="14.00" fill="#000000">17</text>
</g>
<!-- task_b49e02f0&#45;a8e8&#45;4f0d&#45;b662&#45;112539946fc2 -->
<g id="task_b49e02f0&#45;a8e8&#45;4f0d&#45;b662&#45;112539946fc2" class="node">
<title>task_b49e02f0&#45;a8e8&#45;4f0d&#45;b662&#45;112539946fc2</title>
<g id="a_task_b49e02f0&#45;a8e8&#45;4f0d&#45;b662&#45;112539946fc2"><a xlink:title="[task] kubeinit.kubeinit.kubeinit_libvirt : Configure OVN in the ovn&#45;central hypervisor">
<polygon fill="none" stroke="black" points="2367.68,-497.77 2367.68,-512.68 2108.48,-523.23 1741.9,-523.23 1482.7,-512.68 1482.7,-497.77 1741.9,-487.23 2108.48,-487.23 2367.68,-497.77"/>
<text text-anchor="middle" x="1925.19" y="-501.53" font-family="Times,serif" font-size="14.00">[task] kubeinit.kubeinit.kubeinit_libvirt : Configure OVN in the ovn&#45;central hypervisor</text>
</a>
</g>
</g>
<!-- task&#45;create&#45;network&#45;&gt;task_b49e02f0&#45;a8e8&#45;4f0d&#45;b662&#45;112539946fc2 -->
<g id="edge_761f8483&#45;fee2&#45;4e77&#45;b8f3&#45;79f1140db75c" class="edge">
<title>task&#45;create&#45;network&#45;&gt;task_b49e02f0&#45;a8e8&#45;4f0d&#45;b662&#45;112539946fc2</title>
<path fill="none" stroke="#000000" stroke-width="2" d="M389.03,-729.91C399.91,-685.02 434.74,-569.79 513.89,-523.23 604.44,-469.97 1207.29,-480.02 1594.94,-492.44"/>
<polygon fill="#000000" stroke="#000000" stroke-width="2" points="1595.09,-495.95 1605.2,-492.77 1595.32,-488.95 1595.09,-495.95"/>
<text text-anchor="middle" x="908.39" y="-527.03" font-family="Times,serif" font-size="14.00" fill="#000000">18</text>
</g>
<!-- task_c31e33bf&#45;7459&#45;4eaa&#45;aea8&#45;d0f8e34dd868 -->
<g id="task_c31e33bf&#45;7459&#45;4eaa&#45;aea8&#45;d0f8e34dd868" class="node">
<title>task_c31e33bf&#45;7459&#45;4eaa&#45;aea8&#45;d0f8e34dd868</title>
<g id="a_task_c31e33bf&#45;7459&#45;4eaa&#45;aea8&#45;d0f8e34dd868"><a xlink:title="[task] kubeinit.kubeinit.kubeinit_libvirt : Remove and create the cluster switch if exists">
<polygon fill="none" stroke="black" points="2376.07,-443.77 2376.07,-458.68 2111.95,-469.23 1738.43,-469.23 1474.31,-458.68 1474.31,-443.77 1738.43,-433.23 2111.95,-433.23 2376.07,-443.77"/>
<text text-anchor="middle" x="1925.19" y="-447.53" font-family="Times,serif" font-size="14.00">[task] kubeinit.kubeinit.kubeinit_libvirt : Remove and create the cluster switch if exists</text>
</a>
</g>
</g>
<!-- task&#45;create&#45;network&#45;&gt;task_c31e33bf&#45;7459&#45;4eaa&#45;aea8&#45;d0f8e34dd868 -->
<g id="edge_252f1c0f&#45;e463&#45;4ddc&#45;a165&#45;2498dd53f804" class="edge">
<title>task&#45;create&#45;network&#45;&gt;task_c31e33bf&#45;7459&#45;4eaa&#45;aea8&#45;d0f8e34dd868</title>
<path fill="none" stroke="#000000" stroke-width="2" d="M386.77,-729.96C392.84,-677.38 418.34,-525.47 513.89,-463.23 604.32,-404.32 1239.14,-420.86 1625.59,-436.87"/>
<polygon fill="#000000" stroke="#000000" stroke-width="2" points="1625.68,-440.38 1635.81,-437.29 1625.97,-433.38 1625.68,-440.38"/>
<text text-anchor="middle" x="908.39" y="-467.03" font-family="Times,serif" font-size="14.00" fill="#000000">19 &#160;[when: kubeinit_libvirt_destroy_nets|bool and not kubeinit_libvirt_multicluster_keep_predefined_networks]</text>
</g>
<!-- task_9a07ab81&#45;807b&#45;434e&#45;bc74&#45;9f8df5df8831 -->
<g id="task_9a07ab81&#45;807b&#45;434e&#45;bc74&#45;9f8df5df8831" class="node">
<title>task_9a07ab81&#45;807b&#45;434e&#45;bc74&#45;9f8df5df8831</title>
<g id="a_task_9a07ab81&#45;807b&#45;434e&#45;bc74&#45;9f8df5df8831"><a xlink:title="[task] kubeinit.kubeinit.kubeinit_libvirt : Create OVS/OVN bindings for the VMs ports">
<polygon fill="none" stroke="black" points="2366.37,-389.77 2366.37,-404.68 2107.93,-415.23 1742.45,-415.23 1484.01,-404.68 1484.01,-389.77 1742.45,-379.23 2107.93,-379.23 2366.37,-389.77"/>
<text text-anchor="middle" x="1925.19" y="-393.53" font-family="Times,serif" font-size="14.00">[task] kubeinit.kubeinit.kubeinit_libvirt : Create OVS/OVN bindings for the VMs ports</text>
</a>
</g>
</g>
<!-- task&#45;create&#45;network&#45;&gt;task_9a07ab81&#45;807b&#45;434e&#45;bc74&#45;9f8df5df8831 -->
<g id="edge_d034e89a&#45;d3bf&#45;4861&#45;8f03&#45;73dfc9ba650a" class="edge">
<title>task&#45;create&#45;network&#45;&gt;task_9a07ab81&#45;807b&#45;434e&#45;bc74&#45;9f8df5df8831</title>
<path fill="none" stroke="#000000" stroke-width="2" d="M385.2,-730.1C386.86,-670.64 401.11,-480.87 513.89,-402.23 555.02,-373.55 1121,-379.53 1523.28,-387.55"/>
<polygon fill="#000000" stroke="#000000" stroke-width="2" points="1523.28,-391.05 1533.35,-387.75 1523.42,-384.05 1523.28,-391.05"/>
<text text-anchor="middle" x="908.39" y="-406.03" font-family="Times,serif" font-size="14.00" fill="#000000">20</text>
</g>
<!-- task_fb16bc52&#45;5f34&#45;48cb&#45;a93d&#45;e99b5a047baf -->
<g id="task_fb16bc52&#45;5f34&#45;48cb&#45;a93d&#45;e99b5a047baf" class="node">
<title>task_fb16bc52&#45;5f34&#45;48cb&#45;a93d&#45;e99b5a047baf</title>
<g id="a_task_fb16bc52&#45;5f34&#45;48cb&#45;a93d&#45;e99b5a047baf"><a xlink:title="[task] kubeinit.kubeinit.kubeinit_libvirt : Configuring a router connected to the guests switch">
<polygon fill="none" stroke="black" points="2405.66,-335.77 2405.66,-350.68 2124.21,-361.23 1726.17,-361.23 1444.72,-350.68 1444.72,-335.77 1726.17,-325.23 2124.21,-325.23 2405.66,-335.77"/>
<text text-anchor="middle" x="1925.19" y="-339.53" font-family="Times,serif" font-size="14.00">[task] kubeinit.kubeinit.kubeinit_libvirt : Configuring a router connected to the guests switch</text>
</a>
</g>
</g>
<!-- task&#45;create&#45;network&#45;&gt;task_fb16bc52&#45;5f34&#45;48cb&#45;a93d&#45;e99b5a047baf -->
<g id="edge_6635e553&#45;2ba5&#45;4c6d&#45;8e74&#45;0552fbb60d17" class="edge">
<title>task&#45;create&#45;network&#45;&gt;task_fb16bc52&#45;5f34&#45;48cb&#45;a93d&#45;e99b5a047baf</title>
<path fill="none" stroke="#000000" stroke-width="2" d="M384.45,-729.89C383.53,-665.93 390.11,-451.68 513.89,-361.23 600.42,-298 1228.18,-312.83 1616.43,-328.53"/>
<polygon fill="#000000" stroke="#000000" stroke-width="2" points="1616.57,-332.04 1626.7,-328.95 1616.85,-325.04 1616.57,-332.04"/>
<text text-anchor="middle" x="908.39" y="-365.03" font-family="Times,serif" font-size="14.00" fill="#000000">21</text>
</g>
<!-- task_87624b86&#45;3632&#45;4a14&#45;a8fe&#45;c4fcfb9eac7c -->
<g id="task_87624b86&#45;3632&#45;4a14&#45;a8fe&#45;c4fcfb9eac7c" class="node">
<title>task_87624b86&#45;3632&#45;4a14&#45;a8fe&#45;c4fcfb9eac7c</title>
<g id="a_task_87624b86&#45;3632&#45;4a14&#45;a8fe&#45;c4fcfb9eac7c"><a xlink:title="[task] kubeinit.kubeinit.kubeinit_libvirt : Configuring NAT">
<polygon fill="none" stroke="black" points="2226.38,-281.77 2226.38,-296.68 2049.95,-307.23 1800.43,-307.23 1624,-296.68 1624,-281.77 1800.43,-271.23 2049.95,-271.23 2226.38,-281.77"/>
<text text-anchor="middle" x="1925.19" y="-285.53" font-family="Times,serif" font-size="14.00">[task] kubeinit.kubeinit.kubeinit_libvirt : Configuring NAT</text>
</a>
</g>
</g>
<!-- task&#45;create&#45;network&#45;&gt;task_87624b86&#45;3632&#45;4a14&#45;a8fe&#45;c4fcfb9eac7c -->
<g id="edge_ae3bd36b&#45;5abb&#45;491d&#45;bce1&#45;27ea93e8e2d1" class="edge">
<title>task&#45;create&#45;network&#45;&gt;task_87624b86&#45;3632&#45;4a14&#45;a8fe&#45;c4fcfb9eac7c</title>
<path fill="none" stroke="#000000" stroke-width="2" d="M387.32,-730.07C397.49,-652.49 441.34,-350.27 513.89,-295.23 557.12,-262.44 1216.69,-272.18 1618.31,-281.28"/>
<polygon fill="#000000" stroke="#000000" stroke-width="2" points="1618.27,-284.78 1628.34,-281.51 1618.43,-277.78 1618.27,-284.78"/>
<text text-anchor="middle" x="908.39" y="-299.03" font-family="Times,serif" font-size="14.00" fill="#000000">22 &#160;[when: not hostvars[kubeinit_ovn_central_host].firewalld_is_active]</text>
</g>
<!-- task_55e065e2&#45;e4c7&#45;47fb&#45;b805&#45;dd9230728ed5 -->
<g id="task_55e065e2&#45;e4c7&#45;47fb&#45;b805&#45;dd9230728ed5" class="node">
<title>task_55e065e2&#45;e4c7&#45;47fb&#45;b805&#45;dd9230728ed5</title>
<g id="a_task_55e065e2&#45;e4c7&#45;47fb&#45;b805&#45;dd9230728ed5"><a xlink:title="[task] kubeinit.kubeinit.kubeinit_libvirt : Render KubeInit networks for debugging">
<polygon fill="none" stroke="black" points="2349.6,-227.77 2349.6,-242.68 2100.99,-253.23 1749.39,-253.23 1500.78,-242.68 1500.78,-227.77 1749.39,-217.23 2100.99,-217.23 2349.6,-227.77"/>
<text text-anchor="middle" x="1925.19" y="-231.53" font-family="Times,serif" font-size="14.00">[task] kubeinit.kubeinit.kubeinit_libvirt : Render KubeInit networks for debugging</text>
</a>
</g>
</g>
<!-- task&#45;create&#45;network&#45;&gt;task_55e065e2&#45;e4c7&#45;47fb&#45;b805&#45;dd9230728ed5 -->
<g id="edge_e91871ce&#45;eafd&#45;4f02&#45;bc15&#45;657a418fd26b" class="edge">
<title>task&#45;create&#45;network&#45;&gt;task_55e065e2&#45;e4c7&#45;47fb&#45;b805&#45;dd9230728ed5</title>
<path fill="none" stroke="#000000" stroke-width="2" d="M386.87,-730.11C395.57,-648.29 435.5,-314.62 513.89,-253.23 600.23,-185.6 1256.47,-203.81 1642.63,-220.84"/>
<polygon fill="#000000" stroke="#000000" stroke-width="2" points="1642.7,-224.35 1652.84,-221.29 1643.01,-217.35 1642.7,-224.35"/>
<text text-anchor="middle" x="908.39" y="-257.03" font-family="Times,serif" font-size="14.00" fill="#000000">23</text>
</g>
<!-- task_5e6048a2&#45;1ac9&#45;4b99&#45;9330&#45;3519be41448c -->
<g id="task_5e6048a2&#45;1ac9&#45;4b99&#45;9330&#45;3519be41448c" class="node">
<title>task_5e6048a2&#45;1ac9&#45;4b99&#45;9330&#45;3519be41448c</title>
<g id="a_task_5e6048a2&#45;1ac9&#45;4b99&#45;9330&#45;3519be41448c"><a xlink:title="[task] kubeinit.kubeinit.kubeinit_libvirt : Define KubeInit networks">
<polygon fill="none" stroke="black" points="2271.43,-173.77 2271.43,-188.68 2068.61,-199.23 1781.77,-199.23 1578.95,-188.68 1578.95,-173.77 1781.77,-163.23 2068.61,-163.23 2271.43,-173.77"/>
<text text-anchor="middle" x="1925.19" y="-177.53" font-family="Times,serif" font-size="14.00">[task] kubeinit.kubeinit.kubeinit_libvirt : Define KubeInit networks</text>
</a>
</g>
</g>
<!-- task&#45;create&#45;network&#45;&gt;task_5e6048a2&#45;1ac9&#45;4b99&#45;9330&#45;3519be41448c -->
<g id="edge_df9d7386&#45;8ec1&#45;44ae&#45;9a3f&#45;aedf0c5ccf2a" class="edge">
<title>task&#45;create&#45;network&#45;&gt;task_5e6048a2&#45;1ac9&#45;4b99&#45;9330&#45;3519be41448c</title>
<path fill="none" stroke="#000000" stroke-width="2" d="M386.26,-730.05C392.65,-641.44 425.29,-256.05 513.89,-185.23 555.56,-151.92 1194.19,-162.11 1597.62,-172.01"/>
<polygon fill="#000000" stroke="#000000" stroke-width="2" points="1597.62,-175.51 1607.7,-172.26 1597.79,-168.52 1597.62,-175.51"/>
<text text-anchor="middle" x="908.39" y="-189.03" font-family="Times,serif" font-size="14.00" fill="#000000">24 &#160;[when: kubeinit_libvirt_destroy_nets|bool and not kubeinit_libvirt_multicluster_keep_predefined_networks]</text>
</g>
<!-- task_9cc1d9bb&#45;ffa8&#45;412c&#45;a40e&#45;65462a8bd734 -->
<g id="task_9cc1d9bb&#45;ffa8&#45;412c&#45;a40e&#45;65462a8bd734" class="node">
<title>task_9cc1d9bb&#45;ffa8&#45;412c&#45;a40e&#45;65462a8bd734</title>
<g id="a_task_9cc1d9bb&#45;ffa8&#45;412c&#45;a40e&#45;65462a8bd734"><a xlink:title="[task] kubeinit.kubeinit.kubeinit_libvirt : Activate KubeInit networks">
<polygon fill="none" stroke="black" points="2280.22,-119.77 2280.22,-134.68 2072.25,-145.23 1778.13,-145.23 1570.16,-134.68 1570.16,-119.77 1778.13,-109.23 2072.25,-109.23 2280.22,-119.77"/>
<text text-anchor="middle" x="1925.19" y="-123.53" font-family="Times,serif" font-size="14.00">[task] kubeinit.kubeinit.kubeinit_libvirt : Activate KubeInit networks</text>
</a>
</g>
</g>
<!-- task&#45;create&#45;network&#45;&gt;task_9cc1d9bb&#45;ffa8&#45;412c&#45;a40e&#45;65462a8bd734 -->
<g id="edge_08fa38c5&#45;e500&#45;4d75&#45;9b62&#45;4f1faae81de0" class="edge">
<title>task&#45;create&#45;network&#45;&gt;task_9cc1d9bb&#45;ffa8&#45;412c&#45;a40e&#45;65462a8bd734</title>
<path fill="none" stroke="#000000" stroke-width="2" d="M385.97,-729.98C391.15,-637.33 419.48,-220.54 513.89,-143.23 553.9,-110.46 1155.43,-113.98 1559.84,-120.16"/>
<polygon fill="#000000" stroke="#000000" stroke-width="2" points="1559.9,-123.66 1569.95,-120.31 1560.01,-116.66 1559.9,-123.66"/>
<text text-anchor="middle" x="908.39" y="-147.03" font-family="Times,serif" font-size="14.00" fill="#000000">25 &#160;[when: kubeinit_libvirt_destroy_nets|bool and not kubeinit_libvirt_multicluster_keep_predefined_networks]</text>
</g>
<!-- task_9c19b154&#45;5167&#45;46da&#45;84b9&#45;5ebcfaa9d3e1 -->
<g id="task_9c19b154&#45;5167&#45;46da&#45;84b9&#45;5ebcfaa9d3e1" class="node">
<title>task_9c19b154&#45;5167&#45;46da&#45;84b9&#45;5ebcfaa9d3e1</title>
<g id="a_task_9c19b154&#45;5167&#45;46da&#45;84b9&#45;5ebcfaa9d3e1"><a xlink:title="[task] kubeinit.kubeinit.kubeinit_libvirt : Autostart KubeInit networks">
<polygon fill="none" stroke="black" points="2286.88,-65.77 2286.88,-80.68 2075.01,-91.23 1775.37,-91.23 1563.5,-80.68 1563.5,-65.77 1775.37,-55.23 2075.01,-55.23 2286.88,-65.77"/>
<text text-anchor="middle" x="1925.19" y="-69.53" font-family="Times,serif" font-size="14.00">[task] kubeinit.kubeinit.kubeinit_libvirt : Autostart KubeInit networks</text>
</a>
</g>
</g>
<!-- task&#45;create&#45;network&#45;&gt;task_9c19b154&#45;5167&#45;46da&#45;84b9&#45;5ebcfaa9d3e1 -->
<g id="edge_f789d374&#45;ca6f&#45;4c16&#45;99df&#45;b583100ad9ee" class="edge">
<title>task&#45;create&#45;network&#45;&gt;task_9c19b154&#45;5167&#45;46da&#45;84b9&#45;5ebcfaa9d3e1</title>
<path fill="none" stroke="#000000" stroke-width="2" d="M385.67,-730.2C389.5,-633.83 412.72,-180.75 513.89,-96.23 702.47,61.32 1462.15,-14.02 1781.57,-53.93"/>
<polygon fill="#000000" stroke="#000000" stroke-width="2" points="1781.47,-57.44 1791.82,-55.21 1782.34,-50.49 1781.47,-57.44"/>
<text text-anchor="middle" x="908.39" y="-100.03" font-family="Times,serif" font-size="14.00" fill="#000000">26 &#160;[when: kubeinit_libvirt_destroy_nets|bool and not kubeinit_libvirt_multicluster_keep_predefined_networks]</text>
</g>
</g>
</svg>
