<?xml version="1.0" encoding="UTF-8" standalone="no"?>
<!DOCTYPE svg PUBLIC "-//W3C//DTD SVG 1.1//EN"
 "http://www.w3.org/Graphics/SVG/1.1/DTD/svg11.dtd">
<!-- Generated by graphviz version 2.43.0 (0)
 -->
<!-- Title: kubeinit/playbook.yml  Pages: 1 -->
<svg width="1965pt" height="1426pt"
 viewBox="0.00 0.00 1964.71 1425.80" xmlns="http://www.w3.org/2000/svg" xmlns:xlink="http://www.w3.org/1999/xlink">
<g id="graph0" class="graph" transform="scale(1 1) rotate(0) translate(4 1421.8)">
<title>kubeinit/playbook.yml </title>
<polygon fill="white" stroke="transparent" points="-4,4 -4,-1421.8 1960.71,-1421.8 1960.71,4 -4,4"/>
<!-- kubeinit/playbook.yml -->
<g id="root_node" class="node">
<title>kubeinit/playbook.yml</title>
<ellipse fill="none" stroke="black" stroke-dasharray="1,5" cx="113.09" cy="-717.8" rx="113.18" ry="18"/>
<text text-anchor="middle" x="113.09" y="-714.1" font-family="Times,serif" font-size="14.00">kubeinit/playbook.yml</text>
</g>
<!-- task&#45;deploy&#45;cluster -->
<g id="play_56034908&#45;7c95&#45;47f1&#45;9838&#45;ef68b830a160" class="node">
<title>task&#45;deploy&#45;cluster</title>
<g id="a_play_56034908&#45;7c95&#45;47f1&#45;9838&#45;ef68b830a160"><a xlink:title="localhost">
<polygon fill="none" stroke="#000000" points="485.97,-710.34 485.97,-725.25 423.37,-735.8 334.85,-735.8 272.25,-725.25 272.25,-710.34 334.85,-699.8 423.37,-699.8 485.97,-710.34"/>
<text text-anchor="middle" x="379.11" y="-714.1" font-family="Times,serif" font-size="14.00" fill="#000000">task&#45;deploy&#45;cluster</text>
</a>
</g>
</g>
<!-- kubeinit/playbook.yml&#45;&gt;task&#45;deploy&#45;cluster -->
<g id="edge_5138b75e&#45;5da0&#45;464e&#45;b003&#45;81fdaf838df1" class="edge">
<title>kubeinit/playbook.yml&#45;&gt;task&#45;deploy&#45;cluster</title>
<path fill="none" stroke="#000000" stroke-width="2" d="M226.44,-717.8C238.17,-717.8 250.1,-717.8 261.87,-717.8"/>
<polygon fill="#000000" stroke="#000000" stroke-width="2" points="262.15,-721.3 272.15,-717.8 262.15,-714.3 262.15,-721.3"/>
<text text-anchor="middle" x="249.18" y="-721.6" font-family="Times,serif" font-size="14.00" fill="#000000">3</text>
</g>
<!-- task_f15c3c5b&#45;be13&#45;485a&#45;acde&#45;ef24306866c3 -->
<g id="task_f15c3c5b&#45;be13&#45;485a&#45;acde&#45;ef24306866c3" class="node">
<title>task_f15c3c5b&#45;be13&#45;485a&#45;acde&#45;ef24306866c3</title>
<g id="a_task_f15c3c5b&#45;be13&#45;485a&#45;acde&#45;ef24306866c3"><a xlink:title="[task] kubeinit.kubeinit.kubeinit_libvirt : Remove old disk images">
<polygon fill="none" stroke="black" points="1745.04,-1385.34 1745.04,-1400.25 1546.36,-1410.8 1265.39,-1410.8 1066.71,-1400.25 1066.71,-1385.34 1265.39,-1374.8 1546.36,-1374.8 1745.04,-1385.34"/>
<text text-anchor="middle" x="1405.88" y="-1389.1" font-family="Times,serif" font-size="14.00">[task] kubeinit.kubeinit.kubeinit_libvirt : Remove old disk images</text>
</a>
</g>
</g>
<!-- task&#45;deploy&#45;cluster&#45;&gt;task_f15c3c5b&#45;be13&#45;485a&#45;acde&#45;ef24306866c3 -->
<g id="edge_03d93755&#45;5c4b&#45;4297&#45;b7e5&#45;fd2cec79cc86" class="edge">
<title>task&#45;deploy&#45;cluster&#45;&gt;task_f15c3c5b&#45;be13&#45;485a&#45;acde&#45;ef24306866c3</title>
<path fill="none" stroke="#000000" stroke-width="2" d="M380.65,-736.03C383.92,-832.47 404.38,-1281.91 504.04,-1366.8 548.98,-1405.07 853.97,-1407.26 1096.8,-1402.6"/>
<polygon fill="#000000" stroke="#000000" stroke-width="2" points="1096.94,-1406.1 1106.87,-1402.4 1096.8,-1399.1 1096.94,-1406.1"/>
<text text-anchor="middle" x="670.54" y="-1406.6" font-family="Times,serif" font-size="14.00" fill="#000000">1</text>
</g>
<!-- task_caab2c16&#45;81e3&#45;44da&#45;adc8&#45;50106ea31c4c -->
<g id="task_caab2c16&#45;81e3&#45;44da&#45;adc8&#45;50106ea31c4c" class="node">
<title>task_caab2c16&#45;81e3&#45;44da&#45;adc8&#45;50106ea31c4c</title>
<g id="a_task_caab2c16&#45;81e3&#45;44da&#45;adc8&#45;50106ea31c4c"><a xlink:title="[task] kubeinit.kubeinit.kubeinit_libvirt : Set guest images facts">
<polygon fill="none" stroke="black" points="1738.38,-1331.34 1738.38,-1346.25 1543.6,-1356.8 1268.15,-1356.8 1073.37,-1346.25 1073.37,-1331.34 1268.15,-1320.8 1543.6,-1320.8 1738.38,-1331.34"/>
<text text-anchor="middle" x="1405.88" y="-1335.1" font-family="Times,serif" font-size="14.00">[task] kubeinit.kubeinit.kubeinit_libvirt : Set guest images facts</text>
</a>
</g>
</g>
<!-- task&#45;deploy&#45;cluster&#45;&gt;task_caab2c16&#45;81e3&#45;44da&#45;adc8&#45;50106ea31c4c -->
<g id="edge_4376e431&#45;d854&#45;4ff4&#45;9b04&#45;3951b2aa9979" class="edge">
<title>task&#45;deploy&#45;cluster&#45;&gt;task_caab2c16&#45;81e3&#45;44da&#45;adc8&#45;50106ea31c4c</title>
<path fill="none" stroke="#000000" stroke-width="2" d="M380.99,-735.98C385.84,-827.35 412.4,-1235 504.04,-1311.8 549.1,-1349.56 851.73,-1352.29 1093.98,-1348.1"/>
<polygon fill="#000000" stroke="#000000" stroke-width="2" points="1094.08,-1351.6 1104.02,-1347.93 1093.96,-1344.6 1094.08,-1351.6"/>
<text text-anchor="middle" x="670.54" y="-1351.6" font-family="Times,serif" font-size="14.00" fill="#000000">2</text>
</g>
<!-- task_dcc234f7&#45;7549&#45;402f&#45;b5d0&#45;ed8c248ea485 -->
<g id="task_dcc234f7&#45;7549&#45;402f&#45;b5d0&#45;ed8c248ea485" class="node">
<title>task_dcc234f7&#45;7549&#45;402f&#45;b5d0&#45;ed8c248ea485</title>
<g id="a_task_dcc234f7&#45;7549&#45;402f&#45;b5d0&#45;ed8c248ea485"><a xlink:title="[task] kubeinit.kubeinit.kubeinit_libvirt : Create VM definition for {{ kubeinit_deployment_node_name }}">
<polygon fill="none" stroke="black" points="1946.85,-1277.34 1946.85,-1292.25 1629.95,-1302.8 1181.8,-1302.8 864.9,-1292.25 864.9,-1277.34 1181.8,-1266.8 1629.95,-1266.8 1946.85,-1277.34"/>
<text text-anchor="middle" x="1405.88" y="-1281.1" font-family="Times,serif" font-size="14.00">[task] kubeinit.kubeinit.kubeinit_libvirt : Create VM definition for {{ kubeinit_deployment_node_name }}</text>
</a>
</g>
</g>
<!-- task&#45;deploy&#45;cluster&#45;&gt;task_dcc234f7&#45;7549&#45;402f&#45;b5d0&#45;ed8c248ea485 -->
<g id="edge_8bc945ad&#45;b8c2&#45;4b7e&#45;829c&#45;6bc1812869c9" class="edge">
<title>task&#45;deploy&#45;cluster&#45;&gt;task_dcc234f7&#45;7549&#45;402f&#45;b5d0&#45;ed8c248ea485</title>
<path fill="none" stroke="#000000" stroke-width="2" d="M381.41,-736C387.95,-822.2 420.4,-1188.06 504.04,-1256.8 539.46,-1285.91 731.29,-1294.23 928.87,-1294.7"/>
<polygon fill="#000000" stroke="#000000" stroke-width="2" points="928.87,-1298.2 938.88,-1294.72 928.89,-1291.2 928.87,-1298.2"/>
<text text-anchor="middle" x="670.54" y="-1296.6" font-family="Times,serif" font-size="14.00" fill="#000000">3</text>
</g>
<!-- task_a63ec656&#45;bcd9&#45;4593&#45;ad93&#45;4fad7f63a501 -->
<g id="task_a63ec656&#45;bcd9&#45;4593&#45;ad93&#45;4fad7f63a501" class="node">
<title>task_a63ec656&#45;bcd9&#45;4593&#45;ad93&#45;4fad7f63a501</title>
<g id="a_task_a63ec656&#45;bcd9&#45;4593&#45;ad93&#45;4fad7f63a501"><a xlink:title="[task] kubeinit.kubeinit.kubeinit_libvirt : Wait until {{ kubeinit_deployment_node_name }} is running">
<polygon fill="none" stroke="black" points="1928.77,-1223.34 1928.77,-1238.25 1622.46,-1248.8 1189.29,-1248.8 882.99,-1238.25 882.99,-1223.34 1189.29,-1212.8 1622.46,-1212.8 1928.77,-1223.34"/>
<text text-anchor="middle" x="1405.88" y="-1227.1" font-family="Times,serif" font-size="14.00">[task] kubeinit.kubeinit.kubeinit_libvirt : Wait until {{ kubeinit_deployment_node_name }} is running</text>
</a>
</g>
</g>
<!-- task&#45;deploy&#45;cluster&#45;&gt;task_a63ec656&#45;bcd9&#45;4593&#45;ad93&#45;4fad7f63a501 -->
<g id="edge_b83d0501&#45;d187&#45;40e5&#45;9d90&#45;44f2d68ae28a" class="edge">
<title>task&#45;deploy&#45;cluster&#45;&gt;task_a63ec656&#45;bcd9&#45;4593&#45;ad93&#45;4fad7f63a501</title>
<path fill="none" stroke="#000000" stroke-width="2" d="M381.92,-735.97C390.34,-816.55 428.52,-1140.16 504.04,-1200.8 537.82,-1227.91 710.86,-1237.18 896.4,-1238.98"/>
<polygon fill="#000000" stroke="#000000" stroke-width="2" points="896.62,-1242.48 906.65,-1239.07 896.69,-1235.48 896.62,-1242.48"/>
<text text-anchor="middle" x="670.54" y="-1241.6" font-family="Times,serif" font-size="14.00" fill="#000000">4</text>
</g>
<!-- task_845017af&#45;9645&#45;4143&#45;8bbb&#45;eafdcc8b6d24 -->
<g id="task_845017af&#45;9645&#45;4143&#45;8bbb&#45;eafdcc8b6d24" class="node">
<title>task_845017af&#45;9645&#45;4143&#45;8bbb&#45;eafdcc8b6d24</title>
<g id="a_task_845017af&#45;9645&#45;4143&#45;8bbb&#45;eafdcc8b6d24"><a xlink:title="[task] kubeinit.kubeinit.kubeinit_libvirt : Remove old disk images">
<polygon fill="none" stroke="black" points="1745.04,-1169.34 1745.04,-1184.25 1546.36,-1194.8 1265.39,-1194.8 1066.71,-1184.25 1066.71,-1169.34 1265.39,-1158.8 1546.36,-1158.8 1745.04,-1169.34"/>
<text text-anchor="middle" x="1405.88" y="-1173.1" font-family="Times,serif" font-size="14.00">[task] kubeinit.kubeinit.kubeinit_libvirt : Remove old disk images</text>
</a>
</g>
</g>
<!-- task&#45;deploy&#45;cluster&#45;&gt;task_845017af&#45;9645&#45;4143&#45;8bbb&#45;eafdcc8b6d24 -->
<g id="edge_24752877&#45;21d6&#45;4bd8&#45;a821&#45;f56c0ebe78e9" class="edge">
<title>task&#45;deploy&#45;cluster&#45;&gt;task_845017af&#45;9645&#45;4143&#45;8bbb&#45;eafdcc8b6d24</title>
<path fill="none" stroke="#000000" stroke-width="2" d="M382.55,-735.86C392.99,-810.33 436.53,-1092.19 504.04,-1144.8 548.02,-1179.07 822.22,-1185.1 1056.68,-1183.71"/>
<polygon fill="#000000" stroke="#000000" stroke-width="2" points="1056.78,-1187.21 1066.75,-1183.65 1056.73,-1180.21 1056.78,-1187.21"/>
<text text-anchor="middle" x="670.54" y="-1185.6" font-family="Times,serif" font-size="14.00" fill="#000000">5</text>
</g>
<!-- task_81e03a66&#45;72e4&#45;4504&#45;8c2f&#45;bfa8dd345993 -->
<g id="task_81e03a66&#45;72e4&#45;4504&#45;8c2f&#45;bfa8dd345993" class="node">
<title>task_81e03a66&#45;72e4&#45;4504&#45;8c2f&#45;bfa8dd345993</title>
<g id="a_task_81e03a66&#45;72e4&#45;4504&#45;8c2f&#45;bfa8dd345993"><a xlink:title="[task] kubeinit.kubeinit.kubeinit_libvirt : Set guest images facts">
<polygon fill="none" stroke="black" points="1738.38,-1115.34 1738.38,-1130.25 1543.6,-1140.8 1268.15,-1140.8 1073.37,-1130.25 1073.37,-1115.34 1268.15,-1104.8 1543.6,-1104.8 1738.38,-1115.34"/>
<text text-anchor="middle" x="1405.88" y="-1119.1" font-family="Times,serif" font-size="14.00">[task] kubeinit.kubeinit.kubeinit_libvirt : Set guest images facts</text>
</a>
</g>
</g>
<!-- task&#45;deploy&#45;cluster&#45;&gt;task_81e03a66&#45;72e4&#45;4504&#45;8c2f&#45;bfa8dd345993 -->
<g id="edge_29c07e21&#45;087b&#45;49ba&#45;a2e0&#45;80b2c25a9842" class="edge">
<title>task&#45;deploy&#45;cluster&#45;&gt;task_81e03a66&#45;72e4&#45;4504&#45;8c2f&#45;bfa8dd345993</title>
<path fill="none" stroke="#000000" stroke-width="2" d="M379.62,-736.18C379.07,-798.36 386.63,-1001.85 504.04,-1089.8 549.05,-1123.52 827.55,-1129.77 1063.13,-1128.78"/>
<polygon fill="#000000" stroke="#000000" stroke-width="2" points="1063.27,-1132.28 1073.25,-1128.73 1063.23,-1125.28 1063.27,-1132.28"/>
<text text-anchor="middle" x="670.54" y="-1129.6" font-family="Times,serif" font-size="14.00" fill="#000000">6</text>
</g>
<!-- task_de8f685c&#45;5886&#45;4e0f&#45;af7e&#45;b82456b8bf7a -->
<g id="task_de8f685c&#45;5886&#45;4e0f&#45;af7e&#45;b82456b8bf7a" class="node">
<title>task_de8f685c&#45;5886&#45;4e0f&#45;af7e&#45;b82456b8bf7a</title>
<g id="a_task_de8f685c&#45;5886&#45;4e0f&#45;af7e&#45;b82456b8bf7a"><a xlink:title="[task] kubeinit.kubeinit.kubeinit_libvirt : Create VM definition for {{ kubeinit_deployment_node_name }}">
<polygon fill="none" stroke="black" points="1946.85,-1061.34 1946.85,-1076.25 1629.95,-1086.8 1181.8,-1086.8 864.9,-1076.25 864.9,-1061.34 1181.8,-1050.8 1629.95,-1050.8 1946.85,-1061.34"/>
<text text-anchor="middle" x="1405.88" y="-1065.1" font-family="Times,serif" font-size="14.00">[task] kubeinit.kubeinit.kubeinit_libvirt : Create VM definition for {{ kubeinit_deployment_node_name }}</text>
</a>
</g>
</g>
<!-- task&#45;deploy&#45;cluster&#45;&gt;task_de8f685c&#45;5886&#45;4e0f&#45;af7e&#45;b82456b8bf7a -->
<g id="edge_344d484d&#45;4392&#45;4a91&#45;a130&#45;9fb270c8b6b8" class="edge">
<title>task&#45;deploy&#45;cluster&#45;&gt;task_de8f685c&#45;5886&#45;4e0f&#45;af7e&#45;b82456b8bf7a</title>
<path fill="none" stroke="#000000" stroke-width="2" d="M380.76,-735.84C383.87,-791.65 401.69,-962.05 504.04,-1034.8 536.58,-1057.92 686.28,-1068.02 854.57,-1071.79"/>
<polygon fill="#000000" stroke="#000000" stroke-width="2" points="854.58,-1075.29 864.65,-1072.01 854.73,-1068.3 854.58,-1075.29"/>
<text text-anchor="middle" x="670.54" y="-1074.6" font-family="Times,serif" font-size="14.00" fill="#000000">7</text>
</g>
<!-- task_3e3dd7a9&#45;a6bf&#45;444d&#45;9d84&#45;33515496059f -->
<g id="task_3e3dd7a9&#45;a6bf&#45;444d&#45;9d84&#45;33515496059f" class="node">
<title>task_3e3dd7a9&#45;a6bf&#45;444d&#45;9d84&#45;33515496059f</title>
<g id="a_task_3e3dd7a9&#45;a6bf&#45;444d&#45;9d84&#45;33515496059f"><a xlink:title="[task] kubeinit.kubeinit.kubeinit_libvirt : Wait until {{ kubeinit_deployment_node_name }} is running">
<polygon fill="none" stroke="black" points="1928.77,-1007.34 1928.77,-1022.25 1622.46,-1032.8 1189.29,-1032.8 882.99,-1022.25 882.99,-1007.34 1189.29,-996.8 1622.46,-996.8 1928.77,-1007.34"/>
<text text-anchor="middle" x="1405.88" y="-1011.1" font-family="Times,serif" font-size="14.00">[task] kubeinit.kubeinit.kubeinit_libvirt : Wait until {{ kubeinit_deployment_node_name }} is running</text>
</a>
</g>
</g>
<!-- task&#45;deploy&#45;cluster&#45;&gt;task_3e3dd7a9&#45;a6bf&#45;444d&#45;9d84&#45;33515496059f -->
<g id="edge_04a040d0&#45;7c4a&#45;426f&#45;b017&#45;92652a853911" class="edge">
<title>task&#45;deploy&#45;cluster&#45;&gt;task_3e3dd7a9&#45;a6bf&#45;444d&#45;9d84&#45;33515496059f</title>
<path fill="none" stroke="#000000" stroke-width="2" d="M382.31,-735.96C389.38,-785.47 416.46,-922.9 504.04,-980.8 538.48,-1003.56 697.57,-1013.34 872.69,-1016.96"/>
<polygon fill="#000000" stroke="#000000" stroke-width="2" points="872.84,-1020.47 882.91,-1017.17 872.98,-1013.47 872.84,-1020.47"/>
<text text-anchor="middle" x="670.54" y="-1019.6" font-family="Times,serif" font-size="14.00" fill="#000000">8</text>
</g>
<!-- task_699f17aa&#45;6e3a&#45;4430&#45;85d9&#45;77ac18e5899b -->
<g id="task_699f17aa&#45;6e3a&#45;4430&#45;85d9&#45;77ac18e5899b" class="node">
<title>task_699f17aa&#45;6e3a&#45;4430&#45;85d9&#45;77ac18e5899b</title>
<g id="a_task_699f17aa&#45;6e3a&#45;4430&#45;85d9&#45;77ac18e5899b"><a xlink:title="[task] kubeinit.kubeinit.kubeinit_okd : Verify that controller nodes are ok">
<polygon fill="none" stroke="black" points="1783.43,-953.34 1783.43,-968.25 1562.26,-978.8 1249.49,-978.8 1028.33,-968.25 1028.33,-953.34 1249.49,-942.8 1562.26,-942.8 1783.43,-953.34"/>
<text text-anchor="middle" x="1405.88" y="-957.1" font-family="Times,serif" font-size="14.00">[task] kubeinit.kubeinit.kubeinit_okd : Verify that controller nodes are ok</text>
</a>
</g>
</g>
<!-- task&#45;deploy&#45;cluster&#45;&gt;task_699f17aa&#45;6e3a&#45;4430&#45;85d9&#45;77ac18e5899b -->
<g id="edge_a3052fde&#45;288b&#45;4f48&#45;b58f&#45;a5e5e4a2dd1b" class="edge">
<title>task&#45;deploy&#45;cluster&#45;&gt;task_699f17aa&#45;6e3a&#45;4430&#45;85d9&#45;77ac18e5899b</title>
<path fill="none" stroke="#000000" stroke-width="2" d="M384.37,-735.91C395.51,-778.65 429.91,-885.55 504.04,-929.8 549.14,-956.71 794.67,-963.92 1018.02,-964.7"/>
<polygon fill="#000000" stroke="#000000" stroke-width="2" points="1018.29,-968.2 1028.3,-964.73 1018.31,-961.2 1018.29,-968.2"/>
<text text-anchor="middle" x="670.54" y="-965.6" font-family="Times,serif" font-size="14.00" fill="#000000">9</text>
</g>
<!-- task_721c3134&#45;46df&#45;4933&#45;a040&#45;04baf9b78c9a -->
<g id="task_721c3134&#45;46df&#45;4933&#45;a040&#45;04baf9b78c9a" class="node">
<title>task_721c3134&#45;46df&#45;4933&#45;a040&#45;04baf9b78c9a</title>
<g id="a_task_721c3134&#45;46df&#45;4933&#45;a040&#45;04baf9b78c9a"><a xlink:title="[task] kubeinit.kubeinit.kubeinit_okd : Use single node cluster">
<polygon fill="none" stroke="black" points="1729.59,-899.34 1729.59,-914.25 1539.96,-924.8 1271.79,-924.8 1082.16,-914.25 1082.16,-899.34 1271.79,-888.8 1539.96,-888.8 1729.59,-899.34"/>
<text text-anchor="middle" x="1405.88" y="-903.1" font-family="Times,serif" font-size="14.00">[task] kubeinit.kubeinit.kubeinit_okd : Use single node cluster</text>
</a>
</g>
</g>
<!-- task&#45;deploy&#45;cluster&#45;&gt;task_721c3134&#45;46df&#45;4933&#45;a040&#45;04baf9b78c9a -->
<g id="edge_032f6ad8&#45;6371&#45;4be4&#45;8fe5&#45;1d9e20bf7205" class="edge">
<title>task&#45;deploy&#45;cluster&#45;&gt;task_721c3134&#45;46df&#45;4933&#45;a040&#45;04baf9b78c9a</title>
<path fill="none" stroke="#000000" stroke-width="2" d="M387.14,-735.81C402.25,-771.71 441.59,-851.48 504.04,-883.8 554.4,-909.86 836.64,-913.78 1071.97,-912.27"/>
<polygon fill="#000000" stroke="#000000" stroke-width="2" points="1072.11,-915.77 1082.08,-912.21 1072.06,-908.77 1072.11,-915.77"/>
<text text-anchor="middle" x="670.54" y="-914.6" font-family="Times,serif" font-size="14.00" fill="#000000">10 &#160;[when: kubeinit_controller_count|int == 1]</text>
</g>
<!-- task_cf333abd&#45;172b&#45;4221&#45;b901&#45;eedac4f2ecaf -->
<g id="task_cf333abd&#45;172b&#45;4221&#45;b901&#45;eedac4f2ecaf" class="node">
<title>task_cf333abd&#45;172b&#45;4221&#45;b901&#45;eedac4f2ecaf</title>
<g id="a_task_cf333abd&#45;172b&#45;4221&#45;b901&#45;eedac4f2ecaf"><a xlink:title="[task] kubeinit.kubeinit.kubeinit_okd : Wait for bootstrap to complete">
<polygon fill="none" stroke="black" points="1765.35,-845.34 1765.35,-860.25 1554.77,-870.8 1256.98,-870.8 1046.41,-860.25 1046.41,-845.34 1256.98,-834.8 1554.77,-834.8 1765.35,-845.34"/>
<text text-anchor="middle" x="1405.88" y="-849.1" font-family="Times,serif" font-size="14.00">[task] kubeinit.kubeinit.kubeinit_okd : Wait for bootstrap to complete</text>
</a>
</g>
</g>
<!-- task&#45;deploy&#45;cluster&#45;&gt;task_cf333abd&#45;172b&#45;4221&#45;b901&#45;eedac4f2ecaf -->
<g id="edge_b1fbfb7d&#45;980e&#45;4d2b&#45;ac93&#45;6600b39cc448" class="edge">
<title>task&#45;deploy&#45;cluster&#45;&gt;task_cf333abd&#45;172b&#45;4221&#45;b901&#45;eedac4f2ecaf</title>
<path fill="none" stroke="#000000" stroke-width="2" d="M399.8,-735.83C422.86,-755.72 463.14,-786.76 504.04,-800.8 743.2,-882.88 1038.88,-882.13 1224.74,-870.37"/>
<polygon fill="#000000" stroke="#000000" stroke-width="2" points="1225.14,-873.85 1234.89,-869.71 1224.68,-866.86 1225.14,-873.85"/>
<text text-anchor="middle" x="670.54" y="-868.6" font-family="Times,serif" font-size="14.00" fill="#000000">11</text>
</g>
<!-- task_03ba35fa&#45;bab3&#45;4235&#45;a359&#45;3cf4f27a6671 -->
<g id="task_03ba35fa&#45;bab3&#45;4235&#45;a359&#45;3cf4f27a6671" class="node">
<title>task_03ba35fa&#45;bab3&#45;4235&#45;a359&#45;3cf4f27a6671</title>
<g id="a_task_03ba35fa&#45;bab3&#45;4235&#45;a359&#45;3cf4f27a6671"><a xlink:title="[task] kubeinit.kubeinit.kubeinit_okd : Remove bootstrap node from haproxy config">
<polygon fill="none" stroke="black" points="1834.23,-791.34 1834.23,-806.25 1583.31,-816.8 1228.45,-816.8 977.52,-806.25 977.52,-791.34 1228.45,-780.8 1583.31,-780.8 1834.23,-791.34"/>
<text text-anchor="middle" x="1405.88" y="-795.1" font-family="Times,serif" font-size="14.00">[task] kubeinit.kubeinit.kubeinit_okd : Remove bootstrap node from haproxy config</text>
</a>
</g>
</g>
<!-- task&#45;deploy&#45;cluster&#45;&gt;task_03ba35fa&#45;bab3&#45;4235&#45;a359&#45;3cf4f27a6671 -->
<g id="edge_1411ee9d&#45;1c3c&#45;4b19&#45;80ca&#45;b421c4f4bebc" class="edge">
<title>task&#45;deploy&#45;cluster&#45;&gt;task_03ba35fa&#45;bab3&#45;4235&#45;a359&#45;3cf4f27a6671</title>
<path fill="none" stroke="#000000" stroke-width="2" d="M436.78,-733.65C457.76,-738.95 481.83,-744.38 504.04,-747.8 654.06,-770.91 819.57,-783.84 967.36,-790.97"/>
<polygon fill="#000000" stroke="#000000" stroke-width="2" points="967.36,-794.48 977.52,-791.45 967.69,-787.48 967.36,-794.48"/>
<text text-anchor="middle" x="670.54" y="-785.6" font-family="Times,serif" font-size="14.00" fill="#000000">12</text>
</g>
<!-- task_9c724b49&#45;979b&#45;4253&#45;8824&#45;dbfdb4e2466a -->
<g id="task_9c724b49&#45;979b&#45;4253&#45;8824&#45;dbfdb4e2466a" class="node">
<title>task_9c724b49&#45;979b&#45;4253&#45;8824&#45;dbfdb4e2466a</title>
<g id="a_task_9c724b49&#45;979b&#45;4253&#45;8824&#45;dbfdb4e2466a"><a xlink:title="[task] kubeinit.kubeinit.kubeinit_okd : Restart haproxy container">
<polygon fill="none" stroke="black" points="1742.82,-737.34 1742.82,-752.25 1545.44,-762.8 1266.31,-762.8 1068.93,-752.25 1068.93,-737.34 1266.31,-726.8 1545.44,-726.8 1742.82,-737.34"/>
<text text-anchor="middle" x="1405.88" y="-741.1" font-family="Times,serif" font-size="14.00">[task] kubeinit.kubeinit.kubeinit_okd : Restart haproxy container</text>
</a>
</g>
</g>
<!-- task&#45;deploy&#45;cluster&#45;&gt;task_9c724b49&#45;979b&#45;4253&#45;8824&#45;dbfdb4e2466a -->
<g id="edge_722a4255&#45;342d&#45;4635&#45;9aff&#45;b692350cd8e2" class="edge">
<title>task&#45;deploy&#45;cluster&#45;&gt;task_9c724b49&#45;979b&#45;4253&#45;8824&#45;dbfdb4e2466a</title>
<path fill="none" stroke="#000000" stroke-width="2" d="M486.4,-720.6C624.67,-724.24 872.62,-730.77 1076.07,-736.13"/>
<polygon fill="#000000" stroke="#000000" stroke-width="2" points="1076.25,-739.64 1086.34,-736.4 1076.43,-732.64 1076.25,-739.64"/>
<text text-anchor="middle" x="670.54" y="-732.6" font-family="Times,serif" font-size="14.00" fill="#000000">13</text>
</g>
<!-- task_be0f0d9a&#45;dafe&#45;4205&#45;bab7&#45;6aa8d18cb49d -->
<g id="task_be0f0d9a&#45;dafe&#45;4205&#45;bab7&#45;6aa8d18cb49d" class="node">
<title>task_be0f0d9a&#45;dafe&#45;4205&#45;bab7&#45;6aa8d18cb49d</title>
<g id="a_task_be0f0d9a&#45;dafe&#45;4205&#45;bab7&#45;6aa8d18cb49d"><a xlink:title="[task] kubeinit.kubeinit.kubeinit_okd : Destroy bootstrap node VM">
<polygon fill="none" stroke="black" points="1749.89,-683.34 1749.89,-698.25 1548.37,-708.8 1263.38,-708.8 1061.86,-698.25 1061.86,-683.34 1263.38,-672.8 1548.37,-672.8 1749.89,-683.34"/>
<text text-anchor="middle" x="1405.88" y="-687.1" font-family="Times,serif" font-size="14.00">[task] kubeinit.kubeinit.kubeinit_okd : Destroy bootstrap node VM</text>
</a>
</g>
</g>
<!-- task&#45;deploy&#45;cluster&#45;&gt;task_be0f0d9a&#45;dafe&#45;4205&#45;bab7&#45;6aa8d18cb49d -->
<g id="edge_d623a863&#45;619e&#45;4201&#45;b92d&#45;ed30367278c0" class="edge">
<title>task&#45;deploy&#45;cluster&#45;&gt;task_be0f0d9a&#45;dafe&#45;4205&#45;bab7&#45;6aa8d18cb49d</title>
<path fill="none" stroke="#000000" stroke-width="2" d="M460.64,-706.02C475.06,-704.31 489.98,-702.79 504.04,-701.8 684.18,-689.11 885.07,-685.63 1051.35,-685.63"/>
<polygon fill="#000000" stroke="#000000" stroke-width="2" points="1051.74,-689.13 1061.74,-685.64 1051.74,-682.13 1051.74,-689.13"/>
<text text-anchor="middle" x="670.54" y="-705.6" font-family="Times,serif" font-size="14.00" fill="#000000">14</text>
</g>
<!-- task_9e1ce05d&#45;96db&#45;49d8&#45;b3fd&#45;ae92745b0a94 -->
<g id="task_9e1ce05d&#45;96db&#45;49d8&#45;b3fd&#45;ae92745b0a94" class="node">
<title>task_9e1ce05d&#45;96db&#45;49d8&#45;b3fd&#45;ae92745b0a94</title>
<g id="a_task_9e1ce05d&#45;96db&#45;49d8&#45;b3fd&#45;ae92745b0a94"><a xlink:title="[task] kubeinit.kubeinit.kubeinit_okd : Undefine bootstrap node VM">
<polygon fill="none" stroke="black" points="1755.65,-629.34 1755.65,-644.25 1550.76,-654.8 1261,-654.8 1056.1,-644.25 1056.1,-629.34 1261,-618.8 1550.76,-618.8 1755.65,-629.34"/>
<text text-anchor="middle" x="1405.88" y="-633.1" font-family="Times,serif" font-size="14.00">[task] kubeinit.kubeinit.kubeinit_okd : Undefine bootstrap node VM</text>
</a>
</g>
</g>
<!-- task&#45;deploy&#45;cluster&#45;&gt;task_9e1ce05d&#45;96db&#45;49d8&#45;b3fd&#45;ae92745b0a94 -->
<g id="edge_b4e3caa1&#45;234d&#45;4ffe&#45;9dd8&#45;0d9ce9ca3200" class="edge">
<title>task&#45;deploy&#45;cluster&#45;&gt;task_9e1ce05d&#45;96db&#45;49d8&#45;b3fd&#45;ae92745b0a94</title>
<path fill="none" stroke="#000000" stroke-width="2" d="M416.24,-699.71C440.43,-688.56 473.35,-675.21 504.04,-668.8 722.52,-623.14 977.17,-618.42 1159.88,-623.2"/>
<polygon fill="#000000" stroke="#000000" stroke-width="2" points="1159.8,-626.7 1169.89,-623.47 1159.99,-619.7 1159.8,-626.7"/>
<text text-anchor="middle" x="670.54" y="-672.6" font-family="Times,serif" font-size="14.00" fill="#000000">15</text>
</g>
<!-- task_ad6d7a35&#45;88f2&#45;4dba&#45;9dc9&#45;b51e69e652a1 -->
<g id="task_ad6d7a35&#45;88f2&#45;4dba&#45;9dc9&#45;b51e69e652a1" class="node">
<title>task_ad6d7a35&#45;88f2&#45;4dba&#45;9dc9&#45;b51e69e652a1</title>
<g id="a_task_ad6d7a35&#45;88f2&#45;4dba&#45;9dc9&#45;b51e69e652a1"><a xlink:title="[task] kubeinit.kubeinit.kubeinit_okd : Remove bootstrap node VM storage">
<polygon fill="none" stroke="black" points="1791.4,-575.34 1791.4,-590.25 1565.57,-600.8 1246.19,-600.8 1020.35,-590.25 1020.35,-575.34 1246.19,-564.8 1565.57,-564.8 1791.4,-575.34"/>
<text text-anchor="middle" x="1405.88" y="-579.1" font-family="Times,serif" font-size="14.00">[task] kubeinit.kubeinit.kubeinit_okd : Remove bootstrap node VM storage</text>
</a>
</g>
</g>
<!-- task&#45;deploy&#45;cluster&#45;&gt;task_ad6d7a35&#45;88f2&#45;4dba&#45;9dc9&#45;b51e69e652a1 -->
<g id="edge_ef20ae68&#45;e89b&#45;480b&#45;8471&#45;d9577e60cd91" class="edge">
<title>task&#45;deploy&#45;cluster&#45;&gt;task_ad6d7a35&#45;88f2&#45;4dba&#45;9dc9&#45;b51e69e652a1</title>
<path fill="none" stroke="#000000" stroke-width="2" d="M393.7,-699.68C414.28,-673.9 456.05,-627.69 504.04,-608.8 611.71,-566.4 895.69,-564.32 1116.3,-570.12"/>
<polygon fill="#000000" stroke="#000000" stroke-width="2" points="1116.34,-573.62 1126.43,-570.39 1116.53,-566.62 1116.34,-573.62"/>
<text text-anchor="middle" x="670.54" y="-612.6" font-family="Times,serif" font-size="14.00" fill="#000000">16</text>
</g>
<!-- task_4dbf6c37&#45;1c5a&#45;47a9&#45;9d63&#45;39443f416d17 -->
<g id="task_4dbf6c37&#45;1c5a&#45;47a9&#45;9d63&#45;39443f416d17" class="node">
<title>task_4dbf6c37&#45;1c5a&#45;47a9&#45;9d63&#45;39443f416d17</title>
<g id="a_task_4dbf6c37&#45;1c5a&#45;47a9&#45;9d63&#45;39443f416d17"><a xlink:title="[task] kubeinit.kubeinit.kubeinit_libvirt : Remove old disk images">
<polygon fill="none" stroke="black" points="1745.04,-521.34 1745.04,-536.25 1546.36,-546.8 1265.39,-546.8 1066.71,-536.25 1066.71,-521.34 1265.39,-510.8 1546.36,-510.8 1745.04,-521.34"/>
<text text-anchor="middle" x="1405.88" y="-525.1" font-family="Times,serif" font-size="14.00">[task] kubeinit.kubeinit.kubeinit_libvirt : Remove old disk images</text>
</a>
</g>
</g>
<!-- task&#45;deploy&#45;cluster&#45;&gt;task_4dbf6c37&#45;1c5a&#45;47a9&#45;9d63&#45;39443f416d17 -->
<g id="edge_8637c72e&#45;e482&#45;499e&#45;bc34&#45;272836ae9e5d" class="edge">
<title>task&#45;deploy&#45;cluster&#45;&gt;task_4dbf6c37&#45;1c5a&#45;47a9&#45;9d63&#45;39443f416d17</title>
<path fill="none" stroke="#000000" stroke-width="2" d="M387.07,-699.56C402.05,-663.22 441.17,-582.47 504.04,-549.8 620.65,-489.2 972.17,-499.09 1200.06,-513.06"/>
<polygon fill="#000000" stroke="#000000" stroke-width="2" points="1199.95,-516.55 1210.14,-513.68 1200.38,-509.57 1199.95,-516.55"/>
<text text-anchor="middle" x="670.54" y="-553.6" font-family="Times,serif" font-size="14.00" fill="#000000">17</text>
</g>
<!-- task_440bfb17&#45;7805&#45;411a&#45;aa50&#45;a0b79e4fa6e2 -->
<g id="task_440bfb17&#45;7805&#45;411a&#45;aa50&#45;a0b79e4fa6e2" class="node">
<title>task_440bfb17&#45;7805&#45;411a&#45;aa50&#45;a0b79e4fa6e2</title>
<g id="a_task_440bfb17&#45;7805&#45;411a&#45;aa50&#45;a0b79e4fa6e2"><a xlink:title="[task] kubeinit.kubeinit.kubeinit_libvirt : Set guest images facts">
<polygon fill="none" stroke="black" points="1738.38,-467.34 1738.38,-482.25 1543.6,-492.8 1268.15,-492.8 1073.37,-482.25 1073.37,-467.34 1268.15,-456.8 1543.6,-456.8 1738.38,-467.34"/>
<text text-anchor="middle" x="1405.88" y="-471.1" font-family="Times,serif" font-size="14.00">[task] kubeinit.kubeinit.kubeinit_libvirt : Set guest images facts</text>
</a>
</g>
</g>
<!-- task&#45;deploy&#45;cluster&#45;&gt;task_440bfb17&#45;7805&#45;411a&#45;aa50&#45;a0b79e4fa6e2 -->
<g id="edge_b8fedab1&#45;c6d4&#45;4f82&#45;b320&#45;f8a93112a7b1" class="edge">
<title>task&#45;deploy&#45;cluster&#45;&gt;task_440bfb17&#45;7805&#45;411a&#45;aa50&#45;a0b79e4fa6e2</title>
<path fill="none" stroke="#000000" stroke-width="2" d="M383.32,-699.47C392.5,-653.38 423.55,-532.8 504.04,-483.8 556.48,-451.87 883.46,-455.72 1128.49,-463.47"/>
<polygon fill="#000000" stroke="#000000" stroke-width="2" points="1128.52,-466.98 1138.63,-463.8 1128.75,-459.98 1128.52,-466.98"/>
<text text-anchor="middle" x="670.54" y="-487.6" font-family="Times,serif" font-size="14.00" fill="#000000">18</text>
</g>
<!-- task_7923edae&#45;e365&#45;43ed&#45;8168&#45;4041173b0bbb -->
<g id="task_7923edae&#45;e365&#45;43ed&#45;8168&#45;4041173b0bbb" class="node">
<title>task_7923edae&#45;e365&#45;43ed&#45;8168&#45;4041173b0bbb</title>
<g id="a_task_7923edae&#45;e365&#45;43ed&#45;8168&#45;4041173b0bbb"><a xlink:title="[task] kubeinit.kubeinit.kubeinit_libvirt : Create VM definition for {{ kubeinit_deployment_node_name }}">
<polygon fill="none" stroke="black" points="1946.85,-413.34 1946.85,-428.25 1629.95,-438.8 1181.8,-438.8 864.9,-428.25 864.9,-413.34 1181.8,-402.8 1629.95,-402.8 1946.85,-413.34"/>
<text text-anchor="middle" x="1405.88" y="-417.1" font-family="Times,serif" font-size="14.00">[task] kubeinit.kubeinit.kubeinit_libvirt : Create VM definition for {{ kubeinit_deployment_node_name }}</text>
</a>
</g>
</g>
<!-- task&#45;deploy&#45;cluster&#45;&gt;task_7923edae&#45;e365&#45;43ed&#45;8168&#45;4041173b0bbb -->
<g id="edge_683385dc&#45;ff5b&#45;4863&#45;b379&#45;6da3d235e4e9" class="edge">
<title>task&#45;deploy&#45;cluster&#45;&gt;task_7923edae&#45;e365&#45;43ed&#45;8168&#45;4041173b0bbb</title>
<path fill="none" stroke="#000000" stroke-width="2" d="M381.74,-699.61C387.44,-647.97 411.55,-500.24 504.04,-438.8 545.51,-411.25 768.46,-406.65 982.16,-408.98"/>
<polygon fill="#000000" stroke="#000000" stroke-width="2" points="982.29,-412.48 992.33,-409.1 982.37,-405.49 982.29,-412.48"/>
<text text-anchor="middle" x="670.54" y="-442.6" font-family="Times,serif" font-size="14.00" fill="#000000">19</text>
</g>
<!-- task_c2e1514b&#45;dd64&#45;4042&#45;8364&#45;7b91a95944e4 -->
<g id="task_c2e1514b&#45;dd64&#45;4042&#45;8364&#45;7b91a95944e4" class="node">
<title>task_c2e1514b&#45;dd64&#45;4042&#45;8364&#45;7b91a95944e4</title>
<g id="a_task_c2e1514b&#45;dd64&#45;4042&#45;8364&#45;7b91a95944e4"><a xlink:title="[task] kubeinit.kubeinit.kubeinit_libvirt : Wait until {{ kubeinit_deployment_node_name }} is running">
<polygon fill="none" stroke="black" points="1928.77,-359.34 1928.77,-374.25 1622.46,-384.8 1189.29,-384.8 882.99,-374.25 882.99,-359.34 1189.29,-348.8 1622.46,-348.8 1928.77,-359.34"/>
<text text-anchor="middle" x="1405.88" y="-363.1" font-family="Times,serif" font-size="14.00">[task] kubeinit.kubeinit.kubeinit_libvirt : Wait until {{ kubeinit_deployment_node_name }} is running</text>
</a>
</g>
</g>
<!-- task&#45;deploy&#45;cluster&#45;&gt;task_c2e1514b&#45;dd64&#45;4042&#45;8364&#45;7b91a95944e4 -->
<g id="edge_dd5f3a4c&#45;691b&#45;422f&#45;9312&#45;44196eb175a7" class="edge">
<title>task&#45;deploy&#45;cluster&#45;&gt;task_c2e1514b&#45;dd64&#45;4042&#45;8364&#45;7b91a95944e4</title>
<path fill="none" stroke="#000000" stroke-width="2" d="M380.45,-699.44C382.64,-641.84 398.04,-464.07 504.04,-388.8 543.87,-360.52 759.24,-354.59 969.4,-355.94"/>
<polygon fill="#000000" stroke="#000000" stroke-width="2" points="969.38,-359.44 979.4,-356.01 969.43,-352.44 969.38,-359.44"/>
<text text-anchor="middle" x="670.54" y="-392.6" font-family="Times,serif" font-size="14.00" fill="#000000">20</text>
</g>
<!-- task_4771e792&#45;c731&#45;4f59&#45;b96c&#45;d31b38b33de6 -->
<g id="task_4771e792&#45;c731&#45;4f59&#45;b96c&#45;d31b38b33de6" class="node">
<title>task_4771e792&#45;c731&#45;4f59&#45;b96c&#45;d31b38b33de6</title>
<g id="a_task_4771e792&#45;c731&#45;4f59&#45;b96c&#45;d31b38b33de6"><a xlink:title="[task] kubeinit.kubeinit.kubeinit_okd : verify that all the csr are loaded and aproved for the deployed nodes">
<polygon fill="none" stroke="black" points="1956.55,-305.34 1956.55,-320.25 1633.97,-330.8 1177.78,-330.8 855.21,-320.25 855.21,-305.34 1177.78,-294.8 1633.97,-294.8 1956.55,-305.34"/>
<text text-anchor="middle" x="1405.88" y="-309.1" font-family="Times,serif" font-size="14.00">[task] kubeinit.kubeinit.kubeinit_okd : verify that all the csr are loaded and aproved for the deployed nodes</text>
</a>
</g>
</g>
<!-- task&#45;deploy&#45;cluster&#45;&gt;task_4771e792&#45;c731&#45;4f59&#45;b96c&#45;d31b38b33de6 -->
<g id="edge_93bc0593&#45;468e&#45;409f&#45;aee9&#45;c7f768763253" class="edge">
<title>task&#45;deploy&#45;cluster&#45;&gt;task_4771e792&#45;c731&#45;4f59&#45;b96c&#45;d31b38b33de6</title>
<path fill="none" stroke="#000000" stroke-width="2" d="M379.43,-699.38C378.2,-636.13 383.66,-426.7 504.04,-336.8 541.52,-308.8 740.62,-301.73 942.13,-302.14"/>
<polygon fill="#000000" stroke="#000000" stroke-width="2" points="942.33,-305.64 952.34,-302.16 942.35,-298.64 942.33,-305.64"/>
<text text-anchor="middle" x="670.54" y="-340.6" font-family="Times,serif" font-size="14.00" fill="#000000">21</text>
</g>
<!-- task_b0f946d2&#45;4316&#45;4357&#45;be28&#45;44c2d95465c7 -->
<g id="task_b0f946d2&#45;4316&#45;4357&#45;be28&#45;44c2d95465c7" class="node">
<title>task_b0f946d2&#45;4316&#45;4357&#45;be28&#45;44c2d95465c7</title>
<g id="a_task_b0f946d2&#45;4316&#45;4357&#45;be28&#45;44c2d95465c7"><a xlink:title="[task] kubeinit.kubeinit.kubeinit_okd : wait until all nodes are ready">
<polygon fill="none" stroke="black" points="1758.28,-251.34 1758.28,-266.25 1551.84,-276.8 1259.91,-276.8 1053.48,-266.25 1053.48,-251.34 1259.91,-240.8 1551.84,-240.8 1758.28,-251.34"/>
<text text-anchor="middle" x="1405.88" y="-255.1" font-family="Times,serif" font-size="14.00">[task] kubeinit.kubeinit.kubeinit_okd : wait until all nodes are ready</text>
</a>
</g>
</g>
<!-- task&#45;deploy&#45;cluster&#45;&gt;task_b0f946d2&#45;4316&#45;4357&#45;be28&#45;44c2d95465c7 -->
<g id="edge_2f576020&#45;7ea3&#45;40ac&#45;8850&#45;52c879e783b0" class="edge">
<title>task&#45;deploy&#45;cluster&#45;&gt;task_b0f946d2&#45;4316&#45;4357&#45;be28&#45;44c2d95465c7</title>
<path fill="none" stroke="#000000" stroke-width="2" d="M382.44,-699.64C392.55,-624.12 435.18,-336.23 504.04,-282.8 549.79,-247.29 843.95,-244.83 1083.88,-249.06"/>
<polygon fill="#000000" stroke="#000000" stroke-width="2" points="1084.12,-252.57 1094.18,-249.25 1084.25,-245.57 1084.12,-252.57"/>
<text text-anchor="middle" x="670.54" y="-286.6" font-family="Times,serif" font-size="14.00" fill="#000000">22</text>
</g>
<!-- task_89f8f1dc&#45;5f97&#45;4e84&#45;8e28&#45;d4c13d65b12a -->
<g id="task_89f8f1dc&#45;5f97&#45;4e84&#45;8e28&#45;d4c13d65b12a" class="node">
<title>task_89f8f1dc&#45;5f97&#45;4e84&#45;8e28&#45;d4c13d65b12a</title>
<g id="a_task_89f8f1dc&#45;5f97&#45;4e84&#45;8e28&#45;d4c13d65b12a"><a xlink:title="[task] kubeinit.kubeinit.kubeinit_okd : Copy the kubeconfig">
<polygon fill="none" stroke="black" points="1713.23,-197.34 1713.23,-212.25 1533.19,-222.8 1278.57,-222.8 1098.52,-212.25 1098.52,-197.34 1278.57,-186.8 1533.19,-186.8 1713.23,-197.34"/>
<text text-anchor="middle" x="1405.88" y="-201.1" font-family="Times,serif" font-size="14.00">[task] kubeinit.kubeinit.kubeinit_okd : Copy the kubeconfig</text>
</a>
</g>
</g>
<!-- task&#45;deploy&#45;cluster&#45;&gt;task_89f8f1dc&#45;5f97&#45;4e84&#45;8e28&#45;d4c13d65b12a -->
<g id="edge_068b1b05&#45;42fa&#45;418d&#45;aac2&#45;d08fcd7f8962" class="edge">
<title>task&#45;deploy&#45;cluster&#45;&gt;task_89f8f1dc&#45;5f97&#45;4e84&#45;8e28&#45;d4c13d65b12a</title>
<path fill="none" stroke="#000000" stroke-width="2" d="M381.85,-699.66C390.01,-618.5 427.44,-290.06 504.04,-228.8 551.44,-190.89 872.31,-190.12 1117.74,-195.39"/>
<polygon fill="#000000" stroke="#000000" stroke-width="2" points="1117.82,-198.89 1127.9,-195.61 1117.98,-191.9 1117.82,-198.89"/>
<text text-anchor="middle" x="670.54" y="-232.6" font-family="Times,serif" font-size="14.00" fill="#000000">23</text>
</g>
<!-- task_ce081597&#45;f43c&#45;461b&#45;8d9e&#45;a87b4834e6af -->
<g id="task_ce081597&#45;f43c&#45;461b&#45;8d9e&#45;a87b4834e6af" class="node">
<title>task_ce081597&#45;f43c&#45;461b&#45;8d9e&#45;a87b4834e6af</title>
<g id="a_task_ce081597&#45;f43c&#45;461b&#45;8d9e&#45;a87b4834e6af"><a xlink:title="[task] kubeinit.kubeinit.kubeinit_okd : Get some final cluster information">
<polygon fill="none" stroke="black" points="1783.02,-143.34 1783.02,-158.25 1562.09,-168.8 1249.66,-168.8 1028.73,-158.25 1028.73,-143.34 1249.66,-132.8 1562.09,-132.8 1783.02,-143.34"/>
<text text-anchor="middle" x="1405.88" y="-147.1" font-family="Times,serif" font-size="14.00">[task] kubeinit.kubeinit.kubeinit_okd : Get some final cluster information</text>
</a>
</g>
</g>
<!-- task&#45;deploy&#45;cluster&#45;&gt;task_ce081597&#45;f43c&#45;461b&#45;8d9e&#45;a87b4834e6af -->
<g id="edge_259fb7f4&#45;4035&#45;4689&#45;9ebe&#45;e539f459cbab" class="edge">
<title>task&#45;deploy&#45;cluster&#45;&gt;task_ce081597&#45;f43c&#45;461b&#45;8d9e&#45;a87b4834e6af</title>
<path fill="none" stroke="#000000" stroke-width="2" d="M381.35,-699.71C387.68,-613.2 419.45,-243.07 504.04,-173.8 548.81,-137.14 842.67,-135.17 1082.77,-140.04"/>
<polygon fill="#000000" stroke="#000000" stroke-width="2" points="1083.02,-143.54 1093.09,-140.25 1083.16,-136.54 1083.02,-143.54"/>
<text text-anchor="middle" x="670.54" y="-177.6" font-family="Times,serif" font-size="14.00" fill="#000000">24</text>
</g>
<!-- task_db03c463&#45;db5c&#45;400f&#45;8ae1&#45;13525a67db69 -->
<g id="task_db03c463&#45;db5c&#45;400f&#45;8ae1&#45;13525a67db69" class="node">
<title>task_db03c463&#45;db5c&#45;400f&#45;8ae1&#45;13525a67db69</title>
<g id="a_task_db03c463&#45;db5c&#45;400f&#45;8ae1&#45;13525a67db69"><a xlink:title="[task] kubeinit.kubeinit.kubeinit_okd : Display final debug info">
<polygon fill="none" stroke="black" points="1730,-89.34 1730,-104.25 1540.13,-114.8 1271.62,-114.8 1081.76,-104.25 1081.76,-89.34 1271.62,-78.8 1540.13,-78.8 1730,-89.34"/>
<text text-anchor="middle" x="1405.88" y="-93.1" font-family="Times,serif" font-size="14.00">[task] kubeinit.kubeinit.kubeinit_okd : Display final debug info</text>
</a>
</g>
</g>
<!-- task&#45;deploy&#45;cluster&#45;&gt;task_db03c463&#45;db5c&#45;400f&#45;8ae1&#45;13525a67db69 -->
<g id="edge_1cc69115&#45;83a6&#45;41d0&#45;8cdd&#45;738eaa751af8" class="edge">
<title>task&#45;deploy&#45;cluster&#45;&gt;task_db03c463&#45;db5c&#45;400f&#45;8ae1&#45;13525a67db69</title>
<path fill="none" stroke="#000000" stroke-width="2" d="M380.94,-699.76C385.58,-608.18 411.41,-196.12 504.04,-118.8 550.85,-79.72 874.74,-80.08 1120.87,-86.34"/>
<polygon fill="#000000" stroke="#000000" stroke-width="2" points="1120.97,-89.84 1131.06,-86.6 1121.15,-82.84 1120.97,-89.84"/>
<text text-anchor="middle" x="670.54" y="-122.6" font-family="Times,serif" font-size="14.00" fill="#000000">25</text>
</g>
<!-- task_c7febc10&#45;8345&#45;4839&#45;8ab6&#45;e10cfb3934fe -->
<g id="task_c7febc10&#45;8345&#45;4839&#45;8ab6&#45;e10cfb3934fe" class="node">
<title>task_c7febc10&#45;8345&#45;4839&#45;8ab6&#45;e10cfb3934fe</title>
<g id="a_task_c7febc10&#45;8345&#45;4839&#45;8ab6&#45;e10cfb3934fe"><a xlink:title="[task] kubeinit.kubeinit.kubeinit_okd : Print some final data">
<polygon fill="none" stroke="black" points="1716.36,-35.34 1716.36,-50.25 1534.48,-60.8 1277.27,-60.8 1095.4,-50.25 1095.4,-35.34 1277.27,-24.8 1534.48,-24.8 1716.36,-35.34"/>
<text text-anchor="middle" x="1405.88" y="-39.1" font-family="Times,serif" font-size="14.00">[task] kubeinit.kubeinit.kubeinit_okd : Print some final data</text>
</a>
</g>
</g>
<!-- task&#45;deploy&#45;cluster&#45;&gt;task_c7febc10&#45;8345&#45;4839&#45;8ab6&#45;e10cfb3934fe -->
<g id="edge_3e0fffff&#45;3e41&#45;4c53&#45;9bcc&#45;de28417d08dd" class="edge">
<title>task&#45;deploy&#45;cluster&#45;&gt;task_c7febc10&#45;8345&#45;4839&#45;8ab6&#45;e10cfb3934fe</title>
<path fill="none" stroke="#000000" stroke-width="2" d="M380.61,-699.73C383.67,-603.18 403.35,-149.2 504.04,-63.8 613.3,28.87 1027.32,-0.31 1254.1,-24.42"/>
<polygon fill="#000000" stroke="#000000" stroke-width="2" points="1253.77,-27.9 1264.08,-25.49 1254.51,-20.94 1253.77,-27.9"/>
<text text-anchor="middle" x="670.54" y="-67.6" font-family="Times,serif" font-size="14.00" fill="#000000">26</text>
</g>
</g>
</svg>
