<?xml version="1.0" encoding="UTF-8" standalone="no"?>
<!DOCTYPE svg PUBLIC "-//W3C//DTD SVG 1.1//EN"
 "http://www.w3.org/Graphics/SVG/1.1/DTD/svg11.dtd">
<!-- Generated by graphviz version 2.43.0 (0)
 -->
<!-- Title: kubeinit/playbook.yml  Pages: 1 -->
<svg width="2537pt" height="1467pt"
 viewBox="0.00 0.00 2537.49 1467.23" xmlns="http://www.w3.org/2000/svg" xmlns:xlink="http://www.w3.org/1999/xlink">
<g id="graph0" class="graph" transform="scale(1 1) rotate(0) translate(4 1463.23)">
<title>kubeinit/playbook.yml </title>
<polygon fill="white" stroke="transparent" points="-4,4 -4,-1463.23 2533.49,-1463.23 2533.49,4 -4,4"/>
<!-- kubeinit/playbook.yml -->
<g id="root_node" class="node">
<title>kubeinit/playbook.yml</title>
<ellipse fill="none" stroke="black" stroke-dasharray="1,5" cx="113.09" cy="-748.23" rx="113.18" ry="18"/>
<text text-anchor="middle" x="113.09" y="-744.53" font-family="Times,serif" font-size="14.00">kubeinit/playbook.yml</text>
</g>
<!-- task&#45;create&#45;network -->
<g id="play_7aa310bd&#45;0eec&#45;4929&#45;8f67&#45;d7cf78f135c1" class="node">
<title>task&#45;create&#45;network</title>
<g id="a_play_7aa310bd&#45;0eec&#45;4929&#45;8f67&#45;d7cf78f135c1"><a xlink:title="localhost">
<polygon fill="none" stroke="#000000" points="495.75,-740.77 495.75,-755.68 430.31,-766.23 337.76,-766.23 272.32,-755.68 272.32,-740.77 337.76,-730.23 430.31,-730.23 495.75,-740.77"/>
<text text-anchor="middle" x="384.04" y="-744.53" font-family="Times,serif" font-size="14.00" fill="#000000">task&#45;create&#45;network</text>
</a>
</g>
</g>
<!-- kubeinit/playbook.yml&#45;&gt;task&#45;create&#45;network -->
<g id="edge_1bf30fdb&#45;59fc&#45;40b6&#45;a1a6&#45;860c25338cc3" class="edge">
<title>kubeinit/playbook.yml&#45;&gt;task&#45;create&#45;network</title>
<path fill="none" stroke="#000000" stroke-width="2" d="M226.2,-748.23C237.9,-748.23 249.84,-748.23 261.64,-748.23"/>
<polygon fill="#000000" stroke="#000000" stroke-width="2" points="261.97,-751.73 271.97,-748.23 261.97,-744.73 261.97,-751.73"/>
<text text-anchor="middle" x="249.18" y="-752.03" font-family="Times,serif" font-size="14.00" fill="#000000">3</text>
</g>
<!-- task_193aa535&#45;85e3&#45;456f&#45;b1af&#45;017cdc2e529a -->
<g id="task_193aa535&#45;85e3&#45;456f&#45;b1af&#45;017cdc2e529a" class="node">
<title>task_193aa535&#45;85e3&#45;456f&#45;b1af&#45;017cdc2e529a</title>
<g id="a_task_193aa535&#45;85e3&#45;456f&#45;b1af&#45;017cdc2e529a"><a xlink:title="[task] kubeinit.kubeinit.kubeinit_libvirt : Install OVN central packages in CentOS/RHEL">
<polygon fill="none" stroke="black" points="2376.07,-1415.77 2376.07,-1430.68 2111.95,-1441.23 1738.43,-1441.23 1474.31,-1430.68 1474.31,-1415.77 1738.43,-1405.23 2111.95,-1405.23 2376.07,-1415.77"/>
<text text-anchor="middle" x="1925.19" y="-1419.53" font-family="Times,serif" font-size="14.00">[task] kubeinit.kubeinit.kubeinit_libvirt : Install OVN central packages in CentOS/RHEL</text>
</a>
</g>
</g>
<!-- task&#45;create&#45;network&#45;&gt;task_193aa535&#45;85e3&#45;456f&#45;b1af&#45;017cdc2e529a -->
<g id="edge_cbaddf23&#45;1033&#45;43a7&#45;8e83&#45;7c481aab0e8a" class="edge">
<title>task&#45;create&#45;network&#45;&gt;task_193aa535&#45;85e3&#45;456f&#45;b1af&#45;017cdc2e529a</title>
<path fill="none" stroke="#000000" stroke-width="2" d="M385.75,-766.26C389.94,-861.61 414.66,-1305.95 513.89,-1389.23 594.86,-1457.18 1207.98,-1448.95 1598.7,-1436.38"/>
<polygon fill="#000000" stroke="#000000" stroke-width="2" points="1598.87,-1439.87 1608.75,-1436.05 1598.65,-1432.88 1598.87,-1439.87"/>
<text text-anchor="middle" x="908.39" y="-1448.03" font-family="Times,serif" font-size="14.00" fill="#000000">1 &#160;[when: hostvars[kubeinit_ovn_central_host].distribution_family == &#39;CentOS&#39;]</text>
</g>
<!-- task_e856b536&#45;7339&#45;48e0&#45;8da1&#45;d76cc9e377f9 -->
<g id="task_e856b536&#45;7339&#45;48e0&#45;8da1&#45;d76cc9e377f9" class="node">
<title>task_e856b536&#45;7339&#45;48e0&#45;8da1&#45;d76cc9e377f9</title>
<g id="a_task_e856b536&#45;7339&#45;48e0&#45;8da1&#45;d76cc9e377f9"><a xlink:title="[task] kubeinit.kubeinit.kubeinit_libvirt : Install OVN central packages in Fedora">
<polygon fill="none" stroke="black" points="2340.31,-1361.77 2340.31,-1376.68 2097.14,-1387.23 1753.24,-1387.23 1510.07,-1376.68 1510.07,-1361.77 1753.24,-1351.23 2097.14,-1351.23 2340.31,-1361.77"/>
<text text-anchor="middle" x="1925.19" y="-1365.53" font-family="Times,serif" font-size="14.00">[task] kubeinit.kubeinit.kubeinit_libvirt : Install OVN central packages in Fedora</text>
</a>
</g>
</g>
<!-- task&#45;create&#45;network&#45;&gt;task_e856b536&#45;7339&#45;48e0&#45;8da1&#45;d76cc9e377f9 -->
<g id="edge_b5ea0c38&#45;9c49&#45;4ea9&#45;aa8b&#45;96a8fdb7edc1" class="edge">
<title>task&#45;create&#45;network&#45;&gt;task_e856b536&#45;7339&#45;48e0&#45;8da1&#45;d76cc9e377f9</title>
<path fill="none" stroke="#000000" stroke-width="2" d="M386.12,-766.52C391.94,-857.51 422.61,-1259.99 513.89,-1335.23 551.87,-1366.54 1098.42,-1371.93 1499.75,-1371.61"/>
<polygon fill="#000000" stroke="#000000" stroke-width="2" points="1499.8,-1375.11 1509.8,-1371.6 1499.8,-1368.11 1499.8,-1375.11"/>
<text text-anchor="middle" x="908.39" y="-1374.03" font-family="Times,serif" font-size="14.00" fill="#000000">2 &#160;[when: hostvars[kubeinit_ovn_central_host].distribution_family == &#39;Fedora&#39;]</text>
</g>
<!-- task_989e47bc&#45;ac1e&#45;4563&#45;80e0&#45;d818c630697b -->
<g id="task_989e47bc&#45;ac1e&#45;4563&#45;80e0&#45;d818c630697b" class="node">
<title>task_989e47bc&#45;ac1e&#45;4563&#45;80e0&#45;d818c630697b</title>
<g id="a_task_989e47bc&#45;ac1e&#45;4563&#45;80e0&#45;d818c630697b"><a xlink:title="[task] kubeinit.kubeinit.kubeinit_libvirt : Install OVN central packages in Ubuntu/Debian">
<polygon fill="none" stroke="black" points="2381.82,-1307.77 2381.82,-1322.68 2114.33,-1333.23 1736.05,-1333.23 1468.56,-1322.68 1468.56,-1307.77 1736.05,-1297.23 2114.33,-1297.23 2381.82,-1307.77"/>
<text text-anchor="middle" x="1925.19" y="-1311.53" font-family="Times,serif" font-size="14.00">[task] kubeinit.kubeinit.kubeinit_libvirt : Install OVN central packages in Ubuntu/Debian</text>
</a>
</g>
</g>
<!-- task&#45;create&#45;network&#45;&gt;task_989e47bc&#45;ac1e&#45;4563&#45;80e0&#45;d818c630697b -->
<g id="edge_ca3bbc0d&#45;0c7d&#45;4b23&#45;b62e&#45;0e0a6fb29e4b" class="edge">
<title>task&#45;create&#45;network&#45;&gt;task_989e47bc&#45;ac1e&#45;4563&#45;80e0&#45;d818c630697b</title>
<path fill="none" stroke="#000000" stroke-width="2" d="M386.53,-766.25C394,-851.61 430.35,-1213.83 513.89,-1281.23 550.89,-1311.08 1061.92,-1317.23 1458.29,-1317.44"/>
<polygon fill="#000000" stroke="#000000" stroke-width="2" points="1458.51,-1320.94 1468.51,-1317.45 1458.51,-1313.94 1458.51,-1320.94"/>
<text text-anchor="middle" x="908.39" y="-1320.03" font-family="Times,serif" font-size="14.00" fill="#000000">3 &#160;[when: hostvars[kubeinit_ovn_central_host].distribution_family == &#39;Debian&#39;]</text>
</g>
<!-- task_8234e727&#45;ee09&#45;4163&#45;b88d&#45;007f91ff4c58 -->
<g id="task_8234e727&#45;ee09&#45;4163&#45;b88d&#45;007f91ff4c58" class="node">
<title>task_8234e727&#45;ee09&#45;4163&#45;b88d&#45;007f91ff4c58</title>
<g id="a_task_8234e727&#45;ee09&#45;4163&#45;b88d&#45;007f91ff4c58"><a xlink:title="[task] kubeinit.kubeinit.kubeinit_libvirt : Collect all HVs which are not the ovn&#45;central host">
<polygon fill="none" stroke="black" points="2392.84,-1253.77 2392.84,-1268.68 2118.9,-1279.23 1731.49,-1279.23 1457.55,-1268.68 1457.55,-1253.77 1731.49,-1243.23 2118.9,-1243.23 2392.84,-1253.77"/>
<text text-anchor="middle" x="1925.19" y="-1257.53" font-family="Times,serif" font-size="14.00">[task] kubeinit.kubeinit.kubeinit_libvirt : Collect all HVs which are not the ovn&#45;central host</text>
</a>
</g>
</g>
<!-- task&#45;create&#45;network&#45;&gt;task_8234e727&#45;ee09&#45;4163&#45;b88d&#45;007f91ff4c58 -->
<g id="edge_8897e268&#45;6ee5&#45;4257&#45;9fef&#45;4e6cb8afdbb9" class="edge">
<title>task&#45;create&#45;network&#45;&gt;task_8234e727&#45;ee09&#45;4163&#45;b88d&#45;007f91ff4c58</title>
<path fill="none" stroke="#000000" stroke-width="2" d="M387.05,-766.28C396.37,-846.31 438.14,-1167.7 513.89,-1227.23 550.91,-1256.32 1052.48,-1262.73 1447.05,-1263.21"/>
<polygon fill="#000000" stroke="#000000" stroke-width="2" points="1447.22,-1266.71 1457.23,-1263.22 1447.23,-1259.71 1447.22,-1266.71"/>
<text text-anchor="middle" x="908.39" y="-1266.03" font-family="Times,serif" font-size="14.00" fill="#000000">4 &#160;[when: ovn_host not in kubeinit_ovn_central_host]</text>
</g>
<!-- task_795274a1&#45;515a&#45;46db&#45;8d1a&#45;b8c3a46e5e33 -->
<g id="task_795274a1&#45;515a&#45;46db&#45;8d1a&#45;b8c3a46e5e33" class="node">
<title>task_795274a1&#45;515a&#45;46db&#45;8d1a&#45;b8c3a46e5e33</title>
<g id="a_task_795274a1&#45;515a&#45;46db&#45;8d1a&#45;b8c3a46e5e33"><a xlink:title="[task] kubeinit.kubeinit.kubeinit_libvirt : Install OVN host packages in CentOS/RHEL">
<polygon fill="none" stroke="black" points="2362.84,-1199.77 2362.84,-1214.68 2106.47,-1225.23 1743.91,-1225.23 1487.55,-1214.68 1487.55,-1199.77 1743.91,-1189.23 2106.47,-1189.23 2362.84,-1199.77"/>
<text text-anchor="middle" x="1925.19" y="-1203.53" font-family="Times,serif" font-size="14.00">[task] kubeinit.kubeinit.kubeinit_libvirt : Install OVN host packages in CentOS/RHEL</text>
</a>
</g>
</g>
<!-- task&#45;create&#45;network&#45;&gt;task_795274a1&#45;515a&#45;46db&#45;8d1a&#45;b8c3a46e5e33 -->
<g id="edge_bb28f7cd&#45;70ff&#45;4cd0&#45;9f63&#45;53dbad9bd884" class="edge">
<title>task&#45;create&#45;network&#45;&gt;task_795274a1&#45;515a&#45;46db&#45;8d1a&#45;b8c3a46e5e33</title>
<path fill="none" stroke="#000000" stroke-width="2" d="M387.68,-766.28C398.96,-840.71 445.7,-1122.37 513.89,-1174.23 552.32,-1203.46 1078.6,-1209.2 1477.08,-1209.3"/>
<polygon fill="#000000" stroke="#000000" stroke-width="2" points="1477.36,-1212.8 1487.36,-1209.3 1477.36,-1205.8 1477.36,-1212.8"/>
<text text-anchor="middle" x="908.39" y="-1212.03" font-family="Times,serif" font-size="14.00" fill="#000000">5 &#160;[when: hostvars[ovn_host].distribution_family == &#39;CentOS&#39;]</text>
</g>
<!-- task_d4a0bde0&#45;f6bd&#45;41b2&#45;a7c6&#45;9d4b15d131d7 -->
<g id="task_d4a0bde0&#45;f6bd&#45;41b2&#45;a7c6&#45;9d4b15d131d7" class="node">
<title>task_d4a0bde0&#45;f6bd&#45;41b2&#45;a7c6&#45;9d4b15d131d7</title>
<g id="a_task_d4a0bde0&#45;f6bd&#45;41b2&#45;a7c6&#45;9d4b15d131d7"><a xlink:title="[task] kubeinit.kubeinit.kubeinit_libvirt : Install OVN host packages in Fedora">
<polygon fill="none" stroke="black" points="2326.17,-1145.77 2326.17,-1160.68 2091.28,-1171.23 1759.1,-1171.23 1524.21,-1160.68 1524.21,-1145.77 1759.1,-1135.23 2091.28,-1135.23 2326.17,-1145.77"/>
<text text-anchor="middle" x="1925.19" y="-1149.53" font-family="Times,serif" font-size="14.00">[task] kubeinit.kubeinit.kubeinit_libvirt : Install OVN host packages in Fedora</text>
</a>
</g>
</g>
<!-- task&#45;create&#45;network&#45;&gt;task_d4a0bde0&#45;f6bd&#45;41b2&#45;a7c6&#45;9d4b15d131d7 -->
<g id="edge_9ad798dd&#45;89cb&#45;4e44&#45;8f4a&#45;6dd063387694" class="edge">
<title>task&#45;create&#45;network&#45;&gt;task_d4a0bde0&#45;f6bd&#45;41b2&#45;a7c6&#45;9d4b15d131d7</title>
<path fill="none" stroke="#000000" stroke-width="2" d="M384.69,-766.41C384.62,-828.86 393.79,-1035.56 513.89,-1123.23 554.09,-1152.57 1112.02,-1156.74 1513.88,-1155.88"/>
<polygon fill="#000000" stroke="#000000" stroke-width="2" points="1513.94,-1159.38 1523.93,-1155.86 1513.92,-1152.38 1513.94,-1159.38"/>
<text text-anchor="middle" x="908.39" y="-1159.03" font-family="Times,serif" font-size="14.00" fill="#000000">6 &#160;[when: hostvars[ovn_host].distribution_family == &#39;Fedora&#39;]</text>
</g>
<!-- task_b228d98a&#45;1daa&#45;455b&#45;9fed&#45;019acdc8941b -->
<g id="task_b228d98a&#45;1daa&#45;455b&#45;9fed&#45;019acdc8941b" class="node">
<title>task_b228d98a&#45;1daa&#45;455b&#45;9fed&#45;019acdc8941b</title>
<g id="a_task_b228d98a&#45;1daa&#45;455b&#45;9fed&#45;019acdc8941b"><a xlink:title="[task] kubeinit.kubeinit.kubeinit_libvirt : Install OVN host packages in Ubuntu/Debian">
<polygon fill="none" stroke="black" points="2367.68,-1091.77 2367.68,-1106.68 2108.48,-1117.23 1741.9,-1117.23 1482.7,-1106.68 1482.7,-1091.77 1741.9,-1081.23 2108.48,-1081.23 2367.68,-1091.77"/>
<text text-anchor="middle" x="1925.19" y="-1095.53" font-family="Times,serif" font-size="14.00">[task] kubeinit.kubeinit.kubeinit_libvirt : Install OVN host packages in Ubuntu/Debian</text>
</a>
</g>
</g>
<!-- task&#45;create&#45;network&#45;&gt;task_b228d98a&#45;1daa&#45;455b&#45;9fed&#45;019acdc8941b -->
<g id="edge_8219907e&#45;6135&#45;4c6b&#45;b8b6&#45;046999aeaa46" class="edge">
<title>task&#45;create&#45;network&#45;&gt;task_b228d98a&#45;1daa&#45;455b&#45;9fed&#45;019acdc8941b</title>
<path fill="none" stroke="#000000" stroke-width="2" d="M385.61,-766.25C388.54,-823.61 406.29,-1002.57 513.89,-1077.23 553.36,-1104.62 1074.6,-1106.69 1471.99,-1104.2"/>
<polygon fill="#000000" stroke="#000000" stroke-width="2" points="1472.26,-1107.69 1482.24,-1104.13 1472.21,-1100.69 1472.26,-1107.69"/>
<text text-anchor="middle" x="908.39" y="-1108.03" font-family="Times,serif" font-size="14.00" fill="#000000">7 &#160;[when: hostvars[ovn_host].distribution_family == &#39;Debian&#39;]</text>
</g>
<!-- task_e31bbd27&#45;e193&#45;4f51&#45;a920&#45;4db0aeffa3a8 -->
<g id="task_e31bbd27&#45;e193&#45;4f51&#45;a920&#45;4db0aeffa3a8" class="node">
<title>task_e31bbd27&#45;e193&#45;4f51&#45;a920&#45;4db0aeffa3a8</title>
<g id="a_task_e31bbd27&#45;e193&#45;4f51&#45;a920&#45;4db0aeffa3a8"><a xlink:title="[task] kubeinit.kubeinit.kubeinit_libvirt : Refresh firewalld services list to pick up ovn services">
<polygon fill="none" stroke="black" points="2410.51,-1037.77 2410.51,-1052.68 2126.22,-1063.23 1724.16,-1063.23 1439.87,-1052.68 1439.87,-1037.77 1724.16,-1027.23 2126.22,-1027.23 2410.51,-1037.77"/>
<text text-anchor="middle" x="1925.19" y="-1041.53" font-family="Times,serif" font-size="14.00">[task] kubeinit.kubeinit.kubeinit_libvirt : Refresh firewalld services list to pick up ovn services</text>
</a>
</g>
</g>
<!-- task&#45;create&#45;network&#45;&gt;task_e31bbd27&#45;e193&#45;4f51&#45;a920&#45;4db0aeffa3a8 -->
<g id="edge_af8cc582&#45;e100&#45;4022&#45;8900&#45;55cb129170ab" class="edge">
<title>task&#45;create&#45;network&#45;&gt;task_e31bbd27&#45;e193&#45;4f51&#45;a920&#45;4db0aeffa3a8</title>
<path fill="none" stroke="#000000" stroke-width="2" d="M387.43,-766.26C395.1,-816.07 424.12,-955.63 513.89,-1013.23 598.08,-1067.24 1149.12,-1065.35 1536.9,-1056.91"/>
<polygon fill="#000000" stroke="#000000" stroke-width="2" points="1537.26,-1060.4 1547.18,-1056.68 1537.11,-1053.4 1537.26,-1060.4"/>
<text text-anchor="middle" x="908.39" y="-1065.03" font-family="Times,serif" font-size="14.00" fill="#000000">8 &#160;[when: hostvars[ovn_host].firewalld_is_active]</text>
</g>
<!-- task_37f3989a&#45;399d&#45;47d6&#45;998a&#45;18030a1edf26 -->
<g id="task_37f3989a&#45;399d&#45;47d6&#45;998a&#45;18030a1edf26" class="node">
<title>task_37f3989a&#45;399d&#45;47d6&#45;998a&#45;18030a1edf26</title>
<g id="a_task_37f3989a&#45;399d&#45;47d6&#45;998a&#45;18030a1edf26"><a xlink:title="[task] kubeinit.kubeinit.kubeinit_libvirt : Enable OVN central in firewalld">
<polygon fill="none" stroke="black" points="2302.33,-983.77 2302.33,-998.68 2081.41,-1009.23 1768.97,-1009.23 1548.05,-998.68 1548.05,-983.77 1768.97,-973.23 2081.41,-973.23 2302.33,-983.77"/>
<text text-anchor="middle" x="1925.19" y="-987.53" font-family="Times,serif" font-size="14.00">[task] kubeinit.kubeinit.kubeinit_libvirt : Enable OVN central in firewalld</text>
</a>
</g>
</g>
<!-- task&#45;create&#45;network&#45;&gt;task_37f3989a&#45;399d&#45;47d6&#45;998a&#45;18030a1edf26 -->
<g id="edge_af63bc1a&#45;c436&#45;4a63&#45;b9f2&#45;8cc498da41df" class="edge">
<title>task&#45;create&#45;network&#45;&gt;task_37f3989a&#45;399d&#45;47d6&#45;998a&#45;18030a1edf26</title>
<path fill="none" stroke="#000000" stroke-width="2" d="M389.26,-766.46C400.56,-810.58 436.11,-922.8 513.89,-968.23 557.68,-993.81 1135.47,-995.91 1537.74,-994.21"/>
<polygon fill="#000000" stroke="#000000" stroke-width="2" points="1537.82,-997.71 1547.8,-994.17 1537.79,-990.71 1537.82,-997.71"/>
<text text-anchor="middle" x="908.39" y="-998.03" font-family="Times,serif" font-size="14.00" fill="#000000">9 &#160;[when: hostvars[kubeinit_ovn_central_host].firewalld_is_active]</text>
</g>
<!-- task_ab9d1630&#45;96a0&#45;4ddb&#45;8886&#45;d35e8d3400bd -->
<g id="task_ab9d1630&#45;96a0&#45;4ddb&#45;8886&#45;d35e8d3400bd" class="node">
<title>task_ab9d1630&#45;96a0&#45;4ddb&#45;8886&#45;d35e8d3400bd</title>
<g id="a_task_ab9d1630&#45;96a0&#45;4ddb&#45;8886&#45;d35e8d3400bd"><a xlink:title="[task] kubeinit.kubeinit.kubeinit_libvirt : Enable OVN NAT in firewalld">
<polygon fill="none" stroke="black" points="2288.19,-929.77 2288.19,-944.68 2075.55,-955.23 1774.83,-955.23 1562.19,-944.68 1562.19,-929.77 1774.83,-919.23 2075.55,-919.23 2288.19,-929.77"/>
<text text-anchor="middle" x="1925.19" y="-933.53" font-family="Times,serif" font-size="14.00">[task] kubeinit.kubeinit.kubeinit_libvirt : Enable OVN NAT in firewalld</text>
</a>
</g>
</g>
<!-- task&#45;create&#45;network&#45;&gt;task_ab9d1630&#45;96a0&#45;4ddb&#45;8886&#45;d35e8d3400bd -->
<g id="edge_8e6df574&#45;094c&#45;4d6d&#45;9a63&#45;b15d2bab1c85" class="edge">
<title>task&#45;create&#45;network&#45;&gt;task_ab9d1630&#45;96a0&#45;4ddb&#45;8886&#45;d35e8d3400bd</title>
<path fill="none" stroke="#000000" stroke-width="2" d="M392.96,-766.31C409.5,-801.5 451.43,-878.45 513.89,-909.23 605.95,-954.59 1182.2,-952.55 1569.03,-945.74"/>
<polygon fill="#000000" stroke="#000000" stroke-width="2" points="1569.34,-949.23 1579.27,-945.56 1569.21,-942.23 1569.34,-949.23"/>
<text text-anchor="middle" x="908.39" y="-953.03" font-family="Times,serif" font-size="14.00" fill="#000000">10 &#160;[when: hostvars[kubeinit_ovn_central_host].firewalld_is_active]</text>
</g>
<!-- task_e3d342eb&#45;9bf9&#45;484b&#45;9e07&#45;719b2f3fd219 -->
<g id="task_e3d342eb&#45;9bf9&#45;484b&#45;9e07&#45;719b2f3fd219" class="node">
<title>task_e3d342eb&#45;9bf9&#45;484b&#45;9e07&#45;719b2f3fd219</title>
<g id="a_task_e3d342eb&#45;9bf9&#45;484b&#45;9e07&#45;719b2f3fd219"><a xlink:title="[task] kubeinit.kubeinit.kubeinit_libvirt : Enable OVN host in firewalld">
<polygon fill="none" stroke="black" points="2289.1,-875.77 2289.1,-890.68 2075.93,-901.23 1774.45,-901.23 1561.28,-890.68 1561.28,-875.77 1774.45,-865.23 2075.93,-865.23 2289.1,-875.77"/>
<text text-anchor="middle" x="1925.19" y="-879.53" font-family="Times,serif" font-size="14.00">[task] kubeinit.kubeinit.kubeinit_libvirt : Enable OVN host in firewalld</text>
</a>
</g>
</g>
<!-- task&#45;create&#45;network&#45;&gt;task_e3d342eb&#45;9bf9&#45;484b&#45;9e07&#45;719b2f3fd219 -->
<g id="edge_0b3a630a&#45;0c5f&#45;4d45&#45;90d0&#45;362d91059c3d" class="edge">
<title>task&#45;create&#45;network&#45;&gt;task_e3d342eb&#45;9bf9&#45;484b&#45;9e07&#45;719b2f3fd219</title>
<path fill="none" stroke="#000000" stroke-width="2" d="M399.35,-766.26C420.97,-791.89 464.69,-837.8 513.89,-856.23 608.4,-891.63 1166,-892.63 1551.09,-888.86"/>
<polygon fill="#000000" stroke="#000000" stroke-width="2" points="1551.33,-892.36 1561.29,-888.76 1551.26,-885.36 1551.33,-892.36"/>
<text text-anchor="middle" x="908.39" y="-894.03" font-family="Times,serif" font-size="14.00" fill="#000000">11 &#160;[when: hostvars[ovn_host].firewalld_is_active]</text>
</g>
<!-- task_ccada0b0&#45;baec&#45;44ee&#45;a5f9&#45;dd71ed797231 -->
<g id="task_ccada0b0&#45;baec&#45;44ee&#45;a5f9&#45;dd71ed797231" class="node">
<title>task_ccada0b0&#45;baec&#45;44ee&#45;a5f9&#45;dd71ed797231</title>
<g id="a_task_ccada0b0&#45;baec&#45;44ee&#45;a5f9&#45;dd71ed797231"><a xlink:title="[task] kubeinit.kubeinit.kubeinit_libvirt : Refresh firewalld services list">
<polygon fill="none" stroke="black" points="2292.64,-821.77 2292.64,-836.68 2077.39,-847.23 1772.99,-847.23 1557.74,-836.68 1557.74,-821.77 1772.99,-811.23 2077.39,-811.23 2292.64,-821.77"/>
<text text-anchor="middle" x="1925.19" y="-825.53" font-family="Times,serif" font-size="14.00">[task] kubeinit.kubeinit.kubeinit_libvirt : Refresh firewalld services list</text>
</a>
</g>
</g>
<!-- task&#45;create&#45;network&#45;&gt;task_ccada0b0&#45;baec&#45;44ee&#45;a5f9&#45;dd71ed797231 -->
<g id="edge_dfcf5394&#45;83d1&#45;44a6&#45;a82c&#45;e441dd890006" class="edge">
<title>task&#45;create&#45;network&#45;&gt;task_ccada0b0&#45;baec&#45;44ee&#45;a5f9&#45;dd71ed797231</title>
<path fill="none" stroke="#000000" stroke-width="2" d="M438.08,-765.1C461.13,-771.68 488.6,-778.52 513.89,-782.23 880.54,-836.01 1306.31,-842.64 1593.3,-839.07"/>
<polygon fill="#000000" stroke="#000000" stroke-width="2" points="1593.5,-842.57 1603.45,-838.94 1593.41,-835.57 1593.5,-842.57"/>
<text text-anchor="middle" x="908.39" y="-841.03" font-family="Times,serif" font-size="14.00" fill="#000000">12 &#160;[when: hostvars[ovn_host].firewalld_is_active]</text>
</g>
<!-- task_b6e734af&#45;62c7&#45;43fe&#45;b2ab&#45;906b74668a15 -->
<g id="task_b6e734af&#45;62c7&#45;43fe&#45;b2ab&#45;906b74668a15" class="node">
<title>task_b6e734af&#45;62c7&#45;43fe&#45;b2ab&#45;906b74668a15</title>
<g id="a_task_b6e734af&#45;62c7&#45;43fe&#45;b2ab&#45;906b74668a15"><a xlink:title="[task] kubeinit.kubeinit.kubeinit_libvirt : Enable and start OVN services in the ovn&#45;central hypervisor (CentOS based)">
<polygon fill="none" stroke="black" points="2527.98,-767.77 2527.98,-782.68 2174.87,-793.23 1675.51,-793.23 1322.4,-782.68 1322.4,-767.77 1675.51,-757.23 2174.87,-757.23 2527.98,-767.77"/>
<text text-anchor="middle" x="1925.19" y="-771.53" font-family="Times,serif" font-size="14.00">[task] kubeinit.kubeinit.kubeinit_libvirt : Enable and start OVN services in the ovn&#45;central hypervisor (CentOS based)</text>
</a>
</g>
</g>
<!-- task&#45;create&#45;network&#45;&gt;task_b6e734af&#45;62c7&#45;43fe&#45;b2ab&#45;906b74668a15 -->
<g id="edge_c85ab188&#45;a77e&#45;4e08&#45;8ad8&#45;8e902a924bef" class="edge">
<title>task&#45;create&#45;network&#45;&gt;task_b6e734af&#45;62c7&#45;43fe&#45;b2ab&#45;906b74668a15</title>
<path fill="none" stroke="#000000" stroke-width="2" d="M496.04,-750.18C679.2,-753.39 1056.42,-760.01 1377.19,-765.63"/>
<polygon fill="#000000" stroke="#000000" stroke-width="2" points="1377.56,-769.14 1387.62,-765.82 1377.68,-762.14 1377.56,-769.14"/>
<text text-anchor="middle" x="908.39" y="-767.03" font-family="Times,serif" font-size="14.00" fill="#000000">13 &#160;[when: hostvars[kubeinit_ovn_central_host].distribution_family != &#39;Debian&#39;]</text>
</g>
<!-- task_6ac59792&#45;713b&#45;4a53&#45;bf47&#45;6a5b33bb458d -->
<g id="task_6ac59792&#45;713b&#45;4a53&#45;bf47&#45;6a5b33bb458d" class="node">
<title>task_6ac59792&#45;713b&#45;4a53&#45;bf47&#45;6a5b33bb458d</title>
<g id="a_task_6ac59792&#45;713b&#45;4a53&#45;bf47&#45;6a5b33bb458d"><a xlink:title="[task] kubeinit.kubeinit.kubeinit_libvirt : Enable and start OVN services in the rest of the hypervisors (CentOS based)">
<polygon fill="none" stroke="black" points="2529.29,-713.77 2529.29,-728.68 2175.42,-739.23 1674.96,-739.23 1321.09,-728.68 1321.09,-713.77 1674.96,-703.23 2175.42,-703.23 2529.29,-713.77"/>
<text text-anchor="middle" x="1925.19" y="-717.53" font-family="Times,serif" font-size="14.00">[task] kubeinit.kubeinit.kubeinit_libvirt : Enable and start OVN services in the rest of the hypervisors (CentOS based)</text>
</a>
</g>
</g>
<!-- task&#45;create&#45;network&#45;&gt;task_6ac59792&#45;713b&#45;4a53&#45;bf47&#45;6a5b33bb458d -->
<g id="edge_cfcc7bbf&#45;c854&#45;49b9&#45;af4e&#45;f04fc1fe16a6" class="edge">
<title>task&#45;create&#45;network&#45;&gt;task_6ac59792&#45;713b&#45;4a53&#45;bf47&#45;6a5b33bb458d</title>
<path fill="none" stroke="#000000" stroke-width="2" d="M466.33,-735.95C482.08,-734.01 498.47,-732.3 513.89,-731.23 821.07,-709.96 1166.79,-707.17 1439.05,-709.84"/>
<polygon fill="#000000" stroke="#000000" stroke-width="2" points="1439.07,-713.34 1449.11,-709.94 1439.14,-706.34 1439.07,-713.34"/>
<text text-anchor="middle" x="908.39" y="-735.03" font-family="Times,serif" font-size="14.00" fill="#000000">14 &#160;[when: hostvars[ovn_host].distribution_family != &#39;Debian&#39;]</text>
</g>
<!-- task_8f6fc647&#45;10be&#45;4424&#45;91c0&#45;6c904bbfcf67 -->
<g id="task_8f6fc647&#45;10be&#45;4424&#45;91c0&#45;6c904bbfcf67" class="node">
<title>task_8f6fc647&#45;10be&#45;4424&#45;91c0&#45;6c904bbfcf67</title>
<g id="a_task_8f6fc647&#45;10be&#45;4424&#45;91c0&#45;6c904bbfcf67"><a xlink:title="[task] kubeinit.kubeinit.kubeinit_libvirt : Enable and start OVN services in the ovn&#45;central hypervisor (Ubuntu based)">
<polygon fill="none" stroke="black" points="2527.98,-659.77 2527.98,-674.68 2174.87,-685.23 1675.51,-685.23 1322.4,-674.68 1322.4,-659.77 1675.51,-649.23 2174.87,-649.23 2527.98,-659.77"/>
<text text-anchor="middle" x="1925.19" y="-663.53" font-family="Times,serif" font-size="14.00">[task] kubeinit.kubeinit.kubeinit_libvirt : Enable and start OVN services in the ovn&#45;central hypervisor (Ubuntu based)</text>
</a>
</g>
</g>
<!-- task&#45;create&#45;network&#45;&gt;task_8f6fc647&#45;10be&#45;4424&#45;91c0&#45;6c904bbfcf67 -->
<g id="edge_6bc6bd51&#45;79fc&#45;4c89&#45;951c&#45;1f2556b6f781" class="edge">
<title>task&#45;create&#45;network&#45;&gt;task_8f6fc647&#45;10be&#45;4424&#45;91c0&#45;6c904bbfcf67</title>
<path fill="none" stroke="#000000" stroke-width="2" d="M415.01,-730.16C440.35,-715.98 478.13,-697.32 513.89,-689.23 691.79,-648.98 1140.2,-648.13 1484.05,-654.44"/>
<polygon fill="#000000" stroke="#000000" stroke-width="2" points="1484.13,-657.95 1494.19,-654.63 1484.26,-650.95 1484.13,-657.95"/>
<text text-anchor="middle" x="908.39" y="-693.03" font-family="Times,serif" font-size="14.00" fill="#000000">15 &#160;[when: hostvars[kubeinit_ovn_central_host].distribution_family == &#39;Debian&#39;]</text>
</g>
<!-- task_80320036&#45;482e&#45;4298&#45;bbdb&#45;6211708844d7 -->
<g id="task_80320036&#45;482e&#45;4298&#45;bbdb&#45;6211708844d7" class="node">
<title>task_80320036&#45;482e&#45;4298&#45;bbdb&#45;6211708844d7</title>
<g id="a_task_80320036&#45;482e&#45;4298&#45;bbdb&#45;6211708844d7"><a xlink:title="[task] kubeinit.kubeinit.kubeinit_libvirt : Enable and start OVN services in the rest of the hypervisors (Ubuntu based)">
<polygon fill="none" stroke="black" points="2528.88,-605.77 2528.88,-620.68 2175.25,-631.23 1675.13,-631.23 1321.5,-620.68 1321.5,-605.77 1675.13,-595.23 2175.25,-595.23 2528.88,-605.77"/>
<text text-anchor="middle" x="1925.19" y="-609.53" font-family="Times,serif" font-size="14.00">[task] kubeinit.kubeinit.kubeinit_libvirt : Enable and start OVN services in the rest of the hypervisors (Ubuntu based)</text>
</a>
</g>
</g>
<!-- task&#45;create&#45;network&#45;&gt;task_80320036&#45;482e&#45;4298&#45;bbdb&#45;6211708844d7 -->
<g id="edge_2301c9a3&#45;c788&#45;4f86&#45;82e5&#45;a1d2abac551c" class="edge">
<title>task&#45;create&#45;network&#45;&gt;task_80320036&#45;482e&#45;4298&#45;bbdb&#45;6211708844d7</title>
<path fill="none" stroke="#000000" stroke-width="2" d="M397.98,-730.21C418.79,-702.96 462.6,-652.31 513.89,-632.23 596.96,-599.7 1042.49,-598.05 1410.88,-602.66"/>
<polygon fill="#000000" stroke="#000000" stroke-width="2" points="1410.89,-606.16 1420.94,-602.79 1410.98,-599.16 1410.89,-606.16"/>
<text text-anchor="middle" x="908.39" y="-636.03" font-family="Times,serif" font-size="14.00" fill="#000000">16 &#160;[when: hostvars[ovn_host].distribution_family == &#39;Debian&#39;]</text>
</g>
<!-- task_fda1b39b&#45;35b8&#45;4a59&#45;a249&#45;449ae680cc97 -->
<g id="task_fda1b39b&#45;35b8&#45;4a59&#45;a249&#45;449ae680cc97" class="node">
<title>task_fda1b39b&#45;35b8&#45;4a59&#45;a249&#45;449ae680cc97</title>
<g id="a_task_fda1b39b&#45;35b8&#45;4a59&#45;a249&#45;449ae680cc97"><a xlink:title="[task] kubeinit.kubeinit.kubeinit_libvirt : Configure OVS on the Hypervisors">
<polygon fill="none" stroke="black" points="2316.47,-551.77 2316.47,-566.68 2087.27,-577.23 1763.12,-577.23 1533.91,-566.68 1533.91,-551.77 1763.12,-541.23 2087.27,-541.23 2316.47,-551.77"/>
<text text-anchor="middle" x="1925.19" y="-555.53" font-family="Times,serif" font-size="14.00">[task] kubeinit.kubeinit.kubeinit_libvirt : Configure OVS on the Hypervisors</text>
</a>
</g>
</g>
<!-- task&#45;create&#45;network&#45;&gt;task_fda1b39b&#45;35b8&#45;4a59&#45;a249&#45;449ae680cc97 -->
<g id="edge_b43d1c19&#45;f980&#45;4722&#45;ba93&#45;cd34666838bc" class="edge">
<title>task&#45;create&#45;network&#45;&gt;task_fda1b39b&#45;35b8&#45;4a59&#45;a249&#45;449ae680cc97</title>
<path fill="none" stroke="#000000" stroke-width="2" d="M392.5,-730.03C408.49,-693.78 449.89,-613.31 513.89,-581.23 606.32,-534.9 1190.53,-540.12 1577.46,-549.04"/>
<polygon fill="#000000" stroke="#000000" stroke-width="2" points="1577.63,-552.55 1587.71,-549.28 1577.79,-545.55 1577.63,-552.55"/>
<text text-anchor="middle" x="908.39" y="-585.03" font-family="Times,serif" font-size="14.00" fill="#000000">17</text>
</g>
<!-- task_73b94c24&#45;ba0b&#45;4880&#45;870e&#45;c4ffab76067f -->
<g id="task_73b94c24&#45;ba0b&#45;4880&#45;870e&#45;c4ffab76067f" class="node">
<title>task_73b94c24&#45;ba0b&#45;4880&#45;870e&#45;c4ffab76067f</title>
<g id="a_task_73b94c24&#45;ba0b&#45;4880&#45;870e&#45;c4ffab76067f"><a xlink:title="[task] kubeinit.kubeinit.kubeinit_libvirt : Configure OVN in the ovn&#45;central hypervisor">
<polygon fill="none" stroke="black" points="2367.68,-497.77 2367.68,-512.68 2108.48,-523.23 1741.9,-523.23 1482.7,-512.68 1482.7,-497.77 1741.9,-487.23 2108.48,-487.23 2367.68,-497.77"/>
<text text-anchor="middle" x="1925.19" y="-501.53" font-family="Times,serif" font-size="14.00">[task] kubeinit.kubeinit.kubeinit_libvirt : Configure OVN in the ovn&#45;central hypervisor</text>
</a>
</g>
</g>
<!-- task&#45;create&#45;network&#45;&gt;task_73b94c24&#45;ba0b&#45;4880&#45;870e&#45;c4ffab76067f -->
<g id="edge_02257cb5&#45;3893&#45;4398&#45;aa14&#45;0e3f9b98273a" class="edge">
<title>task&#45;create&#45;network&#45;&gt;task_73b94c24&#45;ba0b&#45;4880&#45;870e&#45;c4ffab76067f</title>
<path fill="none" stroke="#000000" stroke-width="2" d="M389.03,-729.91C399.91,-685.02 434.74,-569.79 513.89,-523.23 604.44,-469.97 1207.29,-480.02 1594.94,-492.44"/>
<polygon fill="#000000" stroke="#000000" stroke-width="2" points="1595.09,-495.95 1605.2,-492.77 1595.32,-488.95 1595.09,-495.95"/>
<text text-anchor="middle" x="908.39" y="-527.03" font-family="Times,serif" font-size="14.00" fill="#000000">18</text>
</g>
<!-- task_486cffd1&#45;85e7&#45;4c9e&#45;890f&#45;1f109b84fdc9 -->
<g id="task_486cffd1&#45;85e7&#45;4c9e&#45;890f&#45;1f109b84fdc9" class="node">
<title>task_486cffd1&#45;85e7&#45;4c9e&#45;890f&#45;1f109b84fdc9</title>
<g id="a_task_486cffd1&#45;85e7&#45;4c9e&#45;890f&#45;1f109b84fdc9"><a xlink:title="[task] kubeinit.kubeinit.kubeinit_libvirt : Remove and create the cluster switch if exists">
<polygon fill="none" stroke="black" points="2376.07,-443.77 2376.07,-458.68 2111.95,-469.23 1738.43,-469.23 1474.31,-458.68 1474.31,-443.77 1738.43,-433.23 2111.95,-433.23 2376.07,-443.77"/>
<text text-anchor="middle" x="1925.19" y="-447.53" font-family="Times,serif" font-size="14.00">[task] kubeinit.kubeinit.kubeinit_libvirt : Remove and create the cluster switch if exists</text>
</a>
</g>
</g>
<!-- task&#45;create&#45;network&#45;&gt;task_486cffd1&#45;85e7&#45;4c9e&#45;890f&#45;1f109b84fdc9 -->
<g id="edge_e41fcf82&#45;e8a0&#45;4e79&#45;b827&#45;810de351fd21" class="edge">
<title>task&#45;create&#45;network&#45;&gt;task_486cffd1&#45;85e7&#45;4c9e&#45;890f&#45;1f109b84fdc9</title>
<path fill="none" stroke="#000000" stroke-width="2" d="M386.77,-729.96C392.84,-677.38 418.34,-525.47 513.89,-463.23 604.32,-404.32 1239.14,-420.86 1625.59,-436.87"/>
<polygon fill="#000000" stroke="#000000" stroke-width="2" points="1625.68,-440.38 1635.81,-437.29 1625.97,-433.38 1625.68,-440.38"/>
<text text-anchor="middle" x="908.39" y="-467.03" font-family="Times,serif" font-size="14.00" fill="#000000">19 &#160;[when: kubeinit_libvirt_destroy_nets|bool and not kubeinit_libvirt_multicluster_keep_predefined_networks]</text>
</g>
<!-- task_be610e4c&#45;22ba&#45;426b&#45;bcb1&#45;144e3e10492b -->
<g id="task_be610e4c&#45;22ba&#45;426b&#45;bcb1&#45;144e3e10492b" class="node">
<title>task_be610e4c&#45;22ba&#45;426b&#45;bcb1&#45;144e3e10492b</title>
<g id="a_task_be610e4c&#45;22ba&#45;426b&#45;bcb1&#45;144e3e10492b"><a xlink:title="[task] kubeinit.kubeinit.kubeinit_libvirt : Create OVS/OVN bindings for the VMs ports">
<polygon fill="none" stroke="black" points="2366.37,-389.77 2366.37,-404.68 2107.93,-415.23 1742.45,-415.23 1484.01,-404.68 1484.01,-389.77 1742.45,-379.23 2107.93,-379.23 2366.37,-389.77"/>
<text text-anchor="middle" x="1925.19" y="-393.53" font-family="Times,serif" font-size="14.00">[task] kubeinit.kubeinit.kubeinit_libvirt : Create OVS/OVN bindings for the VMs ports</text>
</a>
</g>
</g>
<!-- task&#45;create&#45;network&#45;&gt;task_be610e4c&#45;22ba&#45;426b&#45;bcb1&#45;144e3e10492b -->
<g id="edge_f3e0c74e&#45;e67a&#45;4be5&#45;a015&#45;0387197c431c" class="edge">
<title>task&#45;create&#45;network&#45;&gt;task_be610e4c&#45;22ba&#45;426b&#45;bcb1&#45;144e3e10492b</title>
<path fill="none" stroke="#000000" stroke-width="2" d="M385.2,-730.1C386.86,-670.64 401.11,-480.87 513.89,-402.23 555.02,-373.55 1121,-379.53 1523.28,-387.55"/>
<polygon fill="#000000" stroke="#000000" stroke-width="2" points="1523.28,-391.05 1533.35,-387.75 1523.42,-384.05 1523.28,-391.05"/>
<text text-anchor="middle" x="908.39" y="-406.03" font-family="Times,serif" font-size="14.00" fill="#000000">20</text>
</g>
<!-- task_8bc1dbdb&#45;cdb8&#45;4a68&#45;a587&#45;4b72101e6690 -->
<g id="task_8bc1dbdb&#45;cdb8&#45;4a68&#45;a587&#45;4b72101e6690" class="node">
<title>task_8bc1dbdb&#45;cdb8&#45;4a68&#45;a587&#45;4b72101e6690</title>
<g id="a_task_8bc1dbdb&#45;cdb8&#45;4a68&#45;a587&#45;4b72101e6690"><a xlink:title="[task] kubeinit.kubeinit.kubeinit_libvirt : Configuring a router connected to the guests switch">
<polygon fill="none" stroke="black" points="2405.66,-335.77 2405.66,-350.68 2124.21,-361.23 1726.17,-361.23 1444.72,-350.68 1444.72,-335.77 1726.17,-325.23 2124.21,-325.23 2405.66,-335.77"/>
<text text-anchor="middle" x="1925.19" y="-339.53" font-family="Times,serif" font-size="14.00">[task] kubeinit.kubeinit.kubeinit_libvirt : Configuring a router connected to the guests switch</text>
</a>
</g>
</g>
<!-- task&#45;create&#45;network&#45;&gt;task_8bc1dbdb&#45;cdb8&#45;4a68&#45;a587&#45;4b72101e6690 -->
<g id="edge_f594bf9d&#45;2678&#45;43ff&#45;bdf7&#45;3892c0e35923" class="edge">
<title>task&#45;create&#45;network&#45;&gt;task_8bc1dbdb&#45;cdb8&#45;4a68&#45;a587&#45;4b72101e6690</title>
<path fill="none" stroke="#000000" stroke-width="2" d="M384.45,-729.89C383.53,-665.93 390.11,-451.68 513.89,-361.23 600.42,-298 1228.18,-312.83 1616.43,-328.53"/>
<polygon fill="#000000" stroke="#000000" stroke-width="2" points="1616.57,-332.04 1626.7,-328.95 1616.85,-325.04 1616.57,-332.04"/>
<text text-anchor="middle" x="908.39" y="-365.03" font-family="Times,serif" font-size="14.00" fill="#000000">21</text>
</g>
<!-- task_4c229b2d&#45;e90b&#45;4701&#45;ae31&#45;49c79f8256d1 -->
<g id="task_4c229b2d&#45;e90b&#45;4701&#45;ae31&#45;49c79f8256d1" class="node">
<title>task_4c229b2d&#45;e90b&#45;4701&#45;ae31&#45;49c79f8256d1</title>
<g id="a_task_4c229b2d&#45;e90b&#45;4701&#45;ae31&#45;49c79f8256d1"><a xlink:title="[task] kubeinit.kubeinit.kubeinit_libvirt : Configuring NAT">
<polygon fill="none" stroke="black" points="2226.38,-281.77 2226.38,-296.68 2049.95,-307.23 1800.43,-307.23 1624,-296.68 1624,-281.77 1800.43,-271.23 2049.95,-271.23 2226.38,-281.77"/>
<text text-anchor="middle" x="1925.19" y="-285.53" font-family="Times,serif" font-size="14.00">[task] kubeinit.kubeinit.kubeinit_libvirt : Configuring NAT</text>
</a>
</g>
</g>
<!-- task&#45;create&#45;network&#45;&gt;task_4c229b2d&#45;e90b&#45;4701&#45;ae31&#45;49c79f8256d1 -->
<g id="edge_f436bd8b&#45;8677&#45;439c&#45;a5e4&#45;9bd4b0100290" class="edge">
<title>task&#45;create&#45;network&#45;&gt;task_4c229b2d&#45;e90b&#45;4701&#45;ae31&#45;49c79f8256d1</title>
<path fill="none" stroke="#000000" stroke-width="2" d="M387.32,-730.07C397.49,-652.49 441.34,-350.27 513.89,-295.23 557.12,-262.44 1216.69,-272.18 1618.31,-281.28"/>
<polygon fill="#000000" stroke="#000000" stroke-width="2" points="1618.27,-284.78 1628.34,-281.51 1618.43,-277.78 1618.27,-284.78"/>
<text text-anchor="middle" x="908.39" y="-299.03" font-family="Times,serif" font-size="14.00" fill="#000000">22 &#160;[when: not hostvars[kubeinit_ovn_central_host].firewalld_is_active]</text>
</g>
<!-- task_5296bba7&#45;5d63&#45;4fc6&#45;aaec&#45;577b9dab6603 -->
<g id="task_5296bba7&#45;5d63&#45;4fc6&#45;aaec&#45;577b9dab6603" class="node">
<title>task_5296bba7&#45;5d63&#45;4fc6&#45;aaec&#45;577b9dab6603</title>
<g id="a_task_5296bba7&#45;5d63&#45;4fc6&#45;aaec&#45;577b9dab6603"><a xlink:title="[task] kubeinit.kubeinit.kubeinit_libvirt : Render KubeInit networks for debugging">
<polygon fill="none" stroke="black" points="2349.6,-227.77 2349.6,-242.68 2100.99,-253.23 1749.39,-253.23 1500.78,-242.68 1500.78,-227.77 1749.39,-217.23 2100.99,-217.23 2349.6,-227.77"/>
<text text-anchor="middle" x="1925.19" y="-231.53" font-family="Times,serif" font-size="14.00">[task] kubeinit.kubeinit.kubeinit_libvirt : Render KubeInit networks for debugging</text>
</a>
</g>
</g>
<!-- task&#45;create&#45;network&#45;&gt;task_5296bba7&#45;5d63&#45;4fc6&#45;aaec&#45;577b9dab6603 -->
<g id="edge_6732fb7a&#45;f139&#45;4e37&#45;83aa&#45;c54eab6639fd" class="edge">
<title>task&#45;create&#45;network&#45;&gt;task_5296bba7&#45;5d63&#45;4fc6&#45;aaec&#45;577b9dab6603</title>
<path fill="none" stroke="#000000" stroke-width="2" d="M386.87,-730.11C395.57,-648.29 435.5,-314.62 513.89,-253.23 600.23,-185.6 1256.47,-203.81 1642.63,-220.84"/>
<polygon fill="#000000" stroke="#000000" stroke-width="2" points="1642.7,-224.35 1652.84,-221.29 1643.01,-217.35 1642.7,-224.35"/>
<text text-anchor="middle" x="908.39" y="-257.03" font-family="Times,serif" font-size="14.00" fill="#000000">23</text>
</g>
<!-- task_c9820f9c&#45;b05d&#45;4c19&#45;8f9e&#45;0e486139be17 -->
<g id="task_c9820f9c&#45;b05d&#45;4c19&#45;8f9e&#45;0e486139be17" class="node">
<title>task_c9820f9c&#45;b05d&#45;4c19&#45;8f9e&#45;0e486139be17</title>
<g id="a_task_c9820f9c&#45;b05d&#45;4c19&#45;8f9e&#45;0e486139be17"><a xlink:title="[task] kubeinit.kubeinit.kubeinit_libvirt : Define KubeInit networks">
<polygon fill="none" stroke="black" points="2271.43,-173.77 2271.43,-188.68 2068.61,-199.23 1781.77,-199.23 1578.95,-188.68 1578.95,-173.77 1781.77,-163.23 2068.61,-163.23 2271.43,-173.77"/>
<text text-anchor="middle" x="1925.19" y="-177.53" font-family="Times,serif" font-size="14.00">[task] kubeinit.kubeinit.kubeinit_libvirt : Define KubeInit networks</text>
</a>
</g>
</g>
<!-- task&#45;create&#45;network&#45;&gt;task_c9820f9c&#45;b05d&#45;4c19&#45;8f9e&#45;0e486139be17 -->
<g id="edge_8b1b0648&#45;7c82&#45;4834&#45;8f38&#45;31ebe9114627" class="edge">
<title>task&#45;create&#45;network&#45;&gt;task_c9820f9c&#45;b05d&#45;4c19&#45;8f9e&#45;0e486139be17</title>
<path fill="none" stroke="#000000" stroke-width="2" d="M386.26,-730.05C392.65,-641.44 425.29,-256.05 513.89,-185.23 555.56,-151.92 1194.19,-162.11 1597.62,-172.01"/>
<polygon fill="#000000" stroke="#000000" stroke-width="2" points="1597.62,-175.51 1607.7,-172.26 1597.79,-168.52 1597.62,-175.51"/>
<text text-anchor="middle" x="908.39" y="-189.03" font-family="Times,serif" font-size="14.00" fill="#000000">24 &#160;[when: kubeinit_libvirt_destroy_nets|bool and not kubeinit_libvirt_multicluster_keep_predefined_networks]</text>
</g>
<!-- task_cccbc7c1&#45;63b4&#45;4060&#45;b4ef&#45;acf47f39b302 -->
<g id="task_cccbc7c1&#45;63b4&#45;4060&#45;b4ef&#45;acf47f39b302" class="node">
<title>task_cccbc7c1&#45;63b4&#45;4060&#45;b4ef&#45;acf47f39b302</title>
<g id="a_task_cccbc7c1&#45;63b4&#45;4060&#45;b4ef&#45;acf47f39b302"><a xlink:title="[task] kubeinit.kubeinit.kubeinit_libvirt : Activate KubeInit networks">
<polygon fill="none" stroke="black" points="2280.22,-119.77 2280.22,-134.68 2072.25,-145.23 1778.13,-145.23 1570.16,-134.68 1570.16,-119.77 1778.13,-109.23 2072.25,-109.23 2280.22,-119.77"/>
<text text-anchor="middle" x="1925.19" y="-123.53" font-family="Times,serif" font-size="14.00">[task] kubeinit.kubeinit.kubeinit_libvirt : Activate KubeInit networks</text>
</a>
</g>
</g>
<!-- task&#45;create&#45;network&#45;&gt;task_cccbc7c1&#45;63b4&#45;4060&#45;b4ef&#45;acf47f39b302 -->
<g id="edge_3b174899&#45;146f&#45;42dc&#45;a623&#45;c7562d7da668" class="edge">
<title>task&#45;create&#45;network&#45;&gt;task_cccbc7c1&#45;63b4&#45;4060&#45;b4ef&#45;acf47f39b302</title>
<path fill="none" stroke="#000000" stroke-width="2" d="M385.97,-729.98C391.15,-637.33 419.48,-220.54 513.89,-143.23 553.9,-110.46 1155.43,-113.98 1559.84,-120.16"/>
<polygon fill="#000000" stroke="#000000" stroke-width="2" points="1559.9,-123.66 1569.95,-120.31 1560.01,-116.66 1559.9,-123.66"/>
<text text-anchor="middle" x="908.39" y="-147.03" font-family="Times,serif" font-size="14.00" fill="#000000">25 &#160;[when: kubeinit_libvirt_destroy_nets|bool and not kubeinit_libvirt_multicluster_keep_predefined_networks]</text>
</g>
<!-- task_bdaa70e7&#45;3d78&#45;4015&#45;a646&#45;ab89a1f4a0eb -->
<g id="task_bdaa70e7&#45;3d78&#45;4015&#45;a646&#45;ab89a1f4a0eb" class="node">
<title>task_bdaa70e7&#45;3d78&#45;4015&#45;a646&#45;ab89a1f4a0eb</title>
<g id="a_task_bdaa70e7&#45;3d78&#45;4015&#45;a646&#45;ab89a1f4a0eb"><a xlink:title="[task] kubeinit.kubeinit.kubeinit_libvirt : Autostart KubeInit networks">
<polygon fill="none" stroke="black" points="2286.88,-65.77 2286.88,-80.68 2075.01,-91.23 1775.37,-91.23 1563.5,-80.68 1563.5,-65.77 1775.37,-55.23 2075.01,-55.23 2286.88,-65.77"/>
<text text-anchor="middle" x="1925.19" y="-69.53" font-family="Times,serif" font-size="14.00">[task] kubeinit.kubeinit.kubeinit_libvirt : Autostart KubeInit networks</text>
</a>
</g>
</g>
<!-- task&#45;create&#45;network&#45;&gt;task_bdaa70e7&#45;3d78&#45;4015&#45;a646&#45;ab89a1f4a0eb -->
<g id="edge_0f277dd0&#45;013b&#45;48c3&#45;b4af&#45;88175221d903" class="edge">
<title>task&#45;create&#45;network&#45;&gt;task_bdaa70e7&#45;3d78&#45;4015&#45;a646&#45;ab89a1f4a0eb</title>
<path fill="none" stroke="#000000" stroke-width="2" d="M385.67,-730.2C389.5,-633.83 412.72,-180.75 513.89,-96.23 702.47,61.32 1462.15,-14.02 1781.57,-53.93"/>
<polygon fill="#000000" stroke="#000000" stroke-width="2" points="1781.47,-57.44 1791.82,-55.21 1782.34,-50.49 1781.47,-57.44"/>
<text text-anchor="middle" x="908.39" y="-100.03" font-family="Times,serif" font-size="14.00" fill="#000000">26 &#160;[when: kubeinit_libvirt_destroy_nets|bool and not kubeinit_libvirt_multicluster_keep_predefined_networks]</text>
</g>
</g>
</svg>
