<?xml version='1.0' encoding='UTF-8'?>
<!DOCTYPE svg PUBLIC "-//W3C//DTD SVG 1.1//EN" "http://www.w3.org/Graphics/SVG/1.1/DTD/svg11.dtd">
<!-- Generated by graphviz version 2.43.0 (0)
 --><!-- Title: ./playbooks/submariner&#45;subctl&#45;verify.yml  Pages: 1 --><svg xmlns="http://www.w3.org/2000/svg" xmlns:xlink="http://www.w3.org/1999/xlink" width="1919pt" height="807pt" viewBox="0.00 0.00 1919.12 807.41" id="svg">
<script type="text/javascript" href="https://ajax.googleapis.com/ajax/libs/jquery/3.2.1/jquery.min.js" id="jquery"/><script type="text/javascript" id="my_javascript"><![CDATA[const HOVER_CLASS = "my_hover";

var selectedElement = null;

function addClass(rootElement) {
    $(rootElement).find('link').each(function (index, element) {
        var target = $(element).attr('target');
        var currentElement = $('#' + target);
        currentElement.addClass(HOVER_CLASS);

        addClass(currentElement);
    })
}

function removeClass(rootElement, hover) {
    $(rootElement).find('link').each(function (index, element) {
        if ($(rootElement).attr('id') !== $(selectedElement).attr('id') || !hover) {
            var target = $(element).attr('target');
            var currentElement = $('#' + target);
            currentElement.removeClass(HOVER_CLASS);

            removeClass(currentElement);
        }

    })
}

function hoverIn(event) {
    addClass(event.currentTarget);
}

function hoverOut(event) {
    removeClass(event.currentTarget, true);
}

function clickOnElement(event) {
    var newElement = event.currentTarget;

    if ($(newElement).attr('id') === $(selectedElement).attr('id')) {
        removeClass(selectedElement, false);
    } else {
        removeClass(selectedElement);
        addClass(newElement)
    }

    selectedElement = newElement;
}


$("#svg").ready(function () {

    $("g[id^=play_]").hover(hoverIn, hoverOut);
    $("g[id^=role_]").hover(hoverIn, hoverOut);

    $("g[id^=play_]").click(clickOnElement);
    $("g[id^=role_]").click(clickOnElement);

});
]]></script><style type="text/css" id="my_css"><![CDATA[.node:hover, .edge:hover, path:hover, path + polygon:hover {
    cursor: pointer;
    stroke-width: 3;
    font-weight: bolder;
}

.my_hover {
    cursor: pointer;
    stroke-width: 3;
    font-weight: bolder;
}
]]></style><g id="graph0" class="graph" transform="scale(1 1) rotate(0) translate(4 803.41)">
<title>./playbooks/submariner-subctl-verify.yml </title>
<polygon fill="white" stroke="transparent" points="-4,4 -4,-803.41 1915.12,-803.41 1915.12,4 -4,4"/>
<!-- ./playbooks/submariner&#45;subctl&#45;verify.yml -->
<g id="root_node" class="node">
<title>./playbooks/submariner-subctl-verify.yml</title>
<ellipse fill="none" stroke="black" stroke-dasharray="1,5" cx="198.88" cy="-399.72" rx="198.76" ry="18"/>
<text text-anchor="middle" x="198.88" y="-396.02" font-family="Times,serif" font-size="14.00">./playbooks/submariner-subctl-verify.yml</text>
</g>
<!-- Play #1: Main deployment playbook for integrating submariner (0) -->
<g id="play_07a6f76b-ec93-4138-bb50-de1a6a393ebe" class="node">
<title>Play #1: Main deployment playbook for integrating submariner (0)</title>
<polygon fill="#bd90a4" stroke="#bd90a4" points="938.76,-417.72 443.76,-417.72 443.76,-381.72 938.76,-381.72 938.76,-417.72"/>
<text text-anchor="middle" x="691.26" y="-396.02" font-family="Times,serif" font-size="14.00" fill="#000000">Play #1: Main deployment playbook for integrating submariner (0)</text>
<links><link target="edge_94dcca9e-70d6-4550-b48a-9ab07bb7023a"/><link target="edge_ac7f3952-a629-4376-93cc-a4eb729de2b5"/><link target="edge_d95aad38-a842-4a38-a71e-38ae457a2eee"/><link target="edge_907a3cce-a831-4df8-9d9f-9404ab9144d1"/><link target="edge_a457cd38-66ee-405c-a49c-156be2c6f092"/><link target="edge_4f3e27da-c5e6-4139-bcb5-eaddd1718da1"/><link target="edge_15c95ce5-3607-48ef-9433-31441ed9964b"/><link target="edge_918d03d2-45bd-40f8-b6de-a2c19d25c2f6"/><link target="edge_3650f4cd-73aa-48e5-915c-6256b5604dca"/><link target="edge_591d1cf0-5b8a-4aaa-ba17-73c78dddb421"/><link target="edge_c1289d51-85c7-44cb-864b-59da17f64ff3"/><link target="edge_246ea75c-d57c-4da2-b9b5-2e6de8471b9d"/><link target="edge_fda2d52c-d074-4c35-bb6e-3e7494f188a8"/><link target="edge_d2873bcd-16fc-4adf-8861-a0b7f32b9042"/><link target="edge_5943d43f-f27c-4f87-a4a9-6ca72db5fab9"/></links></g>
<!-- ./playbooks/submariner&#45;subctl&#45;verify.yml&#45;&gt;Play #1: Main deployment playbook for integrating submariner (0) -->
<g id="edge_c9dc4ec7-f18b-40fa-89fc-1499eb1ed7be" class="edge">
<title>./playbooks/submariner-subctl-verify.yml-&gt;Play #1: Main deployment playbook for integrating submariner (0)</title>
<path fill="none" stroke="#bd90a4" stroke-width="2" d="M397.93,-399.72C409.66,-399.72 421.54,-399.72 433.46,-399.72"/>
<polygon fill="#bd90a4" stroke="#bd90a4" stroke-width="2" points="433.48,-403.22 443.48,-399.72 433.48,-396.22 433.48,-403.22"/>
<text text-anchor="middle" x="420.76" y="-403.52" font-family="Times,serif" font-size="14.00" fill="#bd90a4">1</text>
</g>
<!-- pre_task_caf0cb9b&#45;38dc&#45;4b6a&#45;9cb2&#45;19a0ff0fbdc2 -->
<g id="pre_task_caf0cb9b-38dc-4b6a-9cb2-19a0ff0fbdc2" class="node">
<title>pre_task_caf0cb9b-38dc-4b6a-9cb2-19a0ff0fbdc2</title>
<g id="a_pre_task_caf0cb9b-38dc-4b6a-9cb2-19a0ff0fbdc2"><a xlink:title="[pre_task] Check if Ansible meets version requirements.">
<polygon fill="none" stroke="black" points="1746.56,-770.26 1746.56,-785.18 1574.27,-795.72 1330.61,-795.72 1158.32,-785.18 1158.32,-770.26 1330.61,-759.72 1574.27,-759.72 1746.56,-770.26"/>
<text text-anchor="middle" x="1452.44" y="-774.02" font-family="Times,serif" font-size="14.00">[pre_task] Check if Ansible meets version requirements.</text>
</a>
</g>
</g>
<!-- Play #1: Main deployment playbook for integrating submariner (0)&#45;&gt;pre_task_caf0cb9b&#45;38dc&#45;4b6a&#45;9cb2&#45;19a0ff0fbdc2 -->
<g id="edge_94dcca9e-70d6-4550-b48a-9ab07bb7023a" class="edge">
<title>Play #1: Main deployment playbook for integrating submariner (0)-&gt;pre_task_caf0cb9b-38dc-4b6a-9cb2-19a0ff0fbdc2</title>
<path fill="none" stroke="#bd90a4" stroke-width="2" d="M701.08,-417.95C731.53,-478.59 839.01,-674.04 993.76,-750.72 1094.33,-800.55 1222.97,-803.68 1318.25,-796.43"/>
<polygon fill="#bd90a4" stroke="#bd90a4" stroke-width="2" points="1318.55,-799.92 1328.23,-795.63 1317.98,-792.94 1318.55,-799.92"/>
<text text-anchor="middle" x="966.26" y="-742.52" font-family="Times,serif" font-size="14.00" fill="#bd90a4">1</text>
<links><link target="pre_task_caf0cb9b-38dc-4b6a-9cb2-19a0ff0fbdc2"/></links></g>
<!-- task_6b2d8337&#45;23fd&#45;438c&#45;a234&#45;68a9952d7f41 -->
<g id="task_6b2d8337-23fd-438c-a234-68a9952d7f41" class="node">
<title>task_6b2d8337-23fd-438c-a234-68a9952d7f41</title>
<g id="a_task_6b2d8337-23fd-438c-a234-68a9952d7f41"><a xlink:title="[task] ../../roles/kubeinit_prepare : Gather variables for each operating system">
<polygon fill="none" stroke="black" points="1856.05,-716.26 1856.05,-731.18 1619.62,-741.72 1285.26,-741.72 1048.83,-731.18 1048.83,-716.26 1285.26,-705.72 1619.62,-705.72 1856.05,-716.26"/>
<text text-anchor="middle" x="1452.44" y="-720.02" font-family="Times,serif" font-size="14.00">[task] ../../roles/kubeinit_prepare : Gather variables for each operating system</text>
</a>
</g>
</g>
<!-- Play #1: Main deployment playbook for integrating submariner (0)&#45;&gt;task_6b2d8337&#45;23fd&#45;438c&#45;a234&#45;68a9952d7f41 -->
<g id="edge_ac7f3952-a629-4376-93cc-a4eb729de2b5" class="edge">
<title>Play #1: Main deployment playbook for integrating submariner (0)-&gt;task_6b2d8337-23fd-438c-a234-68a9952d7f41</title>
<path fill="none" stroke="#bd90a4" stroke-width="2" d="M703.56,-417.8C738.61,-472.05 851.77,-633.58 993.76,-696.72 1080.17,-735.14 1184.93,-743.72 1272.42,-741.87"/>
<polygon fill="#bd90a4" stroke="#bd90a4" stroke-width="2" points="1272.55,-745.37 1282.45,-741.62 1272.37,-738.37 1272.55,-745.37"/>
<text text-anchor="middle" x="966.26" y="-690.52" font-family="Times,serif" font-size="14.00" fill="#bd90a4">2</text>
<links><link target="task_6b2d8337-23fd-438c-a234-68a9952d7f41"/></links></g>
<!-- task_0181210f&#45;2a37&#45;4728&#45;971f&#45;3073d475e764 -->
<g id="task_0181210f-2a37-4728-971f-3073d475e764" class="node">
<title>task_0181210f-2a37-4728-971f-3073d475e764</title>
<g id="a_task_0181210f-2a37-4728-971f-3073d475e764"><a xlink:title="[task] ../../roles/kubeinit_prepare : add all nodes to the all_nodes group">
<polygon fill="none" stroke="black" points="1818.98,-662.26 1818.98,-677.18 1604.27,-687.72 1300.62,-687.72 1085.9,-677.18 1085.9,-662.26 1300.62,-651.72 1604.27,-651.72 1818.98,-662.26"/>
<text text-anchor="middle" x="1452.44" y="-666.02" font-family="Times,serif" font-size="14.00">[task] ../../roles/kubeinit_prepare : add all nodes to the all_nodes group</text>
</a>
</g>
</g>
<!-- Play #1: Main deployment playbook for integrating submariner (0)&#45;&gt;task_0181210f&#45;2a37&#45;4728&#45;971f&#45;3073d475e764 -->
<g id="edge_d95aad38-a842-4a38-a71e-38ae457a2eee" class="edge">
<title>Play #1: Main deployment playbook for integrating submariner (0)-&gt;task_0181210f-2a37-4728-971f-3073d475e764</title>
<path fill="none" stroke="#bd90a4" stroke-width="2" d="M707.2,-417.85C747.51,-465.26 864.27,-592.69 993.76,-642.72 1019.92,-652.82 1047.54,-660.66 1075.72,-666.66"/>
<polygon fill="#bd90a4" stroke="#bd90a4" stroke-width="2" points="1075.22,-670.12 1085.72,-668.7 1076.62,-663.27 1075.22,-670.12"/>
<text text-anchor="middle" x="966.26" y="-638.52" font-family="Times,serif" font-size="14.00" fill="#bd90a4">3</text>
<links><link target="task_0181210f-2a37-4728-971f-3073d475e764"/></links></g>
<!-- task_84171e9c&#45;f7cc&#45;4d97&#45;ba5d&#45;e497bf8a4bc9 -->
<g id="task_84171e9c-f7cc-4d97-ba5d-e497bf8a4bc9" class="node">
<title>task_84171e9c-f7cc-4d97-ba5d-e497bf8a4bc9</title>
<g id="a_task_84171e9c-f7cc-4d97-ba5d-e497bf8a4bc9"><a xlink:title="[task] ../../roles/kubeinit_prepare : add all master nodes to the all_master_nodes group">
<polygon fill="none" stroke="black" points="1897.56,-608.26 1897.56,-623.18 1636.82,-633.72 1268.07,-633.72 1007.32,-623.18 1007.32,-608.26 1268.07,-597.72 1636.82,-597.72 1897.56,-608.26"/>
<text text-anchor="middle" x="1452.44" y="-612.02" font-family="Times,serif" font-size="14.00">[task] ../../roles/kubeinit_prepare : add all master nodes to the all_master_nodes group</text>
</a>
</g>
</g>
<!-- Play #1: Main deployment playbook for integrating submariner (0)&#45;&gt;task_84171e9c&#45;f7cc&#45;4d97&#45;ba5d&#45;e497bf8a4bc9 -->
<g id="edge_907a3cce-a831-4df8-9d9f-9404ab9144d1" class="edge">
<title>Play #1: Main deployment playbook for integrating submariner (0)-&gt;task_84171e9c-f7cc-4d97-ba5d-e497bf8a4bc9</title>
<path fill="none" stroke="#bd90a4" stroke-width="2" d="M712.69,-417.79C758.84,-457.37 876.37,-551.19 993.76,-588.72 1012.33,-594.66 1031.53,-599.7 1051.08,-603.98"/>
<polygon fill="#bd90a4" stroke="#bd90a4" stroke-width="2" points="1050.5,-607.43 1061.01,-606.08 1051.95,-600.58 1050.5,-607.43"/>
<text text-anchor="middle" x="966.26" y="-585.52" font-family="Times,serif" font-size="14.00" fill="#bd90a4">4</text>
<links><link target="task_84171e9c-f7cc-4d97-ba5d-e497bf8a4bc9"/></links></g>
<!-- task_f54e94d1&#45;4e0f&#45;4e48&#45;88d7&#45;e59ba3cc2c4c -->
<g id="task_f54e94d1-4e0f-4e48-88d7-e59ba3cc2c4c" class="node">
<title>task_f54e94d1-4e0f-4e48-88d7-e59ba3cc2c4c</title>
<g id="a_task_f54e94d1-4e0f-4e48-88d7-e59ba3cc2c4c"><a xlink:title="[task] ../../roles/kubeinit_prepare : add all worker nodes to the all_worker_nodes group">
<polygon fill="none" stroke="black" points="1897.56,-554.26 1897.56,-569.18 1636.82,-579.72 1268.07,-579.72 1007.32,-569.18 1007.32,-554.26 1268.07,-543.72 1636.82,-543.72 1897.56,-554.26"/>
<text text-anchor="middle" x="1452.44" y="-558.02" font-family="Times,serif" font-size="14.00">[task] ../../roles/kubeinit_prepare : add all worker nodes to the all_worker_nodes group</text>
</a>
</g>
</g>
<!-- Play #1: Main deployment playbook for integrating submariner (0)&#45;&gt;task_f54e94d1&#45;4e0f&#45;4e48&#45;88d7&#45;e59ba3cc2c4c -->
<g id="edge_a457cd38-66ee-405c-a49c-156be2c6f092" class="edge">
<title>Play #1: Main deployment playbook for integrating submariner (0)-&gt;task_f54e94d1-4e0f-4e48-88d7-e59ba3cc2c4c</title>
<path fill="none" stroke="#bd90a4" stroke-width="2" d="M722.61,-417.81C775.53,-448.3 889.03,-509.1 993.76,-534.72 1018.53,-540.78 1044.27,-545.75 1070.34,-549.8"/>
<polygon fill="#bd90a4" stroke="#bd90a4" stroke-width="2" points="1069.93,-553.28 1080.34,-551.31 1070.98,-546.35 1069.93,-553.28"/>
<text text-anchor="middle" x="966.26" y="-531.52" font-family="Times,serif" font-size="14.00" fill="#bd90a4">5</text>
<links><link target="task_f54e94d1-4e0f-4e48-88d7-e59ba3cc2c4c"/></links></g>
<!-- task_0b7f8a93&#45;560c&#45;4d8a&#45;96ec&#45;59de4878ae98 -->
<g id="task_0b7f8a93-560c-4d8a-96ec-59de4878ae98" class="node">
<title>task_0b7f8a93-560c-4d8a-96ec-59de4878ae98</title>
<g id="a_task_0b7f8a93-560c-4d8a-96ec-59de4878ae98"><a xlink:title="[task] ../../roles/kubeinit_prepare : add all bootstrap nodes the all_bootstrap_nodes group">
<polygon fill="none" stroke="black" points="1911.3,-500.26 1911.3,-515.18 1642.51,-525.72 1262.38,-525.72 993.59,-515.18 993.59,-500.26 1262.38,-489.72 1642.51,-489.72 1911.3,-500.26"/>
<text text-anchor="middle" x="1452.44" y="-504.02" font-family="Times,serif" font-size="14.00">[task] ../../roles/kubeinit_prepare : add all bootstrap nodes the all_bootstrap_nodes group</text>
</a>
</g>
</g>
<!-- Play #1: Main deployment playbook for integrating submariner (0)&#45;&gt;task_0b7f8a93&#45;560c&#45;4d8a&#45;96ec&#45;59de4878ae98 -->
<g id="edge_4f3e27da-c5e6-4139-bcb5-eaddd1718da1" class="edge">
<title>Play #1: Main deployment playbook for integrating submariner (0)-&gt;task_0b7f8a93-560c-4d8a-96ec-59de4878ae98</title>
<path fill="none" stroke="#bd90a4" stroke-width="2" d="M746.01,-417.72C805.76,-436.9 905.49,-466.41 993.76,-480.72 1028.96,-486.42 1065.84,-490.96 1102.75,-494.56"/>
<polygon fill="#bd90a4" stroke="#bd90a4" stroke-width="2" points="1102.88,-498.09 1113.16,-495.55 1103.54,-491.12 1102.88,-498.09"/>
<text text-anchor="middle" x="966.26" y="-479.52" font-family="Times,serif" font-size="14.00" fill="#bd90a4">6</text>
<links><link target="task_0b7f8a93-560c-4d8a-96ec-59de4878ae98"/></links></g>
<!-- task_3a7b6687&#45;715c&#45;444b&#45;bca3&#45;2b90c2719f3b -->
<g id="task_3a7b6687-715c-444b-bca3-2b90c2719f3b" class="node">
<title>task_3a7b6687-715c-444b-bca3-2b90c2719f3b</title>
<g id="a_task_3a7b6687-715c-444b-bca3-2b90c2719f3b"><a xlink:title="[task] ../../roles/kubeinit_prepare : add all service nodes to the all_service_nodes group">
<polygon fill="none" stroke="black" points="1899.38,-446.26 1899.38,-461.18 1637.57,-471.72 1267.32,-471.72 1005.51,-461.18 1005.51,-446.26 1267.32,-435.72 1637.57,-435.72 1899.38,-446.26"/>
<text text-anchor="middle" x="1452.44" y="-450.02" font-family="Times,serif" font-size="14.00">[task] ../../roles/kubeinit_prepare : add all service nodes to the all_service_nodes group</text>
</a>
</g>
</g>
<!-- Play #1: Main deployment playbook for integrating submariner (0)&#45;&gt;task_3a7b6687&#45;715c&#45;444b&#45;bca3&#45;2b90c2719f3b -->
<g id="edge_15c95ce5-3607-48ef-9433-31441ed9964b" class="edge">
<title>Play #1: Main deployment playbook for integrating submariner (0)-&gt;task_3a7b6687-715c-444b-bca3-2b90c2719f3b</title>
<path fill="none" stroke="#bd90a4" stroke-width="2" d="M883.59,-417.74C920.15,-420.93 958.13,-424.07 993.76,-426.72 1051.17,-430.98 1112.66,-434.99 1171.35,-438.55"/>
<polygon fill="#bd90a4" stroke="#bd90a4" stroke-width="2" points="1171.32,-442.05 1181.51,-439.16 1171.74,-435.07 1171.32,-442.05"/>
<text text-anchor="middle" x="966.26" y="-428.52" font-family="Times,serif" font-size="14.00" fill="#bd90a4">7</text>
<links><link target="task_3a7b6687-715c-444b-bca3-2b90c2719f3b"/></links></g>
<!-- task_fe4fd11c&#45;001e&#45;4d3e&#45;88bb&#45;99d0898df1a9 -->
<g id="task_fe4fd11c-001e-4d3e-88bb-99d0898df1a9" class="node">
<title>task_fe4fd11c-001e-4d3e-88bb-99d0898df1a9</title>
<g id="a_task_fe4fd11c-001e-4d3e-88bb-99d0898df1a9"><a xlink:title="[task] ../../roles/kubeinit_prepare : add all hosts to the all_hosts group">
<polygon fill="none" stroke="black" points="1814.13,-392.26 1814.13,-407.18 1602.26,-417.72 1302.62,-417.72 1090.75,-407.18 1090.75,-392.26 1302.62,-381.72 1602.26,-381.72 1814.13,-392.26"/>
<text text-anchor="middle" x="1452.44" y="-396.02" font-family="Times,serif" font-size="14.00">[task] ../../roles/kubeinit_prepare : add all hosts to the all_hosts group</text>
</a>
</g>
</g>
<!-- Play #1: Main deployment playbook for integrating submariner (0)&#45;&gt;task_fe4fd11c&#45;001e&#45;4d3e&#45;88bb&#45;99d0898df1a9 -->
<g id="edge_918d03d2-45bd-40f8-b6de-a2c19d25c2f6" class="edge">
<title>Play #1: Main deployment playbook for integrating submariner (0)-&gt;task_fe4fd11c-001e-4d3e-88bb-99d0898df1a9</title>
<path fill="none" stroke="#bd90a4" stroke-width="2" d="M939.01,-399.72C984.27,-399.72 1032.42,-399.72 1080.39,-399.72"/>
<polygon fill="#bd90a4" stroke="#bd90a4" stroke-width="2" points="1080.62,-403.22 1090.62,-399.72 1080.62,-396.22 1080.62,-403.22"/>
<text text-anchor="middle" x="966.26" y="-403.52" font-family="Times,serif" font-size="14.00" fill="#bd90a4">8</text>
<links><link target="task_fe4fd11c-001e-4d3e-88bb-99d0898df1a9"/></links></g>
<!-- task_7099f3cb&#45;ed4c&#45;4b77&#45;9a0d&#45;0a702e6454f9 -->
<g id="task_7099f3cb-ed4c-4b77-9a0d-0a702e6454f9" class="node">
<title>task_7099f3cb-ed4c-4b77-9a0d-0a702e6454f9</title>
<g id="a_task_7099f3cb-ed4c-4b77-9a0d-0a702e6454f9"><a xlink:title="[task] ../../roles/kubeinit_prepare : list all_hosts">
<polygon fill="none" stroke="black" points="1700.61,-338.26 1700.61,-353.18 1555.24,-363.72 1349.65,-363.72 1204.28,-353.18 1204.28,-338.26 1349.65,-327.72 1555.24,-327.72 1700.61,-338.26"/>
<text text-anchor="middle" x="1452.44" y="-342.02" font-family="Times,serif" font-size="14.00">[task] ../../roles/kubeinit_prepare : list all_hosts</text>
</a>
</g>
</g>
<!-- Play #1: Main deployment playbook for integrating submariner (0)&#45;&gt;task_7099f3cb&#45;ed4c&#45;4b77&#45;9a0d&#45;0a702e6454f9 -->
<g id="edge_3650f4cd-73aa-48e5-915c-6256b5604dca" class="edge">
<title>Play #1: Main deployment playbook for integrating submariner (0)-&gt;task_7099f3cb-ed4c-4b77-9a0d-0a702e6454f9</title>
<path fill="none" stroke="#bd90a4" stroke-width="2" d="M883.59,-381.71C920.15,-378.51 958.13,-375.37 993.76,-372.72 1073.43,-366.8 1160.98,-361.38 1237.99,-356.96"/>
<polygon fill="#bd90a4" stroke="#bd90a4" stroke-width="2" points="1238.51,-360.44 1248.3,-356.38 1238.11,-353.45 1238.51,-360.44"/>
<text text-anchor="middle" x="966.26" y="-378.52" font-family="Times,serif" font-size="14.00" fill="#bd90a4">9</text>
<links><link target="task_7099f3cb-ed4c-4b77-9a0d-0a702e6454f9"/></links></g>
<!-- task_b0da6812&#45;0575&#45;4203&#45;968a&#45;ef3d4d2c9ffe -->
<g id="task_b0da6812-0575-4203-968a-ef3d4d2c9ffe" class="node">
<title>task_b0da6812-0575-4203-968a-ef3d4d2c9ffe</title>
<g id="a_task_b0da6812-0575-4203-968a-ef3d4d2c9ffe"><a xlink:title="[task] ../../roles/kubeinit_prepare : list all_nodes">
<polygon fill="none" stroke="black" points="1702.83,-284.26 1702.83,-299.18 1556.16,-309.72 1348.73,-309.72 1202.06,-299.18 1202.06,-284.26 1348.73,-273.72 1556.16,-273.72 1702.83,-284.26"/>
<text text-anchor="middle" x="1452.44" y="-288.02" font-family="Times,serif" font-size="14.00">[task] ../../roles/kubeinit_prepare : list all_nodes</text>
</a>
</g>
</g>
<!-- Play #1: Main deployment playbook for integrating submariner (0)&#45;&gt;task_b0da6812&#45;0575&#45;4203&#45;968a&#45;ef3d4d2c9ffe -->
<g id="edge_591d1cf0-5b8a-4aaa-ba17-73c78dddb421" class="edge">
<title>Play #1: Main deployment playbook for integrating submariner (0)-&gt;task_b0da6812-0575-4203-968a-ef3d4d2c9ffe</title>
<path fill="none" stroke="#bd90a4" stroke-width="2" d="M746.01,-381.72C805.76,-362.54 905.49,-333.03 993.76,-318.72 1057.44,-308.4 1126.66,-301.91 1191.54,-297.85"/>
<polygon fill="#bd90a4" stroke="#bd90a4" stroke-width="2" points="1192.15,-301.32 1201.92,-297.22 1191.72,-294.34 1192.15,-301.32"/>
<text text-anchor="middle" x="966.26" y="-327.52" font-family="Times,serif" font-size="14.00" fill="#bd90a4">10</text>
<links><link target="task_b0da6812-0575-4203-968a-ef3d4d2c9ffe"/></links></g>
<!-- task_982aacfc&#45;0743&#45;4a4e&#45;b518&#45;e3618050afca -->
<g id="task_982aacfc-0743-4a4e-b518-e3618050afca" class="node">
<title>task_982aacfc-0743-4a4e-b518-e3618050afca</title>
<g id="a_task_982aacfc-0743-4a4e-b518-e3618050afca"><a xlink:title="[task] ../../roles/kubeinit_prepare : list all_master_nodes">
<polygon fill="none" stroke="black" points="1743.03,-230.26 1743.03,-245.18 1572.81,-255.72 1332.08,-255.72 1161.86,-245.18 1161.86,-230.26 1332.08,-219.72 1572.81,-219.72 1743.03,-230.26"/>
<text text-anchor="middle" x="1452.44" y="-234.02" font-family="Times,serif" font-size="14.00">[task] ../../roles/kubeinit_prepare : list all_master_nodes</text>
</a>
</g>
</g>
<!-- Play #1: Main deployment playbook for integrating submariner (0)&#45;&gt;task_982aacfc&#45;0743&#45;4a4e&#45;b518&#45;e3618050afca -->
<g id="edge_c1289d51-85c7-44cb-864b-59da17f64ff3" class="edge">
<title>Play #1: Main deployment playbook for integrating submariner (0)-&gt;task_982aacfc-0743-4a4e-b518-e3618050afca</title>
<path fill="none" stroke="#bd90a4" stroke-width="2" d="M722.61,-381.63C775.53,-351.14 889.03,-290.35 993.76,-264.72 1044.15,-252.39 1098.55,-244.59 1151.65,-239.81"/>
<polygon fill="#bd90a4" stroke="#bd90a4" stroke-width="2" points="1152.24,-243.27 1161.9,-238.92 1151.63,-236.3 1152.24,-243.27"/>
<text text-anchor="middle" x="966.26" y="-277.52" font-family="Times,serif" font-size="14.00" fill="#bd90a4">11</text>
<links><link target="task_982aacfc-0743-4a4e-b518-e3618050afca"/></links></g>
<!-- task_62d6776c&#45;3848&#45;40b1&#45;99c9&#45;2153a5686c13 -->
<g id="task_62d6776c-3848-40b1-99c9-2153a5686c13" class="node">
<title>task_62d6776c-3848-40b1-99c9-2153a5686c13</title>
<g id="a_task_62d6776c-3848-40b1-99c9-2153a5686c13"><a xlink:title="[task] ../../roles/kubeinit_prepare : list all_worker_nodes">
<polygon fill="none" stroke="black" points="1743.03,-176.26 1743.03,-191.18 1572.81,-201.72 1332.08,-201.72 1161.86,-191.18 1161.86,-176.26 1332.08,-165.72 1572.81,-165.72 1743.03,-176.26"/>
<text text-anchor="middle" x="1452.44" y="-180.02" font-family="Times,serif" font-size="14.00">[task] ../../roles/kubeinit_prepare : list all_worker_nodes</text>
</a>
</g>
</g>
<!-- Play #1: Main deployment playbook for integrating submariner (0)&#45;&gt;task_62d6776c&#45;3848&#45;40b1&#45;99c9&#45;2153a5686c13 -->
<g id="edge_246ea75c-d57c-4da2-b9b5-2e6de8471b9d" class="edge">
<title>Play #1: Main deployment playbook for integrating submariner (0)-&gt;task_62d6776c-3848-40b1-99c9-2153a5686c13</title>
<path fill="none" stroke="#bd90a4" stroke-width="2" d="M712.69,-381.65C758.84,-342.07 876.37,-248.25 993.76,-210.72 1043.73,-194.75 1098.29,-185.21 1151.78,-179.85"/>
<polygon fill="#bd90a4" stroke="#bd90a4" stroke-width="2" points="1152.14,-183.33 1161.76,-178.9 1151.47,-176.36 1152.14,-183.33"/>
<text text-anchor="middle" x="966.26" y="-227.52" font-family="Times,serif" font-size="14.00" fill="#bd90a4">12</text>
<links><link target="task_62d6776c-3848-40b1-99c9-2153a5686c13"/></links></g>
<!-- task_e871cffa&#45;01e7&#45;4fcf&#45;8947&#45;bf10c45264d7 -->
<g id="task_e871cffa-01e7-4fcf-8947-bf10c45264d7" class="node">
<title>task_e871cffa-01e7-4fcf-8947-bf10c45264d7</title>
<g id="a_task_e871cffa-01e7-4fcf-8947-bf10c45264d7"><a xlink:title="[task] ../../roles/kubeinit_prepare : list all_service_nodes">
<polygon fill="none" stroke="black" points="1743.93,-122.26 1743.93,-137.18 1573.18,-147.72 1331.7,-147.72 1160.95,-137.18 1160.95,-122.26 1331.7,-111.72 1573.18,-111.72 1743.93,-122.26"/>
<text text-anchor="middle" x="1452.44" y="-126.02" font-family="Times,serif" font-size="14.00">[task] ../../roles/kubeinit_prepare : list all_service_nodes</text>
</a>
</g>
</g>
<!-- Play #1: Main deployment playbook for integrating submariner (0)&#45;&gt;task_e871cffa&#45;01e7&#45;4fcf&#45;8947&#45;bf10c45264d7 -->
<g id="edge_fda2d52c-d074-4c35-bb6e-3e7494f188a8" class="edge">
<title>Play #1: Main deployment playbook for integrating submariner (0)-&gt;task_e871cffa-01e7-4fcf-8947-bf10c45264d7</title>
<path fill="none" stroke="#bd90a4" stroke-width="2" d="M707.2,-381.59C747.51,-334.18 864.27,-206.75 993.76,-156.72 1078.49,-123.99 1178.61,-115.07 1263.58,-115.25"/>
<polygon fill="#bd90a4" stroke="#bd90a4" stroke-width="2" points="1263.57,-118.75 1273.6,-115.31 1263.62,-111.75 1263.57,-118.75"/>
<text text-anchor="middle" x="966.26" y="-172.52" font-family="Times,serif" font-size="14.00" fill="#bd90a4">13</text>
<links><link target="task_e871cffa-01e7-4fcf-8947-bf10c45264d7"/></links></g>
<!-- task_cee606c3&#45;1d17&#45;4526&#45;9f8e&#45;5aecc82d13bc -->
<g id="task_cee606c3-1d17-4526-9f8e-5aecc82d13bc" class="node">
<title>task_cee606c3-1d17-4526-9f8e-5aecc82d13bc</title>
<g id="a_task_cee606c3-1d17-4526-9f8e-5aecc82d13bc"><a xlink:title="[task] ../../roles/kubeinit_prepare : list all_bootstrap_nodes">
<polygon fill="none" stroke="black" points="1756.26,-68.26 1756.26,-83.18 1578.29,-93.72 1326.6,-93.72 1148.62,-83.18 1148.62,-68.26 1326.6,-57.72 1578.29,-57.72 1756.26,-68.26"/>
<text text-anchor="middle" x="1452.44" y="-72.02" font-family="Times,serif" font-size="14.00">[task] ../../roles/kubeinit_prepare : list all_bootstrap_nodes</text>
</a>
</g>
</g>
<!-- Play #1: Main deployment playbook for integrating submariner (0)&#45;&gt;task_cee606c3&#45;1d17&#45;4526&#45;9f8e&#45;5aecc82d13bc -->
<g id="edge_d2873bcd-16fc-4adf-8861-a0b7f32b9042" class="edge">
<title>Play #1: Main deployment playbook for integrating submariner (0)-&gt;task_cee606c3-1d17-4526-9f8e-5aecc82d13bc</title>
<path fill="none" stroke="#bd90a4" stroke-width="2" d="M703.56,-381.64C738.61,-327.39 851.77,-165.86 993.76,-102.72 1088.4,-60.64 1205.08,-54.36 1296.94,-58.36"/>
<polygon fill="#bd90a4" stroke="#bd90a4" stroke-width="2" points="1297,-61.87 1307.16,-58.85 1297.34,-54.88 1297,-61.87"/>
<text text-anchor="middle" x="966.26" y="-121.52" font-family="Times,serif" font-size="14.00" fill="#bd90a4">14</text>
<links><link target="task_cee606c3-1d17-4526-9f8e-5aecc82d13bc"/></links></g>
<!-- task_30bcdae8&#45;6f4c&#45;4cd7&#45;b488&#45;ea8df9b5b2c6 -->
<g id="task_30bcdae8-6f4c-4cd7-b488-ea8df9b5b2c6" class="node">
<title>task_30bcdae8-6f4c-4cd7-b488-ea8df9b5b2c6</title>
<g id="a_task_30bcdae8-6f4c-4cd7-b488-ea8df9b5b2c6"><a xlink:title="[task] ../../roles/kubeinit_submariner : Execute subctl verify">
<polygon fill="none" stroke="black" points="1762.92,-14.26 1762.92,-29.18 1581.05,-39.72 1323.84,-39.72 1141.96,-29.18 1141.96,-14.26 1323.84,-3.72 1581.05,-3.72 1762.92,-14.26"/>
<text text-anchor="middle" x="1452.44" y="-18.02" font-family="Times,serif" font-size="14.00">[task] ../../roles/kubeinit_submariner : Execute subctl verify</text>
</a>
</g>
</g>
<!-- Play #1: Main deployment playbook for integrating submariner (0)&#45;&gt;task_30bcdae8&#45;6f4c&#45;4cd7&#45;b488&#45;ea8df9b5b2c6 -->
<g id="edge_5943d43f-f27c-4f87-a4a9-6ca72db5fab9" class="edge">
<title>Play #1: Main deployment playbook for integrating submariner (0)-&gt;task_30bcdae8-6f4c-4cd7-b488-ea8df9b5b2c6</title>
<path fill="none" stroke="#bd90a4" stroke-width="2" d="M701.08,-381.5C731.53,-320.86 839.01,-125.4 993.76,-48.72 1093.82,0.85 1221.65,4.2 1316.77,-2.9"/>
<polygon fill="#bd90a4" stroke="#bd90a4" stroke-width="2" points="1316.5,-6.39 1326.75,-3.69 1317.06,0.59 1316.5,-6.39"/>
<text text-anchor="middle" x="966.26" y="-70.52" font-family="Times,serif" font-size="14.00" fill="#bd90a4">15</text>
<links><link target="task_30bcdae8-6f4c-4cd7-b488-ea8df9b5b2c6"/></links></g>
</g>
</svg>