<?xml version='1.0' encoding='UTF-8'?>
<!DOCTYPE svg PUBLIC "-//W3C//DTD SVG 1.1//EN" "http://www.w3.org/Graphics/SVG/1.1/DTD/svg11.dtd">
<!-- Generated by graphviz version 2.43.0 (0)
 --><!-- Title: ./playbooks/submariner&#45;subctl&#45;verify.yml  Pages: 1 --><svg xmlns="http://www.w3.org/2000/svg" xmlns:xlink="http://www.w3.org/1999/xlink" width="1919pt" height="807pt" viewBox="0.00 0.00 1919.12 807.41" id="svg">
<script type="text/javascript" href="https://ajax.googleapis.com/ajax/libs/jquery/3.2.1/jquery.min.js" id="jquery"/><script type="text/javascript" id="my_javascript"><![CDATA[const HOVER_CLASS = "my_hover";

var selectedElement = null;

function addClass(rootElement) {
    $(rootElement).find('link').each(function (index, element) {
        var target = $(element).attr('target');
        var currentElement = $('#' + target);
        currentElement.addClass(HOVER_CLASS);

        addClass(currentElement);
    })
}

function removeClass(rootElement, hover) {
    $(rootElement).find('link').each(function (index, element) {
        if ($(rootElement).attr('id') !== $(selectedElement).attr('id') || !hover) {
            var target = $(element).attr('target');
            var currentElement = $('#' + target);
            currentElement.removeClass(HOVER_CLASS);

            removeClass(currentElement);
        }

    })
}

function hoverIn(event) {
    addClass(event.currentTarget);
}

function hoverOut(event) {
    removeClass(event.currentTarget, true);
}

function clickOnElement(event) {
    var newElement = event.currentTarget;

    if ($(newElement).attr('id') === $(selectedElement).attr('id')) {
        removeClass(selectedElement, false);
    } else {
        removeClass(selectedElement);
        addClass(newElement)
    }

    selectedElement = newElement;
}


$("#svg").ready(function () {

    $("g[id^=play_]").hover(hoverIn, hoverOut);
    $("g[id^=role_]").hover(hoverIn, hoverOut);

    $("g[id^=play_]").click(clickOnElement);
    $("g[id^=role_]").click(clickOnElement);

});
]]></script><style type="text/css" id="my_css"><![CDATA[.node:hover, .edge:hover, path:hover, path + polygon:hover {
    cursor: pointer;
    stroke-width: 3;
    font-weight: bolder;
}

.my_hover {
    cursor: pointer;
    stroke-width: 3;
    font-weight: bolder;
}
]]></style><g id="graph0" class="graph" transform="scale(1 1) rotate(0) translate(4 803.41)">
<title>./playbooks/submariner-subctl-verify.yml </title>
<polygon fill="white" stroke="transparent" points="-4,4 -4,-803.41 1915.12,-803.41 1915.12,4 -4,4"/>
<!-- ./playbooks/submariner&#45;subctl&#45;verify.yml -->
<g id="root_node" class="node">
<title>./playbooks/submariner-subctl-verify.yml</title>
<ellipse fill="none" stroke="black" stroke-dasharray="1,5" cx="198.88" cy="-399.72" rx="198.76" ry="18"/>
<text text-anchor="middle" x="198.88" y="-396.02" font-family="Times,serif" font-size="14.00">./playbooks/submariner-subctl-verify.yml</text>
</g>
<!-- Play #1: Main deployment playbook for integrating submariner (0) -->
<g id="play_9ecfd62d-c000-402e-bf37-294da6ce967f" class="node">
<title>Play #1: Main deployment playbook for integrating submariner (0)</title>
<polygon fill="#5324e3" stroke="#5324e3" points="938.76,-417.72 443.76,-417.72 443.76,-381.72 938.76,-381.72 938.76,-417.72"/>
<text text-anchor="middle" x="691.26" y="-396.02" font-family="Times,serif" font-size="14.00" fill="#ffffff">Play #1: Main deployment playbook for integrating submariner (0)</text>
<links><link target="edge_85d403c5-eca1-456a-bf10-369894790733"/><link target="edge_349461ac-5b84-4928-993e-b7775480eb4b"/><link target="edge_65cd3cc5-c458-4a0a-8ad4-b6718c7e6e55"/><link target="edge_ecc60b52-9d93-446f-80bc-21ce196d7231"/><link target="edge_8d2002a8-9a49-4426-89ae-15471282bbbb"/><link target="edge_c3451175-6760-475f-8748-da2e2c7fea39"/><link target="edge_75b4bc43-ed3a-408c-9892-70fbb8c89d0e"/><link target="edge_8abaaa4f-17af-4c46-8559-0c1f45d31501"/><link target="edge_f653e846-5de3-40ec-98b7-cece04d3d1e6"/><link target="edge_68c94ad3-7d16-423b-99ea-8767c872d038"/><link target="edge_df0c1df2-fac3-4e62-ab0c-d15f5bc37974"/><link target="edge_5ed7dc66-d93d-483a-aee5-af314ffbaab7"/><link target="edge_c6ce4ec9-3450-4409-aae5-8712b79ca63e"/><link target="edge_bcdc0759-0edc-4c4a-84b2-aa74440d0b2e"/><link target="edge_f61786c4-b1e4-416e-8347-b4328dce897e"/></links></g>
<!-- ./playbooks/submariner&#45;subctl&#45;verify.yml&#45;&gt;Play #1: Main deployment playbook for integrating submariner (0) -->
<g id="edge_5f9a715b-fda9-425a-856a-ed01380ccca6" class="edge">
<title>./playbooks/submariner-subctl-verify.yml-&gt;Play #1: Main deployment playbook for integrating submariner (0)</title>
<path fill="none" stroke="#5324e3" stroke-width="2" d="M397.93,-399.72C409.66,-399.72 421.54,-399.72 433.46,-399.72"/>
<polygon fill="#5324e3" stroke="#5324e3" stroke-width="2" points="433.48,-403.22 443.48,-399.72 433.48,-396.22 433.48,-403.22"/>
<text text-anchor="middle" x="420.76" y="-403.52" font-family="Times,serif" font-size="14.00" fill="#5324e3">1</text>
</g>
<!-- pre_task_0d265b41&#45;ad72&#45;40cc&#45;b7fd&#45;a6fcd33235e0 -->
<g id="pre_task_0d265b41-ad72-40cc-b7fd-a6fcd33235e0" class="node">
<title>pre_task_0d265b41-ad72-40cc-b7fd-a6fcd33235e0</title>
<g id="a_pre_task_0d265b41-ad72-40cc-b7fd-a6fcd33235e0"><a xlink:title="[pre_task] Check if Ansible meets version requirements.">
<polygon fill="none" stroke="black" points="1746.56,-770.26 1746.56,-785.18 1574.27,-795.72 1330.61,-795.72 1158.32,-785.18 1158.32,-770.26 1330.61,-759.72 1574.27,-759.72 1746.56,-770.26"/>
<text text-anchor="middle" x="1452.44" y="-774.02" font-family="Times,serif" font-size="14.00">[pre_task] Check if Ansible meets version requirements.</text>
</a>
</g>
</g>
<!-- Play #1: Main deployment playbook for integrating submariner (0)&#45;&gt;pre_task_0d265b41&#45;ad72&#45;40cc&#45;b7fd&#45;a6fcd33235e0 -->
<g id="edge_85d403c5-eca1-456a-bf10-369894790733" class="edge">
<title>Play #1: Main deployment playbook for integrating submariner (0)-&gt;pre_task_0d265b41-ad72-40cc-b7fd-a6fcd33235e0</title>
<path fill="none" stroke="#5324e3" stroke-width="2" d="M701.08,-417.95C731.53,-478.59 839.01,-674.04 993.76,-750.72 1094.33,-800.55 1222.97,-803.68 1318.25,-796.43"/>
<polygon fill="#5324e3" stroke="#5324e3" stroke-width="2" points="1318.55,-799.92 1328.23,-795.63 1317.98,-792.94 1318.55,-799.92"/>
<text text-anchor="middle" x="966.26" y="-742.52" font-family="Times,serif" font-size="14.00" fill="#5324e3">1</text>
<links><link target="pre_task_0d265b41-ad72-40cc-b7fd-a6fcd33235e0"/></links></g>
<!-- task_01399a6a&#45;db47&#45;4e0e&#45;863f&#45;b7d1b6e3ffba -->
<g id="task_01399a6a-db47-4e0e-863f-b7d1b6e3ffba" class="node">
<title>task_01399a6a-db47-4e0e-863f-b7d1b6e3ffba</title>
<g id="a_task_01399a6a-db47-4e0e-863f-b7d1b6e3ffba"><a xlink:title="[task] ../../roles/kubeinit_prepare : Gather variables for each operating system">
<polygon fill="none" stroke="black" points="1856.05,-716.26 1856.05,-731.18 1619.62,-741.72 1285.26,-741.72 1048.83,-731.18 1048.83,-716.26 1285.26,-705.72 1619.62,-705.72 1856.05,-716.26"/>
<text text-anchor="middle" x="1452.44" y="-720.02" font-family="Times,serif" font-size="14.00">[task] ../../roles/kubeinit_prepare : Gather variables for each operating system</text>
</a>
</g>
</g>
<!-- Play #1: Main deployment playbook for integrating submariner (0)&#45;&gt;task_01399a6a&#45;db47&#45;4e0e&#45;863f&#45;b7d1b6e3ffba -->
<g id="edge_349461ac-5b84-4928-993e-b7775480eb4b" class="edge">
<title>Play #1: Main deployment playbook for integrating submariner (0)-&gt;task_01399a6a-db47-4e0e-863f-b7d1b6e3ffba</title>
<path fill="none" stroke="#5324e3" stroke-width="2" d="M703.56,-417.8C738.61,-472.05 851.77,-633.58 993.76,-696.72 1080.17,-735.14 1184.93,-743.72 1272.42,-741.87"/>
<polygon fill="#5324e3" stroke="#5324e3" stroke-width="2" points="1272.55,-745.37 1282.45,-741.62 1272.37,-738.37 1272.55,-745.37"/>
<text text-anchor="middle" x="966.26" y="-690.52" font-family="Times,serif" font-size="14.00" fill="#5324e3">2</text>
<links><link target="task_01399a6a-db47-4e0e-863f-b7d1b6e3ffba"/></links></g>
<!-- task_842bd3a5&#45;30b6&#45;4e01&#45;8d02&#45;3d8f57813ea1 -->
<g id="task_842bd3a5-30b6-4e01-8d02-3d8f57813ea1" class="node">
<title>task_842bd3a5-30b6-4e01-8d02-3d8f57813ea1</title>
<g id="a_task_842bd3a5-30b6-4e01-8d02-3d8f57813ea1"><a xlink:title="[task] ../../roles/kubeinit_prepare : add all nodes to the all_nodes group">
<polygon fill="none" stroke="black" points="1818.98,-662.26 1818.98,-677.18 1604.27,-687.72 1300.62,-687.72 1085.9,-677.18 1085.9,-662.26 1300.62,-651.72 1604.27,-651.72 1818.98,-662.26"/>
<text text-anchor="middle" x="1452.44" y="-666.02" font-family="Times,serif" font-size="14.00">[task] ../../roles/kubeinit_prepare : add all nodes to the all_nodes group</text>
</a>
</g>
</g>
<!-- Play #1: Main deployment playbook for integrating submariner (0)&#45;&gt;task_842bd3a5&#45;30b6&#45;4e01&#45;8d02&#45;3d8f57813ea1 -->
<g id="edge_65cd3cc5-c458-4a0a-8ad4-b6718c7e6e55" class="edge">
<title>Play #1: Main deployment playbook for integrating submariner (0)-&gt;task_842bd3a5-30b6-4e01-8d02-3d8f57813ea1</title>
<path fill="none" stroke="#5324e3" stroke-width="2" d="M707.2,-417.85C747.51,-465.26 864.27,-592.69 993.76,-642.72 1019.92,-652.82 1047.54,-660.66 1075.72,-666.66"/>
<polygon fill="#5324e3" stroke="#5324e3" stroke-width="2" points="1075.22,-670.12 1085.72,-668.7 1076.62,-663.27 1075.22,-670.12"/>
<text text-anchor="middle" x="966.26" y="-638.52" font-family="Times,serif" font-size="14.00" fill="#5324e3">3</text>
<links><link target="task_842bd3a5-30b6-4e01-8d02-3d8f57813ea1"/></links></g>
<!-- task_845dc544&#45;e45b&#45;4d8a&#45;9a35&#45;fd6a4c34ca01 -->
<g id="task_845dc544-e45b-4d8a-9a35-fd6a4c34ca01" class="node">
<title>task_845dc544-e45b-4d8a-9a35-fd6a4c34ca01</title>
<g id="a_task_845dc544-e45b-4d8a-9a35-fd6a4c34ca01"><a xlink:title="[task] ../../roles/kubeinit_prepare : add all master nodes to the all_master_nodes group">
<polygon fill="none" stroke="black" points="1897.56,-608.26 1897.56,-623.18 1636.82,-633.72 1268.07,-633.72 1007.32,-623.18 1007.32,-608.26 1268.07,-597.72 1636.82,-597.72 1897.56,-608.26"/>
<text text-anchor="middle" x="1452.44" y="-612.02" font-family="Times,serif" font-size="14.00">[task] ../../roles/kubeinit_prepare : add all master nodes to the all_master_nodes group</text>
</a>
</g>
</g>
<!-- Play #1: Main deployment playbook for integrating submariner (0)&#45;&gt;task_845dc544&#45;e45b&#45;4d8a&#45;9a35&#45;fd6a4c34ca01 -->
<g id="edge_ecc60b52-9d93-446f-80bc-21ce196d7231" class="edge">
<title>Play #1: Main deployment playbook for integrating submariner (0)-&gt;task_845dc544-e45b-4d8a-9a35-fd6a4c34ca01</title>
<path fill="none" stroke="#5324e3" stroke-width="2" d="M712.69,-417.79C758.84,-457.37 876.37,-551.19 993.76,-588.72 1012.33,-594.66 1031.53,-599.7 1051.08,-603.98"/>
<polygon fill="#5324e3" stroke="#5324e3" stroke-width="2" points="1050.5,-607.43 1061.01,-606.08 1051.95,-600.58 1050.5,-607.43"/>
<text text-anchor="middle" x="966.26" y="-585.52" font-family="Times,serif" font-size="14.00" fill="#5324e3">4</text>
<links><link target="task_845dc544-e45b-4d8a-9a35-fd6a4c34ca01"/></links></g>
<!-- task_226bd55b&#45;593c&#45;48a1&#45;973e&#45;f3c2e8816e21 -->
<g id="task_226bd55b-593c-48a1-973e-f3c2e8816e21" class="node">
<title>task_226bd55b-593c-48a1-973e-f3c2e8816e21</title>
<g id="a_task_226bd55b-593c-48a1-973e-f3c2e8816e21"><a xlink:title="[task] ../../roles/kubeinit_prepare : add all worker nodes to the all_worker_nodes group">
<polygon fill="none" stroke="black" points="1897.56,-554.26 1897.56,-569.18 1636.82,-579.72 1268.07,-579.72 1007.32,-569.18 1007.32,-554.26 1268.07,-543.72 1636.82,-543.72 1897.56,-554.26"/>
<text text-anchor="middle" x="1452.44" y="-558.02" font-family="Times,serif" font-size="14.00">[task] ../../roles/kubeinit_prepare : add all worker nodes to the all_worker_nodes group</text>
</a>
</g>
</g>
<!-- Play #1: Main deployment playbook for integrating submariner (0)&#45;&gt;task_226bd55b&#45;593c&#45;48a1&#45;973e&#45;f3c2e8816e21 -->
<g id="edge_8d2002a8-9a49-4426-89ae-15471282bbbb" class="edge">
<title>Play #1: Main deployment playbook for integrating submariner (0)-&gt;task_226bd55b-593c-48a1-973e-f3c2e8816e21</title>
<path fill="none" stroke="#5324e3" stroke-width="2" d="M722.61,-417.81C775.53,-448.3 889.03,-509.1 993.76,-534.72 1018.53,-540.78 1044.27,-545.75 1070.34,-549.8"/>
<polygon fill="#5324e3" stroke="#5324e3" stroke-width="2" points="1069.93,-553.28 1080.34,-551.31 1070.98,-546.35 1069.93,-553.28"/>
<text text-anchor="middle" x="966.26" y="-531.52" font-family="Times,serif" font-size="14.00" fill="#5324e3">5</text>
<links><link target="task_226bd55b-593c-48a1-973e-f3c2e8816e21"/></links></g>
<!-- task_905f2873&#45;b348&#45;4717&#45;8679&#45;0ed405ecfde6 -->
<g id="task_905f2873-b348-4717-8679-0ed405ecfde6" class="node">
<title>task_905f2873-b348-4717-8679-0ed405ecfde6</title>
<g id="a_task_905f2873-b348-4717-8679-0ed405ecfde6"><a xlink:title="[task] ../../roles/kubeinit_prepare : add all bootstrap nodes the all_bootstrap_nodes group">
<polygon fill="none" stroke="black" points="1911.3,-500.26 1911.3,-515.18 1642.51,-525.72 1262.38,-525.72 993.59,-515.18 993.59,-500.26 1262.38,-489.72 1642.51,-489.72 1911.3,-500.26"/>
<text text-anchor="middle" x="1452.44" y="-504.02" font-family="Times,serif" font-size="14.00">[task] ../../roles/kubeinit_prepare : add all bootstrap nodes the all_bootstrap_nodes group</text>
</a>
</g>
</g>
<!-- Play #1: Main deployment playbook for integrating submariner (0)&#45;&gt;task_905f2873&#45;b348&#45;4717&#45;8679&#45;0ed405ecfde6 -->
<g id="edge_c3451175-6760-475f-8748-da2e2c7fea39" class="edge">
<title>Play #1: Main deployment playbook for integrating submariner (0)-&gt;task_905f2873-b348-4717-8679-0ed405ecfde6</title>
<path fill="none" stroke="#5324e3" stroke-width="2" d="M746.01,-417.72C805.76,-436.9 905.49,-466.41 993.76,-480.72 1028.96,-486.42 1065.84,-490.96 1102.75,-494.56"/>
<polygon fill="#5324e3" stroke="#5324e3" stroke-width="2" points="1102.88,-498.09 1113.16,-495.55 1103.54,-491.12 1102.88,-498.09"/>
<text text-anchor="middle" x="966.26" y="-479.52" font-family="Times,serif" font-size="14.00" fill="#5324e3">6</text>
<links><link target="task_905f2873-b348-4717-8679-0ed405ecfde6"/></links></g>
<!-- task_b0e971e4&#45;2bde&#45;47a1&#45;b58c&#45;6c6c2f4ff5fd -->
<g id="task_b0e971e4-2bde-47a1-b58c-6c6c2f4ff5fd" class="node">
<title>task_b0e971e4-2bde-47a1-b58c-6c6c2f4ff5fd</title>
<g id="a_task_b0e971e4-2bde-47a1-b58c-6c6c2f4ff5fd"><a xlink:title="[task] ../../roles/kubeinit_prepare : add all service nodes to the all_service_nodes group">
<polygon fill="none" stroke="black" points="1899.38,-446.26 1899.38,-461.18 1637.57,-471.72 1267.32,-471.72 1005.51,-461.18 1005.51,-446.26 1267.32,-435.72 1637.57,-435.72 1899.38,-446.26"/>
<text text-anchor="middle" x="1452.44" y="-450.02" font-family="Times,serif" font-size="14.00">[task] ../../roles/kubeinit_prepare : add all service nodes to the all_service_nodes group</text>
</a>
</g>
</g>
<!-- Play #1: Main deployment playbook for integrating submariner (0)&#45;&gt;task_b0e971e4&#45;2bde&#45;47a1&#45;b58c&#45;6c6c2f4ff5fd -->
<g id="edge_75b4bc43-ed3a-408c-9892-70fbb8c89d0e" class="edge">
<title>Play #1: Main deployment playbook for integrating submariner (0)-&gt;task_b0e971e4-2bde-47a1-b58c-6c6c2f4ff5fd</title>
<path fill="none" stroke="#5324e3" stroke-width="2" d="M883.59,-417.74C920.15,-420.93 958.13,-424.07 993.76,-426.72 1051.17,-430.98 1112.66,-434.99 1171.35,-438.55"/>
<polygon fill="#5324e3" stroke="#5324e3" stroke-width="2" points="1171.32,-442.05 1181.51,-439.16 1171.74,-435.07 1171.32,-442.05"/>
<text text-anchor="middle" x="966.26" y="-428.52" font-family="Times,serif" font-size="14.00" fill="#5324e3">7</text>
<links><link target="task_b0e971e4-2bde-47a1-b58c-6c6c2f4ff5fd"/></links></g>
<!-- task_8fe5ad5e&#45;769e&#45;48f7&#45;8ca3&#45;b67d508a4f52 -->
<g id="task_8fe5ad5e-769e-48f7-8ca3-b67d508a4f52" class="node">
<title>task_8fe5ad5e-769e-48f7-8ca3-b67d508a4f52</title>
<g id="a_task_8fe5ad5e-769e-48f7-8ca3-b67d508a4f52"><a xlink:title="[task] ../../roles/kubeinit_prepare : add all hosts to the all_hosts group">
<polygon fill="none" stroke="black" points="1814.13,-392.26 1814.13,-407.18 1602.26,-417.72 1302.62,-417.72 1090.75,-407.18 1090.75,-392.26 1302.62,-381.72 1602.26,-381.72 1814.13,-392.26"/>
<text text-anchor="middle" x="1452.44" y="-396.02" font-family="Times,serif" font-size="14.00">[task] ../../roles/kubeinit_prepare : add all hosts to the all_hosts group</text>
</a>
</g>
</g>
<!-- Play #1: Main deployment playbook for integrating submariner (0)&#45;&gt;task_8fe5ad5e&#45;769e&#45;48f7&#45;8ca3&#45;b67d508a4f52 -->
<g id="edge_8abaaa4f-17af-4c46-8559-0c1f45d31501" class="edge">
<title>Play #1: Main deployment playbook for integrating submariner (0)-&gt;task_8fe5ad5e-769e-48f7-8ca3-b67d508a4f52</title>
<path fill="none" stroke="#5324e3" stroke-width="2" d="M939.01,-399.72C984.27,-399.72 1032.42,-399.72 1080.39,-399.72"/>
<polygon fill="#5324e3" stroke="#5324e3" stroke-width="2" points="1080.62,-403.22 1090.62,-399.72 1080.62,-396.22 1080.62,-403.22"/>
<text text-anchor="middle" x="966.26" y="-403.52" font-family="Times,serif" font-size="14.00" fill="#5324e3">8</text>
<links><link target="task_8fe5ad5e-769e-48f7-8ca3-b67d508a4f52"/></links></g>
<!-- task_14ac9a00&#45;5d8e&#45;4f84&#45;9275&#45;9c3366897d98 -->
<g id="task_14ac9a00-5d8e-4f84-9275-9c3366897d98" class="node">
<title>task_14ac9a00-5d8e-4f84-9275-9c3366897d98</title>
<g id="a_task_14ac9a00-5d8e-4f84-9275-9c3366897d98"><a xlink:title="[task] ../../roles/kubeinit_prepare : list all_hosts">
<polygon fill="none" stroke="black" points="1700.61,-338.26 1700.61,-353.18 1555.24,-363.72 1349.65,-363.72 1204.28,-353.18 1204.28,-338.26 1349.65,-327.72 1555.24,-327.72 1700.61,-338.26"/>
<text text-anchor="middle" x="1452.44" y="-342.02" font-family="Times,serif" font-size="14.00">[task] ../../roles/kubeinit_prepare : list all_hosts</text>
</a>
</g>
</g>
<!-- Play #1: Main deployment playbook for integrating submariner (0)&#45;&gt;task_14ac9a00&#45;5d8e&#45;4f84&#45;9275&#45;9c3366897d98 -->
<g id="edge_f653e846-5de3-40ec-98b7-cece04d3d1e6" class="edge">
<title>Play #1: Main deployment playbook for integrating submariner (0)-&gt;task_14ac9a00-5d8e-4f84-9275-9c3366897d98</title>
<path fill="none" stroke="#5324e3" stroke-width="2" d="M883.59,-381.71C920.15,-378.51 958.13,-375.37 993.76,-372.72 1073.43,-366.8 1160.98,-361.38 1237.99,-356.96"/>
<polygon fill="#5324e3" stroke="#5324e3" stroke-width="2" points="1238.51,-360.44 1248.3,-356.38 1238.11,-353.45 1238.51,-360.44"/>
<text text-anchor="middle" x="966.26" y="-378.52" font-family="Times,serif" font-size="14.00" fill="#5324e3">9</text>
<links><link target="task_14ac9a00-5d8e-4f84-9275-9c3366897d98"/></links></g>
<!-- task_4054634e&#45;944f&#45;46ad&#45;b5c1&#45;cd2098455632 -->
<g id="task_4054634e-944f-46ad-b5c1-cd2098455632" class="node">
<title>task_4054634e-944f-46ad-b5c1-cd2098455632</title>
<g id="a_task_4054634e-944f-46ad-b5c1-cd2098455632"><a xlink:title="[task] ../../roles/kubeinit_prepare : list all_nodes">
<polygon fill="none" stroke="black" points="1702.83,-284.26 1702.83,-299.18 1556.16,-309.72 1348.73,-309.72 1202.06,-299.18 1202.06,-284.26 1348.73,-273.72 1556.16,-273.72 1702.83,-284.26"/>
<text text-anchor="middle" x="1452.44" y="-288.02" font-family="Times,serif" font-size="14.00">[task] ../../roles/kubeinit_prepare : list all_nodes</text>
</a>
</g>
</g>
<!-- Play #1: Main deployment playbook for integrating submariner (0)&#45;&gt;task_4054634e&#45;944f&#45;46ad&#45;b5c1&#45;cd2098455632 -->
<g id="edge_68c94ad3-7d16-423b-99ea-8767c872d038" class="edge">
<title>Play #1: Main deployment playbook for integrating submariner (0)-&gt;task_4054634e-944f-46ad-b5c1-cd2098455632</title>
<path fill="none" stroke="#5324e3" stroke-width="2" d="M746.01,-381.72C805.76,-362.54 905.49,-333.03 993.76,-318.72 1057.44,-308.4 1126.66,-301.91 1191.54,-297.85"/>
<polygon fill="#5324e3" stroke="#5324e3" stroke-width="2" points="1192.15,-301.32 1201.92,-297.22 1191.72,-294.34 1192.15,-301.32"/>
<text text-anchor="middle" x="966.26" y="-327.52" font-family="Times,serif" font-size="14.00" fill="#5324e3">10</text>
<links><link target="task_4054634e-944f-46ad-b5c1-cd2098455632"/></links></g>
<!-- task_4b746fd2&#45;ebb7&#45;492a&#45;bc49&#45;9d4d17a21059 -->
<g id="task_4b746fd2-ebb7-492a-bc49-9d4d17a21059" class="node">
<title>task_4b746fd2-ebb7-492a-bc49-9d4d17a21059</title>
<g id="a_task_4b746fd2-ebb7-492a-bc49-9d4d17a21059"><a xlink:title="[task] ../../roles/kubeinit_prepare : list all_master_nodes">
<polygon fill="none" stroke="black" points="1743.03,-230.26 1743.03,-245.18 1572.81,-255.72 1332.08,-255.72 1161.86,-245.18 1161.86,-230.26 1332.08,-219.72 1572.81,-219.72 1743.03,-230.26"/>
<text text-anchor="middle" x="1452.44" y="-234.02" font-family="Times,serif" font-size="14.00">[task] ../../roles/kubeinit_prepare : list all_master_nodes</text>
</a>
</g>
</g>
<!-- Play #1: Main deployment playbook for integrating submariner (0)&#45;&gt;task_4b746fd2&#45;ebb7&#45;492a&#45;bc49&#45;9d4d17a21059 -->
<g id="edge_df0c1df2-fac3-4e62-ab0c-d15f5bc37974" class="edge">
<title>Play #1: Main deployment playbook for integrating submariner (0)-&gt;task_4b746fd2-ebb7-492a-bc49-9d4d17a21059</title>
<path fill="none" stroke="#5324e3" stroke-width="2" d="M722.61,-381.63C775.53,-351.14 889.03,-290.35 993.76,-264.72 1044.15,-252.39 1098.55,-244.59 1151.65,-239.81"/>
<polygon fill="#5324e3" stroke="#5324e3" stroke-width="2" points="1152.24,-243.27 1161.9,-238.92 1151.63,-236.3 1152.24,-243.27"/>
<text text-anchor="middle" x="966.26" y="-277.52" font-family="Times,serif" font-size="14.00" fill="#5324e3">11</text>
<links><link target="task_4b746fd2-ebb7-492a-bc49-9d4d17a21059"/></links></g>
<!-- task_b155c681&#45;f6a6&#45;400e&#45;8b63&#45;cd5f4305c7fd -->
<g id="task_b155c681-f6a6-400e-8b63-cd5f4305c7fd" class="node">
<title>task_b155c681-f6a6-400e-8b63-cd5f4305c7fd</title>
<g id="a_task_b155c681-f6a6-400e-8b63-cd5f4305c7fd"><a xlink:title="[task] ../../roles/kubeinit_prepare : list all_worker_nodes">
<polygon fill="none" stroke="black" points="1743.03,-176.26 1743.03,-191.18 1572.81,-201.72 1332.08,-201.72 1161.86,-191.18 1161.86,-176.26 1332.08,-165.72 1572.81,-165.72 1743.03,-176.26"/>
<text text-anchor="middle" x="1452.44" y="-180.02" font-family="Times,serif" font-size="14.00">[task] ../../roles/kubeinit_prepare : list all_worker_nodes</text>
</a>
</g>
</g>
<!-- Play #1: Main deployment playbook for integrating submariner (0)&#45;&gt;task_b155c681&#45;f6a6&#45;400e&#45;8b63&#45;cd5f4305c7fd -->
<g id="edge_5ed7dc66-d93d-483a-aee5-af314ffbaab7" class="edge">
<title>Play #1: Main deployment playbook for integrating submariner (0)-&gt;task_b155c681-f6a6-400e-8b63-cd5f4305c7fd</title>
<path fill="none" stroke="#5324e3" stroke-width="2" d="M712.69,-381.65C758.84,-342.07 876.37,-248.25 993.76,-210.72 1043.73,-194.75 1098.29,-185.21 1151.78,-179.85"/>
<polygon fill="#5324e3" stroke="#5324e3" stroke-width="2" points="1152.14,-183.33 1161.76,-178.9 1151.47,-176.36 1152.14,-183.33"/>
<text text-anchor="middle" x="966.26" y="-227.52" font-family="Times,serif" font-size="14.00" fill="#5324e3">12</text>
<links><link target="task_b155c681-f6a6-400e-8b63-cd5f4305c7fd"/></links></g>
<!-- task_46af0ce9&#45;771f&#45;403d&#45;a4a3&#45;a690b7471e95 -->
<g id="task_46af0ce9-771f-403d-a4a3-a690b7471e95" class="node">
<title>task_46af0ce9-771f-403d-a4a3-a690b7471e95</title>
<g id="a_task_46af0ce9-771f-403d-a4a3-a690b7471e95"><a xlink:title="[task] ../../roles/kubeinit_prepare : list all_service_nodes">
<polygon fill="none" stroke="black" points="1743.93,-122.26 1743.93,-137.18 1573.18,-147.72 1331.7,-147.72 1160.95,-137.18 1160.95,-122.26 1331.7,-111.72 1573.18,-111.72 1743.93,-122.26"/>
<text text-anchor="middle" x="1452.44" y="-126.02" font-family="Times,serif" font-size="14.00">[task] ../../roles/kubeinit_prepare : list all_service_nodes</text>
</a>
</g>
</g>
<!-- Play #1: Main deployment playbook for integrating submariner (0)&#45;&gt;task_46af0ce9&#45;771f&#45;403d&#45;a4a3&#45;a690b7471e95 -->
<g id="edge_c6ce4ec9-3450-4409-aae5-8712b79ca63e" class="edge">
<title>Play #1: Main deployment playbook for integrating submariner (0)-&gt;task_46af0ce9-771f-403d-a4a3-a690b7471e95</title>
<path fill="none" stroke="#5324e3" stroke-width="2" d="M707.2,-381.59C747.51,-334.18 864.27,-206.75 993.76,-156.72 1078.49,-123.99 1178.61,-115.07 1263.58,-115.25"/>
<polygon fill="#5324e3" stroke="#5324e3" stroke-width="2" points="1263.57,-118.75 1273.6,-115.31 1263.62,-111.75 1263.57,-118.75"/>
<text text-anchor="middle" x="966.26" y="-172.52" font-family="Times,serif" font-size="14.00" fill="#5324e3">13</text>
<links><link target="task_46af0ce9-771f-403d-a4a3-a690b7471e95"/></links></g>
<!-- task_25945141&#45;42d1&#45;4bc6&#45;88a2&#45;a5ed7066c524 -->
<g id="task_25945141-42d1-4bc6-88a2-a5ed7066c524" class="node">
<title>task_25945141-42d1-4bc6-88a2-a5ed7066c524</title>
<g id="a_task_25945141-42d1-4bc6-88a2-a5ed7066c524"><a xlink:title="[task] ../../roles/kubeinit_prepare : list all_bootstrap_nodes">
<polygon fill="none" stroke="black" points="1756.26,-68.26 1756.26,-83.18 1578.29,-93.72 1326.6,-93.72 1148.62,-83.18 1148.62,-68.26 1326.6,-57.72 1578.29,-57.72 1756.26,-68.26"/>
<text text-anchor="middle" x="1452.44" y="-72.02" font-family="Times,serif" font-size="14.00">[task] ../../roles/kubeinit_prepare : list all_bootstrap_nodes</text>
</a>
</g>
</g>
<!-- Play #1: Main deployment playbook for integrating submariner (0)&#45;&gt;task_25945141&#45;42d1&#45;4bc6&#45;88a2&#45;a5ed7066c524 -->
<g id="edge_bcdc0759-0edc-4c4a-84b2-aa74440d0b2e" class="edge">
<title>Play #1: Main deployment playbook for integrating submariner (0)-&gt;task_25945141-42d1-4bc6-88a2-a5ed7066c524</title>
<path fill="none" stroke="#5324e3" stroke-width="2" d="M703.56,-381.64C738.61,-327.39 851.77,-165.86 993.76,-102.72 1088.4,-60.64 1205.08,-54.36 1296.94,-58.36"/>
<polygon fill="#5324e3" stroke="#5324e3" stroke-width="2" points="1297,-61.87 1307.16,-58.85 1297.34,-54.88 1297,-61.87"/>
<text text-anchor="middle" x="966.26" y="-121.52" font-family="Times,serif" font-size="14.00" fill="#5324e3">14</text>
<links><link target="task_25945141-42d1-4bc6-88a2-a5ed7066c524"/></links></g>
<!-- task_6bf359dc&#45;1228&#45;4c52&#45;a985&#45;8d81081ad510 -->
<g id="task_6bf359dc-1228-4c52-a985-8d81081ad510" class="node">
<title>task_6bf359dc-1228-4c52-a985-8d81081ad510</title>
<g id="a_task_6bf359dc-1228-4c52-a985-8d81081ad510"><a xlink:title="[task] ../../roles/kubeinit_submariner : Execute subctl verify">
<polygon fill="none" stroke="black" points="1762.92,-14.26 1762.92,-29.18 1581.05,-39.72 1323.84,-39.72 1141.96,-29.18 1141.96,-14.26 1323.84,-3.72 1581.05,-3.72 1762.92,-14.26"/>
<text text-anchor="middle" x="1452.44" y="-18.02" font-family="Times,serif" font-size="14.00">[task] ../../roles/kubeinit_submariner : Execute subctl verify</text>
</a>
</g>
</g>
<!-- Play #1: Main deployment playbook for integrating submariner (0)&#45;&gt;task_6bf359dc&#45;1228&#45;4c52&#45;a985&#45;8d81081ad510 -->
<g id="edge_f61786c4-b1e4-416e-8347-b4328dce897e" class="edge">
<title>Play #1: Main deployment playbook for integrating submariner (0)-&gt;task_6bf359dc-1228-4c52-a985-8d81081ad510</title>
<path fill="none" stroke="#5324e3" stroke-width="2" d="M701.08,-381.5C731.53,-320.86 839.01,-125.4 993.76,-48.72 1093.82,0.85 1221.65,4.2 1316.77,-2.9"/>
<polygon fill="#5324e3" stroke="#5324e3" stroke-width="2" points="1316.5,-6.39 1326.75,-3.69 1317.06,0.59 1316.5,-6.39"/>
<text text-anchor="middle" x="966.26" y="-70.52" font-family="Times,serif" font-size="14.00" fill="#5324e3">15</text>
<links><link target="task_6bf359dc-1228-4c52-a985-8d81081ad510"/></links></g>
</g>
</svg>