<?xml version='1.0' encoding='UTF-8'?>
<!DOCTYPE svg PUBLIC "-//W3C//DTD SVG 1.1//EN" "http://www.w3.org/Graphics/SVG/1.1/DTD/svg11.dtd">
<!-- Generated by graphviz version 2.43.0 (0)
 --><!-- Title: ./playbooks/submariner&#45;subctl&#45;verify.yml  Pages: 1 --><svg xmlns="http://www.w3.org/2000/svg" xmlns:xlink="http://www.w3.org/1999/xlink" width="2266pt" height="861pt" viewBox="0.00 0.00 2266.12 860.59" id="svg">
<script type="text/javascript" href="https://ajax.googleapis.com/ajax/libs/jquery/3.2.1/jquery.min.js" id="jquery"/><script type="text/javascript" id="my_javascript"><![CDATA[const HOVER_CLASS = "my_hover";

var selectedElement = null;

function addClass(rootElement) {
    $(rootElement).find('link').each(function (index, element) {
        var target = $(element).attr('target');
        var currentElement = $('#' + target);
        currentElement.addClass(HOVER_CLASS);

        addClass(currentElement);
    })
}

function removeClass(rootElement, hover) {
    $(rootElement).find('link').each(function (index, element) {
        if ($(rootElement).attr('id') !== $(selectedElement).attr('id') || !hover) {
            var target = $(element).attr('target');
            var currentElement = $('#' + target);
            currentElement.removeClass(HOVER_CLASS);

            removeClass(currentElement);
        }

    })
}

function hoverIn(event) {
    addClass(event.currentTarget);
}

function hoverOut(event) {
    removeClass(event.currentTarget, true);
}

function clickOnElement(event) {
    var newElement = event.currentTarget;

    if ($(newElement).attr('id') === $(selectedElement).attr('id')) {
        removeClass(selectedElement, false);
    } else {
        removeClass(selectedElement);
        addClass(newElement)
    }

    selectedElement = newElement;
}


$("#svg").ready(function () {

    $("g[id^=play_]").hover(hoverIn, hoverOut);
    $("g[id^=role_]").hover(hoverIn, hoverOut);

    $("g[id^=play_]").click(clickOnElement);
    $("g[id^=role_]").click(clickOnElement);

});
]]></script><style type="text/css" id="my_css"><![CDATA[.node:hover, .edge:hover, path:hover, path + polygon:hover {
    cursor: pointer;
    stroke-width: 3;
    font-weight: bolder;
}

.my_hover {
    cursor: pointer;
    stroke-width: 3;
    font-weight: bolder;
}
]]></style><g id="graph0" class="graph" transform="scale(1 1) rotate(0) translate(4 856.59)">
<title>./playbooks/submariner-subctl-verify.yml </title>
<polygon fill="white" stroke="transparent" points="-4,4 -4,-856.59 2262.12,-856.59 2262.12,4 -4,4"/>
<!-- ./playbooks/submariner&#45;subctl&#45;verify.yml -->
<g id="root_node" class="node">
<title>./playbooks/submariner-subctl-verify.yml</title>
<ellipse fill="none" stroke="black" stroke-dasharray="1,5" cx="198.88" cy="-437.59" rx="198.76" ry="18"/>
<text text-anchor="middle" x="198.88" y="-433.89" font-family="Times,serif" font-size="14.00">./playbooks/submariner-subctl-verify.yml</text>
</g>
<!-- Play #1: Main deployment playbook for integrating submariner (0) -->
<g id="play_4dee518b-115e-4cf2-8f99-998cd55f52fa" class="node">
<title>Play #1: Main deployment playbook for integrating submariner (0)</title>
<polygon fill="#6f72e4" stroke="#6f72e4" points="938.76,-455.59 443.76,-455.59 443.76,-419.59 938.76,-419.59 938.76,-455.59"/>
<text text-anchor="middle" x="691.26" y="-433.89" font-family="Times,serif" font-size="14.00" fill="#000000">Play #1: Main deployment playbook for integrating submariner (0)</text>
<links><link target="edge_1c1521c2-7234-4a9e-8b3d-97a5f3e3a7da"/><link target="edge_e153c29b-fe7b-4c1e-adb7-b32f97c63106"/><link target="edge_c93f3c1f-24b8-4a70-b823-bc968c52908a"/><link target="edge_cb7b78a5-09c8-49e1-93ca-cf92517c4222"/><link target="edge_e2aaf222-dc44-4852-936e-28a5cebd50fb"/><link target="edge_7ed832b1-c4e2-4d9a-91e1-11036282a819"/><link target="edge_f650a870-b49e-4da0-8303-ec480280596a"/><link target="edge_4a702baf-66f7-49f7-a61f-f00e297db85c"/><link target="edge_81ec3ebc-451d-4ef7-86b5-1013a0bbd4b3"/><link target="edge_57491fa5-6399-433a-8708-a5a7e73044a0"/><link target="edge_9cb5ff1d-9081-4f01-9a9b-c25127515df8"/><link target="edge_6cbf463d-d3eb-4725-b33d-b3db5017eb87"/><link target="edge_fdf0ff95-29b0-44d7-91ff-112f0c7b0060"/><link target="edge_8f41f7a8-1b49-46c1-8e72-cf209ff8c458"/><link target="edge_85dd38ca-5a8c-4949-9028-3176f7c4548c"/></links></g>
<!-- ./playbooks/submariner&#45;subctl&#45;verify.yml&#45;&gt;Play #1: Main deployment playbook for integrating submariner (0) -->
<g id="edge_d73e7307-3e87-4d54-b284-636a30f83792" class="edge">
<title>./playbooks/submariner-subctl-verify.yml-&gt;Play #1: Main deployment playbook for integrating submariner (0)</title>
<path fill="none" stroke="#6f72e4" stroke-width="2" d="M397.93,-437.59C409.66,-437.59 421.54,-437.59 433.46,-437.59"/>
<polygon fill="#6f72e4" stroke="#6f72e4" stroke-width="2" points="433.48,-441.09 443.48,-437.59 433.48,-434.09 433.48,-441.09"/>
<text text-anchor="middle" x="420.76" y="-441.39" font-family="Times,serif" font-size="14.00" fill="#6f72e4">1</text>
</g>
<!-- pre_task_22ae7039&#45;7c38&#45;4a0a&#45;abda&#45;fa82a1bf14b7 -->
<g id="pre_task_22ae7039-7c38-4a0a-abda-fa82a1bf14b7" class="node">
<title>pre_task_22ae7039-7c38-4a0a-abda-fa82a1bf14b7</title>
<g id="a_pre_task_22ae7039-7c38-4a0a-abda-fa82a1bf14b7"><a xlink:title="[pre_task] Check if Ansible meets version requirements.">
<polygon fill="none" stroke="black" points="2093.56,-808.14 2093.56,-823.05 1921.27,-833.59 1677.61,-833.59 1505.32,-823.05 1505.32,-808.14 1677.61,-797.59 1921.27,-797.59 2093.56,-808.14"/>
<text text-anchor="middle" x="1799.44" y="-811.89" font-family="Times,serif" font-size="14.00">[pre_task] Check if Ansible meets version requirements.</text>
</a>
</g>
</g>
<!-- Play #1: Main deployment playbook for integrating submariner (0)&#45;&gt;pre_task_22ae7039&#45;7c38&#45;4a0a&#45;abda&#45;fa82a1bf14b7 -->
<g id="edge_1c1521c2-7234-4a9e-8b3d-97a5f3e3a7da" class="edge">
<title>Play #1: Main deployment playbook for integrating submariner (0)-&gt;pre_task_22ae7039-7c38-4a0a-abda-fa82a1bf14b7</title>
<path fill="none" stroke="#6f72e4" stroke-width="2" d="M698.97,-455.76C722.74,-517.13 809.51,-717.12 956.76,-793.59 1064.51,-849.54 1386.81,-842.15 1599.86,-830.05"/>
<polygon fill="#6f72e4" stroke="#6f72e4" stroke-width="2" points="1600.14,-833.54 1609.92,-829.47 1599.74,-826.56 1600.14,-833.54"/>
<text text-anchor="middle" x="1139.76" y="-841.39" font-family="Times,serif" font-size="14.00" fill="#6f72e4">1</text>
<links><link target="pre_task_22ae7039-7c38-4a0a-abda-fa82a1bf14b7"/></links></g>
<!-- task_77dfa423&#45;26ed&#45;44d4&#45;ba52&#45;3b0922f77760 -->
<g id="task_77dfa423-26ed-44d4-ba52-3b0922f77760" class="node">
<title>task_77dfa423-26ed-44d4-ba52-3b0922f77760</title>
<g id="a_task_77dfa423-26ed-44d4-ba52-3b0922f77760"><a xlink:title="[task] ../../roles/kubeinit_prepare : Gather variables for each operating system">
<polygon fill="none" stroke="black" points="2203.05,-754.14 2203.05,-769.05 1966.62,-779.59 1632.26,-779.59 1395.83,-769.05 1395.83,-754.14 1632.26,-743.59 1966.62,-743.59 2203.05,-754.14"/>
<text text-anchor="middle" x="1799.44" y="-757.89" font-family="Times,serif" font-size="14.00">[task] ../../roles/kubeinit_prepare : Gather variables for each operating system</text>
</a>
</g>
</g>
<!-- Play #1: Main deployment playbook for integrating submariner (0)&#45;&gt;task_77dfa423&#45;26ed&#45;44d4&#45;ba52&#45;3b0922f77760 -->
<g id="edge_e153c29b-fe7b-4c1e-adb7-b32f97c63106" class="edge">
<title>Play #1: Main deployment playbook for integrating submariner (0)-&gt;task_77dfa423-26ed-44d4-ba52-3b0922f77760</title>
<path fill="none" stroke="#6f72e4" stroke-width="2" d="M701.51,-455.65C730.41,-509.82 824.96,-671 956.76,-732.59 1053.17,-777.64 1312.04,-780.84 1517.46,-775.21"/>
<polygon fill="#6f72e4" stroke="#6f72e4" stroke-width="2" points="1517.61,-778.71 1527.51,-774.93 1517.41,-771.71 1517.61,-778.71"/>
<text text-anchor="middle" x="1139.76" y="-780.39" font-family="Times,serif" font-size="14.00" fill="#6f72e4">2</text>
<links><link target="task_77dfa423-26ed-44d4-ba52-3b0922f77760"/></links></g>
<!-- task_4d56d850&#45;5ea3&#45;4fcf&#45;81ee&#45;68377773d945 -->
<g id="task_4d56d850-5ea3-4fcf-81ee-68377773d945" class="node">
<title>task_4d56d850-5ea3-4fcf-81ee-68377773d945</title>
<g id="a_task_4d56d850-5ea3-4fcf-81ee-68377773d945"><a xlink:title="[task] ../../roles/kubeinit_prepare : add all nodes to the all_nodes group">
<polygon fill="none" stroke="black" points="2165.98,-700.14 2165.98,-715.05 1951.27,-725.59 1647.62,-725.59 1432.9,-715.05 1432.9,-700.14 1647.62,-689.59 1951.27,-689.59 2165.98,-700.14"/>
<text text-anchor="middle" x="1799.44" y="-703.89" font-family="Times,serif" font-size="14.00">[task] ../../roles/kubeinit_prepare : add all nodes to the all_nodes group</text>
</a>
</g>
</g>
<!-- Play #1: Main deployment playbook for integrating submariner (0)&#45;&gt;task_4d56d850&#45;5ea3&#45;4fcf&#45;81ee&#45;68377773d945 -->
<g id="edge_c93f3c1f-24b8-4a70-b823-bc968c52908a" class="edge">
<title>Play #1: Main deployment playbook for integrating submariner (0)-&gt;task_4d56d850-5ea3-4fcf-81ee-68377773d945</title>
<path fill="none" stroke="#6f72e4" stroke-width="2" d="M705.44,-455.81C740.23,-502.21 839.92,-624.45 956.76,-671.59 1043.04,-706.4 1251.44,-715.51 1439.27,-715.86"/>
<polygon fill="#6f72e4" stroke="#6f72e4" stroke-width="2" points="1439.33,-719.36 1449.33,-715.87 1439.34,-712.36 1439.33,-719.36"/>
<text text-anchor="middle" x="1139.76" y="-717.39" font-family="Times,serif" font-size="14.00" fill="#6f72e4">3</text>
<links><link target="task_4d56d850-5ea3-4fcf-81ee-68377773d945"/></links></g>
<!-- task_851362ef&#45;01eb&#45;4955&#45;b555&#45;c80407971270 -->
<g id="task_851362ef-01eb-4955-b555-c80407971270" class="node">
<title>task_851362ef-01eb-4955-b555-c80407971270</title>
<g id="a_task_851362ef-01eb-4955-b555-c80407971270"><a xlink:title="[task] ../../roles/kubeinit_prepare : add all master nodes to the all_master_nodes group">
<polygon fill="none" stroke="black" points="2244.56,-646.14 2244.56,-661.05 1983.82,-671.59 1615.07,-671.59 1354.32,-661.05 1354.32,-646.14 1615.07,-635.59 1983.82,-635.59 2244.56,-646.14"/>
<text text-anchor="middle" x="1799.44" y="-649.89" font-family="Times,serif" font-size="14.00">[task] ../../roles/kubeinit_prepare : add all master nodes to the all_master_nodes group</text>
</a>
</g>
</g>
<!-- Play #1: Main deployment playbook for integrating submariner (0)&#45;&gt;task_851362ef&#45;01eb&#45;4955&#45;b555&#45;c80407971270 -->
<g id="edge_cb7b78a5-09c8-49e1-93ca-cf92517c4222" class="edge">
<title>Play #1: Main deployment playbook for integrating submariner (0)-&gt;task_851362ef-01eb-4955-b555-c80407971270</title>
<path fill="none" stroke="#6f72e4" stroke-width="2" d="M711.15,-455.75C751.96,-493.65 853.11,-580.47 956.76,-614.59 1030.06,-638.72 1185.88,-649.58 1343.76,-654.02"/>
<polygon fill="#6f72e4" stroke="#6f72e4" stroke-width="2" points="1344.07,-657.53 1354.16,-654.3 1344.26,-650.53 1344.07,-657.53"/>
<text text-anchor="middle" x="1139.76" y="-656.39" font-family="Times,serif" font-size="14.00" fill="#6f72e4">4</text>
<links><link target="task_851362ef-01eb-4955-b555-c80407971270"/></links></g>
<!-- task_a3dde7ea&#45;f510&#45;41f8&#45;b841&#45;a29e81a44a94 -->
<g id="task_a3dde7ea-f510-41f8-b841-a29e81a44a94" class="node">
<title>task_a3dde7ea-f510-41f8-b841-a29e81a44a94</title>
<g id="a_task_a3dde7ea-f510-41f8-b841-a29e81a44a94"><a xlink:title="[task] ../../roles/kubeinit_prepare : add all worker nodes to the all_worker_nodes group">
<polygon fill="none" stroke="black" points="2244.56,-592.14 2244.56,-607.05 1983.82,-617.59 1615.07,-617.59 1354.32,-607.05 1354.32,-592.14 1615.07,-581.59 1983.82,-581.59 2244.56,-592.14"/>
<text text-anchor="middle" x="1799.44" y="-595.89" font-family="Times,serif" font-size="14.00">[task] ../../roles/kubeinit_prepare : add all worker nodes to the all_worker_nodes group</text>
</a>
</g>
</g>
<!-- Play #1: Main deployment playbook for integrating submariner (0)&#45;&gt;task_a3dde7ea&#45;f510&#45;41f8&#45;b841&#45;a29e81a44a94 -->
<g id="edge_e2aaf222-dc44-4852-936e-28a5cebd50fb" class="edge">
<title>Play #1: Main deployment playbook for integrating submariner (0)-&gt;task_a3dde7ea-f510-41f8-b841-a29e81a44a94</title>
<path fill="none" stroke="#6f72e4" stroke-width="2" d="M727.05,-455.77C776.56,-480.69 870.89,-524.61 956.76,-544.59 1080.62,-573.41 1217.29,-589 1343.83,-597.03"/>
<polygon fill="#6f72e4" stroke="#6f72e4" stroke-width="2" points="1343.89,-600.54 1354.09,-597.67 1344.33,-593.55 1343.89,-600.54"/>
<text text-anchor="middle" x="1139.76" y="-599.39" font-family="Times,serif" font-size="14.00" fill="#6f72e4">5</text>
<links><link target="task_a3dde7ea-f510-41f8-b841-a29e81a44a94"/></links></g>
<!-- task_e06da15b&#45;d1ac&#45;4ebc&#45;82fc&#45;339481ced906 -->
<g id="task_e06da15b-d1ac-4ebc-82fc-339481ced906" class="node">
<title>task_e06da15b-d1ac-4ebc-82fc-339481ced906</title>
<g id="a_task_e06da15b-d1ac-4ebc-82fc-339481ced906"><a xlink:title="[task] ../../roles/kubeinit_prepare : add all bootstrap nodes the all_bootstrap_nodes group">
<polygon fill="none" stroke="black" points="2258.3,-538.14 2258.3,-553.05 1989.51,-563.59 1609.38,-563.59 1340.59,-553.05 1340.59,-538.14 1609.38,-527.59 1989.51,-527.59 2258.3,-538.14"/>
<text text-anchor="middle" x="1799.44" y="-541.89" font-family="Times,serif" font-size="14.00">[task] ../../roles/kubeinit_prepare : add all bootstrap nodes the all_bootstrap_nodes group</text>
</a>
</g>
</g>
<!-- Play #1: Main deployment playbook for integrating submariner (0)&#45;&gt;task_e06da15b&#45;d1ac&#45;4ebc&#45;82fc&#45;339481ced906 -->
<g id="edge_7ed832b1-c4e2-4d9a-91e1-11036282a819" class="edge">
<title>Play #1: Main deployment playbook for integrating submariner (0)-&gt;task_e06da15b-d1ac-4ebc-82fc-339481ced906</title>
<path fill="none" stroke="#6f72e4" stroke-width="2" d="M767.06,-455.59C819.79,-467.61 892.22,-482.77 956.76,-491.59 1112.06,-512.81 1284.63,-525.72 1432.89,-533.57"/>
<polygon fill="#6f72e4" stroke="#6f72e4" stroke-width="2" points="1432.91,-537.08 1443.08,-534.1 1433.27,-530.09 1432.91,-537.08"/>
<text text-anchor="middle" x="1139.76" y="-529.39" font-family="Times,serif" font-size="14.00" fill="#6f72e4">6</text>
<links><link target="task_e06da15b-d1ac-4ebc-82fc-339481ced906"/></links></g>
<!-- task_14e4ab1e&#45;8c9a&#45;4fe8&#45;a19c&#45;d5fe062f36f0 -->
<g id="task_14e4ab1e-8c9a-4fe8-a19c-d5fe062f36f0" class="node">
<title>task_14e4ab1e-8c9a-4fe8-a19c-d5fe062f36f0</title>
<g id="a_task_14e4ab1e-8c9a-4fe8-a19c-d5fe062f36f0"><a xlink:title="[task] ../../roles/kubeinit_prepare : add all service nodes to the all_service_nodes group">
<polygon fill="none" stroke="black" points="2246.38,-484.14 2246.38,-499.05 1984.57,-509.59 1614.32,-509.59 1352.51,-499.05 1352.51,-484.14 1614.32,-473.59 1984.57,-473.59 2246.38,-484.14"/>
<text text-anchor="middle" x="1799.44" y="-487.89" font-family="Times,serif" font-size="14.00">[task] ../../roles/kubeinit_prepare : add all service nodes to the all_service_nodes group</text>
</a>
</g>
</g>
<!-- Play #1: Main deployment playbook for integrating submariner (0)&#45;&gt;task_14e4ab1e&#45;8c9a&#45;4fe8&#45;a19c&#45;d5fe062f36f0 -->
<g id="edge_f650a870-b49e-4da0-8303-ec480280596a" class="edge">
<title>Play #1: Main deployment playbook for integrating submariner (0)-&gt;task_14e4ab1e-8c9a-4fe8-a19c-d5fe062f36f0</title>
<path fill="none" stroke="#6f72e4" stroke-width="2" d="M938.99,-455.55C944.97,-455.91 950.9,-456.26 956.76,-456.59 1118.41,-465.76 1297.66,-473.54 1449.04,-479.42"/>
<polygon fill="#6f72e4" stroke="#6f72e4" stroke-width="2" points="1449.31,-482.94 1459.44,-479.83 1449.58,-475.94 1449.31,-482.94"/>
<text text-anchor="middle" x="1139.76" y="-476.39" font-family="Times,serif" font-size="14.00" fill="#6f72e4">7</text>
<links><link target="task_14e4ab1e-8c9a-4fe8-a19c-d5fe062f36f0"/></links></g>
<!-- task_368e1499&#45;9fe5&#45;416f&#45;987b&#45;2b61c61db9ec -->
<g id="task_368e1499-9fe5-416f-987b-2b61c61db9ec" class="node">
<title>task_368e1499-9fe5-416f-987b-2b61c61db9ec</title>
<g id="a_task_368e1499-9fe5-416f-987b-2b61c61db9ec"><a xlink:title="[task] ../../roles/kubeinit_prepare : add all hosts to the all_hosts group">
<polygon fill="none" stroke="black" points="2161.13,-430.14 2161.13,-445.05 1949.26,-455.59 1649.62,-455.59 1437.75,-445.05 1437.75,-430.14 1649.62,-419.59 1949.26,-419.59 2161.13,-430.14"/>
<text text-anchor="middle" x="1799.44" y="-433.89" font-family="Times,serif" font-size="14.00">[task] ../../roles/kubeinit_prepare : add all hosts to the all_hosts group</text>
</a>
</g>
</g>
<!-- Play #1: Main deployment playbook for integrating submariner (0)&#45;&gt;task_368e1499&#45;9fe5&#45;416f&#45;987b&#45;2b61c61db9ec -->
<g id="edge_4a702baf-66f7-49f7-a61f-f00e297db85c" class="edge">
<title>Play #1: Main deployment playbook for integrating submariner (0)-&gt;task_368e1499-9fe5-416f-987b-2b61c61db9ec</title>
<path fill="none" stroke="#6f72e4" stroke-width="2" d="M938.79,-437.59C1082.54,-437.59 1266.67,-437.59 1427.62,-437.59"/>
<polygon fill="#6f72e4" stroke="#6f72e4" stroke-width="2" points="1427.69,-441.09 1437.69,-437.59 1427.69,-434.09 1427.69,-441.09"/>
<text text-anchor="middle" x="1139.76" y="-441.39" font-family="Times,serif" font-size="14.00" fill="#6f72e4">8</text>
<links><link target="task_368e1499-9fe5-416f-987b-2b61c61db9ec"/></links></g>
<!-- task_e5aa59a0&#45;7029&#45;4dc0&#45;bac6&#45;cd21849a2992 -->
<g id="task_e5aa59a0-7029-4dc0-bac6-cd21849a2992" class="node">
<title>task_e5aa59a0-7029-4dc0-bac6-cd21849a2992</title>
<g id="a_task_e5aa59a0-7029-4dc0-bac6-cd21849a2992"><a xlink:title="[task] ../../roles/kubeinit_prepare : list all_hosts">
<polygon fill="none" stroke="black" points="2047.61,-376.14 2047.61,-391.05 1902.24,-401.59 1696.65,-401.59 1551.28,-391.05 1551.28,-376.14 1696.65,-365.59 1902.24,-365.59 2047.61,-376.14"/>
<text text-anchor="middle" x="1799.44" y="-379.89" font-family="Times,serif" font-size="14.00">[task] ../../roles/kubeinit_prepare : list all_hosts</text>
</a>
</g>
</g>
<!-- Play #1: Main deployment playbook for integrating submariner (0)&#45;&gt;task_e5aa59a0&#45;7029&#45;4dc0&#45;bac6&#45;cd21849a2992 -->
<g id="edge_81ec3ebc-451d-4ef7-86b5-1013a0bbd4b3" class="edge">
<title>Play #1: Main deployment playbook for integrating submariner (0)-&gt;task_e5aa59a0-7029-4dc0-bac6-cd21849a2992</title>
<path fill="none" stroke="#6f72e4" stroke-width="2" d="M938.99,-419.63C944.97,-419.27 950.9,-418.92 956.76,-418.59 1155.66,-407.31 1381.2,-398.13 1548.71,-392"/>
<polygon fill="#6f72e4" stroke="#6f72e4" stroke-width="2" points="1549.04,-395.49 1558.9,-391.63 1548.78,-388.5 1549.04,-395.49"/>
<text text-anchor="middle" x="1139.76" y="-422.39" font-family="Times,serif" font-size="14.00" fill="#6f72e4">9</text>
<links><link target="task_e5aa59a0-7029-4dc0-bac6-cd21849a2992"/></links></g>
<!-- task_d7f52c24&#45;7c5e&#45;4ac0&#45;a398&#45;75f3380318a4 -->
<g id="task_d7f52c24-7c5e-4ac0-a398-75f3380318a4" class="node">
<title>task_d7f52c24-7c5e-4ac0-a398-75f3380318a4</title>
<g id="a_task_d7f52c24-7c5e-4ac0-a398-75f3380318a4"><a xlink:title="[task] ../../roles/kubeinit_prepare : list all_nodes">
<polygon fill="none" stroke="black" points="2049.83,-322.14 2049.83,-337.05 1903.16,-347.59 1695.73,-347.59 1549.06,-337.05 1549.06,-322.14 1695.73,-311.59 1903.16,-311.59 2049.83,-322.14"/>
<text text-anchor="middle" x="1799.44" y="-325.89" font-family="Times,serif" font-size="14.00">[task] ../../roles/kubeinit_prepare : list all_nodes</text>
</a>
</g>
</g>
<!-- Play #1: Main deployment playbook for integrating submariner (0)&#45;&gt;task_d7f52c24&#45;7c5e&#45;4ac0&#45;a398&#45;75f3380318a4 -->
<g id="edge_57491fa5-6399-433a-8708-a5a7e73044a0" class="edge">
<title>Play #1: Main deployment playbook for integrating submariner (0)-&gt;task_d7f52c24-7c5e-4ac0-a398-75f3380318a4</title>
<path fill="none" stroke="#6f72e4" stroke-width="2" d="M765.34,-419.58C818.18,-407.24 891.48,-391.55 956.76,-382.59 1150.71,-355.99 1371.65,-342.72 1538.49,-336.11"/>
<polygon fill="#6f72e4" stroke="#6f72e4" stroke-width="2" points="1539.04,-339.59 1548.89,-335.7 1538.77,-332.6 1539.04,-339.59"/>
<text text-anchor="middle" x="1139.76" y="-386.39" font-family="Times,serif" font-size="14.00" fill="#6f72e4">10</text>
<links><link target="task_d7f52c24-7c5e-4ac0-a398-75f3380318a4"/></links></g>
<!-- task_09049965&#45;792e&#45;4f32&#45;88c2&#45;9dec8a685fe2 -->
<g id="task_09049965-792e-4f32-88c2-9dec8a685fe2" class="node">
<title>task_09049965-792e-4f32-88c2-9dec8a685fe2</title>
<g id="a_task_09049965-792e-4f32-88c2-9dec8a685fe2"><a xlink:title="[task] ../../roles/kubeinit_prepare : list all_master_nodes">
<polygon fill="none" stroke="black" points="2090.03,-268.14 2090.03,-283.05 1919.81,-293.59 1679.08,-293.59 1508.86,-283.05 1508.86,-268.14 1679.08,-257.59 1919.81,-257.59 2090.03,-268.14"/>
<text text-anchor="middle" x="1799.44" y="-271.89" font-family="Times,serif" font-size="14.00">[task] ../../roles/kubeinit_prepare : list all_master_nodes</text>
</a>
</g>
</g>
<!-- Play #1: Main deployment playbook for integrating submariner (0)&#45;&gt;task_09049965&#45;792e&#45;4f32&#45;88c2&#45;9dec8a685fe2 -->
<g id="edge_9cb5ff1d-9081-4f01-9a9b-c25127515df8" class="edge">
<title>Play #1: Main deployment playbook for integrating submariner (0)-&gt;task_09049965-792e-4f32-88c2-9dec8a685fe2</title>
<path fill="none" stroke="#6f72e4" stroke-width="2" d="M726.6,-419.41C775.96,-394.26 870.54,-349.68 956.76,-329.59 1133.46,-288.42 1336.29,-274.45 1498.55,-271"/>
<polygon fill="#6f72e4" stroke="#6f72e4" stroke-width="2" points="1498.76,-274.5 1508.69,-270.8 1498.62,-267.5 1498.76,-274.5"/>
<text text-anchor="middle" x="1139.76" y="-333.39" font-family="Times,serif" font-size="14.00" fill="#6f72e4">11</text>
<links><link target="task_09049965-792e-4f32-88c2-9dec8a685fe2"/></links></g>
<!-- task_e402abf7&#45;b0d1&#45;4d34&#45;8465&#45;e7964ec4f15a -->
<g id="task_e402abf7-b0d1-4d34-8465-e7964ec4f15a" class="node">
<title>task_e402abf7-b0d1-4d34-8465-e7964ec4f15a</title>
<g id="a_task_e402abf7-b0d1-4d34-8465-e7964ec4f15a"><a xlink:title="[task] ../../roles/kubeinit_prepare : list all_worker_nodes">
<polygon fill="none" stroke="black" points="2090.03,-214.14 2090.03,-229.05 1919.81,-239.59 1679.08,-239.59 1508.86,-229.05 1508.86,-214.14 1679.08,-203.59 1919.81,-203.59 2090.03,-214.14"/>
<text text-anchor="middle" x="1799.44" y="-217.89" font-family="Times,serif" font-size="14.00">[task] ../../roles/kubeinit_prepare : list all_worker_nodes</text>
</a>
</g>
</g>
<!-- Play #1: Main deployment playbook for integrating submariner (0)&#45;&gt;task_e402abf7&#45;b0d1&#45;4d34&#45;8465&#45;e7964ec4f15a -->
<g id="edge_6cbf463d-d3eb-4725-b33d-b3db5017eb87" class="edge">
<title>Play #1: Main deployment playbook for integrating submariner (0)-&gt;task_e402abf7-b0d1-4d34-8465-e7964ec4f15a</title>
<path fill="none" stroke="#6f72e4" stroke-width="2" d="M711.13,-419.32C751.89,-381.19 852.95,-293.85 956.76,-259.59 1187.44,-183.47 1473.03,-190.12 1645.21,-204.18"/>
<polygon fill="#6f72e4" stroke="#6f72e4" stroke-width="2" points="1645.1,-207.69 1655.36,-205.03 1645.69,-200.71 1645.1,-207.69"/>
<text text-anchor="middle" x="1139.76" y="-263.39" font-family="Times,serif" font-size="14.00" fill="#6f72e4">12</text>
<links><link target="task_e402abf7-b0d1-4d34-8465-e7964ec4f15a"/></links></g>
<!-- task_b0a7f105&#45;b26d&#45;46f1&#45;9a3d&#45;a961129c1fea -->
<g id="task_b0a7f105-b26d-46f1-9a3d-a961129c1fea" class="node">
<title>task_b0a7f105-b26d-46f1-9a3d-a961129c1fea</title>
<g id="a_task_b0a7f105-b26d-46f1-9a3d-a961129c1fea"><a xlink:title="[task] ../../roles/kubeinit_prepare : list all_service_nodes">
<polygon fill="none" stroke="black" points="2090.93,-160.14 2090.93,-175.05 1920.18,-185.59 1678.7,-185.59 1507.95,-175.05 1507.95,-160.14 1678.7,-149.59 1920.18,-149.59 2090.93,-160.14"/>
<text text-anchor="middle" x="1799.44" y="-163.89" font-family="Times,serif" font-size="14.00">[task] ../../roles/kubeinit_prepare : list all_service_nodes</text>
</a>
</g>
</g>
<!-- Play #1: Main deployment playbook for integrating submariner (0)&#45;&gt;task_b0a7f105&#45;b26d&#45;46f1&#45;9a3d&#45;a961129c1fea -->
<g id="edge_fdf0ff95-29b0-44d7-91ff-112f0c7b0060" class="edge">
<title>Play #1: Main deployment playbook for integrating submariner (0)-&gt;task_b0a7f105-b26d-46f1-9a3d-a961129c1fea</title>
<path fill="none" stroke="#6f72e4" stroke-width="2" d="M703.42,-419.46C735.4,-369.48 833.03,-230.03 956.76,-178.59 1068.34,-132.21 1387,-141.16 1598.64,-153.31"/>
<polygon fill="#6f72e4" stroke="#6f72e4" stroke-width="2" points="1598.45,-156.81 1608.63,-153.89 1598.85,-149.82 1598.45,-156.81"/>
<text text-anchor="middle" x="1139.76" y="-182.39" font-family="Times,serif" font-size="14.00" fill="#6f72e4">13</text>
<links><link target="task_b0a7f105-b26d-46f1-9a3d-a961129c1fea"/></links></g>
<!-- task_7ba7476f&#45;ffb0&#45;4770&#45;b679&#45;872b08d99167 -->
<g id="task_7ba7476f-ffb0-4770-b679-872b08d99167" class="node">
<title>task_7ba7476f-ffb0-4770-b679-872b08d99167</title>
<g id="a_task_7ba7476f-ffb0-4770-b679-872b08d99167"><a xlink:title="[task] ../../roles/kubeinit_prepare : list all_bootstrap_nodes">
<polygon fill="none" stroke="black" points="2103.26,-106.14 2103.26,-121.05 1925.29,-131.59 1673.6,-131.59 1495.62,-121.05 1495.62,-106.14 1673.6,-95.59 1925.29,-95.59 2103.26,-106.14"/>
<text text-anchor="middle" x="1799.44" y="-109.89" font-family="Times,serif" font-size="14.00">[task] ../../roles/kubeinit_prepare : list all_bootstrap_nodes</text>
</a>
</g>
</g>
<!-- Play #1: Main deployment playbook for integrating submariner (0)&#45;&gt;task_7ba7476f&#45;ffb0&#45;4770&#45;b679&#45;872b08d99167 -->
<g id="edge_8f41f7a8-1b49-46c1-8e72-cf209ff8c458" class="edge">
<title>Play #1: Main deployment playbook for integrating submariner (0)-&gt;task_7ba7476f-ffb0-4770-b679-872b08d99167</title>
<path fill="none" stroke="#6f72e4" stroke-width="2" d="M700.53,-419.48C727.54,-362.75 819.49,-188.44 956.76,-123.59 1005.52,-100.56 1277.87,-100.76 1499.76,-105.06"/>
<polygon fill="#6f72e4" stroke="#6f72e4" stroke-width="2" points="1499.89,-108.57 1509.96,-105.26 1500.03,-101.57 1499.89,-108.57"/>
<text text-anchor="middle" x="1139.76" y="-127.39" font-family="Times,serif" font-size="14.00" fill="#6f72e4">14</text>
<links><link target="task_7ba7476f-ffb0-4770-b679-872b08d99167"/></links></g>
<!-- task_d5d03cac&#45;b481&#45;4f0a&#45;b657&#45;70ccdbd4ac1c -->
<g id="task_d5d03cac-b481-4f0a-b657-70ccdbd4ac1c" class="node">
<title>task_d5d03cac-b481-4f0a-b657-70ccdbd4ac1c</title>
<g id="a_task_d5d03cac-b481-4f0a-b657-70ccdbd4ac1c"><a xlink:title="[task] ../../roles/kubeinit_submariner : Execute subctl verify">
<polygon fill="none" stroke="black" points="2109.92,-52.14 2109.92,-67.05 1928.05,-77.59 1670.84,-77.59 1488.96,-67.05 1488.96,-52.14 1670.84,-41.59 1928.05,-41.59 2109.92,-52.14"/>
<text text-anchor="middle" x="1799.44" y="-55.89" font-family="Times,serif" font-size="14.00">[task] ../../roles/kubeinit_submariner : Execute subctl verify</text>
</a>
</g>
</g>
<!-- Play #1: Main deployment playbook for integrating submariner (0)&#45;&gt;task_d5d03cac&#45;b481&#45;4f0a&#45;b657&#45;70ccdbd4ac1c -->
<g id="edge_85dd38ca-5a8c-4949-9028-3176f7c4548c" class="edge">
<title>Play #1: Main deployment playbook for integrating submariner (0)-&gt;task_d5d03cac-b481-4f0a-b657-70ccdbd4ac1c</title>
<path fill="none" stroke="#6f72e4" stroke-width="2" d="M699.01,-419.53C722.91,-358.54 810.03,-159.76 956.76,-83.59 1206.55,46.07 1556.66,-5.72 1714.93,-39.37"/>
<polygon fill="#6f72e4" stroke="#6f72e4" stroke-width="2" points="1714.56,-42.87 1725.08,-41.56 1716.04,-36.03 1714.56,-42.87"/>
<text text-anchor="middle" x="1139.76" y="-87.39" font-family="Times,serif" font-size="14.00" fill="#6f72e4">15  [when: kubeinit_submariner_is_secondary|bool]</text>
<links><link target="task_d5d03cac-b481-4f0a-b657-70ccdbd4ac1c"/></links></g>
</g>
</svg>