<?xml version="1.0" encoding="UTF-8" standalone="no"?>
<!DOCTYPE svg PUBLIC "-//W3C//DTD SVG 1.1//EN"
 "http://www.w3.org/Graphics/SVG/1.1/DTD/svg11.dtd">
<!-- Generated by graphviz version 2.43.0 (0)
 -->
<!-- Title: kubeinit/playbook.yml  Pages: 1 -->
<svg width="1965pt" height="1426pt"
 viewBox="0.00 0.00 1964.71 1425.80" xmlns="http://www.w3.org/2000/svg" xmlns:xlink="http://www.w3.org/1999/xlink">
<g id="graph0" class="graph" transform="scale(1 1) rotate(0) translate(4 1421.8)">
<title>kubeinit/playbook.yml </title>
<polygon fill="white" stroke="transparent" points="-4,4 -4,-1421.8 1960.71,-1421.8 1960.71,4 -4,4"/>
<!-- kubeinit/playbook.yml -->
<g id="root_node" class="node">
<title>kubeinit/playbook.yml</title>
<ellipse fill="none" stroke="black" stroke-dasharray="1,5" cx="113.09" cy="-717.8" rx="113.18" ry="18"/>
<text text-anchor="middle" x="113.09" y="-714.1" font-family="Times,serif" font-size="14.00">kubeinit/playbook.yml</text>
</g>
<!-- task&#45;deploy&#45;cluster -->
<g id="play_beee9c3c&#45;e648&#45;4408&#45;b77d&#45;45d191d87976" class="node">
<title>task&#45;deploy&#45;cluster</title>
<g id="a_play_beee9c3c&#45;e648&#45;4408&#45;b77d&#45;45d191d87976"><a xlink:title="localhost">
<polygon fill="none" stroke="#000000" points="485.97,-710.34 485.97,-725.25 423.37,-735.8 334.85,-735.8 272.25,-725.25 272.25,-710.34 334.85,-699.8 423.37,-699.8 485.97,-710.34"/>
<text text-anchor="middle" x="379.11" y="-714.1" font-family="Times,serif" font-size="14.00" fill="#000000">task&#45;deploy&#45;cluster</text>
</a>
</g>
</g>
<!-- kubeinit/playbook.yml&#45;&gt;task&#45;deploy&#45;cluster -->
<g id="edge_7c36c6f7&#45;40c4&#45;4aaa&#45;9a9c&#45;5f37ce9dae42" class="edge">
<title>kubeinit/playbook.yml&#45;&gt;task&#45;deploy&#45;cluster</title>
<path fill="none" stroke="#000000" stroke-width="2" d="M226.44,-717.8C238.17,-717.8 250.1,-717.8 261.87,-717.8"/>
<polygon fill="#000000" stroke="#000000" stroke-width="2" points="262.15,-721.3 272.15,-717.8 262.15,-714.3 262.15,-721.3"/>
<text text-anchor="middle" x="249.18" y="-721.6" font-family="Times,serif" font-size="14.00" fill="#000000">3</text>
</g>
<!-- task_241a37fa&#45;f70c&#45;4a7d&#45;8e12&#45;4348538bbeb7 -->
<g id="task_241a37fa&#45;f70c&#45;4a7d&#45;8e12&#45;4348538bbeb7" class="node">
<title>task_241a37fa&#45;f70c&#45;4a7d&#45;8e12&#45;4348538bbeb7</title>
<g id="a_task_241a37fa&#45;f70c&#45;4a7d&#45;8e12&#45;4348538bbeb7"><a xlink:title="[task] kubeinit.kubeinit.kubeinit_libvirt : Remove old disk images">
<polygon fill="none" stroke="black" points="1745.04,-1385.34 1745.04,-1400.25 1546.36,-1410.8 1265.39,-1410.8 1066.71,-1400.25 1066.71,-1385.34 1265.39,-1374.8 1546.36,-1374.8 1745.04,-1385.34"/>
<text text-anchor="middle" x="1405.88" y="-1389.1" font-family="Times,serif" font-size="14.00">[task] kubeinit.kubeinit.kubeinit_libvirt : Remove old disk images</text>
</a>
</g>
</g>
<!-- task&#45;deploy&#45;cluster&#45;&gt;task_241a37fa&#45;f70c&#45;4a7d&#45;8e12&#45;4348538bbeb7 -->
<g id="edge_23e52ebc&#45;a29d&#45;4c5b&#45;b112&#45;e2c6c0e42326" class="edge">
<title>task&#45;deploy&#45;cluster&#45;&gt;task_241a37fa&#45;f70c&#45;4a7d&#45;8e12&#45;4348538bbeb7</title>
<path fill="none" stroke="#000000" stroke-width="2" d="M380.65,-736.03C383.92,-832.47 404.38,-1281.91 504.04,-1366.8 548.98,-1405.07 853.97,-1407.26 1096.8,-1402.6"/>
<polygon fill="#000000" stroke="#000000" stroke-width="2" points="1096.94,-1406.1 1106.87,-1402.4 1096.8,-1399.1 1096.94,-1406.1"/>
<text text-anchor="middle" x="670.54" y="-1406.6" font-family="Times,serif" font-size="14.00" fill="#000000">1</text>
</g>
<!-- task_38de029e&#45;122f&#45;4c9f&#45;acbd&#45;7844f58c3aec -->
<g id="task_38de029e&#45;122f&#45;4c9f&#45;acbd&#45;7844f58c3aec" class="node">
<title>task_38de029e&#45;122f&#45;4c9f&#45;acbd&#45;7844f58c3aec</title>
<g id="a_task_38de029e&#45;122f&#45;4c9f&#45;acbd&#45;7844f58c3aec"><a xlink:title="[task] kubeinit.kubeinit.kubeinit_libvirt : Set guest images facts">
<polygon fill="none" stroke="black" points="1738.38,-1331.34 1738.38,-1346.25 1543.6,-1356.8 1268.15,-1356.8 1073.37,-1346.25 1073.37,-1331.34 1268.15,-1320.8 1543.6,-1320.8 1738.38,-1331.34"/>
<text text-anchor="middle" x="1405.88" y="-1335.1" font-family="Times,serif" font-size="14.00">[task] kubeinit.kubeinit.kubeinit_libvirt : Set guest images facts</text>
</a>
</g>
</g>
<!-- task&#45;deploy&#45;cluster&#45;&gt;task_38de029e&#45;122f&#45;4c9f&#45;acbd&#45;7844f58c3aec -->
<g id="edge_a8579c05&#45;1ceb&#45;446a&#45;b361&#45;da508bf236f9" class="edge">
<title>task&#45;deploy&#45;cluster&#45;&gt;task_38de029e&#45;122f&#45;4c9f&#45;acbd&#45;7844f58c3aec</title>
<path fill="none" stroke="#000000" stroke-width="2" d="M380.99,-735.98C385.84,-827.35 412.4,-1235 504.04,-1311.8 549.1,-1349.56 851.73,-1352.29 1093.98,-1348.1"/>
<polygon fill="#000000" stroke="#000000" stroke-width="2" points="1094.08,-1351.6 1104.02,-1347.93 1093.96,-1344.6 1094.08,-1351.6"/>
<text text-anchor="middle" x="670.54" y="-1351.6" font-family="Times,serif" font-size="14.00" fill="#000000">2</text>
</g>
<!-- task_b3a163ac&#45;9b16&#45;4f97&#45;8311&#45;6c138bcfc0bd -->
<g id="task_b3a163ac&#45;9b16&#45;4f97&#45;8311&#45;6c138bcfc0bd" class="node">
<title>task_b3a163ac&#45;9b16&#45;4f97&#45;8311&#45;6c138bcfc0bd</title>
<g id="a_task_b3a163ac&#45;9b16&#45;4f97&#45;8311&#45;6c138bcfc0bd"><a xlink:title="[task] kubeinit.kubeinit.kubeinit_libvirt : Create VM definition for {{ kubeinit_deployment_node_name }}">
<polygon fill="none" stroke="black" points="1946.85,-1277.34 1946.85,-1292.25 1629.95,-1302.8 1181.8,-1302.8 864.9,-1292.25 864.9,-1277.34 1181.8,-1266.8 1629.95,-1266.8 1946.85,-1277.34"/>
<text text-anchor="middle" x="1405.88" y="-1281.1" font-family="Times,serif" font-size="14.00">[task] kubeinit.kubeinit.kubeinit_libvirt : Create VM definition for {{ kubeinit_deployment_node_name }}</text>
</a>
</g>
</g>
<!-- task&#45;deploy&#45;cluster&#45;&gt;task_b3a163ac&#45;9b16&#45;4f97&#45;8311&#45;6c138bcfc0bd -->
<g id="edge_219e460b&#45;5cee&#45;4480&#45;9248&#45;f6833698b17d" class="edge">
<title>task&#45;deploy&#45;cluster&#45;&gt;task_b3a163ac&#45;9b16&#45;4f97&#45;8311&#45;6c138bcfc0bd</title>
<path fill="none" stroke="#000000" stroke-width="2" d="M381.41,-736C387.95,-822.2 420.4,-1188.06 504.04,-1256.8 539.46,-1285.91 731.29,-1294.23 928.87,-1294.7"/>
<polygon fill="#000000" stroke="#000000" stroke-width="2" points="928.87,-1298.2 938.88,-1294.72 928.89,-1291.2 928.87,-1298.2"/>
<text text-anchor="middle" x="670.54" y="-1296.6" font-family="Times,serif" font-size="14.00" fill="#000000">3</text>
</g>
<!-- task_f49b8676&#45;8979&#45;4d73&#45;b48b&#45;68748a91ea2b -->
<g id="task_f49b8676&#45;8979&#45;4d73&#45;b48b&#45;68748a91ea2b" class="node">
<title>task_f49b8676&#45;8979&#45;4d73&#45;b48b&#45;68748a91ea2b</title>
<g id="a_task_f49b8676&#45;8979&#45;4d73&#45;b48b&#45;68748a91ea2b"><a xlink:title="[task] kubeinit.kubeinit.kubeinit_libvirt : Wait until {{ kubeinit_deployment_node_name }} is running">
<polygon fill="none" stroke="black" points="1928.77,-1223.34 1928.77,-1238.25 1622.46,-1248.8 1189.29,-1248.8 882.99,-1238.25 882.99,-1223.34 1189.29,-1212.8 1622.46,-1212.8 1928.77,-1223.34"/>
<text text-anchor="middle" x="1405.88" y="-1227.1" font-family="Times,serif" font-size="14.00">[task] kubeinit.kubeinit.kubeinit_libvirt : Wait until {{ kubeinit_deployment_node_name }} is running</text>
</a>
</g>
</g>
<!-- task&#45;deploy&#45;cluster&#45;&gt;task_f49b8676&#45;8979&#45;4d73&#45;b48b&#45;68748a91ea2b -->
<g id="edge_9122a11f&#45;a447&#45;4ab3&#45;a057&#45;c431c9c1365a" class="edge">
<title>task&#45;deploy&#45;cluster&#45;&gt;task_f49b8676&#45;8979&#45;4d73&#45;b48b&#45;68748a91ea2b</title>
<path fill="none" stroke="#000000" stroke-width="2" d="M381.92,-735.97C390.34,-816.55 428.52,-1140.16 504.04,-1200.8 537.82,-1227.91 710.86,-1237.18 896.4,-1238.98"/>
<polygon fill="#000000" stroke="#000000" stroke-width="2" points="896.62,-1242.48 906.65,-1239.07 896.69,-1235.48 896.62,-1242.48"/>
<text text-anchor="middle" x="670.54" y="-1241.6" font-family="Times,serif" font-size="14.00" fill="#000000">4</text>
</g>
<!-- task_4e1ee497&#45;9800&#45;4f32&#45;bc1f&#45;5caa9f99f35f -->
<g id="task_4e1ee497&#45;9800&#45;4f32&#45;bc1f&#45;5caa9f99f35f" class="node">
<title>task_4e1ee497&#45;9800&#45;4f32&#45;bc1f&#45;5caa9f99f35f</title>
<g id="a_task_4e1ee497&#45;9800&#45;4f32&#45;bc1f&#45;5caa9f99f35f"><a xlink:title="[task] kubeinit.kubeinit.kubeinit_libvirt : Remove old disk images">
<polygon fill="none" stroke="black" points="1745.04,-1169.34 1745.04,-1184.25 1546.36,-1194.8 1265.39,-1194.8 1066.71,-1184.25 1066.71,-1169.34 1265.39,-1158.8 1546.36,-1158.8 1745.04,-1169.34"/>
<text text-anchor="middle" x="1405.88" y="-1173.1" font-family="Times,serif" font-size="14.00">[task] kubeinit.kubeinit.kubeinit_libvirt : Remove old disk images</text>
</a>
</g>
</g>
<!-- task&#45;deploy&#45;cluster&#45;&gt;task_4e1ee497&#45;9800&#45;4f32&#45;bc1f&#45;5caa9f99f35f -->
<g id="edge_6698cacf&#45;4af5&#45;476b&#45;9577&#45;5e5071ab3fac" class="edge">
<title>task&#45;deploy&#45;cluster&#45;&gt;task_4e1ee497&#45;9800&#45;4f32&#45;bc1f&#45;5caa9f99f35f</title>
<path fill="none" stroke="#000000" stroke-width="2" d="M382.55,-735.86C392.99,-810.33 436.53,-1092.19 504.04,-1144.8 548.02,-1179.07 822.22,-1185.1 1056.68,-1183.71"/>
<polygon fill="#000000" stroke="#000000" stroke-width="2" points="1056.78,-1187.21 1066.75,-1183.65 1056.73,-1180.21 1056.78,-1187.21"/>
<text text-anchor="middle" x="670.54" y="-1185.6" font-family="Times,serif" font-size="14.00" fill="#000000">5</text>
</g>
<!-- task_5e4b6eae&#45;c4b2&#45;4d6d&#45;ac90&#45;2a0c6dc50e23 -->
<g id="task_5e4b6eae&#45;c4b2&#45;4d6d&#45;ac90&#45;2a0c6dc50e23" class="node">
<title>task_5e4b6eae&#45;c4b2&#45;4d6d&#45;ac90&#45;2a0c6dc50e23</title>
<g id="a_task_5e4b6eae&#45;c4b2&#45;4d6d&#45;ac90&#45;2a0c6dc50e23"><a xlink:title="[task] kubeinit.kubeinit.kubeinit_libvirt : Set guest images facts">
<polygon fill="none" stroke="black" points="1738.38,-1115.34 1738.38,-1130.25 1543.6,-1140.8 1268.15,-1140.8 1073.37,-1130.25 1073.37,-1115.34 1268.15,-1104.8 1543.6,-1104.8 1738.38,-1115.34"/>
<text text-anchor="middle" x="1405.88" y="-1119.1" font-family="Times,serif" font-size="14.00">[task] kubeinit.kubeinit.kubeinit_libvirt : Set guest images facts</text>
</a>
</g>
</g>
<!-- task&#45;deploy&#45;cluster&#45;&gt;task_5e4b6eae&#45;c4b2&#45;4d6d&#45;ac90&#45;2a0c6dc50e23 -->
<g id="edge_60a239fc&#45;6dfa&#45;438a&#45;8d5a&#45;23a8ca57c0bd" class="edge">
<title>task&#45;deploy&#45;cluster&#45;&gt;task_5e4b6eae&#45;c4b2&#45;4d6d&#45;ac90&#45;2a0c6dc50e23</title>
<path fill="none" stroke="#000000" stroke-width="2" d="M379.62,-736.18C379.07,-798.36 386.63,-1001.85 504.04,-1089.8 549.05,-1123.52 827.55,-1129.77 1063.13,-1128.78"/>
<polygon fill="#000000" stroke="#000000" stroke-width="2" points="1063.27,-1132.28 1073.25,-1128.73 1063.23,-1125.28 1063.27,-1132.28"/>
<text text-anchor="middle" x="670.54" y="-1129.6" font-family="Times,serif" font-size="14.00" fill="#000000">6</text>
</g>
<!-- task_f815d935&#45;967d&#45;4f4d&#45;88b5&#45;dc58c07889c2 -->
<g id="task_f815d935&#45;967d&#45;4f4d&#45;88b5&#45;dc58c07889c2" class="node">
<title>task_f815d935&#45;967d&#45;4f4d&#45;88b5&#45;dc58c07889c2</title>
<g id="a_task_f815d935&#45;967d&#45;4f4d&#45;88b5&#45;dc58c07889c2"><a xlink:title="[task] kubeinit.kubeinit.kubeinit_libvirt : Create VM definition for {{ kubeinit_deployment_node_name }}">
<polygon fill="none" stroke="black" points="1946.85,-1061.34 1946.85,-1076.25 1629.95,-1086.8 1181.8,-1086.8 864.9,-1076.25 864.9,-1061.34 1181.8,-1050.8 1629.95,-1050.8 1946.85,-1061.34"/>
<text text-anchor="middle" x="1405.88" y="-1065.1" font-family="Times,serif" font-size="14.00">[task] kubeinit.kubeinit.kubeinit_libvirt : Create VM definition for {{ kubeinit_deployment_node_name }}</text>
</a>
</g>
</g>
<!-- task&#45;deploy&#45;cluster&#45;&gt;task_f815d935&#45;967d&#45;4f4d&#45;88b5&#45;dc58c07889c2 -->
<g id="edge_9987de19&#45;af8d&#45;49c7&#45;b975&#45;858ba4b5e82b" class="edge">
<title>task&#45;deploy&#45;cluster&#45;&gt;task_f815d935&#45;967d&#45;4f4d&#45;88b5&#45;dc58c07889c2</title>
<path fill="none" stroke="#000000" stroke-width="2" d="M380.76,-735.84C383.87,-791.65 401.69,-962.05 504.04,-1034.8 536.58,-1057.92 686.28,-1068.02 854.57,-1071.79"/>
<polygon fill="#000000" stroke="#000000" stroke-width="2" points="854.58,-1075.29 864.65,-1072.01 854.73,-1068.3 854.58,-1075.29"/>
<text text-anchor="middle" x="670.54" y="-1074.6" font-family="Times,serif" font-size="14.00" fill="#000000">7</text>
</g>
<!-- task_9cf01893&#45;4a7e&#45;4e20&#45;a7a3&#45;220d18ab2e8d -->
<g id="task_9cf01893&#45;4a7e&#45;4e20&#45;a7a3&#45;220d18ab2e8d" class="node">
<title>task_9cf01893&#45;4a7e&#45;4e20&#45;a7a3&#45;220d18ab2e8d</title>
<g id="a_task_9cf01893&#45;4a7e&#45;4e20&#45;a7a3&#45;220d18ab2e8d"><a xlink:title="[task] kubeinit.kubeinit.kubeinit_libvirt : Wait until {{ kubeinit_deployment_node_name }} is running">
<polygon fill="none" stroke="black" points="1928.77,-1007.34 1928.77,-1022.25 1622.46,-1032.8 1189.29,-1032.8 882.99,-1022.25 882.99,-1007.34 1189.29,-996.8 1622.46,-996.8 1928.77,-1007.34"/>
<text text-anchor="middle" x="1405.88" y="-1011.1" font-family="Times,serif" font-size="14.00">[task] kubeinit.kubeinit.kubeinit_libvirt : Wait until {{ kubeinit_deployment_node_name }} is running</text>
</a>
</g>
</g>
<!-- task&#45;deploy&#45;cluster&#45;&gt;task_9cf01893&#45;4a7e&#45;4e20&#45;a7a3&#45;220d18ab2e8d -->
<g id="edge_b2e36d32&#45;310b&#45;4976&#45;bf44&#45;4d91d01dd884" class="edge">
<title>task&#45;deploy&#45;cluster&#45;&gt;task_9cf01893&#45;4a7e&#45;4e20&#45;a7a3&#45;220d18ab2e8d</title>
<path fill="none" stroke="#000000" stroke-width="2" d="M382.31,-735.96C389.38,-785.47 416.46,-922.9 504.04,-980.8 538.48,-1003.56 697.57,-1013.34 872.69,-1016.96"/>
<polygon fill="#000000" stroke="#000000" stroke-width="2" points="872.84,-1020.47 882.91,-1017.17 872.98,-1013.47 872.84,-1020.47"/>
<text text-anchor="middle" x="670.54" y="-1019.6" font-family="Times,serif" font-size="14.00" fill="#000000">8</text>
</g>
<!-- task_cf6af3a0&#45;9d81&#45;44f2&#45;ae1a&#45;3239b2b420b0 -->
<g id="task_cf6af3a0&#45;9d81&#45;44f2&#45;ae1a&#45;3239b2b420b0" class="node">
<title>task_cf6af3a0&#45;9d81&#45;44f2&#45;ae1a&#45;3239b2b420b0</title>
<g id="a_task_cf6af3a0&#45;9d81&#45;44f2&#45;ae1a&#45;3239b2b420b0"><a xlink:title="[task] kubeinit.kubeinit.kubeinit_okd : Verify that controller nodes are ok">
<polygon fill="none" stroke="black" points="1783.43,-953.34 1783.43,-968.25 1562.26,-978.8 1249.49,-978.8 1028.33,-968.25 1028.33,-953.34 1249.49,-942.8 1562.26,-942.8 1783.43,-953.34"/>
<text text-anchor="middle" x="1405.88" y="-957.1" font-family="Times,serif" font-size="14.00">[task] kubeinit.kubeinit.kubeinit_okd : Verify that controller nodes are ok</text>
</a>
</g>
</g>
<!-- task&#45;deploy&#45;cluster&#45;&gt;task_cf6af3a0&#45;9d81&#45;44f2&#45;ae1a&#45;3239b2b420b0 -->
<g id="edge_85143a16&#45;65b9&#45;4f31&#45;af9a&#45;14b45aff5ead" class="edge">
<title>task&#45;deploy&#45;cluster&#45;&gt;task_cf6af3a0&#45;9d81&#45;44f2&#45;ae1a&#45;3239b2b420b0</title>
<path fill="none" stroke="#000000" stroke-width="2" d="M384.37,-735.91C395.51,-778.65 429.91,-885.55 504.04,-929.8 549.14,-956.71 794.67,-963.92 1018.02,-964.7"/>
<polygon fill="#000000" stroke="#000000" stroke-width="2" points="1018.29,-968.2 1028.3,-964.73 1018.31,-961.2 1018.29,-968.2"/>
<text text-anchor="middle" x="670.54" y="-965.6" font-family="Times,serif" font-size="14.00" fill="#000000">9</text>
</g>
<!-- task_366b15ee&#45;7439&#45;45a4&#45;94d6&#45;b3af35af4bd2 -->
<g id="task_366b15ee&#45;7439&#45;45a4&#45;94d6&#45;b3af35af4bd2" class="node">
<title>task_366b15ee&#45;7439&#45;45a4&#45;94d6&#45;b3af35af4bd2</title>
<g id="a_task_366b15ee&#45;7439&#45;45a4&#45;94d6&#45;b3af35af4bd2"><a xlink:title="[task] kubeinit.kubeinit.kubeinit_okd : Use single node cluster">
<polygon fill="none" stroke="black" points="1729.59,-899.34 1729.59,-914.25 1539.96,-924.8 1271.79,-924.8 1082.16,-914.25 1082.16,-899.34 1271.79,-888.8 1539.96,-888.8 1729.59,-899.34"/>
<text text-anchor="middle" x="1405.88" y="-903.1" font-family="Times,serif" font-size="14.00">[task] kubeinit.kubeinit.kubeinit_okd : Use single node cluster</text>
</a>
</g>
</g>
<!-- task&#45;deploy&#45;cluster&#45;&gt;task_366b15ee&#45;7439&#45;45a4&#45;94d6&#45;b3af35af4bd2 -->
<g id="edge_d6207afd&#45;b450&#45;4ea3&#45;bc19&#45;7b3524b05fba" class="edge">
<title>task&#45;deploy&#45;cluster&#45;&gt;task_366b15ee&#45;7439&#45;45a4&#45;94d6&#45;b3af35af4bd2</title>
<path fill="none" stroke="#000000" stroke-width="2" d="M387.14,-735.81C402.25,-771.71 441.59,-851.48 504.04,-883.8 554.4,-909.86 836.64,-913.78 1071.97,-912.27"/>
<polygon fill="#000000" stroke="#000000" stroke-width="2" points="1072.11,-915.77 1082.08,-912.21 1072.06,-908.77 1072.11,-915.77"/>
<text text-anchor="middle" x="670.54" y="-914.6" font-family="Times,serif" font-size="14.00" fill="#000000">10 &#160;[when: kubeinit_controller_count|int == 1]</text>
</g>
<!-- task_4a1cc011&#45;a3b0&#45;4ac0&#45;be43&#45;114e9509a8d9 -->
<g id="task_4a1cc011&#45;a3b0&#45;4ac0&#45;be43&#45;114e9509a8d9" class="node">
<title>task_4a1cc011&#45;a3b0&#45;4ac0&#45;be43&#45;114e9509a8d9</title>
<g id="a_task_4a1cc011&#45;a3b0&#45;4ac0&#45;be43&#45;114e9509a8d9"><a xlink:title="[task] kubeinit.kubeinit.kubeinit_okd : Wait for bootstrap to complete">
<polygon fill="none" stroke="black" points="1765.35,-845.34 1765.35,-860.25 1554.77,-870.8 1256.98,-870.8 1046.41,-860.25 1046.41,-845.34 1256.98,-834.8 1554.77,-834.8 1765.35,-845.34"/>
<text text-anchor="middle" x="1405.88" y="-849.1" font-family="Times,serif" font-size="14.00">[task] kubeinit.kubeinit.kubeinit_okd : Wait for bootstrap to complete</text>
</a>
</g>
</g>
<!-- task&#45;deploy&#45;cluster&#45;&gt;task_4a1cc011&#45;a3b0&#45;4ac0&#45;be43&#45;114e9509a8d9 -->
<g id="edge_5e108c88&#45;bbae&#45;4c6f&#45;a07b&#45;fb6309df12a5" class="edge">
<title>task&#45;deploy&#45;cluster&#45;&gt;task_4a1cc011&#45;a3b0&#45;4ac0&#45;be43&#45;114e9509a8d9</title>
<path fill="none" stroke="#000000" stroke-width="2" d="M399.8,-735.83C422.86,-755.72 463.14,-786.76 504.04,-800.8 743.2,-882.88 1038.88,-882.13 1224.74,-870.37"/>
<polygon fill="#000000" stroke="#000000" stroke-width="2" points="1225.14,-873.85 1234.89,-869.71 1224.68,-866.86 1225.14,-873.85"/>
<text text-anchor="middle" x="670.54" y="-868.6" font-family="Times,serif" font-size="14.00" fill="#000000">11</text>
</g>
<!-- task_04f1ef76&#45;0746&#45;4feb&#45;a0d2&#45;f1a66762130c -->
<g id="task_04f1ef76&#45;0746&#45;4feb&#45;a0d2&#45;f1a66762130c" class="node">
<title>task_04f1ef76&#45;0746&#45;4feb&#45;a0d2&#45;f1a66762130c</title>
<g id="a_task_04f1ef76&#45;0746&#45;4feb&#45;a0d2&#45;f1a66762130c"><a xlink:title="[task] kubeinit.kubeinit.kubeinit_okd : Remove bootstrap node from haproxy config">
<polygon fill="none" stroke="black" points="1834.23,-791.34 1834.23,-806.25 1583.31,-816.8 1228.45,-816.8 977.52,-806.25 977.52,-791.34 1228.45,-780.8 1583.31,-780.8 1834.23,-791.34"/>
<text text-anchor="middle" x="1405.88" y="-795.1" font-family="Times,serif" font-size="14.00">[task] kubeinit.kubeinit.kubeinit_okd : Remove bootstrap node from haproxy config</text>
</a>
</g>
</g>
<!-- task&#45;deploy&#45;cluster&#45;&gt;task_04f1ef76&#45;0746&#45;4feb&#45;a0d2&#45;f1a66762130c -->
<g id="edge_e8e08500&#45;951d&#45;4bd6&#45;a3aa&#45;5bdcac8854d3" class="edge">
<title>task&#45;deploy&#45;cluster&#45;&gt;task_04f1ef76&#45;0746&#45;4feb&#45;a0d2&#45;f1a66762130c</title>
<path fill="none" stroke="#000000" stroke-width="2" d="M436.78,-733.65C457.76,-738.95 481.83,-744.38 504.04,-747.8 654.06,-770.91 819.57,-783.84 967.36,-790.97"/>
<polygon fill="#000000" stroke="#000000" stroke-width="2" points="967.36,-794.48 977.52,-791.45 967.69,-787.48 967.36,-794.48"/>
<text text-anchor="middle" x="670.54" y="-785.6" font-family="Times,serif" font-size="14.00" fill="#000000">12</text>
</g>
<!-- task_7f9381d2&#45;a70b&#45;4d53&#45;a947&#45;38e75ee90533 -->
<g id="task_7f9381d2&#45;a70b&#45;4d53&#45;a947&#45;38e75ee90533" class="node">
<title>task_7f9381d2&#45;a70b&#45;4d53&#45;a947&#45;38e75ee90533</title>
<g id="a_task_7f9381d2&#45;a70b&#45;4d53&#45;a947&#45;38e75ee90533"><a xlink:title="[task] kubeinit.kubeinit.kubeinit_okd : Restart haproxy container">
<polygon fill="none" stroke="black" points="1742.82,-737.34 1742.82,-752.25 1545.44,-762.8 1266.31,-762.8 1068.93,-752.25 1068.93,-737.34 1266.31,-726.8 1545.44,-726.8 1742.82,-737.34"/>
<text text-anchor="middle" x="1405.88" y="-741.1" font-family="Times,serif" font-size="14.00">[task] kubeinit.kubeinit.kubeinit_okd : Restart haproxy container</text>
</a>
</g>
</g>
<!-- task&#45;deploy&#45;cluster&#45;&gt;task_7f9381d2&#45;a70b&#45;4d53&#45;a947&#45;38e75ee90533 -->
<g id="edge_821f7593&#45;8239&#45;452e&#45;a878&#45;2be0deddd029" class="edge">
<title>task&#45;deploy&#45;cluster&#45;&gt;task_7f9381d2&#45;a70b&#45;4d53&#45;a947&#45;38e75ee90533</title>
<path fill="none" stroke="#000000" stroke-width="2" d="M486.4,-720.6C624.67,-724.24 872.62,-730.77 1076.07,-736.13"/>
<polygon fill="#000000" stroke="#000000" stroke-width="2" points="1076.25,-739.64 1086.34,-736.4 1076.43,-732.64 1076.25,-739.64"/>
<text text-anchor="middle" x="670.54" y="-732.6" font-family="Times,serif" font-size="14.00" fill="#000000">13</text>
</g>
<!-- task_e8f662f3&#45;5f38&#45;40e7&#45;ac91&#45;28f09eafd3f4 -->
<g id="task_e8f662f3&#45;5f38&#45;40e7&#45;ac91&#45;28f09eafd3f4" class="node">
<title>task_e8f662f3&#45;5f38&#45;40e7&#45;ac91&#45;28f09eafd3f4</title>
<g id="a_task_e8f662f3&#45;5f38&#45;40e7&#45;ac91&#45;28f09eafd3f4"><a xlink:title="[task] kubeinit.kubeinit.kubeinit_okd : Destroy bootstrap node VM">
<polygon fill="none" stroke="black" points="1749.89,-683.34 1749.89,-698.25 1548.37,-708.8 1263.38,-708.8 1061.86,-698.25 1061.86,-683.34 1263.38,-672.8 1548.37,-672.8 1749.89,-683.34"/>
<text text-anchor="middle" x="1405.88" y="-687.1" font-family="Times,serif" font-size="14.00">[task] kubeinit.kubeinit.kubeinit_okd : Destroy bootstrap node VM</text>
</a>
</g>
</g>
<!-- task&#45;deploy&#45;cluster&#45;&gt;task_e8f662f3&#45;5f38&#45;40e7&#45;ac91&#45;28f09eafd3f4 -->
<g id="edge_732693a1&#45;7636&#45;4757&#45;9fb0&#45;c57a82b6dc4d" class="edge">
<title>task&#45;deploy&#45;cluster&#45;&gt;task_e8f662f3&#45;5f38&#45;40e7&#45;ac91&#45;28f09eafd3f4</title>
<path fill="none" stroke="#000000" stroke-width="2" d="M460.64,-706.02C475.06,-704.31 489.98,-702.79 504.04,-701.8 684.18,-689.11 885.07,-685.63 1051.35,-685.63"/>
<polygon fill="#000000" stroke="#000000" stroke-width="2" points="1051.74,-689.13 1061.74,-685.64 1051.74,-682.13 1051.74,-689.13"/>
<text text-anchor="middle" x="670.54" y="-705.6" font-family="Times,serif" font-size="14.00" fill="#000000">14</text>
</g>
<!-- task_c610db6e&#45;2d29&#45;4f32&#45;ab1a&#45;332634d4f41c -->
<g id="task_c610db6e&#45;2d29&#45;4f32&#45;ab1a&#45;332634d4f41c" class="node">
<title>task_c610db6e&#45;2d29&#45;4f32&#45;ab1a&#45;332634d4f41c</title>
<g id="a_task_c610db6e&#45;2d29&#45;4f32&#45;ab1a&#45;332634d4f41c"><a xlink:title="[task] kubeinit.kubeinit.kubeinit_okd : Undefine bootstrap node VM">
<polygon fill="none" stroke="black" points="1755.65,-629.34 1755.65,-644.25 1550.76,-654.8 1261,-654.8 1056.1,-644.25 1056.1,-629.34 1261,-618.8 1550.76,-618.8 1755.65,-629.34"/>
<text text-anchor="middle" x="1405.88" y="-633.1" font-family="Times,serif" font-size="14.00">[task] kubeinit.kubeinit.kubeinit_okd : Undefine bootstrap node VM</text>
</a>
</g>
</g>
<!-- task&#45;deploy&#45;cluster&#45;&gt;task_c610db6e&#45;2d29&#45;4f32&#45;ab1a&#45;332634d4f41c -->
<g id="edge_0ea3238e&#45;8e65&#45;4ced&#45;b6ef&#45;f6627a3931a0" class="edge">
<title>task&#45;deploy&#45;cluster&#45;&gt;task_c610db6e&#45;2d29&#45;4f32&#45;ab1a&#45;332634d4f41c</title>
<path fill="none" stroke="#000000" stroke-width="2" d="M416.24,-699.71C440.43,-688.56 473.35,-675.21 504.04,-668.8 722.52,-623.14 977.17,-618.42 1159.88,-623.2"/>
<polygon fill="#000000" stroke="#000000" stroke-width="2" points="1159.8,-626.7 1169.89,-623.47 1159.99,-619.7 1159.8,-626.7"/>
<text text-anchor="middle" x="670.54" y="-672.6" font-family="Times,serif" font-size="14.00" fill="#000000">15</text>
</g>
<!-- task_d044873e&#45;2d4a&#45;4223&#45;b620&#45;68314304ba41 -->
<g id="task_d044873e&#45;2d4a&#45;4223&#45;b620&#45;68314304ba41" class="node">
<title>task_d044873e&#45;2d4a&#45;4223&#45;b620&#45;68314304ba41</title>
<g id="a_task_d044873e&#45;2d4a&#45;4223&#45;b620&#45;68314304ba41"><a xlink:title="[task] kubeinit.kubeinit.kubeinit_okd : Remove bootstrap node VM storage">
<polygon fill="none" stroke="black" points="1791.4,-575.34 1791.4,-590.25 1565.57,-600.8 1246.19,-600.8 1020.35,-590.25 1020.35,-575.34 1246.19,-564.8 1565.57,-564.8 1791.4,-575.34"/>
<text text-anchor="middle" x="1405.88" y="-579.1" font-family="Times,serif" font-size="14.00">[task] kubeinit.kubeinit.kubeinit_okd : Remove bootstrap node VM storage</text>
</a>
</g>
</g>
<!-- task&#45;deploy&#45;cluster&#45;&gt;task_d044873e&#45;2d4a&#45;4223&#45;b620&#45;68314304ba41 -->
<g id="edge_0d7cf1fd&#45;945f&#45;4d6b&#45;ad56&#45;60030b8cc496" class="edge">
<title>task&#45;deploy&#45;cluster&#45;&gt;task_d044873e&#45;2d4a&#45;4223&#45;b620&#45;68314304ba41</title>
<path fill="none" stroke="#000000" stroke-width="2" d="M393.7,-699.68C414.28,-673.9 456.05,-627.69 504.04,-608.8 611.71,-566.4 895.69,-564.32 1116.3,-570.12"/>
<polygon fill="#000000" stroke="#000000" stroke-width="2" points="1116.34,-573.62 1126.43,-570.39 1116.53,-566.62 1116.34,-573.62"/>
<text text-anchor="middle" x="670.54" y="-612.6" font-family="Times,serif" font-size="14.00" fill="#000000">16</text>
</g>
<!-- task_0bca8707&#45;96a9&#45;4890&#45;a4c7&#45;aa8dff6cf9e6 -->
<g id="task_0bca8707&#45;96a9&#45;4890&#45;a4c7&#45;aa8dff6cf9e6" class="node">
<title>task_0bca8707&#45;96a9&#45;4890&#45;a4c7&#45;aa8dff6cf9e6</title>
<g id="a_task_0bca8707&#45;96a9&#45;4890&#45;a4c7&#45;aa8dff6cf9e6"><a xlink:title="[task] kubeinit.kubeinit.kubeinit_libvirt : Remove old disk images">
<polygon fill="none" stroke="black" points="1745.04,-521.34 1745.04,-536.25 1546.36,-546.8 1265.39,-546.8 1066.71,-536.25 1066.71,-521.34 1265.39,-510.8 1546.36,-510.8 1745.04,-521.34"/>
<text text-anchor="middle" x="1405.88" y="-525.1" font-family="Times,serif" font-size="14.00">[task] kubeinit.kubeinit.kubeinit_libvirt : Remove old disk images</text>
</a>
</g>
</g>
<!-- task&#45;deploy&#45;cluster&#45;&gt;task_0bca8707&#45;96a9&#45;4890&#45;a4c7&#45;aa8dff6cf9e6 -->
<g id="edge_9355e1e6&#45;3eef&#45;4445&#45;b0ba&#45;d2242d27f93e" class="edge">
<title>task&#45;deploy&#45;cluster&#45;&gt;task_0bca8707&#45;96a9&#45;4890&#45;a4c7&#45;aa8dff6cf9e6</title>
<path fill="none" stroke="#000000" stroke-width="2" d="M387.07,-699.56C402.05,-663.22 441.17,-582.47 504.04,-549.8 620.65,-489.2 972.17,-499.09 1200.06,-513.06"/>
<polygon fill="#000000" stroke="#000000" stroke-width="2" points="1199.95,-516.55 1210.14,-513.68 1200.38,-509.57 1199.95,-516.55"/>
<text text-anchor="middle" x="670.54" y="-553.6" font-family="Times,serif" font-size="14.00" fill="#000000">17</text>
</g>
<!-- task_261a5422&#45;faad&#45;4368&#45;88de&#45;3ea8655dfe82 -->
<g id="task_261a5422&#45;faad&#45;4368&#45;88de&#45;3ea8655dfe82" class="node">
<title>task_261a5422&#45;faad&#45;4368&#45;88de&#45;3ea8655dfe82</title>
<g id="a_task_261a5422&#45;faad&#45;4368&#45;88de&#45;3ea8655dfe82"><a xlink:title="[task] kubeinit.kubeinit.kubeinit_libvirt : Set guest images facts">
<polygon fill="none" stroke="black" points="1738.38,-467.34 1738.38,-482.25 1543.6,-492.8 1268.15,-492.8 1073.37,-482.25 1073.37,-467.34 1268.15,-456.8 1543.6,-456.8 1738.38,-467.34"/>
<text text-anchor="middle" x="1405.88" y="-471.1" font-family="Times,serif" font-size="14.00">[task] kubeinit.kubeinit.kubeinit_libvirt : Set guest images facts</text>
</a>
</g>
</g>
<!-- task&#45;deploy&#45;cluster&#45;&gt;task_261a5422&#45;faad&#45;4368&#45;88de&#45;3ea8655dfe82 -->
<g id="edge_08c1313a&#45;912a&#45;41a0&#45;a29f&#45;ce25a3a5b6af" class="edge">
<title>task&#45;deploy&#45;cluster&#45;&gt;task_261a5422&#45;faad&#45;4368&#45;88de&#45;3ea8655dfe82</title>
<path fill="none" stroke="#000000" stroke-width="2" d="M383.32,-699.47C392.5,-653.38 423.55,-532.8 504.04,-483.8 556.48,-451.87 883.46,-455.72 1128.49,-463.47"/>
<polygon fill="#000000" stroke="#000000" stroke-width="2" points="1128.52,-466.98 1138.63,-463.8 1128.75,-459.98 1128.52,-466.98"/>
<text text-anchor="middle" x="670.54" y="-487.6" font-family="Times,serif" font-size="14.00" fill="#000000">18</text>
</g>
<!-- task_460c22b1&#45;592a&#45;4ae1&#45;8c5e&#45;1103ef06e712 -->
<g id="task_460c22b1&#45;592a&#45;4ae1&#45;8c5e&#45;1103ef06e712" class="node">
<title>task_460c22b1&#45;592a&#45;4ae1&#45;8c5e&#45;1103ef06e712</title>
<g id="a_task_460c22b1&#45;592a&#45;4ae1&#45;8c5e&#45;1103ef06e712"><a xlink:title="[task] kubeinit.kubeinit.kubeinit_libvirt : Create VM definition for {{ kubeinit_deployment_node_name }}">
<polygon fill="none" stroke="black" points="1946.85,-413.34 1946.85,-428.25 1629.95,-438.8 1181.8,-438.8 864.9,-428.25 864.9,-413.34 1181.8,-402.8 1629.95,-402.8 1946.85,-413.34"/>
<text text-anchor="middle" x="1405.88" y="-417.1" font-family="Times,serif" font-size="14.00">[task] kubeinit.kubeinit.kubeinit_libvirt : Create VM definition for {{ kubeinit_deployment_node_name }}</text>
</a>
</g>
</g>
<!-- task&#45;deploy&#45;cluster&#45;&gt;task_460c22b1&#45;592a&#45;4ae1&#45;8c5e&#45;1103ef06e712 -->
<g id="edge_88af37e0&#45;e2e8&#45;48b2&#45;b52e&#45;9fec828d71a4" class="edge">
<title>task&#45;deploy&#45;cluster&#45;&gt;task_460c22b1&#45;592a&#45;4ae1&#45;8c5e&#45;1103ef06e712</title>
<path fill="none" stroke="#000000" stroke-width="2" d="M381.74,-699.61C387.44,-647.97 411.55,-500.24 504.04,-438.8 545.51,-411.25 768.46,-406.65 982.16,-408.98"/>
<polygon fill="#000000" stroke="#000000" stroke-width="2" points="982.29,-412.48 992.33,-409.1 982.37,-405.49 982.29,-412.48"/>
<text text-anchor="middle" x="670.54" y="-442.6" font-family="Times,serif" font-size="14.00" fill="#000000">19</text>
</g>
<!-- task_3b52c95e&#45;bbf3&#45;43a8&#45;ab0e&#45;e2c26d360508 -->
<g id="task_3b52c95e&#45;bbf3&#45;43a8&#45;ab0e&#45;e2c26d360508" class="node">
<title>task_3b52c95e&#45;bbf3&#45;43a8&#45;ab0e&#45;e2c26d360508</title>
<g id="a_task_3b52c95e&#45;bbf3&#45;43a8&#45;ab0e&#45;e2c26d360508"><a xlink:title="[task] kubeinit.kubeinit.kubeinit_libvirt : Wait until {{ kubeinit_deployment_node_name }} is running">
<polygon fill="none" stroke="black" points="1928.77,-359.34 1928.77,-374.25 1622.46,-384.8 1189.29,-384.8 882.99,-374.25 882.99,-359.34 1189.29,-348.8 1622.46,-348.8 1928.77,-359.34"/>
<text text-anchor="middle" x="1405.88" y="-363.1" font-family="Times,serif" font-size="14.00">[task] kubeinit.kubeinit.kubeinit_libvirt : Wait until {{ kubeinit_deployment_node_name }} is running</text>
</a>
</g>
</g>
<!-- task&#45;deploy&#45;cluster&#45;&gt;task_3b52c95e&#45;bbf3&#45;43a8&#45;ab0e&#45;e2c26d360508 -->
<g id="edge_0b10b3fd&#45;e7e8&#45;490e&#45;a1d4&#45;cf77d42fa806" class="edge">
<title>task&#45;deploy&#45;cluster&#45;&gt;task_3b52c95e&#45;bbf3&#45;43a8&#45;ab0e&#45;e2c26d360508</title>
<path fill="none" stroke="#000000" stroke-width="2" d="M380.45,-699.44C382.64,-641.84 398.04,-464.07 504.04,-388.8 543.87,-360.52 759.24,-354.59 969.4,-355.94"/>
<polygon fill="#000000" stroke="#000000" stroke-width="2" points="969.38,-359.44 979.4,-356.01 969.43,-352.44 969.38,-359.44"/>
<text text-anchor="middle" x="670.54" y="-392.6" font-family="Times,serif" font-size="14.00" fill="#000000">20</text>
</g>
<!-- task_6e0b3612&#45;98e6&#45;44c1&#45;95f0&#45;5e810d0ba82d -->
<g id="task_6e0b3612&#45;98e6&#45;44c1&#45;95f0&#45;5e810d0ba82d" class="node">
<title>task_6e0b3612&#45;98e6&#45;44c1&#45;95f0&#45;5e810d0ba82d</title>
<g id="a_task_6e0b3612&#45;98e6&#45;44c1&#45;95f0&#45;5e810d0ba82d"><a xlink:title="[task] kubeinit.kubeinit.kubeinit_okd : verify that all the csr are loaded and aproved for the deployed nodes">
<polygon fill="none" stroke="black" points="1956.55,-305.34 1956.55,-320.25 1633.97,-330.8 1177.78,-330.8 855.21,-320.25 855.21,-305.34 1177.78,-294.8 1633.97,-294.8 1956.55,-305.34"/>
<text text-anchor="middle" x="1405.88" y="-309.1" font-family="Times,serif" font-size="14.00">[task] kubeinit.kubeinit.kubeinit_okd : verify that all the csr are loaded and aproved for the deployed nodes</text>
</a>
</g>
</g>
<!-- task&#45;deploy&#45;cluster&#45;&gt;task_6e0b3612&#45;98e6&#45;44c1&#45;95f0&#45;5e810d0ba82d -->
<g id="edge_5c90d98e&#45;8ab2&#45;4347&#45;be25&#45;d11ed461fb12" class="edge">
<title>task&#45;deploy&#45;cluster&#45;&gt;task_6e0b3612&#45;98e6&#45;44c1&#45;95f0&#45;5e810d0ba82d</title>
<path fill="none" stroke="#000000" stroke-width="2" d="M379.43,-699.38C378.2,-636.13 383.66,-426.7 504.04,-336.8 541.52,-308.8 740.62,-301.73 942.13,-302.14"/>
<polygon fill="#000000" stroke="#000000" stroke-width="2" points="942.33,-305.64 952.34,-302.16 942.35,-298.64 942.33,-305.64"/>
<text text-anchor="middle" x="670.54" y="-340.6" font-family="Times,serif" font-size="14.00" fill="#000000">21</text>
</g>
<!-- task_61678ce8&#45;4acd&#45;4497&#45;8b1f&#45;56684106c2fd -->
<g id="task_61678ce8&#45;4acd&#45;4497&#45;8b1f&#45;56684106c2fd" class="node">
<title>task_61678ce8&#45;4acd&#45;4497&#45;8b1f&#45;56684106c2fd</title>
<g id="a_task_61678ce8&#45;4acd&#45;4497&#45;8b1f&#45;56684106c2fd"><a xlink:title="[task] kubeinit.kubeinit.kubeinit_okd : wait until all nodes are ready">
<polygon fill="none" stroke="black" points="1758.28,-251.34 1758.28,-266.25 1551.84,-276.8 1259.91,-276.8 1053.48,-266.25 1053.48,-251.34 1259.91,-240.8 1551.84,-240.8 1758.28,-251.34"/>
<text text-anchor="middle" x="1405.88" y="-255.1" font-family="Times,serif" font-size="14.00">[task] kubeinit.kubeinit.kubeinit_okd : wait until all nodes are ready</text>
</a>
</g>
</g>
<!-- task&#45;deploy&#45;cluster&#45;&gt;task_61678ce8&#45;4acd&#45;4497&#45;8b1f&#45;56684106c2fd -->
<g id="edge_3867202a&#45;84ca&#45;48b2&#45;ad76&#45;1bbb80acde7e" class="edge">
<title>task&#45;deploy&#45;cluster&#45;&gt;task_61678ce8&#45;4acd&#45;4497&#45;8b1f&#45;56684106c2fd</title>
<path fill="none" stroke="#000000" stroke-width="2" d="M382.44,-699.64C392.55,-624.12 435.18,-336.23 504.04,-282.8 549.79,-247.29 843.95,-244.83 1083.88,-249.06"/>
<polygon fill="#000000" stroke="#000000" stroke-width="2" points="1084.12,-252.57 1094.18,-249.25 1084.25,-245.57 1084.12,-252.57"/>
<text text-anchor="middle" x="670.54" y="-286.6" font-family="Times,serif" font-size="14.00" fill="#000000">22</text>
</g>
<!-- task_6c2eb164&#45;4c06&#45;4495&#45;8e14&#45;b94f909cda70 -->
<g id="task_6c2eb164&#45;4c06&#45;4495&#45;8e14&#45;b94f909cda70" class="node">
<title>task_6c2eb164&#45;4c06&#45;4495&#45;8e14&#45;b94f909cda70</title>
<g id="a_task_6c2eb164&#45;4c06&#45;4495&#45;8e14&#45;b94f909cda70"><a xlink:title="[task] kubeinit.kubeinit.kubeinit_okd : Copy the kubeconfig">
<polygon fill="none" stroke="black" points="1713.23,-197.34 1713.23,-212.25 1533.19,-222.8 1278.57,-222.8 1098.52,-212.25 1098.52,-197.34 1278.57,-186.8 1533.19,-186.8 1713.23,-197.34"/>
<text text-anchor="middle" x="1405.88" y="-201.1" font-family="Times,serif" font-size="14.00">[task] kubeinit.kubeinit.kubeinit_okd : Copy the kubeconfig</text>
</a>
</g>
</g>
<!-- task&#45;deploy&#45;cluster&#45;&gt;task_6c2eb164&#45;4c06&#45;4495&#45;8e14&#45;b94f909cda70 -->
<g id="edge_3a87035d&#45;bcdd&#45;4653&#45;9e5e&#45;04b72861f882" class="edge">
<title>task&#45;deploy&#45;cluster&#45;&gt;task_6c2eb164&#45;4c06&#45;4495&#45;8e14&#45;b94f909cda70</title>
<path fill="none" stroke="#000000" stroke-width="2" d="M381.85,-699.66C390.01,-618.5 427.44,-290.06 504.04,-228.8 551.44,-190.89 872.31,-190.12 1117.74,-195.39"/>
<polygon fill="#000000" stroke="#000000" stroke-width="2" points="1117.82,-198.89 1127.9,-195.61 1117.98,-191.9 1117.82,-198.89"/>
<text text-anchor="middle" x="670.54" y="-232.6" font-family="Times,serif" font-size="14.00" fill="#000000">23</text>
</g>
<!-- task_1e81f068&#45;5d7f&#45;46dd&#45;aecc&#45;db7819bcbace -->
<g id="task_1e81f068&#45;5d7f&#45;46dd&#45;aecc&#45;db7819bcbace" class="node">
<title>task_1e81f068&#45;5d7f&#45;46dd&#45;aecc&#45;db7819bcbace</title>
<g id="a_task_1e81f068&#45;5d7f&#45;46dd&#45;aecc&#45;db7819bcbace"><a xlink:title="[task] kubeinit.kubeinit.kubeinit_okd : Get some final cluster information">
<polygon fill="none" stroke="black" points="1783.02,-143.34 1783.02,-158.25 1562.09,-168.8 1249.66,-168.8 1028.73,-158.25 1028.73,-143.34 1249.66,-132.8 1562.09,-132.8 1783.02,-143.34"/>
<text text-anchor="middle" x="1405.88" y="-147.1" font-family="Times,serif" font-size="14.00">[task] kubeinit.kubeinit.kubeinit_okd : Get some final cluster information</text>
</a>
</g>
</g>
<!-- task&#45;deploy&#45;cluster&#45;&gt;task_1e81f068&#45;5d7f&#45;46dd&#45;aecc&#45;db7819bcbace -->
<g id="edge_ceaa4281&#45;5237&#45;4353&#45;988a&#45;09a8d4f7ee2d" class="edge">
<title>task&#45;deploy&#45;cluster&#45;&gt;task_1e81f068&#45;5d7f&#45;46dd&#45;aecc&#45;db7819bcbace</title>
<path fill="none" stroke="#000000" stroke-width="2" d="M381.35,-699.71C387.68,-613.2 419.45,-243.07 504.04,-173.8 548.81,-137.14 842.67,-135.17 1082.77,-140.04"/>
<polygon fill="#000000" stroke="#000000" stroke-width="2" points="1083.02,-143.54 1093.09,-140.25 1083.16,-136.54 1083.02,-143.54"/>
<text text-anchor="middle" x="670.54" y="-177.6" font-family="Times,serif" font-size="14.00" fill="#000000">24</text>
</g>
<!-- task_e59f1954&#45;7fe7&#45;47c0&#45;98af&#45;61f411c9a9f3 -->
<g id="task_e59f1954&#45;7fe7&#45;47c0&#45;98af&#45;61f411c9a9f3" class="node">
<title>task_e59f1954&#45;7fe7&#45;47c0&#45;98af&#45;61f411c9a9f3</title>
<g id="a_task_e59f1954&#45;7fe7&#45;47c0&#45;98af&#45;61f411c9a9f3"><a xlink:title="[task] kubeinit.kubeinit.kubeinit_okd : Display final debug info">
<polygon fill="none" stroke="black" points="1730,-89.34 1730,-104.25 1540.13,-114.8 1271.62,-114.8 1081.76,-104.25 1081.76,-89.34 1271.62,-78.8 1540.13,-78.8 1730,-89.34"/>
<text text-anchor="middle" x="1405.88" y="-93.1" font-family="Times,serif" font-size="14.00">[task] kubeinit.kubeinit.kubeinit_okd : Display final debug info</text>
</a>
</g>
</g>
<!-- task&#45;deploy&#45;cluster&#45;&gt;task_e59f1954&#45;7fe7&#45;47c0&#45;98af&#45;61f411c9a9f3 -->
<g id="edge_01b6d8c9&#45;873a&#45;45c1&#45;b6f2&#45;f2338a24cea5" class="edge">
<title>task&#45;deploy&#45;cluster&#45;&gt;task_e59f1954&#45;7fe7&#45;47c0&#45;98af&#45;61f411c9a9f3</title>
<path fill="none" stroke="#000000" stroke-width="2" d="M380.94,-699.76C385.58,-608.18 411.41,-196.12 504.04,-118.8 550.85,-79.72 874.74,-80.08 1120.87,-86.34"/>
<polygon fill="#000000" stroke="#000000" stroke-width="2" points="1120.97,-89.84 1131.06,-86.6 1121.15,-82.84 1120.97,-89.84"/>
<text text-anchor="middle" x="670.54" y="-122.6" font-family="Times,serif" font-size="14.00" fill="#000000">25</text>
</g>
<!-- task_685afd00&#45;a092&#45;43fe&#45;bed8&#45;f7ed384bf0ef -->
<g id="task_685afd00&#45;a092&#45;43fe&#45;bed8&#45;f7ed384bf0ef" class="node">
<title>task_685afd00&#45;a092&#45;43fe&#45;bed8&#45;f7ed384bf0ef</title>
<g id="a_task_685afd00&#45;a092&#45;43fe&#45;bed8&#45;f7ed384bf0ef"><a xlink:title="[task] kubeinit.kubeinit.kubeinit_okd : Print some final data">
<polygon fill="none" stroke="black" points="1716.36,-35.34 1716.36,-50.25 1534.48,-60.8 1277.27,-60.8 1095.4,-50.25 1095.4,-35.34 1277.27,-24.8 1534.48,-24.8 1716.36,-35.34"/>
<text text-anchor="middle" x="1405.88" y="-39.1" font-family="Times,serif" font-size="14.00">[task] kubeinit.kubeinit.kubeinit_okd : Print some final data</text>
</a>
</g>
</g>
<!-- task&#45;deploy&#45;cluster&#45;&gt;task_685afd00&#45;a092&#45;43fe&#45;bed8&#45;f7ed384bf0ef -->
<g id="edge_66da0ec0&#45;921f&#45;4d31&#45;91f2&#45;ba3830cfbee4" class="edge">
<title>task&#45;deploy&#45;cluster&#45;&gt;task_685afd00&#45;a092&#45;43fe&#45;bed8&#45;f7ed384bf0ef</title>
<path fill="none" stroke="#000000" stroke-width="2" d="M380.61,-699.73C383.67,-603.18 403.35,-149.2 504.04,-63.8 613.3,28.87 1027.32,-0.31 1254.1,-24.42"/>
<polygon fill="#000000" stroke="#000000" stroke-width="2" points="1253.77,-27.9 1264.08,-25.49 1254.51,-20.94 1253.77,-27.9"/>
<text text-anchor="middle" x="670.54" y="-67.6" font-family="Times,serif" font-size="14.00" fill="#000000">26</text>
</g>
</g>
</svg>
