<?xml version='1.0' encoding='UTF-8'?>
<!DOCTYPE svg PUBLIC "-//W3C//DTD SVG 1.1//EN" "http://www.w3.org/Graphics/SVG/1.1/DTD/svg11.dtd">
<!-- Generated by graphviz version 2.43.0 (0)
 --><!-- Title: ./playbooks/submariner&#45;subctl&#45;verify.yml  Pages: 1 --><svg xmlns="http://www.w3.org/2000/svg" xmlns:xlink="http://www.w3.org/1999/xlink" width="1919pt" height="807pt" viewBox="0.00 0.00 1919.12 807.41" id="svg">
<script type="text/javascript" href="https://ajax.googleapis.com/ajax/libs/jquery/3.2.1/jquery.min.js" id="jquery"/><script type="text/javascript" id="my_javascript"><![CDATA[const HOVER_CLASS = "my_hover";

var selectedElement = null;

function addClass(rootElement) {
    $(rootElement).find('link').each(function (index, element) {
        var target = $(element).attr('target');
        var currentElement = $('#' + target);
        currentElement.addClass(HOVER_CLASS);

        addClass(currentElement);
    })
}

function removeClass(rootElement, hover) {
    $(rootElement).find('link').each(function (index, element) {
        if ($(rootElement).attr('id') !== $(selectedElement).attr('id') || !hover) {
            var target = $(element).attr('target');
            var currentElement = $('#' + target);
            currentElement.removeClass(HOVER_CLASS);

            removeClass(currentElement);
        }

    })
}

function hoverIn(event) {
    addClass(event.currentTarget);
}

function hoverOut(event) {
    removeClass(event.currentTarget, true);
}

function clickOnElement(event) {
    var newElement = event.currentTarget;

    if ($(newElement).attr('id') === $(selectedElement).attr('id')) {
        removeClass(selectedElement, false);
    } else {
        removeClass(selectedElement);
        addClass(newElement)
    }

    selectedElement = newElement;
}


$("#svg").ready(function () {

    $("g[id^=play_]").hover(hoverIn, hoverOut);
    $("g[id^=role_]").hover(hoverIn, hoverOut);

    $("g[id^=play_]").click(clickOnElement);
    $("g[id^=role_]").click(clickOnElement);

});
]]></script><style type="text/css" id="my_css"><![CDATA[.node:hover, .edge:hover, path:hover, path + polygon:hover {
    cursor: pointer;
    stroke-width: 3;
    font-weight: bolder;
}

.my_hover {
    cursor: pointer;
    stroke-width: 3;
    font-weight: bolder;
}
]]></style><g id="graph0" class="graph" transform="scale(1 1) rotate(0) translate(4 803.41)">
<title>./playbooks/submariner-subctl-verify.yml </title>
<polygon fill="white" stroke="transparent" points="-4,4 -4,-803.41 1915.12,-803.41 1915.12,4 -4,4"/>
<!-- ./playbooks/submariner&#45;subctl&#45;verify.yml -->
<g id="root_node" class="node">
<title>./playbooks/submariner-subctl-verify.yml</title>
<ellipse fill="none" stroke="black" stroke-dasharray="1,5" cx="198.88" cy="-399.72" rx="198.76" ry="18"/>
<text text-anchor="middle" x="198.88" y="-396.02" font-family="Times,serif" font-size="14.00">./playbooks/submariner-subctl-verify.yml</text>
</g>
<!-- Play #1: Main deployment playbook for integrating submariner (0) -->
<g id="play_9a7055a0-38a4-4db8-addd-2b96d83ffe43" class="node">
<title>Play #1: Main deployment playbook for integrating submariner (0)</title>
<polygon fill="#aaeb07" stroke="#aaeb07" points="938.76,-417.72 443.76,-417.72 443.76,-381.72 938.76,-381.72 938.76,-417.72"/>
<text text-anchor="middle" x="691.26" y="-396.02" font-family="Times,serif" font-size="14.00" fill="#ffffff">Play #1: Main deployment playbook for integrating submariner (0)</text>
<links><link target="edge_5dc85c73-f2cd-4195-9b46-a1a9de0d6689"/><link target="edge_e79084c8-ed3c-41bb-93bc-8e76e27ed58d"/><link target="edge_2aa565d1-bd33-4fde-9108-86e29558a69e"/><link target="edge_69d0eb82-738a-44d6-bccc-c4c096b57dd1"/><link target="edge_36b3ed92-38c3-4bed-8884-e6416e2cf87b"/><link target="edge_cf96088d-9f4a-4b5f-ab07-34a09f0188e0"/><link target="edge_e98407c0-ffd0-4844-8178-14f3d6cfaec5"/><link target="edge_c983df35-006e-42e4-b8dd-a8796765e4da"/><link target="edge_cad80bc3-cabf-4075-8394-e5dfa281dca2"/><link target="edge_eb3bfac6-b95e-4e2b-85d0-36045cb58f23"/><link target="edge_2c801bb8-98e4-4fb9-afba-64521a35200a"/><link target="edge_a02854c2-7339-4cc5-a74d-f697fc2dbebc"/><link target="edge_23a612fc-45af-47d7-9f11-4a2ef4f88654"/><link target="edge_05f15b58-4100-456c-946d-32857f6670fa"/><link target="edge_6d734066-4dc8-4fe0-b780-dbd7622eded1"/></links></g>
<!-- ./playbooks/submariner&#45;subctl&#45;verify.yml&#45;&gt;Play #1: Main deployment playbook for integrating submariner (0) -->
<g id="edge_4a95158e-aa5f-4381-9b91-ea5a8a8e65c3" class="edge">
<title>./playbooks/submariner-subctl-verify.yml-&gt;Play #1: Main deployment playbook for integrating submariner (0)</title>
<path fill="none" stroke="#aaeb07" stroke-width="2" d="M397.93,-399.72C409.66,-399.72 421.54,-399.72 433.46,-399.72"/>
<polygon fill="#aaeb07" stroke="#aaeb07" stroke-width="2" points="433.48,-403.22 443.48,-399.72 433.48,-396.22 433.48,-403.22"/>
<text text-anchor="middle" x="420.76" y="-403.52" font-family="Times,serif" font-size="14.00" fill="#aaeb07">1</text>
</g>
<!-- pre_task_1398dd40&#45;f9f5&#45;48f9&#45;b8fb&#45;c75e2e6afccf -->
<g id="pre_task_1398dd40-f9f5-48f9-b8fb-c75e2e6afccf" class="node">
<title>pre_task_1398dd40-f9f5-48f9-b8fb-c75e2e6afccf</title>
<g id="a_pre_task_1398dd40-f9f5-48f9-b8fb-c75e2e6afccf"><a xlink:title="[pre_task] Check if Ansible meets version requirements.">
<polygon fill="none" stroke="black" points="1746.56,-770.26 1746.56,-785.18 1574.27,-795.72 1330.61,-795.72 1158.32,-785.18 1158.32,-770.26 1330.61,-759.72 1574.27,-759.72 1746.56,-770.26"/>
<text text-anchor="middle" x="1452.44" y="-774.02" font-family="Times,serif" font-size="14.00">[pre_task] Check if Ansible meets version requirements.</text>
</a>
</g>
</g>
<!-- Play #1: Main deployment playbook for integrating submariner (0)&#45;&gt;pre_task_1398dd40&#45;f9f5&#45;48f9&#45;b8fb&#45;c75e2e6afccf -->
<g id="edge_5dc85c73-f2cd-4195-9b46-a1a9de0d6689" class="edge">
<title>Play #1: Main deployment playbook for integrating submariner (0)-&gt;pre_task_1398dd40-f9f5-48f9-b8fb-c75e2e6afccf</title>
<path fill="none" stroke="#aaeb07" stroke-width="2" d="M701.08,-417.95C731.53,-478.59 839.01,-674.04 993.76,-750.72 1094.33,-800.55 1222.97,-803.68 1318.25,-796.43"/>
<polygon fill="#aaeb07" stroke="#aaeb07" stroke-width="2" points="1318.55,-799.92 1328.23,-795.63 1317.98,-792.94 1318.55,-799.92"/>
<text text-anchor="middle" x="966.26" y="-742.52" font-family="Times,serif" font-size="14.00" fill="#aaeb07">1</text>
<links><link target="pre_task_1398dd40-f9f5-48f9-b8fb-c75e2e6afccf"/></links></g>
<!-- task_bab181b6&#45;bc9b&#45;47ba&#45;a8e9&#45;e1425187b952 -->
<g id="task_bab181b6-bc9b-47ba-a8e9-e1425187b952" class="node">
<title>task_bab181b6-bc9b-47ba-a8e9-e1425187b952</title>
<g id="a_task_bab181b6-bc9b-47ba-a8e9-e1425187b952"><a xlink:title="[task] ../../roles/kubeinit_prepare : Gather variables for each operating system">
<polygon fill="none" stroke="black" points="1856.05,-716.26 1856.05,-731.18 1619.62,-741.72 1285.26,-741.72 1048.83,-731.18 1048.83,-716.26 1285.26,-705.72 1619.62,-705.72 1856.05,-716.26"/>
<text text-anchor="middle" x="1452.44" y="-720.02" font-family="Times,serif" font-size="14.00">[task] ../../roles/kubeinit_prepare : Gather variables for each operating system</text>
</a>
</g>
</g>
<!-- Play #1: Main deployment playbook for integrating submariner (0)&#45;&gt;task_bab181b6&#45;bc9b&#45;47ba&#45;a8e9&#45;e1425187b952 -->
<g id="edge_e79084c8-ed3c-41bb-93bc-8e76e27ed58d" class="edge">
<title>Play #1: Main deployment playbook for integrating submariner (0)-&gt;task_bab181b6-bc9b-47ba-a8e9-e1425187b952</title>
<path fill="none" stroke="#aaeb07" stroke-width="2" d="M703.56,-417.8C738.61,-472.05 851.77,-633.58 993.76,-696.72 1080.17,-735.14 1184.93,-743.72 1272.42,-741.87"/>
<polygon fill="#aaeb07" stroke="#aaeb07" stroke-width="2" points="1272.55,-745.37 1282.45,-741.62 1272.37,-738.37 1272.55,-745.37"/>
<text text-anchor="middle" x="966.26" y="-690.52" font-family="Times,serif" font-size="14.00" fill="#aaeb07">2</text>
<links><link target="task_bab181b6-bc9b-47ba-a8e9-e1425187b952"/></links></g>
<!-- task_8a7522c0&#45;c16a&#45;45d8&#45;923c&#45;3a3cfdb62d67 -->
<g id="task_8a7522c0-c16a-45d8-923c-3a3cfdb62d67" class="node">
<title>task_8a7522c0-c16a-45d8-923c-3a3cfdb62d67</title>
<g id="a_task_8a7522c0-c16a-45d8-923c-3a3cfdb62d67"><a xlink:title="[task] ../../roles/kubeinit_prepare : add all nodes to the all_nodes group">
<polygon fill="none" stroke="black" points="1818.98,-662.26 1818.98,-677.18 1604.27,-687.72 1300.62,-687.72 1085.9,-677.18 1085.9,-662.26 1300.62,-651.72 1604.27,-651.72 1818.98,-662.26"/>
<text text-anchor="middle" x="1452.44" y="-666.02" font-family="Times,serif" font-size="14.00">[task] ../../roles/kubeinit_prepare : add all nodes to the all_nodes group</text>
</a>
</g>
</g>
<!-- Play #1: Main deployment playbook for integrating submariner (0)&#45;&gt;task_8a7522c0&#45;c16a&#45;45d8&#45;923c&#45;3a3cfdb62d67 -->
<g id="edge_2aa565d1-bd33-4fde-9108-86e29558a69e" class="edge">
<title>Play #1: Main deployment playbook for integrating submariner (0)-&gt;task_8a7522c0-c16a-45d8-923c-3a3cfdb62d67</title>
<path fill="none" stroke="#aaeb07" stroke-width="2" d="M707.2,-417.85C747.51,-465.26 864.27,-592.69 993.76,-642.72 1019.92,-652.82 1047.54,-660.66 1075.72,-666.66"/>
<polygon fill="#aaeb07" stroke="#aaeb07" stroke-width="2" points="1075.22,-670.12 1085.72,-668.7 1076.62,-663.27 1075.22,-670.12"/>
<text text-anchor="middle" x="966.26" y="-638.52" font-family="Times,serif" font-size="14.00" fill="#aaeb07">3</text>
<links><link target="task_8a7522c0-c16a-45d8-923c-3a3cfdb62d67"/></links></g>
<!-- task_db125894&#45;b0b8&#45;4984&#45;b8b2&#45;482ad21cf083 -->
<g id="task_db125894-b0b8-4984-b8b2-482ad21cf083" class="node">
<title>task_db125894-b0b8-4984-b8b2-482ad21cf083</title>
<g id="a_task_db125894-b0b8-4984-b8b2-482ad21cf083"><a xlink:title="[task] ../../roles/kubeinit_prepare : add all master nodes to the all_master_nodes group">
<polygon fill="none" stroke="black" points="1897.56,-608.26 1897.56,-623.18 1636.82,-633.72 1268.07,-633.72 1007.32,-623.18 1007.32,-608.26 1268.07,-597.72 1636.82,-597.72 1897.56,-608.26"/>
<text text-anchor="middle" x="1452.44" y="-612.02" font-family="Times,serif" font-size="14.00">[task] ../../roles/kubeinit_prepare : add all master nodes to the all_master_nodes group</text>
</a>
</g>
</g>
<!-- Play #1: Main deployment playbook for integrating submariner (0)&#45;&gt;task_db125894&#45;b0b8&#45;4984&#45;b8b2&#45;482ad21cf083 -->
<g id="edge_69d0eb82-738a-44d6-bccc-c4c096b57dd1" class="edge">
<title>Play #1: Main deployment playbook for integrating submariner (0)-&gt;task_db125894-b0b8-4984-b8b2-482ad21cf083</title>
<path fill="none" stroke="#aaeb07" stroke-width="2" d="M712.69,-417.79C758.84,-457.37 876.37,-551.19 993.76,-588.72 1012.33,-594.66 1031.53,-599.7 1051.08,-603.98"/>
<polygon fill="#aaeb07" stroke="#aaeb07" stroke-width="2" points="1050.5,-607.43 1061.01,-606.08 1051.95,-600.58 1050.5,-607.43"/>
<text text-anchor="middle" x="966.26" y="-585.52" font-family="Times,serif" font-size="14.00" fill="#aaeb07">4</text>
<links><link target="task_db125894-b0b8-4984-b8b2-482ad21cf083"/></links></g>
<!-- task_6a983a26&#45;8421&#45;4b18&#45;be9c&#45;ed3d2243d038 -->
<g id="task_6a983a26-8421-4b18-be9c-ed3d2243d038" class="node">
<title>task_6a983a26-8421-4b18-be9c-ed3d2243d038</title>
<g id="a_task_6a983a26-8421-4b18-be9c-ed3d2243d038"><a xlink:title="[task] ../../roles/kubeinit_prepare : add all worker nodes to the all_worker_nodes group">
<polygon fill="none" stroke="black" points="1897.56,-554.26 1897.56,-569.18 1636.82,-579.72 1268.07,-579.72 1007.32,-569.18 1007.32,-554.26 1268.07,-543.72 1636.82,-543.72 1897.56,-554.26"/>
<text text-anchor="middle" x="1452.44" y="-558.02" font-family="Times,serif" font-size="14.00">[task] ../../roles/kubeinit_prepare : add all worker nodes to the all_worker_nodes group</text>
</a>
</g>
</g>
<!-- Play #1: Main deployment playbook for integrating submariner (0)&#45;&gt;task_6a983a26&#45;8421&#45;4b18&#45;be9c&#45;ed3d2243d038 -->
<g id="edge_36b3ed92-38c3-4bed-8884-e6416e2cf87b" class="edge">
<title>Play #1: Main deployment playbook for integrating submariner (0)-&gt;task_6a983a26-8421-4b18-be9c-ed3d2243d038</title>
<path fill="none" stroke="#aaeb07" stroke-width="2" d="M722.61,-417.81C775.53,-448.3 889.03,-509.1 993.76,-534.72 1018.53,-540.78 1044.27,-545.75 1070.34,-549.8"/>
<polygon fill="#aaeb07" stroke="#aaeb07" stroke-width="2" points="1069.93,-553.28 1080.34,-551.31 1070.98,-546.35 1069.93,-553.28"/>
<text text-anchor="middle" x="966.26" y="-531.52" font-family="Times,serif" font-size="14.00" fill="#aaeb07">5</text>
<links><link target="task_6a983a26-8421-4b18-be9c-ed3d2243d038"/></links></g>
<!-- task_fa789da0&#45;e2ad&#45;4e94&#45;b014&#45;a60708ee6267 -->
<g id="task_fa789da0-e2ad-4e94-b014-a60708ee6267" class="node">
<title>task_fa789da0-e2ad-4e94-b014-a60708ee6267</title>
<g id="a_task_fa789da0-e2ad-4e94-b014-a60708ee6267"><a xlink:title="[task] ../../roles/kubeinit_prepare : add all bootstrap nodes the all_bootstrap_nodes group">
<polygon fill="none" stroke="black" points="1911.3,-500.26 1911.3,-515.18 1642.51,-525.72 1262.38,-525.72 993.59,-515.18 993.59,-500.26 1262.38,-489.72 1642.51,-489.72 1911.3,-500.26"/>
<text text-anchor="middle" x="1452.44" y="-504.02" font-family="Times,serif" font-size="14.00">[task] ../../roles/kubeinit_prepare : add all bootstrap nodes the all_bootstrap_nodes group</text>
</a>
</g>
</g>
<!-- Play #1: Main deployment playbook for integrating submariner (0)&#45;&gt;task_fa789da0&#45;e2ad&#45;4e94&#45;b014&#45;a60708ee6267 -->
<g id="edge_cf96088d-9f4a-4b5f-ab07-34a09f0188e0" class="edge">
<title>Play #1: Main deployment playbook for integrating submariner (0)-&gt;task_fa789da0-e2ad-4e94-b014-a60708ee6267</title>
<path fill="none" stroke="#aaeb07" stroke-width="2" d="M746.01,-417.72C805.76,-436.9 905.49,-466.41 993.76,-480.72 1028.96,-486.42 1065.84,-490.96 1102.75,-494.56"/>
<polygon fill="#aaeb07" stroke="#aaeb07" stroke-width="2" points="1102.88,-498.09 1113.16,-495.55 1103.54,-491.12 1102.88,-498.09"/>
<text text-anchor="middle" x="966.26" y="-479.52" font-family="Times,serif" font-size="14.00" fill="#aaeb07">6</text>
<links><link target="task_fa789da0-e2ad-4e94-b014-a60708ee6267"/></links></g>
<!-- task_faccd060&#45;4c8c&#45;4eef&#45;82da&#45;536db9a66204 -->
<g id="task_faccd060-4c8c-4eef-82da-536db9a66204" class="node">
<title>task_faccd060-4c8c-4eef-82da-536db9a66204</title>
<g id="a_task_faccd060-4c8c-4eef-82da-536db9a66204"><a xlink:title="[task] ../../roles/kubeinit_prepare : add all service nodes to the all_service_nodes group">
<polygon fill="none" stroke="black" points="1899.38,-446.26 1899.38,-461.18 1637.57,-471.72 1267.32,-471.72 1005.51,-461.18 1005.51,-446.26 1267.32,-435.72 1637.57,-435.72 1899.38,-446.26"/>
<text text-anchor="middle" x="1452.44" y="-450.02" font-family="Times,serif" font-size="14.00">[task] ../../roles/kubeinit_prepare : add all service nodes to the all_service_nodes group</text>
</a>
</g>
</g>
<!-- Play #1: Main deployment playbook for integrating submariner (0)&#45;&gt;task_faccd060&#45;4c8c&#45;4eef&#45;82da&#45;536db9a66204 -->
<g id="edge_e98407c0-ffd0-4844-8178-14f3d6cfaec5" class="edge">
<title>Play #1: Main deployment playbook for integrating submariner (0)-&gt;task_faccd060-4c8c-4eef-82da-536db9a66204</title>
<path fill="none" stroke="#aaeb07" stroke-width="2" d="M883.59,-417.74C920.15,-420.93 958.13,-424.07 993.76,-426.72 1051.17,-430.98 1112.66,-434.99 1171.35,-438.55"/>
<polygon fill="#aaeb07" stroke="#aaeb07" stroke-width="2" points="1171.32,-442.05 1181.51,-439.16 1171.74,-435.07 1171.32,-442.05"/>
<text text-anchor="middle" x="966.26" y="-428.52" font-family="Times,serif" font-size="14.00" fill="#aaeb07">7</text>
<links><link target="task_faccd060-4c8c-4eef-82da-536db9a66204"/></links></g>
<!-- task_eaee7d33&#45;086d&#45;4de4&#45;9536&#45;6a1188c01041 -->
<g id="task_eaee7d33-086d-4de4-9536-6a1188c01041" class="node">
<title>task_eaee7d33-086d-4de4-9536-6a1188c01041</title>
<g id="a_task_eaee7d33-086d-4de4-9536-6a1188c01041"><a xlink:title="[task] ../../roles/kubeinit_prepare : add all hosts to the all_hosts group">
<polygon fill="none" stroke="black" points="1814.13,-392.26 1814.13,-407.18 1602.26,-417.72 1302.62,-417.72 1090.75,-407.18 1090.75,-392.26 1302.62,-381.72 1602.26,-381.72 1814.13,-392.26"/>
<text text-anchor="middle" x="1452.44" y="-396.02" font-family="Times,serif" font-size="14.00">[task] ../../roles/kubeinit_prepare : add all hosts to the all_hosts group</text>
</a>
</g>
</g>
<!-- Play #1: Main deployment playbook for integrating submariner (0)&#45;&gt;task_eaee7d33&#45;086d&#45;4de4&#45;9536&#45;6a1188c01041 -->
<g id="edge_c983df35-006e-42e4-b8dd-a8796765e4da" class="edge">
<title>Play #1: Main deployment playbook for integrating submariner (0)-&gt;task_eaee7d33-086d-4de4-9536-6a1188c01041</title>
<path fill="none" stroke="#aaeb07" stroke-width="2" d="M939.01,-399.72C984.27,-399.72 1032.42,-399.72 1080.39,-399.72"/>
<polygon fill="#aaeb07" stroke="#aaeb07" stroke-width="2" points="1080.62,-403.22 1090.62,-399.72 1080.62,-396.22 1080.62,-403.22"/>
<text text-anchor="middle" x="966.26" y="-403.52" font-family="Times,serif" font-size="14.00" fill="#aaeb07">8</text>
<links><link target="task_eaee7d33-086d-4de4-9536-6a1188c01041"/></links></g>
<!-- task_3c549259&#45;f7c4&#45;4533&#45;8082&#45;d917e9e3a819 -->
<g id="task_3c549259-f7c4-4533-8082-d917e9e3a819" class="node">
<title>task_3c549259-f7c4-4533-8082-d917e9e3a819</title>
<g id="a_task_3c549259-f7c4-4533-8082-d917e9e3a819"><a xlink:title="[task] ../../roles/kubeinit_prepare : list all_hosts">
<polygon fill="none" stroke="black" points="1700.61,-338.26 1700.61,-353.18 1555.24,-363.72 1349.65,-363.72 1204.28,-353.18 1204.28,-338.26 1349.65,-327.72 1555.24,-327.72 1700.61,-338.26"/>
<text text-anchor="middle" x="1452.44" y="-342.02" font-family="Times,serif" font-size="14.00">[task] ../../roles/kubeinit_prepare : list all_hosts</text>
</a>
</g>
</g>
<!-- Play #1: Main deployment playbook for integrating submariner (0)&#45;&gt;task_3c549259&#45;f7c4&#45;4533&#45;8082&#45;d917e9e3a819 -->
<g id="edge_cad80bc3-cabf-4075-8394-e5dfa281dca2" class="edge">
<title>Play #1: Main deployment playbook for integrating submariner (0)-&gt;task_3c549259-f7c4-4533-8082-d917e9e3a819</title>
<path fill="none" stroke="#aaeb07" stroke-width="2" d="M883.59,-381.71C920.15,-378.51 958.13,-375.37 993.76,-372.72 1073.43,-366.8 1160.98,-361.38 1237.99,-356.96"/>
<polygon fill="#aaeb07" stroke="#aaeb07" stroke-width="2" points="1238.51,-360.44 1248.3,-356.38 1238.11,-353.45 1238.51,-360.44"/>
<text text-anchor="middle" x="966.26" y="-378.52" font-family="Times,serif" font-size="14.00" fill="#aaeb07">9</text>
<links><link target="task_3c549259-f7c4-4533-8082-d917e9e3a819"/></links></g>
<!-- task_25bb7f9e&#45;9ea8&#45;4a9f&#45;8d58&#45;2e51bc25c87d -->
<g id="task_25bb7f9e-9ea8-4a9f-8d58-2e51bc25c87d" class="node">
<title>task_25bb7f9e-9ea8-4a9f-8d58-2e51bc25c87d</title>
<g id="a_task_25bb7f9e-9ea8-4a9f-8d58-2e51bc25c87d"><a xlink:title="[task] ../../roles/kubeinit_prepare : list all_nodes">
<polygon fill="none" stroke="black" points="1702.83,-284.26 1702.83,-299.18 1556.16,-309.72 1348.73,-309.72 1202.06,-299.18 1202.06,-284.26 1348.73,-273.72 1556.16,-273.72 1702.83,-284.26"/>
<text text-anchor="middle" x="1452.44" y="-288.02" font-family="Times,serif" font-size="14.00">[task] ../../roles/kubeinit_prepare : list all_nodes</text>
</a>
</g>
</g>
<!-- Play #1: Main deployment playbook for integrating submariner (0)&#45;&gt;task_25bb7f9e&#45;9ea8&#45;4a9f&#45;8d58&#45;2e51bc25c87d -->
<g id="edge_eb3bfac6-b95e-4e2b-85d0-36045cb58f23" class="edge">
<title>Play #1: Main deployment playbook for integrating submariner (0)-&gt;task_25bb7f9e-9ea8-4a9f-8d58-2e51bc25c87d</title>
<path fill="none" stroke="#aaeb07" stroke-width="2" d="M746.01,-381.72C805.76,-362.54 905.49,-333.03 993.76,-318.72 1057.44,-308.4 1126.66,-301.91 1191.54,-297.85"/>
<polygon fill="#aaeb07" stroke="#aaeb07" stroke-width="2" points="1192.15,-301.32 1201.92,-297.22 1191.72,-294.34 1192.15,-301.32"/>
<text text-anchor="middle" x="966.26" y="-327.52" font-family="Times,serif" font-size="14.00" fill="#aaeb07">10</text>
<links><link target="task_25bb7f9e-9ea8-4a9f-8d58-2e51bc25c87d"/></links></g>
<!-- task_0a667ca3&#45;8305&#45;40ec&#45;85b9&#45;9ceeeb3f7cc4 -->
<g id="task_0a667ca3-8305-40ec-85b9-9ceeeb3f7cc4" class="node">
<title>task_0a667ca3-8305-40ec-85b9-9ceeeb3f7cc4</title>
<g id="a_task_0a667ca3-8305-40ec-85b9-9ceeeb3f7cc4"><a xlink:title="[task] ../../roles/kubeinit_prepare : list all_master_nodes">
<polygon fill="none" stroke="black" points="1743.03,-230.26 1743.03,-245.18 1572.81,-255.72 1332.08,-255.72 1161.86,-245.18 1161.86,-230.26 1332.08,-219.72 1572.81,-219.72 1743.03,-230.26"/>
<text text-anchor="middle" x="1452.44" y="-234.02" font-family="Times,serif" font-size="14.00">[task] ../../roles/kubeinit_prepare : list all_master_nodes</text>
</a>
</g>
</g>
<!-- Play #1: Main deployment playbook for integrating submariner (0)&#45;&gt;task_0a667ca3&#45;8305&#45;40ec&#45;85b9&#45;9ceeeb3f7cc4 -->
<g id="edge_2c801bb8-98e4-4fb9-afba-64521a35200a" class="edge">
<title>Play #1: Main deployment playbook for integrating submariner (0)-&gt;task_0a667ca3-8305-40ec-85b9-9ceeeb3f7cc4</title>
<path fill="none" stroke="#aaeb07" stroke-width="2" d="M722.61,-381.63C775.53,-351.14 889.03,-290.35 993.76,-264.72 1044.15,-252.39 1098.55,-244.59 1151.65,-239.81"/>
<polygon fill="#aaeb07" stroke="#aaeb07" stroke-width="2" points="1152.24,-243.27 1161.9,-238.92 1151.63,-236.3 1152.24,-243.27"/>
<text text-anchor="middle" x="966.26" y="-277.52" font-family="Times,serif" font-size="14.00" fill="#aaeb07">11</text>
<links><link target="task_0a667ca3-8305-40ec-85b9-9ceeeb3f7cc4"/></links></g>
<!-- task_1fb27729&#45;8ff3&#45;4961&#45;83e2&#45;90e2f458499a -->
<g id="task_1fb27729-8ff3-4961-83e2-90e2f458499a" class="node">
<title>task_1fb27729-8ff3-4961-83e2-90e2f458499a</title>
<g id="a_task_1fb27729-8ff3-4961-83e2-90e2f458499a"><a xlink:title="[task] ../../roles/kubeinit_prepare : list all_worker_nodes">
<polygon fill="none" stroke="black" points="1743.03,-176.26 1743.03,-191.18 1572.81,-201.72 1332.08,-201.72 1161.86,-191.18 1161.86,-176.26 1332.08,-165.72 1572.81,-165.72 1743.03,-176.26"/>
<text text-anchor="middle" x="1452.44" y="-180.02" font-family="Times,serif" font-size="14.00">[task] ../../roles/kubeinit_prepare : list all_worker_nodes</text>
</a>
</g>
</g>
<!-- Play #1: Main deployment playbook for integrating submariner (0)&#45;&gt;task_1fb27729&#45;8ff3&#45;4961&#45;83e2&#45;90e2f458499a -->
<g id="edge_a02854c2-7339-4cc5-a74d-f697fc2dbebc" class="edge">
<title>Play #1: Main deployment playbook for integrating submariner (0)-&gt;task_1fb27729-8ff3-4961-83e2-90e2f458499a</title>
<path fill="none" stroke="#aaeb07" stroke-width="2" d="M712.69,-381.65C758.84,-342.07 876.37,-248.25 993.76,-210.72 1043.73,-194.75 1098.29,-185.21 1151.78,-179.85"/>
<polygon fill="#aaeb07" stroke="#aaeb07" stroke-width="2" points="1152.14,-183.33 1161.76,-178.9 1151.47,-176.36 1152.14,-183.33"/>
<text text-anchor="middle" x="966.26" y="-227.52" font-family="Times,serif" font-size="14.00" fill="#aaeb07">12</text>
<links><link target="task_1fb27729-8ff3-4961-83e2-90e2f458499a"/></links></g>
<!-- task_b5c2a44e&#45;ffd1&#45;4af6&#45;9a62&#45;c4f35b2da772 -->
<g id="task_b5c2a44e-ffd1-4af6-9a62-c4f35b2da772" class="node">
<title>task_b5c2a44e-ffd1-4af6-9a62-c4f35b2da772</title>
<g id="a_task_b5c2a44e-ffd1-4af6-9a62-c4f35b2da772"><a xlink:title="[task] ../../roles/kubeinit_prepare : list all_service_nodes">
<polygon fill="none" stroke="black" points="1743.93,-122.26 1743.93,-137.18 1573.18,-147.72 1331.7,-147.72 1160.95,-137.18 1160.95,-122.26 1331.7,-111.72 1573.18,-111.72 1743.93,-122.26"/>
<text text-anchor="middle" x="1452.44" y="-126.02" font-family="Times,serif" font-size="14.00">[task] ../../roles/kubeinit_prepare : list all_service_nodes</text>
</a>
</g>
</g>
<!-- Play #1: Main deployment playbook for integrating submariner (0)&#45;&gt;task_b5c2a44e&#45;ffd1&#45;4af6&#45;9a62&#45;c4f35b2da772 -->
<g id="edge_23a612fc-45af-47d7-9f11-4a2ef4f88654" class="edge">
<title>Play #1: Main deployment playbook for integrating submariner (0)-&gt;task_b5c2a44e-ffd1-4af6-9a62-c4f35b2da772</title>
<path fill="none" stroke="#aaeb07" stroke-width="2" d="M707.2,-381.59C747.51,-334.18 864.27,-206.75 993.76,-156.72 1078.49,-123.99 1178.61,-115.07 1263.58,-115.25"/>
<polygon fill="#aaeb07" stroke="#aaeb07" stroke-width="2" points="1263.57,-118.75 1273.6,-115.31 1263.62,-111.75 1263.57,-118.75"/>
<text text-anchor="middle" x="966.26" y="-172.52" font-family="Times,serif" font-size="14.00" fill="#aaeb07">13</text>
<links><link target="task_b5c2a44e-ffd1-4af6-9a62-c4f35b2da772"/></links></g>
<!-- task_70e0d0ca&#45;ba3c&#45;44bc&#45;bbbe&#45;99891c1d1134 -->
<g id="task_70e0d0ca-ba3c-44bc-bbbe-99891c1d1134" class="node">
<title>task_70e0d0ca-ba3c-44bc-bbbe-99891c1d1134</title>
<g id="a_task_70e0d0ca-ba3c-44bc-bbbe-99891c1d1134"><a xlink:title="[task] ../../roles/kubeinit_prepare : list all_bootstrap_nodes">
<polygon fill="none" stroke="black" points="1756.26,-68.26 1756.26,-83.18 1578.29,-93.72 1326.6,-93.72 1148.62,-83.18 1148.62,-68.26 1326.6,-57.72 1578.29,-57.72 1756.26,-68.26"/>
<text text-anchor="middle" x="1452.44" y="-72.02" font-family="Times,serif" font-size="14.00">[task] ../../roles/kubeinit_prepare : list all_bootstrap_nodes</text>
</a>
</g>
</g>
<!-- Play #1: Main deployment playbook for integrating submariner (0)&#45;&gt;task_70e0d0ca&#45;ba3c&#45;44bc&#45;bbbe&#45;99891c1d1134 -->
<g id="edge_05f15b58-4100-456c-946d-32857f6670fa" class="edge">
<title>Play #1: Main deployment playbook for integrating submariner (0)-&gt;task_70e0d0ca-ba3c-44bc-bbbe-99891c1d1134</title>
<path fill="none" stroke="#aaeb07" stroke-width="2" d="M703.56,-381.64C738.61,-327.39 851.77,-165.86 993.76,-102.72 1088.4,-60.64 1205.08,-54.36 1296.94,-58.36"/>
<polygon fill="#aaeb07" stroke="#aaeb07" stroke-width="2" points="1297,-61.87 1307.16,-58.85 1297.34,-54.88 1297,-61.87"/>
<text text-anchor="middle" x="966.26" y="-121.52" font-family="Times,serif" font-size="14.00" fill="#aaeb07">14</text>
<links><link target="task_70e0d0ca-ba3c-44bc-bbbe-99891c1d1134"/></links></g>
<!-- task_58d03da6&#45;2b7f&#45;4335&#45;bf10&#45;a451a304953a -->
<g id="task_58d03da6-2b7f-4335-bf10-a451a304953a" class="node">
<title>task_58d03da6-2b7f-4335-bf10-a451a304953a</title>
<g id="a_task_58d03da6-2b7f-4335-bf10-a451a304953a"><a xlink:title="[task] ../../roles/kubeinit_submariner : Execute subctl verify">
<polygon fill="none" stroke="black" points="1762.92,-14.26 1762.92,-29.18 1581.05,-39.72 1323.84,-39.72 1141.96,-29.18 1141.96,-14.26 1323.84,-3.72 1581.05,-3.72 1762.92,-14.26"/>
<text text-anchor="middle" x="1452.44" y="-18.02" font-family="Times,serif" font-size="14.00">[task] ../../roles/kubeinit_submariner : Execute subctl verify</text>
</a>
</g>
</g>
<!-- Play #1: Main deployment playbook for integrating submariner (0)&#45;&gt;task_58d03da6&#45;2b7f&#45;4335&#45;bf10&#45;a451a304953a -->
<g id="edge_6d734066-4dc8-4fe0-b780-dbd7622eded1" class="edge">
<title>Play #1: Main deployment playbook for integrating submariner (0)-&gt;task_58d03da6-2b7f-4335-bf10-a451a304953a</title>
<path fill="none" stroke="#aaeb07" stroke-width="2" d="M701.08,-381.5C731.53,-320.86 839.01,-125.4 993.76,-48.72 1093.82,0.85 1221.65,4.2 1316.77,-2.9"/>
<polygon fill="#aaeb07" stroke="#aaeb07" stroke-width="2" points="1316.5,-6.39 1326.75,-3.69 1317.06,0.59 1316.5,-6.39"/>
<text text-anchor="middle" x="966.26" y="-70.52" font-family="Times,serif" font-size="14.00" fill="#aaeb07">15</text>
<links><link target="task_58d03da6-2b7f-4335-bf10-a451a304953a"/></links></g>
</g>
</svg>