<?xml version='1.0' encoding='UTF-8'?>
<!DOCTYPE svg PUBLIC "-//W3C//DTD SVG 1.1//EN" "http://www.w3.org/Graphics/SVG/1.1/DTD/svg11.dtd">
<!-- Generated by graphviz version 2.40.1 (20161225.0304)
 --><!-- Title: ./playbooks/submariner.yml  Pages: 1 --><svg xmlns="http://www.w3.org/2000/svg" xmlns:xlink="http://www.w3.org/1999/xlink" width="2251pt" height="1115pt" viewBox="0.00 0.00 2251.50 1115.39" id="svg">
<script type="text/javascript" href="https://ajax.googleapis.com/ajax/libs/jquery/3.2.1/jquery.min.js" id="jquery"/><script type="text/javascript" id="my_javascript"><![CDATA[const HOVER_CLASS = "my_hover";

var selectedElement = null;

function addClass(rootElement) {
    $(rootElement).find('link').each(function (index, element) {
        var target = $(element).attr('target');
        var currentElement = $('#' + target);
        currentElement.addClass(HOVER_CLASS);

        addClass(currentElement);
    })
}

function removeClass(rootElement, hover) {
    $(rootElement).find('link').each(function (index, element) {
        if ($(rootElement).attr('id') !== $(selectedElement).attr('id') || !hover) {
            var target = $(element).attr('target');
            var currentElement = $('#' + target);
            currentElement.removeClass(HOVER_CLASS);

            removeClass(currentElement);
        }

    })
}

function hoverIn(event) {
    addClass(event.currentTarget);
}

function hoverOut(event) {
    removeClass(event.currentTarget, true);
}

function clickOnElement(event) {
    var newElement = event.currentTarget;

    if ($(newElement).attr('id') === $(selectedElement).attr('id')) {
        removeClass(selectedElement, false);
    } else {
        removeClass(selectedElement);
        addClass(newElement)
    }

    selectedElement = newElement;
}


$("#svg").ready(function () {

    $("g[id^=play_]").hover(hoverIn, hoverOut);
    $("g[id^=role_]").hover(hoverIn, hoverOut);

    $("g[id^=play_]").click(clickOnElement);
    $("g[id^=role_]").click(clickOnElement);

});
]]></script><style type="text/css" id="my_css"><![CDATA[.node:hover, .edge:hover, path:hover, path + polygon:hover {
    cursor: pointer;
    stroke-width: 3;
    font-weight: bolder;
}

.my_hover {
    cursor: pointer;
    stroke-width: 3;
    font-weight: bolder;
}
]]></style><g id="graph0" class="graph" transform="scale(1 1) rotate(0) translate(4 1111.3874)">
<title>./playbooks/submariner.yml </title>
<polygon fill="#ffffff" stroke="transparent" points="-4,4 -4,-1111.3874 2247.4971,-1111.3874 2247.4971,4 -4,4"/>
<!-- ./playbooks/submariner.yml -->
<g id="root_node" class="node">
<title>./playbooks/submariner.yml</title>
<ellipse fill="none" stroke="#000000" stroke-dasharray="1,5" cx="110.4902" cy="-563.3874" rx="110.4804" ry="18"/>
<text text-anchor="middle" x="110.4902" y="-559.6874" font-family="Times,serif" font-size="14.00" fill="#000000">./playbooks/submariner.yml</text>
</g>
<!-- Play #1: Main deployment playbook for integrating submariner (0) -->
<g id="play_77efa02e-c55f-4802-9f8a-714fd2b993f0" class="node">
<title>Play #1: Main deployment playbook for integrating submariner (0)</title>
<polygon fill="#f8f121" stroke="#f8f121" points="646.9804,-581.3874 263.9804,-581.3874 263.9804,-545.3874 646.9804,-545.3874 646.9804,-581.3874"/>
<text text-anchor="middle" x="455.4804" y="-559.6874" font-family="Times,serif" font-size="14.00" fill="#ffffff">Play #1: Main deployment playbook for integrating submariner (0)</text>
<links><link target="edge_8ee3bf32-7ef9-4b26-a29b-83199e817ef3"/><link target="edge_708e1fc0-064b-4a3b-afa9-b1e076b91b63"/><link target="edge_88c2df3d-7258-4fef-8746-5d991e1ae8e6"/><link target="edge_a0a2a63e-54c6-42ed-a077-bb6ce099e3b4"/><link target="edge_b9e70a16-9092-484b-9445-189dd29ed742"/><link target="edge_3ed18d48-2087-439d-89c8-5d261c66976e"/><link target="edge_0d588996-a35c-432d-844f-0d077f568875"/><link target="edge_4c7bd1df-6871-4ffa-81c2-ea5af406b057"/><link target="edge_44256b57-fe33-486d-b164-8c978f0f654b"/><link target="edge_0401eeb6-3b71-4fa6-a71a-f89a294c35b6"/><link target="edge_13adc072-2517-481f-8679-1c3778be30e1"/><link target="edge_1b67d66e-7379-47e7-8d24-814c4b44e40d"/><link target="edge_a5293461-ea58-40d5-87f0-38506d5cc1b6"/><link target="edge_82d19bdb-d7c5-4841-9243-c981127258d8"/><link target="edge_5fa7b806-ff61-4edb-8b4a-9735dbdf9fce"/><link target="edge_663dac42-58a9-47f8-9233-22f54e0e9fd4"/><link target="edge_77e4f1f0-fdc6-4dec-8c62-63ba20f9170e"/><link target="edge_6640d917-ba69-422e-95ae-1eaa25e27a81"/><link target="edge_b8260118-985a-43ef-b986-7fd41803c5cd"/><link target="edge_bafeca0b-eec1-49b7-8ee8-2fff94fbefa6"/></links></g>
<!-- ./playbooks/submariner.yml&#45;&gt;Play #1: Main deployment playbook for integrating submariner (0) -->
<g id="edge_e71295cb-dd78-4085-8637-45685d96ce17" class="edge">
<title>./playbooks/submariner.yml-&gt;Play #1: Main deployment playbook for integrating submariner (0)</title>
<path fill="none" stroke="#f8f121" stroke-width="2" d="M221.0708,-563.3874C231.6334,-563.3874 242.5531,-563.3874 253.6394,-563.3874"/>
<polygon fill="#f8f121" stroke="#f8f121" stroke-width="2" points="253.8622,-566.8875 263.8622,-563.3874 253.8621,-559.8875 253.8622,-566.8875"/>
<text text-anchor="middle" x="242.4804" y="-567.1874" font-family="Times,serif" font-size="14.00" fill="#f8f121">1</text>
</g>
<!-- pre_task_a31e25ad&#45;3965&#45;4703&#45;b280&#45;ccaa5015139e -->
<g id="pre_task_a31e25ad-3965-4703-b280-ccaa5015139e" class="node">
<title>pre_task_a31e25ad-3965-4703-b280-ccaa5015139e</title>
<polygon fill="none" stroke="#000000" points="2037.916,-1068.9315 2037.916,-1083.8432 1903.6671,-1094.3874 1713.8104,-1094.3874 1579.5615,-1083.8432 1579.5615,-1068.9315 1713.8104,-1058.3874 1903.6671,-1058.3874 2037.916,-1068.9315"/>
<text text-anchor="middle" x="1808.7388" y="-1072.6874" font-family="Times,serif" font-size="14.00" fill="#000000">[pre_task] Check if Ansible meets version requirements.</text>
</g>
<!-- Play #1: Main deployment playbook for integrating submariner (0)&#45;&gt;pre_task_a31e25ad&#45;3965&#45;4703&#45;b280&#45;ccaa5015139e -->
<g id="edge_8ee3bf32-7ef9-4b26-a29b-83199e817ef3" class="edge">
<title>Play #1: Main deployment playbook for integrating submariner (0)-&gt;pre_task_a31e25ad-3965-4703-b280-ccaa5015139e</title>
<path fill="none" stroke="#f8f121" stroke-width="2" d="M456.5966,-581.482C462.2703,-655.8716 494.7885,-939.6024 664.9804,-1054.3874 738.6872,-1104.0985 1268.8267,-1095.0327 1580.8497,-1085.0922"/>
<polygon fill="#f8f121" stroke="#f8f121" stroke-width="2" points="1581.0539,-1088.5876 1590.9363,-1084.7682 1580.829,-1081.5912 1581.0539,-1088.5876"/>
<text text-anchor="middle" x="1010.4804" y="-1096.1874" font-family="Times,serif" font-size="14.00" fill="#f8f121">1</text>
<links><link target="pre_task_a31e25ad-3965-4703-b280-ccaa5015139e"/></links></g>
<!-- task_496ddd88&#45;f852&#45;468a&#45;9293&#45;71aefe7526c1 -->
<g id="task_496ddd88-f852-468a-9293-71aefe7526c1" class="node">
<title>task_496ddd88-f852-468a-9293-71aefe7526c1</title>
<polygon fill="none" stroke="#000000" points="1867.9257,-1014.9315 1867.9257,-1029.8432 1833.2548,-1040.3874 1784.2228,-1040.3874 1749.5519,-1029.8432 1749.5519,-1014.9315 1784.2228,-1004.3874 1833.2548,-1004.3874 1867.9257,-1014.9315"/>
<text text-anchor="middle" x="1808.7388" y="-1018.6874" font-family="Times,serif" font-size="14.00" fill="#000000">[task] debug</text>
</g>
<!-- Play #1: Main deployment playbook for integrating submariner (0)&#45;&gt;task_496ddd88&#45;f852&#45;468a&#45;9293&#45;71aefe7526c1 -->
<g id="edge_708e1fc0-064b-4a3b-afa9-b1e076b91b63" class="edge">
<title>Play #1: Main deployment playbook for integrating submariner (0)-&gt;task_496ddd88-f852-468a-9293-71aefe7526c1</title>
<path fill="none" stroke="#f8f121" stroke-width="2" d="M457.6682,-581.799C467.0305,-651.3419 510.577,-899.0981 664.9804,-998.3874 755.0513,-1056.3076 1505.1233,-1033.6709 1739.2259,-1025.1007"/>
<polygon fill="#f8f121" stroke="#f8f121" stroke-width="2" points="1739.4565,-1028.5947 1749.3206,-1024.7282 1739.1983,-1021.5995 1739.4565,-1028.5947"/>
<text text-anchor="middle" x="1010.4804" y="-1040.1874" font-family="Times,serif" font-size="14.00" fill="#f8f121">2</text>
<links><link target="task_496ddd88-f852-468a-9293-71aefe7526c1"/></links></g>
<!-- task_597f20e8&#45;c5e3&#45;4b35&#45;ac54&#45;9b1b96f455ee -->
<g id="task_597f20e8-c5e3-4b35-ac54-9b1b96f455ee" class="node">
<title>task_597f20e8-c5e3-4b35-ac54-9b1b96f455ee</title>
<polygon fill="none" stroke="#000000" points="2132.859,-960.9315 2132.859,-975.8432 1942.9937,-986.3874 1674.4838,-986.3874 1484.6186,-975.8432 1484.6186,-960.9315 1674.4838,-950.3874 1942.9937,-950.3874 2132.859,-960.9315"/>
<text text-anchor="middle" x="1808.7388" y="-964.6874" font-family="Times,serif" font-size="14.00" fill="#000000">[task] ../../roles/kubeinit_submariner : Gather variables for each operating system</text>
</g>
<!-- Play #1: Main deployment playbook for integrating submariner (0)&#45;&gt;task_597f20e8&#45;c5e3&#45;4b35&#45;ac54&#45;9b1b96f455ee -->
<g id="edge_88c2df3d-7258-4fef-8746-5d991e1ae8e6" class="edge">
<title>Play #1: Main deployment playbook for integrating submariner (0)-&gt;task_597f20e8-c5e3-4b35-ac54-9b1b96f455ee</title>
<path fill="none" stroke="#f8f121" stroke-width="2" d="M458.9587,-581.6524C472.1717,-645.3124 525.7311,-858.1053 664.9804,-942.3874 734.3195,-984.3555 1180.2237,-983.3754 1494.3022,-977.1534"/>
<polygon fill="#f8f121" stroke="#f8f121" stroke-width="2" points="1494.5588,-980.649 1504.4865,-976.9489 1494.4182,-973.6504 1494.5588,-980.649"/>
<text text-anchor="middle" x="1010.4804" y="-983.1874" font-family="Times,serif" font-size="14.00" fill="#f8f121">3</text>
<links><link target="task_597f20e8-c5e3-4b35-ac54-9b1b96f455ee"/></links></g>
<!-- task_c696d162&#45;83dd&#45;4377&#45;9d66&#45;cce28df1b4ac -->
<g id="task_c696d162-83dd-4377-9d66-cce28df1b4ac" class="node">
<title>task_c696d162-83dd-4377-9d66-cce28df1b4ac</title>
<polygon fill="none" stroke="#000000" points="2017.6133,-906.9315 2017.6133,-921.8432 1895.2574,-932.3874 1722.2201,-932.3874 1599.8642,-921.8432 1599.8642,-906.9315 1722.2201,-896.3874 1895.2574,-896.3874 2017.6133,-906.9315"/>
<text text-anchor="middle" x="1808.7388" y="-910.6874" font-family="Times,serif" font-size="14.00" fill="#000000">[task] ../../roles/kubeinit_submariner : Install subctl</text>
</g>
<!-- Play #1: Main deployment playbook for integrating submariner (0)&#45;&gt;task_c696d162&#45;83dd&#45;4377&#45;9d66&#45;cce28df1b4ac -->
<g id="edge_a0a2a63e-54c6-42ed-a077-bb6ce099e3b4" class="edge">
<title>Play #1: Main deployment playbook for integrating submariner (0)-&gt;task_c696d162-83dd-4377-9d66-cce28df1b4ac</title>
<path fill="none" stroke="#f8f121" stroke-width="2" d="M460.71,-581.783C478.2069,-639.437 540.7261,-816.8947 664.9804,-886.3874 743.2253,-930.148 1279.9602,-926.1117 1589.5856,-919.9298"/>
<polygon fill="#f8f121" stroke="#f8f121" stroke-width="2" points="1589.6636,-923.4291 1599.5909,-919.7278 1589.5222,-916.4305 1589.6636,-923.4291"/>
<text text-anchor="middle" x="1010.4804" y="-927.1874" font-family="Times,serif" font-size="14.00" fill="#f8f121">4  [when: kubeinit_submariner_is_broker|bool or kubeinit_submariner_is_secondary|bool]</text>
<links><link target="task_c696d162-83dd-4377-9d66-cce28df1b4ac"/></links></g>
<!-- task_fc34eb36&#45;184e&#45;4660&#45;96f3&#45;2947f4f75c85 -->
<g id="task_fc34eb36-184e-4660-96f3-2947f4f75c85" class="node">
<title>task_fc34eb36-184e-4660-96f3-2947f4f75c85</title>
<polygon fill="none" stroke="#000000" points="2063.9744,-852.9315 2063.9744,-867.8432 1914.4608,-878.3874 1703.0167,-878.3874 1553.5031,-867.8432 1553.5031,-852.9315 1703.0167,-842.3874 1914.4608,-842.3874 2063.9744,-852.9315"/>
<text text-anchor="middle" x="1808.7388" y="-856.6874" font-family="Times,serif" font-size="14.00" fill="#000000">[task] ../../roles/kubeinit_submariner : Check if ~/.profile exists</text>
</g>
<!-- Play #1: Main deployment playbook for integrating submariner (0)&#45;&gt;task_fc34eb36&#45;184e&#45;4660&#45;96f3&#45;2947f4f75c85 -->
<g id="edge_b9e70a16-9092-484b-9445-189dd29ed742" class="edge">
<title>Play #1: Main deployment playbook for integrating submariner (0)-&gt;task_fc34eb36-184e-4660-96f3-2947f4f75c85</title>
<path fill="none" stroke="#f8f121" stroke-width="2" d="M462.8772,-581.7C484.6935,-632.918 554.2708,-777.5324 664.9804,-833.3874 741.1,-871.791 1229.6131,-870.8258 1543.0977,-866.0256"/>
<polygon fill="#f8f121" stroke="#f8f121" stroke-width="2" points="1543.3029,-869.5229 1553.2473,-865.8679 1543.1941,-862.5238 1543.3029,-869.5229"/>
<text text-anchor="middle" x="1010.4804" y="-871.1874" font-family="Times,serif" font-size="14.00" fill="#f8f121">5  [when: kubeinit_submariner_is_broker|bool or kubeinit_submariner_is_secondary|bool]</text>
<links><link target="task_fc34eb36-184e-4660-96f3-2947f4f75c85"/></links></g>
<!-- task_82af0d10&#45;b1b6&#45;46fb&#45;8a24&#45;97802c2a5e22 -->
<g id="task_82af0d10-b1b6-46fb-8a24-97802c2a5e22" class="node">
<title>task_82af0d10-b1b6-46fb-8a24-97802c2a5e22</title>
<polygon fill="none" stroke="#000000" points="2080.7422,-798.9315 2080.7422,-813.8432 1921.4063,-824.3874 1696.0713,-824.3874 1536.7353,-813.8432 1536.7353,-798.9315 1696.0713,-788.3874 1921.4063,-788.3874 2080.7422,-798.9315"/>
<text text-anchor="middle" x="1808.7388" y="-802.6874" font-family="Times,serif" font-size="14.00" fill="#000000">[task] ../../roles/kubeinit_submariner : Append subctl path to profile</text>
</g>
<!-- Play #1: Main deployment playbook for integrating submariner (0)&#45;&gt;task_82af0d10&#45;b1b6&#45;46fb&#45;8a24&#45;97802c2a5e22 -->
<g id="edge_3ed18d48-2087-439d-89c8-5d261c66976e" class="edge">
<title>Play #1: Main deployment playbook for integrating submariner (0)-&gt;task_82af0d10-b1b6-46fb-8a24-97802c2a5e22</title>
<path fill="none" stroke="#f8f121" stroke-width="2" d="M465.6877,-581.6476C491.8626,-626.358 566.3141,-740.8373 664.9804,-784.3874 741.5393,-818.1795 1213.0643,-817.0118 1526.296,-812.2702"/>
<polygon fill="#f8f121" stroke="#f8f121" stroke-width="2" points="1526.4982,-815.7676 1536.4432,-812.1145 1526.3907,-808.7685 1526.4982,-815.7676"/>
<text text-anchor="middle" x="1010.4804" y="-818.1874" font-family="Times,serif" font-size="14.00" fill="#f8f121">6  [when: profile_exists.stat.exists and (kubeinit_submariner_is_broker|bool or kubeinit_submariner_is_secondary|bool)]</text>
<links><link target="task_82af0d10-b1b6-46fb-8a24-97802c2a5e22"/></links></g>
<!-- task_c34ef640&#45;ce8a&#45;41ba&#45;9969&#45;4cf0eee293cc -->
<g id="task_c34ef640-ce8a-41ba-9969-4cf0eee293cc" class="node">
<title>task_c34ef640-ce8a-41ba-9969-4cf0eee293cc</title>
<polygon fill="none" stroke="#000000" points="2086.4979,-744.9315 2086.4979,-759.8432 1923.7904,-770.3874 1693.6872,-770.3874 1530.9796,-759.8432 1530.9796,-744.9315 1693.6872,-734.3874 1923.7904,-734.3874 2086.4979,-744.9315"/>
<text text-anchor="middle" x="1808.7388" y="-748.6874" font-family="Times,serif" font-size="14.00" fill="#000000">[task] ../../roles/kubeinit_submariner : Check if ~/.bash_profile exists</text>
</g>
<!-- Play #1: Main deployment playbook for integrating submariner (0)&#45;&gt;task_c34ef640&#45;ce8a&#45;41ba&#45;9969&#45;4cf0eee293cc -->
<g id="edge_0d588996-a35c-432d-844f-0d077f568875" class="edge">
<title>Play #1: Main deployment playbook for integrating submariner (0)-&gt;task_c34ef640-ce8a-41ba-9969-4cf0eee293cc</title>
<path fill="none" stroke="#f8f121" stroke-width="2" d="M472.0518,-581.4701C504.8937,-615.8448 582.2525,-689.7412 664.9804,-718.3874 823.1954,-773.1724 1268.9432,-770.5518 1554.9752,-762.3707"/>
<polygon fill="#f8f121" stroke="#f8f121" stroke-width="2" points="1555.1879,-765.8661 1565.0821,-762.0775 1554.9848,-758.8691 1555.1879,-765.8661"/>
<text text-anchor="middle" x="1010.4804" y="-770.1874" font-family="Times,serif" font-size="14.00" fill="#f8f121">7  [when: kubeinit_submariner_is_broker|bool or kubeinit_submariner_is_secondary|bool]</text>
<links><link target="task_c34ef640-ce8a-41ba-9969-4cf0eee293cc"/></links></g>
<!-- task_7648769e&#45;4dd3&#45;4a4d&#45;b1ff&#45;661357a49f98 -->
<g id="task_7648769e-4dd3-4a4d-b1ff-661357a49f98" class="node">
<title>task_7648769e-4dd3-4a4d-b1ff-661357a49f98</title>
<polygon fill="none" stroke="#000000" points="2103.2657,-690.9315 2103.2657,-705.8432 1930.7358,-716.3874 1686.7417,-716.3874 1514.2119,-705.8432 1514.2119,-690.9315 1686.7417,-680.3874 1930.7358,-680.3874 2103.2657,-690.9315"/>
<text text-anchor="middle" x="1808.7388" y="-694.6874" font-family="Times,serif" font-size="14.00" fill="#000000">[task] ../../roles/kubeinit_submariner : Append subctl path to bash_profile</text>
</g>
<!-- Play #1: Main deployment playbook for integrating submariner (0)&#45;&gt;task_7648769e&#45;4dd3&#45;4a4d&#45;b1ff&#45;661357a49f98 -->
<g id="edge_4c7bd1df-6871-4ffa-81c2-ea5af406b057" class="edge">
<title>Play #1: Main deployment playbook for integrating submariner (0)-&gt;task_7648769e-4dd3-4a4d-b1ff-661357a49f98</title>
<path fill="none" stroke="#f8f121" stroke-width="2" d="M485.3706,-581.5009C524.8559,-604.3361 597.3266,-642.5222 664.9804,-658.3874 818.2795,-694.3368 1220.1749,-701.1045 1504.0813,-701.0448"/>
<polygon fill="#f8f121" stroke="#f8f121" stroke-width="2" points="1504.1322,-704.5448 1514.1304,-701.0398 1504.1286,-697.5448 1504.1322,-704.5448"/>
<text text-anchor="middle" x="1010.4804" y="-703.1874" font-family="Times,serif" font-size="14.00" fill="#f8f121">8  [when: bash_profile_exists.stat.exists and (kubeinit_submariner_is_broker|bool or kubeinit_submariner_is_secondary|bool)]</text>
<links><link target="task_7648769e-4dd3-4a4d-b1ff-661357a49f98"/></links></g>
<!-- task_296ee3f3&#45;3d9a&#45;410a&#45;899a&#45;b0b1cbddf97c -->
<g id="task_296ee3f3-3d9a-410a-899a-b0b1cbddf97c" class="node">
<title>task_296ee3f3-3d9a-410a-899a-b0b1cbddf97c</title>
<polygon fill="none" stroke="#000000" points="2063.5674,-636.9315 2063.5674,-651.8432 1914.2923,-662.3874 1703.1853,-662.3874 1553.9101,-651.8432 1553.9101,-636.9315 1703.1853,-626.3874 1914.2923,-626.3874 2063.5674,-636.9315"/>
<text text-anchor="middle" x="1808.7388" y="-640.6874" font-family="Times,serif" font-size="14.00" fill="#000000">[task] ../../roles/kubeinit_submariner : Check if ~/.bashrc exists</text>
</g>
<!-- Play #1: Main deployment playbook for integrating submariner (0)&#45;&gt;task_296ee3f3&#45;3d9a&#45;410a&#45;899a&#45;b0b1cbddf97c -->
<g id="edge_44256b57-fe33-486d-b164-8c978f0f654b" class="edge">
<title>Play #1: Main deployment playbook for integrating submariner (0)-&gt;task_296ee3f3-3d9a-410a-899a-b0b1cbddf97c</title>
<path fill="none" stroke="#f8f121" stroke-width="2" d="M544.8364,-581.3932C581.8619,-588.1616 625.3419,-595.22 664.9804,-599.3874 964.9994,-630.9297 1311.3907,-640.8871 1543.6592,-643.7674"/>
<polygon fill="#f8f121" stroke="#f8f121" stroke-width="2" points="1543.9005,-647.2705 1553.9419,-643.8913 1543.9848,-640.271 1543.9005,-647.2705"/>
<text text-anchor="middle" x="1010.4804" y="-643.1874" font-family="Times,serif" font-size="14.00" fill="#f8f121">9  [when: kubeinit_submariner_is_broker|bool or kubeinit_submariner_is_secondary|bool]</text>
<links><link target="task_296ee3f3-3d9a-410a-899a-b0b1cbddf97c"/></links></g>
<!-- task_79abbfb9&#45;94ce&#45;44d7&#45;b3e6&#45;4824bd287545 -->
<g id="task_79abbfb9-94ce-44d7-b3e6-4824bd287545" class="node">
<title>task_79abbfb9-94ce-44d7-b3e6-4824bd287545</title>
<polygon fill="none" stroke="#000000" points="2080.335,-582.9315 2080.335,-597.8432 1921.2376,-608.3874 1696.2399,-608.3874 1537.1425,-597.8432 1537.1425,-582.9315 1696.2399,-572.3874 1921.2376,-572.3874 2080.335,-582.9315"/>
<text text-anchor="middle" x="1808.7388" y="-586.6874" font-family="Times,serif" font-size="14.00" fill="#000000">[task] ../../roles/kubeinit_submariner : Append subctl path to bashrc</text>
</g>
<!-- Play #1: Main deployment playbook for integrating submariner (0)&#45;&gt;task_79abbfb9&#45;94ce&#45;44d7&#45;b3e6&#45;4824bd287545 -->
<g id="edge_0401eeb6-3b71-4fa6-a71a-f89a294c35b6" class="edge">
<title>Play #1: Main deployment playbook for integrating submariner (0)-&gt;task_79abbfb9-94ce-44d7-b3e6-4824bd287545</title>
<path fill="none" stroke="#f8f121" stroke-width="2" d="M647.2151,-567.2128C876.8577,-571.7946 1263.4901,-579.5086 1527.0765,-584.7677"/>
<polygon fill="#f8f121" stroke="#f8f121" stroke-width="2" points="1527.1151,-588.269 1537.1829,-584.9693 1527.2548,-581.2704 1527.1151,-588.269"/>
<text text-anchor="middle" x="1010.4804" y="-584.1874" font-family="Times,serif" font-size="14.00" fill="#f8f121">10  [when: bashrc_exists.stat.exists and (kubeinit_submariner_is_broker|bool or kubeinit_submariner_is_secondary|bool)]</text>
<links><link target="task_79abbfb9-94ce-44d7-b3e6-4824bd287545"/></links></g>
<!-- task_c8c2a9e8&#45;894e&#45;4507&#45;bf0a&#45;d8f45f2c50de -->
<g id="task_c8c2a9e8-894e-4507-bf0a-d8f45f2c50de" class="node">
<title>task_c8c2a9e8-894e-4507-bf0a-d8f45f2c50de</title>
<polygon fill="none" stroke="#000000" points="2105.4865,-528.9315 2105.4865,-543.8432 1931.6557,-554.3874 1685.8218,-554.3874 1511.991,-543.8432 1511.991,-528.9315 1685.8218,-518.3874 1931.6557,-518.3874 2105.4865,-528.9315"/>
<text text-anchor="middle" x="1808.7388" y="-532.6874" font-family="Times,serif" font-size="14.00" fill="#000000">[task] ../../roles/kubeinit_submariner : Render the iptables persist template</text>
</g>
<!-- Play #1: Main deployment playbook for integrating submariner (0)&#45;&gt;task_c8c2a9e8&#45;894e&#45;4507&#45;bf0a&#45;d8f45f2c50de -->
<g id="edge_13adc072-2517-481f-8679-1c3778be30e1" class="edge">
<title>Play #1: Main deployment playbook for integrating submariner (0)-&gt;task_c8c2a9e8-894e-4507-bf0a-d8f45f2c50de</title>
<path fill="none" stroke="#f8f121" stroke-width="2" d="M647.257,-549.1861C653.2318,-548.8942 659.1509,-548.6264 664.9804,-548.3874 948.221,-536.7725 1271.2264,-534.3798 1501.5753,-534.5358"/>
<polygon fill="#f8f121" stroke="#f8f121" stroke-width="2" points="1501.7837,-538.0359 1511.7867,-534.5444 1501.7897,-531.0359 1501.7837,-538.0359"/>
<text text-anchor="middle" x="1010.4804" y="-552.1874" font-family="Times,serif" font-size="14.00" fill="#f8f121">11  [when: kubeinit_submariner_is_broker|bool]</text>
<links><link target="task_c8c2a9e8-894e-4507-bf0a-d8f45f2c50de"/></links></g>
<!-- task_37f7d2fe&#45;aaf7&#45;4045&#45;b783&#45;de8693d0808a -->
<g id="task_37f7d2fe-aaf7-4045-b783-de8693d0808a" class="node">
<title>task_37f7d2fe-aaf7-4045-b783-de8693d0808a</title>
<polygon fill="none" stroke="#000000" points="2200.4295,-474.9315 2200.4295,-489.8432 1970.9824,-500.3874 1646.4952,-500.3874 1417.048,-489.8432 1417.048,-474.9315 1646.4952,-464.3874 1970.9824,-464.3874 2200.4295,-474.9315"/>
<text text-anchor="middle" x="1808.7388" y="-478.6874" font-family="Times,serif" font-size="14.00" fill="#000000">[task] ../../roles/kubeinit_submariner : Make sure there the traffic is allowed from/to the cluster net</text>
</g>
<!-- Play #1: Main deployment playbook for integrating submariner (0)&#45;&gt;task_37f7d2fe&#45;aaf7&#45;4045&#45;b783&#45;de8693d0808a -->
<g id="edge_1b67d66e-7379-47e7-8d24-814c4b44e40d" class="edge">
<title>Play #1: Main deployment playbook for integrating submariner (0)-&gt;task_37f7d2fe-aaf7-4045-b783-de8693d0808a</title>
<path fill="none" stroke="#f8f121" stroke-width="2" d="M519.5399,-545.2687C560.7182,-534.4808 615.5677,-521.6986 664.9804,-515.3874 911.5684,-483.892 1190.3806,-475.3027 1410.9907,-474.7512"/>
<polygon fill="#f8f121" stroke="#f8f121" stroke-width="2" points="1411.128,-478.251 1421.1211,-474.7314 1411.1142,-471.2511 1411.128,-478.251"/>
<text text-anchor="middle" x="1010.4804" y="-519.1874" font-family="Times,serif" font-size="14.00" fill="#f8f121">12  [when: kubeinit_submariner_is_broker|bool]</text>
<links><link target="task_37f7d2fe-aaf7-4045-b783-de8693d0808a"/></links></g>
<!-- task_e10db1b3&#45;24d8&#45;4f2a&#45;89c0&#45;d5991b83c2f3 -->
<g id="task_e10db1b3-24d8-4f2a-89c0-d5991b83c2f3" class="node">
<title>task_e10db1b3-24d8-4f2a-89c0-d5991b83c2f3</title>
<polygon fill="none" stroke="#000000" points="2062.6604,-420.9315 2062.6604,-435.8432 1913.9165,-446.3874 1703.561,-446.3874 1554.8172,-435.8432 1554.8172,-420.9315 1703.561,-410.3874 1913.9165,-410.3874 2062.6604,-420.9315"/>
<text text-anchor="middle" x="1808.7388" y="-424.6874" font-family="Times,serif" font-size="14.00" fill="#000000">[task] ../../roles/kubeinit_submariner : Configure broker cluster</text>
</g>
<!-- Play #1: Main deployment playbook for integrating submariner (0)&#45;&gt;task_e10db1b3&#45;24d8&#45;4f2a&#45;89c0&#45;d5991b83c2f3 -->
<g id="edge_a5293461-ea58-40d5-87f0-38506d5cc1b6" class="edge">
<title>Play #1: Main deployment playbook for integrating submariner (0)-&gt;task_e10db1b3-24d8-4f2a-89c0-d5991b83c2f3</title>
<path fill="none" stroke="#f8f121" stroke-width="2" d="M481.0394,-545.2976C519.0308,-519.5919 593.6103,-473.5953 664.9804,-455.3874 824.99,-414.5657 1259.6707,-415.3826 1544.7059,-420.9694"/>
<polygon fill="#f8f121" stroke="#f8f121" stroke-width="2" points="1544.7139,-424.4702 1554.7817,-421.1701 1544.8534,-417.4716 1544.7139,-424.4702"/>
<text text-anchor="middle" x="1010.4804" y="-459.1874" font-family="Times,serif" font-size="14.00" fill="#f8f121">13  [when: kubeinit_submariner_is_broker|bool]</text>
<links><link target="task_e10db1b3-24d8-4f2a-89c0-d5991b83c2f3"/></links></g>
<!-- task_110e8414&#45;b755&#45;4a3b&#45;b689&#45;fbcd78b199e7 -->
<g id="task_110e8414-b755-4a3b-b689-fbcd78b199e7" class="node">
<title>task_110e8414-b755-4a3b-b689-fbcd78b199e7</title>
<polygon fill="none" stroke="#000000" points="2140.8357,-366.9315 2140.8357,-381.8432 1946.2978,-392.3874 1671.1797,-392.3874 1476.6418,-381.8432 1476.6418,-366.9315 1671.1797,-356.3874 1946.2978,-356.3874 2140.8357,-366.9315"/>
<text text-anchor="middle" x="1808.7388" y="-370.6874" font-family="Times,serif" font-size="14.00" fill="#000000">[task] ../../roles/kubeinit_submariner : Copy the broker-info.subm to the hypervisor</text>
</g>
<!-- Play #1: Main deployment playbook for integrating submariner (0)&#45;&gt;task_110e8414&#45;b755&#45;4a3b&#45;b689&#45;fbcd78b199e7 -->
<g id="edge_82d19bdb-d7c5-4841-9243-c981127258d8" class="edge">
<title>Play #1: Main deployment playbook for integrating submariner (0)-&gt;task_110e8414-b755-4a3b-b689-fbcd78b199e7</title>
<path fill="none" stroke="#f8f121" stroke-width="2" d="M470.7755,-545.2123C502.5273,-509.0448 579.773,-428.9176 664.9804,-398.3874 823.7197,-341.5103 1275.0644,-349.5253 1561.022,-361.3718"/>
<polygon fill="#f8f121" stroke="#f8f121" stroke-width="2" points="1560.9862,-364.8733 1571.1239,-361.7947 1561.279,-357.8794 1560.9862,-364.8733"/>
<text text-anchor="middle" x="1010.4804" y="-402.1874" font-family="Times,serif" font-size="14.00" fill="#f8f121">14  [when: kubeinit_submariner_is_broker|bool]</text>
<links><link target="task_110e8414-b755-4a3b-b689-fbcd78b199e7"/></links></g>
<!-- task_d544eaba&#45;0118&#45;429f&#45;866e&#45;0a9c12d53815 -->
<g id="task_d544eaba-0118-429f-866e-0a9c12d53815" class="node">
<title>task_d544eaba-0118-429f-866e-0a9c12d53815</title>
<polygon fill="none" stroke="#000000" points="2116.0912,-312.9315 2116.0912,-327.8432 1936.0483,-338.3874 1681.4292,-338.3874 1501.3863,-327.8432 1501.3863,-312.9315 1681.4292,-302.3874 1936.0483,-302.3874 2116.0912,-312.9315"/>
<text text-anchor="middle" x="1808.7388" y="-316.6874" font-family="Times,serif" font-size="14.00" fill="#000000">[task] ../../roles/kubeinit_submariner : Copy the kubeconfig to the hypervisor</text>
</g>
<!-- Play #1: Main deployment playbook for integrating submariner (0)&#45;&gt;task_d544eaba&#45;0118&#45;429f&#45;866e&#45;0a9c12d53815 -->
<g id="edge_5fa7b806-ff61-4edb-8b4a-9735dbdf9fce" class="edge">
<title>Play #1: Main deployment playbook for integrating submariner (0)-&gt;task_d544eaba-0118-429f-866e-0a9c12d53815</title>
<path fill="none" stroke="#f8f121" stroke-width="2" d="M464.8986,-545.3716C490.0272,-499.5191 563.7082,-378.8178 664.9804,-333.3874 740.0651,-299.7046 1197.456,-304.1912 1510.5784,-311.5392"/>
<polygon fill="#f8f121" stroke="#f8f121" stroke-width="2" points="1510.647,-315.0417 1520.7271,-311.7795 1510.8128,-308.0436 1510.647,-315.0417"/>
<text text-anchor="middle" x="1010.4804" y="-337.1874" font-family="Times,serif" font-size="14.00" fill="#f8f121">15  [when: kubeinit_submariner_is_broker|bool or kubeinit_submariner_is_secondary|bool]</text>
<links><link target="task_d544eaba-0118-429f-866e-0a9c12d53815"/></links></g>
<!-- task_6af18bb4&#45;e886&#45;4047&#45;b4ed&#45;e379c6360834 -->
<g id="task_6af18bb4-e886-4047-b4ed-e379c6360834" class="node">
<title>task_6af18bb4-e886-4047-b4ed-e379c6360834</title>
<polygon fill="none" stroke="#000000" points="2243.2556,-258.9315 2243.2556,-273.8432 1988.7215,-284.3874 1628.756,-284.3874 1374.2219,-273.8432 1374.2219,-258.9315 1628.756,-248.3874 1988.7215,-248.3874 2243.2556,-258.9315"/>
<text text-anchor="middle" x="1808.7388" y="-262.6874" font-family="Times,serif" font-size="14.00" fill="#000000">[task] ../../roles/kubeinit_submariner : Copying the broker-info.subm and kubeconfig to the destination cluster</text>
</g>
<!-- Play #1: Main deployment playbook for integrating submariner (0)&#45;&gt;task_6af18bb4&#45;e886&#45;4047&#45;b4ed&#45;e379c6360834 -->
<g id="edge_663dac42-58a9-47f8-9233-22f54e0e9fd4" class="edge">
<title>Play #1: Main deployment playbook for integrating submariner (0)-&gt;task_6af18bb4-e886-4047-b4ed-e379c6360834</title>
<path fill="none" stroke="#f8f121" stroke-width="2" d="M462.4094,-545.3292C483.4427,-493.4076 552.1108,-343.7744 664.9804,-286.3874 731.4695,-252.5819 1113.8111,-251.5656 1418.3976,-256.4965"/>
<polygon fill="#f8f121" stroke="#f8f121" stroke-width="2" points="1418.6891,-260.0016 1428.7454,-256.6667 1418.8044,-253.0026 1418.6891,-260.0016"/>
<text text-anchor="middle" x="1010.4804" y="-290.1874" font-family="Times,serif" font-size="14.00" fill="#f8f121">16  [when: kubeinit_submariner_is_secondary|bool]</text>
<links><link target="task_6af18bb4-e886-4047-b4ed-e379c6360834"/></links></g>
<!-- task_b7e2b1fe&#45;d75b&#45;4770&#45;bba6&#45;c0b723602411 -->
<g id="task_b7e2b1fe-d75b-4770-bba6-c0b723602411" class="node">
<title>task_b7e2b1fe-d75b-4770-bba6-c0b723602411</title>
<polygon fill="none" stroke="#000000" points="2063.9744,-204.9315 2063.9744,-219.8432 1914.4608,-230.3874 1703.0167,-230.3874 1553.5031,-219.8432 1553.5031,-204.9315 1703.0167,-194.3874 1914.4608,-194.3874 2063.9744,-204.9315"/>
<text text-anchor="middle" x="1808.7388" y="-208.6874" font-family="Times,serif" font-size="14.00" fill="#000000">[task] ../../roles/kubeinit_submariner : Join cluster to the broker</text>
</g>
<!-- Play #1: Main deployment playbook for integrating submariner (0)&#45;&gt;task_b7e2b1fe&#45;d75b&#45;4770&#45;bba6&#45;c0b723602411 -->
<g id="edge_77e4f1f0-fdc6-4dec-8c62-63ba20f9170e" class="edge">
<title>Play #1: Main deployment playbook for integrating submariner (0)-&gt;task_b7e2b1fe-d75b-4770-bba6-c0b723602411</title>
<path fill="none" stroke="#f8f121" stroke-width="2" d="M460.4616,-545.0464C477.4082,-486.7133 538.912,-305.1537 664.9804,-234.3874 739.5875,-192.508 1231.9687,-197.0398 1545.9047,-204.4777"/>
<polygon fill="#f8f121" stroke="#f8f121" stroke-width="2" points="1545.9869,-207.9806 1556.0678,-204.721 1546.1545,-200.9826 1545.9869,-207.9806"/>
<text text-anchor="middle" x="1010.4804" y="-238.1874" font-family="Times,serif" font-size="14.00" fill="#f8f121">17  [when: kubeinit_submariner_is_broker|bool or kubeinit_submariner_is_secondary|bool]</text>
<links><link target="task_b7e2b1fe-d75b-4770-bba6-c0b723602411"/></links></g>
<!-- task_d66e22e0&#45;cbf6&#45;4e8f&#45;b034&#45;77e10e6a6541 -->
<g id="task_d66e22e0-cbf6-4e8f-b034-77e10e6a6541" class="node">
<title>task_d66e22e0-cbf6-4e8f-b034-77e10e6a6541</title>
<polygon fill="none" stroke="#000000" points="2033.974,-150.9315 2033.974,-165.8432 1902.0343,-176.3874 1715.4433,-176.3874 1583.5035,-165.8432 1583.5035,-150.9315 1715.4433,-140.3874 1902.0343,-140.3874 2033.974,-150.9315"/>
<text text-anchor="middle" x="1808.7388" y="-154.6874" font-family="Times,serif" font-size="14.00" fill="#000000">[task] ../../roles/kubeinit_submariner : Tag worker node</text>
</g>
<!-- Play #1: Main deployment playbook for integrating submariner (0)&#45;&gt;task_d66e22e0&#45;cbf6&#45;4e8f&#45;b034&#45;77e10e6a6541 -->
<g id="edge_6640d917-ba69-422e-95ae-1eaa25e27a81" class="edge">
<title>Play #1: Main deployment playbook for integrating submariner (0)-&gt;task_d66e22e0-cbf6-4e8f-b034-77e10e6a6541</title>
<path fill="none" stroke="#f8f121" stroke-width="2" d="M458.7919,-545.3629C471.5927,-481.5483 524.3198,-265.6137 664.9804,-180.3874 740.491,-134.6354 1262.9388,-141.8281 1575.0013,-150.4884"/>
<polygon fill="#f8f121" stroke="#f8f121" stroke-width="2" points="1574.9978,-153.9896 1585.0919,-150.771 1575.1938,-146.9923 1574.9978,-153.9896"/>
<text text-anchor="middle" x="1010.4804" y="-184.1874" font-family="Times,serif" font-size="14.00" fill="#f8f121">18  [when: kubeinit_submariner_is_broker|bool or kubeinit_submariner_is_secondary|bool]</text>
<links><link target="task_d66e22e0-cbf6-4e8f-b034-77e10e6a6541"/></links></g>
<!-- task_3954333c&#45;88be&#45;432d&#45;93d2&#45;a3672ee65800 -->
<g id="task_3954333c-88be-432d-93d2-a3672ee65800" class="node">
<title>task_3954333c-88be-432d-93d2-a3672ee65800</title>
<polygon fill="none" stroke="#000000" points="2068.8234,-96.9315 2068.8234,-111.8432 1916.4693,-122.3874 1701.0082,-122.3874 1548.6541,-111.8432 1548.6541,-96.9315 1701.0082,-86.3874 1916.4693,-86.3874 2068.8234,-96.9315"/>
<text text-anchor="middle" x="1808.7388" y="-100.6874" font-family="Times,serif" font-size="14.00" fill="#000000">[task] ../../roles/kubeinit_submariner : Render the netshoot script</text>
</g>
<!-- Play #1: Main deployment playbook for integrating submariner (0)&#45;&gt;task_3954333c&#45;88be&#45;432d&#45;93d2&#45;a3672ee65800 -->
<g id="edge_b8260118-985a-43ef-b986-7fd41803c5cd" class="edge">
<title>Play #1: Main deployment playbook for integrating submariner (0)-&gt;task_3954333c-88be-432d-93d2-a3672ee65800</title>
<path fill="none" stroke="#f8f121" stroke-width="2" d="M457.5343,-545.2742C466.5036,-475.7192 509.072,-224.6524 664.9804,-124.3874 738.1528,-77.33 1246.9952,-85.3208 1560.828,-95.0489"/>
<polygon fill="#f8f121" stroke="#f8f121" stroke-width="2" points="1560.8772,-98.552 1570.9817,-95.3663 1561.096,-91.5555 1560.8772,-98.552"/>
<text text-anchor="middle" x="1010.4804" y="-128.1874" font-family="Times,serif" font-size="14.00" fill="#f8f121">19  [when: kubeinit_submariner_is_broker|bool or kubeinit_submariner_is_secondary|bool]</text>
<links><link target="task_3954333c-88be-432d-93d2-a3672ee65800"/></links></g>
<!-- task_00a61e82&#45;0263&#45;40da&#45;93a7&#45;6ae803bbcef8 -->
<g id="task_00a61e82-0263-40da-93a7-6ae803bbcef8" class="node">
<title>task_00a61e82-0263-40da-93a7-6ae803bbcef8</title>
<polygon fill="none" stroke="#000000" points="2069.7302,-42.9315 2069.7302,-57.8432 1916.845,-68.3874 1700.6326,-68.3874 1547.7473,-57.8432 1547.7473,-42.9315 1700.6326,-32.3874 1916.845,-32.3874 2069.7302,-42.9315"/>
<text text-anchor="middle" x="1808.7388" y="-46.6874" font-family="Times,serif" font-size="14.00" fill="#000000">[task] ../../roles/kubeinit_submariner : Verify cluster deployment</text>
</g>
<!-- Play #1: Main deployment playbook for integrating submariner (0)&#45;&gt;task_00a61e82&#45;0263&#45;40da&#45;93a7&#45;6ae803bbcef8 -->
<g id="edge_bafeca0b-eec1-49b7-8ee8-2fff94fbefa6" class="edge">
<title>Play #1: Main deployment playbook for integrating submariner (0)-&gt;task_00a61e82-0263-40da-93a7-6ae803bbcef8</title>
<path fill="none" stroke="#f8f121" stroke-width="2" d="M456.5308,-545.1348C461.945,-470.0977 493.5816,-183.9146 664.9804,-68.3874 823.2495,38.2901 1388.6597,-5.0808 1660.586,-33.3155"/>
<polygon fill="#f8f121" stroke="#f8f121" stroke-width="2" points="1660.6189,-36.8379 1670.9287,-34.3968 1661.3468,-29.8759 1660.6189,-36.8379"/>
<text text-anchor="middle" x="1010.4804" y="-72.1874" font-family="Times,serif" font-size="14.00" fill="#f8f121">20  [when: kubeinit_submariner_is_secondary|bool]</text>
<links><link target="task_00a61e82-0263-40da-93a7-6ae803bbcef8"/></links></g>
</g>
</svg>