<?xml version="1.0" encoding="UTF-8" standalone="no"?>
<!DOCTYPE svg PUBLIC "-//W3C//DTD SVG 1.1//EN"
 "http://www.w3.org/Graphics/SVG/1.1/DTD/svg11.dtd">
<!-- Generated by graphviz version 2.43.0 (0)
 -->
<!-- Title: kubeinit/playbook.yml  Pages: 1 -->
<svg width="2510pt" height="703pt"
 viewBox="0.00 0.00 2509.62 703.15" xmlns="http://www.w3.org/2000/svg" xmlns:xlink="http://www.w3.org/1999/xlink">
<g id="graph0" class="graph" transform="scale(1 1) rotate(0) translate(4 699.15)">
<title>kubeinit/playbook.yml </title>
<polygon fill="white" stroke="transparent" points="-4,4 -4,-699.15 2505.62,-699.15 2505.62,4 -4,4"/>
<!-- kubeinit/playbook.yml -->
<g id="root_node" class="node">
<title>kubeinit/playbook.yml</title>
<ellipse fill="none" stroke="black" stroke-dasharray="1,5" cx="113.09" cy="-366.15" rx="113.18" ry="18"/>
<text text-anchor="middle" x="113.09" y="-362.45" font-family="Times,serif" font-size="14.00">kubeinit/playbook.yml</text>
</g>
<!-- task&#45;post&#45;deployment -->
<g id="play_e09c4f59&#45;0c21&#45;4486&#45;a033&#45;efe9af0a60e9" class="node">
<title>task&#45;post&#45;deployment</title>
<g id="a_play_e09c4f59&#45;0c21&#45;4486&#45;a033&#45;efe9af0a60e9"><a xlink:title="localhost">
<polygon fill="none" stroke="#000000" points="511.46,-358.69 511.46,-373.6 441.35,-384.15 342.2,-384.15 272.09,-373.6 272.09,-358.69 342.2,-348.15 441.35,-348.15 511.46,-358.69"/>
<text text-anchor="middle" x="391.77" y="-362.45" font-family="Times,serif" font-size="14.00" fill="#000000">task&#45;post&#45;deployment</text>
</a>
</g>
</g>
<!-- kubeinit/playbook.yml&#45;&gt;task&#45;post&#45;deployment -->
<g id="edge_afb17e78&#45;a7f5&#45;4fa3&#45;a9fe&#45;c9b826c7cf0c" class="edge">
<title>kubeinit/playbook.yml&#45;&gt;task&#45;post&#45;deployment</title>
<path fill="none" stroke="#000000" stroke-width="2" d="M226.23,-366.15C238.05,-366.15 250.13,-366.15 262.12,-366.15"/>
<polygon fill="#000000" stroke="#000000" stroke-width="2" points="262.16,-369.65 272.16,-366.15 262.16,-362.65 262.16,-369.65"/>
<text text-anchor="middle" x="249.18" y="-369.95" font-family="Times,serif" font-size="14.00" fill="#000000">3</text>
</g>
<!-- task_45488d6d&#45;c73b&#45;4785&#45;a606&#45;e32a6118f0cd -->
<g id="task_45488d6d&#45;c73b&#45;4785&#45;a606&#45;e32a6118f0cd" class="node">
<title>task_45488d6d&#45;c73b&#45;4785&#45;a606&#45;e32a6118f0cd</title>
<g id="a_task_45488d6d&#45;c73b&#45;4785&#45;a606&#45;e32a6118f0cd"><a xlink:title="[task] kubeinit.kubeinit.kubeinit_nfs : Install NFS packages">
<polygon fill="none" stroke="black" points="2302.57,-655.69 2302.57,-670.6 2121.22,-681.15 1864.76,-681.15 1683.42,-670.6 1683.42,-655.69 1864.76,-645.15 2121.22,-645.15 2302.57,-655.69"/>
<text text-anchor="middle" x="1992.99" y="-659.45" font-family="Times,serif" font-size="14.00">[task] kubeinit.kubeinit.kubeinit_nfs : Install NFS packages</text>
</a>
</g>
</g>
<!-- task&#45;post&#45;deployment&#45;&gt;task_45488d6d&#45;c73b&#45;4785&#45;a606&#45;e32a6118f0cd -->
<g id="edge_c8120110&#45;fa66&#45;4c73&#45;9d65&#45;47379cf87dd0" class="edge">
<title>task&#45;post&#45;deployment&#45;&gt;task_45488d6d&#45;c73b&#45;4785&#45;a606&#45;e32a6118f0cd</title>
<path fill="none" stroke="#000000" stroke-width="2" d="M395.66,-384.3C404.7,-434.41 437.59,-574.76 529.37,-632.15 625.98,-692.56 1305.86,-683.51 1703.8,-672.7"/>
<polygon fill="#000000" stroke="#000000" stroke-width="2" points="1704.13,-676.19 1714.03,-672.42 1703.94,-669.19 1704.13,-676.19"/>
<text text-anchor="middle" x="997.87" y="-683.95" font-family="Times,serif" font-size="14.00" fill="#000000">1</text>
</g>
<!-- task_1c9434ec&#45;56a2&#45;40ca&#45;abc8&#45;acafb4aff978 -->
<g id="task_1c9434ec&#45;56a2&#45;40ca&#45;abc8&#45;acafb4aff978" class="node">
<title>task_1c9434ec&#45;56a2&#45;40ca&#45;abc8&#45;acafb4aff978</title>
<g id="a_task_1c9434ec&#45;56a2&#45;40ca&#45;abc8&#45;acafb4aff978"><a xlink:title="[task] kubeinit.kubeinit.kubeinit_nfs : Configure NFS shares of CentOS based guests">
<polygon fill="none" stroke="black" points="2429.73,-601.69 2429.73,-616.6 2173.9,-627.15 1812.09,-627.15 1556.25,-616.6 1556.25,-601.69 1812.09,-591.15 2173.9,-591.15 2429.73,-601.69"/>
<text text-anchor="middle" x="1992.99" y="-605.45" font-family="Times,serif" font-size="14.00">[task] kubeinit.kubeinit.kubeinit_nfs : Configure NFS shares of CentOS based guests</text>
</a>
</g>
</g>
<!-- task&#45;post&#45;deployment&#45;&gt;task_1c9434ec&#45;56a2&#45;40ca&#45;abc8&#45;acafb4aff978 -->
<g id="edge_fd76c54b&#45;07b5&#45;4efd&#45;afd7&#45;44d5e8f9ab57" class="edge">
<title>task&#45;post&#45;deployment&#45;&gt;task_1c9434ec&#45;56a2&#45;40ca&#45;abc8&#45;acafb4aff978</title>
<path fill="none" stroke="#000000" stroke-width="2" d="M397.49,-384.18C410.12,-428.36 449.34,-541.74 529.37,-587.15 573.48,-612.18 1132.19,-614.54 1546.02,-612.77"/>
<polygon fill="#000000" stroke="#000000" stroke-width="2" points="1546.09,-616.27 1556.07,-612.73 1546.06,-609.27 1546.09,-616.27"/>
<text text-anchor="middle" x="997.87" y="-616.95" font-family="Times,serif" font-size="14.00" fill="#000000">2 &#160;[when: hostvars[kubeinit_deployment_node_name].os == &#39;centos&#39;]</text>
</g>
<!-- task_095ef53c&#45;adaf&#45;4f22&#45;934c&#45;edfe894b3cc4 -->
<g id="task_095ef53c&#45;adaf&#45;4f22&#45;934c&#45;edfe894b3cc4" class="node">
<title>task_095ef53c&#45;adaf&#45;4f22&#45;934c&#45;edfe894b3cc4</title>
<g id="a_task_095ef53c&#45;adaf&#45;4f22&#45;934c&#45;edfe894b3cc4"><a xlink:title="[task] kubeinit.kubeinit.kubeinit_nfs : Configure NFS shares of Ubuntu based guests">
<polygon fill="none" stroke="black" points="2429.32,-547.69 2429.32,-562.6 2173.73,-573.15 1812.26,-573.15 1556.66,-562.6 1556.66,-547.69 1812.26,-537.15 2173.73,-537.15 2429.32,-547.69"/>
<text text-anchor="middle" x="1992.99" y="-551.45" font-family="Times,serif" font-size="14.00">[task] kubeinit.kubeinit.kubeinit_nfs : Configure NFS shares of Ubuntu based guests</text>
</a>
</g>
</g>
<!-- task&#45;post&#45;deployment&#45;&gt;task_095ef53c&#45;adaf&#45;4f22&#45;934c&#45;edfe894b3cc4 -->
<g id="edge_220c4e71&#45;e051&#45;4943&#45;bf55&#45;e0938116af5c" class="edge">
<title>task&#45;post&#45;deployment&#45;&gt;task_095ef53c&#45;adaf&#45;4f22&#45;934c&#45;edfe894b3cc4</title>
<path fill="none" stroke="#000000" stroke-width="2" d="M401.28,-384.22C419.15,-419.79 464.4,-498.12 529.37,-529.15 623.29,-574.01 1196.75,-572.07 1597.04,-564.88"/>
<polygon fill="#000000" stroke="#000000" stroke-width="2" points="1597.12,-568.38 1607.05,-564.7 1596.99,-561.38 1597.12,-568.38"/>
<text text-anchor="middle" x="997.87" y="-571.95" font-family="Times,serif" font-size="14.00" fill="#000000">3 &#160;[when: hostvars[kubeinit_deployment_node_name].os == &#39;ubuntu&#39; or hostvars[kubeinit_deployment_node_name].os == &#39;debian&#39;]</text>
</g>
<!-- task_ba4ffb42&#45;8b44&#45;4dcc&#45;8f7b&#45;14bfc74eaa3b -->
<g id="task_ba4ffb42&#45;8b44&#45;4dcc&#45;8f7b&#45;14bfc74eaa3b" class="node">
<title>task_ba4ffb42&#45;8b44&#45;4dcc&#45;8f7b&#45;14bfc74eaa3b</title>
<g id="a_task_ba4ffb42&#45;8b44&#45;4dcc&#45;8f7b&#45;14bfc74eaa3b"><a xlink:title="[task] kubeinit.kubeinit.kubeinit_nfs : Add nfs provisioning role">
<polygon fill="none" stroke="black" points="2321.55,-493.69 2321.55,-508.6 2129.09,-519.15 1856.9,-519.15 1664.43,-508.6 1664.43,-493.69 1856.9,-483.15 2129.09,-483.15 2321.55,-493.69"/>
<text text-anchor="middle" x="1992.99" y="-497.45" font-family="Times,serif" font-size="14.00">[task] kubeinit.kubeinit.kubeinit_nfs : Add nfs provisioning role</text>
</a>
</g>
</g>
<!-- task&#45;post&#45;deployment&#45;&gt;task_ba4ffb42&#45;8b44&#45;4dcc&#45;8f7b&#45;14bfc74eaa3b -->
<g id="edge_bffe2012&#45;69de&#45;4a31&#45;9a2b&#45;29cb60da7506" class="edge">
<title>task&#45;post&#45;deployment&#45;&gt;task_ba4ffb42&#45;8b44&#45;4dcc&#45;8f7b&#45;14bfc74eaa3b</title>
<path fill="none" stroke="#000000" stroke-width="2" d="M407.66,-384.44C430.55,-410.97 477.25,-459.05 529.37,-478.15 631.73,-515.66 1254.78,-513.2 1653.99,-507.51"/>
<polygon fill="#000000" stroke="#000000" stroke-width="2" points="1654.31,-511.01 1664.26,-507.36 1654.21,-504.01 1654.31,-511.01"/>
<text text-anchor="middle" x="997.87" y="-513.95" font-family="Times,serif" font-size="14.00" fill="#000000">4</text>
</g>
<!-- task_0fe6f834&#45;c657&#45;42e6&#45;8fbc&#45;0658e1d2348b -->
<g id="task_0fe6f834&#45;c657&#45;42e6&#45;8fbc&#45;0658e1d2348b" class="node">
<title>task_0fe6f834&#45;c657&#45;42e6&#45;8fbc&#45;0658e1d2348b</title>
<g id="a_task_0fe6f834&#45;c657&#45;42e6&#45;8fbc&#45;0658e1d2348b"><a xlink:title="[task] kubeinit.kubeinit.kubeinit_nfs : Add nfs client provisioner deployment">
<polygon fill="none" stroke="black" points="2386.9,-439.69 2386.9,-454.6 2156.16,-465.15 1829.83,-465.15 1599.08,-454.6 1599.08,-439.69 1829.83,-429.15 2156.16,-429.15 2386.9,-439.69"/>
<text text-anchor="middle" x="1992.99" y="-443.45" font-family="Times,serif" font-size="14.00">[task] kubeinit.kubeinit.kubeinit_nfs : Add nfs client provisioner deployment</text>
</a>
</g>
</g>
<!-- task&#45;post&#45;deployment&#45;&gt;task_0fe6f834&#45;c657&#45;42e6&#45;8fbc&#45;0658e1d2348b -->
<g id="edge_df6af986&#45;e443&#45;4579&#45;8287&#45;0075e3318f13" class="edge">
<title>task&#45;post&#45;deployment&#45;&gt;task_0fe6f834&#45;c657&#45;42e6&#45;8fbc&#45;0658e1d2348b</title>
<path fill="none" stroke="#000000" stroke-width="2" d="M446.69,-383.38C471.59,-390.55 501.7,-398.13 529.37,-402.15 916.08,-458.31 1366.11,-463.23 1663.76,-458.21"/>
<polygon fill="#000000" stroke="#000000" stroke-width="2" points="1663.91,-461.71 1673.84,-458.03 1663.78,-454.71 1663.91,-461.71"/>
<text text-anchor="middle" x="997.87" y="-462.95" font-family="Times,serif" font-size="14.00" fill="#000000">5</text>
</g>
<!-- task_5d26e315&#45;cf00&#45;424e&#45;943d&#45;f64a6d63fab3 -->
<g id="task_5d26e315&#45;cf00&#45;424e&#45;943d&#45;f64a6d63fab3" class="node">
<title>task_5d26e315&#45;cf00&#45;424e&#45;943d&#45;f64a6d63fab3</title>
<g id="a_task_5d26e315&#45;cf00&#45;424e&#45;943d&#45;f64a6d63fab3"><a xlink:title="[task] kubeinit.kubeinit.kubeinit_nfs : Add default nfs storage class">
<polygon fill="none" stroke="black" points="2341.45,-385.69 2341.45,-400.6 2137.33,-411.15 1848.66,-411.15 1644.53,-400.6 1644.53,-385.69 1848.66,-375.15 2137.33,-375.15 2341.45,-385.69"/>
<text text-anchor="middle" x="1992.99" y="-389.45" font-family="Times,serif" font-size="14.00">[task] kubeinit.kubeinit.kubeinit_nfs : Add default nfs storage class</text>
</a>
</g>
</g>
<!-- task&#45;post&#45;deployment&#45;&gt;task_5d26e315&#45;cf00&#45;424e&#45;943d&#45;f64a6d63fab3 -->
<g id="edge_f27c55c3&#45;408a&#45;476c&#45;ab78&#45;28b39241da76" class="edge">
<title>task&#45;post&#45;deployment&#45;&gt;task_5d26e315&#45;cf00&#45;424e&#45;943d&#45;f64a6d63fab3</title>
<path fill="none" stroke="#000000" stroke-width="2" d="M511.67,-368.16C746.18,-372.12 1276.59,-381.07 1634.56,-387.11"/>
<polygon fill="#000000" stroke="#000000" stroke-width="2" points="1634.51,-390.61 1644.57,-387.28 1634.63,-383.62 1634.51,-390.61"/>
<text text-anchor="middle" x="997.87" y="-386.95" font-family="Times,serif" font-size="14.00" fill="#000000">6</text>
</g>
<!-- task_2c1e82bc&#45;5625&#45;4221&#45;b1aa&#45;d1530a5c5e2a -->
<g id="task_2c1e82bc&#45;5625&#45;4221&#45;b1aa&#45;d1530a5c5e2a" class="node">
<title>task_2c1e82bc&#45;5625&#45;4221&#45;b1aa&#45;d1530a5c5e2a</title>
<g id="a_task_2c1e82bc&#45;5625&#45;4221&#45;b1aa&#45;d1530a5c5e2a"><a xlink:title="[task] kubeinit.kubeinit.kubeinit_okd : Add security context constraint for nfs provisioner">
<polygon fill="none" stroke="black" points="2452.25,-331.69 2452.25,-346.6 2183.22,-357.15 1802.76,-357.15 1533.73,-346.6 1533.73,-331.69 1802.76,-321.15 2183.22,-321.15 2452.25,-331.69"/>
<text text-anchor="middle" x="1992.99" y="-335.45" font-family="Times,serif" font-size="14.00">[task] kubeinit.kubeinit.kubeinit_okd : Add security context constraint for nfs provisioner</text>
</a>
</g>
</g>
<!-- task&#45;post&#45;deployment&#45;&gt;task_2c1e82bc&#45;5625&#45;4221&#45;b1aa&#45;d1530a5c5e2a -->
<g id="edge_c39da441&#45;14ad&#45;46b2&#45;b454&#45;572ce099639c" class="edge">
<title>task&#45;post&#45;deployment&#45;&gt;task_2c1e82bc&#45;5625&#45;4221&#45;b1aa&#45;d1530a5c5e2a</title>
<path fill="none" stroke="#000000" stroke-width="2" d="M479.34,-353.83C495.91,-351.91 513.15,-350.21 529.37,-349.15 884.81,-325.9 1289.87,-325.12 1583.46,-329.18"/>
<polygon fill="#000000" stroke="#000000" stroke-width="2" points="1583.8,-332.68 1593.85,-329.32 1583.9,-325.68 1583.8,-332.68"/>
<text text-anchor="middle" x="997.87" y="-352.95" font-family="Times,serif" font-size="14.00" fill="#000000">7 &#160;[when: &#39;nfs&#39; in kubeinit_cluster_hostvars.services]</text>
</g>
<!-- task_2d09382e&#45;eeee&#45;403c&#45;a30f&#45;450cdd8e2a9d -->
<g id="task_2d09382e&#45;eeee&#45;403c&#45;a30f&#45;450cdd8e2a9d" class="node">
<title>task_2d09382e&#45;eeee&#45;403c&#45;a30f&#45;450cdd8e2a9d</title>
<g id="a_task_2d09382e&#45;eeee&#45;403c&#45;a30f&#45;450cdd8e2a9d"><a xlink:title="[task] kubeinit.kubeinit.kubeinit_okd : Apply nfs security policy to nfs user">
<polygon fill="none" stroke="black" points="2378.52,-277.69 2378.52,-292.6 2152.68,-303.15 1833.3,-303.15 1607.46,-292.6 1607.46,-277.69 1833.3,-267.15 2152.68,-267.15 2378.52,-277.69"/>
<text text-anchor="middle" x="1992.99" y="-281.45" font-family="Times,serif" font-size="14.00">[task] kubeinit.kubeinit.kubeinit_okd : Apply nfs security policy to nfs user</text>
</a>
</g>
</g>
<!-- task&#45;post&#45;deployment&#45;&gt;task_2d09382e&#45;eeee&#45;403c&#45;a30f&#45;450cdd8e2a9d -->
<g id="edge_e346a00f&#45;7d60&#45;47d7&#45;9afe&#45;104547b3ed4e" class="edge">
<title>task&#45;post&#45;deployment&#45;&gt;task_2d09382e&#45;eeee&#45;403c&#45;a30f&#45;450cdd8e2a9d</title>
<path fill="none" stroke="#000000" stroke-width="2" d="M425.28,-348.11C452.24,-334.2 492.06,-316.05 529.37,-308.15 733.82,-264.86 1279.93,-267.73 1643.88,-275.29"/>
<polygon fill="#000000" stroke="#000000" stroke-width="2" points="1643.99,-278.8 1654.06,-275.51 1644.13,-271.8 1643.99,-278.8"/>
<text text-anchor="middle" x="997.87" y="-311.95" font-family="Times,serif" font-size="14.00" fill="#000000">8 &#160;[when: &#39;nfs&#39; in kubeinit_cluster_hostvars.services]</text>
</g>
<!-- task_e9240dd8&#45;9cce&#45;4e3a&#45;8745&#45;ac7154c4cb23 -->
<g id="task_e9240dd8&#45;9cce&#45;4e3a&#45;8745&#45;ac7154c4cb23" class="node">
<title>task_e9240dd8&#45;9cce&#45;4e3a&#45;8745&#45;ac7154c4cb23</title>
<g id="a_task_e9240dd8&#45;9cce&#45;4e3a&#45;8745&#45;ac7154c4cb23"><a xlink:title="[task] kubeinit.kubeinit.kubeinit_okd : Wait for the image registry operator to start its components">
<polygon fill="none" stroke="black" points="2501.74,-223.69 2501.74,-238.6 2203.72,-249.15 1782.26,-249.15 1484.24,-238.6 1484.24,-223.69 1782.26,-213.15 2203.72,-213.15 2501.74,-223.69"/>
<text text-anchor="middle" x="1992.99" y="-227.45" font-family="Times,serif" font-size="14.00">[task] kubeinit.kubeinit.kubeinit_okd : Wait for the image registry operator to start its components</text>
</a>
</g>
</g>
<!-- task&#45;post&#45;deployment&#45;&gt;task_e9240dd8&#45;9cce&#45;4e3a&#45;8745&#45;ac7154c4cb23 -->
<g id="edge_34f29485&#45;ec05&#45;4d7a&#45;b91e&#45;8ad4752db02c" class="edge">
<title>task&#45;post&#45;deployment&#45;&gt;task_e9240dd8&#45;9cce&#45;4e3a&#45;8745&#45;ac7154c4cb23</title>
<path fill="none" stroke="#000000" stroke-width="2" d="M407.16,-347.82C429.76,-320.66 476.5,-270.85 529.37,-251.15 620.83,-217.06 1129.93,-216.71 1522.06,-221.86"/>
<polygon fill="#000000" stroke="#000000" stroke-width="2" points="1522.13,-225.36 1532.18,-221.99 1522.22,-218.36 1522.13,-225.36"/>
<text text-anchor="middle" x="997.87" y="-254.95" font-family="Times,serif" font-size="14.00" fill="#000000">9 &#160;[when: &#39;nfs&#39; in kubeinit_cluster_hostvars.services]</text>
</g>
<!-- task_79770a8b&#45;dba6&#45;4423&#45;a5bc&#45;617d459cba66 -->
<g id="task_79770a8b&#45;dba6&#45;4423&#45;a5bc&#45;617d459cba66" class="node">
<title>task_79770a8b&#45;dba6&#45;4423&#45;a5bc&#45;617d459cba66</title>
<g id="a_task_79770a8b&#45;dba6&#45;4423&#45;a5bc&#45;617d459cba66"><a xlink:title="[task] kubeinit.kubeinit.kubeinit_okd : Patch imageregistry operator to claim storage">
<polygon fill="none" stroke="black" points="2431.04,-169.69 2431.04,-184.6 2174.44,-195.15 1811.55,-195.15 1554.94,-184.6 1554.94,-169.69 1811.55,-159.15 2174.44,-159.15 2431.04,-169.69"/>
<text text-anchor="middle" x="1992.99" y="-173.45" font-family="Times,serif" font-size="14.00">[task] kubeinit.kubeinit.kubeinit_okd : Patch imageregistry operator to claim storage</text>
</a>
</g>
</g>
<!-- task&#45;post&#45;deployment&#45;&gt;task_79770a8b&#45;dba6&#45;4423&#45;a5bc&#45;617d459cba66 -->
<g id="edge_870e352a&#45;948b&#45;4f1a&#45;8a5d&#45;83872df295a7" class="edge">
<title>task&#45;post&#45;deployment&#45;&gt;task_79770a8b&#45;dba6&#45;4423&#45;a5bc&#45;617d459cba66</title>
<path fill="none" stroke="#000000" stroke-width="2" d="M401.04,-348.02C418.64,-311.93 463.64,-231.82 529.37,-200.15 624.31,-154.41 1211.02,-158.31 1611.88,-166.71"/>
<polygon fill="#000000" stroke="#000000" stroke-width="2" points="1611.83,-170.21 1621.9,-166.93 1611.98,-163.21 1611.83,-170.21"/>
<text text-anchor="middle" x="997.87" y="-203.95" font-family="Times,serif" font-size="14.00" fill="#000000">10 &#160;[when: &#39;nfs&#39; in kubeinit_cluster_hostvars.services]</text>
</g>
<!-- task_1a329a0c&#45;7033&#45;4738&#45;a785&#45;a372e338fcdd -->
<g id="task_1a329a0c&#45;7033&#45;4738&#45;a785&#45;a372e338fcdd" class="node">
<title>task_1a329a0c&#45;7033&#45;4738&#45;a785&#45;a372e338fcdd</title>
<g id="a_task_1a329a0c&#45;7033&#45;4738&#45;a785&#45;a372e338fcdd"><a xlink:title="[task] kubeinit.kubeinit.kubeinit_okd : Patch imageregistry operator to move to Managed state">
<polygon fill="none" stroke="black" points="2481.44,-115.69 2481.44,-130.6 2195.31,-141.15 1790.67,-141.15 1504.54,-130.6 1504.54,-115.69 1790.67,-105.15 2195.31,-105.15 2481.44,-115.69"/>
<text text-anchor="middle" x="1992.99" y="-119.45" font-family="Times,serif" font-size="14.00">[task] kubeinit.kubeinit.kubeinit_okd : Patch imageregistry operator to move to Managed state</text>
</a>
</g>
</g>
<!-- task&#45;post&#45;deployment&#45;&gt;task_1a329a0c&#45;7033&#45;4738&#45;a785&#45;a372e338fcdd -->
<g id="edge_ed3a3c3d&#45;0f75&#45;495f&#45;ba07&#45;5bd2695fb079" class="edge">
<title>task&#45;post&#45;deployment&#45;&gt;task_1a329a0c&#45;7033&#45;4738&#45;a785&#45;a372e338fcdd</title>
<path fill="none" stroke="#000000" stroke-width="2" d="M397.4,-347.87C409.83,-303.09 448.64,-188.17 529.37,-142.15 623.11,-88.71 1237.01,-97.85 1639.11,-110.03"/>
<polygon fill="#000000" stroke="#000000" stroke-width="2" points="1639.06,-113.54 1649.16,-110.34 1639.28,-106.54 1639.06,-113.54"/>
<text text-anchor="middle" x="997.87" y="-145.95" font-family="Times,serif" font-size="14.00" fill="#000000">11 &#160;[when: &#39;nfs&#39; in kubeinit_cluster_hostvars.services]</text>
</g>
<!-- task_c5ff7f33&#45;bb50&#45;4b9a&#45;956a&#45;2c907dd526cc -->
<g id="task_c5ff7f33&#45;bb50&#45;4b9a&#45;956a&#45;2c907dd526cc" class="node">
<title>task_c5ff7f33&#45;bb50&#45;4b9a&#45;956a&#45;2c907dd526cc</title>
<g id="a_task_c5ff7f33&#45;bb50&#45;4b9a&#45;956a&#45;2c907dd526cc"><a xlink:title="[task] kubeinit.kubeinit.kubeinit_kubevirt : Install KubeVirt">
<polygon fill="none" stroke="black" points="2302.57,-61.69 2302.57,-76.6 2121.22,-87.15 1864.76,-87.15 1683.42,-76.6 1683.42,-61.69 1864.76,-51.15 2121.22,-51.15 2302.57,-61.69"/>
<text text-anchor="middle" x="1992.99" y="-65.45" font-family="Times,serif" font-size="14.00">[task] kubeinit.kubeinit.kubeinit_kubevirt : Install KubeVirt</text>
</a>
</g>
</g>
<!-- task&#45;post&#45;deployment&#45;&gt;task_c5ff7f33&#45;bb50&#45;4b9a&#45;956a&#45;2c907dd526cc -->
<g id="edge_0a1f68df&#45;6946&#45;49ba&#45;b7d8&#45;7a901fb21a9a" class="edge">
<title>task&#45;post&#45;deployment&#45;&gt;task_c5ff7f33&#45;bb50&#45;4b9a&#45;956a&#45;2c907dd526cc</title>
<path fill="none" stroke="#000000" stroke-width="2" d="M395,-347.84C402.5,-295.14 432.11,-142.94 529.37,-81.15 743.16,54.69 1511.96,-13.9 1840.93,-50.79"/>
<polygon fill="#000000" stroke="#000000" stroke-width="2" points="1840.68,-54.29 1851.01,-51.93 1841.46,-47.33 1840.68,-54.29"/>
<text text-anchor="middle" x="997.87" y="-84.95" font-family="Times,serif" font-size="14.00" fill="#000000">12</text>
</g>
</g>
</svg>
