<?xml version='1.0' encoding='UTF-8'?>
<!DOCTYPE svg PUBLIC "-//W3C//DTD SVG 1.1//EN" "http://www.w3.org/Graphics/SVG/1.1/DTD/svg11.dtd">
<!-- Generated by graphviz version 2.43.0 (0)
 --><!-- Title: ./playbooks/submariner&#45;subctl&#45;verify.yml  Pages: 1 --><svg xmlns="http://www.w3.org/2000/svg" xmlns:xlink="http://www.w3.org/1999/xlink" width="1933pt" height="975pt" viewBox="0.00 0.00 1933.19 974.90" id="svg">
<script type="text/javascript" href="https://ajax.googleapis.com/ajax/libs/jquery/3.2.1/jquery.min.js" id="jquery"/><script type="text/javascript" id="my_javascript"><![CDATA[const HOVER_CLASS = "my_hover";

var selectedElement = null;

function addClass(rootElement) {
    $(rootElement).find('link').each(function (index, element) {
        var target = $(element).attr('target');
        var currentElement = $('#' + target);
        currentElement.addClass(HOVER_CLASS);

        addClass(currentElement);
    })
}

function removeClass(rootElement, hover) {
    $(rootElement).find('link').each(function (index, element) {
        if ($(rootElement).attr('id') !== $(selectedElement).attr('id') || !hover) {
            var target = $(element).attr('target');
            var currentElement = $('#' + target);
            currentElement.removeClass(HOVER_CLASS);

            removeClass(currentElement);
        }

    })
}

function hoverIn(event) {
    addClass(event.currentTarget);
}

function hoverOut(event) {
    removeClass(event.currentTarget, true);
}

function clickOnElement(event) {
    var newElement = event.currentTarget;

    if ($(newElement).attr('id') === $(selectedElement).attr('id')) {
        removeClass(selectedElement, false);
    } else {
        removeClass(selectedElement);
        addClass(newElement)
    }

    selectedElement = newElement;
}


$("#svg").ready(function () {

    $("g[id^=play_]").hover(hoverIn, hoverOut);
    $("g[id^=role_]").hover(hoverIn, hoverOut);

    $("g[id^=play_]").click(clickOnElement);
    $("g[id^=role_]").click(clickOnElement);

});
]]></script><style type="text/css" id="my_css"><![CDATA[.node:hover, .edge:hover, path:hover, path + polygon:hover {
    cursor: pointer;
    stroke-width: 3;
    font-weight: bolder;
}

.my_hover {
    cursor: pointer;
    stroke-width: 3;
    font-weight: bolder;
}
]]></style><g id="graph0" class="graph" transform="scale(1 1) rotate(0) translate(4 970.9)">
<title>./playbooks/submariner-subctl-verify.yml </title>
<polygon fill="white" stroke="transparent" points="-4,4 -4,-970.9 1929.19,-970.9 1929.19,4 -4,4"/>
<!-- ./playbooks/submariner&#45;subctl&#45;verify.yml -->
<g id="root_node" class="node">
<title>./playbooks/submariner-subctl-verify.yml</title>
<ellipse fill="none" stroke="black" stroke-dasharray="1,5" cx="198.88" cy="-483.23" rx="198.76" ry="18"/>
<text text-anchor="middle" x="198.88" y="-479.53" font-family="Times,serif" font-size="14.00">./playbooks/submariner-subctl-verify.yml</text>
</g>
<!-- Play #1: Main deployment playbook for integrating submariner (0) -->
<g id="play_009a0fec-f666-4350-8449-7fa7df83c2a7" class="node">
<title>Play #1: Main deployment playbook for integrating submariner (0)</title>
<polygon fill="#f697ca" stroke="#f697ca" points="938.76,-501.23 443.76,-501.23 443.76,-465.23 938.76,-465.23 938.76,-501.23"/>
<text text-anchor="middle" x="691.26" y="-479.53" font-family="Times,serif" font-size="14.00" fill="#000000">Play #1: Main deployment playbook for integrating submariner (0)</text>
<links><link target="edge_fc8ed045-2efd-42f5-97b6-2149e6cf913a"/><link target="edge_5ed916e6-751e-4b9c-85aa-bbc3435b0a25"/><link target="edge_0c9da350-2a7b-4a57-81a5-d5aab8483f60"/><link target="edge_33c5697f-c148-466a-8590-c978eb49f8df"/><link target="edge_5ae650d0-29f7-4c48-ad98-ac47641dc792"/><link target="edge_9a30b293-c3d6-45c2-869b-29ff67de55c2"/><link target="edge_ce0d185f-03ca-4507-acd1-b4f16ce3c00c"/><link target="edge_1b305433-0e0d-45dc-a713-e9736dd6cbad"/><link target="edge_5fa25dd2-f2bc-4c32-b51f-d370d88f5603"/><link target="edge_336a9000-f0f6-4d71-afde-6f8d242c3b2b"/><link target="edge_ccc36df6-2c78-4a0d-a6fa-8eb3bd7cf214"/><link target="edge_dea043ec-1aa1-4d97-9ac3-2101f8d4bf9b"/><link target="edge_81efd904-2b0e-44a7-ac6f-08cc77d0824f"/><link target="edge_499a62ad-e286-4f23-9394-08b40527d758"/><link target="edge_1338caa5-ecde-4b61-a2b2-d882fbe8bd9e"/><link target="edge_9559e70c-f79a-47ed-8e0f-6c3893abe7c6"/><link target="edge_44280cfd-4c46-4651-9736-067c24c5a159"/><link target="edge_cb24cb93-359c-4d6b-b16d-65c25dc2a16b"/></links></g>
<!-- ./playbooks/submariner&#45;subctl&#45;verify.yml&#45;&gt;Play #1: Main deployment playbook for integrating submariner (0) -->
<g id="edge_a9367fca-48d2-47b2-955e-711a79912e88" class="edge">
<title>./playbooks/submariner-subctl-verify.yml-&gt;Play #1: Main deployment playbook for integrating submariner (0)</title>
<path fill="none" stroke="#f697ca" stroke-width="2" d="M397.93,-483.23C409.66,-483.23 421.54,-483.23 433.46,-483.23"/>
<polygon fill="#f697ca" stroke="#f697ca" stroke-width="2" points="433.48,-486.73 443.48,-483.23 433.48,-479.73 433.48,-486.73"/>
<text text-anchor="middle" x="420.76" y="-487.03" font-family="Times,serif" font-size="14.00" fill="#f697ca">1</text>
</g>
<!-- pre_task_54f96258&#45;ecd4&#45;4c13&#45;baa0&#45;b57bd0f53c5a -->
<g id="pre_task_54f96258-ecd4-4c13-baa0-b57bd0f53c5a" class="node">
<title>pre_task_54f96258-ecd4-4c13-baa0-b57bd0f53c5a</title>
<g id="a_pre_task_54f96258-ecd4-4c13-baa0-b57bd0f53c5a"><a xlink:title="[pre_task] Check if Ansible meets version requirements.">
<polygon fill="none" stroke="black" points="1753.6,-934.77 1753.6,-949.68 1581.31,-960.23 1337.65,-960.23 1165.36,-949.68 1165.36,-934.77 1337.65,-924.23 1581.31,-924.23 1753.6,-934.77"/>
<text text-anchor="middle" x="1459.48" y="-938.53" font-family="Times,serif" font-size="14.00">[pre_task] Check if Ansible meets version requirements.</text>
</a>
</g>
</g>
<!-- Play #1: Main deployment playbook for integrating submariner (0)&#45;&gt;pre_task_54f96258&#45;ecd4&#45;4c13&#45;baa0&#45;b57bd0f53c5a -->
<g id="edge_fc8ed045-2efd-42f5-97b6-2149e6cf913a" class="edge">
<title>Play #1: Main deployment playbook for integrating submariner (0)-&gt;pre_task_54f96258-ecd4-4c13-baa0-b57bd0f53c5a</title>
<path fill="none" stroke="#f697ca" stroke-width="2" d="M698.08,-501.35C721.49,-570.89 816.26,-821.44 993.76,-915.23 1100.84,-971.8 1241.8,-971.39 1340.28,-961.33"/>
<polygon fill="#f697ca" stroke="#f697ca" stroke-width="2" points="1340.7,-964.8 1350.27,-960.26 1339.95,-957.84 1340.7,-964.8"/>
<text text-anchor="middle" x="966.26" y="-904.03" font-family="Times,serif" font-size="14.00" fill="#f697ca">1</text>
<links><link target="pre_task_54f96258-ecd4-4c13-baa0-b57bd0f53c5a"/></links></g>
<!-- task_20c6b53f&#45;b2aa&#45;4584&#45;8322&#45;93c85e687356 -->
<g id="task_20c6b53f-b2aa-4584-8322-93c85e687356" class="node">
<title>task_20c6b53f-b2aa-4584-8322-93c85e687356</title>
<g id="a_task_20c6b53f-b2aa-4584-8322-93c85e687356"><a xlink:title="[task] ../../roles/kubeinit_prepare : Gather variables for each operating system">
<polygon fill="none" stroke="black" points="1863.09,-880.77 1863.09,-895.68 1626.66,-906.23 1292.3,-906.23 1055.87,-895.68 1055.87,-880.77 1292.3,-870.23 1626.66,-870.23 1863.09,-880.77"/>
<text text-anchor="middle" x="1459.48" y="-884.53" font-family="Times,serif" font-size="14.00">[task] ../../roles/kubeinit_prepare : Gather variables for each operating system</text>
</a>
</g>
</g>
<!-- Play #1: Main deployment playbook for integrating submariner (0)&#45;&gt;task_20c6b53f&#45;b2aa&#45;4584&#45;8322&#45;93c85e687356 -->
<g id="edge_5ed916e6-751e-4b9c-85aa-bbc3435b0a25" class="edge">
<title>Play #1: Main deployment playbook for integrating submariner (0)-&gt;task_20c6b53f-b2aa-4584-8322-93c85e687356</title>
<path fill="none" stroke="#f697ca" stroke-width="2" d="M700.04,-501.5C728.27,-565.19 832.21,-777.99 993.76,-861.23 1099.69,-915.8 1237.74,-916.47 1335.78,-907.22"/>
<polygon fill="#f697ca" stroke="#f697ca" stroke-width="2" points="1336.14,-910.7 1345.74,-906.23 1335.45,-903.74 1336.14,-910.7"/>
<text text-anchor="middle" x="966.26" y="-852.03" font-family="Times,serif" font-size="14.00" fill="#f697ca">2</text>
<links><link target="task_20c6b53f-b2aa-4584-8322-93c85e687356"/></links></g>
<!-- task_34f60f80&#45;8c4d&#45;41e0&#45;95dc&#45;7e7fc9d5ad5c -->
<g id="task_34f60f80-8c4d-41e0-95dc-7e7fc9d5ad5c" class="node">
<title>task_34f60f80-8c4d-41e0-95dc-7e7fc9d5ad5c</title>
<g id="a_task_34f60f80-8c4d-41e0-95dc-7e7fc9d5ad5c"><a xlink:title="[task] ../../roles/kubeinit_prepare : add all master nodes to the all_master_nodes group">
<polygon fill="none" stroke="black" points="1904.6,-826.77 1904.6,-841.68 1643.85,-852.23 1275.1,-852.23 1014.36,-841.68 1014.36,-826.77 1275.1,-816.23 1643.85,-816.23 1904.6,-826.77"/>
<text text-anchor="middle" x="1459.48" y="-830.53" font-family="Times,serif" font-size="14.00">[task] ../../roles/kubeinit_prepare : add all master nodes to the all_master_nodes group</text>
</a>
</g>
</g>
<!-- Play #1: Main deployment playbook for integrating submariner (0)&#45;&gt;task_34f60f80&#45;8c4d&#45;41e0&#45;95dc&#45;7e7fc9d5ad5c -->
<g id="edge_0c9da350-2a7b-4a57-81a5-d5aab8483f60" class="edge">
<title>Play #1: Main deployment playbook for integrating submariner (0)-&gt;task_34f60f80-8c4d-41e0-95dc-7e7fc9d5ad5c</title>
<path fill="none" stroke="#f697ca" stroke-width="2" d="M702.16,-501.28C734.77,-558.69 845.32,-737.4 993.76,-807.23 1092.91,-853.87 1217.38,-858.68 1312.54,-852.88"/>
<polygon fill="#f697ca" stroke="#f697ca" stroke-width="2" points="1312.78,-856.38 1322.54,-852.23 1312.33,-849.39 1312.78,-856.38"/>
<text text-anchor="middle" x="966.26" y="-800.03" font-family="Times,serif" font-size="14.00" fill="#f697ca">3</text>
<links><link target="task_34f60f80-8c4d-41e0-95dc-7e7fc9d5ad5c"/></links></g>
<!-- task_95c9d68f&#45;f628&#45;4484&#45;9935&#45;3722c3e88093 -->
<g id="task_95c9d68f-f628-4484-9935-3722c3e88093" class="node">
<title>task_95c9d68f-f628-4484-9935-3722c3e88093</title>
<g id="a_task_95c9d68f-f628-4484-9935-3722c3e88093"><a xlink:title="[task] ../../roles/kubeinit_prepare : add all worker nodes to the all_worker_nodes group">
<polygon fill="none" stroke="black" points="1904.6,-772.77 1904.6,-787.68 1643.85,-798.23 1275.1,-798.23 1014.36,-787.68 1014.36,-772.77 1275.1,-762.23 1643.85,-762.23 1904.6,-772.77"/>
<text text-anchor="middle" x="1459.48" y="-776.53" font-family="Times,serif" font-size="14.00">[task] ../../roles/kubeinit_prepare : add all worker nodes to the all_worker_nodes group</text>
</a>
</g>
</g>
<!-- Play #1: Main deployment playbook for integrating submariner (0)&#45;&gt;task_95c9d68f&#45;f628&#45;4484&#45;9935&#45;3722c3e88093 -->
<g id="edge_33c5697f-c148-466a-8590-c978eb49f8df" class="edge">
<title>Play #1: Main deployment playbook for integrating submariner (0)-&gt;task_95c9d68f-f628-4484-9935-3722c3e88093</title>
<path fill="none" stroke="#f697ca" stroke-width="2" d="M705.31,-501.48C743.02,-552.56 858.17,-696.83 993.76,-753.23 1007.69,-759.02 1022.05,-764.11 1036.72,-768.57"/>
<polygon fill="#f697ca" stroke="#f697ca" stroke-width="2" points="1035.82,-771.96 1046.4,-771.41 1037.79,-765.24 1035.82,-771.96"/>
<text text-anchor="middle" x="966.26" y="-748.03" font-family="Times,serif" font-size="14.00" fill="#f697ca">4</text>
<links><link target="task_95c9d68f-f628-4484-9935-3722c3e88093"/></links></g>
<!-- task_b96fb701&#45;4c13&#45;4539&#45;a943&#45;9d5a31c9381d -->
<g id="task_b96fb701-4c13-4539-a943-9d5a31c9381d" class="node">
<title>task_b96fb701-4c13-4539-a943-9d5a31c9381d</title>
<g id="a_task_b96fb701-4c13-4539-a943-9d5a31c9381d"><a xlink:title="[task] ../../roles/kubeinit_prepare : add all bootstrap nodes the all_bootstrap_nodes group">
<polygon fill="none" stroke="black" points="1918.33,-718.77 1918.33,-733.68 1649.54,-744.23 1269.41,-744.23 1000.62,-733.68 1000.62,-718.77 1269.41,-708.23 1649.54,-708.23 1918.33,-718.77"/>
<text text-anchor="middle" x="1459.48" y="-722.53" font-family="Times,serif" font-size="14.00">[task] ../../roles/kubeinit_prepare : add all bootstrap nodes the all_bootstrap_nodes group</text>
</a>
</g>
</g>
<!-- Play #1: Main deployment playbook for integrating submariner (0)&#45;&gt;task_b96fb701&#45;4c13&#45;4539&#45;a943&#45;9d5a31c9381d -->
<g id="edge_5ae650d0-29f7-4c48-ad98-ac47641dc792" class="edge">
<title>Play #1: Main deployment playbook for integrating submariner (0)-&gt;task_b96fb701-4c13-4539-a943-9d5a31c9381d</title>
<path fill="none" stroke="#f697ca" stroke-width="2" d="M709.52,-501.24C752.58,-544.82 870.22,-655.55 993.76,-699.23 1009.93,-704.94 1026.6,-709.89 1043.59,-714.17"/>
<polygon fill="#f697ca" stroke="#f697ca" stroke-width="2" points="1043.09,-717.65 1053.63,-716.61 1044.74,-710.85 1043.09,-717.65"/>
<text text-anchor="middle" x="966.26" y="-695.03" font-family="Times,serif" font-size="14.00" fill="#f697ca">5</text>
<links><link target="task_b96fb701-4c13-4539-a943-9d5a31c9381d"/></links></g>
<!-- task_11fbfa17&#45;4e8e&#45;4e33&#45;be6d&#45;fc12653372b1 -->
<g id="task_11fbfa17-4e8e-4e33-be6d-fc12653372b1" class="node">
<title>task_11fbfa17-4e8e-4e33-be6d-fc12653372b1</title>
<g id="a_task_11fbfa17-4e8e-4e33-be6d-fc12653372b1"><a xlink:title="[task] ../../roles/kubeinit_prepare : add all cluster nodes to the all_cluster_nodes group">
<polygon fill="none" stroke="black" points="1904.19,-664.77 1904.19,-679.68 1643.68,-690.23 1275.27,-690.23 1014.76,-679.68 1014.76,-664.77 1275.27,-654.23 1643.68,-654.23 1904.19,-664.77"/>
<text text-anchor="middle" x="1459.48" y="-668.53" font-family="Times,serif" font-size="14.00">[task] ../../roles/kubeinit_prepare : add all cluster nodes to the all_cluster_nodes group</text>
</a>
</g>
</g>
<!-- Play #1: Main deployment playbook for integrating submariner (0)&#45;&gt;task_11fbfa17&#45;4e8e&#45;4e33&#45;be6d&#45;fc12653372b1 -->
<g id="edge_9a30b293-c3d6-45c2-869b-29ff67de55c2" class="edge">
<title>Play #1: Main deployment playbook for integrating submariner (0)-&gt;task_11fbfa17-4e8e-4e33-be6d-fc12653372b1</title>
<path fill="none" stroke="#f697ca" stroke-width="2" d="M716.85,-501.34C766.29,-536.61 882.55,-613.78 993.76,-645.23 1015.36,-651.33 1037.73,-656.43 1060.47,-660.67"/>
<polygon fill="#f697ca" stroke="#f697ca" stroke-width="2" points="1060.12,-664.16 1070.58,-662.49 1061.36,-657.27 1060.12,-664.16"/>
<text text-anchor="middle" x="966.26" y="-640.03" font-family="Times,serif" font-size="14.00" fill="#f697ca">6</text>
<links><link target="task_11fbfa17-4e8e-4e33-be6d-fc12653372b1"/></links></g>
<!-- task_6454c5d5&#45;5997&#45;426a&#45;afd0&#45;ce9c54bee1e1 -->
<g id="task_6454c5d5-5997-426a-afd0-ce9c54bee1e1" class="node">
<title>task_6454c5d5-5997-426a-afd0-ce9c54bee1e1</title>
<g id="a_task_6454c5d5-5997-426a-afd0-ce9c54bee1e1"><a xlink:title="[task] ../../roles/kubeinit_prepare : add all service nodes to the all_service_nodes group">
<polygon fill="none" stroke="black" points="1906.41,-610.77 1906.41,-625.68 1644.6,-636.23 1274.35,-636.23 1012.54,-625.68 1012.54,-610.77 1274.35,-600.23 1644.6,-600.23 1906.41,-610.77"/>
<text text-anchor="middle" x="1459.48" y="-614.53" font-family="Times,serif" font-size="14.00">[task] ../../roles/kubeinit_prepare : add all service nodes to the all_service_nodes group</text>
</a>
</g>
</g>
<!-- Play #1: Main deployment playbook for integrating submariner (0)&#45;&gt;task_6454c5d5&#45;5997&#45;426a&#45;afd0&#45;ce9c54bee1e1 -->
<g id="edge_ce0d185f-03ca-4507-acd1-b4f16ce3c00c" class="edge">
<title>Play #1: Main deployment playbook for integrating submariner (0)-&gt;task_6454c5d5-5997-426a-afd0-ce9c54bee1e1</title>
<path fill="none" stroke="#f697ca" stroke-width="2" d="M731.22,-501.27C787.69,-526.47 896.24,-571.36 993.76,-591.23 1023.69,-597.32 1054.9,-602.21 1086.37,-606.11"/>
<polygon fill="#f697ca" stroke="#f697ca" stroke-width="2" points="1086.25,-609.62 1096.6,-607.34 1087.09,-602.67 1086.25,-609.62"/>
<text text-anchor="middle" x="966.26" y="-589.03" font-family="Times,serif" font-size="14.00" fill="#f697ca">7</text>
<links><link target="task_6454c5d5-5997-426a-afd0-ce9c54bee1e1"/></links></g>
<!-- task_6247936c&#45;9bce&#45;4f2f&#45;ac8c&#45;14b5be86e492 -->
<g id="task_6247936c-9bce-4f2f-ac8c-14b5be86e492" class="node">
<title>task_6247936c-9bce-4f2f-ac8c-14b5be86e492</title>
<g id="a_task_6247936c-9bce-4f2f-ac8c-14b5be86e492"><a xlink:title="[task] ../../roles/kubeinit_prepare : add all service and cluster nodes to the all_nodes group">
<polygon fill="none" stroke="black" points="1925.4,-556.77 1925.4,-571.68 1652.47,-582.23 1266.48,-582.23 993.55,-571.68 993.55,-556.77 1266.48,-546.23 1652.47,-546.23 1925.4,-556.77"/>
<text text-anchor="middle" x="1459.48" y="-560.53" font-family="Times,serif" font-size="14.00">[task] ../../roles/kubeinit_prepare : add all service and cluster nodes to the all_nodes group</text>
</a>
</g>
</g>
<!-- Play #1: Main deployment playbook for integrating submariner (0)&#45;&gt;task_6247936c&#45;9bce&#45;4f2f&#45;ac8c&#45;14b5be86e492 -->
<g id="edge_1b305433-0e0d-45dc-a713-e9736dd6cbad" class="edge">
<title>Play #1: Main deployment playbook for integrating submariner (0)-&gt;task_6247936c-9bce-4f2f-ac8c-14b5be86e492</title>
<path fill="none" stroke="#f697ca" stroke-width="2" d="M777.31,-501.25C837.48,-513.32 920.23,-528.54 993.76,-537.23 1038.72,-542.54 1086.25,-546.82 1133.08,-550.27"/>
<polygon fill="#f697ca" stroke="#f697ca" stroke-width="2" points="1132.84,-553.76 1143.06,-550.99 1133.34,-546.78 1132.84,-553.76"/>
<text text-anchor="middle" x="966.26" y="-537.03" font-family="Times,serif" font-size="14.00" fill="#f697ca">8</text>
<links><link target="task_6247936c-9bce-4f2f-ac8c-14b5be86e492"/></links></g>
<!-- task_0b14f582&#45;a4fc&#45;4c33&#45;959f&#45;e7552030b435 -->
<g id="task_0b14f582-a4fc-4c33-959f-e7552030b435" class="node">
<title>task_0b14f582-a4fc-4c33-959f-e7552030b435</title>
<g id="a_task_0b14f582-a4fc-4c33-959f-e7552030b435"><a xlink:title="[task] ../../roles/kubeinit_prepare : add all hosts to the all_hosts group">
<polygon fill="none" stroke="black" points="1821.17,-502.77 1821.17,-517.68 1609.29,-528.23 1309.66,-528.23 1097.79,-517.68 1097.79,-502.77 1309.66,-492.23 1609.29,-492.23 1821.17,-502.77"/>
<text text-anchor="middle" x="1459.48" y="-506.53" font-family="Times,serif" font-size="14.00">[task] ../../roles/kubeinit_prepare : add all hosts to the all_hosts group</text>
</a>
</g>
</g>
<!-- Play #1: Main deployment playbook for integrating submariner (0)&#45;&gt;task_0b14f582&#45;a4fc&#45;4c33&#45;959f&#45;e7552030b435 -->
<g id="edge_5fa25dd2-f2bc-4c32-b51f-d370d88f5603" class="edge">
<title>Play #1: Main deployment playbook for integrating submariner (0)-&gt;task_0b14f582-a4fc-4c33-959f-e7552030b435</title>
<path fill="none" stroke="#f697ca" stroke-width="2" d="M938.92,-491.92C1005.84,-494.28 1079.15,-496.86 1149.07,-499.32"/>
<polygon fill="#f697ca" stroke="#f697ca" stroke-width="2" points="1149.24,-502.83 1159.35,-499.69 1149.48,-495.84 1149.24,-502.83"/>
<text text-anchor="middle" x="966.26" y="-496.03" font-family="Times,serif" font-size="14.00" fill="#f697ca">9</text>
<links><link target="task_0b14f582-a4fc-4c33-959f-e7552030b435"/></links></g>
<!-- task_1ada93f4&#45;cc1a&#45;4f5b&#45;bce2&#45;5b763c2f8c7f -->
<g id="task_1ada93f4-cc1a-4f5b-bce2-5b763c2f8c7f" class="node">
<title>task_1ada93f4-cc1a-4f5b-bce2-5b763c2f8c7f</title>
<g id="a_task_1ada93f4-cc1a-4f5b-bce2-5b763c2f8c7f"><a xlink:title="[task] ../../roles/kubeinit_prepare : list all_hosts">
<polygon fill="none" stroke="black" points="1707.64,-448.77 1707.64,-463.68 1562.27,-474.23 1356.68,-474.23 1211.31,-463.68 1211.31,-448.77 1356.68,-438.23 1562.27,-438.23 1707.64,-448.77"/>
<text text-anchor="middle" x="1459.48" y="-452.53" font-family="Times,serif" font-size="14.00">[task] ../../roles/kubeinit_prepare : list all_hosts</text>
</a>
</g>
</g>
<!-- Play #1: Main deployment playbook for integrating submariner (0)&#45;&gt;task_1ada93f4&#45;cc1a&#45;4f5b&#45;bce2&#45;5b763c2f8c7f -->
<g id="edge_336a9000-f0f6-4d71-afde-6f8d242c3b2b" class="edge">
<title>Play #1: Main deployment playbook for integrating submariner (0)-&gt;task_1ada93f4-cc1a-4f5b-bce2-5b763c2f8c7f</title>
<path fill="none" stroke="#f697ca" stroke-width="2" d="M939,-473.87C944.98,-473.65 950.91,-473.44 956.76,-473.23 1038.41,-470.3 1127.53,-467.24 1207.71,-464.53"/>
<polygon fill="#f697ca" stroke="#f697ca" stroke-width="2" points="1208.07,-468.02 1217.95,-464.19 1207.84,-461.02 1208.07,-468.02"/>
<text text-anchor="middle" x="966.26" y="-477.03" font-family="Times,serif" font-size="14.00" fill="#f697ca">10</text>
<links><link target="task_1ada93f4-cc1a-4f5b-bce2-5b763c2f8c7f"/></links></g>
<!-- task_2dbd0d76&#45;92dd&#45;4bbe&#45;8e65&#45;848afe88ec11 -->
<g id="task_2dbd0d76-92dd-4bbe-8e65-848afe88ec11" class="node">
<title>task_2dbd0d76-92dd-4bbe-8e65-848afe88ec11</title>
<g id="a_task_2dbd0d76-92dd-4bbe-8e65-848afe88ec11"><a xlink:title="[task] ../../roles/kubeinit_prepare : list all_nodes">
<polygon fill="none" stroke="black" points="1709.86,-394.77 1709.86,-409.68 1563.19,-420.23 1355.76,-420.23 1209.09,-409.68 1209.09,-394.77 1355.76,-384.23 1563.19,-384.23 1709.86,-394.77"/>
<text text-anchor="middle" x="1459.48" y="-398.53" font-family="Times,serif" font-size="14.00">[task] ../../roles/kubeinit_prepare : list all_nodes</text>
</a>
</g>
</g>
<!-- Play #1: Main deployment playbook for integrating submariner (0)&#45;&gt;task_2dbd0d76&#45;92dd&#45;4bbe&#45;8e65&#45;848afe88ec11 -->
<g id="edge_ccc36df6-2c78-4a0d-a6fa-8eb3bd7cf214" class="edge">
<title>Play #1: Main deployment playbook for integrating submariner (0)-&gt;task_2dbd0d76-92dd-4bbe-8e65-848afe88ec11</title>
<path fill="none" stroke="#f697ca" stroke-width="2" d="M777.31,-465.2C837.48,-453.13 920.23,-437.92 993.76,-429.23 1063.95,-420.93 1140.41,-415.15 1210.67,-411.14"/>
<polygon fill="#f697ca" stroke="#f697ca" stroke-width="2" points="1211.2,-414.62 1220.99,-410.56 1210.81,-407.63 1211.2,-414.62"/>
<text text-anchor="middle" x="966.26" y="-437.03" font-family="Times,serif" font-size="14.00" fill="#f697ca">11</text>
<links><link target="task_2dbd0d76-92dd-4bbe-8e65-848afe88ec11"/></links></g>
<!-- task_1239c27c&#45;66a2&#45;4f63&#45;a885&#45;6cbd7371022f -->
<g id="task_1239c27c-66a2-4f63-a885-6cbd7371022f" class="node">
<title>task_1239c27c-66a2-4f63-a885-6cbd7371022f</title>
<g id="a_task_1239c27c-66a2-4f63-a885-6cbd7371022f"><a xlink:title="[task] ../../roles/kubeinit_prepare : list all_service_nodes">
<polygon fill="none" stroke="black" points="1750.97,-340.77 1750.97,-355.68 1580.22,-366.23 1338.74,-366.23 1167.98,-355.68 1167.98,-340.77 1338.74,-330.23 1580.22,-330.23 1750.97,-340.77"/>
<text text-anchor="middle" x="1459.48" y="-344.53" font-family="Times,serif" font-size="14.00">[task] ../../roles/kubeinit_prepare : list all_service_nodes</text>
</a>
</g>
</g>
<!-- Play #1: Main deployment playbook for integrating submariner (0)&#45;&gt;task_1239c27c&#45;66a2&#45;4f63&#45;a885&#45;6cbd7371022f -->
<g id="edge_dea043ec-1aa1-4d97-9ac3-2101f8d4bf9b" class="edge">
<title>Play #1: Main deployment playbook for integrating submariner (0)-&gt;task_1239c27c-66a2-4f63-a885-6cbd7371022f</title>
<path fill="none" stroke="#f697ca" stroke-width="2" d="M731.22,-465.19C787.69,-439.98 896.24,-395.1 993.76,-375.23 1046.32,-364.52 1102.86,-357.55 1157.79,-353.1"/>
<polygon fill="#f697ca" stroke="#f697ca" stroke-width="2" points="1158.33,-356.56 1168.02,-352.29 1157.78,-349.59 1158.33,-356.56"/>
<text text-anchor="middle" x="966.26" y="-386.03" font-family="Times,serif" font-size="14.00" fill="#f697ca">12</text>
<links><link target="task_1239c27c-66a2-4f63-a885-6cbd7371022f"/></links></g>
<!-- task_a1984e26&#45;d893&#45;4cd3&#45;a7e9&#45;703a1994ef21 -->
<g id="task_a1984e26-d893-4cd3-a7e9-703a1994ef21" class="node">
<title>task_a1984e26-d893-4cd3-a7e9-703a1994ef21</title>
<g id="a_task_a1984e26-d893-4cd3-a7e9-703a1994ef21"><a xlink:title="[task] ../../roles/kubeinit_prepare : list all_cluster_nodes">
<polygon fill="none" stroke="black" points="1750.06,-286.77 1750.06,-301.68 1579.84,-312.23 1339.11,-312.23 1168.89,-301.68 1168.89,-286.77 1339.11,-276.23 1579.84,-276.23 1750.06,-286.77"/>
<text text-anchor="middle" x="1459.48" y="-290.53" font-family="Times,serif" font-size="14.00">[task] ../../roles/kubeinit_prepare : list all_cluster_nodes</text>
</a>
</g>
</g>
<!-- Play #1: Main deployment playbook for integrating submariner (0)&#45;&gt;task_a1984e26&#45;d893&#45;4cd3&#45;a7e9&#45;703a1994ef21 -->
<g id="edge_81efd904-2b0e-44a7-ac6f-08cc77d0824f" class="edge">
<title>Play #1: Main deployment playbook for integrating submariner (0)-&gt;task_a1984e26-d893-4cd3-a7e9-703a1994ef21</title>
<path fill="none" stroke="#f697ca" stroke-width="2" d="M716.85,-465.11C766.29,-429.85 882.55,-352.67 993.76,-321.23 1046.22,-306.4 1103.29,-297.51 1158.91,-292.46"/>
<polygon fill="#f697ca" stroke="#f697ca" stroke-width="2" points="1159.25,-295.94 1168.91,-291.59 1158.65,-288.97 1159.25,-295.94"/>
<text text-anchor="middle" x="966.26" y="-336.03" font-family="Times,serif" font-size="14.00" fill="#f697ca">13</text>
<links><link target="task_a1984e26-d893-4cd3-a7e9-703a1994ef21"/></links></g>
<!-- task_daa3dba0&#45;4767&#45;4c5b&#45;9fd3&#45;fecf0f63c41f -->
<g id="task_daa3dba0-4767-4c5b-9fd3-fecf0f63c41f" class="node">
<title>task_daa3dba0-4767-4c5b-9fd3-fecf0f63c41f</title>
<g id="a_task_daa3dba0-4767-4c5b-9fd3-fecf0f63c41f"><a xlink:title="[task] ../../roles/kubeinit_prepare : list all_master_nodes">
<polygon fill="none" stroke="black" points="1750.06,-232.77 1750.06,-247.68 1579.84,-258.23 1339.11,-258.23 1168.89,-247.68 1168.89,-232.77 1339.11,-222.23 1579.84,-222.23 1750.06,-232.77"/>
<text text-anchor="middle" x="1459.48" y="-236.53" font-family="Times,serif" font-size="14.00">[task] ../../roles/kubeinit_prepare : list all_master_nodes</text>
</a>
</g>
</g>
<!-- Play #1: Main deployment playbook for integrating submariner (0)&#45;&gt;task_daa3dba0&#45;4767&#45;4c5b&#45;9fd3&#45;fecf0f63c41f -->
<g id="edge_499a62ad-e286-4f23-9394-08b40527d758" class="edge">
<title>Play #1: Main deployment playbook for integrating submariner (0)-&gt;task_daa3dba0-4767-4c5b-9fd3-fecf0f63c41f</title>
<path fill="none" stroke="#f697ca" stroke-width="2" d="M709.52,-465.21C752.58,-421.63 870.22,-310.91 993.76,-267.23 1071.03,-239.91 1160.01,-230 1239.29,-227.99"/>
<polygon fill="#f697ca" stroke="#f697ca" stroke-width="2" points="1239.49,-231.48 1249.41,-227.77 1239.34,-224.49 1239.49,-231.48"/>
<text text-anchor="middle" x="966.26" y="-281.03" font-family="Times,serif" font-size="14.00" fill="#f697ca">14</text>
<links><link target="task_daa3dba0-4767-4c5b-9fd3-fecf0f63c41f"/></links></g>
<!-- task_da895c5a&#45;dc2d&#45;490b&#45;b87b&#45;1284d83ea017 -->
<g id="task_da895c5a-dc2d-490b-b87b-1284d83ea017" class="node">
<title>task_da895c5a-dc2d-490b-b87b-1284d83ea017</title>
<g id="a_task_da895c5a-dc2d-490b-b87b-1284d83ea017"><a xlink:title="[task] ../../roles/kubeinit_prepare : list all_worker_nodes">
<polygon fill="none" stroke="black" points="1750.06,-178.77 1750.06,-193.68 1579.84,-204.23 1339.11,-204.23 1168.89,-193.68 1168.89,-178.77 1339.11,-168.23 1579.84,-168.23 1750.06,-178.77"/>
<text text-anchor="middle" x="1459.48" y="-182.53" font-family="Times,serif" font-size="14.00">[task] ../../roles/kubeinit_prepare : list all_worker_nodes</text>
</a>
</g>
</g>
<!-- Play #1: Main deployment playbook for integrating submariner (0)&#45;&gt;task_da895c5a&#45;dc2d&#45;490b&#45;b87b&#45;1284d83ea017 -->
<g id="edge_1338caa5-ecde-4b61-a2b2-d882fbe8bd9e" class="edge">
<title>Play #1: Main deployment playbook for integrating submariner (0)-&gt;task_da895c5a-dc2d-490b-b87b-1284d83ea017</title>
<path fill="none" stroke="#f697ca" stroke-width="2" d="M705.31,-464.97C743.02,-413.9 858.17,-269.63 993.76,-213.23 1088.61,-173.77 1203.84,-166.84 1295.82,-169.87"/>
<polygon fill="#f697ca" stroke="#f697ca" stroke-width="2" points="1295.95,-173.37 1306.07,-170.25 1296.21,-166.38 1295.95,-173.37"/>
<text text-anchor="middle" x="966.26" y="-230.03" font-family="Times,serif" font-size="14.00" fill="#f697ca">15</text>
<links><link target="task_da895c5a-dc2d-490b-b87b-1284d83ea017"/></links></g>
<!-- task_3a921c95&#45;0e87&#45;40c4&#45;8fe9&#45;6dd9fb6a797d -->
<g id="task_3a921c95-0e87-40c4-8fe9-6dd9fb6a797d" class="node">
<title>task_3a921c95-0e87-40c4-8fe9-6dd9fb6a797d</title>
<g id="a_task_3a921c95-0e87-40c4-8fe9-6dd9fb6a797d"><a xlink:title="[task] ../../roles/kubeinit_prepare : list all_bootstrap_nodes">
<polygon fill="none" stroke="black" points="1763.29,-124.77 1763.29,-139.68 1585.32,-150.23 1333.63,-150.23 1155.66,-139.68 1155.66,-124.77 1333.63,-114.23 1585.32,-114.23 1763.29,-124.77"/>
<text text-anchor="middle" x="1459.48" y="-128.53" font-family="Times,serif" font-size="14.00">[task] ../../roles/kubeinit_prepare : list all_bootstrap_nodes</text>
</a>
</g>
</g>
<!-- Play #1: Main deployment playbook for integrating submariner (0)&#45;&gt;task_3a921c95&#45;0e87&#45;40c4&#45;8fe9&#45;6dd9fb6a797d -->
<g id="edge_9559e70c-f79a-47ed-8e0f-6c3893abe7c6" class="edge">
<title>Play #1: Main deployment playbook for integrating submariner (0)-&gt;task_3a921c95-0e87-40c4-8fe9-6dd9fb6a797d</title>
<path fill="none" stroke="#f697ca" stroke-width="2" d="M702.16,-465.18C734.77,-407.76 845.32,-229.06 993.76,-159.23 1094.59,-111.8 1221.6,-107.63 1317.35,-113.87"/>
<polygon fill="#f697ca" stroke="#f697ca" stroke-width="2" points="1317.18,-117.37 1327.39,-114.57 1317.66,-110.39 1317.18,-117.37"/>
<text text-anchor="middle" x="966.26" y="-179.03" font-family="Times,serif" font-size="14.00" fill="#f697ca">16</text>
<links><link target="task_3a921c95-0e87-40c4-8fe9-6dd9fb6a797d"/></links></g>
<!-- task_95795e00&#45;4026&#45;49b9&#45;a938&#45;dfae6951875c -->
<g id="task_95795e00-4026-49b9-a938-dfae6951875c" class="node">
<title>task_95795e00-4026-49b9-a938-dfae6951875c</title>
<g id="a_task_95795e00-4026-49b9-a938-dfae6951875c"><a xlink:title="[task] ../../roles/kubeinit_prepare : define host and node related facts">
<polygon fill="none" stroke="black" points="1815.41,-70.77 1815.41,-85.68 1606.91,-96.23 1312.04,-96.23 1103.54,-85.68 1103.54,-70.77 1312.04,-60.23 1606.91,-60.23 1815.41,-70.77"/>
<text text-anchor="middle" x="1459.48" y="-74.53" font-family="Times,serif" font-size="14.00">[task] ../../roles/kubeinit_prepare : define host and node related facts</text>
</a>
</g>
</g>
<!-- Play #1: Main deployment playbook for integrating submariner (0)&#45;&gt;task_95795e00&#45;4026&#45;49b9&#45;a938&#45;dfae6951875c -->
<g id="edge_44280cfd-4c46-4651-9736-067c24c5a159" class="edge">
<title>Play #1: Main deployment playbook for integrating submariner (0)-&gt;task_95795e00-4026-49b9-a938-dfae6951875c</title>
<path fill="none" stroke="#f697ca" stroke-width="2" d="M700.01,-464.89C728.13,-400.99 831.76,-187.59 993.76,-105.23 1098.83,-51.81 1235,-50.5 1332.74,-59.25"/>
<polygon fill="#f697ca" stroke="#f697ca" stroke-width="2" points="1332.69,-62.76 1342.97,-60.22 1333.35,-55.79 1332.69,-62.76"/>
<text text-anchor="middle" x="966.26" y="-128.03" font-family="Times,serif" font-size="14.00" fill="#f697ca">17</text>
<links><link target="task_95795e00-4026-49b9-a938-dfae6951875c"/></links></g>
<!-- task_15fe0644&#45;f885&#45;4b80&#45;9e11&#45;0455b89e543b -->
<g id="task_15fe0644-f885-4b80-9e11-0455b89e543b" class="node">
<title>task_15fe0644-f885-4b80-9e11-0455b89e543b</title>
<g id="a_task_15fe0644-f885-4b80-9e11-0455b89e543b"><a xlink:title="[task] ../../roles/kubeinit_submariner : Execute subctl verify">
<polygon fill="none" stroke="black" points="1769.96,-16.77 1769.96,-31.68 1588.08,-42.23 1330.87,-42.23 1149,-31.68 1149,-16.77 1330.87,-6.23 1588.08,-6.23 1769.96,-16.77"/>
<text text-anchor="middle" x="1459.48" y="-20.53" font-family="Times,serif" font-size="14.00">[task] ../../roles/kubeinit_submariner : Execute subctl verify</text>
</a>
</g>
</g>
<!-- Play #1: Main deployment playbook for integrating submariner (0)&#45;&gt;task_15fe0644&#45;f885&#45;4b80&#45;9e11&#45;0455b89e543b -->
<g id="edge_cb24cb93-359c-4d6b-b16d-65c25dc2a16b" class="edge">
<title>Play #1: Main deployment playbook for integrating submariner (0)-&gt;task_15fe0644-f885-4b80-9e11-0455b89e543b</title>
<path fill="none" stroke="#f697ca" stroke-width="2" d="M698.05,-465.05C721.36,-395.31 815.79,-144.1 993.76,-51.23 1100.26,4.35 1239.76,4.49 1338.03,-5.17"/>
<polygon fill="#f697ca" stroke="#f697ca" stroke-width="2" points="1337.7,-8.65 1348.01,-6.2 1338.42,-1.69 1337.7,-8.65"/>
<text text-anchor="middle" x="966.26" y="-76.03" font-family="Times,serif" font-size="14.00" fill="#f697ca">18</text>
<links><link target="task_15fe0644-f885-4b80-9e11-0455b89e543b"/></links></g>
</g>
</svg>