<?xml version='1.0' encoding='UTF-8'?>
<!DOCTYPE svg PUBLIC "-//W3C//DTD SVG 1.1//EN" "http://www.w3.org/Graphics/SVG/1.1/DTD/svg11.dtd">
<!-- Generated by graphviz version 2.43.0 (0)
 --><!-- Title: ./playbooks/submariner&#45;subctl&#45;verify.yml  Pages: 1 --><svg xmlns="http://www.w3.org/2000/svg" xmlns:xlink="http://www.w3.org/1999/xlink" width="1919pt" height="807pt" viewBox="0.00 0.00 1919.12 807.41" id="svg">
<script type="text/javascript" href="https://ajax.googleapis.com/ajax/libs/jquery/3.2.1/jquery.min.js" id="jquery"/><script type="text/javascript" id="my_javascript"><![CDATA[const HOVER_CLASS = "my_hover";

var selectedElement = null;

function addClass(rootElement) {
    $(rootElement).find('link').each(function (index, element) {
        var target = $(element).attr('target');
        var currentElement = $('#' + target);
        currentElement.addClass(HOVER_CLASS);

        addClass(currentElement);
    })
}

function removeClass(rootElement, hover) {
    $(rootElement).find('link').each(function (index, element) {
        if ($(rootElement).attr('id') !== $(selectedElement).attr('id') || !hover) {
            var target = $(element).attr('target');
            var currentElement = $('#' + target);
            currentElement.removeClass(HOVER_CLASS);

            removeClass(currentElement);
        }

    })
}

function hoverIn(event) {
    addClass(event.currentTarget);
}

function hoverOut(event) {
    removeClass(event.currentTarget, true);
}

function clickOnElement(event) {
    var newElement = event.currentTarget;

    if ($(newElement).attr('id') === $(selectedElement).attr('id')) {
        removeClass(selectedElement, false);
    } else {
        removeClass(selectedElement);
        addClass(newElement)
    }

    selectedElement = newElement;
}


$("#svg").ready(function () {

    $("g[id^=play_]").hover(hoverIn, hoverOut);
    $("g[id^=role_]").hover(hoverIn, hoverOut);

    $("g[id^=play_]").click(clickOnElement);
    $("g[id^=role_]").click(clickOnElement);

});
]]></script><style type="text/css" id="my_css"><![CDATA[.node:hover, .edge:hover, path:hover, path + polygon:hover {
    cursor: pointer;
    stroke-width: 3;
    font-weight: bolder;
}

.my_hover {
    cursor: pointer;
    stroke-width: 3;
    font-weight: bolder;
}
]]></style><g id="graph0" class="graph" transform="scale(1 1) rotate(0) translate(4 803.41)">
<title>./playbooks/submariner-subctl-verify.yml </title>
<polygon fill="white" stroke="transparent" points="-4,4 -4,-803.41 1915.12,-803.41 1915.12,4 -4,4"/>
<!-- ./playbooks/submariner&#45;subctl&#45;verify.yml -->
<g id="root_node" class="node">
<title>./playbooks/submariner-subctl-verify.yml</title>
<ellipse fill="none" stroke="black" stroke-dasharray="1,5" cx="198.88" cy="-399.72" rx="198.76" ry="18"/>
<text text-anchor="middle" x="198.88" y="-396.02" font-family="Times,serif" font-size="14.00">./playbooks/submariner-subctl-verify.yml</text>
</g>
<!-- Play #1: Main deployment playbook for integrating submariner (0) -->
<g id="play_c097fcfa-0f45-4ec6-9aac-92abf750b6e4" class="node">
<title>Play #1: Main deployment playbook for integrating submariner (0)</title>
<polygon fill="#648eeb" stroke="#648eeb" points="938.76,-417.72 443.76,-417.72 443.76,-381.72 938.76,-381.72 938.76,-417.72"/>
<text text-anchor="middle" x="691.26" y="-396.02" font-family="Times,serif" font-size="14.00" fill="#000000">Play #1: Main deployment playbook for integrating submariner (0)</text>
<links><link target="edge_16e528a2-cb42-452c-aed2-2b654faf657c"/><link target="edge_2b2b6cb5-be3a-4233-b16f-0547be309263"/><link target="edge_211e51a6-6c2f-4708-a1c1-7558b6b8ef39"/><link target="edge_5feb6e22-f3cd-4fae-a258-4bab14c561d7"/><link target="edge_089ba42c-f780-4f46-8550-574b7687e550"/><link target="edge_7bd10ecf-d2e4-4128-81e4-1c2a956b19f3"/><link target="edge_2bd41e9f-44c4-4ed1-8d5f-c2144bf2e981"/><link target="edge_04419a75-4a98-496a-855c-e9d8a38690af"/><link target="edge_8f010dfe-693e-4bf0-b12e-8abfc1744905"/><link target="edge_bddc3e6c-529c-49b8-b499-f1c440b45e19"/><link target="edge_6f6cd377-f0af-4c68-b765-2a7a2b697f3f"/><link target="edge_22ac5d4b-6941-4d91-895e-ff7c1243bfcd"/><link target="edge_f9650894-9e3d-4857-b1d8-629eba713926"/><link target="edge_276b1203-3996-4d79-aecb-848c4190068b"/><link target="edge_effcecd8-4d93-4e98-b10f-c45ec79a6b08"/></links></g>
<!-- ./playbooks/submariner&#45;subctl&#45;verify.yml&#45;&gt;Play #1: Main deployment playbook for integrating submariner (0) -->
<g id="edge_ec46b05d-0d95-4df1-a39f-c213cf99af1a" class="edge">
<title>./playbooks/submariner-subctl-verify.yml-&gt;Play #1: Main deployment playbook for integrating submariner (0)</title>
<path fill="none" stroke="#648eeb" stroke-width="2" d="M397.93,-399.72C409.66,-399.72 421.54,-399.72 433.46,-399.72"/>
<polygon fill="#648eeb" stroke="#648eeb" stroke-width="2" points="433.48,-403.22 443.48,-399.72 433.48,-396.22 433.48,-403.22"/>
<text text-anchor="middle" x="420.76" y="-403.52" font-family="Times,serif" font-size="14.00" fill="#648eeb">1</text>
</g>
<!-- pre_task_303c6ee0&#45;05e8&#45;4933&#45;9585&#45;7d404344c36a -->
<g id="pre_task_303c6ee0-05e8-4933-9585-7d404344c36a" class="node">
<title>pre_task_303c6ee0-05e8-4933-9585-7d404344c36a</title>
<g id="a_pre_task_303c6ee0-05e8-4933-9585-7d404344c36a"><a xlink:title="[pre_task] Check if Ansible meets version requirements.">
<polygon fill="none" stroke="black" points="1746.56,-770.26 1746.56,-785.18 1574.27,-795.72 1330.61,-795.72 1158.32,-785.18 1158.32,-770.26 1330.61,-759.72 1574.27,-759.72 1746.56,-770.26"/>
<text text-anchor="middle" x="1452.44" y="-774.02" font-family="Times,serif" font-size="14.00">[pre_task] Check if Ansible meets version requirements.</text>
</a>
</g>
</g>
<!-- Play #1: Main deployment playbook for integrating submariner (0)&#45;&gt;pre_task_303c6ee0&#45;05e8&#45;4933&#45;9585&#45;7d404344c36a -->
<g id="edge_16e528a2-cb42-452c-aed2-2b654faf657c" class="edge">
<title>Play #1: Main deployment playbook for integrating submariner (0)-&gt;pre_task_303c6ee0-05e8-4933-9585-7d404344c36a</title>
<path fill="none" stroke="#648eeb" stroke-width="2" d="M701.08,-417.95C731.53,-478.59 839.01,-674.04 993.76,-750.72 1094.33,-800.55 1222.97,-803.68 1318.25,-796.43"/>
<polygon fill="#648eeb" stroke="#648eeb" stroke-width="2" points="1318.55,-799.92 1328.23,-795.63 1317.98,-792.94 1318.55,-799.92"/>
<text text-anchor="middle" x="966.26" y="-742.52" font-family="Times,serif" font-size="14.00" fill="#648eeb">1</text>
<links><link target="pre_task_303c6ee0-05e8-4933-9585-7d404344c36a"/></links></g>
<!-- task_bcd598b6&#45;ea29&#45;43c6&#45;892b&#45;17a7e704bd15 -->
<g id="task_bcd598b6-ea29-43c6-892b-17a7e704bd15" class="node">
<title>task_bcd598b6-ea29-43c6-892b-17a7e704bd15</title>
<g id="a_task_bcd598b6-ea29-43c6-892b-17a7e704bd15"><a xlink:title="[task] ../../roles/kubeinit_prepare : Gather variables for each operating system">
<polygon fill="none" stroke="black" points="1856.05,-716.26 1856.05,-731.18 1619.62,-741.72 1285.26,-741.72 1048.83,-731.18 1048.83,-716.26 1285.26,-705.72 1619.62,-705.72 1856.05,-716.26"/>
<text text-anchor="middle" x="1452.44" y="-720.02" font-family="Times,serif" font-size="14.00">[task] ../../roles/kubeinit_prepare : Gather variables for each operating system</text>
</a>
</g>
</g>
<!-- Play #1: Main deployment playbook for integrating submariner (0)&#45;&gt;task_bcd598b6&#45;ea29&#45;43c6&#45;892b&#45;17a7e704bd15 -->
<g id="edge_2b2b6cb5-be3a-4233-b16f-0547be309263" class="edge">
<title>Play #1: Main deployment playbook for integrating submariner (0)-&gt;task_bcd598b6-ea29-43c6-892b-17a7e704bd15</title>
<path fill="none" stroke="#648eeb" stroke-width="2" d="M703.56,-417.8C738.61,-472.05 851.77,-633.58 993.76,-696.72 1080.17,-735.14 1184.93,-743.72 1272.42,-741.87"/>
<polygon fill="#648eeb" stroke="#648eeb" stroke-width="2" points="1272.55,-745.37 1282.45,-741.62 1272.37,-738.37 1272.55,-745.37"/>
<text text-anchor="middle" x="966.26" y="-690.52" font-family="Times,serif" font-size="14.00" fill="#648eeb">2</text>
<links><link target="task_bcd598b6-ea29-43c6-892b-17a7e704bd15"/></links></g>
<!-- task_f82e3201&#45;1b0d&#45;46d4&#45;accc&#45;3e0411f57fc1 -->
<g id="task_f82e3201-1b0d-46d4-accc-3e0411f57fc1" class="node">
<title>task_f82e3201-1b0d-46d4-accc-3e0411f57fc1</title>
<g id="a_task_f82e3201-1b0d-46d4-accc-3e0411f57fc1"><a xlink:title="[task] ../../roles/kubeinit_prepare : add all nodes to the all_nodes group">
<polygon fill="none" stroke="black" points="1818.98,-662.26 1818.98,-677.18 1604.27,-687.72 1300.62,-687.72 1085.9,-677.18 1085.9,-662.26 1300.62,-651.72 1604.27,-651.72 1818.98,-662.26"/>
<text text-anchor="middle" x="1452.44" y="-666.02" font-family="Times,serif" font-size="14.00">[task] ../../roles/kubeinit_prepare : add all nodes to the all_nodes group</text>
</a>
</g>
</g>
<!-- Play #1: Main deployment playbook for integrating submariner (0)&#45;&gt;task_f82e3201&#45;1b0d&#45;46d4&#45;accc&#45;3e0411f57fc1 -->
<g id="edge_211e51a6-6c2f-4708-a1c1-7558b6b8ef39" class="edge">
<title>Play #1: Main deployment playbook for integrating submariner (0)-&gt;task_f82e3201-1b0d-46d4-accc-3e0411f57fc1</title>
<path fill="none" stroke="#648eeb" stroke-width="2" d="M707.2,-417.85C747.51,-465.26 864.27,-592.69 993.76,-642.72 1019.92,-652.82 1047.54,-660.66 1075.72,-666.66"/>
<polygon fill="#648eeb" stroke="#648eeb" stroke-width="2" points="1075.22,-670.12 1085.72,-668.7 1076.62,-663.27 1075.22,-670.12"/>
<text text-anchor="middle" x="966.26" y="-638.52" font-family="Times,serif" font-size="14.00" fill="#648eeb">3</text>
<links><link target="task_f82e3201-1b0d-46d4-accc-3e0411f57fc1"/></links></g>
<!-- task_14bd1fee&#45;30a8&#45;4da6&#45;b12d&#45;fe56813e3a6d -->
<g id="task_14bd1fee-30a8-4da6-b12d-fe56813e3a6d" class="node">
<title>task_14bd1fee-30a8-4da6-b12d-fe56813e3a6d</title>
<g id="a_task_14bd1fee-30a8-4da6-b12d-fe56813e3a6d"><a xlink:title="[task] ../../roles/kubeinit_prepare : add all master nodes to the all_master_nodes group">
<polygon fill="none" stroke="black" points="1897.56,-608.26 1897.56,-623.18 1636.82,-633.72 1268.07,-633.72 1007.32,-623.18 1007.32,-608.26 1268.07,-597.72 1636.82,-597.72 1897.56,-608.26"/>
<text text-anchor="middle" x="1452.44" y="-612.02" font-family="Times,serif" font-size="14.00">[task] ../../roles/kubeinit_prepare : add all master nodes to the all_master_nodes group</text>
</a>
</g>
</g>
<!-- Play #1: Main deployment playbook for integrating submariner (0)&#45;&gt;task_14bd1fee&#45;30a8&#45;4da6&#45;b12d&#45;fe56813e3a6d -->
<g id="edge_5feb6e22-f3cd-4fae-a258-4bab14c561d7" class="edge">
<title>Play #1: Main deployment playbook for integrating submariner (0)-&gt;task_14bd1fee-30a8-4da6-b12d-fe56813e3a6d</title>
<path fill="none" stroke="#648eeb" stroke-width="2" d="M712.69,-417.79C758.84,-457.37 876.37,-551.19 993.76,-588.72 1012.33,-594.66 1031.53,-599.7 1051.08,-603.98"/>
<polygon fill="#648eeb" stroke="#648eeb" stroke-width="2" points="1050.5,-607.43 1061.01,-606.08 1051.95,-600.58 1050.5,-607.43"/>
<text text-anchor="middle" x="966.26" y="-585.52" font-family="Times,serif" font-size="14.00" fill="#648eeb">4</text>
<links><link target="task_14bd1fee-30a8-4da6-b12d-fe56813e3a6d"/></links></g>
<!-- task_51395093&#45;84a0&#45;4b5b&#45;bfc1&#45;a87c80261ddd -->
<g id="task_51395093-84a0-4b5b-bfc1-a87c80261ddd" class="node">
<title>task_51395093-84a0-4b5b-bfc1-a87c80261ddd</title>
<g id="a_task_51395093-84a0-4b5b-bfc1-a87c80261ddd"><a xlink:title="[task] ../../roles/kubeinit_prepare : add all worker nodes to the all_worker_nodes group">
<polygon fill="none" stroke="black" points="1897.56,-554.26 1897.56,-569.18 1636.82,-579.72 1268.07,-579.72 1007.32,-569.18 1007.32,-554.26 1268.07,-543.72 1636.82,-543.72 1897.56,-554.26"/>
<text text-anchor="middle" x="1452.44" y="-558.02" font-family="Times,serif" font-size="14.00">[task] ../../roles/kubeinit_prepare : add all worker nodes to the all_worker_nodes group</text>
</a>
</g>
</g>
<!-- Play #1: Main deployment playbook for integrating submariner (0)&#45;&gt;task_51395093&#45;84a0&#45;4b5b&#45;bfc1&#45;a87c80261ddd -->
<g id="edge_089ba42c-f780-4f46-8550-574b7687e550" class="edge">
<title>Play #1: Main deployment playbook for integrating submariner (0)-&gt;task_51395093-84a0-4b5b-bfc1-a87c80261ddd</title>
<path fill="none" stroke="#648eeb" stroke-width="2" d="M722.61,-417.81C775.53,-448.3 889.03,-509.1 993.76,-534.72 1018.53,-540.78 1044.27,-545.75 1070.34,-549.8"/>
<polygon fill="#648eeb" stroke="#648eeb" stroke-width="2" points="1069.93,-553.28 1080.34,-551.31 1070.98,-546.35 1069.93,-553.28"/>
<text text-anchor="middle" x="966.26" y="-531.52" font-family="Times,serif" font-size="14.00" fill="#648eeb">5</text>
<links><link target="task_51395093-84a0-4b5b-bfc1-a87c80261ddd"/></links></g>
<!-- task_5473fc17&#45;a1f2&#45;4e12&#45;bcd2&#45;24020c5ea5c5 -->
<g id="task_5473fc17-a1f2-4e12-bcd2-24020c5ea5c5" class="node">
<title>task_5473fc17-a1f2-4e12-bcd2-24020c5ea5c5</title>
<g id="a_task_5473fc17-a1f2-4e12-bcd2-24020c5ea5c5"><a xlink:title="[task] ../../roles/kubeinit_prepare : add all bootstrap nodes the all_bootstrap_nodes group">
<polygon fill="none" stroke="black" points="1911.3,-500.26 1911.3,-515.18 1642.51,-525.72 1262.38,-525.72 993.59,-515.18 993.59,-500.26 1262.38,-489.72 1642.51,-489.72 1911.3,-500.26"/>
<text text-anchor="middle" x="1452.44" y="-504.02" font-family="Times,serif" font-size="14.00">[task] ../../roles/kubeinit_prepare : add all bootstrap nodes the all_bootstrap_nodes group</text>
</a>
</g>
</g>
<!-- Play #1: Main deployment playbook for integrating submariner (0)&#45;&gt;task_5473fc17&#45;a1f2&#45;4e12&#45;bcd2&#45;24020c5ea5c5 -->
<g id="edge_7bd10ecf-d2e4-4128-81e4-1c2a956b19f3" class="edge">
<title>Play #1: Main deployment playbook for integrating submariner (0)-&gt;task_5473fc17-a1f2-4e12-bcd2-24020c5ea5c5</title>
<path fill="none" stroke="#648eeb" stroke-width="2" d="M746.01,-417.72C805.76,-436.9 905.49,-466.41 993.76,-480.72 1028.96,-486.42 1065.84,-490.96 1102.75,-494.56"/>
<polygon fill="#648eeb" stroke="#648eeb" stroke-width="2" points="1102.88,-498.09 1113.16,-495.55 1103.54,-491.12 1102.88,-498.09"/>
<text text-anchor="middle" x="966.26" y="-479.52" font-family="Times,serif" font-size="14.00" fill="#648eeb">6</text>
<links><link target="task_5473fc17-a1f2-4e12-bcd2-24020c5ea5c5"/></links></g>
<!-- task_f1eebadf&#45;7188&#45;43e0&#45;8634&#45;b020eb7bb253 -->
<g id="task_f1eebadf-7188-43e0-8634-b020eb7bb253" class="node">
<title>task_f1eebadf-7188-43e0-8634-b020eb7bb253</title>
<g id="a_task_f1eebadf-7188-43e0-8634-b020eb7bb253"><a xlink:title="[task] ../../roles/kubeinit_prepare : add all service nodes to the all_service_nodes group">
<polygon fill="none" stroke="black" points="1899.38,-446.26 1899.38,-461.18 1637.57,-471.72 1267.32,-471.72 1005.51,-461.18 1005.51,-446.26 1267.32,-435.72 1637.57,-435.72 1899.38,-446.26"/>
<text text-anchor="middle" x="1452.44" y="-450.02" font-family="Times,serif" font-size="14.00">[task] ../../roles/kubeinit_prepare : add all service nodes to the all_service_nodes group</text>
</a>
</g>
</g>
<!-- Play #1: Main deployment playbook for integrating submariner (0)&#45;&gt;task_f1eebadf&#45;7188&#45;43e0&#45;8634&#45;b020eb7bb253 -->
<g id="edge_2bd41e9f-44c4-4ed1-8d5f-c2144bf2e981" class="edge">
<title>Play #1: Main deployment playbook for integrating submariner (0)-&gt;task_f1eebadf-7188-43e0-8634-b020eb7bb253</title>
<path fill="none" stroke="#648eeb" stroke-width="2" d="M883.59,-417.74C920.15,-420.93 958.13,-424.07 993.76,-426.72 1051.17,-430.98 1112.66,-434.99 1171.35,-438.55"/>
<polygon fill="#648eeb" stroke="#648eeb" stroke-width="2" points="1171.32,-442.05 1181.51,-439.16 1171.74,-435.07 1171.32,-442.05"/>
<text text-anchor="middle" x="966.26" y="-428.52" font-family="Times,serif" font-size="14.00" fill="#648eeb">7</text>
<links><link target="task_f1eebadf-7188-43e0-8634-b020eb7bb253"/></links></g>
<!-- task_639f777d&#45;b1af&#45;4ced&#45;99cf&#45;98b702c40e0f -->
<g id="task_639f777d-b1af-4ced-99cf-98b702c40e0f" class="node">
<title>task_639f777d-b1af-4ced-99cf-98b702c40e0f</title>
<g id="a_task_639f777d-b1af-4ced-99cf-98b702c40e0f"><a xlink:title="[task] ../../roles/kubeinit_prepare : add all hosts to the all_hosts group">
<polygon fill="none" stroke="black" points="1814.13,-392.26 1814.13,-407.18 1602.26,-417.72 1302.62,-417.72 1090.75,-407.18 1090.75,-392.26 1302.62,-381.72 1602.26,-381.72 1814.13,-392.26"/>
<text text-anchor="middle" x="1452.44" y="-396.02" font-family="Times,serif" font-size="14.00">[task] ../../roles/kubeinit_prepare : add all hosts to the all_hosts group</text>
</a>
</g>
</g>
<!-- Play #1: Main deployment playbook for integrating submariner (0)&#45;&gt;task_639f777d&#45;b1af&#45;4ced&#45;99cf&#45;98b702c40e0f -->
<g id="edge_04419a75-4a98-496a-855c-e9d8a38690af" class="edge">
<title>Play #1: Main deployment playbook for integrating submariner (0)-&gt;task_639f777d-b1af-4ced-99cf-98b702c40e0f</title>
<path fill="none" stroke="#648eeb" stroke-width="2" d="M939.01,-399.72C984.27,-399.72 1032.42,-399.72 1080.39,-399.72"/>
<polygon fill="#648eeb" stroke="#648eeb" stroke-width="2" points="1080.62,-403.22 1090.62,-399.72 1080.62,-396.22 1080.62,-403.22"/>
<text text-anchor="middle" x="966.26" y="-403.52" font-family="Times,serif" font-size="14.00" fill="#648eeb">8</text>
<links><link target="task_639f777d-b1af-4ced-99cf-98b702c40e0f"/></links></g>
<!-- task_694202bb&#45;3199&#45;4849&#45;b957&#45;2fdf32e6d672 -->
<g id="task_694202bb-3199-4849-b957-2fdf32e6d672" class="node">
<title>task_694202bb-3199-4849-b957-2fdf32e6d672</title>
<g id="a_task_694202bb-3199-4849-b957-2fdf32e6d672"><a xlink:title="[task] ../../roles/kubeinit_prepare : list all_hosts">
<polygon fill="none" stroke="black" points="1700.61,-338.26 1700.61,-353.18 1555.24,-363.72 1349.65,-363.72 1204.28,-353.18 1204.28,-338.26 1349.65,-327.72 1555.24,-327.72 1700.61,-338.26"/>
<text text-anchor="middle" x="1452.44" y="-342.02" font-family="Times,serif" font-size="14.00">[task] ../../roles/kubeinit_prepare : list all_hosts</text>
</a>
</g>
</g>
<!-- Play #1: Main deployment playbook for integrating submariner (0)&#45;&gt;task_694202bb&#45;3199&#45;4849&#45;b957&#45;2fdf32e6d672 -->
<g id="edge_8f010dfe-693e-4bf0-b12e-8abfc1744905" class="edge">
<title>Play #1: Main deployment playbook for integrating submariner (0)-&gt;task_694202bb-3199-4849-b957-2fdf32e6d672</title>
<path fill="none" stroke="#648eeb" stroke-width="2" d="M883.59,-381.71C920.15,-378.51 958.13,-375.37 993.76,-372.72 1073.43,-366.8 1160.98,-361.38 1237.99,-356.96"/>
<polygon fill="#648eeb" stroke="#648eeb" stroke-width="2" points="1238.51,-360.44 1248.3,-356.38 1238.11,-353.45 1238.51,-360.44"/>
<text text-anchor="middle" x="966.26" y="-378.52" font-family="Times,serif" font-size="14.00" fill="#648eeb">9</text>
<links><link target="task_694202bb-3199-4849-b957-2fdf32e6d672"/></links></g>
<!-- task_8b9f93fd&#45;a7f9&#45;40af&#45;8501&#45;8acfb45c90ee -->
<g id="task_8b9f93fd-a7f9-40af-8501-8acfb45c90ee" class="node">
<title>task_8b9f93fd-a7f9-40af-8501-8acfb45c90ee</title>
<g id="a_task_8b9f93fd-a7f9-40af-8501-8acfb45c90ee"><a xlink:title="[task] ../../roles/kubeinit_prepare : list all_nodes">
<polygon fill="none" stroke="black" points="1702.83,-284.26 1702.83,-299.18 1556.16,-309.72 1348.73,-309.72 1202.06,-299.18 1202.06,-284.26 1348.73,-273.72 1556.16,-273.72 1702.83,-284.26"/>
<text text-anchor="middle" x="1452.44" y="-288.02" font-family="Times,serif" font-size="14.00">[task] ../../roles/kubeinit_prepare : list all_nodes</text>
</a>
</g>
</g>
<!-- Play #1: Main deployment playbook for integrating submariner (0)&#45;&gt;task_8b9f93fd&#45;a7f9&#45;40af&#45;8501&#45;8acfb45c90ee -->
<g id="edge_bddc3e6c-529c-49b8-b499-f1c440b45e19" class="edge">
<title>Play #1: Main deployment playbook for integrating submariner (0)-&gt;task_8b9f93fd-a7f9-40af-8501-8acfb45c90ee</title>
<path fill="none" stroke="#648eeb" stroke-width="2" d="M746.01,-381.72C805.76,-362.54 905.49,-333.03 993.76,-318.72 1057.44,-308.4 1126.66,-301.91 1191.54,-297.85"/>
<polygon fill="#648eeb" stroke="#648eeb" stroke-width="2" points="1192.15,-301.32 1201.92,-297.22 1191.72,-294.34 1192.15,-301.32"/>
<text text-anchor="middle" x="966.26" y="-327.52" font-family="Times,serif" font-size="14.00" fill="#648eeb">10</text>
<links><link target="task_8b9f93fd-a7f9-40af-8501-8acfb45c90ee"/></links></g>
<!-- task_34c689f4&#45;5134&#45;4783&#45;be6d&#45;2673be18a75b -->
<g id="task_34c689f4-5134-4783-be6d-2673be18a75b" class="node">
<title>task_34c689f4-5134-4783-be6d-2673be18a75b</title>
<g id="a_task_34c689f4-5134-4783-be6d-2673be18a75b"><a xlink:title="[task] ../../roles/kubeinit_prepare : list all_master_nodes">
<polygon fill="none" stroke="black" points="1743.03,-230.26 1743.03,-245.18 1572.81,-255.72 1332.08,-255.72 1161.86,-245.18 1161.86,-230.26 1332.08,-219.72 1572.81,-219.72 1743.03,-230.26"/>
<text text-anchor="middle" x="1452.44" y="-234.02" font-family="Times,serif" font-size="14.00">[task] ../../roles/kubeinit_prepare : list all_master_nodes</text>
</a>
</g>
</g>
<!-- Play #1: Main deployment playbook for integrating submariner (0)&#45;&gt;task_34c689f4&#45;5134&#45;4783&#45;be6d&#45;2673be18a75b -->
<g id="edge_6f6cd377-f0af-4c68-b765-2a7a2b697f3f" class="edge">
<title>Play #1: Main deployment playbook for integrating submariner (0)-&gt;task_34c689f4-5134-4783-be6d-2673be18a75b</title>
<path fill="none" stroke="#648eeb" stroke-width="2" d="M722.61,-381.63C775.53,-351.14 889.03,-290.35 993.76,-264.72 1044.15,-252.39 1098.55,-244.59 1151.65,-239.81"/>
<polygon fill="#648eeb" stroke="#648eeb" stroke-width="2" points="1152.24,-243.27 1161.9,-238.92 1151.63,-236.3 1152.24,-243.27"/>
<text text-anchor="middle" x="966.26" y="-277.52" font-family="Times,serif" font-size="14.00" fill="#648eeb">11</text>
<links><link target="task_34c689f4-5134-4783-be6d-2673be18a75b"/></links></g>
<!-- task_24a54957&#45;a614&#45;453c&#45;9ab4&#45;88edddfeee7a -->
<g id="task_24a54957-a614-453c-9ab4-88edddfeee7a" class="node">
<title>task_24a54957-a614-453c-9ab4-88edddfeee7a</title>
<g id="a_task_24a54957-a614-453c-9ab4-88edddfeee7a"><a xlink:title="[task] ../../roles/kubeinit_prepare : list all_worker_nodes">
<polygon fill="none" stroke="black" points="1743.03,-176.26 1743.03,-191.18 1572.81,-201.72 1332.08,-201.72 1161.86,-191.18 1161.86,-176.26 1332.08,-165.72 1572.81,-165.72 1743.03,-176.26"/>
<text text-anchor="middle" x="1452.44" y="-180.02" font-family="Times,serif" font-size="14.00">[task] ../../roles/kubeinit_prepare : list all_worker_nodes</text>
</a>
</g>
</g>
<!-- Play #1: Main deployment playbook for integrating submariner (0)&#45;&gt;task_24a54957&#45;a614&#45;453c&#45;9ab4&#45;88edddfeee7a -->
<g id="edge_22ac5d4b-6941-4d91-895e-ff7c1243bfcd" class="edge">
<title>Play #1: Main deployment playbook for integrating submariner (0)-&gt;task_24a54957-a614-453c-9ab4-88edddfeee7a</title>
<path fill="none" stroke="#648eeb" stroke-width="2" d="M712.69,-381.65C758.84,-342.07 876.37,-248.25 993.76,-210.72 1043.73,-194.75 1098.29,-185.21 1151.78,-179.85"/>
<polygon fill="#648eeb" stroke="#648eeb" stroke-width="2" points="1152.14,-183.33 1161.76,-178.9 1151.47,-176.36 1152.14,-183.33"/>
<text text-anchor="middle" x="966.26" y="-227.52" font-family="Times,serif" font-size="14.00" fill="#648eeb">12</text>
<links><link target="task_24a54957-a614-453c-9ab4-88edddfeee7a"/></links></g>
<!-- task_33e82140&#45;dcd1&#45;4d5d&#45;8218&#45;79873a0ecb83 -->
<g id="task_33e82140-dcd1-4d5d-8218-79873a0ecb83" class="node">
<title>task_33e82140-dcd1-4d5d-8218-79873a0ecb83</title>
<g id="a_task_33e82140-dcd1-4d5d-8218-79873a0ecb83"><a xlink:title="[task] ../../roles/kubeinit_prepare : list all_service_nodes">
<polygon fill="none" stroke="black" points="1743.93,-122.26 1743.93,-137.18 1573.18,-147.72 1331.7,-147.72 1160.95,-137.18 1160.95,-122.26 1331.7,-111.72 1573.18,-111.72 1743.93,-122.26"/>
<text text-anchor="middle" x="1452.44" y="-126.02" font-family="Times,serif" font-size="14.00">[task] ../../roles/kubeinit_prepare : list all_service_nodes</text>
</a>
</g>
</g>
<!-- Play #1: Main deployment playbook for integrating submariner (0)&#45;&gt;task_33e82140&#45;dcd1&#45;4d5d&#45;8218&#45;79873a0ecb83 -->
<g id="edge_f9650894-9e3d-4857-b1d8-629eba713926" class="edge">
<title>Play #1: Main deployment playbook for integrating submariner (0)-&gt;task_33e82140-dcd1-4d5d-8218-79873a0ecb83</title>
<path fill="none" stroke="#648eeb" stroke-width="2" d="M707.2,-381.59C747.51,-334.18 864.27,-206.75 993.76,-156.72 1078.49,-123.99 1178.61,-115.07 1263.58,-115.25"/>
<polygon fill="#648eeb" stroke="#648eeb" stroke-width="2" points="1263.57,-118.75 1273.6,-115.31 1263.62,-111.75 1263.57,-118.75"/>
<text text-anchor="middle" x="966.26" y="-172.52" font-family="Times,serif" font-size="14.00" fill="#648eeb">13</text>
<links><link target="task_33e82140-dcd1-4d5d-8218-79873a0ecb83"/></links></g>
<!-- task_8b31dbd6&#45;71fb&#45;4dbd&#45;8b35&#45;9237ffe659d4 -->
<g id="task_8b31dbd6-71fb-4dbd-8b35-9237ffe659d4" class="node">
<title>task_8b31dbd6-71fb-4dbd-8b35-9237ffe659d4</title>
<g id="a_task_8b31dbd6-71fb-4dbd-8b35-9237ffe659d4"><a xlink:title="[task] ../../roles/kubeinit_prepare : list all_bootstrap_nodes">
<polygon fill="none" stroke="black" points="1756.26,-68.26 1756.26,-83.18 1578.29,-93.72 1326.6,-93.72 1148.62,-83.18 1148.62,-68.26 1326.6,-57.72 1578.29,-57.72 1756.26,-68.26"/>
<text text-anchor="middle" x="1452.44" y="-72.02" font-family="Times,serif" font-size="14.00">[task] ../../roles/kubeinit_prepare : list all_bootstrap_nodes</text>
</a>
</g>
</g>
<!-- Play #1: Main deployment playbook for integrating submariner (0)&#45;&gt;task_8b31dbd6&#45;71fb&#45;4dbd&#45;8b35&#45;9237ffe659d4 -->
<g id="edge_276b1203-3996-4d79-aecb-848c4190068b" class="edge">
<title>Play #1: Main deployment playbook for integrating submariner (0)-&gt;task_8b31dbd6-71fb-4dbd-8b35-9237ffe659d4</title>
<path fill="none" stroke="#648eeb" stroke-width="2" d="M703.56,-381.64C738.61,-327.39 851.77,-165.86 993.76,-102.72 1088.4,-60.64 1205.08,-54.36 1296.94,-58.36"/>
<polygon fill="#648eeb" stroke="#648eeb" stroke-width="2" points="1297,-61.87 1307.16,-58.85 1297.34,-54.88 1297,-61.87"/>
<text text-anchor="middle" x="966.26" y="-121.52" font-family="Times,serif" font-size="14.00" fill="#648eeb">14</text>
<links><link target="task_8b31dbd6-71fb-4dbd-8b35-9237ffe659d4"/></links></g>
<!-- task_2df2f82e&#45;682a&#45;4d7d&#45;906a&#45;14493997a771 -->
<g id="task_2df2f82e-682a-4d7d-906a-14493997a771" class="node">
<title>task_2df2f82e-682a-4d7d-906a-14493997a771</title>
<g id="a_task_2df2f82e-682a-4d7d-906a-14493997a771"><a xlink:title="[task] ../../roles/kubeinit_submariner : Execute subctl verify">
<polygon fill="none" stroke="black" points="1762.92,-14.26 1762.92,-29.18 1581.05,-39.72 1323.84,-39.72 1141.96,-29.18 1141.96,-14.26 1323.84,-3.72 1581.05,-3.72 1762.92,-14.26"/>
<text text-anchor="middle" x="1452.44" y="-18.02" font-family="Times,serif" font-size="14.00">[task] ../../roles/kubeinit_submariner : Execute subctl verify</text>
</a>
</g>
</g>
<!-- Play #1: Main deployment playbook for integrating submariner (0)&#45;&gt;task_2df2f82e&#45;682a&#45;4d7d&#45;906a&#45;14493997a771 -->
<g id="edge_effcecd8-4d93-4e98-b10f-c45ec79a6b08" class="edge">
<title>Play #1: Main deployment playbook for integrating submariner (0)-&gt;task_2df2f82e-682a-4d7d-906a-14493997a771</title>
<path fill="none" stroke="#648eeb" stroke-width="2" d="M701.08,-381.5C731.53,-320.86 839.01,-125.4 993.76,-48.72 1093.82,0.85 1221.65,4.2 1316.77,-2.9"/>
<polygon fill="#648eeb" stroke="#648eeb" stroke-width="2" points="1316.5,-6.39 1326.75,-3.69 1317.06,0.59 1316.5,-6.39"/>
<text text-anchor="middle" x="966.26" y="-70.52" font-family="Times,serif" font-size="14.00" fill="#648eeb">15</text>
<links><link target="task_2df2f82e-682a-4d7d-906a-14493997a771"/></links></g>
</g>
</svg>