<?xml version="1.0" encoding="UTF-8" standalone="no"?>
<!DOCTYPE svg PUBLIC "-//W3C//DTD SVG 1.1//EN"
 "http://www.w3.org/Graphics/SVG/1.1/DTD/svg11.dtd">
<!-- Generated by graphviz version 2.43.0 (0)
 -->
<!-- Title: kubeinit/playbook.yml  Pages: 1 -->
<svg width="2537pt" height="1467pt"
 viewBox="0.00 0.00 2537.49 1467.23" xmlns="http://www.w3.org/2000/svg" xmlns:xlink="http://www.w3.org/1999/xlink">
<g id="graph0" class="graph" transform="scale(1 1) rotate(0) translate(4 1463.23)">
<title>kubeinit/playbook.yml </title>
<polygon fill="white" stroke="transparent" points="-4,4 -4,-1463.23 2533.49,-1463.23 2533.49,4 -4,4"/>
<!-- kubeinit/playbook.yml -->
<g id="root_node" class="node">
<title>kubeinit/playbook.yml</title>
<ellipse fill="none" stroke="black" stroke-dasharray="1,5" cx="113.09" cy="-748.23" rx="113.18" ry="18"/>
<text text-anchor="middle" x="113.09" y="-744.53" font-family="Times,serif" font-size="14.00">kubeinit/playbook.yml</text>
</g>
<!-- task&#45;create&#45;network -->
<g id="play_fb4211e2&#45;b4a4&#45;4fc7&#45;ad61&#45;6e198e01b228" class="node">
<title>task&#45;create&#45;network</title>
<g id="a_play_fb4211e2&#45;b4a4&#45;4fc7&#45;ad61&#45;6e198e01b228"><a xlink:title="localhost">
<polygon fill="none" stroke="#000000" points="495.75,-740.77 495.75,-755.68 430.31,-766.23 337.76,-766.23 272.32,-755.68 272.32,-740.77 337.76,-730.23 430.31,-730.23 495.75,-740.77"/>
<text text-anchor="middle" x="384.04" y="-744.53" font-family="Times,serif" font-size="14.00" fill="#000000">task&#45;create&#45;network</text>
</a>
</g>
</g>
<!-- kubeinit/playbook.yml&#45;&gt;task&#45;create&#45;network -->
<g id="edge_aac184b7&#45;ac32&#45;43e1&#45;9dc2&#45;584b4d301c19" class="edge">
<title>kubeinit/playbook.yml&#45;&gt;task&#45;create&#45;network</title>
<path fill="none" stroke="#000000" stroke-width="2" d="M226.2,-748.23C237.9,-748.23 249.84,-748.23 261.64,-748.23"/>
<polygon fill="#000000" stroke="#000000" stroke-width="2" points="261.97,-751.73 271.97,-748.23 261.97,-744.73 261.97,-751.73"/>
<text text-anchor="middle" x="249.18" y="-752.03" font-family="Times,serif" font-size="14.00" fill="#000000">3</text>
</g>
<!-- task_9e73d245&#45;e32a&#45;42e7&#45;86ef&#45;31b03699c605 -->
<g id="task_9e73d245&#45;e32a&#45;42e7&#45;86ef&#45;31b03699c605" class="node">
<title>task_9e73d245&#45;e32a&#45;42e7&#45;86ef&#45;31b03699c605</title>
<g id="a_task_9e73d245&#45;e32a&#45;42e7&#45;86ef&#45;31b03699c605"><a xlink:title="[task] kubeinit.kubeinit.kubeinit_libvirt : Install OVN packages in CentOS/RHEL">
<polygon fill="none" stroke="black" points="2338.09,-1415.77 2338.09,-1430.68 2096.22,-1441.23 1754.16,-1441.23 1512.29,-1430.68 1512.29,-1415.77 1754.16,-1405.23 2096.22,-1405.23 2338.09,-1415.77"/>
<text text-anchor="middle" x="1925.19" y="-1419.53" font-family="Times,serif" font-size="14.00">[task] kubeinit.kubeinit.kubeinit_libvirt : Install OVN packages in CentOS/RHEL</text>
</a>
</g>
</g>
<!-- task&#45;create&#45;network&#45;&gt;task_9e73d245&#45;e32a&#45;42e7&#45;86ef&#45;31b03699c605 -->
<g id="edge_db0c3926&#45;b9d9&#45;4f5a&#45;9dad&#45;262824d9cf4b" class="edge">
<title>task&#45;create&#45;network&#45;&gt;task_9e73d245&#45;e32a&#45;42e7&#45;86ef&#45;31b03699c605</title>
<path fill="none" stroke="#000000" stroke-width="2" d="M385.75,-766.26C389.94,-861.61 414.66,-1305.95 513.89,-1389.23 595.9,-1458.06 1223.91,-1448.72 1613.74,-1435.89"/>
<polygon fill="#000000" stroke="#000000" stroke-width="2" points="1613.88,-1439.39 1623.76,-1435.56 1613.65,-1432.39 1613.88,-1439.39"/>
<text text-anchor="middle" x="908.39" y="-1448.03" font-family="Times,serif" font-size="14.00" fill="#000000">1 &#160;[when: hostvars[kubeinit_ovn_central_host].distribution_family == &#39;CentOS&#39;]</text>
</g>
<!-- task_19e36c88&#45;6cb9&#45;497d&#45;a54f&#45;b27e6c02b3a1 -->
<g id="task_19e36c88&#45;6cb9&#45;497d&#45;a54f&#45;b27e6c02b3a1" class="node">
<title>task_19e36c88&#45;6cb9&#45;497d&#45;a54f&#45;b27e6c02b3a1</title>
<g id="a_task_19e36c88&#45;6cb9&#45;497d&#45;a54f&#45;b27e6c02b3a1"><a xlink:title="[task] kubeinit.kubeinit.kubeinit_libvirt : Install OVN packages in Fedora">
<polygon fill="none" stroke="black" points="2301.43,-1361.77 2301.43,-1376.68 2081.03,-1387.23 1769.35,-1387.23 1548.95,-1376.68 1548.95,-1361.77 1769.35,-1351.23 2081.03,-1351.23 2301.43,-1361.77"/>
<text text-anchor="middle" x="1925.19" y="-1365.53" font-family="Times,serif" font-size="14.00">[task] kubeinit.kubeinit.kubeinit_libvirt : Install OVN packages in Fedora</text>
</a>
</g>
</g>
<!-- task&#45;create&#45;network&#45;&gt;task_19e36c88&#45;6cb9&#45;497d&#45;a54f&#45;b27e6c02b3a1 -->
<g id="edge_38db797d&#45;7caa&#45;469e&#45;9197&#45;71ec76bfee41" class="edge">
<title>task&#45;create&#45;network&#45;&gt;task_19e36c88&#45;6cb9&#45;497d&#45;a54f&#45;b27e6c02b3a1</title>
<path fill="none" stroke="#000000" stroke-width="2" d="M386.12,-766.52C391.94,-857.51 422.61,-1259.99 513.89,-1335.23 553.12,-1367.56 1134.79,-1372.26 1538.72,-1371.56"/>
<polygon fill="#000000" stroke="#000000" stroke-width="2" points="1538.83,-1375.06 1548.82,-1371.54 1538.81,-1368.06 1538.83,-1375.06"/>
<text text-anchor="middle" x="908.39" y="-1374.03" font-family="Times,serif" font-size="14.00" fill="#000000">2 &#160;[when: hostvars[kubeinit_ovn_central_host].distribution_family == &#39;Fedora&#39;]</text>
</g>
<!-- task_bfb085b8&#45;8df0&#45;44c8&#45;b157&#45;499cdf69b976 -->
<g id="task_bfb085b8&#45;8df0&#45;44c8&#45;b157&#45;499cdf69b976" class="node">
<title>task_bfb085b8&#45;8df0&#45;44c8&#45;b157&#45;499cdf69b976</title>
<g id="a_task_bfb085b8&#45;8df0&#45;44c8&#45;b157&#45;499cdf69b976"><a xlink:title="[task] kubeinit.kubeinit.kubeinit_libvirt : Install OVN packages in Ubuntu/Debian">
<polygon fill="none" stroke="black" points="2342.94,-1307.77 2342.94,-1322.68 2098.23,-1333.23 1752.15,-1333.23 1507.44,-1322.68 1507.44,-1307.77 1752.15,-1297.23 2098.23,-1297.23 2342.94,-1307.77"/>
<text text-anchor="middle" x="1925.19" y="-1311.53" font-family="Times,serif" font-size="14.00">[task] kubeinit.kubeinit.kubeinit_libvirt : Install OVN packages in Ubuntu/Debian</text>
</a>
</g>
</g>
<!-- task&#45;create&#45;network&#45;&gt;task_bfb085b8&#45;8df0&#45;44c8&#45;b157&#45;499cdf69b976 -->
<g id="edge_cc26bcb3&#45;922a&#45;455d&#45;a695&#45;faceb5ea5889" class="edge">
<title>task&#45;create&#45;network&#45;&gt;task_bfb085b8&#45;8df0&#45;44c8&#45;b157&#45;499cdf69b976</title>
<path fill="none" stroke="#000000" stroke-width="2" d="M386.53,-766.25C394,-851.61 430.35,-1213.83 513.89,-1281.23 552.11,-1312.06 1096.14,-1317.61 1497.1,-1317.44"/>
<polygon fill="#000000" stroke="#000000" stroke-width="2" points="1497.14,-1320.94 1507.14,-1317.44 1497.14,-1313.94 1497.14,-1320.94"/>
<text text-anchor="middle" x="908.39" y="-1320.03" font-family="Times,serif" font-size="14.00" fill="#000000">3 &#160;[when: hostvars[kubeinit_ovn_central_host].distribution_family == &#39;Debian&#39;]</text>
</g>
<!-- task_f75f1647&#45;ce98&#45;4508&#45;8f27&#45;6627c2a22afe -->
<g id="task_f75f1647&#45;ce98&#45;4508&#45;8f27&#45;6627c2a22afe" class="node">
<title>task_f75f1647&#45;ce98&#45;4508&#45;8f27&#45;6627c2a22afe</title>
<g id="a_task_f75f1647&#45;ce98&#45;4508&#45;8f27&#45;6627c2a22afe"><a xlink:title="[task] kubeinit.kubeinit.kubeinit_libvirt : Collect all HVs which are not the ovn&#45;central host">
<polygon fill="none" stroke="black" points="2392.84,-1253.77 2392.84,-1268.68 2118.9,-1279.23 1731.49,-1279.23 1457.55,-1268.68 1457.55,-1253.77 1731.49,-1243.23 2118.9,-1243.23 2392.84,-1253.77"/>
<text text-anchor="middle" x="1925.19" y="-1257.53" font-family="Times,serif" font-size="14.00">[task] kubeinit.kubeinit.kubeinit_libvirt : Collect all HVs which are not the ovn&#45;central host</text>
</a>
</g>
</g>
<!-- task&#45;create&#45;network&#45;&gt;task_f75f1647&#45;ce98&#45;4508&#45;8f27&#45;6627c2a22afe -->
<g id="edge_090d8b83&#45;52e4&#45;48db&#45;86bb&#45;071e948e9c41" class="edge">
<title>task&#45;create&#45;network&#45;&gt;task_f75f1647&#45;ce98&#45;4508&#45;8f27&#45;6627c2a22afe</title>
<path fill="none" stroke="#000000" stroke-width="2" d="M387.05,-766.28C396.37,-846.31 438.14,-1167.7 513.89,-1227.23 550.91,-1256.32 1052.48,-1262.73 1447.05,-1263.21"/>
<polygon fill="#000000" stroke="#000000" stroke-width="2" points="1447.22,-1266.71 1457.23,-1263.22 1447.23,-1259.71 1447.22,-1266.71"/>
<text text-anchor="middle" x="908.39" y="-1266.03" font-family="Times,serif" font-size="14.00" fill="#000000">4 &#160;[when: ovn_host not in kubeinit_ovn_central_host]</text>
</g>
<!-- task_4e779881&#45;ceee&#45;4347&#45;af2f&#45;aac9e9d58f80 -->
<g id="task_4e779881&#45;ceee&#45;4347&#45;af2f&#45;aac9e9d58f80" class="node">
<title>task_4e779881&#45;ceee&#45;4347&#45;af2f&#45;aac9e9d58f80</title>
<g id="a_task_4e779881&#45;ceee&#45;4347&#45;af2f&#45;aac9e9d58f80"><a xlink:title="[task] kubeinit.kubeinit.kubeinit_libvirt : Install OVN packages in CentOS/RHEL">
<polygon fill="none" stroke="black" points="2338.09,-1199.77 2338.09,-1214.68 2096.22,-1225.23 1754.16,-1225.23 1512.29,-1214.68 1512.29,-1199.77 1754.16,-1189.23 2096.22,-1189.23 2338.09,-1199.77"/>
<text text-anchor="middle" x="1925.19" y="-1203.53" font-family="Times,serif" font-size="14.00">[task] kubeinit.kubeinit.kubeinit_libvirt : Install OVN packages in CentOS/RHEL</text>
</a>
</g>
</g>
<!-- task&#45;create&#45;network&#45;&gt;task_4e779881&#45;ceee&#45;4347&#45;af2f&#45;aac9e9d58f80 -->
<g id="edge_d34c30e4&#45;2ba4&#45;4099&#45;a13e&#45;bd57f9992cb1" class="edge">
<title>task&#45;create&#45;network&#45;&gt;task_4e779881&#45;ceee&#45;4347&#45;af2f&#45;aac9e9d58f80</title>
<path fill="none" stroke="#000000" stroke-width="2" d="M387.68,-766.28C398.96,-840.71 445.7,-1122.37 513.89,-1174.23 553.13,-1204.07 1101,-1209.43 1502.1,-1209.29"/>
<polygon fill="#000000" stroke="#000000" stroke-width="2" points="1502.15,-1212.79 1512.14,-1209.29 1502.14,-1205.79 1502.15,-1212.79"/>
<text text-anchor="middle" x="908.39" y="-1212.03" font-family="Times,serif" font-size="14.00" fill="#000000">5 &#160;[when: hostvars[ovn_host].distribution_family == &#39;CentOS&#39;]</text>
</g>
<!-- task_53ad6b1d&#45;4fd8&#45;4bc0&#45;9c60&#45;37d19166d0a8 -->
<g id="task_53ad6b1d&#45;4fd8&#45;4bc0&#45;9c60&#45;37d19166d0a8" class="node">
<title>task_53ad6b1d&#45;4fd8&#45;4bc0&#45;9c60&#45;37d19166d0a8</title>
<g id="a_task_53ad6b1d&#45;4fd8&#45;4bc0&#45;9c60&#45;37d19166d0a8"><a xlink:title="[task] kubeinit.kubeinit.kubeinit_libvirt : Install OVN packages in Fedora">
<polygon fill="none" stroke="black" points="2301.43,-1145.77 2301.43,-1160.68 2081.03,-1171.23 1769.35,-1171.23 1548.95,-1160.68 1548.95,-1145.77 1769.35,-1135.23 2081.03,-1135.23 2301.43,-1145.77"/>
<text text-anchor="middle" x="1925.19" y="-1149.53" font-family="Times,serif" font-size="14.00">[task] kubeinit.kubeinit.kubeinit_libvirt : Install OVN packages in Fedora</text>
</a>
</g>
</g>
<!-- task&#45;create&#45;network&#45;&gt;task_53ad6b1d&#45;4fd8&#45;4bc0&#45;9c60&#45;37d19166d0a8 -->
<g id="edge_8f625224&#45;e6d5&#45;47d4&#45;bc6f&#45;ea75fa82c04b" class="edge">
<title>task&#45;create&#45;network&#45;&gt;task_53ad6b1d&#45;4fd8&#45;4bc0&#45;9c60&#45;37d19166d0a8</title>
<path fill="none" stroke="#000000" stroke-width="2" d="M384.69,-766.41C384.62,-828.86 393.79,-1035.56 513.89,-1123.23 554.92,-1153.18 1135.21,-1156.91 1538.49,-1155.82"/>
<polygon fill="#000000" stroke="#000000" stroke-width="2" points="1538.59,-1159.32 1548.58,-1155.79 1538.57,-1152.32 1538.59,-1159.32"/>
<text text-anchor="middle" x="908.39" y="-1159.03" font-family="Times,serif" font-size="14.00" fill="#000000">6 &#160;[when: hostvars[ovn_host].distribution_family == &#39;Fedora&#39;]</text>
</g>
<!-- task_9c9900f1&#45;ba07&#45;4836&#45;9abb&#45;fd8310b020cc -->
<g id="task_9c9900f1&#45;ba07&#45;4836&#45;9abb&#45;fd8310b020cc" class="node">
<title>task_9c9900f1&#45;ba07&#45;4836&#45;9abb&#45;fd8310b020cc</title>
<g id="a_task_9c9900f1&#45;ba07&#45;4836&#45;9abb&#45;fd8310b020cc"><a xlink:title="[task] kubeinit.kubeinit.kubeinit_libvirt : Install OVN packages in Ubuntu/Debian">
<polygon fill="none" stroke="black" points="2342.94,-1091.77 2342.94,-1106.68 2098.23,-1117.23 1752.15,-1117.23 1507.44,-1106.68 1507.44,-1091.77 1752.15,-1081.23 2098.23,-1081.23 2342.94,-1091.77"/>
<text text-anchor="middle" x="1925.19" y="-1095.53" font-family="Times,serif" font-size="14.00">[task] kubeinit.kubeinit.kubeinit_libvirt : Install OVN packages in Ubuntu/Debian</text>
</a>
</g>
</g>
<!-- task&#45;create&#45;network&#45;&gt;task_9c9900f1&#45;ba07&#45;4836&#45;9abb&#45;fd8310b020cc -->
<g id="edge_57ad8dea&#45;05d8&#45;41ae&#45;a4e5&#45;058f831e8346" class="edge">
<title>task&#45;create&#45;network&#45;&gt;task_9c9900f1&#45;ba07&#45;4836&#45;9abb&#45;fd8310b020cc</title>
<path fill="none" stroke="#000000" stroke-width="2" d="M385.61,-766.25C388.54,-823.61 406.29,-1002.57 513.89,-1077.23 554.2,-1105.2 1096.89,-1106.77 1497.06,-1104.03"/>
<polygon fill="#000000" stroke="#000000" stroke-width="2" points="1497.11,-1107.53 1507.08,-1103.96 1497.06,-1100.53 1497.11,-1107.53"/>
<text text-anchor="middle" x="908.39" y="-1108.03" font-family="Times,serif" font-size="14.00" fill="#000000">7 &#160;[when: hostvars[ovn_host].distribution_family == &#39;Debian&#39;]</text>
</g>
<!-- task_6223be0a&#45;4e38&#45;4621&#45;9381&#45;e549257b7a28 -->
<g id="task_6223be0a&#45;4e38&#45;4621&#45;9381&#45;e549257b7a28" class="node">
<title>task_6223be0a&#45;4e38&#45;4621&#45;9381&#45;e549257b7a28</title>
<g id="a_task_6223be0a&#45;4e38&#45;4621&#45;9381&#45;e549257b7a28"><a xlink:title="[task] kubeinit.kubeinit.kubeinit_libvirt : Refresh firewalld services list to pick up ovn services">
<polygon fill="none" stroke="black" points="2410.51,-1037.77 2410.51,-1052.68 2126.22,-1063.23 1724.16,-1063.23 1439.87,-1052.68 1439.87,-1037.77 1724.16,-1027.23 2126.22,-1027.23 2410.51,-1037.77"/>
<text text-anchor="middle" x="1925.19" y="-1041.53" font-family="Times,serif" font-size="14.00">[task] kubeinit.kubeinit.kubeinit_libvirt : Refresh firewalld services list to pick up ovn services</text>
</a>
</g>
</g>
<!-- task&#45;create&#45;network&#45;&gt;task_6223be0a&#45;4e38&#45;4621&#45;9381&#45;e549257b7a28 -->
<g id="edge_e7616ab6&#45;0844&#45;4a65&#45;82eb&#45;8d500428ae20" class="edge">
<title>task&#45;create&#45;network&#45;&gt;task_6223be0a&#45;4e38&#45;4621&#45;9381&#45;e549257b7a28</title>
<path fill="none" stroke="#000000" stroke-width="2" d="M387.43,-766.26C395.1,-816.07 424.12,-955.63 513.89,-1013.23 598.08,-1067.24 1149.12,-1065.35 1536.9,-1056.91"/>
<polygon fill="#000000" stroke="#000000" stroke-width="2" points="1537.26,-1060.4 1547.18,-1056.68 1537.11,-1053.4 1537.26,-1060.4"/>
<text text-anchor="middle" x="908.39" y="-1065.03" font-family="Times,serif" font-size="14.00" fill="#000000">8 &#160;[when: hostvars[ovn_host].firewalld_is_active]</text>
</g>
<!-- task_a45064ff&#45;c950&#45;4648&#45;94d7&#45;b5cf5009507a -->
<g id="task_a45064ff&#45;c950&#45;4648&#45;94d7&#45;b5cf5009507a" class="node">
<title>task_a45064ff&#45;c950&#45;4648&#45;94d7&#45;b5cf5009507a</title>
<g id="a_task_a45064ff&#45;c950&#45;4648&#45;94d7&#45;b5cf5009507a"><a xlink:title="[task] kubeinit.kubeinit.kubeinit_libvirt : Enable OVN central in firewalld">
<polygon fill="none" stroke="black" points="2302.33,-983.77 2302.33,-998.68 2081.41,-1009.23 1768.97,-1009.23 1548.05,-998.68 1548.05,-983.77 1768.97,-973.23 2081.41,-973.23 2302.33,-983.77"/>
<text text-anchor="middle" x="1925.19" y="-987.53" font-family="Times,serif" font-size="14.00">[task] kubeinit.kubeinit.kubeinit_libvirt : Enable OVN central in firewalld</text>
</a>
</g>
</g>
<!-- task&#45;create&#45;network&#45;&gt;task_a45064ff&#45;c950&#45;4648&#45;94d7&#45;b5cf5009507a -->
<g id="edge_586ec211&#45;5c50&#45;4203&#45;96ca&#45;bd33dcac970b" class="edge">
<title>task&#45;create&#45;network&#45;&gt;task_a45064ff&#45;c950&#45;4648&#45;94d7&#45;b5cf5009507a</title>
<path fill="none" stroke="#000000" stroke-width="2" d="M389.26,-766.46C400.56,-810.58 436.11,-922.8 513.89,-968.23 557.68,-993.81 1135.47,-995.91 1537.74,-994.21"/>
<polygon fill="#000000" stroke="#000000" stroke-width="2" points="1537.82,-997.71 1547.8,-994.17 1537.79,-990.71 1537.82,-997.71"/>
<text text-anchor="middle" x="908.39" y="-998.03" font-family="Times,serif" font-size="14.00" fill="#000000">9 &#160;[when: hostvars[kubeinit_ovn_central_host].firewalld_is_active]</text>
</g>
<!-- task_aa2b2aa6&#45;dffe&#45;4d2c&#45;b30c&#45;b4c3a85a75f8 -->
<g id="task_aa2b2aa6&#45;dffe&#45;4d2c&#45;b30c&#45;b4c3a85a75f8" class="node">
<title>task_aa2b2aa6&#45;dffe&#45;4d2c&#45;b30c&#45;b4c3a85a75f8</title>
<g id="a_task_aa2b2aa6&#45;dffe&#45;4d2c&#45;b30c&#45;b4c3a85a75f8"><a xlink:title="[task] kubeinit.kubeinit.kubeinit_libvirt : Enable OVN NAT in firewalld">
<polygon fill="none" stroke="black" points="2288.19,-929.77 2288.19,-944.68 2075.55,-955.23 1774.83,-955.23 1562.19,-944.68 1562.19,-929.77 1774.83,-919.23 2075.55,-919.23 2288.19,-929.77"/>
<text text-anchor="middle" x="1925.19" y="-933.53" font-family="Times,serif" font-size="14.00">[task] kubeinit.kubeinit.kubeinit_libvirt : Enable OVN NAT in firewalld</text>
</a>
</g>
</g>
<!-- task&#45;create&#45;network&#45;&gt;task_aa2b2aa6&#45;dffe&#45;4d2c&#45;b30c&#45;b4c3a85a75f8 -->
<g id="edge_509a3b0d&#45;3d5e&#45;4d1a&#45;916a&#45;13f026983621" class="edge">
<title>task&#45;create&#45;network&#45;&gt;task_aa2b2aa6&#45;dffe&#45;4d2c&#45;b30c&#45;b4c3a85a75f8</title>
<path fill="none" stroke="#000000" stroke-width="2" d="M392.96,-766.31C409.5,-801.5 451.43,-878.45 513.89,-909.23 605.95,-954.59 1182.2,-952.55 1569.03,-945.74"/>
<polygon fill="#000000" stroke="#000000" stroke-width="2" points="1569.34,-949.23 1579.27,-945.56 1569.21,-942.23 1569.34,-949.23"/>
<text text-anchor="middle" x="908.39" y="-953.03" font-family="Times,serif" font-size="14.00" fill="#000000">10 &#160;[when: hostvars[kubeinit_ovn_central_host].firewalld_is_active]</text>
</g>
<!-- task_b582f862&#45;7c0d&#45;49d7&#45;a7c1&#45;25947c89ab5d -->
<g id="task_b582f862&#45;7c0d&#45;49d7&#45;a7c1&#45;25947c89ab5d" class="node">
<title>task_b582f862&#45;7c0d&#45;49d7&#45;a7c1&#45;25947c89ab5d</title>
<g id="a_task_b582f862&#45;7c0d&#45;49d7&#45;a7c1&#45;25947c89ab5d"><a xlink:title="[task] kubeinit.kubeinit.kubeinit_libvirt : Enable OVN host in firewalld">
<polygon fill="none" stroke="black" points="2289.1,-875.77 2289.1,-890.68 2075.93,-901.23 1774.45,-901.23 1561.28,-890.68 1561.28,-875.77 1774.45,-865.23 2075.93,-865.23 2289.1,-875.77"/>
<text text-anchor="middle" x="1925.19" y="-879.53" font-family="Times,serif" font-size="14.00">[task] kubeinit.kubeinit.kubeinit_libvirt : Enable OVN host in firewalld</text>
</a>
</g>
</g>
<!-- task&#45;create&#45;network&#45;&gt;task_b582f862&#45;7c0d&#45;49d7&#45;a7c1&#45;25947c89ab5d -->
<g id="edge_328fe5ad&#45;1595&#45;45ae&#45;86bf&#45;37c5f79d0ac7" class="edge">
<title>task&#45;create&#45;network&#45;&gt;task_b582f862&#45;7c0d&#45;49d7&#45;a7c1&#45;25947c89ab5d</title>
<path fill="none" stroke="#000000" stroke-width="2" d="M399.35,-766.26C420.97,-791.89 464.69,-837.8 513.89,-856.23 608.4,-891.63 1166,-892.63 1551.09,-888.86"/>
<polygon fill="#000000" stroke="#000000" stroke-width="2" points="1551.33,-892.36 1561.29,-888.76 1551.26,-885.36 1551.33,-892.36"/>
<text text-anchor="middle" x="908.39" y="-894.03" font-family="Times,serif" font-size="14.00" fill="#000000">11 &#160;[when: hostvars[ovn_host].firewalld_is_active]</text>
</g>
<!-- task_d163fef3&#45;9a05&#45;49cb&#45;9eca&#45;013947a1cd3f -->
<g id="task_d163fef3&#45;9a05&#45;49cb&#45;9eca&#45;013947a1cd3f" class="node">
<title>task_d163fef3&#45;9a05&#45;49cb&#45;9eca&#45;013947a1cd3f</title>
<g id="a_task_d163fef3&#45;9a05&#45;49cb&#45;9eca&#45;013947a1cd3f"><a xlink:title="[task] kubeinit.kubeinit.kubeinit_libvirt : Refresh firewalld services list">
<polygon fill="none" stroke="black" points="2292.64,-821.77 2292.64,-836.68 2077.39,-847.23 1772.99,-847.23 1557.74,-836.68 1557.74,-821.77 1772.99,-811.23 2077.39,-811.23 2292.64,-821.77"/>
<text text-anchor="middle" x="1925.19" y="-825.53" font-family="Times,serif" font-size="14.00">[task] kubeinit.kubeinit.kubeinit_libvirt : Refresh firewalld services list</text>
</a>
</g>
</g>
<!-- task&#45;create&#45;network&#45;&gt;task_d163fef3&#45;9a05&#45;49cb&#45;9eca&#45;013947a1cd3f -->
<g id="edge_46cefc3c&#45;5b15&#45;43f2&#45;a622&#45;7fc5f9ccd85e" class="edge">
<title>task&#45;create&#45;network&#45;&gt;task_d163fef3&#45;9a05&#45;49cb&#45;9eca&#45;013947a1cd3f</title>
<path fill="none" stroke="#000000" stroke-width="2" d="M438.08,-765.1C461.13,-771.68 488.6,-778.52 513.89,-782.23 880.54,-836.01 1306.31,-842.64 1593.3,-839.07"/>
<polygon fill="#000000" stroke="#000000" stroke-width="2" points="1593.5,-842.57 1603.45,-838.94 1593.41,-835.57 1593.5,-842.57"/>
<text text-anchor="middle" x="908.39" y="-841.03" font-family="Times,serif" font-size="14.00" fill="#000000">12 &#160;[when: hostvars[ovn_host].firewalld_is_active]</text>
</g>
<!-- task_19398843&#45;a3fe&#45;4988&#45;8847&#45;0223b0938736 -->
<g id="task_19398843&#45;a3fe&#45;4988&#45;8847&#45;0223b0938736" class="node">
<title>task_19398843&#45;a3fe&#45;4988&#45;8847&#45;0223b0938736</title>
<g id="a_task_19398843&#45;a3fe&#45;4988&#45;8847&#45;0223b0938736"><a xlink:title="[task] kubeinit.kubeinit.kubeinit_libvirt : Enable and start OVN services in the ovn&#45;central hypervisor (CentOS based)">
<polygon fill="none" stroke="black" points="2527.98,-767.77 2527.98,-782.68 2174.87,-793.23 1675.51,-793.23 1322.4,-782.68 1322.4,-767.77 1675.51,-757.23 2174.87,-757.23 2527.98,-767.77"/>
<text text-anchor="middle" x="1925.19" y="-771.53" font-family="Times,serif" font-size="14.00">[task] kubeinit.kubeinit.kubeinit_libvirt : Enable and start OVN services in the ovn&#45;central hypervisor (CentOS based)</text>
</a>
</g>
</g>
<!-- task&#45;create&#45;network&#45;&gt;task_19398843&#45;a3fe&#45;4988&#45;8847&#45;0223b0938736 -->
<g id="edge_f4345b0e&#45;a05e&#45;40b4&#45;919a&#45;c77dfe0594fb" class="edge">
<title>task&#45;create&#45;network&#45;&gt;task_19398843&#45;a3fe&#45;4988&#45;8847&#45;0223b0938736</title>
<path fill="none" stroke="#000000" stroke-width="2" d="M496.04,-750.18C679.2,-753.39 1056.42,-760.01 1377.19,-765.63"/>
<polygon fill="#000000" stroke="#000000" stroke-width="2" points="1377.56,-769.14 1387.62,-765.82 1377.68,-762.14 1377.56,-769.14"/>
<text text-anchor="middle" x="908.39" y="-767.03" font-family="Times,serif" font-size="14.00" fill="#000000">13 &#160;[when: hostvars[kubeinit_ovn_central_host].distribution_family != &#39;Debian&#39;]</text>
</g>
<!-- task_612ce834&#45;1590&#45;4f75&#45;bed6&#45;ed9ec609e499 -->
<g id="task_612ce834&#45;1590&#45;4f75&#45;bed6&#45;ed9ec609e499" class="node">
<title>task_612ce834&#45;1590&#45;4f75&#45;bed6&#45;ed9ec609e499</title>
<g id="a_task_612ce834&#45;1590&#45;4f75&#45;bed6&#45;ed9ec609e499"><a xlink:title="[task] kubeinit.kubeinit.kubeinit_libvirt : Enable and start OVN services in the rest of the hypervisors (CentOS based)">
<polygon fill="none" stroke="black" points="2529.29,-713.77 2529.29,-728.68 2175.42,-739.23 1674.96,-739.23 1321.09,-728.68 1321.09,-713.77 1674.96,-703.23 2175.42,-703.23 2529.29,-713.77"/>
<text text-anchor="middle" x="1925.19" y="-717.53" font-family="Times,serif" font-size="14.00">[task] kubeinit.kubeinit.kubeinit_libvirt : Enable and start OVN services in the rest of the hypervisors (CentOS based)</text>
</a>
</g>
</g>
<!-- task&#45;create&#45;network&#45;&gt;task_612ce834&#45;1590&#45;4f75&#45;bed6&#45;ed9ec609e499 -->
<g id="edge_ea7e0670&#45;15b2&#45;4db9&#45;a5f7&#45;07d956eea24e" class="edge">
<title>task&#45;create&#45;network&#45;&gt;task_612ce834&#45;1590&#45;4f75&#45;bed6&#45;ed9ec609e499</title>
<path fill="none" stroke="#000000" stroke-width="2" d="M466.33,-735.95C482.08,-734.01 498.47,-732.3 513.89,-731.23 821.07,-709.96 1166.79,-707.17 1439.05,-709.84"/>
<polygon fill="#000000" stroke="#000000" stroke-width="2" points="1439.07,-713.34 1449.11,-709.94 1439.14,-706.34 1439.07,-713.34"/>
<text text-anchor="middle" x="908.39" y="-735.03" font-family="Times,serif" font-size="14.00" fill="#000000">14 &#160;[when: hostvars[ovn_host].distribution_family != &#39;Debian&#39;]</text>
</g>
<!-- task_7989bc6a&#45;3394&#45;40c1&#45;939b&#45;1a31940e38cd -->
<g id="task_7989bc6a&#45;3394&#45;40c1&#45;939b&#45;1a31940e38cd" class="node">
<title>task_7989bc6a&#45;3394&#45;40c1&#45;939b&#45;1a31940e38cd</title>
<g id="a_task_7989bc6a&#45;3394&#45;40c1&#45;939b&#45;1a31940e38cd"><a xlink:title="[task] kubeinit.kubeinit.kubeinit_libvirt : Enable and start OVN services in the ovn&#45;central hypervisor (Ubuntu based)">
<polygon fill="none" stroke="black" points="2527.98,-659.77 2527.98,-674.68 2174.87,-685.23 1675.51,-685.23 1322.4,-674.68 1322.4,-659.77 1675.51,-649.23 2174.87,-649.23 2527.98,-659.77"/>
<text text-anchor="middle" x="1925.19" y="-663.53" font-family="Times,serif" font-size="14.00">[task] kubeinit.kubeinit.kubeinit_libvirt : Enable and start OVN services in the ovn&#45;central hypervisor (Ubuntu based)</text>
</a>
</g>
</g>
<!-- task&#45;create&#45;network&#45;&gt;task_7989bc6a&#45;3394&#45;40c1&#45;939b&#45;1a31940e38cd -->
<g id="edge_92304e4c&#45;74bc&#45;4dfb&#45;a148&#45;27b585bc1820" class="edge">
<title>task&#45;create&#45;network&#45;&gt;task_7989bc6a&#45;3394&#45;40c1&#45;939b&#45;1a31940e38cd</title>
<path fill="none" stroke="#000000" stroke-width="2" d="M415.01,-730.16C440.35,-715.98 478.13,-697.32 513.89,-689.23 691.79,-648.98 1140.2,-648.13 1484.05,-654.44"/>
<polygon fill="#000000" stroke="#000000" stroke-width="2" points="1484.13,-657.95 1494.19,-654.63 1484.26,-650.95 1484.13,-657.95"/>
<text text-anchor="middle" x="908.39" y="-693.03" font-family="Times,serif" font-size="14.00" fill="#000000">15 &#160;[when: hostvars[kubeinit_ovn_central_host].distribution_family == &#39;Debian&#39;]</text>
</g>
<!-- task_b367c616&#45;60c7&#45;4ef3&#45;8684&#45;b4e2da7d4977 -->
<g id="task_b367c616&#45;60c7&#45;4ef3&#45;8684&#45;b4e2da7d4977" class="node">
<title>task_b367c616&#45;60c7&#45;4ef3&#45;8684&#45;b4e2da7d4977</title>
<g id="a_task_b367c616&#45;60c7&#45;4ef3&#45;8684&#45;b4e2da7d4977"><a xlink:title="[task] kubeinit.kubeinit.kubeinit_libvirt : Enable and start OVN services in the rest of the hypervisors (Ubuntu based)">
<polygon fill="none" stroke="black" points="2528.88,-605.77 2528.88,-620.68 2175.25,-631.23 1675.13,-631.23 1321.5,-620.68 1321.5,-605.77 1675.13,-595.23 2175.25,-595.23 2528.88,-605.77"/>
<text text-anchor="middle" x="1925.19" y="-609.53" font-family="Times,serif" font-size="14.00">[task] kubeinit.kubeinit.kubeinit_libvirt : Enable and start OVN services in the rest of the hypervisors (Ubuntu based)</text>
</a>
</g>
</g>
<!-- task&#45;create&#45;network&#45;&gt;task_b367c616&#45;60c7&#45;4ef3&#45;8684&#45;b4e2da7d4977 -->
<g id="edge_2981d03f&#45;e494&#45;42d1&#45;b494&#45;63ce15061c93" class="edge">
<title>task&#45;create&#45;network&#45;&gt;task_b367c616&#45;60c7&#45;4ef3&#45;8684&#45;b4e2da7d4977</title>
<path fill="none" stroke="#000000" stroke-width="2" d="M397.98,-730.21C418.79,-702.96 462.6,-652.31 513.89,-632.23 596.96,-599.7 1042.49,-598.05 1410.88,-602.66"/>
<polygon fill="#000000" stroke="#000000" stroke-width="2" points="1410.89,-606.16 1420.94,-602.79 1410.98,-599.16 1410.89,-606.16"/>
<text text-anchor="middle" x="908.39" y="-636.03" font-family="Times,serif" font-size="14.00" fill="#000000">16 &#160;[when: hostvars[ovn_host].distribution_family == &#39;Debian&#39;]</text>
</g>
<!-- task_8c0ab3ef&#45;ad98&#45;48ca&#45;8e6d&#45;6d37600436e2 -->
<g id="task_8c0ab3ef&#45;ad98&#45;48ca&#45;8e6d&#45;6d37600436e2" class="node">
<title>task_8c0ab3ef&#45;ad98&#45;48ca&#45;8e6d&#45;6d37600436e2</title>
<g id="a_task_8c0ab3ef&#45;ad98&#45;48ca&#45;8e6d&#45;6d37600436e2"><a xlink:title="[task] kubeinit.kubeinit.kubeinit_libvirt : Configure OVS on the Hypervisors">
<polygon fill="none" stroke="black" points="2316.47,-551.77 2316.47,-566.68 2087.27,-577.23 1763.12,-577.23 1533.91,-566.68 1533.91,-551.77 1763.12,-541.23 2087.27,-541.23 2316.47,-551.77"/>
<text text-anchor="middle" x="1925.19" y="-555.53" font-family="Times,serif" font-size="14.00">[task] kubeinit.kubeinit.kubeinit_libvirt : Configure OVS on the Hypervisors</text>
</a>
</g>
</g>
<!-- task&#45;create&#45;network&#45;&gt;task_8c0ab3ef&#45;ad98&#45;48ca&#45;8e6d&#45;6d37600436e2 -->
<g id="edge_40e31481&#45;2f5a&#45;45a6&#45;bf65&#45;883f4c7db9c7" class="edge">
<title>task&#45;create&#45;network&#45;&gt;task_8c0ab3ef&#45;ad98&#45;48ca&#45;8e6d&#45;6d37600436e2</title>
<path fill="none" stroke="#000000" stroke-width="2" d="M392.5,-730.03C408.49,-693.78 449.89,-613.31 513.89,-581.23 606.32,-534.9 1190.53,-540.12 1577.46,-549.04"/>
<polygon fill="#000000" stroke="#000000" stroke-width="2" points="1577.63,-552.55 1587.71,-549.28 1577.79,-545.55 1577.63,-552.55"/>
<text text-anchor="middle" x="908.39" y="-585.03" font-family="Times,serif" font-size="14.00" fill="#000000">17</text>
</g>
<!-- task_05301087&#45;9e51&#45;4b19&#45;a0c5&#45;f60d75e3422d -->
<g id="task_05301087&#45;9e51&#45;4b19&#45;a0c5&#45;f60d75e3422d" class="node">
<title>task_05301087&#45;9e51&#45;4b19&#45;a0c5&#45;f60d75e3422d</title>
<g id="a_task_05301087&#45;9e51&#45;4b19&#45;a0c5&#45;f60d75e3422d"><a xlink:title="[task] kubeinit.kubeinit.kubeinit_libvirt : Configure OVN in the ovn&#45;central hypervisor">
<polygon fill="none" stroke="black" points="2367.68,-497.77 2367.68,-512.68 2108.48,-523.23 1741.9,-523.23 1482.7,-512.68 1482.7,-497.77 1741.9,-487.23 2108.48,-487.23 2367.68,-497.77"/>
<text text-anchor="middle" x="1925.19" y="-501.53" font-family="Times,serif" font-size="14.00">[task] kubeinit.kubeinit.kubeinit_libvirt : Configure OVN in the ovn&#45;central hypervisor</text>
</a>
</g>
</g>
<!-- task&#45;create&#45;network&#45;&gt;task_05301087&#45;9e51&#45;4b19&#45;a0c5&#45;f60d75e3422d -->
<g id="edge_e92ebd47&#45;5e62&#45;4df3&#45;8e0d&#45;b34a4601a790" class="edge">
<title>task&#45;create&#45;network&#45;&gt;task_05301087&#45;9e51&#45;4b19&#45;a0c5&#45;f60d75e3422d</title>
<path fill="none" stroke="#000000" stroke-width="2" d="M389.03,-729.91C399.91,-685.02 434.74,-569.79 513.89,-523.23 604.44,-469.97 1207.29,-480.02 1594.94,-492.44"/>
<polygon fill="#000000" stroke="#000000" stroke-width="2" points="1595.09,-495.95 1605.2,-492.77 1595.32,-488.95 1595.09,-495.95"/>
<text text-anchor="middle" x="908.39" y="-527.03" font-family="Times,serif" font-size="14.00" fill="#000000">18</text>
</g>
<!-- task_3fc04030&#45;005b&#45;4eaf&#45;9029&#45;2b8d3693ade6 -->
<g id="task_3fc04030&#45;005b&#45;4eaf&#45;9029&#45;2b8d3693ade6" class="node">
<title>task_3fc04030&#45;005b&#45;4eaf&#45;9029&#45;2b8d3693ade6</title>
<g id="a_task_3fc04030&#45;005b&#45;4eaf&#45;9029&#45;2b8d3693ade6"><a xlink:title="[task] kubeinit.kubeinit.kubeinit_libvirt : Remove and create the cluster switch if exists">
<polygon fill="none" stroke="black" points="2376.07,-443.77 2376.07,-458.68 2111.95,-469.23 1738.43,-469.23 1474.31,-458.68 1474.31,-443.77 1738.43,-433.23 2111.95,-433.23 2376.07,-443.77"/>
<text text-anchor="middle" x="1925.19" y="-447.53" font-family="Times,serif" font-size="14.00">[task] kubeinit.kubeinit.kubeinit_libvirt : Remove and create the cluster switch if exists</text>
</a>
</g>
</g>
<!-- task&#45;create&#45;network&#45;&gt;task_3fc04030&#45;005b&#45;4eaf&#45;9029&#45;2b8d3693ade6 -->
<g id="edge_d96fb603&#45;437f&#45;4c81&#45;b2b7&#45;65a90b408b1a" class="edge">
<title>task&#45;create&#45;network&#45;&gt;task_3fc04030&#45;005b&#45;4eaf&#45;9029&#45;2b8d3693ade6</title>
<path fill="none" stroke="#000000" stroke-width="2" d="M386.77,-729.96C392.84,-677.38 418.34,-525.47 513.89,-463.23 604.32,-404.32 1239.14,-420.86 1625.59,-436.87"/>
<polygon fill="#000000" stroke="#000000" stroke-width="2" points="1625.68,-440.38 1635.81,-437.29 1625.97,-433.38 1625.68,-440.38"/>
<text text-anchor="middle" x="908.39" y="-467.03" font-family="Times,serif" font-size="14.00" fill="#000000">19 &#160;[when: kubeinit_libvirt_destroy_nets|bool and not kubeinit_libvirt_multicluster_keep_predefined_networks]</text>
</g>
<!-- task_28ee0065&#45;8944&#45;4823&#45;9aed&#45;81ee0187c559 -->
<g id="task_28ee0065&#45;8944&#45;4823&#45;9aed&#45;81ee0187c559" class="node">
<title>task_28ee0065&#45;8944&#45;4823&#45;9aed&#45;81ee0187c559</title>
<g id="a_task_28ee0065&#45;8944&#45;4823&#45;9aed&#45;81ee0187c559"><a xlink:title="[task] kubeinit.kubeinit.kubeinit_libvirt : Create OVS/OVN bindings for the VMs ports">
<polygon fill="none" stroke="black" points="2366.37,-389.77 2366.37,-404.68 2107.93,-415.23 1742.45,-415.23 1484.01,-404.68 1484.01,-389.77 1742.45,-379.23 2107.93,-379.23 2366.37,-389.77"/>
<text text-anchor="middle" x="1925.19" y="-393.53" font-family="Times,serif" font-size="14.00">[task] kubeinit.kubeinit.kubeinit_libvirt : Create OVS/OVN bindings for the VMs ports</text>
</a>
</g>
</g>
<!-- task&#45;create&#45;network&#45;&gt;task_28ee0065&#45;8944&#45;4823&#45;9aed&#45;81ee0187c559 -->
<g id="edge_73144cf5&#45;82cd&#45;4f1c&#45;a9ef&#45;8065576c4cd0" class="edge">
<title>task&#45;create&#45;network&#45;&gt;task_28ee0065&#45;8944&#45;4823&#45;9aed&#45;81ee0187c559</title>
<path fill="none" stroke="#000000" stroke-width="2" d="M385.2,-730.1C386.86,-670.64 401.11,-480.87 513.89,-402.23 555.02,-373.55 1121,-379.53 1523.28,-387.55"/>
<polygon fill="#000000" stroke="#000000" stroke-width="2" points="1523.28,-391.05 1533.35,-387.75 1523.42,-384.05 1523.28,-391.05"/>
<text text-anchor="middle" x="908.39" y="-406.03" font-family="Times,serif" font-size="14.00" fill="#000000">20</text>
</g>
<!-- task_726552ea&#45;90aa&#45;47fa&#45;92d5&#45;c2be9135f19f -->
<g id="task_726552ea&#45;90aa&#45;47fa&#45;92d5&#45;c2be9135f19f" class="node">
<title>task_726552ea&#45;90aa&#45;47fa&#45;92d5&#45;c2be9135f19f</title>
<g id="a_task_726552ea&#45;90aa&#45;47fa&#45;92d5&#45;c2be9135f19f"><a xlink:title="[task] kubeinit.kubeinit.kubeinit_libvirt : Configuring a router connected to the guests switch">
<polygon fill="none" stroke="black" points="2405.66,-335.77 2405.66,-350.68 2124.21,-361.23 1726.17,-361.23 1444.72,-350.68 1444.72,-335.77 1726.17,-325.23 2124.21,-325.23 2405.66,-335.77"/>
<text text-anchor="middle" x="1925.19" y="-339.53" font-family="Times,serif" font-size="14.00">[task] kubeinit.kubeinit.kubeinit_libvirt : Configuring a router connected to the guests switch</text>
</a>
</g>
</g>
<!-- task&#45;create&#45;network&#45;&gt;task_726552ea&#45;90aa&#45;47fa&#45;92d5&#45;c2be9135f19f -->
<g id="edge_db06b8c1&#45;2d01&#45;4b06&#45;8f3f&#45;2a4bc2c57d0a" class="edge">
<title>task&#45;create&#45;network&#45;&gt;task_726552ea&#45;90aa&#45;47fa&#45;92d5&#45;c2be9135f19f</title>
<path fill="none" stroke="#000000" stroke-width="2" d="M384.45,-729.89C383.53,-665.93 390.11,-451.68 513.89,-361.23 600.42,-298 1228.18,-312.83 1616.43,-328.53"/>
<polygon fill="#000000" stroke="#000000" stroke-width="2" points="1616.57,-332.04 1626.7,-328.95 1616.85,-325.04 1616.57,-332.04"/>
<text text-anchor="middle" x="908.39" y="-365.03" font-family="Times,serif" font-size="14.00" fill="#000000">21</text>
</g>
<!-- task_e7f5b79f&#45;4d1a&#45;4864&#45;ae9c&#45;d05e75927a98 -->
<g id="task_e7f5b79f&#45;4d1a&#45;4864&#45;ae9c&#45;d05e75927a98" class="node">
<title>task_e7f5b79f&#45;4d1a&#45;4864&#45;ae9c&#45;d05e75927a98</title>
<g id="a_task_e7f5b79f&#45;4d1a&#45;4864&#45;ae9c&#45;d05e75927a98"><a xlink:title="[task] kubeinit.kubeinit.kubeinit_libvirt : Configuring NAT">
<polygon fill="none" stroke="black" points="2226.38,-281.77 2226.38,-296.68 2049.95,-307.23 1800.43,-307.23 1624,-296.68 1624,-281.77 1800.43,-271.23 2049.95,-271.23 2226.38,-281.77"/>
<text text-anchor="middle" x="1925.19" y="-285.53" font-family="Times,serif" font-size="14.00">[task] kubeinit.kubeinit.kubeinit_libvirt : Configuring NAT</text>
</a>
</g>
</g>
<!-- task&#45;create&#45;network&#45;&gt;task_e7f5b79f&#45;4d1a&#45;4864&#45;ae9c&#45;d05e75927a98 -->
<g id="edge_13d66af6&#45;2e99&#45;4243&#45;a929&#45;54a539f9bd32" class="edge">
<title>task&#45;create&#45;network&#45;&gt;task_e7f5b79f&#45;4d1a&#45;4864&#45;ae9c&#45;d05e75927a98</title>
<path fill="none" stroke="#000000" stroke-width="2" d="M387.32,-730.07C397.49,-652.49 441.34,-350.27 513.89,-295.23 557.12,-262.44 1216.69,-272.18 1618.31,-281.28"/>
<polygon fill="#000000" stroke="#000000" stroke-width="2" points="1618.27,-284.78 1628.34,-281.51 1618.43,-277.78 1618.27,-284.78"/>
<text text-anchor="middle" x="908.39" y="-299.03" font-family="Times,serif" font-size="14.00" fill="#000000">22 &#160;[when: not hostvars[kubeinit_ovn_central_host].firewalld_is_active]</text>
</g>
<!-- task_ad41b12a&#45;3919&#45;4239&#45;ab93&#45;11f808ac5738 -->
<g id="task_ad41b12a&#45;3919&#45;4239&#45;ab93&#45;11f808ac5738" class="node">
<title>task_ad41b12a&#45;3919&#45;4239&#45;ab93&#45;11f808ac5738</title>
<g id="a_task_ad41b12a&#45;3919&#45;4239&#45;ab93&#45;11f808ac5738"><a xlink:title="[task] kubeinit.kubeinit.kubeinit_libvirt : Render KubeInit networks for debugging">
<polygon fill="none" stroke="black" points="2349.6,-227.77 2349.6,-242.68 2100.99,-253.23 1749.39,-253.23 1500.78,-242.68 1500.78,-227.77 1749.39,-217.23 2100.99,-217.23 2349.6,-227.77"/>
<text text-anchor="middle" x="1925.19" y="-231.53" font-family="Times,serif" font-size="14.00">[task] kubeinit.kubeinit.kubeinit_libvirt : Render KubeInit networks for debugging</text>
</a>
</g>
</g>
<!-- task&#45;create&#45;network&#45;&gt;task_ad41b12a&#45;3919&#45;4239&#45;ab93&#45;11f808ac5738 -->
<g id="edge_77ea938d&#45;33ef&#45;423c&#45;995a&#45;3a66a1888ffc" class="edge">
<title>task&#45;create&#45;network&#45;&gt;task_ad41b12a&#45;3919&#45;4239&#45;ab93&#45;11f808ac5738</title>
<path fill="none" stroke="#000000" stroke-width="2" d="M386.87,-730.11C395.57,-648.29 435.5,-314.62 513.89,-253.23 600.23,-185.6 1256.47,-203.81 1642.63,-220.84"/>
<polygon fill="#000000" stroke="#000000" stroke-width="2" points="1642.7,-224.35 1652.84,-221.29 1643.01,-217.35 1642.7,-224.35"/>
<text text-anchor="middle" x="908.39" y="-257.03" font-family="Times,serif" font-size="14.00" fill="#000000">23</text>
</g>
<!-- task_620184f7&#45;aa06&#45;418f&#45;a5dd&#45;17f8aa963250 -->
<g id="task_620184f7&#45;aa06&#45;418f&#45;a5dd&#45;17f8aa963250" class="node">
<title>task_620184f7&#45;aa06&#45;418f&#45;a5dd&#45;17f8aa963250</title>
<g id="a_task_620184f7&#45;aa06&#45;418f&#45;a5dd&#45;17f8aa963250"><a xlink:title="[task] kubeinit.kubeinit.kubeinit_libvirt : Define KubeInit networks">
<polygon fill="none" stroke="black" points="2271.43,-173.77 2271.43,-188.68 2068.61,-199.23 1781.77,-199.23 1578.95,-188.68 1578.95,-173.77 1781.77,-163.23 2068.61,-163.23 2271.43,-173.77"/>
<text text-anchor="middle" x="1925.19" y="-177.53" font-family="Times,serif" font-size="14.00">[task] kubeinit.kubeinit.kubeinit_libvirt : Define KubeInit networks</text>
</a>
</g>
</g>
<!-- task&#45;create&#45;network&#45;&gt;task_620184f7&#45;aa06&#45;418f&#45;a5dd&#45;17f8aa963250 -->
<g id="edge_deae6530&#45;281b&#45;4621&#45;97d1&#45;47415bee3a6e" class="edge">
<title>task&#45;create&#45;network&#45;&gt;task_620184f7&#45;aa06&#45;418f&#45;a5dd&#45;17f8aa963250</title>
<path fill="none" stroke="#000000" stroke-width="2" d="M386.26,-730.05C392.65,-641.44 425.29,-256.05 513.89,-185.23 555.56,-151.92 1194.19,-162.11 1597.62,-172.01"/>
<polygon fill="#000000" stroke="#000000" stroke-width="2" points="1597.62,-175.51 1607.7,-172.26 1597.79,-168.52 1597.62,-175.51"/>
<text text-anchor="middle" x="908.39" y="-189.03" font-family="Times,serif" font-size="14.00" fill="#000000">24 &#160;[when: kubeinit_libvirt_destroy_nets|bool and not kubeinit_libvirt_multicluster_keep_predefined_networks]</text>
</g>
<!-- task_1cc52c18&#45;4a00&#45;4ba2&#45;929e&#45;efba3161efd4 -->
<g id="task_1cc52c18&#45;4a00&#45;4ba2&#45;929e&#45;efba3161efd4" class="node">
<title>task_1cc52c18&#45;4a00&#45;4ba2&#45;929e&#45;efba3161efd4</title>
<g id="a_task_1cc52c18&#45;4a00&#45;4ba2&#45;929e&#45;efba3161efd4"><a xlink:title="[task] kubeinit.kubeinit.kubeinit_libvirt : Activate KubeInit networks">
<polygon fill="none" stroke="black" points="2280.22,-119.77 2280.22,-134.68 2072.25,-145.23 1778.13,-145.23 1570.16,-134.68 1570.16,-119.77 1778.13,-109.23 2072.25,-109.23 2280.22,-119.77"/>
<text text-anchor="middle" x="1925.19" y="-123.53" font-family="Times,serif" font-size="14.00">[task] kubeinit.kubeinit.kubeinit_libvirt : Activate KubeInit networks</text>
</a>
</g>
</g>
<!-- task&#45;create&#45;network&#45;&gt;task_1cc52c18&#45;4a00&#45;4ba2&#45;929e&#45;efba3161efd4 -->
<g id="edge_04dbc2eb&#45;4c01&#45;4148&#45;b197&#45;c1cf924cb8b8" class="edge">
<title>task&#45;create&#45;network&#45;&gt;task_1cc52c18&#45;4a00&#45;4ba2&#45;929e&#45;efba3161efd4</title>
<path fill="none" stroke="#000000" stroke-width="2" d="M385.97,-729.98C391.15,-637.33 419.48,-220.54 513.89,-143.23 553.9,-110.46 1155.43,-113.98 1559.84,-120.16"/>
<polygon fill="#000000" stroke="#000000" stroke-width="2" points="1559.9,-123.66 1569.95,-120.31 1560.01,-116.66 1559.9,-123.66"/>
<text text-anchor="middle" x="908.39" y="-147.03" font-family="Times,serif" font-size="14.00" fill="#000000">25 &#160;[when: kubeinit_libvirt_destroy_nets|bool and not kubeinit_libvirt_multicluster_keep_predefined_networks]</text>
</g>
<!-- task_88a72074&#45;5fe4&#45;496f&#45;88c6&#45;a264c2517188 -->
<g id="task_88a72074&#45;5fe4&#45;496f&#45;88c6&#45;a264c2517188" class="node">
<title>task_88a72074&#45;5fe4&#45;496f&#45;88c6&#45;a264c2517188</title>
<g id="a_task_88a72074&#45;5fe4&#45;496f&#45;88c6&#45;a264c2517188"><a xlink:title="[task] kubeinit.kubeinit.kubeinit_libvirt : Autostart KubeInit networks">
<polygon fill="none" stroke="black" points="2286.88,-65.77 2286.88,-80.68 2075.01,-91.23 1775.37,-91.23 1563.5,-80.68 1563.5,-65.77 1775.37,-55.23 2075.01,-55.23 2286.88,-65.77"/>
<text text-anchor="middle" x="1925.19" y="-69.53" font-family="Times,serif" font-size="14.00">[task] kubeinit.kubeinit.kubeinit_libvirt : Autostart KubeInit networks</text>
</a>
</g>
</g>
<!-- task&#45;create&#45;network&#45;&gt;task_88a72074&#45;5fe4&#45;496f&#45;88c6&#45;a264c2517188 -->
<g id="edge_dedb86b3&#45;5d4f&#45;42d9&#45;a9ef&#45;9057b0fe7375" class="edge">
<title>task&#45;create&#45;network&#45;&gt;task_88a72074&#45;5fe4&#45;496f&#45;88c6&#45;a264c2517188</title>
<path fill="none" stroke="#000000" stroke-width="2" d="M385.67,-730.2C389.5,-633.83 412.72,-180.75 513.89,-96.23 702.47,61.32 1462.15,-14.02 1781.57,-53.93"/>
<polygon fill="#000000" stroke="#000000" stroke-width="2" points="1781.47,-57.44 1791.82,-55.21 1782.34,-50.49 1781.47,-57.44"/>
<text text-anchor="middle" x="908.39" y="-100.03" font-family="Times,serif" font-size="14.00" fill="#000000">26 &#160;[when: kubeinit_libvirt_destroy_nets|bool and not kubeinit_libvirt_multicluster_keep_predefined_networks]</text>
</g>
</g>
</svg>
