<?xml version='1.0' encoding='UTF-8'?>
<!DOCTYPE svg PUBLIC "-//W3C//DTD SVG 1.1//EN" "http://www.w3.org/Graphics/SVG/1.1/DTD/svg11.dtd">
<!-- Generated by graphviz version 2.40.1 (20161225.0304)
 --><!-- Title: ./playbooks/submariner.yml  Pages: 1 --><svg xmlns="http://www.w3.org/2000/svg" xmlns:xlink="http://www.w3.org/1999/xlink" width="2347pt" height="1183pt" viewBox="0.00 0.00 2347.50 1182.65" id="svg">
<script type="text/javascript" href="https://ajax.googleapis.com/ajax/libs/jquery/3.2.1/jquery.min.js" id="jquery"/><script type="text/javascript" id="my_javascript"><![CDATA[const HOVER_CLASS = "my_hover";

var selectedElement = null;

function addClass(rootElement) {
    $(rootElement).find('link').each(function (index, element) {
        var target = $(element).attr('target');
        var currentElement = $('#' + target);
        currentElement.addClass(HOVER_CLASS);

        addClass(currentElement);
    })
}

function removeClass(rootElement, hover) {
    $(rootElement).find('link').each(function (index, element) {
        if ($(rootElement).attr('id') !== $(selectedElement).attr('id') || !hover) {
            var target = $(element).attr('target');
            var currentElement = $('#' + target);
            currentElement.removeClass(HOVER_CLASS);

            removeClass(currentElement);
        }

    })
}

function hoverIn(event) {
    addClass(event.currentTarget);
}

function hoverOut(event) {
    removeClass(event.currentTarget, true);
}

function clickOnElement(event) {
    var newElement = event.currentTarget;

    if ($(newElement).attr('id') === $(selectedElement).attr('id')) {
        removeClass(selectedElement, false);
    } else {
        removeClass(selectedElement);
        addClass(newElement)
    }

    selectedElement = newElement;
}


$("#svg").ready(function () {

    $("g[id^=play_]").hover(hoverIn, hoverOut);
    $("g[id^=role_]").hover(hoverIn, hoverOut);

    $("g[id^=play_]").click(clickOnElement);
    $("g[id^=role_]").click(clickOnElement);

});
]]></script><style type="text/css" id="my_css"><![CDATA[.node:hover, .edge:hover, path:hover, path + polygon:hover {
    cursor: pointer;
    stroke-width: 3;
    font-weight: bolder;
}

.my_hover {
    cursor: pointer;
    stroke-width: 3;
    font-weight: bolder;
}
]]></style><g id="graph0" class="graph" transform="scale(1 1) rotate(0) translate(4 1178.653)">
<title>./playbooks/submariner.yml </title>
<polygon fill="#ffffff" stroke="transparent" points="-4,4 -4,-1178.653 2343.4971,-1178.653 2343.4971,4 -4,4"/>
<!-- ./playbooks/submariner.yml -->
<g id="root_node" class="node">
<title>./playbooks/submariner.yml</title>
<ellipse fill="none" stroke="#000000" stroke-dasharray="1,5" cx="110.4902" cy="-601.653" rx="110.4804" ry="18"/>
<text text-anchor="middle" x="110.4902" y="-597.953" font-family="Times,serif" font-size="14.00" fill="#000000">./playbooks/submariner.yml</text>
</g>
<!-- Play #1: Main deployment playbook for integrating submariner (0) -->
<g id="play_0b27d176-54ad-472c-ad52-43f75d71a6b6" class="node">
<title>Play #1: Main deployment playbook for integrating submariner (0)</title>
<polygon fill="#d52b3e" stroke="#d52b3e" points="646.9804,-619.653 263.9804,-619.653 263.9804,-583.653 646.9804,-583.653 646.9804,-619.653"/>
<text text-anchor="middle" x="455.4804" y="-597.953" font-family="Times,serif" font-size="14.00" fill="#ffffff">Play #1: Main deployment playbook for integrating submariner (0)</text>
<links><link target="edge_bfc8a1f0-70a3-429d-a848-a6619ff146df"/><link target="edge_bb2e7305-e3a3-4f87-b352-6844d61cebb2"/><link target="edge_6ab4e7c7-b9f4-4619-8fad-d5e60b381e99"/><link target="edge_7c0db1ce-5d21-4749-9654-955f79a7de12"/><link target="edge_e3e6ff41-ff95-49ff-ac36-6d210fb321dd"/><link target="edge_7def4a33-d4a5-409b-8a7e-b6bf5fa532d1"/><link target="edge_adc150b3-afe4-4a49-b220-5a80f2ef46d1"/><link target="edge_4ad0ec3a-69d6-44a7-a6b1-4021b1847e45"/><link target="edge_8f581b3e-f320-4a52-a341-dfc20cfa2532"/><link target="edge_a006f3bb-2ae4-4199-97d3-9ee67bd74899"/><link target="edge_a7a78520-22e0-4092-8b15-d7f7cf556ab5"/><link target="edge_7c2bc324-3fe9-4558-b40e-1eeedfa70bb4"/><link target="edge_919a1cf9-69de-47cc-97da-166fe01e5a81"/><link target="edge_5463cb87-e06b-4f6e-b3ef-09a63b2c90cf"/><link target="edge_4b1fc2e4-f615-468c-9037-087498d7cd19"/><link target="edge_fa59072a-6b97-4d49-9aea-b40dbd07f4e3"/><link target="edge_0c0adef7-5930-415a-ae04-55a477f4c125"/><link target="edge_98593e72-623d-4b20-95d9-5c9f03f4e715"/><link target="edge_2ebadaad-f7c5-495c-a071-c4ad51f5803c"/><link target="edge_e66d1452-ba98-4bbf-89cb-66d0df5785f3"/><link target="edge_47bed576-81f2-4bb3-842c-5e4e8474e996"/></links></g>
<!-- ./playbooks/submariner.yml&#45;&gt;Play #1: Main deployment playbook for integrating submariner (0) -->
<g id="edge_8a1b0f7d-95e3-4c43-952a-211e70970321" class="edge">
<title>./playbooks/submariner.yml-&gt;Play #1: Main deployment playbook for integrating submariner (0)</title>
<path fill="none" stroke="#d52b3e" stroke-width="2" d="M221.0708,-601.653C231.6334,-601.653 242.5531,-601.653 253.6394,-601.653"/>
<polygon fill="#d52b3e" stroke="#d52b3e" stroke-width="2" points="253.8622,-605.1531 263.8622,-601.653 253.8621,-598.1531 253.8622,-605.1531"/>
<text text-anchor="middle" x="242.4804" y="-605.453" font-family="Times,serif" font-size="14.00" fill="#d52b3e">1</text>
</g>
<!-- pre_task_26d663a1&#45;50a6&#45;4aa2&#45;9a8a&#45;6fbc16923ca0 -->
<g id="pre_task_26d663a1-50a6-4aa2-9a8a-6fbc16923ca0" class="node">
<title>pre_task_26d663a1-50a6-4aa2-9a8a-6fbc16923ca0</title>
<polygon fill="none" stroke="#000000" points="2133.916,-1134.1971 2133.916,-1149.1088 1999.6671,-1159.653 1809.8104,-1159.653 1675.5615,-1149.1088 1675.5615,-1134.1971 1809.8104,-1123.653 1999.6671,-1123.653 2133.916,-1134.1971"/>
<text text-anchor="middle" x="1904.7388" y="-1137.953" font-family="Times,serif" font-size="14.00" fill="#000000">[pre_task] Check if Ansible meets version requirements.</text>
</g>
<!-- Play #1: Main deployment playbook for integrating submariner (0)&#45;&gt;pre_task_26d663a1&#45;50a6&#45;4aa2&#45;9a8a&#45;6fbc16923ca0 -->
<g id="edge_bfc8a1f0-70a3-429d-a848-a6619ff146df" class="edge">
<title>Play #1: Main deployment playbook for integrating submariner (0)-&gt;pre_task_26d663a1-50a6-4aa2-9a8a-6fbc16923ca0</title>
<path fill="none" stroke="#d52b3e" stroke-width="2" d="M456.195,-619.884C460.3079,-696.8387 487.599,-996.7332 664.9804,-1118.653 746.2176,-1174.4899 1345.867,-1162.1998 1680.5061,-1150.6866"/>
<polygon fill="#d52b3e" stroke="#d52b3e" stroke-width="2" points="1680.9479,-1154.1734 1690.8207,-1150.329 1680.7054,-1147.1776 1680.9479,-1154.1734"/>
<text text-anchor="middle" x="1058.4804" y="-1163.453" font-family="Times,serif" font-size="14.00" fill="#d52b3e">1</text>
<links><link target="pre_task_26d663a1-50a6-4aa2-9a8a-6fbc16923ca0"/></links></g>
<!-- task_e39e5514&#45;99cc&#45;4678&#45;9f60&#45;bdabd2637b3e -->
<g id="task_e39e5514-99cc-4678-9f60-bdabd2637b3e" class="node">
<title>task_e39e5514-99cc-4678-9f60-bdabd2637b3e</title>
<polygon fill="none" stroke="#000000" points="1963.9257,-1080.1971 1963.9257,-1095.1088 1929.2548,-1105.653 1880.2228,-1105.653 1845.5519,-1095.1088 1845.5519,-1080.1971 1880.2228,-1069.653 1929.2548,-1069.653 1963.9257,-1080.1971"/>
<text text-anchor="middle" x="1904.7388" y="-1083.953" font-family="Times,serif" font-size="14.00" fill="#000000">[task] debug</text>
</g>
<!-- Play #1: Main deployment playbook for integrating submariner (0)&#45;&gt;task_e39e5514&#45;99cc&#45;4678&#45;9f60&#45;bdabd2637b3e -->
<g id="edge_bb2e7305-e3a3-4f87-b352-6844d61cebb2" class="edge">
<title>Play #1: Main deployment playbook for integrating submariner (0)-&gt;task_e39e5514-99cc-4678-9f60-bdabd2637b3e</title>
<path fill="none" stroke="#d52b3e" stroke-width="2" d="M457.2974,-619.7905C465.4754,-690.6244 505.7486,-949.8473 664.9804,-1054.653 762.7191,-1118.9842 1588.3679,-1097.8579 1835.2718,-1090.0191"/>
<polygon fill="#d52b3e" stroke="#d52b3e" stroke-width="2" points="1835.6662,-1093.5083 1845.549,-1089.6898 1835.442,-1086.5119 1835.6662,-1093.5083"/>
<text text-anchor="middle" x="1058.4804" y="-1103.453" font-family="Times,serif" font-size="14.00" fill="#d52b3e">2</text>
<links><link target="task_e39e5514-99cc-4678-9f60-bdabd2637b3e"/></links></g>
<!-- task_0fbb99b1&#45;7ac4&#45;451c&#45;ab62&#45;8ffcb006fc46 -->
<g id="task_0fbb99b1-7ac4-451c-ab62-8ffcb006fc46" class="node">
<title>task_0fbb99b1-7ac4-451c-ab62-8ffcb006fc46</title>
<polygon fill="none" stroke="#000000" points="2228.859,-1026.1971 2228.859,-1041.1088 2038.9937,-1051.653 1770.4838,-1051.653 1580.6186,-1041.1088 1580.6186,-1026.1971 1770.4838,-1015.653 2038.9937,-1015.653 2228.859,-1026.1971"/>
<text text-anchor="middle" x="1904.7388" y="-1029.953" font-family="Times,serif" font-size="14.00" fill="#000000">[task] ../../roles/kubeinit_submariner : Gather variables for each operating system</text>
</g>
<!-- Play #1: Main deployment playbook for integrating submariner (0)&#45;&gt;task_0fbb99b1&#45;7ac4&#45;451c&#45;ab62&#45;8ffcb006fc46 -->
<g id="edge_6ab4e7c7-b9f4-4619-8fad-d5e60b381e99" class="edge">
<title>Play #1: Main deployment playbook for integrating submariner (0)-&gt;task_0fbb99b1-7ac4-451c-ab62-8ffcb006fc46</title>
<path fill="none" stroke="#d52b3e" stroke-width="2" d="M458.1872,-619.9728C469.176,-686.9426 517.1618,-919.3741 664.9804,-1011.653 702.9912,-1035.3821 1216.1312,-1037.5492 1570.1879,-1036.1653"/>
<polygon fill="#d52b3e" stroke="#d52b3e" stroke-width="2" points="1570.3681,-1039.6647 1580.3539,-1036.1245 1570.3398,-1032.6648 1570.3681,-1039.6647"/>
<text text-anchor="middle" x="1058.4804" y="-1039.453" font-family="Times,serif" font-size="14.00" fill="#d52b3e">3</text>
<links><link target="task_0fbb99b1-7ac4-451c-ab62-8ffcb006fc46"/></links></g>
<!-- task_ad0abab3&#45;f3a5&#45;4cd3&#45;8b5b&#45;10b3599c7677 -->
<g id="task_ad0abab3-f3a5-4cd3-8b5b-10b3599c7677" class="node">
<title>task_ad0abab3-f3a5-4cd3-8b5b-10b3599c7677</title>
<polygon fill="none" stroke="#000000" points="2113.6133,-972.1971 2113.6133,-987.1088 1991.2574,-997.653 1818.2201,-997.653 1695.8642,-987.1088 1695.8642,-972.1971 1818.2201,-961.653 1991.2574,-961.653 2113.6133,-972.1971"/>
<text text-anchor="middle" x="1904.7388" y="-975.953" font-family="Times,serif" font-size="14.00" fill="#000000">[task] ../../roles/kubeinit_submariner : Install subctl</text>
</g>
<!-- Play #1: Main deployment playbook for integrating submariner (0)&#45;&gt;task_ad0abab3&#45;f3a5&#45;4cd3&#45;8b5b&#45;10b3599c7677 -->
<g id="edge_7c0db1ce-5d21-4749-9654-955f79a7de12" class="edge">
<title>Play #1: Main deployment playbook for integrating submariner (0)-&gt;task_ad0abab3-f3a5-4cd3-8b5b-10b3599c7677</title>
<path fill="none" stroke="#d52b3e" stroke-width="2" d="M459.7136,-619.9254C474.8929,-680.7232 532.8616,-876.6938 664.9804,-953.653 750.5085,-1003.4731 1352.9672,-995.131 1685.5041,-986.4815"/>
<polygon fill="#d52b3e" stroke="#d52b3e" stroke-width="2" points="1685.847,-989.9738 1695.7517,-986.2127 1685.6633,-982.9762 1685.847,-989.9738"/>
<text text-anchor="middle" x="1058.4804" y="-996.453" font-family="Times,serif" font-size="14.00" fill="#d52b3e">4  [when: kubeinit_submariner_is_broker|bool or kubeinit_submariner_is_secondary|bool]</text>
<links><link target="task_ad0abab3-f3a5-4cd3-8b5b-10b3599c7677"/></links></g>
<!-- task_c82d85e7&#45;9f0f&#45;4138&#45;8e30&#45;b62ee0547f3a -->
<g id="task_c82d85e7-9f0f-4138-8e30-b62ee0547f3a" class="node">
<title>task_c82d85e7-9f0f-4138-8e30-b62ee0547f3a</title>
<polygon fill="none" stroke="#000000" points="2191.7887,-918.1971 2191.7887,-933.1088 2023.6387,-943.653 1785.8388,-943.653 1617.6889,-933.1088 1617.6889,-918.1971 1785.8388,-907.653 2023.6387,-907.653 2191.7887,-918.1971"/>
<text text-anchor="middle" x="1904.7388" y="-921.953" font-family="Times,serif" font-size="14.00" fill="#000000">[task] ../../roles/kubeinit_submariner : Install submariner based on a PR</text>
</g>
<!-- Play #1: Main deployment playbook for integrating submariner (0)&#45;&gt;task_c82d85e7&#45;9f0f&#45;4138&#45;8e30&#45;b62ee0547f3a -->
<g id="edge_e3e6ff41-ff95-49ff-ac36-6d210fb321dd" class="edge">
<title>Play #1: Main deployment playbook for integrating submariner (0)-&gt;task_c82d85e7-9f0f-4138-8e30-b62ee0547f3a</title>
<path fill="none" stroke="#d52b3e" stroke-width="2" d="M461.7966,-619.9654C481.5928,-674.1325 548.1688,-833.6568 664.9804,-895.653 745.8979,-938.5989 1267.1948,-937.7013 1607.5506,-932.2751"/>
<polygon fill="#d52b3e" stroke="#d52b3e" stroke-width="2" points="1607.6248,-935.7745 1617.5669,-932.1133 1607.5116,-928.7754 1607.6248,-935.7745"/>
<text text-anchor="middle" x="1058.4804" y="-938.453" font-family="Times,serif" font-size="14.00" fill="#d52b3e">5  [when: (kubeinit_submariner_is_broker|bool or kubeinit_submariner_is_secondary|bool) and (kubeinit_submariner_test_pr_url | length &gt; 0 )]</text>
<links><link target="task_c82d85e7-9f0f-4138-8e30-b62ee0547f3a"/></links></g>
<!-- task_fc6f385a&#45;f451&#45;48e8&#45;90ec&#45;8f42b8e810ab -->
<g id="task_fc6f385a-f451-48e8-90ec-8f42b8e810ab" class="node">
<title>task_fc6f385a-f451-48e8-90ec-8f42b8e810ab</title>
<polygon fill="none" stroke="#000000" points="2159.9744,-864.1971 2159.9744,-879.1088 2010.4608,-889.653 1799.0167,-889.653 1649.5031,-879.1088 1649.5031,-864.1971 1799.0167,-853.653 2010.4608,-853.653 2159.9744,-864.1971"/>
<text text-anchor="middle" x="1904.7388" y="-867.953" font-family="Times,serif" font-size="14.00" fill="#000000">[task] ../../roles/kubeinit_submariner : Check if ~/.profile exists</text>
</g>
<!-- Play #1: Main deployment playbook for integrating submariner (0)&#45;&gt;task_fc6f385a&#45;f451&#45;48e8&#45;90ec&#45;8f42b8e810ab -->
<g id="edge_7def4a33-d4a5-409b-8a7e-b6bf5fa532d1" class="edge">
<title>Play #1: Main deployment playbook for integrating submariner (0)-&gt;task_fc6f385a-f451-48e8-90ec-8f42b8e810ab</title>
<path fill="none" stroke="#d52b3e" stroke-width="2" d="M464.5785,-619.8464C489.199,-666.7796 562.2591,-791.6194 664.9804,-839.653 750.5412,-879.6622 1301.3003,-879.8576 1639.315,-876.0221"/>
<polygon fill="#d52b3e" stroke="#d52b3e" stroke-width="2" points="1639.5431,-879.5198 1649.502,-875.9045 1639.4622,-872.5202 1639.5431,-879.5198"/>
<text text-anchor="middle" x="1058.4804" y="-880.453" font-family="Times,serif" font-size="14.00" fill="#d52b3e">6  [when: kubeinit_submariner_is_broker|bool or kubeinit_submariner_is_secondary|bool]</text>
<links><link target="task_fc6f385a-f451-48e8-90ec-8f42b8e810ab"/></links></g>
<!-- task_5efaec52&#45;0788&#45;4d15&#45;87ee&#45;8e6094ad2a48 -->
<g id="task_5efaec52-0788-4d15-87ee-8e6094ad2a48" class="node">
<title>task_5efaec52-0788-4d15-87ee-8e6094ad2a48</title>
<polygon fill="none" stroke="#000000" points="2176.7422,-810.1971 2176.7422,-825.1088 2017.4063,-835.653 1792.0713,-835.653 1632.7353,-825.1088 1632.7353,-810.1971 1792.0713,-799.653 2017.4063,-799.653 2176.7422,-810.1971"/>
<text text-anchor="middle" x="1904.7388" y="-813.953" font-family="Times,serif" font-size="14.00" fill="#000000">[task] ../../roles/kubeinit_submariner : Append subctl path to profile</text>
</g>
<!-- Play #1: Main deployment playbook for integrating submariner (0)&#45;&gt;task_5efaec52&#45;0788&#45;4d15&#45;87ee&#45;8e6094ad2a48 -->
<g id="edge_adc150b3-afe4-4a49-b220-5a80f2ef46d1" class="edge">
<title>Play #1: Main deployment playbook for integrating submariner (0)-&gt;task_5efaec52-0788-4d15-87ee-8e6094ad2a48</title>
<path fill="none" stroke="#d52b3e" stroke-width="2" d="M468.6463,-619.8341C498.3631,-659.1473 575.1016,-751.3587 664.9804,-786.653 751.3771,-820.5799 1283.9179,-822.8661 1622.347,-820.7442"/>
<polygon fill="#d52b3e" stroke="#d52b3e" stroke-width="2" points="1622.5751,-824.2429 1632.5524,-820.6785 1622.53,-817.243 1622.5751,-824.2429"/>
<text text-anchor="middle" x="1058.4804" y="-824.453" font-family="Times,serif" font-size="14.00" fill="#d52b3e">7  [when: profile_exists.stat.exists and (kubeinit_submariner_is_broker|bool or kubeinit_submariner_is_secondary|bool)]</text>
<links><link target="task_5efaec52-0788-4d15-87ee-8e6094ad2a48"/></links></g>
<!-- task_93927552&#45;c768&#45;435c&#45;a2f9&#45;b94975cc1bed -->
<g id="task_93927552-c768-435c-a2f9-b94975cc1bed" class="node">
<title>task_93927552-c768-435c-a2f9-b94975cc1bed</title>
<polygon fill="none" stroke="#000000" points="2182.4979,-756.1971 2182.4979,-771.1088 2019.7904,-781.653 1789.6872,-781.653 1626.9796,-771.1088 1626.9796,-756.1971 1789.6872,-745.653 2019.7904,-745.653 2182.4979,-756.1971"/>
<text text-anchor="middle" x="1904.7388" y="-759.953" font-family="Times,serif" font-size="14.00" fill="#000000">[task] ../../roles/kubeinit_submariner : Check if ~/.bash_profile exists</text>
</g>
<!-- Play #1: Main deployment playbook for integrating submariner (0)&#45;&gt;task_93927552&#45;c768&#45;435c&#45;a2f9&#45;b94975cc1bed -->
<g id="edge_4ad0ec3a-69d6-44a7-a6b1-4021b1847e45" class="edge">
<title>Play #1: Main deployment playbook for integrating submariner (0)-&gt;task_93927552-c768-435c-a2f9-b94975cc1bed</title>
<path fill="none" stroke="#d52b3e" stroke-width="2" d="M474.2587,-619.8192C508.68,-651.73 585.6612,-716.8188 664.9804,-741.653 752.9739,-769.203 1278.483,-769.7308 1616.4727,-767.0662"/>
<polygon fill="#d52b3e" stroke="#d52b3e" stroke-width="2" points="1616.6952,-770.5647 1626.6668,-766.9845 1616.639,-763.5649 1616.6952,-770.5647"/>
<text text-anchor="middle" x="1058.4804" y="-771.453" font-family="Times,serif" font-size="14.00" fill="#d52b3e">8  [when: kubeinit_submariner_is_broker|bool or kubeinit_submariner_is_secondary|bool]</text>
<links><link target="task_93927552-c768-435c-a2f9-b94975cc1bed"/></links></g>
<!-- task_294a6c99&#45;2105&#45;47f4&#45;8598&#45;4dcc90343853 -->
<g id="task_294a6c99-2105-47f4-8598-4dcc90343853" class="node">
<title>task_294a6c99-2105-47f4-8598-4dcc90343853</title>
<polygon fill="none" stroke="#000000" points="2199.2657,-702.1971 2199.2657,-717.1088 2026.7358,-727.653 1782.7417,-727.653 1610.2119,-717.1088 1610.2119,-702.1971 1782.7417,-691.653 2026.7358,-691.653 2199.2657,-702.1971"/>
<text text-anchor="middle" x="1904.7388" y="-705.953" font-family="Times,serif" font-size="14.00" fill="#000000">[task] ../../roles/kubeinit_submariner : Append subctl path to bash_profile</text>
</g>
<!-- Play #1: Main deployment playbook for integrating submariner (0)&#45;&gt;task_294a6c99&#45;2105&#45;47f4&#45;8598&#45;4dcc90343853 -->
<g id="edge_8f581b3e-f320-4a52-a341-dfc20cfa2532" class="edge">
<title>Play #1: Main deployment playbook for integrating submariner (0)-&gt;task_294a6c99-2105-47f4-8598-4dcc90343853</title>
<path fill="none" stroke="#d52b3e" stroke-width="2" d="M500.3731,-619.7097C542.2085,-635.589 606.7205,-657.6805 664.9804,-667.653 1005.113,-725.8742 1405.1572,-727.6666 1656.8602,-720.8603"/>
<polygon fill="#d52b3e" stroke="#d52b3e" stroke-width="2" points="1656.9691,-724.3587 1666.8683,-720.583 1656.7752,-717.3614 1656.9691,-724.3587"/>
<text text-anchor="middle" x="1058.4804" y="-726.453" font-family="Times,serif" font-size="14.00" fill="#d52b3e">9  [when: bash_profile_exists.stat.exists and (kubeinit_submariner_is_broker|bool or kubeinit_submariner_is_secondary|bool)]</text>
<links><link target="task_294a6c99-2105-47f4-8598-4dcc90343853"/></links></g>
<!-- task_a638fb58&#45;d63e&#45;41fc&#45;9371&#45;ffdcf0b611cb -->
<g id="task_a638fb58-d63e-41fc-9371-ffdcf0b611cb" class="node">
<title>task_a638fb58-d63e-41fc-9371-ffdcf0b611cb</title>
<polygon fill="none" stroke="#000000" points="2159.5674,-648.1971 2159.5674,-663.1088 2010.2923,-673.653 1799.1853,-673.653 1649.9101,-663.1088 1649.9101,-648.1971 1799.1853,-637.653 2010.2923,-637.653 2159.5674,-648.1971"/>
<text text-anchor="middle" x="1904.7388" y="-651.953" font-family="Times,serif" font-size="14.00" fill="#000000">[task] ../../roles/kubeinit_submariner : Check if ~/.bashrc exists</text>
</g>
<!-- Play #1: Main deployment playbook for integrating submariner (0)&#45;&gt;task_a638fb58&#45;d63e&#45;41fc&#45;9371&#45;ffdcf0b611cb -->
<g id="edge_a006f3bb-2ae4-4199-97d3-9ee67bd74899" class="edge">
<title>Play #1: Main deployment playbook for integrating submariner (0)-&gt;task_a638fb58-d63e-41fc-9371-ffdcf0b611cb</title>
<path fill="none" stroke="#d52b3e" stroke-width="2" d="M647.2475,-619.526C653.2251,-619.9291 659.1473,-620.3065 664.9804,-620.653 1000.7417,-640.5986 1388.3517,-649.2346 1639.5185,-652.9366"/>
<polygon fill="#d52b3e" stroke="#d52b3e" stroke-width="2" points="1639.8339,-656.4415 1649.8839,-653.0877 1639.936,-649.4422 1639.8339,-656.4415"/>
<text text-anchor="middle" x="1058.4804" y="-652.453" font-family="Times,serif" font-size="14.00" fill="#d52b3e">10  [when: kubeinit_submariner_is_broker|bool or kubeinit_submariner_is_secondary|bool]</text>
<links><link target="task_a638fb58-d63e-41fc-9371-ffdcf0b611cb"/></links></g>
<!-- task_f44074b3&#45;4615&#45;4b44&#45;aafa&#45;d992a458f96a -->
<g id="task_f44074b3-4615-4b44-aafa-d992a458f96a" class="node">
<title>task_f44074b3-4615-4b44-aafa-d992a458f96a</title>
<polygon fill="none" stroke="#000000" points="2176.335,-594.1971 2176.335,-609.1088 2017.2376,-619.653 1792.2399,-619.653 1633.1425,-609.1088 1633.1425,-594.1971 1792.2399,-583.653 2017.2376,-583.653 2176.335,-594.1971"/>
<text text-anchor="middle" x="1904.7388" y="-597.953" font-family="Times,serif" font-size="14.00" fill="#000000">[task] ../../roles/kubeinit_submariner : Append subctl path to bashrc</text>
</g>
<!-- Play #1: Main deployment playbook for integrating submariner (0)&#45;&gt;task_f44074b3&#45;4615&#45;4b44&#45;aafa&#45;d992a458f96a -->
<g id="edge_a7a78520-22e0-4092-8b15-d7f7cf556ab5" class="edge">
<title>Play #1: Main deployment playbook for integrating submariner (0)-&gt;task_f44074b3-4615-4b44-aafa-d992a458f96a</title>
<path fill="none" stroke="#d52b3e" stroke-width="2" d="M647.1827,-601.653C896.8418,-601.653 1335.2418,-601.653 1622.8173,-601.653"/>
<polygon fill="#d52b3e" stroke="#d52b3e" stroke-width="2" points="1622.9831,-605.1531 1632.983,-601.653 1622.983,-598.1531 1622.9831,-605.1531"/>
<text text-anchor="middle" x="1058.4804" y="-605.453" font-family="Times,serif" font-size="14.00" fill="#d52b3e">11  [when: bashrc_exists.stat.exists and (kubeinit_submariner_is_broker|bool or kubeinit_submariner_is_secondary|bool)]</text>
<links><link target="task_f44074b3-4615-4b44-aafa-d992a458f96a"/></links></g>
<!-- task_368e867e&#45;f325&#45;4c4b&#45;be39&#45;d534928834bd -->
<g id="task_368e867e-f325-4c4b-be39-d534928834bd" class="node">
<title>task_368e867e-f325-4c4b-be39-d534928834bd</title>
<polygon fill="none" stroke="#000000" points="2201.4865,-540.1971 2201.4865,-555.1088 2027.6557,-565.653 1781.8218,-565.653 1607.991,-555.1088 1607.991,-540.1971 1781.8218,-529.653 2027.6557,-529.653 2201.4865,-540.1971"/>
<text text-anchor="middle" x="1904.7388" y="-543.953" font-family="Times,serif" font-size="14.00" fill="#000000">[task] ../../roles/kubeinit_submariner : Render the iptables persist template</text>
</g>
<!-- Play #1: Main deployment playbook for integrating submariner (0)&#45;&gt;task_368e867e&#45;f325&#45;4c4b&#45;be39&#45;d534928834bd -->
<g id="edge_7c2bc324-3fe9-4558-b40e-1eeedfa70bb4" class="edge">
<title>Play #1: Main deployment playbook for integrating submariner (0)-&gt;task_368e867e-f325-4c4b-be39-d534928834bd</title>
<path fill="none" stroke="#d52b3e" stroke-width="2" d="M647.2475,-583.78C653.2251,-583.3769 659.1473,-582.9995 664.9804,-582.653 982.7461,-563.7764 1346.9516,-555.0296 1597.9867,-551.0081"/>
<polygon fill="#d52b3e" stroke="#d52b3e" stroke-width="2" points="1598.0438,-554.5077 1607.987,-550.8495 1597.9327,-547.5086 1598.0438,-554.5077"/>
<text text-anchor="middle" x="1058.4804" y="-586.453" font-family="Times,serif" font-size="14.00" fill="#d52b3e">12  [when: kubeinit_submariner_is_broker|bool]</text>
<links><link target="task_368e867e-f325-4c4b-be39-d534928834bd"/></links></g>
<!-- task_6a4be05d&#45;883d&#45;4fc9&#45;8a79&#45;45b40d3c896a -->
<g id="task_6a4be05d-883d-4fc9-8a79-45b40d3c896a" class="node">
<title>task_6a4be05d-883d-4fc9-8a79-45b40d3c896a</title>
<polygon fill="none" stroke="#000000" points="2296.4295,-486.1971 2296.4295,-501.1088 2066.9824,-511.653 1742.4952,-511.653 1513.048,-501.1088 1513.048,-486.1971 1742.4952,-475.653 2066.9824,-475.653 2296.4295,-486.1971"/>
<text text-anchor="middle" x="1904.7388" y="-489.953" font-family="Times,serif" font-size="14.00" fill="#000000">[task] ../../roles/kubeinit_submariner : Make sure there the traffic is allowed from/to the cluster net</text>
</g>
<!-- Play #1: Main deployment playbook for integrating submariner (0)&#45;&gt;task_6a4be05d&#45;883d&#45;4fc9&#45;8a79&#45;45b40d3c896a -->
<g id="edge_919a1cf9-69de-47cc-97da-166fe01e5a81" class="edge">
<title>Play #1: Main deployment playbook for integrating submariner (0)-&gt;task_6a4be05d-883d-4fc9-8a79-45b40d3c896a</title>
<path fill="none" stroke="#d52b3e" stroke-width="2" d="M499.5374,-583.6181C541.3267,-567.4657 606.2816,-544.8073 664.9804,-534.653 986.8085,-478.9801 1362.4351,-474.8817 1615.1648,-480.789"/>
<polygon fill="#d52b3e" stroke="#d52b3e" stroke-width="2" points="1615.1465,-484.2895 1625.2278,-481.0311 1615.3148,-477.2915 1615.1465,-484.2895"/>
<text text-anchor="middle" x="1058.4804" y="-538.453" font-family="Times,serif" font-size="14.00" fill="#d52b3e">13  [when: kubeinit_submariner_is_broker|bool]</text>
<links><link target="task_6a4be05d-883d-4fc9-8a79-45b40d3c896a"/></links></g>
<!-- task_51e0f000&#45;96fb&#45;4e02&#45;87ad&#45;c7409acde6b1 -->
<g id="task_51e0f000-96fb-4e02-87ad-c7409acde6b1" class="node">
<title>task_51e0f000-96fb-4e02-87ad-c7409acde6b1</title>
<polygon fill="none" stroke="#000000" points="2158.6604,-432.1971 2158.6604,-447.1088 2009.9165,-457.653 1799.561,-457.653 1650.8172,-447.1088 1650.8172,-432.1971 1799.561,-421.653 2009.9165,-421.653 2158.6604,-432.1971"/>
<text text-anchor="middle" x="1904.7388" y="-435.953" font-family="Times,serif" font-size="14.00" fill="#000000">[task] ../../roles/kubeinit_submariner : Configure broker cluster</text>
</g>
<!-- Play #1: Main deployment playbook for integrating submariner (0)&#45;&gt;task_51e0f000&#45;96fb&#45;4e02&#45;87ad&#45;c7409acde6b1 -->
<g id="edge_5463cb87-e06b-4f6e-b3ef-09a63b2c90cf" class="edge">
<title>Play #1: Main deployment playbook for integrating submariner (0)-&gt;task_51e0f000-96fb-4e02-87ad-c7409acde6b1</title>
<path fill="none" stroke="#d52b3e" stroke-width="2" d="M473.9308,-583.4728C508.1263,-551.1841 585.1622,-484.8608 664.9804,-459.653 849.2346,-401.4627 1384.744,-415.0505 1688.2528,-428.3619"/>
<polygon fill="#d52b3e" stroke="#d52b3e" stroke-width="2" points="1688.359,-431.8699 1698.504,-428.8152 1688.6684,-424.8767 1688.359,-431.8699"/>
<text text-anchor="middle" x="1058.4804" y="-463.453" font-family="Times,serif" font-size="14.00" fill="#d52b3e">14  [when: kubeinit_submariner_is_broker|bool]</text>
<links><link target="task_51e0f000-96fb-4e02-87ad-c7409acde6b1"/></links></g>
<!-- task_ab1ab75e&#45;7c06&#45;4184&#45;9550&#45;795530c81120 -->
<g id="task_ab1ab75e-7c06-4184-9550-795530c81120" class="node">
<title>task_ab1ab75e-7c06-4184-9550-795530c81120</title>
<polygon fill="none" stroke="#000000" points="2236.8357,-378.1971 2236.8357,-393.1088 2042.2978,-403.653 1767.1797,-403.653 1572.6418,-393.1088 1572.6418,-378.1971 1767.1797,-367.653 2042.2978,-367.653 2236.8357,-378.1971"/>
<text text-anchor="middle" x="1904.7388" y="-381.953" font-family="Times,serif" font-size="14.00" fill="#000000">[task] ../../roles/kubeinit_submariner : Copy the broker-info.subm to the hypervisor</text>
</g>
<!-- Play #1: Main deployment playbook for integrating submariner (0)&#45;&gt;task_ab1ab75e&#45;7c06&#45;4184&#45;9550&#45;795530c81120 -->
<g id="edge_4b1fc2e4-f615-468c-9037-087498d7cd19" class="edge">
<title>Play #1: Main deployment playbook for integrating submariner (0)-&gt;task_ab1ab75e-7c06-4184-9550-795530c81120</title>
<path fill="none" stroke="#d52b3e" stroke-width="2" d="M466.8567,-583.4671C494.5423,-541.1508 570.1674,-436.7249 664.9804,-397.653 747.9435,-363.4644 1248.8398,-368.7234 1588.0084,-376.5456"/>
<polygon fill="#d52b3e" stroke="#d52b3e" stroke-width="2" points="1588.1675,-380.0502 1598.2461,-376.7836 1588.3302,-373.052 1588.1675,-380.0502"/>
<text text-anchor="middle" x="1058.4804" y="-401.453" font-family="Times,serif" font-size="14.00" fill="#d52b3e">15  [when: kubeinit_submariner_is_broker|bool]</text>
<links><link target="task_ab1ab75e-7c06-4184-9550-795530c81120"/></links></g>
<!-- task_cf802b65&#45;8a82&#45;4b4e&#45;a613&#45;424ed3619a30 -->
<g id="task_cf802b65-8a82-4b4e-a613-424ed3619a30" class="node">
<title>task_cf802b65-8a82-4b4e-a613-424ed3619a30</title>
<polygon fill="none" stroke="#000000" points="2212.0912,-324.1971 2212.0912,-339.1088 2032.0483,-349.653 1777.4292,-349.653 1597.3863,-339.1088 1597.3863,-324.1971 1777.4292,-313.653 2032.0483,-313.653 2212.0912,-324.1971"/>
<text text-anchor="middle" x="1904.7388" y="-327.953" font-family="Times,serif" font-size="14.00" fill="#000000">[task] ../../roles/kubeinit_submariner : Copy the kubeconfig to the hypervisor</text>
</g>
<!-- Play #1: Main deployment playbook for integrating submariner (0)&#45;&gt;task_cf802b65&#45;8a82&#45;4b4e&#45;a613&#45;424ed3619a30 -->
<g id="edge_fa59072a-6b97-4d49-9aea-b40dbd07f4e3" class="edge">
<title>Play #1: Main deployment playbook for integrating submariner (0)-&gt;task_cf802b65-8a82-4b4e-a613-424ed3619a30</title>
<path fill="none" stroke="#d52b3e" stroke-width="2" d="M463.768,-583.5767C487.1501,-535.0533 558.9074,-402.2032 664.9804,-351.653 746.7922,-312.6647 1257.4452,-316.3164 1597.3372,-323.3805"/>
<polygon fill="#d52b3e" stroke="#d52b3e" stroke-width="2" points="1597.2715,-326.8798 1607.3428,-323.5905 1597.4185,-319.8814 1597.2715,-326.8798"/>
<text text-anchor="middle" x="1058.4804" y="-355.453" font-family="Times,serif" font-size="14.00" fill="#d52b3e">16  [when: kubeinit_submariner_is_broker|bool or kubeinit_submariner_is_secondary|bool]</text>
<links><link target="task_cf802b65-8a82-4b4e-a613-424ed3619a30"/></links></g>
<!-- task_55e006a0&#45;00e9&#45;4f01&#45;90ea&#45;30ac3d3658fb -->
<g id="task_55e006a0-00e9-4f01-90ea-30ac3d3658fb" class="node">
<title>task_55e006a0-00e9-4f01-90ea-30ac3d3658fb</title>
<polygon fill="none" stroke="#000000" points="2339.2556,-270.1971 2339.2556,-285.1088 2084.7215,-295.653 1724.756,-295.653 1470.2219,-285.1088 1470.2219,-270.1971 1724.756,-259.653 2084.7215,-259.653 2339.2556,-270.1971"/>
<text text-anchor="middle" x="1904.7388" y="-273.953" font-family="Times,serif" font-size="14.00" fill="#000000">[task] ../../roles/kubeinit_submariner : Copying the broker-info.subm and kubeconfig to the destination cluster</text>
</g>
<!-- Play #1: Main deployment playbook for integrating submariner (0)&#45;&gt;task_55e006a0&#45;00e9&#45;4f01&#45;90ea&#45;30ac3d3658fb -->
<g id="edge_0c0adef7-5930-415a-ae04-55a477f4c125" class="edge">
<title>Play #1: Main deployment playbook for integrating submariner (0)-&gt;task_55e006a0-00e9-4f01-90ea-30ac3d3658fb</title>
<path fill="none" stroke="#d52b3e" stroke-width="2" d="M461.3471,-583.6087C480.2991,-528.6891 545.6842,-363.4412 664.9804,-299.653 739.6957,-259.7024 1191.373,-260.5683 1528.1181,-267.1578"/>
<polygon fill="#d52b3e" stroke="#d52b3e" stroke-width="2" points="1528.4793,-270.6656 1538.5467,-267.3645 1528.618,-263.667 1528.4793,-270.6656"/>
<text text-anchor="middle" x="1058.4804" y="-303.453" font-family="Times,serif" font-size="14.00" fill="#d52b3e">17  [when: kubeinit_submariner_is_secondary|bool]</text>
<links><link target="task_55e006a0-00e9-4f01-90ea-30ac3d3658fb"/></links></g>
<!-- task_d011ed95&#45;34f9&#45;4bfd&#45;b8c3&#45;38f7a8540f29 -->
<g id="task_d011ed95-34f9-4bfd-b8c3-38f7a8540f29" class="node">
<title>task_d011ed95-34f9-4bfd-b8c3-38f7a8540f29</title>
<polygon fill="none" stroke="#000000" points="2159.9744,-216.1971 2159.9744,-231.1088 2010.4608,-241.653 1799.0167,-241.653 1649.5031,-231.1088 1649.5031,-216.1971 1799.0167,-205.653 2010.4608,-205.653 2159.9744,-216.1971"/>
<text text-anchor="middle" x="1904.7388" y="-219.953" font-family="Times,serif" font-size="14.00" fill="#000000">[task] ../../roles/kubeinit_submariner : Join cluster to the broker</text>
</g>
<!-- Play #1: Main deployment playbook for integrating submariner (0)&#45;&gt;task_d011ed95&#45;34f9&#45;4bfd&#45;b8c3&#45;38f7a8540f29 -->
<g id="edge_98593e72-623d-4b20-95d9-5c9f03f4e715" class="edge">
<title>Play #1: Main deployment playbook for integrating submariner (0)-&gt;task_d011ed95-34f9-4bfd-b8c3-38f7a8540f29</title>
<path fill="none" stroke="#d52b3e" stroke-width="2" d="M459.5102,-583.5384C474.2098,-522.3399 531.2465,-322.7453 664.9804,-244.653 747.7666,-196.311 1315.6317,-205.0779 1653.4109,-214.883"/>
<polygon fill="#d52b3e" stroke="#d52b3e" stroke-width="2" points="1653.4873,-218.3866 1663.5854,-215.1807 1653.6921,-211.3896 1653.4873,-218.3866"/>
<text text-anchor="middle" x="1058.4804" y="-248.453" font-family="Times,serif" font-size="14.00" fill="#d52b3e">18  [when: kubeinit_submariner_is_broker|bool or kubeinit_submariner_is_secondary|bool]</text>
<links><link target="task_d011ed95-34f9-4bfd-b8c3-38f7a8540f29"/></links></g>
<!-- task_450339d4&#45;0195&#45;4117&#45;bf3d&#45;f90ea55662e7 -->
<g id="task_450339d4-0195-4117-bf3d-f90ea55662e7" class="node">
<title>task_450339d4-0195-4117-bf3d-f90ea55662e7</title>
<polygon fill="none" stroke="#000000" points="2129.974,-162.1971 2129.974,-177.1088 1998.0343,-187.653 1811.4433,-187.653 1679.5035,-177.1088 1679.5035,-162.1971 1811.4433,-151.653 1998.0343,-151.653 2129.974,-162.1971"/>
<text text-anchor="middle" x="1904.7388" y="-165.953" font-family="Times,serif" font-size="14.00" fill="#000000">[task] ../../roles/kubeinit_submariner : Tag worker node</text>
</g>
<!-- Play #1: Main deployment playbook for integrating submariner (0)&#45;&gt;task_450339d4&#45;0195&#45;4117&#45;bf3d&#45;f90ea55662e7 -->
<g id="edge_2ebadaad-f7c5-495c-a071-c4ad51f5803c" class="edge">
<title>Play #1: Main deployment playbook for integrating submariner (0)-&gt;task_450339d4-0195-4117-bf3d-f90ea55662e7</title>
<path fill="none" stroke="#d52b3e" stroke-width="2" d="M458.0404,-583.6085C468.6298,-516.5693 515.7079,-280.9118 664.9804,-187.653 748.8304,-135.2672 1350.853,-148.8013 1684.116,-160.6196"/>
<polygon fill="#d52b3e" stroke="#d52b3e" stroke-width="2" points="1684.268,-164.1272 1694.3865,-160.9863 1684.5178,-157.1317 1684.268,-164.1272"/>
<text text-anchor="middle" x="1058.4804" y="-191.453" font-family="Times,serif" font-size="14.00" fill="#d52b3e">19  [when: kubeinit_submariner_is_broker|bool or kubeinit_submariner_is_secondary|bool]</text>
<links><link target="task_450339d4-0195-4117-bf3d-f90ea55662e7"/></links></g>
<!-- task_31627163&#45;810a&#45;40fb&#45;a673&#45;564d13788f7e -->
<g id="task_31627163-810a-40fb-a673-564d13788f7e" class="node">
<title>task_31627163-810a-40fb-a673-564d13788f7e</title>
<polygon fill="none" stroke="#000000" points="2164.8234,-108.1971 2164.8234,-123.1088 2012.4693,-133.653 1797.0082,-133.653 1644.6541,-123.1088 1644.6541,-108.1971 1797.0082,-97.653 2012.4693,-97.653 2164.8234,-108.1971"/>
<text text-anchor="middle" x="1904.7388" y="-111.953" font-family="Times,serif" font-size="14.00" fill="#000000">[task] ../../roles/kubeinit_submariner : Render the netshoot script</text>
</g>
<!-- Play #1: Main deployment playbook for integrating submariner (0)&#45;&gt;task_31627163&#45;810a&#45;40fb&#45;a673&#45;564d13788f7e -->
<g id="edge_e66d1452-ba98-4bbf-89cb-66d0df5785f3" class="edge">
<title>Play #1: Main deployment playbook for integrating submariner (0)-&gt;task_31627163-810a-40fb-a673-564d13788f7e</title>
<path fill="none" stroke="#d52b3e" stroke-width="2" d="M456.9402,-583.2528C463.8413,-510.1748 500.1527,-239.1589 664.9804,-130.653 746.6418,-76.8953 1336.8089,-91.8852 1672.5909,-105.1194"/>
<polygon fill="#d52b3e" stroke="#d52b3e" stroke-width="2" points="1672.8135,-108.6309 1682.9444,-105.5301 1673.091,-101.6364 1672.8135,-108.6309"/>
<text text-anchor="middle" x="1058.4804" y="-134.453" font-family="Times,serif" font-size="14.00" fill="#d52b3e">20  [when: kubeinit_submariner_is_broker|bool or kubeinit_submariner_is_secondary|bool]</text>
<links><link target="task_31627163-810a-40fb-a673-564d13788f7e"/></links></g>
<!-- task_5fec4d64&#45;8ba4&#45;4bfc&#45;a65a&#45;0c289f511128 -->
<g id="task_5fec4d64-8ba4-4bfc-a65a-0c289f511128" class="node">
<title>task_5fec4d64-8ba4-4bfc-a65a-0c289f511128</title>
<polygon fill="none" stroke="#000000" points="2165.7302,-54.1971 2165.7302,-69.1088 2012.845,-79.653 1796.6326,-79.653 1643.7473,-69.1088 1643.7473,-54.1971 1796.6326,-43.653 2012.845,-43.653 2165.7302,-54.1971"/>
<text text-anchor="middle" x="1904.7388" y="-57.953" font-family="Times,serif" font-size="14.00" fill="#000000">[task] ../../roles/kubeinit_submariner : Verify cluster deployment</text>
</g>
<!-- Play #1: Main deployment playbook for integrating submariner (0)&#45;&gt;task_5fec4d64&#45;8ba4&#45;4bfc&#45;a65a&#45;0c289f511128 -->
<g id="edge_47bed576-81f2-4bb3-842c-5e4e8474e996" class="edge">
<title>Play #1: Main deployment playbook for integrating submariner (0)-&gt;task_5fec4d64-8ba4-4bfc-a65a-0c289f511128</title>
<path fill="none" stroke="#d52b3e" stroke-width="2" d="M455.9824,-583.4987C459.2353,-505.4953 483.5404,-197.1279 664.9804,-72.653 839.6791,47.1971 1478.7707,-10.7679 1764.7591,-43.9503"/>
<polygon fill="#d52b3e" stroke="#d52b3e" stroke-width="2" points="1764.444,-47.4372 1774.7823,-45.1199 1765.2554,-40.4844 1764.444,-47.4372"/>
<text text-anchor="middle" x="1058.4804" y="-76.453" font-family="Times,serif" font-size="14.00" fill="#d52b3e">21  [when: kubeinit_submariner_is_secondary|bool]</text>
<links><link target="task_5fec4d64-8ba4-4bfc-a65a-0c289f511128"/></links></g>
</g>
</svg>