<?xml version='1.0' encoding='UTF-8'?>
<!DOCTYPE svg PUBLIC "-//W3C//DTD SVG 1.1//EN" "http://www.w3.org/Graphics/SVG/1.1/DTD/svg11.dtd">
<!-- Generated by graphviz version 2.43.0 (0)
 --><!-- Title: ./playbooks/submariner&#45;subctl&#45;verify.yml  Pages: 1 --><svg xmlns="http://www.w3.org/2000/svg" xmlns:xlink="http://www.w3.org/1999/xlink" width="1933pt" height="975pt" viewBox="0.00 0.00 1933.19 974.90" id="svg">
<script type="text/javascript" href="https://ajax.googleapis.com/ajax/libs/jquery/3.2.1/jquery.min.js" id="jquery"/><script type="text/javascript" id="my_javascript"><![CDATA[const HOVER_CLASS = "my_hover";

var selectedElement = null;

function addClass(rootElement) {
    $(rootElement).find('link').each(function (index, element) {
        var target = $(element).attr('target');
        var currentElement = $('#' + target);
        currentElement.addClass(HOVER_CLASS);

        addClass(currentElement);
    })
}

function removeClass(rootElement, hover) {
    $(rootElement).find('link').each(function (index, element) {
        if ($(rootElement).attr('id') !== $(selectedElement).attr('id') || !hover) {
            var target = $(element).attr('target');
            var currentElement = $('#' + target);
            currentElement.removeClass(HOVER_CLASS);

            removeClass(currentElement);
        }

    })
}

function hoverIn(event) {
    addClass(event.currentTarget);
}

function hoverOut(event) {
    removeClass(event.currentTarget, true);
}

function clickOnElement(event) {
    var newElement = event.currentTarget;

    if ($(newElement).attr('id') === $(selectedElement).attr('id')) {
        removeClass(selectedElement, false);
    } else {
        removeClass(selectedElement);
        addClass(newElement)
    }

    selectedElement = newElement;
}


$("#svg").ready(function () {

    $("g[id^=play_]").hover(hoverIn, hoverOut);
    $("g[id^=role_]").hover(hoverIn, hoverOut);

    $("g[id^=play_]").click(clickOnElement);
    $("g[id^=role_]").click(clickOnElement);

});
]]></script><style type="text/css" id="my_css"><![CDATA[.node:hover, .edge:hover, path:hover, path + polygon:hover {
    cursor: pointer;
    stroke-width: 3;
    font-weight: bolder;
}

.my_hover {
    cursor: pointer;
    stroke-width: 3;
    font-weight: bolder;
}
]]></style><g id="graph0" class="graph" transform="scale(1 1) rotate(0) translate(4 970.9)">
<title>./playbooks/submariner-subctl-verify.yml </title>
<polygon fill="white" stroke="transparent" points="-4,4 -4,-970.9 1929.19,-970.9 1929.19,4 -4,4"/>
<!-- ./playbooks/submariner&#45;subctl&#45;verify.yml -->
<g id="root_node" class="node">
<title>./playbooks/submariner-subctl-verify.yml</title>
<ellipse fill="none" stroke="black" stroke-dasharray="1,5" cx="198.88" cy="-483.23" rx="198.76" ry="18"/>
<text text-anchor="middle" x="198.88" y="-479.53" font-family="Times,serif" font-size="14.00">./playbooks/submariner-subctl-verify.yml</text>
</g>
<!-- Play #1: Main deployment playbook for integrating submariner (0) -->
<g id="play_ed50dafa-4de2-4144-b087-0c998755f3b3" class="node">
<title>Play #1: Main deployment playbook for integrating submariner (0)</title>
<polygon fill="#dd2216" stroke="#dd2216" points="938.76,-501.23 443.76,-501.23 443.76,-465.23 938.76,-465.23 938.76,-501.23"/>
<text text-anchor="middle" x="691.26" y="-479.53" font-family="Times,serif" font-size="14.00" fill="#ffffff">Play #1: Main deployment playbook for integrating submariner (0)</text>
<links><link target="edge_6ecba9bd-e6f5-4642-b42d-089132eab724"/><link target="edge_08b8e93e-4845-4172-b468-a69b4e6b7503"/><link target="edge_491806de-1cba-4cb9-9d7b-ff4773624f01"/><link target="edge_b20bafcc-e97d-461e-b219-e9b39a57c545"/><link target="edge_a6356ca5-0953-45cc-b974-b5bced09c0d8"/><link target="edge_54097116-17ce-45af-a218-25c64888f890"/><link target="edge_38eae79c-255e-43d7-aaea-b1e1b8fb5eda"/><link target="edge_e936e1b8-5acb-4867-9722-83b6623ea34d"/><link target="edge_03da3311-57bc-4ded-ac18-01a0f8c55b45"/><link target="edge_7225f4ef-b9ab-44fe-8982-a0ebf385cef6"/><link target="edge_4fb9aaf1-11d0-4bab-8bca-a58b0ffec30f"/><link target="edge_0d379c55-577a-4d6b-9fa7-c03f614ae10e"/><link target="edge_56aba3d7-502e-4039-bf3b-1460d026269e"/><link target="edge_f2f761cd-feb7-407b-aace-bee22bde0738"/><link target="edge_fecbda43-218a-401d-a268-448cfcfb8526"/><link target="edge_154d2cd8-1f2c-4a77-a6bb-ebc566e955c6"/><link target="edge_fbb004ad-c634-4821-8bd6-c5d91abff275"/><link target="edge_0368ec0e-11ee-4aec-9948-773148a79496"/></links></g>
<!-- ./playbooks/submariner&#45;subctl&#45;verify.yml&#45;&gt;Play #1: Main deployment playbook for integrating submariner (0) -->
<g id="edge_41edfcdf-34c3-4492-9eab-f67bfb844752" class="edge">
<title>./playbooks/submariner-subctl-verify.yml-&gt;Play #1: Main deployment playbook for integrating submariner (0)</title>
<path fill="none" stroke="#dd2216" stroke-width="2" d="M397.93,-483.23C409.66,-483.23 421.54,-483.23 433.46,-483.23"/>
<polygon fill="#dd2216" stroke="#dd2216" stroke-width="2" points="433.48,-486.73 443.48,-483.23 433.48,-479.73 433.48,-486.73"/>
<text text-anchor="middle" x="420.76" y="-487.03" font-family="Times,serif" font-size="14.00" fill="#dd2216">1</text>
</g>
<!-- pre_task_20b3a09a&#45;d15e&#45;48c3&#45;a77a&#45;3d5344f1bea8 -->
<g id="pre_task_20b3a09a-d15e-48c3-a77a-3d5344f1bea8" class="node">
<title>pre_task_20b3a09a-d15e-48c3-a77a-3d5344f1bea8</title>
<g id="a_pre_task_20b3a09a-d15e-48c3-a77a-3d5344f1bea8"><a xlink:title="[pre_task] Check if Ansible meets version requirements.">
<polygon fill="none" stroke="black" points="1753.6,-934.77 1753.6,-949.68 1581.31,-960.23 1337.65,-960.23 1165.36,-949.68 1165.36,-934.77 1337.65,-924.23 1581.31,-924.23 1753.6,-934.77"/>
<text text-anchor="middle" x="1459.48" y="-938.53" font-family="Times,serif" font-size="14.00">[pre_task] Check if Ansible meets version requirements.</text>
</a>
</g>
</g>
<!-- Play #1: Main deployment playbook for integrating submariner (0)&#45;&gt;pre_task_20b3a09a&#45;d15e&#45;48c3&#45;a77a&#45;3d5344f1bea8 -->
<g id="edge_6ecba9bd-e6f5-4642-b42d-089132eab724" class="edge">
<title>Play #1: Main deployment playbook for integrating submariner (0)-&gt;pre_task_20b3a09a-d15e-48c3-a77a-3d5344f1bea8</title>
<path fill="none" stroke="#dd2216" stroke-width="2" d="M698.08,-501.35C721.49,-570.89 816.26,-821.44 993.76,-915.23 1100.84,-971.8 1241.8,-971.39 1340.28,-961.33"/>
<polygon fill="#dd2216" stroke="#dd2216" stroke-width="2" points="1340.7,-964.8 1350.27,-960.26 1339.95,-957.84 1340.7,-964.8"/>
<text text-anchor="middle" x="966.26" y="-904.03" font-family="Times,serif" font-size="14.00" fill="#dd2216">1</text>
<links><link target="pre_task_20b3a09a-d15e-48c3-a77a-3d5344f1bea8"/></links></g>
<!-- task_2d3608df&#45;124f&#45;4587&#45;a27a&#45;caa0d238241e -->
<g id="task_2d3608df-124f-4587-a27a-caa0d238241e" class="node">
<title>task_2d3608df-124f-4587-a27a-caa0d238241e</title>
<g id="a_task_2d3608df-124f-4587-a27a-caa0d238241e"><a xlink:title="[task] ../../roles/kubeinit_prepare : Gather variables for each operating system">
<polygon fill="none" stroke="black" points="1863.09,-880.77 1863.09,-895.68 1626.66,-906.23 1292.3,-906.23 1055.87,-895.68 1055.87,-880.77 1292.3,-870.23 1626.66,-870.23 1863.09,-880.77"/>
<text text-anchor="middle" x="1459.48" y="-884.53" font-family="Times,serif" font-size="14.00">[task] ../../roles/kubeinit_prepare : Gather variables for each operating system</text>
</a>
</g>
</g>
<!-- Play #1: Main deployment playbook for integrating submariner (0)&#45;&gt;task_2d3608df&#45;124f&#45;4587&#45;a27a&#45;caa0d238241e -->
<g id="edge_08b8e93e-4845-4172-b468-a69b4e6b7503" class="edge">
<title>Play #1: Main deployment playbook for integrating submariner (0)-&gt;task_2d3608df-124f-4587-a27a-caa0d238241e</title>
<path fill="none" stroke="#dd2216" stroke-width="2" d="M700.04,-501.5C728.27,-565.19 832.21,-777.99 993.76,-861.23 1099.69,-915.8 1237.74,-916.47 1335.78,-907.22"/>
<polygon fill="#dd2216" stroke="#dd2216" stroke-width="2" points="1336.14,-910.7 1345.74,-906.23 1335.45,-903.74 1336.14,-910.7"/>
<text text-anchor="middle" x="966.26" y="-852.03" font-family="Times,serif" font-size="14.00" fill="#dd2216">2</text>
<links><link target="task_2d3608df-124f-4587-a27a-caa0d238241e"/></links></g>
<!-- task_1d2b8dde&#45;129e&#45;41c0&#45;b20b&#45;82df4aef2ef8 -->
<g id="task_1d2b8dde-129e-41c0-b20b-82df4aef2ef8" class="node">
<title>task_1d2b8dde-129e-41c0-b20b-82df4aef2ef8</title>
<g id="a_task_1d2b8dde-129e-41c0-b20b-82df4aef2ef8"><a xlink:title="[task] ../../roles/kubeinit_prepare : add all master nodes to the all_master_nodes group">
<polygon fill="none" stroke="black" points="1904.6,-826.77 1904.6,-841.68 1643.85,-852.23 1275.1,-852.23 1014.36,-841.68 1014.36,-826.77 1275.1,-816.23 1643.85,-816.23 1904.6,-826.77"/>
<text text-anchor="middle" x="1459.48" y="-830.53" font-family="Times,serif" font-size="14.00">[task] ../../roles/kubeinit_prepare : add all master nodes to the all_master_nodes group</text>
</a>
</g>
</g>
<!-- Play #1: Main deployment playbook for integrating submariner (0)&#45;&gt;task_1d2b8dde&#45;129e&#45;41c0&#45;b20b&#45;82df4aef2ef8 -->
<g id="edge_491806de-1cba-4cb9-9d7b-ff4773624f01" class="edge">
<title>Play #1: Main deployment playbook for integrating submariner (0)-&gt;task_1d2b8dde-129e-41c0-b20b-82df4aef2ef8</title>
<path fill="none" stroke="#dd2216" stroke-width="2" d="M702.16,-501.28C734.77,-558.69 845.32,-737.4 993.76,-807.23 1092.91,-853.87 1217.38,-858.68 1312.54,-852.88"/>
<polygon fill="#dd2216" stroke="#dd2216" stroke-width="2" points="1312.78,-856.38 1322.54,-852.23 1312.33,-849.39 1312.78,-856.38"/>
<text text-anchor="middle" x="966.26" y="-800.03" font-family="Times,serif" font-size="14.00" fill="#dd2216">3</text>
<links><link target="task_1d2b8dde-129e-41c0-b20b-82df4aef2ef8"/></links></g>
<!-- task_fa7836f3&#45;1069&#45;47b2&#45;bdc9&#45;bf47c2aa430d -->
<g id="task_fa7836f3-1069-47b2-bdc9-bf47c2aa430d" class="node">
<title>task_fa7836f3-1069-47b2-bdc9-bf47c2aa430d</title>
<g id="a_task_fa7836f3-1069-47b2-bdc9-bf47c2aa430d"><a xlink:title="[task] ../../roles/kubeinit_prepare : add all worker nodes to the all_worker_nodes group">
<polygon fill="none" stroke="black" points="1904.6,-772.77 1904.6,-787.68 1643.85,-798.23 1275.1,-798.23 1014.36,-787.68 1014.36,-772.77 1275.1,-762.23 1643.85,-762.23 1904.6,-772.77"/>
<text text-anchor="middle" x="1459.48" y="-776.53" font-family="Times,serif" font-size="14.00">[task] ../../roles/kubeinit_prepare : add all worker nodes to the all_worker_nodes group</text>
</a>
</g>
</g>
<!-- Play #1: Main deployment playbook for integrating submariner (0)&#45;&gt;task_fa7836f3&#45;1069&#45;47b2&#45;bdc9&#45;bf47c2aa430d -->
<g id="edge_b20bafcc-e97d-461e-b219-e9b39a57c545" class="edge">
<title>Play #1: Main deployment playbook for integrating submariner (0)-&gt;task_fa7836f3-1069-47b2-bdc9-bf47c2aa430d</title>
<path fill="none" stroke="#dd2216" stroke-width="2" d="M705.31,-501.48C743.02,-552.56 858.17,-696.83 993.76,-753.23 1007.69,-759.02 1022.05,-764.11 1036.72,-768.57"/>
<polygon fill="#dd2216" stroke="#dd2216" stroke-width="2" points="1035.82,-771.96 1046.4,-771.41 1037.79,-765.24 1035.82,-771.96"/>
<text text-anchor="middle" x="966.26" y="-748.03" font-family="Times,serif" font-size="14.00" fill="#dd2216">4</text>
<links><link target="task_fa7836f3-1069-47b2-bdc9-bf47c2aa430d"/></links></g>
<!-- task_bb663f34&#45;7a76&#45;4e78&#45;93ed&#45;5f02864ccfaa -->
<g id="task_bb663f34-7a76-4e78-93ed-5f02864ccfaa" class="node">
<title>task_bb663f34-7a76-4e78-93ed-5f02864ccfaa</title>
<g id="a_task_bb663f34-7a76-4e78-93ed-5f02864ccfaa"><a xlink:title="[task] ../../roles/kubeinit_prepare : add all bootstrap nodes the all_bootstrap_nodes group">
<polygon fill="none" stroke="black" points="1918.33,-718.77 1918.33,-733.68 1649.54,-744.23 1269.41,-744.23 1000.62,-733.68 1000.62,-718.77 1269.41,-708.23 1649.54,-708.23 1918.33,-718.77"/>
<text text-anchor="middle" x="1459.48" y="-722.53" font-family="Times,serif" font-size="14.00">[task] ../../roles/kubeinit_prepare : add all bootstrap nodes the all_bootstrap_nodes group</text>
</a>
</g>
</g>
<!-- Play #1: Main deployment playbook for integrating submariner (0)&#45;&gt;task_bb663f34&#45;7a76&#45;4e78&#45;93ed&#45;5f02864ccfaa -->
<g id="edge_a6356ca5-0953-45cc-b974-b5bced09c0d8" class="edge">
<title>Play #1: Main deployment playbook for integrating submariner (0)-&gt;task_bb663f34-7a76-4e78-93ed-5f02864ccfaa</title>
<path fill="none" stroke="#dd2216" stroke-width="2" d="M709.52,-501.24C752.58,-544.82 870.22,-655.55 993.76,-699.23 1009.93,-704.94 1026.6,-709.89 1043.59,-714.17"/>
<polygon fill="#dd2216" stroke="#dd2216" stroke-width="2" points="1043.09,-717.65 1053.63,-716.61 1044.74,-710.85 1043.09,-717.65"/>
<text text-anchor="middle" x="966.26" y="-695.03" font-family="Times,serif" font-size="14.00" fill="#dd2216">5</text>
<links><link target="task_bb663f34-7a76-4e78-93ed-5f02864ccfaa"/></links></g>
<!-- task_b016a88b&#45;9e81&#45;4e96&#45;ae98&#45;e5b6cf85f1c2 -->
<g id="task_b016a88b-9e81-4e96-ae98-e5b6cf85f1c2" class="node">
<title>task_b016a88b-9e81-4e96-ae98-e5b6cf85f1c2</title>
<g id="a_task_b016a88b-9e81-4e96-ae98-e5b6cf85f1c2"><a xlink:title="[task] ../../roles/kubeinit_prepare : add all cluster nodes to the all_cluster_nodes group">
<polygon fill="none" stroke="black" points="1904.19,-664.77 1904.19,-679.68 1643.68,-690.23 1275.27,-690.23 1014.76,-679.68 1014.76,-664.77 1275.27,-654.23 1643.68,-654.23 1904.19,-664.77"/>
<text text-anchor="middle" x="1459.48" y="-668.53" font-family="Times,serif" font-size="14.00">[task] ../../roles/kubeinit_prepare : add all cluster nodes to the all_cluster_nodes group</text>
</a>
</g>
</g>
<!-- Play #1: Main deployment playbook for integrating submariner (0)&#45;&gt;task_b016a88b&#45;9e81&#45;4e96&#45;ae98&#45;e5b6cf85f1c2 -->
<g id="edge_54097116-17ce-45af-a218-25c64888f890" class="edge">
<title>Play #1: Main deployment playbook for integrating submariner (0)-&gt;task_b016a88b-9e81-4e96-ae98-e5b6cf85f1c2</title>
<path fill="none" stroke="#dd2216" stroke-width="2" d="M716.85,-501.34C766.29,-536.61 882.55,-613.78 993.76,-645.23 1015.36,-651.33 1037.73,-656.43 1060.47,-660.67"/>
<polygon fill="#dd2216" stroke="#dd2216" stroke-width="2" points="1060.12,-664.16 1070.58,-662.49 1061.36,-657.27 1060.12,-664.16"/>
<text text-anchor="middle" x="966.26" y="-640.03" font-family="Times,serif" font-size="14.00" fill="#dd2216">6</text>
<links><link target="task_b016a88b-9e81-4e96-ae98-e5b6cf85f1c2"/></links></g>
<!-- task_9813cf6a&#45;dad4&#45;4345&#45;9c54&#45;094b8e2c3686 -->
<g id="task_9813cf6a-dad4-4345-9c54-094b8e2c3686" class="node">
<title>task_9813cf6a-dad4-4345-9c54-094b8e2c3686</title>
<g id="a_task_9813cf6a-dad4-4345-9c54-094b8e2c3686"><a xlink:title="[task] ../../roles/kubeinit_prepare : add all service nodes to the all_service_nodes group">
<polygon fill="none" stroke="black" points="1906.41,-610.77 1906.41,-625.68 1644.6,-636.23 1274.35,-636.23 1012.54,-625.68 1012.54,-610.77 1274.35,-600.23 1644.6,-600.23 1906.41,-610.77"/>
<text text-anchor="middle" x="1459.48" y="-614.53" font-family="Times,serif" font-size="14.00">[task] ../../roles/kubeinit_prepare : add all service nodes to the all_service_nodes group</text>
</a>
</g>
</g>
<!-- Play #1: Main deployment playbook for integrating submariner (0)&#45;&gt;task_9813cf6a&#45;dad4&#45;4345&#45;9c54&#45;094b8e2c3686 -->
<g id="edge_38eae79c-255e-43d7-aaea-b1e1b8fb5eda" class="edge">
<title>Play #1: Main deployment playbook for integrating submariner (0)-&gt;task_9813cf6a-dad4-4345-9c54-094b8e2c3686</title>
<path fill="none" stroke="#dd2216" stroke-width="2" d="M731.22,-501.27C787.69,-526.47 896.24,-571.36 993.76,-591.23 1023.69,-597.32 1054.9,-602.21 1086.37,-606.11"/>
<polygon fill="#dd2216" stroke="#dd2216" stroke-width="2" points="1086.25,-609.62 1096.6,-607.34 1087.09,-602.67 1086.25,-609.62"/>
<text text-anchor="middle" x="966.26" y="-589.03" font-family="Times,serif" font-size="14.00" fill="#dd2216">7</text>
<links><link target="task_9813cf6a-dad4-4345-9c54-094b8e2c3686"/></links></g>
<!-- task_fb327172&#45;cc52&#45;4b15&#45;aa81&#45;eeaee4560bf1 -->
<g id="task_fb327172-cc52-4b15-aa81-eeaee4560bf1" class="node">
<title>task_fb327172-cc52-4b15-aa81-eeaee4560bf1</title>
<g id="a_task_fb327172-cc52-4b15-aa81-eeaee4560bf1"><a xlink:title="[task] ../../roles/kubeinit_prepare : add all service and cluster nodes to the all_nodes group">
<polygon fill="none" stroke="black" points="1925.4,-556.77 1925.4,-571.68 1652.47,-582.23 1266.48,-582.23 993.55,-571.68 993.55,-556.77 1266.48,-546.23 1652.47,-546.23 1925.4,-556.77"/>
<text text-anchor="middle" x="1459.48" y="-560.53" font-family="Times,serif" font-size="14.00">[task] ../../roles/kubeinit_prepare : add all service and cluster nodes to the all_nodes group</text>
</a>
</g>
</g>
<!-- Play #1: Main deployment playbook for integrating submariner (0)&#45;&gt;task_fb327172&#45;cc52&#45;4b15&#45;aa81&#45;eeaee4560bf1 -->
<g id="edge_e936e1b8-5acb-4867-9722-83b6623ea34d" class="edge">
<title>Play #1: Main deployment playbook for integrating submariner (0)-&gt;task_fb327172-cc52-4b15-aa81-eeaee4560bf1</title>
<path fill="none" stroke="#dd2216" stroke-width="2" d="M777.31,-501.25C837.48,-513.32 920.23,-528.54 993.76,-537.23 1038.72,-542.54 1086.25,-546.82 1133.08,-550.27"/>
<polygon fill="#dd2216" stroke="#dd2216" stroke-width="2" points="1132.84,-553.76 1143.06,-550.99 1133.34,-546.78 1132.84,-553.76"/>
<text text-anchor="middle" x="966.26" y="-537.03" font-family="Times,serif" font-size="14.00" fill="#dd2216">8</text>
<links><link target="task_fb327172-cc52-4b15-aa81-eeaee4560bf1"/></links></g>
<!-- task_b62edbd7&#45;f6df&#45;4277&#45;90ea&#45;132a8e71abd5 -->
<g id="task_b62edbd7-f6df-4277-90ea-132a8e71abd5" class="node">
<title>task_b62edbd7-f6df-4277-90ea-132a8e71abd5</title>
<g id="a_task_b62edbd7-f6df-4277-90ea-132a8e71abd5"><a xlink:title="[task] ../../roles/kubeinit_prepare : add all hosts to the all_hosts group">
<polygon fill="none" stroke="black" points="1821.17,-502.77 1821.17,-517.68 1609.29,-528.23 1309.66,-528.23 1097.79,-517.68 1097.79,-502.77 1309.66,-492.23 1609.29,-492.23 1821.17,-502.77"/>
<text text-anchor="middle" x="1459.48" y="-506.53" font-family="Times,serif" font-size="14.00">[task] ../../roles/kubeinit_prepare : add all hosts to the all_hosts group</text>
</a>
</g>
</g>
<!-- Play #1: Main deployment playbook for integrating submariner (0)&#45;&gt;task_b62edbd7&#45;f6df&#45;4277&#45;90ea&#45;132a8e71abd5 -->
<g id="edge_03da3311-57bc-4ded-ac18-01a0f8c55b45" class="edge">
<title>Play #1: Main deployment playbook for integrating submariner (0)-&gt;task_b62edbd7-f6df-4277-90ea-132a8e71abd5</title>
<path fill="none" stroke="#dd2216" stroke-width="2" d="M938.92,-491.92C1005.84,-494.28 1079.15,-496.86 1149.07,-499.32"/>
<polygon fill="#dd2216" stroke="#dd2216" stroke-width="2" points="1149.24,-502.83 1159.35,-499.69 1149.48,-495.84 1149.24,-502.83"/>
<text text-anchor="middle" x="966.26" y="-496.03" font-family="Times,serif" font-size="14.00" fill="#dd2216">9</text>
<links><link target="task_b62edbd7-f6df-4277-90ea-132a8e71abd5"/></links></g>
<!-- task_111a413c&#45;3ce6&#45;43a5&#45;ad2c&#45;900482ff0c50 -->
<g id="task_111a413c-3ce6-43a5-ad2c-900482ff0c50" class="node">
<title>task_111a413c-3ce6-43a5-ad2c-900482ff0c50</title>
<g id="a_task_111a413c-3ce6-43a5-ad2c-900482ff0c50"><a xlink:title="[task] ../../roles/kubeinit_prepare : list all_hosts">
<polygon fill="none" stroke="black" points="1707.64,-448.77 1707.64,-463.68 1562.27,-474.23 1356.68,-474.23 1211.31,-463.68 1211.31,-448.77 1356.68,-438.23 1562.27,-438.23 1707.64,-448.77"/>
<text text-anchor="middle" x="1459.48" y="-452.53" font-family="Times,serif" font-size="14.00">[task] ../../roles/kubeinit_prepare : list all_hosts</text>
</a>
</g>
</g>
<!-- Play #1: Main deployment playbook for integrating submariner (0)&#45;&gt;task_111a413c&#45;3ce6&#45;43a5&#45;ad2c&#45;900482ff0c50 -->
<g id="edge_7225f4ef-b9ab-44fe-8982-a0ebf385cef6" class="edge">
<title>Play #1: Main deployment playbook for integrating submariner (0)-&gt;task_111a413c-3ce6-43a5-ad2c-900482ff0c50</title>
<path fill="none" stroke="#dd2216" stroke-width="2" d="M939,-473.87C944.98,-473.65 950.91,-473.44 956.76,-473.23 1038.41,-470.3 1127.53,-467.24 1207.71,-464.53"/>
<polygon fill="#dd2216" stroke="#dd2216" stroke-width="2" points="1208.07,-468.02 1217.95,-464.19 1207.84,-461.02 1208.07,-468.02"/>
<text text-anchor="middle" x="966.26" y="-477.03" font-family="Times,serif" font-size="14.00" fill="#dd2216">10</text>
<links><link target="task_111a413c-3ce6-43a5-ad2c-900482ff0c50"/></links></g>
<!-- task_d5f702f2&#45;552e&#45;4f39&#45;a21f&#45;0de2f4cc9416 -->
<g id="task_d5f702f2-552e-4f39-a21f-0de2f4cc9416" class="node">
<title>task_d5f702f2-552e-4f39-a21f-0de2f4cc9416</title>
<g id="a_task_d5f702f2-552e-4f39-a21f-0de2f4cc9416"><a xlink:title="[task] ../../roles/kubeinit_prepare : list all_nodes">
<polygon fill="none" stroke="black" points="1709.86,-394.77 1709.86,-409.68 1563.19,-420.23 1355.76,-420.23 1209.09,-409.68 1209.09,-394.77 1355.76,-384.23 1563.19,-384.23 1709.86,-394.77"/>
<text text-anchor="middle" x="1459.48" y="-398.53" font-family="Times,serif" font-size="14.00">[task] ../../roles/kubeinit_prepare : list all_nodes</text>
</a>
</g>
</g>
<!-- Play #1: Main deployment playbook for integrating submariner (0)&#45;&gt;task_d5f702f2&#45;552e&#45;4f39&#45;a21f&#45;0de2f4cc9416 -->
<g id="edge_4fb9aaf1-11d0-4bab-8bca-a58b0ffec30f" class="edge">
<title>Play #1: Main deployment playbook for integrating submariner (0)-&gt;task_d5f702f2-552e-4f39-a21f-0de2f4cc9416</title>
<path fill="none" stroke="#dd2216" stroke-width="2" d="M777.31,-465.2C837.48,-453.13 920.23,-437.92 993.76,-429.23 1063.95,-420.93 1140.41,-415.15 1210.67,-411.14"/>
<polygon fill="#dd2216" stroke="#dd2216" stroke-width="2" points="1211.2,-414.62 1220.99,-410.56 1210.81,-407.63 1211.2,-414.62"/>
<text text-anchor="middle" x="966.26" y="-437.03" font-family="Times,serif" font-size="14.00" fill="#dd2216">11</text>
<links><link target="task_d5f702f2-552e-4f39-a21f-0de2f4cc9416"/></links></g>
<!-- task_d756d3df&#45;6b4b&#45;4aff&#45;bb5d&#45;e60de1375a46 -->
<g id="task_d756d3df-6b4b-4aff-bb5d-e60de1375a46" class="node">
<title>task_d756d3df-6b4b-4aff-bb5d-e60de1375a46</title>
<g id="a_task_d756d3df-6b4b-4aff-bb5d-e60de1375a46"><a xlink:title="[task] ../../roles/kubeinit_prepare : list all_service_nodes">
<polygon fill="none" stroke="black" points="1750.97,-340.77 1750.97,-355.68 1580.22,-366.23 1338.74,-366.23 1167.98,-355.68 1167.98,-340.77 1338.74,-330.23 1580.22,-330.23 1750.97,-340.77"/>
<text text-anchor="middle" x="1459.48" y="-344.53" font-family="Times,serif" font-size="14.00">[task] ../../roles/kubeinit_prepare : list all_service_nodes</text>
</a>
</g>
</g>
<!-- Play #1: Main deployment playbook for integrating submariner (0)&#45;&gt;task_d756d3df&#45;6b4b&#45;4aff&#45;bb5d&#45;e60de1375a46 -->
<g id="edge_0d379c55-577a-4d6b-9fa7-c03f614ae10e" class="edge">
<title>Play #1: Main deployment playbook for integrating submariner (0)-&gt;task_d756d3df-6b4b-4aff-bb5d-e60de1375a46</title>
<path fill="none" stroke="#dd2216" stroke-width="2" d="M731.22,-465.19C787.69,-439.98 896.24,-395.1 993.76,-375.23 1046.32,-364.52 1102.86,-357.55 1157.79,-353.1"/>
<polygon fill="#dd2216" stroke="#dd2216" stroke-width="2" points="1158.33,-356.56 1168.02,-352.29 1157.78,-349.59 1158.33,-356.56"/>
<text text-anchor="middle" x="966.26" y="-386.03" font-family="Times,serif" font-size="14.00" fill="#dd2216">12</text>
<links><link target="task_d756d3df-6b4b-4aff-bb5d-e60de1375a46"/></links></g>
<!-- task_2353e00c&#45;cb5b&#45;42c9&#45;a827&#45;f8f51eb91ce8 -->
<g id="task_2353e00c-cb5b-42c9-a827-f8f51eb91ce8" class="node">
<title>task_2353e00c-cb5b-42c9-a827-f8f51eb91ce8</title>
<g id="a_task_2353e00c-cb5b-42c9-a827-f8f51eb91ce8"><a xlink:title="[task] ../../roles/kubeinit_prepare : list all_cluster_nodes">
<polygon fill="none" stroke="black" points="1750.06,-286.77 1750.06,-301.68 1579.84,-312.23 1339.11,-312.23 1168.89,-301.68 1168.89,-286.77 1339.11,-276.23 1579.84,-276.23 1750.06,-286.77"/>
<text text-anchor="middle" x="1459.48" y="-290.53" font-family="Times,serif" font-size="14.00">[task] ../../roles/kubeinit_prepare : list all_cluster_nodes</text>
</a>
</g>
</g>
<!-- Play #1: Main deployment playbook for integrating submariner (0)&#45;&gt;task_2353e00c&#45;cb5b&#45;42c9&#45;a827&#45;f8f51eb91ce8 -->
<g id="edge_56aba3d7-502e-4039-bf3b-1460d026269e" class="edge">
<title>Play #1: Main deployment playbook for integrating submariner (0)-&gt;task_2353e00c-cb5b-42c9-a827-f8f51eb91ce8</title>
<path fill="none" stroke="#dd2216" stroke-width="2" d="M716.85,-465.11C766.29,-429.85 882.55,-352.67 993.76,-321.23 1046.22,-306.4 1103.29,-297.51 1158.91,-292.46"/>
<polygon fill="#dd2216" stroke="#dd2216" stroke-width="2" points="1159.25,-295.94 1168.91,-291.59 1158.65,-288.97 1159.25,-295.94"/>
<text text-anchor="middle" x="966.26" y="-336.03" font-family="Times,serif" font-size="14.00" fill="#dd2216">13</text>
<links><link target="task_2353e00c-cb5b-42c9-a827-f8f51eb91ce8"/></links></g>
<!-- task_f56b57d6&#45;5ab8&#45;4b0d&#45;b5e2&#45;935dabd48351 -->
<g id="task_f56b57d6-5ab8-4b0d-b5e2-935dabd48351" class="node">
<title>task_f56b57d6-5ab8-4b0d-b5e2-935dabd48351</title>
<g id="a_task_f56b57d6-5ab8-4b0d-b5e2-935dabd48351"><a xlink:title="[task] ../../roles/kubeinit_prepare : list all_master_nodes">
<polygon fill="none" stroke="black" points="1750.06,-232.77 1750.06,-247.68 1579.84,-258.23 1339.11,-258.23 1168.89,-247.68 1168.89,-232.77 1339.11,-222.23 1579.84,-222.23 1750.06,-232.77"/>
<text text-anchor="middle" x="1459.48" y="-236.53" font-family="Times,serif" font-size="14.00">[task] ../../roles/kubeinit_prepare : list all_master_nodes</text>
</a>
</g>
</g>
<!-- Play #1: Main deployment playbook for integrating submariner (0)&#45;&gt;task_f56b57d6&#45;5ab8&#45;4b0d&#45;b5e2&#45;935dabd48351 -->
<g id="edge_f2f761cd-feb7-407b-aace-bee22bde0738" class="edge">
<title>Play #1: Main deployment playbook for integrating submariner (0)-&gt;task_f56b57d6-5ab8-4b0d-b5e2-935dabd48351</title>
<path fill="none" stroke="#dd2216" stroke-width="2" d="M709.52,-465.21C752.58,-421.63 870.22,-310.91 993.76,-267.23 1071.03,-239.91 1160.01,-230 1239.29,-227.99"/>
<polygon fill="#dd2216" stroke="#dd2216" stroke-width="2" points="1239.49,-231.48 1249.41,-227.77 1239.34,-224.49 1239.49,-231.48"/>
<text text-anchor="middle" x="966.26" y="-281.03" font-family="Times,serif" font-size="14.00" fill="#dd2216">14</text>
<links><link target="task_f56b57d6-5ab8-4b0d-b5e2-935dabd48351"/></links></g>
<!-- task_28107f8a&#45;7fd6&#45;42b0&#45;b38a&#45;4176d750b1f4 -->
<g id="task_28107f8a-7fd6-42b0-b38a-4176d750b1f4" class="node">
<title>task_28107f8a-7fd6-42b0-b38a-4176d750b1f4</title>
<g id="a_task_28107f8a-7fd6-42b0-b38a-4176d750b1f4"><a xlink:title="[task] ../../roles/kubeinit_prepare : list all_worker_nodes">
<polygon fill="none" stroke="black" points="1750.06,-178.77 1750.06,-193.68 1579.84,-204.23 1339.11,-204.23 1168.89,-193.68 1168.89,-178.77 1339.11,-168.23 1579.84,-168.23 1750.06,-178.77"/>
<text text-anchor="middle" x="1459.48" y="-182.53" font-family="Times,serif" font-size="14.00">[task] ../../roles/kubeinit_prepare : list all_worker_nodes</text>
</a>
</g>
</g>
<!-- Play #1: Main deployment playbook for integrating submariner (0)&#45;&gt;task_28107f8a&#45;7fd6&#45;42b0&#45;b38a&#45;4176d750b1f4 -->
<g id="edge_fecbda43-218a-401d-a268-448cfcfb8526" class="edge">
<title>Play #1: Main deployment playbook for integrating submariner (0)-&gt;task_28107f8a-7fd6-42b0-b38a-4176d750b1f4</title>
<path fill="none" stroke="#dd2216" stroke-width="2" d="M705.31,-464.97C743.02,-413.9 858.17,-269.63 993.76,-213.23 1088.61,-173.77 1203.84,-166.84 1295.82,-169.87"/>
<polygon fill="#dd2216" stroke="#dd2216" stroke-width="2" points="1295.95,-173.37 1306.07,-170.25 1296.21,-166.38 1295.95,-173.37"/>
<text text-anchor="middle" x="966.26" y="-230.03" font-family="Times,serif" font-size="14.00" fill="#dd2216">15</text>
<links><link target="task_28107f8a-7fd6-42b0-b38a-4176d750b1f4"/></links></g>
<!-- task_0ac5ac90&#45;8f75&#45;46cb&#45;9665&#45;c0b09f245384 -->
<g id="task_0ac5ac90-8f75-46cb-9665-c0b09f245384" class="node">
<title>task_0ac5ac90-8f75-46cb-9665-c0b09f245384</title>
<g id="a_task_0ac5ac90-8f75-46cb-9665-c0b09f245384"><a xlink:title="[task] ../../roles/kubeinit_prepare : list all_bootstrap_nodes">
<polygon fill="none" stroke="black" points="1763.29,-124.77 1763.29,-139.68 1585.32,-150.23 1333.63,-150.23 1155.66,-139.68 1155.66,-124.77 1333.63,-114.23 1585.32,-114.23 1763.29,-124.77"/>
<text text-anchor="middle" x="1459.48" y="-128.53" font-family="Times,serif" font-size="14.00">[task] ../../roles/kubeinit_prepare : list all_bootstrap_nodes</text>
</a>
</g>
</g>
<!-- Play #1: Main deployment playbook for integrating submariner (0)&#45;&gt;task_0ac5ac90&#45;8f75&#45;46cb&#45;9665&#45;c0b09f245384 -->
<g id="edge_154d2cd8-1f2c-4a77-a6bb-ebc566e955c6" class="edge">
<title>Play #1: Main deployment playbook for integrating submariner (0)-&gt;task_0ac5ac90-8f75-46cb-9665-c0b09f245384</title>
<path fill="none" stroke="#dd2216" stroke-width="2" d="M702.16,-465.18C734.77,-407.76 845.32,-229.06 993.76,-159.23 1094.59,-111.8 1221.6,-107.63 1317.35,-113.87"/>
<polygon fill="#dd2216" stroke="#dd2216" stroke-width="2" points="1317.18,-117.37 1327.39,-114.57 1317.66,-110.39 1317.18,-117.37"/>
<text text-anchor="middle" x="966.26" y="-179.03" font-family="Times,serif" font-size="14.00" fill="#dd2216">16</text>
<links><link target="task_0ac5ac90-8f75-46cb-9665-c0b09f245384"/></links></g>
<!-- task_60ffa3e2&#45;d0df&#45;4596&#45;8003&#45;011941c49261 -->
<g id="task_60ffa3e2-d0df-4596-8003-011941c49261" class="node">
<title>task_60ffa3e2-d0df-4596-8003-011941c49261</title>
<g id="a_task_60ffa3e2-d0df-4596-8003-011941c49261"><a xlink:title="[task] ../../roles/kubeinit_prepare : define host and node related facts">
<polygon fill="none" stroke="black" points="1815.41,-70.77 1815.41,-85.68 1606.91,-96.23 1312.04,-96.23 1103.54,-85.68 1103.54,-70.77 1312.04,-60.23 1606.91,-60.23 1815.41,-70.77"/>
<text text-anchor="middle" x="1459.48" y="-74.53" font-family="Times,serif" font-size="14.00">[task] ../../roles/kubeinit_prepare : define host and node related facts</text>
</a>
</g>
</g>
<!-- Play #1: Main deployment playbook for integrating submariner (0)&#45;&gt;task_60ffa3e2&#45;d0df&#45;4596&#45;8003&#45;011941c49261 -->
<g id="edge_fbb004ad-c634-4821-8bd6-c5d91abff275" class="edge">
<title>Play #1: Main deployment playbook for integrating submariner (0)-&gt;task_60ffa3e2-d0df-4596-8003-011941c49261</title>
<path fill="none" stroke="#dd2216" stroke-width="2" d="M700.01,-464.89C728.13,-400.99 831.76,-187.59 993.76,-105.23 1098.83,-51.81 1235,-50.5 1332.74,-59.25"/>
<polygon fill="#dd2216" stroke="#dd2216" stroke-width="2" points="1332.69,-62.76 1342.97,-60.22 1333.35,-55.79 1332.69,-62.76"/>
<text text-anchor="middle" x="966.26" y="-128.03" font-family="Times,serif" font-size="14.00" fill="#dd2216">17</text>
<links><link target="task_60ffa3e2-d0df-4596-8003-011941c49261"/></links></g>
<!-- task_6ce4f7ca&#45;7c66&#45;4125&#45;a436&#45;5a9658b48efc -->
<g id="task_6ce4f7ca-7c66-4125-a436-5a9658b48efc" class="node">
<title>task_6ce4f7ca-7c66-4125-a436-5a9658b48efc</title>
<g id="a_task_6ce4f7ca-7c66-4125-a436-5a9658b48efc"><a xlink:title="[task] ../../roles/kubeinit_submariner : Execute subctl verify">
<polygon fill="none" stroke="black" points="1769.96,-16.77 1769.96,-31.68 1588.08,-42.23 1330.87,-42.23 1149,-31.68 1149,-16.77 1330.87,-6.23 1588.08,-6.23 1769.96,-16.77"/>
<text text-anchor="middle" x="1459.48" y="-20.53" font-family="Times,serif" font-size="14.00">[task] ../../roles/kubeinit_submariner : Execute subctl verify</text>
</a>
</g>
</g>
<!-- Play #1: Main deployment playbook for integrating submariner (0)&#45;&gt;task_6ce4f7ca&#45;7c66&#45;4125&#45;a436&#45;5a9658b48efc -->
<g id="edge_0368ec0e-11ee-4aec-9948-773148a79496" class="edge">
<title>Play #1: Main deployment playbook for integrating submariner (0)-&gt;task_6ce4f7ca-7c66-4125-a436-5a9658b48efc</title>
<path fill="none" stroke="#dd2216" stroke-width="2" d="M698.05,-465.05C721.36,-395.31 815.79,-144.1 993.76,-51.23 1100.26,4.35 1239.76,4.49 1338.03,-5.17"/>
<polygon fill="#dd2216" stroke="#dd2216" stroke-width="2" points="1337.7,-8.65 1348.01,-6.2 1338.42,-1.69 1337.7,-8.65"/>
<text text-anchor="middle" x="966.26" y="-76.03" font-family="Times,serif" font-size="14.00" fill="#dd2216">18</text>
<links><link target="task_6ce4f7ca-7c66-4125-a436-5a9658b48efc"/></links></g>
</g>
</svg>