<?xml version='1.0' encoding='UTF-8'?>
<!DOCTYPE svg PUBLIC "-//W3C//DTD SVG 1.1//EN" "http://www.w3.org/Graphics/SVG/1.1/DTD/svg11.dtd">
<!-- Generated by graphviz version 2.40.1 (20161225.0304)
 --><!-- Title: ./playbooks/submariner.yml  Pages: 1 --><svg xmlns="http://www.w3.org/2000/svg" xmlns:xlink="http://www.w3.org/1999/xlink" width="2258pt" height="1450pt" viewBox="0.00 0.00 2258.50 1450.01" id="svg">
<script type="text/javascript" href="https://ajax.googleapis.com/ajax/libs/jquery/3.2.1/jquery.min.js" id="jquery"/><script type="text/javascript" id="my_javascript"><![CDATA[const HOVER_CLASS = "my_hover";

var selectedElement = null;

function addClass(rootElement) {
    $(rootElement).find('link').each(function (index, element) {
        var target = $(element).attr('target');
        var currentElement = $('#' + target);
        currentElement.addClass(HOVER_CLASS);

        addClass(currentElement);
    })
}

function removeClass(rootElement, hover) {
    $(rootElement).find('link').each(function (index, element) {
        if ($(rootElement).attr('id') !== $(selectedElement).attr('id') || !hover) {
            var target = $(element).attr('target');
            var currentElement = $('#' + target);
            currentElement.removeClass(HOVER_CLASS);

            removeClass(currentElement);
        }

    })
}

function hoverIn(event) {
    addClass(event.currentTarget);
}

function hoverOut(event) {
    removeClass(event.currentTarget, true);
}

function clickOnElement(event) {
    var newElement = event.currentTarget;

    if ($(newElement).attr('id') === $(selectedElement).attr('id')) {
        removeClass(selectedElement, false);
    } else {
        removeClass(selectedElement);
        addClass(newElement)
    }

    selectedElement = newElement;
}


$("#svg").ready(function () {

    $("g[id^=play_]").hover(hoverIn, hoverOut);
    $("g[id^=role_]").hover(hoverIn, hoverOut);

    $("g[id^=play_]").click(clickOnElement);
    $("g[id^=role_]").click(clickOnElement);

});
]]></script><style type="text/css" id="my_css"><![CDATA[.node:hover, .edge:hover, path:hover, path + polygon:hover {
    cursor: pointer;
    stroke-width: 3;
    font-weight: bolder;
}

.my_hover {
    cursor: pointer;
    stroke-width: 3;
    font-weight: bolder;
}
]]></style><g id="graph0" class="graph" transform="scale(1 1) rotate(0) translate(4 1446.0123)">
<title>./playbooks/submariner.yml </title>
<polygon fill="#ffffff" stroke="transparent" points="-4,4 -4,-1446.0123 2254.4971,-1446.0123 2254.4971,4 -4,4"/>
<!-- ./playbooks/submariner.yml -->
<g id="root_node" class="node">
<title>./playbooks/submariner.yml</title>
<ellipse fill="none" stroke="#000000" stroke-dasharray="1,5" cx="110.4902" cy="-735.0123" rx="110.4804" ry="18"/>
<text text-anchor="middle" x="110.4902" y="-731.3123" font-family="Times,serif" font-size="14.00" fill="#000000">./playbooks/submariner.yml</text>
</g>
<!-- Play #1: Main deployment playbook for integrating submariner (0) -->
<g id="play_24b051aa-f0e2-45ae-937d-3d625a882c23" class="node">
<title>Play #1: Main deployment playbook for integrating submariner (0)</title>
<polygon fill="#4dbd52" stroke="#4dbd52" points="646.9804,-753.0123 263.9804,-753.0123 263.9804,-717.0123 646.9804,-717.0123 646.9804,-753.0123"/>
<text text-anchor="middle" x="455.4804" y="-731.3123" font-family="Times,serif" font-size="14.00" fill="#ffffff">Play #1: Main deployment playbook for integrating submariner (0)</text>
<links><link target="edge_7034b7bf-715e-49d8-a085-92403c96790e"/><link target="edge_11ed89b3-0fd8-4aa1-bbec-9f3e731f1efb"/><link target="edge_e9fbaca9-830f-49ac-b02a-17c06aab2c4a"/><link target="edge_965fae1b-e58a-43f9-b939-26a321329ccf"/><link target="edge_407a9116-b9d4-46e5-9d29-90f4522610af"/><link target="edge_360f946d-2fc2-4e72-9dde-38d3175cf5be"/><link target="edge_de83b55d-d951-427c-96c1-3d39d813f45c"/><link target="edge_55506f71-b99b-4154-8b3d-ddcdb86ca7bd"/><link target="edge_0ba5ecf7-977a-4e4a-9386-f7703672b892"/><link target="edge_0efc02b7-eb80-4ccb-8120-72009c1b3ea9"/><link target="edge_7f4f3a71-d7e5-4c63-95df-da21187802aa"/><link target="edge_fb799474-d584-4ecd-8e98-c013e28a1f61"/><link target="edge_f2e62001-71c0-4204-b28a-d3a277be8116"/><link target="edge_706ab87a-8ee0-4c4c-8a0b-89bb73d97bcc"/><link target="edge_066fbda9-1fd4-439d-ab95-781054535dea"/><link target="edge_c2152352-bbd1-4d67-9935-53eefef178a7"/><link target="edge_3564612c-d45c-419f-b182-4db78dc08e1e"/><link target="edge_c97cab50-0904-4bf3-bf3d-1cb3e51e5c4c"/><link target="edge_95698966-039a-47a8-be53-e25148727446"/><link target="edge_24d90ec2-b5cc-42b8-8c63-2707baa36afe"/><link target="edge_eb06787e-29bc-4e51-8e3d-12a5b7bf3f4c"/><link target="edge_e5da603e-01e3-48dc-a5df-d9384a67d1e1"/><link target="edge_eb82505f-9cdf-402e-a6f2-125a6cf9ef59"/><link target="edge_2eaf2edd-4a83-47ef-a82c-09ac1e13cd3f"/><link target="edge_5e4920bf-d138-4559-b131-4acd99103438"/><link target="edge_70c1ed3b-bfe1-41ac-a411-d5b911c67dda"/></links></g>
<!-- ./playbooks/submariner.yml&#45;&gt;Play #1: Main deployment playbook for integrating submariner (0) -->
<g id="edge_4618c77e-f30e-416c-a82f-37c120c619d9" class="edge">
<title>./playbooks/submariner.yml-&gt;Play #1: Main deployment playbook for integrating submariner (0)</title>
<path fill="none" stroke="#4dbd52" stroke-width="2" d="M221.0708,-735.0123C231.6334,-735.0123 242.5531,-735.0123 253.6394,-735.0123"/>
<polygon fill="#4dbd52" stroke="#4dbd52" stroke-width="2" points="253.8622,-738.5124 263.8622,-735.0123 253.8621,-731.5124 253.8622,-738.5124"/>
<text text-anchor="middle" x="242.4804" y="-738.8123" font-family="Times,serif" font-size="14.00" fill="#4dbd52">1</text>
</g>
<!-- pre_task_f162288a&#45;9740&#45;4b1c&#45;b9bd&#45;d1dc599d6d73 -->
<g id="pre_task_f162288a-9740-4b1c-b9bd-d1dc599d6d73" class="node">
<title>pre_task_f162288a-9740-4b1c-b9bd-d1dc599d6d73</title>
<polygon fill="none" stroke="#000000" points="2044.916,-1402.5564 2044.916,-1417.4681 1910.6671,-1428.0123 1720.8104,-1428.0123 1586.5615,-1417.4681 1586.5615,-1402.5564 1720.8104,-1392.0123 1910.6671,-1392.0123 2044.916,-1402.5564"/>
<text text-anchor="middle" x="1815.7388" y="-1406.3123" font-family="Times,serif" font-size="14.00" fill="#000000">[pre_task] Check if Ansible meets version requirements.</text>
</g>
<!-- Play #1: Main deployment playbook for integrating submariner (0)&#45;&gt;pre_task_f162288a&#45;9740&#45;4b1c&#45;b9bd&#45;d1dc599d6d73 -->
<g id="edge_7034b7bf-715e-49d8-a085-92403c96790e" class="edge">
<title>Play #1: Main deployment playbook for integrating submariner (0)-&gt;pre_task_f162288a-9740-4b1c-b9bd-d1dc599d6d73</title>
<path fill="none" stroke="#4dbd52" stroke-width="2" d="M458.4474,-753.1299C474.6997,-849.9557 556.19,-1304.9874 664.9804,-1386.0123 737.2158,-1439.8117 1278.4715,-1429.7367 1592.2887,-1419.0724"/>
<polygon fill="#4dbd52" stroke="#4dbd52" stroke-width="2" points="1592.5562,-1422.5654 1602.4304,-1418.7248 1592.3164,-1415.5695 1592.5562,-1422.5654"/>
<text text-anchor="middle" x="1013.9804" y="-1430.8123" font-family="Times,serif" font-size="14.00" fill="#4dbd52">1</text>
<links><link target="pre_task_f162288a-9740-4b1c-b9bd-d1dc599d6d73"/></links></g>
<!-- task_359d466f&#45;a745&#45;4ea9&#45;9dae&#45;efbf0390c043 -->
<g id="task_359d466f-a745-4ea9-9dae-efbf0390c043" class="node">
<title>task_359d466f-a745-4ea9-9dae-efbf0390c043</title>
<polygon fill="none" stroke="#000000" points="1874.9257,-1348.5564 1874.9257,-1363.4681 1840.2548,-1374.0123 1791.2228,-1374.0123 1756.5519,-1363.4681 1756.5519,-1348.5564 1791.2228,-1338.0123 1840.2548,-1338.0123 1874.9257,-1348.5564"/>
<text text-anchor="middle" x="1815.7388" y="-1352.3123" font-family="Times,serif" font-size="14.00" fill="#000000">[task] debug</text>
</g>
<!-- Play #1: Main deployment playbook for integrating submariner (0)&#45;&gt;task_359d466f&#45;a745&#45;4ea9&#45;9dae&#45;efbf0390c043 -->
<g id="edge_11ed89b3-0fd8-4aa1-bbec-9f3e731f1efb" class="edge">
<title>Play #1: Main deployment playbook for integrating submariner (0)-&gt;task_359d466f-a745-4ea9-9dae-efbf0390c043</title>
<path fill="none" stroke="#4dbd52" stroke-width="2" d="M459.1065,-753.1551C477.7165,-844.2993 565.4922,-1250.6874 664.9804,-1323.0123 752.2439,-1386.4502 1510.9057,-1366.3534 1746.3509,-1358.5044"/>
<polygon fill="#4dbd52" stroke="#4dbd52" stroke-width="2" points="1746.624,-1361.9973 1756.5006,-1358.1628 1746.3885,-1355.0013 1746.624,-1361.9973"/>
<text text-anchor="middle" x="1013.9804" y="-1370.8123" font-family="Times,serif" font-size="14.00" fill="#4dbd52">2</text>
<links><link target="task_359d466f-a745-4ea9-9dae-efbf0390c043"/></links></g>
<!-- task_37e378c0&#45;2e31&#45;4ad4&#45;93a3&#45;bbe11f3ed0f4 -->
<g id="task_37e378c0-2e31-4ad4-93a3-bbe11f3ed0f4" class="node">
<title>task_37e378c0-2e31-4ad4-93a3-bbe11f3ed0f4</title>
<polygon fill="none" stroke="#000000" points="2139.859,-1294.5564 2139.859,-1309.4681 1949.9937,-1320.0123 1681.4838,-1320.0123 1491.6186,-1309.4681 1491.6186,-1294.5564 1681.4838,-1284.0123 1949.9937,-1284.0123 2139.859,-1294.5564"/>
<text text-anchor="middle" x="1815.7388" y="-1298.3123" font-family="Times,serif" font-size="14.00" fill="#000000">[task] ../../roles/kubeinit_submariner : Gather variables for each operating system</text>
</g>
<!-- Play #1: Main deployment playbook for integrating submariner (0)&#45;&gt;task_37e378c0&#45;2e31&#45;4ad4&#45;93a3&#45;bbe11f3ed0f4 -->
<g id="edge_e9fbaca9-830f-49ac-b02a-17c06aab2c4a" class="edge">
<title>Play #1: Main deployment playbook for integrating submariner (0)-&gt;task_37e378c0-2e31-4ad4-93a3-bbe11f3ed0f4</title>
<path fill="none" stroke="#4dbd52" stroke-width="2" d="M459.6403,-753.2916C479.9249,-840.6784 571.2929,-1214.3283 664.9804,-1280.0123 698.2409,-1303.3311 1153.6438,-1305.901 1481.4226,-1304.6735"/>
<polygon fill="#4dbd52" stroke="#4dbd52" stroke-width="2" points="1481.582,-1308.173 1491.5683,-1304.6342 1481.5548,-1301.1731 1481.582,-1308.173"/>
<text text-anchor="middle" x="1013.9804" y="-1307.8123" font-family="Times,serif" font-size="14.00" fill="#4dbd52">3</text>
<links><link target="task_37e378c0-2e31-4ad4-93a3-bbe11f3ed0f4"/></links></g>
<!-- task_d7f247f5&#45;7215&#45;426a&#45;925e&#45;d6f0e49b95cb -->
<g id="task_d7f247f5-7215-426a-925e-d6f0e49b95cb" class="node">
<title>task_d7f247f5-7215-426a-925e-d6f0e49b95cb</title>
<polygon fill="none" stroke="#000000" points="2173.8942,-1240.5564 2173.8942,-1255.4681 1964.0916,-1266.0123 1667.3859,-1266.0123 1457.5834,-1255.4681 1457.5834,-1240.5564 1667.3859,-1230.0123 1964.0916,-1230.0123 2173.8942,-1240.5564"/>
<text text-anchor="middle" x="1815.7388" y="-1244.3123" font-family="Times,serif" font-size="14.00" fill="#000000">[task] ../../roles/kubeinit_submariner : Get submariner code based on a PR or from master</text>
</g>
<!-- Play #1: Main deployment playbook for integrating submariner (0)&#45;&gt;task_d7f247f5&#45;7215&#45;426a&#45;925e&#45;d6f0e49b95cb -->
<g id="edge_965fae1b-e58a-43f9-b939-26a321329ccf" class="edge">
<title>Play #1: Main deployment playbook for integrating submariner (0)-&gt;task_d7f247f5-7215-426a-925e-d6f0e49b95cb</title>
<path fill="none" stroke="#4dbd52" stroke-width="2" d="M456.5962,-753.1075C462.2685,-827.4992 494.7818,-1111.2372 664.9804,-1226.0123 733.5585,-1272.2585 1194.8241,-1267.8853 1512.1198,-1259.0262"/>
<polygon fill="#4dbd52" stroke="#4dbd52" stroke-width="2" points="1512.5073,-1262.5167 1522.4046,-1258.736 1512.3099,-1255.5195 1512.5073,-1262.5167"/>
<text text-anchor="middle" x="1013.9804" y="-1267.8123" font-family="Times,serif" font-size="14.00" fill="#4dbd52">4  [when: kubeinit_submariner_is_broker|bool or kubeinit_submariner_is_secondary|bool]</text>
<links><link target="task_d7f247f5-7215-426a-925e-d6f0e49b95cb"/></links></g>
<!-- task_07fb7b33&#45;edb9&#45;4e78&#45;bc77&#45;7198f9efb445 -->
<g id="task_07fb7b33-edb9-4e78-bc77-7198f9efb445" class="node">
<title>task_07fb7b33-edb9-4e78-bc77-7198f9efb445</title>
<polygon fill="none" stroke="#000000" points="2063.4976,-1186.5564 2063.4976,-1201.4681 1918.3638,-1212.0123 1713.1137,-1212.0123 1567.98,-1201.4681 1567.98,-1186.5564 1713.1137,-1176.0123 1918.3638,-1176.0123 2063.4976,-1186.5564"/>
<text text-anchor="middle" x="1815.7388" y="-1190.3123" font-family="Times,serif" font-size="14.00" fill="#000000">[task] ../../roles/kubeinit_submariner : Clean previous images</text>
</g>
<!-- Play #1: Main deployment playbook for integrating submariner (0)&#45;&gt;task_07fb7b33&#45;edb9&#45;4e78&#45;bc77&#45;7198f9efb445 -->
<g id="edge_407a9116-b9d4-46e5-9d29-90f4522610af" class="edge">
<title>Play #1: Main deployment playbook for integrating submariner (0)-&gt;task_07fb7b33-edb9-4e78-bc77-7198f9efb445</title>
<path fill="none" stroke="#4dbd52" stroke-width="2" d="M457.6498,-753.4694C466.9457,-823.1836 510.2839,-1071.5453 664.9804,-1171.0123 738.8679,-1218.5206 1254.1803,-1211.6155 1569.648,-1202.6333"/>
<polygon fill="#4dbd52" stroke="#4dbd52" stroke-width="2" points="1569.9581,-1206.1259 1579.8534,-1202.34 1569.7569,-1199.1288 1569.9581,-1206.1259"/>
<text text-anchor="middle" x="1013.9804" y="-1212.8123" font-family="Times,serif" font-size="14.00" fill="#4dbd52">5  [when: kubeinit_submariner_is_broker|bool or kubeinit_submariner_is_secondary|bool]</text>
<links><link target="task_07fb7b33-edb9-4e78-bc77-7198f9efb445"/></links></g>
<!-- task_0b709b1c&#45;4264&#45;4001&#45;a73d&#45;a94996185f95 -->
<g id="task_0b709b1c-4264-4001-a73d-a94996185f95" class="node">
<title>task_0b709b1c-4264-4001-a73d-a94996185f95</title>
<polygon fill="none" stroke="#000000" points="2020.6716,-1132.5564 2020.6716,-1147.4681 1900.6247,-1158.0123 1730.8528,-1158.0123 1610.8059,-1147.4681 1610.8059,-1132.5564 1730.8528,-1122.0123 1900.6247,-1122.0123 2020.6716,-1132.5564"/>
<text text-anchor="middle" x="1815.7388" y="-1136.3123" font-family="Times,serif" font-size="14.00" fill="#000000">[task] ../../roles/kubeinit_submariner : Make clean</text>
</g>
<!-- Play #1: Main deployment playbook for integrating submariner (0)&#45;&gt;task_0b709b1c&#45;4264&#45;4001&#45;a73d&#45;a94996185f95 -->
<g id="edge_360f946d-2fc2-4e72-9dde-38d3175cf5be" class="edge">
<title>Play #1: Main deployment playbook for integrating submariner (0)-&gt;task_0b709b1c-4264-4001-a73d-a94996185f95</title>
<path fill="none" stroke="#4dbd52" stroke-width="2" d="M458.9389,-753.3287C472.0862,-817.1672 525.4542,-1030.5523 664.9804,-1115.0123 742.6408,-1162.0228 1289.8567,-1154.8913 1600.8981,-1146.7941"/>
<polygon fill="#4dbd52" stroke="#4dbd52" stroke-width="2" points="1601.0417,-1150.2916 1610.9463,-1146.53 1600.8578,-1143.294 1601.0417,-1150.2916"/>
<text text-anchor="middle" x="1013.9804" y="-1155.8123" font-family="Times,serif" font-size="14.00" fill="#4dbd52">6  [when: kubeinit_submariner_is_broker|bool or kubeinit_submariner_is_secondary|bool]</text>
<links><link target="task_0b709b1c-4264-4001-a73d-a94996185f95"/></links></g>
<!-- task_8caef854&#45;84fb&#45;42e0&#45;a940&#45;d586b3e6fb8a -->
<g id="task_8caef854-84fb-42e0-a940-d586b3e6fb8a" class="node">
<title>task_8caef854-84fb-42e0-a940-d586b3e6fb8a</title>
<polygon fill="none" stroke="#000000" points="2063.9046,-1078.5564 2063.9046,-1093.4681 1918.5324,-1104.0123 1712.9451,-1104.0123 1567.5729,-1093.4681 1567.5729,-1078.5564 1712.9451,-1068.0123 1918.5324,-1068.0123 2063.9046,-1078.5564"/>
<text text-anchor="middle" x="1815.7388" y="-1082.3123" font-family="Times,serif" font-size="14.00" fill="#000000">[task] ../../roles/kubeinit_submariner : Make the subctl binary</text>
</g>
<!-- Play #1: Main deployment playbook for integrating submariner (0)&#45;&gt;task_8caef854&#45;84fb&#45;42e0&#45;a940&#45;d586b3e6fb8a -->
<g id="edge_de83b55d-d951-427c-96c1-3d39d813f45c" class="edge">
<title>Play #1: Main deployment playbook for integrating submariner (0)-&gt;task_8caef854-84fb-42e0-a940-d586b3e6fb8a</title>
<path fill="none" stroke="#4dbd52" stroke-width="2" d="M460.5662,-753.0628C477.8281,-810.4741 540.1766,-989.18 664.9804,-1059.0123 740.5667,-1101.3055 1241.5398,-1098.6982 1557.0762,-1092.6085"/>
<polygon fill="#4dbd52" stroke="#4dbd52" stroke-width="2" points="1557.3592,-1096.1037 1567.2889,-1092.4089 1557.2224,-1089.1051 1557.3592,-1096.1037"/>
<text text-anchor="middle" x="1013.9804" y="-1099.8123" font-family="Times,serif" font-size="14.00" fill="#4dbd52">7  [when: kubeinit_submariner_is_broker|bool or kubeinit_submariner_is_secondary|bool]</text>
<links><link target="task_8caef854-84fb-42e0-a940-d586b3e6fb8a"/></links></g>
<!-- task_0f101671&#45;4aa6&#45;4a91&#45;97df&#45;98b7c1c1c3d2 -->
<g id="task_0f101671-4aa6-4a91-97df-98b7c1c1c3d2" class="node">
<title>task_0f101671-4aa6-4a91-97df-98b7c1c1c3d2</title>
<polygon fill="none" stroke="#000000" points="2019.7644,-1024.5564 2019.7644,-1039.4681 1900.249,-1050.0123 1731.2286,-1050.0123 1611.7131,-1039.4681 1611.7131,-1024.5564 1731.2286,-1014.0123 1900.249,-1014.0123 2019.7644,-1024.5564"/>
<text text-anchor="middle" x="1815.7388" y="-1028.3123" font-family="Times,serif" font-size="14.00" fill="#000000">[task] ../../roles/kubeinit_submariner : Make build</text>
</g>
<!-- Play #1: Main deployment playbook for integrating submariner (0)&#45;&gt;task_0f101671&#45;4aa6&#45;4a91&#45;97df&#45;98b7c1c1c3d2 -->
<g id="edge_55506f71-b99b-4154-8b3d-ddcdb86ca7bd" class="edge">
<title>Play #1: Main deployment playbook for integrating submariner (0)-&gt;task_0f101671-4aa6-4a91-97df-98b7c1c1c3d2</title>
<path fill="none" stroke="#4dbd52" stroke-width="2" d="M462.8768,-753.3257C484.692,-804.5458 554.2668,-949.1653 664.9804,-1005.0123 746.0086,-1045.8851 1291.4559,-1042.3475 1601.4394,-1036.8453"/>
<polygon fill="#4dbd52" stroke="#4dbd52" stroke-width="2" points="1601.5179,-1040.3445 1611.4534,-1036.6654 1601.3921,-1033.3456 1601.5179,-1040.3445"/>
<text text-anchor="middle" x="1013.9804" y="-1043.8123" font-family="Times,serif" font-size="14.00" fill="#4dbd52">8  [when: kubeinit_submariner_is_broker|bool or kubeinit_submariner_is_secondary|bool]</text>
<links><link target="task_0f101671-4aa6-4a91-97df-98b7c1c1c3d2"/></links></g>
<!-- task_de983816&#45;5bd9&#45;49f8&#45;bb31&#45;3e568470aa61 -->
<g id="task_de983816-5bd9-49f8-bb31-3e568470aa61" class="node">
<title>task_de983816-5bd9-49f8-bb31-3e568470aa61</title>
<polygon fill="none" stroke="#000000" points="2028.1482,-970.5564 2028.1482,-985.4681 1903.7217,-996.0123 1727.7559,-996.0123 1603.3293,-985.4681 1603.3293,-970.5564 1727.7559,-960.0123 1903.7217,-960.0123 2028.1482,-970.5564"/>
<text text-anchor="middle" x="1815.7388" y="-974.3123" font-family="Times,serif" font-size="14.00" fill="#000000">[task] ../../roles/kubeinit_submariner : Make images</text>
</g>
<!-- Play #1: Main deployment playbook for integrating submariner (0)&#45;&gt;task_de983816&#45;5bd9&#45;49f8&#45;bb31&#45;3e568470aa61 -->
<g id="edge_0ba5ecf7-977a-4e4a-9386-f7703672b892" class="edge">
<title>Play #1: Main deployment playbook for integrating submariner (0)-&gt;task_de983816-5bd9-49f8-bb31-3e568470aa61</title>
<path fill="none" stroke="#4dbd52" stroke-width="2" d="M465.6874,-753.2732C491.8616,-797.9852 566.3115,-912.4679 664.9804,-956.0123 747.209,-992.3012 1282.274,-988.4481 1593.0358,-982.953"/>
<polygon fill="#4dbd52" stroke="#4dbd52" stroke-width="2" points="1593.1433,-986.4517 1603.0791,-982.7734 1593.0181,-979.4528 1593.1433,-986.4517"/>
<text text-anchor="middle" x="1013.9804" y="-989.8123" font-family="Times,serif" font-size="14.00" fill="#4dbd52">9  [when: kubeinit_submariner_is_broker|bool or kubeinit_submariner_is_secondary|bool]</text>
<links><link target="task_de983816-5bd9-49f8-bb31-3e568470aa61"/></links></g>
<!-- task_d7a19991&#45;3b37&#45;40f6&#45;b781&#45;54d4f27d77de -->
<g id="task_d7a19991-3b37-40f6-b781-54d4f27d77de" class="node">
<title>task_d7a19991-3b37-40f6-b781-54d4f27d77de</title>
<polygon fill="none" stroke="#000000" points="2101.4747,-916.5564 2101.4747,-931.4681 1934.0945,-942.0123 1697.3831,-942.0123 1530.0028,-931.4681 1530.0028,-916.5564 1697.3831,-906.0123 1934.0945,-906.0123 2101.4747,-916.5564"/>
<text text-anchor="middle" x="1815.7388" y="-920.3123" font-family="Times,serif" font-size="14.00" fill="#000000">[task] ../../roles/kubeinit_submariner : Make the subctl binary available</text>
</g>
<!-- Play #1: Main deployment playbook for integrating submariner (0)&#45;&gt;task_d7a19991&#45;3b37&#45;40f6&#45;b781&#45;54d4f27d77de -->
<g id="edge_0efc02b7-eb80-4ccb-8120-72009c1b3ea9" class="edge">
<title>Play #1: Main deployment playbook for integrating submariner (0)-&gt;task_d7a19991-3b37-40f6-b781-54d4f27d77de</title>
<path fill="none" stroke="#4dbd52" stroke-width="2" d="M472.0513,-753.0963C504.8924,-787.4734 582.2499,-861.3736 664.9804,-890.0123 823.7011,-944.9564 1270.0155,-942.4112 1557.8886,-934.1806"/>
<polygon fill="#4dbd52" stroke="#4dbd52" stroke-width="2" points="1558.1673,-937.6741 1568.0615,-933.8855 1557.9642,-930.677 1558.1673,-937.6741"/>
<text text-anchor="middle" x="1013.9804" y="-941.8123" font-family="Times,serif" font-size="14.00" fill="#4dbd52">10  [when: kubeinit_submariner_is_broker|bool or kubeinit_submariner_is_secondary|bool]</text>
<links><link target="task_d7a19991-3b37-40f6-b781-54d4f27d77de"/></links></g>
<!-- task_118de044&#45;05be&#45;4c27&#45;bb82&#45;1cfdad5ec16a -->
<g id="task_118de044-05be-4c27-bb82-1cfdad5ec16a" class="node">
<title>task_118de044-05be-4c27-bb82-1cfdad5ec16a</title>
<polygon fill="none" stroke="#000000" points="2070.9744,-862.5564 2070.9744,-877.4681 1921.4608,-888.0123 1710.0167,-888.0123 1560.5031,-877.4681 1560.5031,-862.5564 1710.0167,-852.0123 1921.4608,-852.0123 2070.9744,-862.5564"/>
<text text-anchor="middle" x="1815.7388" y="-866.3123" font-family="Times,serif" font-size="14.00" fill="#000000">[task] ../../roles/kubeinit_submariner : Check if ~/.profile exists</text>
</g>
<!-- Play #1: Main deployment playbook for integrating submariner (0)&#45;&gt;task_118de044&#45;05be&#45;4c27&#45;bb82&#45;1cfdad5ec16a -->
<g id="edge_7f4f3a71-d7e5-4c63-95df-da21187802aa" class="edge">
<title>Play #1: Main deployment playbook for integrating submariner (0)-&gt;task_118de044-05be-4c27-bb82-1cfdad5ec16a</title>
<path fill="none" stroke="#4dbd52" stroke-width="2" d="M485.3701,-753.128C524.8548,-775.9656 597.3249,-814.1543 664.9804,-830.0123 826.7341,-867.9262 1263.5638,-873.4691 1550.0746,-872.6936"/>
<polygon fill="#4dbd52" stroke="#4dbd52" stroke-width="2" points="1550.2131,-876.1933 1560.2026,-872.6634 1550.1921,-869.1933 1550.2131,-876.1933"/>
<text text-anchor="middle" x="1013.9804" y="-874.8123" font-family="Times,serif" font-size="14.00" fill="#4dbd52">11  [when: kubeinit_submariner_is_broker|bool or kubeinit_submariner_is_secondary|bool]</text>
<links><link target="task_118de044-05be-4c27-bb82-1cfdad5ec16a"/></links></g>
<!-- task_18863fab&#45;9b36&#45;48eb&#45;9774&#45;c0fcb3feaedc -->
<g id="task_18863fab-9b36-48eb-9774-c0fcb3feaedc" class="node">
<title>task_18863fab-9b36-48eb-9774-c0fcb3feaedc</title>
<polygon fill="none" stroke="#000000" points="2087.7422,-808.5564 2087.7422,-823.4681 1928.4063,-834.0123 1703.0713,-834.0123 1543.7353,-823.4681 1543.7353,-808.5564 1703.0713,-798.0123 1928.4063,-798.0123 2087.7422,-808.5564"/>
<text text-anchor="middle" x="1815.7388" y="-812.3123" font-family="Times,serif" font-size="14.00" fill="#000000">[task] ../../roles/kubeinit_submariner : Append subctl path to profile</text>
</g>
<!-- Play #1: Main deployment playbook for integrating submariner (0)&#45;&gt;task_18863fab&#45;9b36&#45;48eb&#45;9774&#45;c0fcb3feaedc -->
<g id="edge_fb799474-d584-4ecd-8e98-c013e28a1f61" class="edge">
<title>Play #1: Main deployment playbook for integrating submariner (0)-&gt;task_18863fab-9b36-48eb-9774-c0fcb3feaedc</title>
<path fill="none" stroke="#4dbd52" stroke-width="2" d="M544.8359,-753.0229C581.8613,-759.792 625.3414,-766.8496 664.9804,-771.0123 960.1014,-802.004 1299.8186,-812.1857 1533.2252,-815.27"/>
<polygon fill="#4dbd52" stroke="#4dbd52" stroke-width="2" points="1533.5196,-818.774 1543.5638,-815.4029 1533.6096,-811.7745 1533.5196,-818.774"/>
<text text-anchor="middle" x="1013.9804" y="-814.8123" font-family="Times,serif" font-size="14.00" fill="#4dbd52">12  [when: profile_exists.stat.exists and (kubeinit_submariner_is_broker|bool or kubeinit_submariner_is_secondary|bool)]</text>
<links><link target="task_18863fab-9b36-48eb-9774-c0fcb3feaedc"/></links></g>
<!-- task_e32a3311&#45;ac0b&#45;4f74&#45;863b&#45;a7c3f48a2cb1 -->
<g id="task_e32a3311-ac0b-4f74-863b-a7c3f48a2cb1" class="node">
<title>task_e32a3311-ac0b-4f74-863b-a7c3f48a2cb1</title>
<polygon fill="none" stroke="#000000" points="2093.4979,-754.5564 2093.4979,-769.4681 1930.7904,-780.0123 1700.6872,-780.0123 1537.9796,-769.4681 1537.9796,-754.5564 1700.6872,-744.0123 1930.7904,-744.0123 2093.4979,-754.5564"/>
<text text-anchor="middle" x="1815.7388" y="-758.3123" font-family="Times,serif" font-size="14.00" fill="#000000">[task] ../../roles/kubeinit_submariner : Check if ~/.bash_profile exists</text>
</g>
<!-- Play #1: Main deployment playbook for integrating submariner (0)&#45;&gt;task_e32a3311&#45;ac0b&#45;4f74&#45;863b&#45;a7c3f48a2cb1 -->
<g id="edge_f2e62001-71c0-4204-b28a-d3a277be8116" class="edge">
<title>Play #1: Main deployment playbook for integrating submariner (0)-&gt;task_e32a3311-ac0b-4f74-863b-a7c3f48a2cb1</title>
<path fill="none" stroke="#4dbd52" stroke-width="2" d="M647.1277,-738.8163C876.4213,-743.3676 1262.5251,-751.0314 1527.764,-756.2962"/>
<polygon fill="#4dbd52" stroke="#4dbd52" stroke-width="2" points="1527.8677,-759.7989 1537.9352,-756.4981 1528.0067,-752.8002 1527.8677,-759.7989"/>
<text text-anchor="middle" x="1013.9804" y="-755.8123" font-family="Times,serif" font-size="14.00" fill="#4dbd52">13  [when: kubeinit_submariner_is_broker|bool or kubeinit_submariner_is_secondary|bool]</text>
<links><link target="task_e32a3311-ac0b-4f74-863b-a7c3f48a2cb1"/></links></g>
<!-- task_fcb6b4a3&#45;479d&#45;4123&#45;a827&#45;e3c30e52217f -->
<g id="task_fcb6b4a3-479d-4123-a827-e3c30e52217f" class="node">
<title>task_fcb6b4a3-479d-4123-a827-e3c30e52217f</title>
<polygon fill="none" stroke="#000000" points="2110.2657,-700.5564 2110.2657,-715.4681 1937.7358,-726.0123 1693.7417,-726.0123 1521.2119,-715.4681 1521.2119,-700.5564 1693.7417,-690.0123 1937.7358,-690.0123 2110.2657,-700.5564"/>
<text text-anchor="middle" x="1815.7388" y="-704.3123" font-family="Times,serif" font-size="14.00" fill="#000000">[task] ../../roles/kubeinit_submariner : Append subctl path to bash_profile</text>
</g>
<!-- Play #1: Main deployment playbook for integrating submariner (0)&#45;&gt;task_fcb6b4a3&#45;479d&#45;4123&#45;a827&#45;e3c30e52217f -->
<g id="edge_706ab87a-8ee0-4c4c-8a0b-89bb73d97bcc" class="edge">
<title>Play #1: Main deployment playbook for integrating submariner (0)-&gt;task_fcb6b4a3-479d-4123-a827-e3c30e52217f</title>
<path fill="none" stroke="#4dbd52" stroke-width="2" d="M647.257,-720.8105C653.2318,-720.5187 659.1509,-720.2511 664.9804,-720.0123 951.6758,-708.2649 1278.864,-705.9213 1510.8845,-706.1277"/>
<polygon fill="#4dbd52" stroke="#4dbd52" stroke-width="2" points="1511.1651,-709.6279 1521.1688,-706.1386 1511.1725,-702.6279 1511.1651,-709.6279"/>
<text text-anchor="middle" x="1013.9804" y="-723.8123" font-family="Times,serif" font-size="14.00" fill="#4dbd52">14  [when: bash_profile_exists.stat.exists and (kubeinit_submariner_is_broker|bool or kubeinit_submariner_is_secondary|bool)]</text>
<links><link target="task_fcb6b4a3-479d-4123-a827-e3c30e52217f"/></links></g>
<!-- task_325605cb&#45;ac60&#45;4c17&#45;b61f&#45;22cca4423310 -->
<g id="task_325605cb-ac60-4c17-b61f-22cca4423310" class="node">
<title>task_325605cb-ac60-4c17-b61f-22cca4423310</title>
<polygon fill="none" stroke="#000000" points="2070.5674,-646.5564 2070.5674,-661.4681 1921.2923,-672.0123 1710.1853,-672.0123 1560.9101,-661.4681 1560.9101,-646.5564 1710.1853,-636.0123 1921.2923,-636.0123 2070.5674,-646.5564"/>
<text text-anchor="middle" x="1815.7388" y="-650.3123" font-family="Times,serif" font-size="14.00" fill="#000000">[task] ../../roles/kubeinit_submariner : Check if ~/.bashrc exists</text>
</g>
<!-- Play #1: Main deployment playbook for integrating submariner (0)&#45;&gt;task_325605cb&#45;ac60&#45;4c17&#45;b61f&#45;22cca4423310 -->
<g id="edge_066fbda9-1fd4-439d-ab95-781054535dea" class="edge">
<title>Play #1: Main deployment playbook for integrating submariner (0)-&gt;task_325605cb-ac60-4c17-b61f-22cca4423310</title>
<path fill="none" stroke="#4dbd52" stroke-width="2" d="M519.0774,-717.0117C560.3067,-706.1974 615.382,-693.3428 664.9804,-687.0123 966.9519,-648.4699 1316.9514,-644.109 1550.9339,-646.8992"/>
<polygon fill="#4dbd52" stroke="#4dbd52" stroke-width="2" points="1550.9012,-650.399 1560.9441,-647.0238 1550.9884,-643.3996 1550.9012,-650.399"/>
<text text-anchor="middle" x="1013.9804" y="-690.8123" font-family="Times,serif" font-size="14.00" fill="#4dbd52">15  [when: kubeinit_submariner_is_broker|bool or kubeinit_submariner_is_secondary|bool]</text>
<links><link target="task_325605cb-ac60-4c17-b61f-22cca4423310"/></links></g>
<!-- task_70209a26&#45;e00c&#45;4d62&#45;981b&#45;8a4c5845e775 -->
<g id="task_70209a26-e00c-4d62-981b-8a4c5845e775" class="node">
<title>task_70209a26-e00c-4d62-981b-8a4c5845e775</title>
<polygon fill="none" stroke="#000000" points="2087.335,-592.5564 2087.335,-607.4681 1928.2376,-618.0123 1703.2399,-618.0123 1544.1425,-607.4681 1544.1425,-592.5564 1703.2399,-582.0123 1928.2376,-582.0123 2087.335,-592.5564"/>
<text text-anchor="middle" x="1815.7388" y="-596.3123" font-family="Times,serif" font-size="14.00" fill="#000000">[task] ../../roles/kubeinit_submariner : Append subctl path to bashrc</text>
</g>
<!-- Play #1: Main deployment playbook for integrating submariner (0)&#45;&gt;task_70209a26&#45;e00c&#45;4d62&#45;981b&#45;8a4c5845e775 -->
<g id="edge_c2152352-bbd1-4d67-9935-53eefef178a7" class="edge">
<title>Play #1: Main deployment playbook for integrating submariner (0)-&gt;task_70209a26-e00c-4d62-981b-8a4c5845e775</title>
<path fill="none" stroke="#4dbd52" stroke-width="2" d="M481.039,-716.9211C519.03,-691.2137 593.609,-645.2151 664.9804,-627.0123 823.3403,-586.6236 1249.0894,-586.8227 1535.9101,-592.2327"/>
<polygon fill="#4dbd52" stroke="#4dbd52" stroke-width="2" points="1535.9886,-595.7348 1546.0539,-592.4273 1536.1229,-588.7361 1535.9886,-595.7348"/>
<text text-anchor="middle" x="1013.9804" y="-630.8123" font-family="Times,serif" font-size="14.00" fill="#4dbd52">16  [when: bashrc_exists.stat.exists and (kubeinit_submariner_is_broker|bool or kubeinit_submariner_is_secondary|bool)]</text>
<links><link target="task_70209a26-e00c-4d62-981b-8a4c5845e775"/></links></g>
<!-- task_a68204c4&#45;60c7&#45;4e82&#45;9652&#45;6046ab7b3932 -->
<g id="task_a68204c4-60c7-4e82-9652-6046ab7b3932" class="node">
<title>task_a68204c4-60c7-4e82-9652-6046ab7b3932</title>
<polygon fill="none" stroke="#000000" points="2112.4865,-538.5564 2112.4865,-553.4681 1938.6557,-564.0123 1692.8218,-564.0123 1518.991,-553.4681 1518.991,-538.5564 1692.8218,-528.0123 1938.6557,-528.0123 2112.4865,-538.5564"/>
<text text-anchor="middle" x="1815.7388" y="-542.3123" font-family="Times,serif" font-size="14.00" fill="#000000">[task] ../../roles/kubeinit_submariner : Render the iptables persist template</text>
</g>
<!-- Play #1: Main deployment playbook for integrating submariner (0)&#45;&gt;task_a68204c4&#45;60c7&#45;4e82&#45;9652&#45;6046ab7b3932 -->
<g id="edge_3564612c-d45c-419f-b182-4db78dc08e1e" class="edge">
<title>Play #1: Main deployment playbook for integrating submariner (0)-&gt;task_a68204c4-60c7-4e82-9652-6046ab7b3932</title>
<path fill="none" stroke="#4dbd52" stroke-width="2" d="M470.7752,-716.8363C502.5263,-680.6671 579.771,-600.5371 664.9804,-570.0123 827.8318,-511.6735 1296.7545,-521.2672 1583.2656,-533.5905"/>
<polygon fill="#4dbd52" stroke="#4dbd52" stroke-width="2" points="1583.2374,-537.0925 1593.3799,-534.03 1583.5413,-530.0991 1583.2374,-537.0925"/>
<text text-anchor="middle" x="1013.9804" y="-573.8123" font-family="Times,serif" font-size="14.00" fill="#4dbd52">17  [when: kubeinit_submariner_is_broker|bool]</text>
<links><link target="task_a68204c4-60c7-4e82-9652-6046ab7b3932"/></links></g>
<!-- task_f8de74af&#45;e984&#45;4a01&#45;88bb&#45;c22c5317e307 -->
<g id="task_f8de74af-e984-4a01-88bb-c22c5317e307" class="node">
<title>task_f8de74af-e984-4a01-88bb-c22c5317e307</title>
<polygon fill="none" stroke="#000000" points="2207.4295,-484.5564 2207.4295,-499.4681 1977.9824,-510.0123 1653.4952,-510.0123 1424.048,-499.4681 1424.048,-484.5564 1653.4952,-474.0123 1977.9824,-474.0123 2207.4295,-484.5564"/>
<text text-anchor="middle" x="1815.7388" y="-488.3123" font-family="Times,serif" font-size="14.00" fill="#000000">[task] ../../roles/kubeinit_submariner : Make sure there the traffic is allowed from/to the cluster net</text>
</g>
<!-- Play #1: Main deployment playbook for integrating submariner (0)&#45;&gt;task_f8de74af&#45;e984&#45;4a01&#45;88bb&#45;c22c5317e307 -->
<g id="edge_c97cab50-0904-4bf3-bf3d-1cb3e51e5c4c" class="edge">
<title>Play #1: Main deployment playbook for integrating submariner (0)-&gt;task_f8de74af-e984-4a01-88bb-c22c5317e307</title>
<path fill="none" stroke="#4dbd52" stroke-width="2" d="M464.8985,-716.9961C490.0266,-671.1426 563.7066,-550.4392 664.9804,-505.0123 736.5808,-472.8955 1153.7029,-475.3025 1465.2888,-481.955"/>
<polygon fill="#4dbd52" stroke="#4dbd52" stroke-width="2" points="1465.328,-485.4566 1475.4012,-482.1732 1465.4791,-478.4582 1465.328,-485.4566"/>
<text text-anchor="middle" x="1013.9804" y="-508.8123" font-family="Times,serif" font-size="14.00" fill="#4dbd52">18  [when: kubeinit_submariner_is_broker|bool]</text>
<links><link target="task_f8de74af-e984-4a01-88bb-c22c5317e307"/></links></g>
<!-- task_af56fd48&#45;06cf&#45;4f87&#45;86e3&#45;f570a32aa209 -->
<g id="task_af56fd48-06cf-4f87-86e3-f570a32aa209" class="node">
<title>task_af56fd48-06cf-4f87-86e3-f570a32aa209</title>
<polygon fill="none" stroke="#000000" points="2069.6604,-430.5564 2069.6604,-445.4681 1920.9165,-456.0123 1710.561,-456.0123 1561.8172,-445.4681 1561.8172,-430.5564 1710.561,-420.0123 1920.9165,-420.0123 2069.6604,-430.5564"/>
<text text-anchor="middle" x="1815.7388" y="-434.3123" font-family="Times,serif" font-size="14.00" fill="#000000">[task] ../../roles/kubeinit_submariner : Configure broker cluster</text>
</g>
<!-- Play #1: Main deployment playbook for integrating submariner (0)&#45;&gt;task_af56fd48&#45;06cf&#45;4f87&#45;86e3&#45;f570a32aa209 -->
<g id="edge_95698966-039a-47a8-be53-e25148727446" class="edge">
<title>Play #1: Main deployment playbook for integrating submariner (0)-&gt;task_af56fd48-06cf-4f87-86e3-f570a32aa209</title>
<path fill="none" stroke="#4dbd52" stroke-width="2" d="M462.4091,-716.9535C483.4416,-665.0304 552.1077,-515.3933 664.9804,-458.0123 741.685,-419.0179 1236.1746,-423.4447 1551.4915,-430.5139"/>
<polygon fill="#4dbd52" stroke="#4dbd52" stroke-width="2" points="1551.6226,-434.0177 1561.6993,-430.7451 1551.7812,-427.0195 1551.6226,-434.0177"/>
<text text-anchor="middle" x="1013.9804" y="-461.8123" font-family="Times,serif" font-size="14.00" fill="#4dbd52">19  [when: kubeinit_submariner_is_broker|bool]</text>
<links><link target="task_af56fd48-06cf-4f87-86e3-f570a32aa209"/></links></g>
<!-- task_b11e951e&#45;f342&#45;44cd&#45;a448&#45;48fdc65be0ae -->
<g id="task_b11e951e-f342-44cd-a448-48fdc65be0ae" class="node">
<title>task_b11e951e-f342-44cd-a448-48fdc65be0ae</title>
<polygon fill="none" stroke="#000000" points="2147.8357,-376.5564 2147.8357,-391.4681 1953.2978,-402.0123 1678.1797,-402.0123 1483.6418,-391.4681 1483.6418,-376.5564 1678.1797,-366.0123 1953.2978,-366.0123 2147.8357,-376.5564"/>
<text text-anchor="middle" x="1815.7388" y="-380.3123" font-family="Times,serif" font-size="14.00" fill="#000000">[task] ../../roles/kubeinit_submariner : Copy the broker-info.subm to the hypervisor</text>
</g>
<!-- Play #1: Main deployment playbook for integrating submariner (0)&#45;&gt;task_b11e951e&#45;f342&#45;44cd&#45;a448&#45;48fdc65be0ae -->
<g id="edge_24d90ec2-b5cc-42b8-8c63-2707baa36afe" class="edge">
<title>Play #1: Main deployment playbook for integrating submariner (0)-&gt;task_b11e951e-f342-44cd-a448-48fdc65be0ae</title>
<path fill="none" stroke="#4dbd52" stroke-width="2" d="M460.4613,-716.6707C477.4069,-658.3358 538.9079,-476.7712 664.9804,-406.0123 736.114,-366.0881 1184.6903,-368.1444 1500.2656,-374.87"/>
<polygon fill="#4dbd52" stroke="#4dbd52" stroke-width="2" points="1500.425,-378.3741 1510.4982,-375.0906 1500.576,-371.3757 1500.425,-378.3741"/>
<text text-anchor="middle" x="1013.9804" y="-409.8123" font-family="Times,serif" font-size="14.00" fill="#4dbd52">20  [when: kubeinit_submariner_is_broker|bool]</text>
<links><link target="task_b11e951e-f342-44cd-a448-48fdc65be0ae"/></links></g>
<!-- task_04192429&#45;8125&#45;4743&#45;9cf1&#45;7a826226a735 -->
<g id="task_04192429-8125-4743-9cf1-7a826226a735" class="node">
<title>task_04192429-8125-4743-9cf1-7a826226a735</title>
<polygon fill="none" stroke="#000000" points="2123.0912,-322.5564 2123.0912,-337.4681 1943.0483,-348.0123 1688.4292,-348.0123 1508.3863,-337.4681 1508.3863,-322.5564 1688.4292,-312.0123 1943.0483,-312.0123 2123.0912,-322.5564"/>
<text text-anchor="middle" x="1815.7388" y="-326.3123" font-family="Times,serif" font-size="14.00" fill="#000000">[task] ../../roles/kubeinit_submariner : Copy the kubeconfig to the hypervisor</text>
</g>
<!-- Play #1: Main deployment playbook for integrating submariner (0)&#45;&gt;task_04192429&#45;8125&#45;4743&#45;9cf1&#45;7a826226a735 -->
<g id="edge_eb06787e-29bc-4e51-8e3d-12a5b7bf3f4c" class="edge">
<title>Play #1: Main deployment playbook for integrating submariner (0)-&gt;task_04192429-8125-4743-9cf1-7a826226a735</title>
<path fill="none" stroke="#4dbd52" stroke-width="2" d="M458.7916,-716.9873C471.5912,-653.1707 524.3148,-437.2304 664.9804,-352.0123 736.7553,-308.5295 1209.8537,-312.6406 1526.6685,-320.6068"/>
<polygon fill="#4dbd52" stroke="#4dbd52" stroke-width="2" points="1526.8475,-324.1124 1536.9332,-320.8677 1527.0253,-317.1147 1526.8475,-324.1124"/>
<text text-anchor="middle" x="1013.9804" y="-355.8123" font-family="Times,serif" font-size="14.00" fill="#4dbd52">21  [when: kubeinit_submariner_is_broker|bool or kubeinit_submariner_is_secondary|bool]</text>
<links><link target="task_04192429-8125-4743-9cf1-7a826226a735"/></links></g>
<!-- task_4c54550a&#45;a0a7&#45;4e07&#45;af58&#45;4d1b6a886d4a -->
<g id="task_4c54550a-a0a7-4e07-af58-4d1b6a886d4a" class="node">
<title>task_4c54550a-a0a7-4e07-af58-4d1b6a886d4a</title>
<polygon fill="none" stroke="#000000" points="2250.2556,-268.5564 2250.2556,-283.4681 1995.7215,-294.0123 1635.756,-294.0123 1381.2219,-283.4681 1381.2219,-268.5564 1635.756,-258.0123 1995.7215,-258.0123 2250.2556,-268.5564"/>
<text text-anchor="middle" x="1815.7388" y="-272.3123" font-family="Times,serif" font-size="14.00" fill="#000000">[task] ../../roles/kubeinit_submariner : Copying the broker-info.subm and kubeconfig to the destination cluster</text>
</g>
<!-- Play #1: Main deployment playbook for integrating submariner (0)&#45;&gt;task_4c54550a&#45;a0a7&#45;4e07&#45;af58&#45;4d1b6a886d4a -->
<g id="edge_e5da603e-01e3-48dc-a5df-d9384a67d1e1" class="edge">
<title>Play #1: Main deployment playbook for integrating submariner (0)-&gt;task_4c54550a-a0a7-4e07-af58-4d1b6a886d4a</title>
<path fill="none" stroke="#4dbd52" stroke-width="2" d="M457.534,-716.8986C466.502,-647.3417 509.0667,-396.269 664.9804,-296.0123 731.8486,-253.0142 1160.3112,-255.7477 1474.9428,-263.9706"/>
<polygon fill="#4dbd52" stroke="#4dbd52" stroke-width="2" points="1475.0625,-267.4749 1485.1515,-264.2404 1475.2475,-260.4773 1475.0625,-267.4749"/>
<text text-anchor="middle" x="1013.9804" y="-299.8123" font-family="Times,serif" font-size="14.00" fill="#4dbd52">22  [when: kubeinit_submariner_is_secondary|bool]</text>
<links><link target="task_4c54550a-a0a7-4e07-af58-4d1b6a886d4a"/></links></g>
<!-- task_a0caa250&#45;ddd1&#45;4822&#45;9c77&#45;8cc1380a202a -->
<g id="task_a0caa250-ddd1-4822-9c77-8cc1380a202a" class="node">
<title>task_a0caa250-ddd1-4822-9c77-8cc1380a202a</title>
<polygon fill="none" stroke="#000000" points="2070.9744,-214.5564 2070.9744,-229.4681 1921.4608,-240.0123 1710.0167,-240.0123 1560.5031,-229.4681 1560.5031,-214.5564 1710.0167,-204.0123 1921.4608,-204.0123 2070.9744,-214.5564"/>
<text text-anchor="middle" x="1815.7388" y="-218.3123" font-family="Times,serif" font-size="14.00" fill="#000000">[task] ../../roles/kubeinit_submariner : Join cluster to the broker</text>
</g>
<!-- Play #1: Main deployment playbook for integrating submariner (0)&#45;&gt;task_a0caa250&#45;ddd1&#45;4822&#45;9c77&#45;8cc1380a202a -->
<g id="edge_eb82505f-9cdf-402e-a6f2-125a6cf9ef59" class="edge">
<title>Play #1: Main deployment playbook for integrating submariner (0)-&gt;task_a0caa250-ddd1-4822-9c77-8cc1380a202a</title>
<path fill="none" stroke="#4dbd52" stroke-width="2" d="M456.5305,-716.7592C461.9435,-641.7204 493.576,-355.5313 664.9804,-240.0123 738.6126,-190.3874 1264.8183,-200.9995 1579.5946,-212.1219"/>
<polygon fill="#4dbd52" stroke="#4dbd52" stroke-width="2" points="1579.6551,-215.6262 1589.7733,-212.4843 1579.9042,-208.6306 1579.6551,-215.6262"/>
<text text-anchor="middle" x="1013.9804" y="-243.8123" font-family="Times,serif" font-size="14.00" fill="#4dbd52">23  [when: kubeinit_submariner_is_broker|bool or kubeinit_submariner_is_secondary|bool]</text>
<links><link target="task_a0caa250-ddd1-4822-9c77-8cc1380a202a"/></links></g>
<!-- task_244019d7&#45;8c92&#45;416d&#45;85d3&#45;dad84f9501bf -->
<g id="task_244019d7-8c92-416d-85d3-dad84f9501bf" class="node">
<title>task_244019d7-8c92-416d-85d3-dad84f9501bf</title>
<polygon fill="none" stroke="#000000" points="2040.974,-160.5564 2040.974,-175.4681 1909.0343,-186.0123 1722.4433,-186.0123 1590.5035,-175.4681 1590.5035,-160.5564 1722.4433,-150.0123 1909.0343,-150.0123 2040.974,-160.5564"/>
<text text-anchor="middle" x="1815.7388" y="-164.3123" font-family="Times,serif" font-size="14.00" fill="#000000">[task] ../../roles/kubeinit_submariner : Tag worker node</text>
</g>
<!-- Play #1: Main deployment playbook for integrating submariner (0)&#45;&gt;task_244019d7&#45;8c92&#45;416d&#45;85d3&#45;dad84f9501bf -->
<g id="edge_2eaf2edd-4a83-47ef-a82c-09ac1e13cd3f" class="edge">
<title>Play #1: Main deployment playbook for integrating submariner (0)-&gt;task_244019d7-8c92-416d-85d3-dad84f9501bf</title>
<path fill="none" stroke="#4dbd52" stroke-width="2" d="M459.5274,-716.7831C479.4622,-628.7818 570.078,-249.4187 664.9804,-183.0123 739.779,-130.6731 1294.3086,-145.4213 1605.4588,-158.1427"/>
<polygon fill="#4dbd52" stroke="#4dbd52" stroke-width="2" points="1605.3725,-161.642 1615.508,-158.5563 1605.6604,-154.6479 1605.3725,-161.642"/>
<text text-anchor="middle" x="1013.9804" y="-186.8123" font-family="Times,serif" font-size="14.00" fill="#4dbd52">24  [when: kubeinit_submariner_is_broker|bool or kubeinit_submariner_is_secondary|bool]</text>
<links><link target="task_244019d7-8c92-416d-85d3-dad84f9501bf"/></links></g>
<!-- task_270fcf1c&#45;098a&#45;41c3&#45;853c&#45;936144a7756f -->
<g id="task_270fcf1c-098a-41c3-853c-936144a7756f" class="node">
<title>task_270fcf1c-098a-41c3-853c-936144a7756f</title>
<polygon fill="none" stroke="#000000" points="2075.8234,-106.5564 2075.8234,-121.4681 1923.4693,-132.0123 1708.0082,-132.0123 1555.6541,-121.4681 1555.6541,-106.5564 1708.0082,-96.0123 1923.4693,-96.0123 2075.8234,-106.5564"/>
<text text-anchor="middle" x="1815.7388" y="-110.3123" font-family="Times,serif" font-size="14.00" fill="#000000">[task] ../../roles/kubeinit_submariner : Render the netshoot script</text>
</g>
<!-- Play #1: Main deployment playbook for integrating submariner (0)&#45;&gt;task_270fcf1c&#45;098a&#45;41c3&#45;853c&#45;936144a7756f -->
<g id="edge_5e4920bf-d138-4559-b131-4acd99103438" class="edge">
<title>Play #1: Main deployment playbook for integrating submariner (0)-&gt;task_270fcf1c-098a-41c3-853c-936144a7756f</title>
<path fill="none" stroke="#4dbd52" stroke-width="2" d="M458.8628,-716.8469C476.6011,-623.7205 561.9998,-201.3316 664.9804,-127.0123 737.9545,-74.3481 1278.1962,-89.3732 1591.8501,-102.8956"/>
<polygon fill="#4dbd52" stroke="#4dbd52" stroke-width="2" points="1591.8445,-106.3985 1601.9869,-103.3355 1592.148,-99.4051 1591.8445,-106.3985"/>
<text text-anchor="middle" x="1013.9804" y="-130.8123" font-family="Times,serif" font-size="14.00" fill="#4dbd52">25  [when: kubeinit_submariner_is_broker|bool or kubeinit_submariner_is_secondary|bool]</text>
<links><link target="task_270fcf1c-098a-41c3-853c-936144a7756f"/></links></g>
<!-- task_4accd113&#45;e439&#45;4c37&#45;841b&#45;6f4b5bee7871 -->
<g id="task_4accd113-e439-4c37-841b-6f4b5bee7871" class="node">
<title>task_4accd113-e439-4c37-841b-6f4b5bee7871</title>
<polygon fill="none" stroke="#000000" points="2076.7302,-52.5564 2076.7302,-67.4681 1923.845,-78.0123 1707.6326,-78.0123 1554.7473,-67.4681 1554.7473,-52.5564 1707.6326,-42.0123 1923.845,-42.0123 2076.7302,-52.5564"/>
<text text-anchor="middle" x="1815.7388" y="-56.3123" font-family="Times,serif" font-size="14.00" fill="#000000">[task] ../../roles/kubeinit_submariner : Verify cluster deployment</text>
</g>
<!-- Play #1: Main deployment playbook for integrating submariner (0)&#45;&gt;task_4accd113&#45;e439&#45;4c37&#45;841b&#45;6f4b5bee7871 -->
<g id="edge_70c1ed3b-bfe1-41ac-a411-d5b911c67dda" class="edge">
<title>Play #1: Main deployment playbook for integrating submariner (0)-&gt;task_4accd113-e439-4c37-841b-6f4b5bee7871</title>
<path fill="none" stroke="#4dbd52" stroke-width="2" d="M458.3194,-716.84C474.0526,-618.6916 553.8687,-153.2855 664.9804,-71.0123 821.8251,45.1241 1409.4574,-9.5891 1679.0351,-42.0241"/>
<polygon fill="#4dbd52" stroke="#4dbd52" stroke-width="2" points="1678.9267,-45.5364 1689.2749,-43.2638 1679.7681,-38.5872 1678.9267,-45.5364"/>
<text text-anchor="middle" x="1013.9804" y="-74.8123" font-family="Times,serif" font-size="14.00" fill="#4dbd52">26  [when: kubeinit_submariner_is_secondary|bool]</text>
<links><link target="task_4accd113-e439-4c37-841b-6f4b5bee7871"/></links></g>
</g>
</svg>