<?xml version="1.0" encoding="UTF-8" standalone="no"?>
<!DOCTYPE svg PUBLIC "-//W3C//DTD SVG 1.1//EN"
 "http://www.w3.org/Graphics/SVG/1.1/DTD/svg11.dtd">
<!-- Generated by graphviz version 2.43.0 (0)
 -->
<!-- Title: kubeinit/playbook.yml  Pages: 1 -->
<svg width="2332pt" height="390pt"
 viewBox="0.00 0.00 2331.72 389.72" xmlns="http://www.w3.org/2000/svg" xmlns:xlink="http://www.w3.org/1999/xlink">
<g id="graph0" class="graph" transform="scale(1 1) rotate(0) translate(4 385.72)">
<title>kubeinit/playbook.yml </title>
<polygon fill="white" stroke="transparent" points="-4,4 -4,-385.72 2327.72,-385.72 2327.72,4 -4,4"/>
<!-- kubeinit/playbook.yml -->
<g id="root_node" class="node">
<title>kubeinit/playbook.yml</title>
<ellipse fill="none" stroke="black" stroke-dasharray="1,5" cx="113.09" cy="-205.72" rx="113.18" ry="18"/>
<text text-anchor="middle" x="113.09" y="-202.02" font-family="Times,serif" font-size="14.00">kubeinit/playbook.yml</text>
</g>
<!-- task&#45;download&#45;images -->
<g id="play_7bcb5395&#45;d5f9&#45;493d&#45;9482&#45;92b6003ea329" class="node">
<title>task&#45;download&#45;images</title>
<g id="a_play_7bcb5395&#45;d5f9&#45;493d&#45;9482&#45;92b6003ea329"><a xlink:title="localhost">
<polygon fill="none" stroke="#000000" points="518.51,-198.26 518.51,-213.18 446.33,-223.72 344.25,-223.72 272.07,-213.18 272.07,-198.26 344.25,-187.72 446.33,-187.72 518.51,-198.26"/>
<text text-anchor="middle" x="395.29" y="-202.02" font-family="Times,serif" font-size="14.00" fill="#000000">task&#45;download&#45;images</text>
</a>
</g>
</g>
<!-- kubeinit/playbook.yml&#45;&gt;task&#45;download&#45;images -->
<g id="edge_7138a4ea&#45;dab1&#45;482b&#45;87e5&#45;6cd0a5cf64e8" class="edge">
<title>kubeinit/playbook.yml&#45;&gt;task&#45;download&#45;images</title>
<path fill="none" stroke="#000000" stroke-width="2" d="M226.44,-205.72C237.98,-205.72 249.79,-205.72 261.52,-205.72"/>
<polygon fill="#000000" stroke="#000000" stroke-width="2" points="261.8,-209.22 271.8,-205.72 261.8,-202.22 261.8,-209.22"/>
<text text-anchor="middle" x="249.18" y="-209.52" font-family="Times,serif" font-size="14.00" fill="#000000">3</text>
</g>
<!-- task_f7ecf612&#45;412b&#45;45c2&#45;843d&#45;aad5f25356de -->
<g id="task_f7ecf612&#45;412b&#45;45c2&#45;843d&#45;aad5f25356de" class="node">
<title>task_f7ecf612&#45;412b&#45;45c2&#45;843d&#45;aad5f25356de</title>
<g id="a_task_f7ecf612&#45;412b&#45;45c2&#45;843d&#45;aad5f25356de"><a xlink:title="[task] kubeinit.kubeinit.kubeinit_libvirt : Create tuples for hosts and guest vms">
<polygon fill="none" stroke="black" points="2278.83,-333.26 2278.83,-348.18 2038.5,-358.72 1698.62,-358.72 1458.29,-348.18 1458.29,-333.26 1698.62,-322.72 2038.5,-322.72 2278.83,-333.26"/>
<text text-anchor="middle" x="1868.56" y="-337.02" font-family="Times,serif" font-size="14.00">[task] kubeinit.kubeinit.kubeinit_libvirt : Create tuples for hosts and guest vms</text>
</a>
</g>
</g>
<!-- task&#45;download&#45;images&#45;&gt;task_f7ecf612&#45;412b&#45;45c2&#45;843d&#45;aad5f25356de -->
<g id="edge_8fc23284&#45;3fd9&#45;4ca6&#45;869c&#45;17bca18d4a6d" class="edge">
<title>task&#45;download&#45;images&#45;&gt;task_f7ecf612&#45;412b&#45;45c2&#45;843d&#45;aad5f25356de</title>
<path fill="none" stroke="#000000" stroke-width="2" d="M412.14,-224.11C436,-250.25 483.96,-297.04 536.4,-315.72 725.72,-383.15 1272.01,-370.51 1602.98,-355.47"/>
<polygon fill="#000000" stroke="#000000" stroke-width="2" points="1603.37,-358.95 1613.2,-355 1603.05,-351.96 1603.37,-358.95"/>
<text text-anchor="middle" x="965.9" y="-370.52" font-family="Times,serif" font-size="14.00" fill="#000000">1 &#160;[when: hostvars[item[1]].target in item[0]]</text>
</g>
<!-- task_2ca49ebb&#45;7233&#45;4d55&#45;932b&#45;672c9f676044 -->
<g id="task_2ca49ebb&#45;7233&#45;4d55&#45;932b&#45;672c9f676044" class="node">
<title>task_2ca49ebb&#45;7233&#45;4d55&#45;932b&#45;672c9f676044</title>
<g id="a_task_2ca49ebb&#45;7233&#45;4d55&#45;932b&#45;672c9f676044"><a xlink:title="[task] kubeinit.kubeinit.kubeinit_libvirt : Create new directories for config files per node">
<polygon fill="none" stroke="black" points="2323.88,-279.26 2323.88,-294.18 2057.16,-304.72 1679.96,-304.72 1413.24,-294.18 1413.24,-279.26 1679.96,-268.72 2057.16,-268.72 2323.88,-279.26"/>
<text text-anchor="middle" x="1868.56" y="-283.02" font-family="Times,serif" font-size="14.00">[task] kubeinit.kubeinit.kubeinit_libvirt : Create new directories for config files per node</text>
</a>
</g>
</g>
<!-- task&#45;download&#45;images&#45;&gt;task_2ca49ebb&#45;7233&#45;4d55&#45;932b&#45;672c9f676044 -->
<g id="edge_954aa303&#45;4d53&#45;4bc4&#45;b805&#45;c66199d80e13" class="edge">
<title>task&#45;download&#45;images&#45;&gt;task_2ca49ebb&#45;7233&#45;4d55&#45;932b&#45;672c9f676044</title>
<path fill="none" stroke="#000000" stroke-width="2" d="M450.6,-223.11C476.32,-230.56 507.65,-238.5 536.4,-242.72 847.55,-288.35 1203.8,-297.92 1469.41,-296.86"/>
<polygon fill="#000000" stroke="#000000" stroke-width="2" points="1469.62,-300.36 1479.61,-296.81 1469.59,-293.36 1469.62,-300.36"/>
<text text-anchor="middle" x="965.9" y="-300.52" font-family="Times,serif" font-size="14.00" fill="#000000">2</text>
</g>
<!-- task_844eea65&#45;6cfb&#45;4643&#45;acd3&#45;cb58f81dbe04 -->
<g id="task_844eea65&#45;6cfb&#45;4643&#45;acd3&#45;cb58f81dbe04" class="node">
<title>task_844eea65&#45;6cfb&#45;4643&#45;acd3&#45;cb58f81dbe04</title>
<g id="a_task_844eea65&#45;6cfb&#45;4643&#45;acd3&#45;cb58f81dbe04"><a xlink:title="[task] kubeinit.kubeinit.kubeinit_libvirt : Create tuples for hosts and cloud images">
<polygon fill="none" stroke="black" points="2292.97,-225.26 2292.97,-240.18 2044.36,-250.72 1692.76,-250.72 1444.15,-240.18 1444.15,-225.26 1692.76,-214.72 2044.36,-214.72 2292.97,-225.26"/>
<text text-anchor="middle" x="1868.56" y="-229.02" font-family="Times,serif" font-size="14.00">[task] kubeinit.kubeinit.kubeinit_libvirt : Create tuples for hosts and cloud images</text>
</a>
</g>
</g>
<!-- task&#45;download&#45;images&#45;&gt;task_844eea65&#45;6cfb&#45;4643&#45;acd3&#45;cb58f81dbe04 -->
<g id="edge_7324b38d&#45;b69a&#45;4f26&#45;94cb&#45;25255d438095" class="edge">
<title>task&#45;download&#45;images&#45;&gt;task_844eea65&#45;6cfb&#45;4643&#45;acd3&#45;cb58f81dbe04</title>
<path fill="none" stroke="#000000" stroke-width="2" d="M518.57,-207.96C718.44,-211.63 1124.35,-219.08 1438.95,-224.85"/>
<polygon fill="#000000" stroke="#000000" stroke-width="2" points="1439.11,-228.36 1449.17,-225.04 1439.24,-221.36 1439.11,-228.36"/>
<text text-anchor="middle" x="965.9" y="-227.52" font-family="Times,serif" font-size="14.00" fill="#000000">3 &#160;[when: hostvars[guest_vm].target in hypervisor and kubeinit_libvirt_cloud_images[kubeinit_cluster_distro] is defined]</text>
</g>
<!-- task_24cfd2b8&#45;f454&#45;47e0&#45;a7fc&#45;531297420504 -->
<g id="task_24cfd2b8&#45;f454&#45;47e0&#45;a7fc&#45;531297420504" class="node">
<title>task_24cfd2b8&#45;f454&#45;47e0&#45;a7fc&#45;531297420504</title>
<g id="a_task_24cfd2b8&#45;f454&#45;47e0&#45;a7fc&#45;531297420504"><a xlink:title="[task] kubeinit.kubeinit.kubeinit_libvirt : Remove duplicates">
<polygon fill="none" stroke="black" points="2181.67,-171.26 2181.67,-186.18 1998.26,-196.72 1738.87,-196.72 1555.45,-186.18 1555.45,-171.26 1738.87,-160.72 1998.26,-160.72 2181.67,-171.26"/>
<text text-anchor="middle" x="1868.56" y="-175.02" font-family="Times,serif" font-size="14.00">[task] kubeinit.kubeinit.kubeinit_libvirt : Remove duplicates</text>
</a>
</g>
</g>
<!-- task&#45;download&#45;images&#45;&gt;task_24cfd2b8&#45;f454&#45;47e0&#45;a7fc&#45;531297420504 -->
<g id="edge_4b5d7879&#45;c7c8&#45;4539&#45;a3e2&#45;56f7289bbdfc" class="edge">
<title>task&#45;download&#45;images&#45;&gt;task_24cfd2b8&#45;f454&#45;47e0&#45;a7fc&#45;531297420504</title>
<path fill="none" stroke="#000000" stroke-width="2" d="M485.47,-193.37C502.35,-191.46 519.9,-189.78 536.4,-188.72 881.24,-166.58 1277.34,-166.89 1547.2,-170.98"/>
<polygon fill="#000000" stroke="#000000" stroke-width="2" points="1547.5,-174.48 1557.55,-171.14 1547.61,-167.48 1547.5,-174.48"/>
<text text-anchor="middle" x="965.9" y="-192.52" font-family="Times,serif" font-size="14.00" fill="#000000">4</text>
</g>
<!-- task_fabdc7dd&#45;1a6e&#45;43bd&#45;b91f&#45;38ef5b23433a -->
<g id="task_fabdc7dd&#45;1a6e&#45;43bd&#45;b91f&#45;38ef5b23433a" class="node">
<title>task_fabdc7dd&#45;1a6e&#45;43bd&#45;b91f&#45;38ef5b23433a</title>
<g id="a_task_fabdc7dd&#45;1a6e&#45;43bd&#45;b91f&#45;38ef5b23433a"><a xlink:title="[task] kubeinit.kubeinit.kubeinit_libvirt : Download cloud images">
<polygon fill="none" stroke="black" points="2205.51,-117.26 2205.51,-132.18 2008.13,-142.72 1728.99,-142.72 1531.62,-132.18 1531.62,-117.26 1728.99,-106.72 2008.13,-106.72 2205.51,-117.26"/>
<text text-anchor="middle" x="1868.56" y="-121.02" font-family="Times,serif" font-size="14.00">[task] kubeinit.kubeinit.kubeinit_libvirt : Download cloud images</text>
</a>
</g>
</g>
<!-- task&#45;download&#45;images&#45;&gt;task_fabdc7dd&#45;1a6e&#45;43bd&#45;b91f&#45;38ef5b23433a -->
<g id="edge_0c605af9&#45;4146&#45;46c7&#45;ad3a&#45;0790f568bacb" class="edge">
<title>task&#45;download&#45;images&#45;&gt;task_fabdc7dd&#45;1a6e&#45;43bd&#45;b91f&#45;38ef5b23433a</title>
<path fill="none" stroke="#000000" stroke-width="2" d="M431.19,-187.65C458.89,-174.33 499.04,-157.27 536.4,-149.72 717.33,-113.14 1190.66,-112.47 1521.1,-117.15"/>
<polygon fill="#000000" stroke="#000000" stroke-width="2" points="1521.28,-120.65 1531.33,-117.29 1521.38,-113.65 1521.28,-120.65"/>
<text text-anchor="middle" x="965.9" y="-153.52" font-family="Times,serif" font-size="14.00" fill="#000000">5</text>
</g>
<!-- task_f059dc1a&#45;5058&#45;4b9b&#45;bfee&#45;78146d2b63f4 -->
<g id="task_f059dc1a&#45;5058&#45;4b9b&#45;bfee&#45;78146d2b63f4" class="node">
<title>task_f059dc1a&#45;5058&#45;4b9b&#45;bfee&#45;78146d2b63f4</title>
<g id="a_task_f059dc1a&#45;5058&#45;4b9b&#45;bfee&#45;78146d2b63f4"><a xlink:title="[task] kubeinit.kubeinit.kubeinit_libvirt : Update packages in cloud images">
<polygon fill="none" stroke="black" points="2255,-63.26 2255,-78.18 2028.63,-88.72 1708.5,-88.72 1482.13,-78.18 1482.13,-63.26 1708.5,-52.72 2028.63,-52.72 2255,-63.26"/>
<text text-anchor="middle" x="1868.56" y="-67.02" font-family="Times,serif" font-size="14.00">[task] kubeinit.kubeinit.kubeinit_libvirt : Update packages in cloud images</text>
</a>
</g>
</g>
<!-- task&#45;download&#45;images&#45;&gt;task_f059dc1a&#45;5058&#45;4b9b&#45;bfee&#45;78146d2b63f4 -->
<g id="edge_bf0c05cf&#45;9b93&#45;486e&#45;a047&#45;d03adde53f53" class="edge">
<title>task&#45;download&#45;images&#45;&gt;task_f059dc1a&#45;5058&#45;4b9b&#45;bfee&#45;78146d2b63f4</title>
<path fill="none" stroke="#000000" stroke-width="2" d="M412.14,-187.33C436,-161.19 483.96,-114.4 536.4,-95.72 969.8,58.65 1533.96,-11.91 1763.56,-50.96"/>
<polygon fill="#000000" stroke="#000000" stroke-width="2" points="1763.12,-54.43 1773.57,-52.68 1764.31,-47.53 1763.12,-54.43"/>
<text text-anchor="middle" x="965.9" y="-99.52" font-family="Times,serif" font-size="14.00" fill="#000000">6</text>
</g>
</g>
</svg>
