<?xml version='1.0' encoding='UTF-8'?>
<!DOCTYPE svg PUBLIC "-//W3C//DTD SVG 1.1//EN" "http://www.w3.org/Graphics/SVG/1.1/DTD/svg11.dtd">
<!-- Generated by graphviz version 2.43.0 (0)
 --><!-- Title: ./playbooks/submariner&#45;subctl&#45;verify.yml  Pages: 1 --><svg xmlns="http://www.w3.org/2000/svg" xmlns:xlink="http://www.w3.org/1999/xlink" width="1919pt" height="807pt" viewBox="0.00 0.00 1919.12 807.41" id="svg">
<script type="text/javascript" href="https://ajax.googleapis.com/ajax/libs/jquery/3.2.1/jquery.min.js" id="jquery"/><script type="text/javascript" id="my_javascript"><![CDATA[const HOVER_CLASS = "my_hover";

var selectedElement = null;

function addClass(rootElement) {
    $(rootElement).find('link').each(function (index, element) {
        var target = $(element).attr('target');
        var currentElement = $('#' + target);
        currentElement.addClass(HOVER_CLASS);

        addClass(currentElement);
    })
}

function removeClass(rootElement, hover) {
    $(rootElement).find('link').each(function (index, element) {
        if ($(rootElement).attr('id') !== $(selectedElement).attr('id') || !hover) {
            var target = $(element).attr('target');
            var currentElement = $('#' + target);
            currentElement.removeClass(HOVER_CLASS);

            removeClass(currentElement);
        }

    })
}

function hoverIn(event) {
    addClass(event.currentTarget);
}

function hoverOut(event) {
    removeClass(event.currentTarget, true);
}

function clickOnElement(event) {
    var newElement = event.currentTarget;

    if ($(newElement).attr('id') === $(selectedElement).attr('id')) {
        removeClass(selectedElement, false);
    } else {
        removeClass(selectedElement);
        addClass(newElement)
    }

    selectedElement = newElement;
}


$("#svg").ready(function () {

    $("g[id^=play_]").hover(hoverIn, hoverOut);
    $("g[id^=role_]").hover(hoverIn, hoverOut);

    $("g[id^=play_]").click(clickOnElement);
    $("g[id^=role_]").click(clickOnElement);

});
]]></script><style type="text/css" id="my_css"><![CDATA[.node:hover, .edge:hover, path:hover, path + polygon:hover {
    cursor: pointer;
    stroke-width: 3;
    font-weight: bolder;
}

.my_hover {
    cursor: pointer;
    stroke-width: 3;
    font-weight: bolder;
}
]]></style><g id="graph0" class="graph" transform="scale(1 1) rotate(0) translate(4 803.41)">
<title>./playbooks/submariner-subctl-verify.yml </title>
<polygon fill="white" stroke="transparent" points="-4,4 -4,-803.41 1915.12,-803.41 1915.12,4 -4,4"/>
<!-- ./playbooks/submariner&#45;subctl&#45;verify.yml -->
<g id="root_node" class="node">
<title>./playbooks/submariner-subctl-verify.yml</title>
<ellipse fill="none" stroke="black" stroke-dasharray="1,5" cx="198.88" cy="-399.72" rx="198.76" ry="18"/>
<text text-anchor="middle" x="198.88" y="-396.02" font-family="Times,serif" font-size="14.00">./playbooks/submariner-subctl-verify.yml</text>
</g>
<!-- Play #1: Main deployment playbook for integrating submariner (0) -->
<g id="play_2a464846-8d72-4cab-a3cf-938b12a4e78c" class="node">
<title>Play #1: Main deployment playbook for integrating submariner (0)</title>
<polygon fill="#c014a2" stroke="#c014a2" points="938.76,-417.72 443.76,-417.72 443.76,-381.72 938.76,-381.72 938.76,-417.72"/>
<text text-anchor="middle" x="691.26" y="-396.02" font-family="Times,serif" font-size="14.00" fill="#ffffff">Play #1: Main deployment playbook for integrating submariner (0)</text>
<links><link target="edge_d1d12b80-f79b-4214-9e71-d26e6d7b4e7f"/><link target="edge_94c7c439-6278-4b26-b476-e3b2ca9f1a02"/><link target="edge_0c834338-8170-4323-9324-77fa9579d727"/><link target="edge_3a5e2a28-c628-4233-90a2-6d7a0a583eba"/><link target="edge_e4be3827-6c88-4307-9e5b-0fa714ada05c"/><link target="edge_321131c8-5959-417e-8c39-a795d8ae7736"/><link target="edge_58b78199-679c-4b50-b202-cb9220e308a5"/><link target="edge_dcc01265-8511-4a1d-b6e9-d734bd0a166b"/><link target="edge_be00af37-62c6-48f5-9c20-d739c7fda25d"/><link target="edge_6c63616b-af2a-4e1e-883a-617283a440d6"/><link target="edge_c86d61a7-5aaf-4903-9468-36952ac31dab"/><link target="edge_e62d2ff2-f247-4678-8933-9cdaac603075"/><link target="edge_f8b43a93-a972-455a-a872-00b24d37d523"/><link target="edge_3dccb50c-492e-423c-a0c6-9a58a3a7d677"/><link target="edge_499652d2-e9a2-4872-a00e-b8d77b8c5ead"/></links></g>
<!-- ./playbooks/submariner&#45;subctl&#45;verify.yml&#45;&gt;Play #1: Main deployment playbook for integrating submariner (0) -->
<g id="edge_aab0baf7-09a7-4d7b-aae1-fb76b78a41eb" class="edge">
<title>./playbooks/submariner-subctl-verify.yml-&gt;Play #1: Main deployment playbook for integrating submariner (0)</title>
<path fill="none" stroke="#c014a2" stroke-width="2" d="M397.93,-399.72C409.66,-399.72 421.54,-399.72 433.46,-399.72"/>
<polygon fill="#c014a2" stroke="#c014a2" stroke-width="2" points="433.48,-403.22 443.48,-399.72 433.48,-396.22 433.48,-403.22"/>
<text text-anchor="middle" x="420.76" y="-403.52" font-family="Times,serif" font-size="14.00" fill="#c014a2">1</text>
</g>
<!-- pre_task_eadea579&#45;318a&#45;416d&#45;8d8c&#45;f78a56cc2431 -->
<g id="pre_task_eadea579-318a-416d-8d8c-f78a56cc2431" class="node">
<title>pre_task_eadea579-318a-416d-8d8c-f78a56cc2431</title>
<g id="a_pre_task_eadea579-318a-416d-8d8c-f78a56cc2431"><a xlink:title="[pre_task] Check if Ansible meets version requirements.">
<polygon fill="none" stroke="black" points="1746.56,-770.26 1746.56,-785.18 1574.27,-795.72 1330.61,-795.72 1158.32,-785.18 1158.32,-770.26 1330.61,-759.72 1574.27,-759.72 1746.56,-770.26"/>
<text text-anchor="middle" x="1452.44" y="-774.02" font-family="Times,serif" font-size="14.00">[pre_task] Check if Ansible meets version requirements.</text>
</a>
</g>
</g>
<!-- Play #1: Main deployment playbook for integrating submariner (0)&#45;&gt;pre_task_eadea579&#45;318a&#45;416d&#45;8d8c&#45;f78a56cc2431 -->
<g id="edge_d1d12b80-f79b-4214-9e71-d26e6d7b4e7f" class="edge">
<title>Play #1: Main deployment playbook for integrating submariner (0)-&gt;pre_task_eadea579-318a-416d-8d8c-f78a56cc2431</title>
<path fill="none" stroke="#c014a2" stroke-width="2" d="M701.08,-417.95C731.53,-478.59 839.01,-674.04 993.76,-750.72 1094.33,-800.55 1222.97,-803.68 1318.25,-796.43"/>
<polygon fill="#c014a2" stroke="#c014a2" stroke-width="2" points="1318.55,-799.92 1328.23,-795.63 1317.98,-792.94 1318.55,-799.92"/>
<text text-anchor="middle" x="966.26" y="-742.52" font-family="Times,serif" font-size="14.00" fill="#c014a2">1</text>
<links><link target="pre_task_eadea579-318a-416d-8d8c-f78a56cc2431"/></links></g>
<!-- task_bf30ac47&#45;50ec&#45;4a7b&#45;b330&#45;76fc29fa434f -->
<g id="task_bf30ac47-50ec-4a7b-b330-76fc29fa434f" class="node">
<title>task_bf30ac47-50ec-4a7b-b330-76fc29fa434f</title>
<g id="a_task_bf30ac47-50ec-4a7b-b330-76fc29fa434f"><a xlink:title="[task] ../../roles/kubeinit_prepare : Gather variables for each operating system">
<polygon fill="none" stroke="black" points="1856.05,-716.26 1856.05,-731.18 1619.62,-741.72 1285.26,-741.72 1048.83,-731.18 1048.83,-716.26 1285.26,-705.72 1619.62,-705.72 1856.05,-716.26"/>
<text text-anchor="middle" x="1452.44" y="-720.02" font-family="Times,serif" font-size="14.00">[task] ../../roles/kubeinit_prepare : Gather variables for each operating system</text>
</a>
</g>
</g>
<!-- Play #1: Main deployment playbook for integrating submariner (0)&#45;&gt;task_bf30ac47&#45;50ec&#45;4a7b&#45;b330&#45;76fc29fa434f -->
<g id="edge_94c7c439-6278-4b26-b476-e3b2ca9f1a02" class="edge">
<title>Play #1: Main deployment playbook for integrating submariner (0)-&gt;task_bf30ac47-50ec-4a7b-b330-76fc29fa434f</title>
<path fill="none" stroke="#c014a2" stroke-width="2" d="M703.56,-417.8C738.61,-472.05 851.77,-633.58 993.76,-696.72 1080.17,-735.14 1184.93,-743.72 1272.42,-741.87"/>
<polygon fill="#c014a2" stroke="#c014a2" stroke-width="2" points="1272.55,-745.37 1282.45,-741.62 1272.37,-738.37 1272.55,-745.37"/>
<text text-anchor="middle" x="966.26" y="-690.52" font-family="Times,serif" font-size="14.00" fill="#c014a2">2</text>
<links><link target="task_bf30ac47-50ec-4a7b-b330-76fc29fa434f"/></links></g>
<!-- task_310870ab&#45;70ac&#45;408e&#45;a817&#45;07535eddbb4b -->
<g id="task_310870ab-70ac-408e-a817-07535eddbb4b" class="node">
<title>task_310870ab-70ac-408e-a817-07535eddbb4b</title>
<g id="a_task_310870ab-70ac-408e-a817-07535eddbb4b"><a xlink:title="[task] ../../roles/kubeinit_prepare : add all nodes to the all_nodes group">
<polygon fill="none" stroke="black" points="1818.98,-662.26 1818.98,-677.18 1604.27,-687.72 1300.62,-687.72 1085.9,-677.18 1085.9,-662.26 1300.62,-651.72 1604.27,-651.72 1818.98,-662.26"/>
<text text-anchor="middle" x="1452.44" y="-666.02" font-family="Times,serif" font-size="14.00">[task] ../../roles/kubeinit_prepare : add all nodes to the all_nodes group</text>
</a>
</g>
</g>
<!-- Play #1: Main deployment playbook for integrating submariner (0)&#45;&gt;task_310870ab&#45;70ac&#45;408e&#45;a817&#45;07535eddbb4b -->
<g id="edge_0c834338-8170-4323-9324-77fa9579d727" class="edge">
<title>Play #1: Main deployment playbook for integrating submariner (0)-&gt;task_310870ab-70ac-408e-a817-07535eddbb4b</title>
<path fill="none" stroke="#c014a2" stroke-width="2" d="M707.2,-417.85C747.51,-465.26 864.27,-592.69 993.76,-642.72 1019.92,-652.82 1047.54,-660.66 1075.72,-666.66"/>
<polygon fill="#c014a2" stroke="#c014a2" stroke-width="2" points="1075.22,-670.12 1085.72,-668.7 1076.62,-663.27 1075.22,-670.12"/>
<text text-anchor="middle" x="966.26" y="-638.52" font-family="Times,serif" font-size="14.00" fill="#c014a2">3</text>
<links><link target="task_310870ab-70ac-408e-a817-07535eddbb4b"/></links></g>
<!-- task_c2b4116e&#45;d262&#45;44f3&#45;a7a4&#45;293ac8bd4b37 -->
<g id="task_c2b4116e-d262-44f3-a7a4-293ac8bd4b37" class="node">
<title>task_c2b4116e-d262-44f3-a7a4-293ac8bd4b37</title>
<g id="a_task_c2b4116e-d262-44f3-a7a4-293ac8bd4b37"><a xlink:title="[task] ../../roles/kubeinit_prepare : add all master nodes to the all_master_nodes group">
<polygon fill="none" stroke="black" points="1897.56,-608.26 1897.56,-623.18 1636.82,-633.72 1268.07,-633.72 1007.32,-623.18 1007.32,-608.26 1268.07,-597.72 1636.82,-597.72 1897.56,-608.26"/>
<text text-anchor="middle" x="1452.44" y="-612.02" font-family="Times,serif" font-size="14.00">[task] ../../roles/kubeinit_prepare : add all master nodes to the all_master_nodes group</text>
</a>
</g>
</g>
<!-- Play #1: Main deployment playbook for integrating submariner (0)&#45;&gt;task_c2b4116e&#45;d262&#45;44f3&#45;a7a4&#45;293ac8bd4b37 -->
<g id="edge_3a5e2a28-c628-4233-90a2-6d7a0a583eba" class="edge">
<title>Play #1: Main deployment playbook for integrating submariner (0)-&gt;task_c2b4116e-d262-44f3-a7a4-293ac8bd4b37</title>
<path fill="none" stroke="#c014a2" stroke-width="2" d="M712.69,-417.79C758.84,-457.37 876.37,-551.19 993.76,-588.72 1012.33,-594.66 1031.53,-599.7 1051.08,-603.98"/>
<polygon fill="#c014a2" stroke="#c014a2" stroke-width="2" points="1050.5,-607.43 1061.01,-606.08 1051.95,-600.58 1050.5,-607.43"/>
<text text-anchor="middle" x="966.26" y="-585.52" font-family="Times,serif" font-size="14.00" fill="#c014a2">4</text>
<links><link target="task_c2b4116e-d262-44f3-a7a4-293ac8bd4b37"/></links></g>
<!-- task_aac3b988&#45;ca6e&#45;447c&#45;9321&#45;5dd369ab1cff -->
<g id="task_aac3b988-ca6e-447c-9321-5dd369ab1cff" class="node">
<title>task_aac3b988-ca6e-447c-9321-5dd369ab1cff</title>
<g id="a_task_aac3b988-ca6e-447c-9321-5dd369ab1cff"><a xlink:title="[task] ../../roles/kubeinit_prepare : add all worker nodes to the all_worker_nodes group">
<polygon fill="none" stroke="black" points="1897.56,-554.26 1897.56,-569.18 1636.82,-579.72 1268.07,-579.72 1007.32,-569.18 1007.32,-554.26 1268.07,-543.72 1636.82,-543.72 1897.56,-554.26"/>
<text text-anchor="middle" x="1452.44" y="-558.02" font-family="Times,serif" font-size="14.00">[task] ../../roles/kubeinit_prepare : add all worker nodes to the all_worker_nodes group</text>
</a>
</g>
</g>
<!-- Play #1: Main deployment playbook for integrating submariner (0)&#45;&gt;task_aac3b988&#45;ca6e&#45;447c&#45;9321&#45;5dd369ab1cff -->
<g id="edge_e4be3827-6c88-4307-9e5b-0fa714ada05c" class="edge">
<title>Play #1: Main deployment playbook for integrating submariner (0)-&gt;task_aac3b988-ca6e-447c-9321-5dd369ab1cff</title>
<path fill="none" stroke="#c014a2" stroke-width="2" d="M722.61,-417.81C775.53,-448.3 889.03,-509.1 993.76,-534.72 1018.53,-540.78 1044.27,-545.75 1070.34,-549.8"/>
<polygon fill="#c014a2" stroke="#c014a2" stroke-width="2" points="1069.93,-553.28 1080.34,-551.31 1070.98,-546.35 1069.93,-553.28"/>
<text text-anchor="middle" x="966.26" y="-531.52" font-family="Times,serif" font-size="14.00" fill="#c014a2">5</text>
<links><link target="task_aac3b988-ca6e-447c-9321-5dd369ab1cff"/></links></g>
<!-- task_6c8eb94b&#45;93cd&#45;4e85&#45;9b72&#45;650d36231dac -->
<g id="task_6c8eb94b-93cd-4e85-9b72-650d36231dac" class="node">
<title>task_6c8eb94b-93cd-4e85-9b72-650d36231dac</title>
<g id="a_task_6c8eb94b-93cd-4e85-9b72-650d36231dac"><a xlink:title="[task] ../../roles/kubeinit_prepare : add all bootstrap nodes the all_bootstrap_nodes group">
<polygon fill="none" stroke="black" points="1911.3,-500.26 1911.3,-515.18 1642.51,-525.72 1262.38,-525.72 993.59,-515.18 993.59,-500.26 1262.38,-489.72 1642.51,-489.72 1911.3,-500.26"/>
<text text-anchor="middle" x="1452.44" y="-504.02" font-family="Times,serif" font-size="14.00">[task] ../../roles/kubeinit_prepare : add all bootstrap nodes the all_bootstrap_nodes group</text>
</a>
</g>
</g>
<!-- Play #1: Main deployment playbook for integrating submariner (0)&#45;&gt;task_6c8eb94b&#45;93cd&#45;4e85&#45;9b72&#45;650d36231dac -->
<g id="edge_321131c8-5959-417e-8c39-a795d8ae7736" class="edge">
<title>Play #1: Main deployment playbook for integrating submariner (0)-&gt;task_6c8eb94b-93cd-4e85-9b72-650d36231dac</title>
<path fill="none" stroke="#c014a2" stroke-width="2" d="M746.01,-417.72C805.76,-436.9 905.49,-466.41 993.76,-480.72 1028.96,-486.42 1065.84,-490.96 1102.75,-494.56"/>
<polygon fill="#c014a2" stroke="#c014a2" stroke-width="2" points="1102.88,-498.09 1113.16,-495.55 1103.54,-491.12 1102.88,-498.09"/>
<text text-anchor="middle" x="966.26" y="-479.52" font-family="Times,serif" font-size="14.00" fill="#c014a2">6</text>
<links><link target="task_6c8eb94b-93cd-4e85-9b72-650d36231dac"/></links></g>
<!-- task_eb9f191a&#45;74b8&#45;4067&#45;a333&#45;717d2376069d -->
<g id="task_eb9f191a-74b8-4067-a333-717d2376069d" class="node">
<title>task_eb9f191a-74b8-4067-a333-717d2376069d</title>
<g id="a_task_eb9f191a-74b8-4067-a333-717d2376069d"><a xlink:title="[task] ../../roles/kubeinit_prepare : add all service nodes to the all_service_nodes group">
<polygon fill="none" stroke="black" points="1899.38,-446.26 1899.38,-461.18 1637.57,-471.72 1267.32,-471.72 1005.51,-461.18 1005.51,-446.26 1267.32,-435.72 1637.57,-435.72 1899.38,-446.26"/>
<text text-anchor="middle" x="1452.44" y="-450.02" font-family="Times,serif" font-size="14.00">[task] ../../roles/kubeinit_prepare : add all service nodes to the all_service_nodes group</text>
</a>
</g>
</g>
<!-- Play #1: Main deployment playbook for integrating submariner (0)&#45;&gt;task_eb9f191a&#45;74b8&#45;4067&#45;a333&#45;717d2376069d -->
<g id="edge_58b78199-679c-4b50-b202-cb9220e308a5" class="edge">
<title>Play #1: Main deployment playbook for integrating submariner (0)-&gt;task_eb9f191a-74b8-4067-a333-717d2376069d</title>
<path fill="none" stroke="#c014a2" stroke-width="2" d="M883.59,-417.74C920.15,-420.93 958.13,-424.07 993.76,-426.72 1051.17,-430.98 1112.66,-434.99 1171.35,-438.55"/>
<polygon fill="#c014a2" stroke="#c014a2" stroke-width="2" points="1171.32,-442.05 1181.51,-439.16 1171.74,-435.07 1171.32,-442.05"/>
<text text-anchor="middle" x="966.26" y="-428.52" font-family="Times,serif" font-size="14.00" fill="#c014a2">7</text>
<links><link target="task_eb9f191a-74b8-4067-a333-717d2376069d"/></links></g>
<!-- task_92d842fd&#45;e703&#45;40cb&#45;8a8f&#45;b3c5a2b8ac8e -->
<g id="task_92d842fd-e703-40cb-8a8f-b3c5a2b8ac8e" class="node">
<title>task_92d842fd-e703-40cb-8a8f-b3c5a2b8ac8e</title>
<g id="a_task_92d842fd-e703-40cb-8a8f-b3c5a2b8ac8e"><a xlink:title="[task] ../../roles/kubeinit_prepare : add all hosts to the all_hosts group">
<polygon fill="none" stroke="black" points="1814.13,-392.26 1814.13,-407.18 1602.26,-417.72 1302.62,-417.72 1090.75,-407.18 1090.75,-392.26 1302.62,-381.72 1602.26,-381.72 1814.13,-392.26"/>
<text text-anchor="middle" x="1452.44" y="-396.02" font-family="Times,serif" font-size="14.00">[task] ../../roles/kubeinit_prepare : add all hosts to the all_hosts group</text>
</a>
</g>
</g>
<!-- Play #1: Main deployment playbook for integrating submariner (0)&#45;&gt;task_92d842fd&#45;e703&#45;40cb&#45;8a8f&#45;b3c5a2b8ac8e -->
<g id="edge_dcc01265-8511-4a1d-b6e9-d734bd0a166b" class="edge">
<title>Play #1: Main deployment playbook for integrating submariner (0)-&gt;task_92d842fd-e703-40cb-8a8f-b3c5a2b8ac8e</title>
<path fill="none" stroke="#c014a2" stroke-width="2" d="M939.01,-399.72C984.27,-399.72 1032.42,-399.72 1080.39,-399.72"/>
<polygon fill="#c014a2" stroke="#c014a2" stroke-width="2" points="1080.62,-403.22 1090.62,-399.72 1080.62,-396.22 1080.62,-403.22"/>
<text text-anchor="middle" x="966.26" y="-403.52" font-family="Times,serif" font-size="14.00" fill="#c014a2">8</text>
<links><link target="task_92d842fd-e703-40cb-8a8f-b3c5a2b8ac8e"/></links></g>
<!-- task_87f4f063&#45;2417&#45;4d01&#45;ba02&#45;48e0fa3fced9 -->
<g id="task_87f4f063-2417-4d01-ba02-48e0fa3fced9" class="node">
<title>task_87f4f063-2417-4d01-ba02-48e0fa3fced9</title>
<g id="a_task_87f4f063-2417-4d01-ba02-48e0fa3fced9"><a xlink:title="[task] ../../roles/kubeinit_prepare : list all_hosts">
<polygon fill="none" stroke="black" points="1700.61,-338.26 1700.61,-353.18 1555.24,-363.72 1349.65,-363.72 1204.28,-353.18 1204.28,-338.26 1349.65,-327.72 1555.24,-327.72 1700.61,-338.26"/>
<text text-anchor="middle" x="1452.44" y="-342.02" font-family="Times,serif" font-size="14.00">[task] ../../roles/kubeinit_prepare : list all_hosts</text>
</a>
</g>
</g>
<!-- Play #1: Main deployment playbook for integrating submariner (0)&#45;&gt;task_87f4f063&#45;2417&#45;4d01&#45;ba02&#45;48e0fa3fced9 -->
<g id="edge_be00af37-62c6-48f5-9c20-d739c7fda25d" class="edge">
<title>Play #1: Main deployment playbook for integrating submariner (0)-&gt;task_87f4f063-2417-4d01-ba02-48e0fa3fced9</title>
<path fill="none" stroke="#c014a2" stroke-width="2" d="M883.59,-381.71C920.15,-378.51 958.13,-375.37 993.76,-372.72 1073.43,-366.8 1160.98,-361.38 1237.99,-356.96"/>
<polygon fill="#c014a2" stroke="#c014a2" stroke-width="2" points="1238.51,-360.44 1248.3,-356.38 1238.11,-353.45 1238.51,-360.44"/>
<text text-anchor="middle" x="966.26" y="-378.52" font-family="Times,serif" font-size="14.00" fill="#c014a2">9</text>
<links><link target="task_87f4f063-2417-4d01-ba02-48e0fa3fced9"/></links></g>
<!-- task_14d10635&#45;17ed&#45;433d&#45;8877&#45;176b485eca58 -->
<g id="task_14d10635-17ed-433d-8877-176b485eca58" class="node">
<title>task_14d10635-17ed-433d-8877-176b485eca58</title>
<g id="a_task_14d10635-17ed-433d-8877-176b485eca58"><a xlink:title="[task] ../../roles/kubeinit_prepare : list all_nodes">
<polygon fill="none" stroke="black" points="1702.83,-284.26 1702.83,-299.18 1556.16,-309.72 1348.73,-309.72 1202.06,-299.18 1202.06,-284.26 1348.73,-273.72 1556.16,-273.72 1702.83,-284.26"/>
<text text-anchor="middle" x="1452.44" y="-288.02" font-family="Times,serif" font-size="14.00">[task] ../../roles/kubeinit_prepare : list all_nodes</text>
</a>
</g>
</g>
<!-- Play #1: Main deployment playbook for integrating submariner (0)&#45;&gt;task_14d10635&#45;17ed&#45;433d&#45;8877&#45;176b485eca58 -->
<g id="edge_6c63616b-af2a-4e1e-883a-617283a440d6" class="edge">
<title>Play #1: Main deployment playbook for integrating submariner (0)-&gt;task_14d10635-17ed-433d-8877-176b485eca58</title>
<path fill="none" stroke="#c014a2" stroke-width="2" d="M746.01,-381.72C805.76,-362.54 905.49,-333.03 993.76,-318.72 1057.44,-308.4 1126.66,-301.91 1191.54,-297.85"/>
<polygon fill="#c014a2" stroke="#c014a2" stroke-width="2" points="1192.15,-301.32 1201.92,-297.22 1191.72,-294.34 1192.15,-301.32"/>
<text text-anchor="middle" x="966.26" y="-327.52" font-family="Times,serif" font-size="14.00" fill="#c014a2">10</text>
<links><link target="task_14d10635-17ed-433d-8877-176b485eca58"/></links></g>
<!-- task_8b7403a5&#45;a20a&#45;4f8e&#45;99ff&#45;ba985105b22e -->
<g id="task_8b7403a5-a20a-4f8e-99ff-ba985105b22e" class="node">
<title>task_8b7403a5-a20a-4f8e-99ff-ba985105b22e</title>
<g id="a_task_8b7403a5-a20a-4f8e-99ff-ba985105b22e"><a xlink:title="[task] ../../roles/kubeinit_prepare : list all_master_nodes">
<polygon fill="none" stroke="black" points="1743.03,-230.26 1743.03,-245.18 1572.81,-255.72 1332.08,-255.72 1161.86,-245.18 1161.86,-230.26 1332.08,-219.72 1572.81,-219.72 1743.03,-230.26"/>
<text text-anchor="middle" x="1452.44" y="-234.02" font-family="Times,serif" font-size="14.00">[task] ../../roles/kubeinit_prepare : list all_master_nodes</text>
</a>
</g>
</g>
<!-- Play #1: Main deployment playbook for integrating submariner (0)&#45;&gt;task_8b7403a5&#45;a20a&#45;4f8e&#45;99ff&#45;ba985105b22e -->
<g id="edge_c86d61a7-5aaf-4903-9468-36952ac31dab" class="edge">
<title>Play #1: Main deployment playbook for integrating submariner (0)-&gt;task_8b7403a5-a20a-4f8e-99ff-ba985105b22e</title>
<path fill="none" stroke="#c014a2" stroke-width="2" d="M722.61,-381.63C775.53,-351.14 889.03,-290.35 993.76,-264.72 1044.15,-252.39 1098.55,-244.59 1151.65,-239.81"/>
<polygon fill="#c014a2" stroke="#c014a2" stroke-width="2" points="1152.24,-243.27 1161.9,-238.92 1151.63,-236.3 1152.24,-243.27"/>
<text text-anchor="middle" x="966.26" y="-277.52" font-family="Times,serif" font-size="14.00" fill="#c014a2">11</text>
<links><link target="task_8b7403a5-a20a-4f8e-99ff-ba985105b22e"/></links></g>
<!-- task_9e25557f&#45;646f&#45;4c6f&#45;b529&#45;a38f61ad938f -->
<g id="task_9e25557f-646f-4c6f-b529-a38f61ad938f" class="node">
<title>task_9e25557f-646f-4c6f-b529-a38f61ad938f</title>
<g id="a_task_9e25557f-646f-4c6f-b529-a38f61ad938f"><a xlink:title="[task] ../../roles/kubeinit_prepare : list all_worker_nodes">
<polygon fill="none" stroke="black" points="1743.03,-176.26 1743.03,-191.18 1572.81,-201.72 1332.08,-201.72 1161.86,-191.18 1161.86,-176.26 1332.08,-165.72 1572.81,-165.72 1743.03,-176.26"/>
<text text-anchor="middle" x="1452.44" y="-180.02" font-family="Times,serif" font-size="14.00">[task] ../../roles/kubeinit_prepare : list all_worker_nodes</text>
</a>
</g>
</g>
<!-- Play #1: Main deployment playbook for integrating submariner (0)&#45;&gt;task_9e25557f&#45;646f&#45;4c6f&#45;b529&#45;a38f61ad938f -->
<g id="edge_e62d2ff2-f247-4678-8933-9cdaac603075" class="edge">
<title>Play #1: Main deployment playbook for integrating submariner (0)-&gt;task_9e25557f-646f-4c6f-b529-a38f61ad938f</title>
<path fill="none" stroke="#c014a2" stroke-width="2" d="M712.69,-381.65C758.84,-342.07 876.37,-248.25 993.76,-210.72 1043.73,-194.75 1098.29,-185.21 1151.78,-179.85"/>
<polygon fill="#c014a2" stroke="#c014a2" stroke-width="2" points="1152.14,-183.33 1161.76,-178.9 1151.47,-176.36 1152.14,-183.33"/>
<text text-anchor="middle" x="966.26" y="-227.52" font-family="Times,serif" font-size="14.00" fill="#c014a2">12</text>
<links><link target="task_9e25557f-646f-4c6f-b529-a38f61ad938f"/></links></g>
<!-- task_2f48d2d0&#45;8ea8&#45;42d8&#45;a919&#45;6b820c50f6c9 -->
<g id="task_2f48d2d0-8ea8-42d8-a919-6b820c50f6c9" class="node">
<title>task_2f48d2d0-8ea8-42d8-a919-6b820c50f6c9</title>
<g id="a_task_2f48d2d0-8ea8-42d8-a919-6b820c50f6c9"><a xlink:title="[task] ../../roles/kubeinit_prepare : list all_service_nodes">
<polygon fill="none" stroke="black" points="1743.93,-122.26 1743.93,-137.18 1573.18,-147.72 1331.7,-147.72 1160.95,-137.18 1160.95,-122.26 1331.7,-111.72 1573.18,-111.72 1743.93,-122.26"/>
<text text-anchor="middle" x="1452.44" y="-126.02" font-family="Times,serif" font-size="14.00">[task] ../../roles/kubeinit_prepare : list all_service_nodes</text>
</a>
</g>
</g>
<!-- Play #1: Main deployment playbook for integrating submariner (0)&#45;&gt;task_2f48d2d0&#45;8ea8&#45;42d8&#45;a919&#45;6b820c50f6c9 -->
<g id="edge_f8b43a93-a972-455a-a872-00b24d37d523" class="edge">
<title>Play #1: Main deployment playbook for integrating submariner (0)-&gt;task_2f48d2d0-8ea8-42d8-a919-6b820c50f6c9</title>
<path fill="none" stroke="#c014a2" stroke-width="2" d="M707.2,-381.59C747.51,-334.18 864.27,-206.75 993.76,-156.72 1078.49,-123.99 1178.61,-115.07 1263.58,-115.25"/>
<polygon fill="#c014a2" stroke="#c014a2" stroke-width="2" points="1263.57,-118.75 1273.6,-115.31 1263.62,-111.75 1263.57,-118.75"/>
<text text-anchor="middle" x="966.26" y="-172.52" font-family="Times,serif" font-size="14.00" fill="#c014a2">13</text>
<links><link target="task_2f48d2d0-8ea8-42d8-a919-6b820c50f6c9"/></links></g>
<!-- task_a453081d&#45;35ca&#45;407c&#45;849f&#45;c69e738e4dc2 -->
<g id="task_a453081d-35ca-407c-849f-c69e738e4dc2" class="node">
<title>task_a453081d-35ca-407c-849f-c69e738e4dc2</title>
<g id="a_task_a453081d-35ca-407c-849f-c69e738e4dc2"><a xlink:title="[task] ../../roles/kubeinit_prepare : list all_bootstrap_nodes">
<polygon fill="none" stroke="black" points="1756.26,-68.26 1756.26,-83.18 1578.29,-93.72 1326.6,-93.72 1148.62,-83.18 1148.62,-68.26 1326.6,-57.72 1578.29,-57.72 1756.26,-68.26"/>
<text text-anchor="middle" x="1452.44" y="-72.02" font-family="Times,serif" font-size="14.00">[task] ../../roles/kubeinit_prepare : list all_bootstrap_nodes</text>
</a>
</g>
</g>
<!-- Play #1: Main deployment playbook for integrating submariner (0)&#45;&gt;task_a453081d&#45;35ca&#45;407c&#45;849f&#45;c69e738e4dc2 -->
<g id="edge_3dccb50c-492e-423c-a0c6-9a58a3a7d677" class="edge">
<title>Play #1: Main deployment playbook for integrating submariner (0)-&gt;task_a453081d-35ca-407c-849f-c69e738e4dc2</title>
<path fill="none" stroke="#c014a2" stroke-width="2" d="M703.56,-381.64C738.61,-327.39 851.77,-165.86 993.76,-102.72 1088.4,-60.64 1205.08,-54.36 1296.94,-58.36"/>
<polygon fill="#c014a2" stroke="#c014a2" stroke-width="2" points="1297,-61.87 1307.16,-58.85 1297.34,-54.88 1297,-61.87"/>
<text text-anchor="middle" x="966.26" y="-121.52" font-family="Times,serif" font-size="14.00" fill="#c014a2">14</text>
<links><link target="task_a453081d-35ca-407c-849f-c69e738e4dc2"/></links></g>
<!-- task_16020c5a&#45;ff21&#45;4720&#45;9762&#45;9b8cdb9dc49a -->
<g id="task_16020c5a-ff21-4720-9762-9b8cdb9dc49a" class="node">
<title>task_16020c5a-ff21-4720-9762-9b8cdb9dc49a</title>
<g id="a_task_16020c5a-ff21-4720-9762-9b8cdb9dc49a"><a xlink:title="[task] ../../roles/kubeinit_submariner : Execute subctl verify">
<polygon fill="none" stroke="black" points="1762.92,-14.26 1762.92,-29.18 1581.05,-39.72 1323.84,-39.72 1141.96,-29.18 1141.96,-14.26 1323.84,-3.72 1581.05,-3.72 1762.92,-14.26"/>
<text text-anchor="middle" x="1452.44" y="-18.02" font-family="Times,serif" font-size="14.00">[task] ../../roles/kubeinit_submariner : Execute subctl verify</text>
</a>
</g>
</g>
<!-- Play #1: Main deployment playbook for integrating submariner (0)&#45;&gt;task_16020c5a&#45;ff21&#45;4720&#45;9762&#45;9b8cdb9dc49a -->
<g id="edge_499652d2-e9a2-4872-a00e-b8d77b8c5ead" class="edge">
<title>Play #1: Main deployment playbook for integrating submariner (0)-&gt;task_16020c5a-ff21-4720-9762-9b8cdb9dc49a</title>
<path fill="none" stroke="#c014a2" stroke-width="2" d="M701.08,-381.5C731.53,-320.86 839.01,-125.4 993.76,-48.72 1093.82,0.85 1221.65,4.2 1316.77,-2.9"/>
<polygon fill="#c014a2" stroke="#c014a2" stroke-width="2" points="1316.5,-6.39 1326.75,-3.69 1317.06,0.59 1316.5,-6.39"/>
<text text-anchor="middle" x="966.26" y="-70.52" font-family="Times,serif" font-size="14.00" fill="#c014a2">15</text>
<links><link target="task_16020c5a-ff21-4720-9762-9b8cdb9dc49a"/></links></g>
</g>
</svg>