<?xml version='1.0' encoding='UTF-8'?>
<!DOCTYPE svg PUBLIC "-//W3C//DTD SVG 1.1//EN" "http://www.w3.org/Graphics/SVG/1.1/DTD/svg11.dtd">
<!-- Generated by graphviz version 2.43.0 (0)
 --><!-- Title: ./playbooks/submariner&#45;subctl&#45;verify.yml  Pages: 1 --><svg xmlns="http://www.w3.org/2000/svg" xmlns:xlink="http://www.w3.org/1999/xlink" width="1919pt" height="807pt" viewBox="0.00 0.00 1919.12 807.41" id="svg">
<script type="text/javascript" href="https://ajax.googleapis.com/ajax/libs/jquery/3.2.1/jquery.min.js" id="jquery"/><script type="text/javascript" id="my_javascript"><![CDATA[const HOVER_CLASS = "my_hover";

var selectedElement = null;

function addClass(rootElement) {
    $(rootElement).find('link').each(function (index, element) {
        var target = $(element).attr('target');
        var currentElement = $('#' + target);
        currentElement.addClass(HOVER_CLASS);

        addClass(currentElement);
    })
}

function removeClass(rootElement, hover) {
    $(rootElement).find('link').each(function (index, element) {
        if ($(rootElement).attr('id') !== $(selectedElement).attr('id') || !hover) {
            var target = $(element).attr('target');
            var currentElement = $('#' + target);
            currentElement.removeClass(HOVER_CLASS);

            removeClass(currentElement);
        }

    })
}

function hoverIn(event) {
    addClass(event.currentTarget);
}

function hoverOut(event) {
    removeClass(event.currentTarget, true);
}

function clickOnElement(event) {
    var newElement = event.currentTarget;

    if ($(newElement).attr('id') === $(selectedElement).attr('id')) {
        removeClass(selectedElement, false);
    } else {
        removeClass(selectedElement);
        addClass(newElement)
    }

    selectedElement = newElement;
}


$("#svg").ready(function () {

    $("g[id^=play_]").hover(hoverIn, hoverOut);
    $("g[id^=role_]").hover(hoverIn, hoverOut);

    $("g[id^=play_]").click(clickOnElement);
    $("g[id^=role_]").click(clickOnElement);

});
]]></script><style type="text/css" id="my_css"><![CDATA[.node:hover, .edge:hover, path:hover, path + polygon:hover {
    cursor: pointer;
    stroke-width: 3;
    font-weight: bolder;
}

.my_hover {
    cursor: pointer;
    stroke-width: 3;
    font-weight: bolder;
}
]]></style><g id="graph0" class="graph" transform="scale(1 1) rotate(0) translate(4 803.41)">
<title>./playbooks/submariner-subctl-verify.yml </title>
<polygon fill="white" stroke="transparent" points="-4,4 -4,-803.41 1915.12,-803.41 1915.12,4 -4,4"/>
<!-- ./playbooks/submariner&#45;subctl&#45;verify.yml -->
<g id="root_node" class="node">
<title>./playbooks/submariner-subctl-verify.yml</title>
<ellipse fill="none" stroke="black" stroke-dasharray="1,5" cx="198.88" cy="-399.72" rx="198.76" ry="18"/>
<text text-anchor="middle" x="198.88" y="-396.02" font-family="Times,serif" font-size="14.00">./playbooks/submariner-subctl-verify.yml</text>
</g>
<!-- Play #1: Main deployment playbook for integrating submariner (0) -->
<g id="play_597d9ee9-a494-4882-81f7-d9d3e71bf0ed" class="node">
<title>Play #1: Main deployment playbook for integrating submariner (0)</title>
<polygon fill="#59c41c" stroke="#59c41c" points="938.76,-417.72 443.76,-417.72 443.76,-381.72 938.76,-381.72 938.76,-417.72"/>
<text text-anchor="middle" x="691.26" y="-396.02" font-family="Times,serif" font-size="14.00" fill="#ffffff">Play #1: Main deployment playbook for integrating submariner (0)</text>
<links><link target="edge_9f059c47-a905-47c0-b386-a02a790b0341"/><link target="edge_72c34e63-348a-467e-ab50-a552d08bca26"/><link target="edge_0ef13952-498b-48be-82e6-098f9518d0c5"/><link target="edge_859a93e7-1aa4-487c-a1bb-ac4ac534b4d1"/><link target="edge_0817d160-a7f1-4f4b-8ec5-9adb3bea7b4d"/><link target="edge_e78dacba-b229-4d4a-b26e-3227de0215d4"/><link target="edge_101fb02b-f1f5-4fed-a9d0-75edbbd42368"/><link target="edge_29c1d655-658c-4f65-8836-9bb7404c3c5a"/><link target="edge_d7a61d97-953d-4d4a-bd49-31ea30cfc959"/><link target="edge_958ae0d9-3f39-4e30-9493-cb2dedd281fb"/><link target="edge_0ff579a8-e856-442d-b5ec-ba5e166e5ce1"/><link target="edge_7429787d-557a-41b5-823a-815280c21872"/><link target="edge_6b4640cd-d908-4156-84aa-4928158d9671"/><link target="edge_76087924-74c6-40af-b659-94c365fda47e"/><link target="edge_99862b60-2faf-499f-bcc1-a1b477257294"/></links></g>
<!-- ./playbooks/submariner&#45;subctl&#45;verify.yml&#45;&gt;Play #1: Main deployment playbook for integrating submariner (0) -->
<g id="edge_1d2a303e-4a43-429e-b508-b5f9c2ac3714" class="edge">
<title>./playbooks/submariner-subctl-verify.yml-&gt;Play #1: Main deployment playbook for integrating submariner (0)</title>
<path fill="none" stroke="#59c41c" stroke-width="2" d="M397.93,-399.72C409.66,-399.72 421.54,-399.72 433.46,-399.72"/>
<polygon fill="#59c41c" stroke="#59c41c" stroke-width="2" points="433.48,-403.22 443.48,-399.72 433.48,-396.22 433.48,-403.22"/>
<text text-anchor="middle" x="420.76" y="-403.52" font-family="Times,serif" font-size="14.00" fill="#59c41c">1</text>
</g>
<!-- pre_task_8435557c&#45;2220&#45;4699&#45;942e&#45;92509f685ab8 -->
<g id="pre_task_8435557c-2220-4699-942e-92509f685ab8" class="node">
<title>pre_task_8435557c-2220-4699-942e-92509f685ab8</title>
<g id="a_pre_task_8435557c-2220-4699-942e-92509f685ab8"><a xlink:title="[pre_task] Check if Ansible meets version requirements.">
<polygon fill="none" stroke="black" points="1746.56,-770.26 1746.56,-785.18 1574.27,-795.72 1330.61,-795.72 1158.32,-785.18 1158.32,-770.26 1330.61,-759.72 1574.27,-759.72 1746.56,-770.26"/>
<text text-anchor="middle" x="1452.44" y="-774.02" font-family="Times,serif" font-size="14.00">[pre_task] Check if Ansible meets version requirements.</text>
</a>
</g>
</g>
<!-- Play #1: Main deployment playbook for integrating submariner (0)&#45;&gt;pre_task_8435557c&#45;2220&#45;4699&#45;942e&#45;92509f685ab8 -->
<g id="edge_9f059c47-a905-47c0-b386-a02a790b0341" class="edge">
<title>Play #1: Main deployment playbook for integrating submariner (0)-&gt;pre_task_8435557c-2220-4699-942e-92509f685ab8</title>
<path fill="none" stroke="#59c41c" stroke-width="2" d="M701.08,-417.95C731.53,-478.59 839.01,-674.04 993.76,-750.72 1094.33,-800.55 1222.97,-803.68 1318.25,-796.43"/>
<polygon fill="#59c41c" stroke="#59c41c" stroke-width="2" points="1318.55,-799.92 1328.23,-795.63 1317.98,-792.94 1318.55,-799.92"/>
<text text-anchor="middle" x="966.26" y="-742.52" font-family="Times,serif" font-size="14.00" fill="#59c41c">1</text>
<links><link target="pre_task_8435557c-2220-4699-942e-92509f685ab8"/></links></g>
<!-- task_3699ebb2&#45;7c8c&#45;461b&#45;84a4&#45;0571c82cd306 -->
<g id="task_3699ebb2-7c8c-461b-84a4-0571c82cd306" class="node">
<title>task_3699ebb2-7c8c-461b-84a4-0571c82cd306</title>
<g id="a_task_3699ebb2-7c8c-461b-84a4-0571c82cd306"><a xlink:title="[task] ../../roles/kubeinit_prepare : Gather variables for each operating system">
<polygon fill="none" stroke="black" points="1856.05,-716.26 1856.05,-731.18 1619.62,-741.72 1285.26,-741.72 1048.83,-731.18 1048.83,-716.26 1285.26,-705.72 1619.62,-705.72 1856.05,-716.26"/>
<text text-anchor="middle" x="1452.44" y="-720.02" font-family="Times,serif" font-size="14.00">[task] ../../roles/kubeinit_prepare : Gather variables for each operating system</text>
</a>
</g>
</g>
<!-- Play #1: Main deployment playbook for integrating submariner (0)&#45;&gt;task_3699ebb2&#45;7c8c&#45;461b&#45;84a4&#45;0571c82cd306 -->
<g id="edge_72c34e63-348a-467e-ab50-a552d08bca26" class="edge">
<title>Play #1: Main deployment playbook for integrating submariner (0)-&gt;task_3699ebb2-7c8c-461b-84a4-0571c82cd306</title>
<path fill="none" stroke="#59c41c" stroke-width="2" d="M703.56,-417.8C738.61,-472.05 851.77,-633.58 993.76,-696.72 1080.17,-735.14 1184.93,-743.72 1272.42,-741.87"/>
<polygon fill="#59c41c" stroke="#59c41c" stroke-width="2" points="1272.55,-745.37 1282.45,-741.62 1272.37,-738.37 1272.55,-745.37"/>
<text text-anchor="middle" x="966.26" y="-690.52" font-family="Times,serif" font-size="14.00" fill="#59c41c">2</text>
<links><link target="task_3699ebb2-7c8c-461b-84a4-0571c82cd306"/></links></g>
<!-- task_c4ef864d&#45;ada4&#45;4c74&#45;9f10&#45;9f619fac885e -->
<g id="task_c4ef864d-ada4-4c74-9f10-9f619fac885e" class="node">
<title>task_c4ef864d-ada4-4c74-9f10-9f619fac885e</title>
<g id="a_task_c4ef864d-ada4-4c74-9f10-9f619fac885e"><a xlink:title="[task] ../../roles/kubeinit_prepare : add all nodes to the all_nodes group">
<polygon fill="none" stroke="black" points="1818.98,-662.26 1818.98,-677.18 1604.27,-687.72 1300.62,-687.72 1085.9,-677.18 1085.9,-662.26 1300.62,-651.72 1604.27,-651.72 1818.98,-662.26"/>
<text text-anchor="middle" x="1452.44" y="-666.02" font-family="Times,serif" font-size="14.00">[task] ../../roles/kubeinit_prepare : add all nodes to the all_nodes group</text>
</a>
</g>
</g>
<!-- Play #1: Main deployment playbook for integrating submariner (0)&#45;&gt;task_c4ef864d&#45;ada4&#45;4c74&#45;9f10&#45;9f619fac885e -->
<g id="edge_0ef13952-498b-48be-82e6-098f9518d0c5" class="edge">
<title>Play #1: Main deployment playbook for integrating submariner (0)-&gt;task_c4ef864d-ada4-4c74-9f10-9f619fac885e</title>
<path fill="none" stroke="#59c41c" stroke-width="2" d="M707.2,-417.85C747.51,-465.26 864.27,-592.69 993.76,-642.72 1019.92,-652.82 1047.54,-660.66 1075.72,-666.66"/>
<polygon fill="#59c41c" stroke="#59c41c" stroke-width="2" points="1075.22,-670.12 1085.72,-668.7 1076.62,-663.27 1075.22,-670.12"/>
<text text-anchor="middle" x="966.26" y="-638.52" font-family="Times,serif" font-size="14.00" fill="#59c41c">3</text>
<links><link target="task_c4ef864d-ada4-4c74-9f10-9f619fac885e"/></links></g>
<!-- task_584d75c0&#45;636e&#45;459c&#45;a38b&#45;d8f8397c18eb -->
<g id="task_584d75c0-636e-459c-a38b-d8f8397c18eb" class="node">
<title>task_584d75c0-636e-459c-a38b-d8f8397c18eb</title>
<g id="a_task_584d75c0-636e-459c-a38b-d8f8397c18eb"><a xlink:title="[task] ../../roles/kubeinit_prepare : add all master nodes to the all_master_nodes group">
<polygon fill="none" stroke="black" points="1897.56,-608.26 1897.56,-623.18 1636.82,-633.72 1268.07,-633.72 1007.32,-623.18 1007.32,-608.26 1268.07,-597.72 1636.82,-597.72 1897.56,-608.26"/>
<text text-anchor="middle" x="1452.44" y="-612.02" font-family="Times,serif" font-size="14.00">[task] ../../roles/kubeinit_prepare : add all master nodes to the all_master_nodes group</text>
</a>
</g>
</g>
<!-- Play #1: Main deployment playbook for integrating submariner (0)&#45;&gt;task_584d75c0&#45;636e&#45;459c&#45;a38b&#45;d8f8397c18eb -->
<g id="edge_859a93e7-1aa4-487c-a1bb-ac4ac534b4d1" class="edge">
<title>Play #1: Main deployment playbook for integrating submariner (0)-&gt;task_584d75c0-636e-459c-a38b-d8f8397c18eb</title>
<path fill="none" stroke="#59c41c" stroke-width="2" d="M712.69,-417.79C758.84,-457.37 876.37,-551.19 993.76,-588.72 1012.33,-594.66 1031.53,-599.7 1051.08,-603.98"/>
<polygon fill="#59c41c" stroke="#59c41c" stroke-width="2" points="1050.5,-607.43 1061.01,-606.08 1051.95,-600.58 1050.5,-607.43"/>
<text text-anchor="middle" x="966.26" y="-585.52" font-family="Times,serif" font-size="14.00" fill="#59c41c">4</text>
<links><link target="task_584d75c0-636e-459c-a38b-d8f8397c18eb"/></links></g>
<!-- task_391945d5&#45;822a&#45;412c&#45;8cf1&#45;f1661800cc66 -->
<g id="task_391945d5-822a-412c-8cf1-f1661800cc66" class="node">
<title>task_391945d5-822a-412c-8cf1-f1661800cc66</title>
<g id="a_task_391945d5-822a-412c-8cf1-f1661800cc66"><a xlink:title="[task] ../../roles/kubeinit_prepare : add all worker nodes to the all_worker_nodes group">
<polygon fill="none" stroke="black" points="1897.56,-554.26 1897.56,-569.18 1636.82,-579.72 1268.07,-579.72 1007.32,-569.18 1007.32,-554.26 1268.07,-543.72 1636.82,-543.72 1897.56,-554.26"/>
<text text-anchor="middle" x="1452.44" y="-558.02" font-family="Times,serif" font-size="14.00">[task] ../../roles/kubeinit_prepare : add all worker nodes to the all_worker_nodes group</text>
</a>
</g>
</g>
<!-- Play #1: Main deployment playbook for integrating submariner (0)&#45;&gt;task_391945d5&#45;822a&#45;412c&#45;8cf1&#45;f1661800cc66 -->
<g id="edge_0817d160-a7f1-4f4b-8ec5-9adb3bea7b4d" class="edge">
<title>Play #1: Main deployment playbook for integrating submariner (0)-&gt;task_391945d5-822a-412c-8cf1-f1661800cc66</title>
<path fill="none" stroke="#59c41c" stroke-width="2" d="M722.61,-417.81C775.53,-448.3 889.03,-509.1 993.76,-534.72 1018.53,-540.78 1044.27,-545.75 1070.34,-549.8"/>
<polygon fill="#59c41c" stroke="#59c41c" stroke-width="2" points="1069.93,-553.28 1080.34,-551.31 1070.98,-546.35 1069.93,-553.28"/>
<text text-anchor="middle" x="966.26" y="-531.52" font-family="Times,serif" font-size="14.00" fill="#59c41c">5</text>
<links><link target="task_391945d5-822a-412c-8cf1-f1661800cc66"/></links></g>
<!-- task_0ea9d3d5&#45;8800&#45;42c6&#45;ab5b&#45;36f77ed88ba8 -->
<g id="task_0ea9d3d5-8800-42c6-ab5b-36f77ed88ba8" class="node">
<title>task_0ea9d3d5-8800-42c6-ab5b-36f77ed88ba8</title>
<g id="a_task_0ea9d3d5-8800-42c6-ab5b-36f77ed88ba8"><a xlink:title="[task] ../../roles/kubeinit_prepare : add all bootstrap nodes the all_bootstrap_nodes group">
<polygon fill="none" stroke="black" points="1911.3,-500.26 1911.3,-515.18 1642.51,-525.72 1262.38,-525.72 993.59,-515.18 993.59,-500.26 1262.38,-489.72 1642.51,-489.72 1911.3,-500.26"/>
<text text-anchor="middle" x="1452.44" y="-504.02" font-family="Times,serif" font-size="14.00">[task] ../../roles/kubeinit_prepare : add all bootstrap nodes the all_bootstrap_nodes group</text>
</a>
</g>
</g>
<!-- Play #1: Main deployment playbook for integrating submariner (0)&#45;&gt;task_0ea9d3d5&#45;8800&#45;42c6&#45;ab5b&#45;36f77ed88ba8 -->
<g id="edge_e78dacba-b229-4d4a-b26e-3227de0215d4" class="edge">
<title>Play #1: Main deployment playbook for integrating submariner (0)-&gt;task_0ea9d3d5-8800-42c6-ab5b-36f77ed88ba8</title>
<path fill="none" stroke="#59c41c" stroke-width="2" d="M746.01,-417.72C805.76,-436.9 905.49,-466.41 993.76,-480.72 1028.96,-486.42 1065.84,-490.96 1102.75,-494.56"/>
<polygon fill="#59c41c" stroke="#59c41c" stroke-width="2" points="1102.88,-498.09 1113.16,-495.55 1103.54,-491.12 1102.88,-498.09"/>
<text text-anchor="middle" x="966.26" y="-479.52" font-family="Times,serif" font-size="14.00" fill="#59c41c">6</text>
<links><link target="task_0ea9d3d5-8800-42c6-ab5b-36f77ed88ba8"/></links></g>
<!-- task_7e11e728&#45;cbad&#45;4ff6&#45;a927&#45;344c8d1d8b31 -->
<g id="task_7e11e728-cbad-4ff6-a927-344c8d1d8b31" class="node">
<title>task_7e11e728-cbad-4ff6-a927-344c8d1d8b31</title>
<g id="a_task_7e11e728-cbad-4ff6-a927-344c8d1d8b31"><a xlink:title="[task] ../../roles/kubeinit_prepare : add all service nodes to the all_service_nodes group">
<polygon fill="none" stroke="black" points="1899.38,-446.26 1899.38,-461.18 1637.57,-471.72 1267.32,-471.72 1005.51,-461.18 1005.51,-446.26 1267.32,-435.72 1637.57,-435.72 1899.38,-446.26"/>
<text text-anchor="middle" x="1452.44" y="-450.02" font-family="Times,serif" font-size="14.00">[task] ../../roles/kubeinit_prepare : add all service nodes to the all_service_nodes group</text>
</a>
</g>
</g>
<!-- Play #1: Main deployment playbook for integrating submariner (0)&#45;&gt;task_7e11e728&#45;cbad&#45;4ff6&#45;a927&#45;344c8d1d8b31 -->
<g id="edge_101fb02b-f1f5-4fed-a9d0-75edbbd42368" class="edge">
<title>Play #1: Main deployment playbook for integrating submariner (0)-&gt;task_7e11e728-cbad-4ff6-a927-344c8d1d8b31</title>
<path fill="none" stroke="#59c41c" stroke-width="2" d="M883.59,-417.74C920.15,-420.93 958.13,-424.07 993.76,-426.72 1051.17,-430.98 1112.66,-434.99 1171.35,-438.55"/>
<polygon fill="#59c41c" stroke="#59c41c" stroke-width="2" points="1171.32,-442.05 1181.51,-439.16 1171.74,-435.07 1171.32,-442.05"/>
<text text-anchor="middle" x="966.26" y="-428.52" font-family="Times,serif" font-size="14.00" fill="#59c41c">7</text>
<links><link target="task_7e11e728-cbad-4ff6-a927-344c8d1d8b31"/></links></g>
<!-- task_4c1e4b26&#45;48d9&#45;4ed0&#45;8443&#45;1e42cd360b35 -->
<g id="task_4c1e4b26-48d9-4ed0-8443-1e42cd360b35" class="node">
<title>task_4c1e4b26-48d9-4ed0-8443-1e42cd360b35</title>
<g id="a_task_4c1e4b26-48d9-4ed0-8443-1e42cd360b35"><a xlink:title="[task] ../../roles/kubeinit_prepare : add all hosts to the all_hosts group">
<polygon fill="none" stroke="black" points="1814.13,-392.26 1814.13,-407.18 1602.26,-417.72 1302.62,-417.72 1090.75,-407.18 1090.75,-392.26 1302.62,-381.72 1602.26,-381.72 1814.13,-392.26"/>
<text text-anchor="middle" x="1452.44" y="-396.02" font-family="Times,serif" font-size="14.00">[task] ../../roles/kubeinit_prepare : add all hosts to the all_hosts group</text>
</a>
</g>
</g>
<!-- Play #1: Main deployment playbook for integrating submariner (0)&#45;&gt;task_4c1e4b26&#45;48d9&#45;4ed0&#45;8443&#45;1e42cd360b35 -->
<g id="edge_29c1d655-658c-4f65-8836-9bb7404c3c5a" class="edge">
<title>Play #1: Main deployment playbook for integrating submariner (0)-&gt;task_4c1e4b26-48d9-4ed0-8443-1e42cd360b35</title>
<path fill="none" stroke="#59c41c" stroke-width="2" d="M939.01,-399.72C984.27,-399.72 1032.42,-399.72 1080.39,-399.72"/>
<polygon fill="#59c41c" stroke="#59c41c" stroke-width="2" points="1080.62,-403.22 1090.62,-399.72 1080.62,-396.22 1080.62,-403.22"/>
<text text-anchor="middle" x="966.26" y="-403.52" font-family="Times,serif" font-size="14.00" fill="#59c41c">8</text>
<links><link target="task_4c1e4b26-48d9-4ed0-8443-1e42cd360b35"/></links></g>
<!-- task_57c75553&#45;c374&#45;4593&#45;b8fa&#45;4f4d912b78b4 -->
<g id="task_57c75553-c374-4593-b8fa-4f4d912b78b4" class="node">
<title>task_57c75553-c374-4593-b8fa-4f4d912b78b4</title>
<g id="a_task_57c75553-c374-4593-b8fa-4f4d912b78b4"><a xlink:title="[task] ../../roles/kubeinit_prepare : list all_hosts">
<polygon fill="none" stroke="black" points="1700.61,-338.26 1700.61,-353.18 1555.24,-363.72 1349.65,-363.72 1204.28,-353.18 1204.28,-338.26 1349.65,-327.72 1555.24,-327.72 1700.61,-338.26"/>
<text text-anchor="middle" x="1452.44" y="-342.02" font-family="Times,serif" font-size="14.00">[task] ../../roles/kubeinit_prepare : list all_hosts</text>
</a>
</g>
</g>
<!-- Play #1: Main deployment playbook for integrating submariner (0)&#45;&gt;task_57c75553&#45;c374&#45;4593&#45;b8fa&#45;4f4d912b78b4 -->
<g id="edge_d7a61d97-953d-4d4a-bd49-31ea30cfc959" class="edge">
<title>Play #1: Main deployment playbook for integrating submariner (0)-&gt;task_57c75553-c374-4593-b8fa-4f4d912b78b4</title>
<path fill="none" stroke="#59c41c" stroke-width="2" d="M883.59,-381.71C920.15,-378.51 958.13,-375.37 993.76,-372.72 1073.43,-366.8 1160.98,-361.38 1237.99,-356.96"/>
<polygon fill="#59c41c" stroke="#59c41c" stroke-width="2" points="1238.51,-360.44 1248.3,-356.38 1238.11,-353.45 1238.51,-360.44"/>
<text text-anchor="middle" x="966.26" y="-378.52" font-family="Times,serif" font-size="14.00" fill="#59c41c">9</text>
<links><link target="task_57c75553-c374-4593-b8fa-4f4d912b78b4"/></links></g>
<!-- task_24e7dfb9&#45;ab8b&#45;46ea&#45;8708&#45;862c09f8c714 -->
<g id="task_24e7dfb9-ab8b-46ea-8708-862c09f8c714" class="node">
<title>task_24e7dfb9-ab8b-46ea-8708-862c09f8c714</title>
<g id="a_task_24e7dfb9-ab8b-46ea-8708-862c09f8c714"><a xlink:title="[task] ../../roles/kubeinit_prepare : list all_nodes">
<polygon fill="none" stroke="black" points="1702.83,-284.26 1702.83,-299.18 1556.16,-309.72 1348.73,-309.72 1202.06,-299.18 1202.06,-284.26 1348.73,-273.72 1556.16,-273.72 1702.83,-284.26"/>
<text text-anchor="middle" x="1452.44" y="-288.02" font-family="Times,serif" font-size="14.00">[task] ../../roles/kubeinit_prepare : list all_nodes</text>
</a>
</g>
</g>
<!-- Play #1: Main deployment playbook for integrating submariner (0)&#45;&gt;task_24e7dfb9&#45;ab8b&#45;46ea&#45;8708&#45;862c09f8c714 -->
<g id="edge_958ae0d9-3f39-4e30-9493-cb2dedd281fb" class="edge">
<title>Play #1: Main deployment playbook for integrating submariner (0)-&gt;task_24e7dfb9-ab8b-46ea-8708-862c09f8c714</title>
<path fill="none" stroke="#59c41c" stroke-width="2" d="M746.01,-381.72C805.76,-362.54 905.49,-333.03 993.76,-318.72 1057.44,-308.4 1126.66,-301.91 1191.54,-297.85"/>
<polygon fill="#59c41c" stroke="#59c41c" stroke-width="2" points="1192.15,-301.32 1201.92,-297.22 1191.72,-294.34 1192.15,-301.32"/>
<text text-anchor="middle" x="966.26" y="-327.52" font-family="Times,serif" font-size="14.00" fill="#59c41c">10</text>
<links><link target="task_24e7dfb9-ab8b-46ea-8708-862c09f8c714"/></links></g>
<!-- task_4948eb82&#45;b015&#45;437a&#45;a037&#45;5be85bcd749c -->
<g id="task_4948eb82-b015-437a-a037-5be85bcd749c" class="node">
<title>task_4948eb82-b015-437a-a037-5be85bcd749c</title>
<g id="a_task_4948eb82-b015-437a-a037-5be85bcd749c"><a xlink:title="[task] ../../roles/kubeinit_prepare : list all_master_nodes">
<polygon fill="none" stroke="black" points="1743.03,-230.26 1743.03,-245.18 1572.81,-255.72 1332.08,-255.72 1161.86,-245.18 1161.86,-230.26 1332.08,-219.72 1572.81,-219.72 1743.03,-230.26"/>
<text text-anchor="middle" x="1452.44" y="-234.02" font-family="Times,serif" font-size="14.00">[task] ../../roles/kubeinit_prepare : list all_master_nodes</text>
</a>
</g>
</g>
<!-- Play #1: Main deployment playbook for integrating submariner (0)&#45;&gt;task_4948eb82&#45;b015&#45;437a&#45;a037&#45;5be85bcd749c -->
<g id="edge_0ff579a8-e856-442d-b5ec-ba5e166e5ce1" class="edge">
<title>Play #1: Main deployment playbook for integrating submariner (0)-&gt;task_4948eb82-b015-437a-a037-5be85bcd749c</title>
<path fill="none" stroke="#59c41c" stroke-width="2" d="M722.61,-381.63C775.53,-351.14 889.03,-290.35 993.76,-264.72 1044.15,-252.39 1098.55,-244.59 1151.65,-239.81"/>
<polygon fill="#59c41c" stroke="#59c41c" stroke-width="2" points="1152.24,-243.27 1161.9,-238.92 1151.63,-236.3 1152.24,-243.27"/>
<text text-anchor="middle" x="966.26" y="-277.52" font-family="Times,serif" font-size="14.00" fill="#59c41c">11</text>
<links><link target="task_4948eb82-b015-437a-a037-5be85bcd749c"/></links></g>
<!-- task_1c8aa369&#45;af0a&#45;4865&#45;a464&#45;32cded3458b2 -->
<g id="task_1c8aa369-af0a-4865-a464-32cded3458b2" class="node">
<title>task_1c8aa369-af0a-4865-a464-32cded3458b2</title>
<g id="a_task_1c8aa369-af0a-4865-a464-32cded3458b2"><a xlink:title="[task] ../../roles/kubeinit_prepare : list all_worker_nodes">
<polygon fill="none" stroke="black" points="1743.03,-176.26 1743.03,-191.18 1572.81,-201.72 1332.08,-201.72 1161.86,-191.18 1161.86,-176.26 1332.08,-165.72 1572.81,-165.72 1743.03,-176.26"/>
<text text-anchor="middle" x="1452.44" y="-180.02" font-family="Times,serif" font-size="14.00">[task] ../../roles/kubeinit_prepare : list all_worker_nodes</text>
</a>
</g>
</g>
<!-- Play #1: Main deployment playbook for integrating submariner (0)&#45;&gt;task_1c8aa369&#45;af0a&#45;4865&#45;a464&#45;32cded3458b2 -->
<g id="edge_7429787d-557a-41b5-823a-815280c21872" class="edge">
<title>Play #1: Main deployment playbook for integrating submariner (0)-&gt;task_1c8aa369-af0a-4865-a464-32cded3458b2</title>
<path fill="none" stroke="#59c41c" stroke-width="2" d="M712.69,-381.65C758.84,-342.07 876.37,-248.25 993.76,-210.72 1043.73,-194.75 1098.29,-185.21 1151.78,-179.85"/>
<polygon fill="#59c41c" stroke="#59c41c" stroke-width="2" points="1152.14,-183.33 1161.76,-178.9 1151.47,-176.36 1152.14,-183.33"/>
<text text-anchor="middle" x="966.26" y="-227.52" font-family="Times,serif" font-size="14.00" fill="#59c41c">12</text>
<links><link target="task_1c8aa369-af0a-4865-a464-32cded3458b2"/></links></g>
<!-- task_e1a48852&#45;1859&#45;408c&#45;ab8c&#45;c5331a56c840 -->
<g id="task_e1a48852-1859-408c-ab8c-c5331a56c840" class="node">
<title>task_e1a48852-1859-408c-ab8c-c5331a56c840</title>
<g id="a_task_e1a48852-1859-408c-ab8c-c5331a56c840"><a xlink:title="[task] ../../roles/kubeinit_prepare : list all_service_nodes">
<polygon fill="none" stroke="black" points="1743.93,-122.26 1743.93,-137.18 1573.18,-147.72 1331.7,-147.72 1160.95,-137.18 1160.95,-122.26 1331.7,-111.72 1573.18,-111.72 1743.93,-122.26"/>
<text text-anchor="middle" x="1452.44" y="-126.02" font-family="Times,serif" font-size="14.00">[task] ../../roles/kubeinit_prepare : list all_service_nodes</text>
</a>
</g>
</g>
<!-- Play #1: Main deployment playbook for integrating submariner (0)&#45;&gt;task_e1a48852&#45;1859&#45;408c&#45;ab8c&#45;c5331a56c840 -->
<g id="edge_6b4640cd-d908-4156-84aa-4928158d9671" class="edge">
<title>Play #1: Main deployment playbook for integrating submariner (0)-&gt;task_e1a48852-1859-408c-ab8c-c5331a56c840</title>
<path fill="none" stroke="#59c41c" stroke-width="2" d="M707.2,-381.59C747.51,-334.18 864.27,-206.75 993.76,-156.72 1078.49,-123.99 1178.61,-115.07 1263.58,-115.25"/>
<polygon fill="#59c41c" stroke="#59c41c" stroke-width="2" points="1263.57,-118.75 1273.6,-115.31 1263.62,-111.75 1263.57,-118.75"/>
<text text-anchor="middle" x="966.26" y="-172.52" font-family="Times,serif" font-size="14.00" fill="#59c41c">13</text>
<links><link target="task_e1a48852-1859-408c-ab8c-c5331a56c840"/></links></g>
<!-- task_681c5dcf&#45;7de2&#45;43d6&#45;a8a6&#45;cb539af69e1d -->
<g id="task_681c5dcf-7de2-43d6-a8a6-cb539af69e1d" class="node">
<title>task_681c5dcf-7de2-43d6-a8a6-cb539af69e1d</title>
<g id="a_task_681c5dcf-7de2-43d6-a8a6-cb539af69e1d"><a xlink:title="[task] ../../roles/kubeinit_prepare : list all_bootstrap_nodes">
<polygon fill="none" stroke="black" points="1756.26,-68.26 1756.26,-83.18 1578.29,-93.72 1326.6,-93.72 1148.62,-83.18 1148.62,-68.26 1326.6,-57.72 1578.29,-57.72 1756.26,-68.26"/>
<text text-anchor="middle" x="1452.44" y="-72.02" font-family="Times,serif" font-size="14.00">[task] ../../roles/kubeinit_prepare : list all_bootstrap_nodes</text>
</a>
</g>
</g>
<!-- Play #1: Main deployment playbook for integrating submariner (0)&#45;&gt;task_681c5dcf&#45;7de2&#45;43d6&#45;a8a6&#45;cb539af69e1d -->
<g id="edge_76087924-74c6-40af-b659-94c365fda47e" class="edge">
<title>Play #1: Main deployment playbook for integrating submariner (0)-&gt;task_681c5dcf-7de2-43d6-a8a6-cb539af69e1d</title>
<path fill="none" stroke="#59c41c" stroke-width="2" d="M703.56,-381.64C738.61,-327.39 851.77,-165.86 993.76,-102.72 1088.4,-60.64 1205.08,-54.36 1296.94,-58.36"/>
<polygon fill="#59c41c" stroke="#59c41c" stroke-width="2" points="1297,-61.87 1307.16,-58.85 1297.34,-54.88 1297,-61.87"/>
<text text-anchor="middle" x="966.26" y="-121.52" font-family="Times,serif" font-size="14.00" fill="#59c41c">14</text>
<links><link target="task_681c5dcf-7de2-43d6-a8a6-cb539af69e1d"/></links></g>
<!-- task_ba1ba73d&#45;652e&#45;4d2b&#45;bc45&#45;a526ab089943 -->
<g id="task_ba1ba73d-652e-4d2b-bc45-a526ab089943" class="node">
<title>task_ba1ba73d-652e-4d2b-bc45-a526ab089943</title>
<g id="a_task_ba1ba73d-652e-4d2b-bc45-a526ab089943"><a xlink:title="[task] ../../roles/kubeinit_submariner : Execute subctl verify">
<polygon fill="none" stroke="black" points="1762.92,-14.26 1762.92,-29.18 1581.05,-39.72 1323.84,-39.72 1141.96,-29.18 1141.96,-14.26 1323.84,-3.72 1581.05,-3.72 1762.92,-14.26"/>
<text text-anchor="middle" x="1452.44" y="-18.02" font-family="Times,serif" font-size="14.00">[task] ../../roles/kubeinit_submariner : Execute subctl verify</text>
</a>
</g>
</g>
<!-- Play #1: Main deployment playbook for integrating submariner (0)&#45;&gt;task_ba1ba73d&#45;652e&#45;4d2b&#45;bc45&#45;a526ab089943 -->
<g id="edge_99862b60-2faf-499f-bcc1-a1b477257294" class="edge">
<title>Play #1: Main deployment playbook for integrating submariner (0)-&gt;task_ba1ba73d-652e-4d2b-bc45-a526ab089943</title>
<path fill="none" stroke="#59c41c" stroke-width="2" d="M701.08,-381.5C731.53,-320.86 839.01,-125.4 993.76,-48.72 1093.82,0.85 1221.65,4.2 1316.77,-2.9"/>
<polygon fill="#59c41c" stroke="#59c41c" stroke-width="2" points="1316.5,-6.39 1326.75,-3.69 1317.06,0.59 1316.5,-6.39"/>
<text text-anchor="middle" x="966.26" y="-70.52" font-family="Times,serif" font-size="14.00" fill="#59c41c">15</text>
<links><link target="task_ba1ba73d-652e-4d2b-bc45-a526ab089943"/></links></g>
</g>
</svg>