<?xml version='1.0' encoding='UTF-8'?>
<!DOCTYPE svg PUBLIC "-//W3C//DTD SVG 1.1//EN" "http://www.w3.org/Graphics/SVG/1.1/DTD/svg11.dtd">
<!-- Generated by graphviz version 2.43.0 (0)
 --><!-- Title: ./playbooks/submariner&#45;subctl&#45;verify.yml  Pages: 1 --><svg xmlns="http://www.w3.org/2000/svg" xmlns:xlink="http://www.w3.org/1999/xlink" width="2266pt" height="861pt" viewBox="0.00 0.00 2266.12 860.59" id="svg">
<script type="text/javascript" href="https://ajax.googleapis.com/ajax/libs/jquery/3.2.1/jquery.min.js" id="jquery"/><script type="text/javascript" id="my_javascript"><![CDATA[const HOVER_CLASS = "my_hover";

var selectedElement = null;

function addClass(rootElement) {
    $(rootElement).find('link').each(function (index, element) {
        var target = $(element).attr('target');
        var currentElement = $('#' + target);
        currentElement.addClass(HOVER_CLASS);

        addClass(currentElement);
    })
}

function removeClass(rootElement, hover) {
    $(rootElement).find('link').each(function (index, element) {
        if ($(rootElement).attr('id') !== $(selectedElement).attr('id') || !hover) {
            var target = $(element).attr('target');
            var currentElement = $('#' + target);
            currentElement.removeClass(HOVER_CLASS);

            removeClass(currentElement);
        }

    })
}

function hoverIn(event) {
    addClass(event.currentTarget);
}

function hoverOut(event) {
    removeClass(event.currentTarget, true);
}

function clickOnElement(event) {
    var newElement = event.currentTarget;

    if ($(newElement).attr('id') === $(selectedElement).attr('id')) {
        removeClass(selectedElement, false);
    } else {
        removeClass(selectedElement);
        addClass(newElement)
    }

    selectedElement = newElement;
}


$("#svg").ready(function () {

    $("g[id^=play_]").hover(hoverIn, hoverOut);
    $("g[id^=role_]").hover(hoverIn, hoverOut);

    $("g[id^=play_]").click(clickOnElement);
    $("g[id^=role_]").click(clickOnElement);

});
]]></script><style type="text/css" id="my_css"><![CDATA[.node:hover, .edge:hover, path:hover, path + polygon:hover {
    cursor: pointer;
    stroke-width: 3;
    font-weight: bolder;
}

.my_hover {
    cursor: pointer;
    stroke-width: 3;
    font-weight: bolder;
}
]]></style><g id="graph0" class="graph" transform="scale(1 1) rotate(0) translate(4 856.59)">
<title>./playbooks/submariner-subctl-verify.yml </title>
<polygon fill="white" stroke="transparent" points="-4,4 -4,-856.59 2262.12,-856.59 2262.12,4 -4,4"/>
<!-- ./playbooks/submariner&#45;subctl&#45;verify.yml -->
<g id="root_node" class="node">
<title>./playbooks/submariner-subctl-verify.yml</title>
<ellipse fill="none" stroke="black" stroke-dasharray="1,5" cx="198.88" cy="-437.59" rx="198.76" ry="18"/>
<text text-anchor="middle" x="198.88" y="-433.89" font-family="Times,serif" font-size="14.00">./playbooks/submariner-subctl-verify.yml</text>
</g>
<!-- Play #1: Main deployment playbook for integrating submariner (0) -->
<g id="play_a2f3f55d-2a57-4e6b-9504-b6b24b920b10" class="node">
<title>Play #1: Main deployment playbook for integrating submariner (0)</title>
<polygon fill="#65a5a8" stroke="#65a5a8" points="938.76,-455.59 443.76,-455.59 443.76,-419.59 938.76,-419.59 938.76,-455.59"/>
<text text-anchor="middle" x="691.26" y="-433.89" font-family="Times,serif" font-size="14.00" fill="#ffffff">Play #1: Main deployment playbook for integrating submariner (0)</text>
<links><link target="edge_61c265f2-7daf-4f31-81d7-f11bbb43a5bb"/><link target="edge_e4c9548c-efb3-4734-8c65-d1b6c434f21e"/><link target="edge_fe127592-3b22-4210-a4a9-e0cfe1095726"/><link target="edge_85ac24c0-956c-4e3b-9d83-2b900a9cce8e"/><link target="edge_733a3491-a0fd-41bf-960c-328e0a73227a"/><link target="edge_f16262df-d224-4148-94c0-31fc988ec296"/><link target="edge_4dbc1c08-763f-4f96-b78a-f7912a61169a"/><link target="edge_07ecf4c4-445d-407f-a171-5b21ba910198"/><link target="edge_1665d553-fefe-4f71-ad5b-c2b1f16a28b9"/><link target="edge_84e60963-207c-4a7b-8ae5-91e5cb338516"/><link target="edge_5075d11d-aec4-498c-a254-3ae7e7f437f2"/><link target="edge_555f376e-99a6-4af4-a9d0-219c05e2d572"/><link target="edge_c566dc5e-1c53-4bd8-895f-4a4f478fd56a"/><link target="edge_dc87591e-77d0-4924-a734-3679dce6042c"/><link target="edge_ccbeb94e-ba7c-48c3-beb1-15ee83be1643"/></links></g>
<!-- ./playbooks/submariner&#45;subctl&#45;verify.yml&#45;&gt;Play #1: Main deployment playbook for integrating submariner (0) -->
<g id="edge_2168b997-a51c-4a62-9742-a946dfa229a1" class="edge">
<title>./playbooks/submariner-subctl-verify.yml-&gt;Play #1: Main deployment playbook for integrating submariner (0)</title>
<path fill="none" stroke="#65a5a8" stroke-width="2" d="M397.93,-437.59C409.66,-437.59 421.54,-437.59 433.46,-437.59"/>
<polygon fill="#65a5a8" stroke="#65a5a8" stroke-width="2" points="433.48,-441.09 443.48,-437.59 433.48,-434.09 433.48,-441.09"/>
<text text-anchor="middle" x="420.76" y="-441.39" font-family="Times,serif" font-size="14.00" fill="#65a5a8">1</text>
</g>
<!-- pre_task_ae891efd&#45;8691&#45;4551&#45;9c0a&#45;02afd7c1f166 -->
<g id="pre_task_ae891efd-8691-4551-9c0a-02afd7c1f166" class="node">
<title>pre_task_ae891efd-8691-4551-9c0a-02afd7c1f166</title>
<g id="a_pre_task_ae891efd-8691-4551-9c0a-02afd7c1f166"><a xlink:title="[pre_task] Check if Ansible meets version requirements.">
<polygon fill="none" stroke="black" points="2093.56,-808.14 2093.56,-823.05 1921.27,-833.59 1677.61,-833.59 1505.32,-823.05 1505.32,-808.14 1677.61,-797.59 1921.27,-797.59 2093.56,-808.14"/>
<text text-anchor="middle" x="1799.44" y="-811.89" font-family="Times,serif" font-size="14.00">[pre_task] Check if Ansible meets version requirements.</text>
</a>
</g>
</g>
<!-- Play #1: Main deployment playbook for integrating submariner (0)&#45;&gt;pre_task_ae891efd&#45;8691&#45;4551&#45;9c0a&#45;02afd7c1f166 -->
<g id="edge_61c265f2-7daf-4f31-81d7-f11bbb43a5bb" class="edge">
<title>Play #1: Main deployment playbook for integrating submariner (0)-&gt;pre_task_ae891efd-8691-4551-9c0a-02afd7c1f166</title>
<path fill="none" stroke="#65a5a8" stroke-width="2" d="M698.97,-455.76C722.74,-517.13 809.51,-717.12 956.76,-793.59 1064.51,-849.54 1386.81,-842.15 1599.86,-830.05"/>
<polygon fill="#65a5a8" stroke="#65a5a8" stroke-width="2" points="1600.14,-833.54 1609.92,-829.47 1599.74,-826.56 1600.14,-833.54"/>
<text text-anchor="middle" x="1139.76" y="-841.39" font-family="Times,serif" font-size="14.00" fill="#65a5a8">1</text>
<links><link target="pre_task_ae891efd-8691-4551-9c0a-02afd7c1f166"/></links></g>
<!-- task_833fc3cc&#45;b882&#45;4fd9&#45;a832&#45;94a32a19d255 -->
<g id="task_833fc3cc-b882-4fd9-a832-94a32a19d255" class="node">
<title>task_833fc3cc-b882-4fd9-a832-94a32a19d255</title>
<g id="a_task_833fc3cc-b882-4fd9-a832-94a32a19d255"><a xlink:title="[task] ../../roles/kubeinit_prepare : Gather variables for each operating system">
<polygon fill="none" stroke="black" points="2203.05,-754.14 2203.05,-769.05 1966.62,-779.59 1632.26,-779.59 1395.83,-769.05 1395.83,-754.14 1632.26,-743.59 1966.62,-743.59 2203.05,-754.14"/>
<text text-anchor="middle" x="1799.44" y="-757.89" font-family="Times,serif" font-size="14.00">[task] ../../roles/kubeinit_prepare : Gather variables for each operating system</text>
</a>
</g>
</g>
<!-- Play #1: Main deployment playbook for integrating submariner (0)&#45;&gt;task_833fc3cc&#45;b882&#45;4fd9&#45;a832&#45;94a32a19d255 -->
<g id="edge_e4c9548c-efb3-4734-8c65-d1b6c434f21e" class="edge">
<title>Play #1: Main deployment playbook for integrating submariner (0)-&gt;task_833fc3cc-b882-4fd9-a832-94a32a19d255</title>
<path fill="none" stroke="#65a5a8" stroke-width="2" d="M701.51,-455.65C730.41,-509.82 824.96,-671 956.76,-732.59 1053.17,-777.64 1312.04,-780.84 1517.46,-775.21"/>
<polygon fill="#65a5a8" stroke="#65a5a8" stroke-width="2" points="1517.61,-778.71 1527.51,-774.93 1517.41,-771.71 1517.61,-778.71"/>
<text text-anchor="middle" x="1139.76" y="-780.39" font-family="Times,serif" font-size="14.00" fill="#65a5a8">2</text>
<links><link target="task_833fc3cc-b882-4fd9-a832-94a32a19d255"/></links></g>
<!-- task_09494763&#45;61ed&#45;4a65&#45;90f8&#45;33db18109853 -->
<g id="task_09494763-61ed-4a65-90f8-33db18109853" class="node">
<title>task_09494763-61ed-4a65-90f8-33db18109853</title>
<g id="a_task_09494763-61ed-4a65-90f8-33db18109853"><a xlink:title="[task] ../../roles/kubeinit_prepare : add all nodes to the all_nodes group">
<polygon fill="none" stroke="black" points="2165.98,-700.14 2165.98,-715.05 1951.27,-725.59 1647.62,-725.59 1432.9,-715.05 1432.9,-700.14 1647.62,-689.59 1951.27,-689.59 2165.98,-700.14"/>
<text text-anchor="middle" x="1799.44" y="-703.89" font-family="Times,serif" font-size="14.00">[task] ../../roles/kubeinit_prepare : add all nodes to the all_nodes group</text>
</a>
</g>
</g>
<!-- Play #1: Main deployment playbook for integrating submariner (0)&#45;&gt;task_09494763&#45;61ed&#45;4a65&#45;90f8&#45;33db18109853 -->
<g id="edge_fe127592-3b22-4210-a4a9-e0cfe1095726" class="edge">
<title>Play #1: Main deployment playbook for integrating submariner (0)-&gt;task_09494763-61ed-4a65-90f8-33db18109853</title>
<path fill="none" stroke="#65a5a8" stroke-width="2" d="M705.44,-455.81C740.23,-502.21 839.92,-624.45 956.76,-671.59 1043.04,-706.4 1251.44,-715.51 1439.27,-715.86"/>
<polygon fill="#65a5a8" stroke="#65a5a8" stroke-width="2" points="1439.33,-719.36 1449.33,-715.87 1439.34,-712.36 1439.33,-719.36"/>
<text text-anchor="middle" x="1139.76" y="-717.39" font-family="Times,serif" font-size="14.00" fill="#65a5a8">3</text>
<links><link target="task_09494763-61ed-4a65-90f8-33db18109853"/></links></g>
<!-- task_f2d902fb&#45;38a4&#45;48c7&#45;9301&#45;547c50a51b92 -->
<g id="task_f2d902fb-38a4-48c7-9301-547c50a51b92" class="node">
<title>task_f2d902fb-38a4-48c7-9301-547c50a51b92</title>
<g id="a_task_f2d902fb-38a4-48c7-9301-547c50a51b92"><a xlink:title="[task] ../../roles/kubeinit_prepare : add all master nodes to the all_master_nodes group">
<polygon fill="none" stroke="black" points="2244.56,-646.14 2244.56,-661.05 1983.82,-671.59 1615.07,-671.59 1354.32,-661.05 1354.32,-646.14 1615.07,-635.59 1983.82,-635.59 2244.56,-646.14"/>
<text text-anchor="middle" x="1799.44" y="-649.89" font-family="Times,serif" font-size="14.00">[task] ../../roles/kubeinit_prepare : add all master nodes to the all_master_nodes group</text>
</a>
</g>
</g>
<!-- Play #1: Main deployment playbook for integrating submariner (0)&#45;&gt;task_f2d902fb&#45;38a4&#45;48c7&#45;9301&#45;547c50a51b92 -->
<g id="edge_85ac24c0-956c-4e3b-9d83-2b900a9cce8e" class="edge">
<title>Play #1: Main deployment playbook for integrating submariner (0)-&gt;task_f2d902fb-38a4-48c7-9301-547c50a51b92</title>
<path fill="none" stroke="#65a5a8" stroke-width="2" d="M711.15,-455.75C751.96,-493.65 853.11,-580.47 956.76,-614.59 1030.06,-638.72 1185.88,-649.58 1343.76,-654.02"/>
<polygon fill="#65a5a8" stroke="#65a5a8" stroke-width="2" points="1344.07,-657.53 1354.16,-654.3 1344.26,-650.53 1344.07,-657.53"/>
<text text-anchor="middle" x="1139.76" y="-656.39" font-family="Times,serif" font-size="14.00" fill="#65a5a8">4</text>
<links><link target="task_f2d902fb-38a4-48c7-9301-547c50a51b92"/></links></g>
<!-- task_b29d011d&#45;bb37&#45;4ade&#45;b800&#45;2746f5766f0e -->
<g id="task_b29d011d-bb37-4ade-b800-2746f5766f0e" class="node">
<title>task_b29d011d-bb37-4ade-b800-2746f5766f0e</title>
<g id="a_task_b29d011d-bb37-4ade-b800-2746f5766f0e"><a xlink:title="[task] ../../roles/kubeinit_prepare : add all worker nodes to the all_worker_nodes group">
<polygon fill="none" stroke="black" points="2244.56,-592.14 2244.56,-607.05 1983.82,-617.59 1615.07,-617.59 1354.32,-607.05 1354.32,-592.14 1615.07,-581.59 1983.82,-581.59 2244.56,-592.14"/>
<text text-anchor="middle" x="1799.44" y="-595.89" font-family="Times,serif" font-size="14.00">[task] ../../roles/kubeinit_prepare : add all worker nodes to the all_worker_nodes group</text>
</a>
</g>
</g>
<!-- Play #1: Main deployment playbook for integrating submariner (0)&#45;&gt;task_b29d011d&#45;bb37&#45;4ade&#45;b800&#45;2746f5766f0e -->
<g id="edge_733a3491-a0fd-41bf-960c-328e0a73227a" class="edge">
<title>Play #1: Main deployment playbook for integrating submariner (0)-&gt;task_b29d011d-bb37-4ade-b800-2746f5766f0e</title>
<path fill="none" stroke="#65a5a8" stroke-width="2" d="M727.05,-455.77C776.56,-480.69 870.89,-524.61 956.76,-544.59 1080.62,-573.41 1217.29,-589 1343.83,-597.03"/>
<polygon fill="#65a5a8" stroke="#65a5a8" stroke-width="2" points="1343.89,-600.54 1354.09,-597.67 1344.33,-593.55 1343.89,-600.54"/>
<text text-anchor="middle" x="1139.76" y="-599.39" font-family="Times,serif" font-size="14.00" fill="#65a5a8">5</text>
<links><link target="task_b29d011d-bb37-4ade-b800-2746f5766f0e"/></links></g>
<!-- task_8ff13f9f&#45;2494&#45;436b&#45;98ae&#45;d883daab2739 -->
<g id="task_8ff13f9f-2494-436b-98ae-d883daab2739" class="node">
<title>task_8ff13f9f-2494-436b-98ae-d883daab2739</title>
<g id="a_task_8ff13f9f-2494-436b-98ae-d883daab2739"><a xlink:title="[task] ../../roles/kubeinit_prepare : add all bootstrap nodes the all_bootstrap_nodes group">
<polygon fill="none" stroke="black" points="2258.3,-538.14 2258.3,-553.05 1989.51,-563.59 1609.38,-563.59 1340.59,-553.05 1340.59,-538.14 1609.38,-527.59 1989.51,-527.59 2258.3,-538.14"/>
<text text-anchor="middle" x="1799.44" y="-541.89" font-family="Times,serif" font-size="14.00">[task] ../../roles/kubeinit_prepare : add all bootstrap nodes the all_bootstrap_nodes group</text>
</a>
</g>
</g>
<!-- Play #1: Main deployment playbook for integrating submariner (0)&#45;&gt;task_8ff13f9f&#45;2494&#45;436b&#45;98ae&#45;d883daab2739 -->
<g id="edge_f16262df-d224-4148-94c0-31fc988ec296" class="edge">
<title>Play #1: Main deployment playbook for integrating submariner (0)-&gt;task_8ff13f9f-2494-436b-98ae-d883daab2739</title>
<path fill="none" stroke="#65a5a8" stroke-width="2" d="M767.06,-455.59C819.79,-467.61 892.22,-482.77 956.76,-491.59 1112.06,-512.81 1284.63,-525.72 1432.89,-533.57"/>
<polygon fill="#65a5a8" stroke="#65a5a8" stroke-width="2" points="1432.91,-537.08 1443.08,-534.1 1433.27,-530.09 1432.91,-537.08"/>
<text text-anchor="middle" x="1139.76" y="-529.39" font-family="Times,serif" font-size="14.00" fill="#65a5a8">6</text>
<links><link target="task_8ff13f9f-2494-436b-98ae-d883daab2739"/></links></g>
<!-- task_4cab8410&#45;eb4a&#45;40b9&#45;a931&#45;42e3d9ef6240 -->
<g id="task_4cab8410-eb4a-40b9-a931-42e3d9ef6240" class="node">
<title>task_4cab8410-eb4a-40b9-a931-42e3d9ef6240</title>
<g id="a_task_4cab8410-eb4a-40b9-a931-42e3d9ef6240"><a xlink:title="[task] ../../roles/kubeinit_prepare : add all service nodes to the all_service_nodes group">
<polygon fill="none" stroke="black" points="2246.38,-484.14 2246.38,-499.05 1984.57,-509.59 1614.32,-509.59 1352.51,-499.05 1352.51,-484.14 1614.32,-473.59 1984.57,-473.59 2246.38,-484.14"/>
<text text-anchor="middle" x="1799.44" y="-487.89" font-family="Times,serif" font-size="14.00">[task] ../../roles/kubeinit_prepare : add all service nodes to the all_service_nodes group</text>
</a>
</g>
</g>
<!-- Play #1: Main deployment playbook for integrating submariner (0)&#45;&gt;task_4cab8410&#45;eb4a&#45;40b9&#45;a931&#45;42e3d9ef6240 -->
<g id="edge_4dbc1c08-763f-4f96-b78a-f7912a61169a" class="edge">
<title>Play #1: Main deployment playbook for integrating submariner (0)-&gt;task_4cab8410-eb4a-40b9-a931-42e3d9ef6240</title>
<path fill="none" stroke="#65a5a8" stroke-width="2" d="M938.99,-455.55C944.97,-455.91 950.9,-456.26 956.76,-456.59 1118.41,-465.76 1297.66,-473.54 1449.04,-479.42"/>
<polygon fill="#65a5a8" stroke="#65a5a8" stroke-width="2" points="1449.31,-482.94 1459.44,-479.83 1449.58,-475.94 1449.31,-482.94"/>
<text text-anchor="middle" x="1139.76" y="-476.39" font-family="Times,serif" font-size="14.00" fill="#65a5a8">7</text>
<links><link target="task_4cab8410-eb4a-40b9-a931-42e3d9ef6240"/></links></g>
<!-- task_0bf1479f&#45;1dac&#45;4b77&#45;a451&#45;418d78acdfc7 -->
<g id="task_0bf1479f-1dac-4b77-a451-418d78acdfc7" class="node">
<title>task_0bf1479f-1dac-4b77-a451-418d78acdfc7</title>
<g id="a_task_0bf1479f-1dac-4b77-a451-418d78acdfc7"><a xlink:title="[task] ../../roles/kubeinit_prepare : add all hosts to the all_hosts group">
<polygon fill="none" stroke="black" points="2161.13,-430.14 2161.13,-445.05 1949.26,-455.59 1649.62,-455.59 1437.75,-445.05 1437.75,-430.14 1649.62,-419.59 1949.26,-419.59 2161.13,-430.14"/>
<text text-anchor="middle" x="1799.44" y="-433.89" font-family="Times,serif" font-size="14.00">[task] ../../roles/kubeinit_prepare : add all hosts to the all_hosts group</text>
</a>
</g>
</g>
<!-- Play #1: Main deployment playbook for integrating submariner (0)&#45;&gt;task_0bf1479f&#45;1dac&#45;4b77&#45;a451&#45;418d78acdfc7 -->
<g id="edge_07ecf4c4-445d-407f-a171-5b21ba910198" class="edge">
<title>Play #1: Main deployment playbook for integrating submariner (0)-&gt;task_0bf1479f-1dac-4b77-a451-418d78acdfc7</title>
<path fill="none" stroke="#65a5a8" stroke-width="2" d="M938.79,-437.59C1082.54,-437.59 1266.67,-437.59 1427.62,-437.59"/>
<polygon fill="#65a5a8" stroke="#65a5a8" stroke-width="2" points="1427.69,-441.09 1437.69,-437.59 1427.69,-434.09 1427.69,-441.09"/>
<text text-anchor="middle" x="1139.76" y="-441.39" font-family="Times,serif" font-size="14.00" fill="#65a5a8">8</text>
<links><link target="task_0bf1479f-1dac-4b77-a451-418d78acdfc7"/></links></g>
<!-- task_54dedeb6&#45;dee7&#45;4a83&#45;b1fb&#45;2c2d58048343 -->
<g id="task_54dedeb6-dee7-4a83-b1fb-2c2d58048343" class="node">
<title>task_54dedeb6-dee7-4a83-b1fb-2c2d58048343</title>
<g id="a_task_54dedeb6-dee7-4a83-b1fb-2c2d58048343"><a xlink:title="[task] ../../roles/kubeinit_prepare : list all_hosts">
<polygon fill="none" stroke="black" points="2047.61,-376.14 2047.61,-391.05 1902.24,-401.59 1696.65,-401.59 1551.28,-391.05 1551.28,-376.14 1696.65,-365.59 1902.24,-365.59 2047.61,-376.14"/>
<text text-anchor="middle" x="1799.44" y="-379.89" font-family="Times,serif" font-size="14.00">[task] ../../roles/kubeinit_prepare : list all_hosts</text>
</a>
</g>
</g>
<!-- Play #1: Main deployment playbook for integrating submariner (0)&#45;&gt;task_54dedeb6&#45;dee7&#45;4a83&#45;b1fb&#45;2c2d58048343 -->
<g id="edge_1665d553-fefe-4f71-ad5b-c2b1f16a28b9" class="edge">
<title>Play #1: Main deployment playbook for integrating submariner (0)-&gt;task_54dedeb6-dee7-4a83-b1fb-2c2d58048343</title>
<path fill="none" stroke="#65a5a8" stroke-width="2" d="M938.99,-419.63C944.97,-419.27 950.9,-418.92 956.76,-418.59 1155.66,-407.31 1381.2,-398.13 1548.71,-392"/>
<polygon fill="#65a5a8" stroke="#65a5a8" stroke-width="2" points="1549.04,-395.49 1558.9,-391.63 1548.78,-388.5 1549.04,-395.49"/>
<text text-anchor="middle" x="1139.76" y="-422.39" font-family="Times,serif" font-size="14.00" fill="#65a5a8">9</text>
<links><link target="task_54dedeb6-dee7-4a83-b1fb-2c2d58048343"/></links></g>
<!-- task_541af10f&#45;3e5a&#45;400b&#45;9312&#45;9424d7cceb8e -->
<g id="task_541af10f-3e5a-400b-9312-9424d7cceb8e" class="node">
<title>task_541af10f-3e5a-400b-9312-9424d7cceb8e</title>
<g id="a_task_541af10f-3e5a-400b-9312-9424d7cceb8e"><a xlink:title="[task] ../../roles/kubeinit_prepare : list all_nodes">
<polygon fill="none" stroke="black" points="2049.83,-322.14 2049.83,-337.05 1903.16,-347.59 1695.73,-347.59 1549.06,-337.05 1549.06,-322.14 1695.73,-311.59 1903.16,-311.59 2049.83,-322.14"/>
<text text-anchor="middle" x="1799.44" y="-325.89" font-family="Times,serif" font-size="14.00">[task] ../../roles/kubeinit_prepare : list all_nodes</text>
</a>
</g>
</g>
<!-- Play #1: Main deployment playbook for integrating submariner (0)&#45;&gt;task_541af10f&#45;3e5a&#45;400b&#45;9312&#45;9424d7cceb8e -->
<g id="edge_84e60963-207c-4a7b-8ae5-91e5cb338516" class="edge">
<title>Play #1: Main deployment playbook for integrating submariner (0)-&gt;task_541af10f-3e5a-400b-9312-9424d7cceb8e</title>
<path fill="none" stroke="#65a5a8" stroke-width="2" d="M765.34,-419.58C818.18,-407.24 891.48,-391.55 956.76,-382.59 1150.71,-355.99 1371.65,-342.72 1538.49,-336.11"/>
<polygon fill="#65a5a8" stroke="#65a5a8" stroke-width="2" points="1539.04,-339.59 1548.89,-335.7 1538.77,-332.6 1539.04,-339.59"/>
<text text-anchor="middle" x="1139.76" y="-386.39" font-family="Times,serif" font-size="14.00" fill="#65a5a8">10</text>
<links><link target="task_541af10f-3e5a-400b-9312-9424d7cceb8e"/></links></g>
<!-- task_4d2db0e9&#45;4eec&#45;4433&#45;af7f&#45;5411e9649407 -->
<g id="task_4d2db0e9-4eec-4433-af7f-5411e9649407" class="node">
<title>task_4d2db0e9-4eec-4433-af7f-5411e9649407</title>
<g id="a_task_4d2db0e9-4eec-4433-af7f-5411e9649407"><a xlink:title="[task] ../../roles/kubeinit_prepare : list all_master_nodes">
<polygon fill="none" stroke="black" points="2090.03,-268.14 2090.03,-283.05 1919.81,-293.59 1679.08,-293.59 1508.86,-283.05 1508.86,-268.14 1679.08,-257.59 1919.81,-257.59 2090.03,-268.14"/>
<text text-anchor="middle" x="1799.44" y="-271.89" font-family="Times,serif" font-size="14.00">[task] ../../roles/kubeinit_prepare : list all_master_nodes</text>
</a>
</g>
</g>
<!-- Play #1: Main deployment playbook for integrating submariner (0)&#45;&gt;task_4d2db0e9&#45;4eec&#45;4433&#45;af7f&#45;5411e9649407 -->
<g id="edge_5075d11d-aec4-498c-a254-3ae7e7f437f2" class="edge">
<title>Play #1: Main deployment playbook for integrating submariner (0)-&gt;task_4d2db0e9-4eec-4433-af7f-5411e9649407</title>
<path fill="none" stroke="#65a5a8" stroke-width="2" d="M726.6,-419.41C775.96,-394.26 870.54,-349.68 956.76,-329.59 1133.46,-288.42 1336.29,-274.45 1498.55,-271"/>
<polygon fill="#65a5a8" stroke="#65a5a8" stroke-width="2" points="1498.76,-274.5 1508.69,-270.8 1498.62,-267.5 1498.76,-274.5"/>
<text text-anchor="middle" x="1139.76" y="-333.39" font-family="Times,serif" font-size="14.00" fill="#65a5a8">11</text>
<links><link target="task_4d2db0e9-4eec-4433-af7f-5411e9649407"/></links></g>
<!-- task_d9afca16&#45;7f01&#45;4bc0&#45;a7ee&#45;b0c9b3ec61f1 -->
<g id="task_d9afca16-7f01-4bc0-a7ee-b0c9b3ec61f1" class="node">
<title>task_d9afca16-7f01-4bc0-a7ee-b0c9b3ec61f1</title>
<g id="a_task_d9afca16-7f01-4bc0-a7ee-b0c9b3ec61f1"><a xlink:title="[task] ../../roles/kubeinit_prepare : list all_worker_nodes">
<polygon fill="none" stroke="black" points="2090.03,-214.14 2090.03,-229.05 1919.81,-239.59 1679.08,-239.59 1508.86,-229.05 1508.86,-214.14 1679.08,-203.59 1919.81,-203.59 2090.03,-214.14"/>
<text text-anchor="middle" x="1799.44" y="-217.89" font-family="Times,serif" font-size="14.00">[task] ../../roles/kubeinit_prepare : list all_worker_nodes</text>
</a>
</g>
</g>
<!-- Play #1: Main deployment playbook for integrating submariner (0)&#45;&gt;task_d9afca16&#45;7f01&#45;4bc0&#45;a7ee&#45;b0c9b3ec61f1 -->
<g id="edge_555f376e-99a6-4af4-a9d0-219c05e2d572" class="edge">
<title>Play #1: Main deployment playbook for integrating submariner (0)-&gt;task_d9afca16-7f01-4bc0-a7ee-b0c9b3ec61f1</title>
<path fill="none" stroke="#65a5a8" stroke-width="2" d="M711.13,-419.32C751.89,-381.19 852.95,-293.85 956.76,-259.59 1187.44,-183.47 1473.03,-190.12 1645.21,-204.18"/>
<polygon fill="#65a5a8" stroke="#65a5a8" stroke-width="2" points="1645.1,-207.69 1655.36,-205.03 1645.69,-200.71 1645.1,-207.69"/>
<text text-anchor="middle" x="1139.76" y="-263.39" font-family="Times,serif" font-size="14.00" fill="#65a5a8">12</text>
<links><link target="task_d9afca16-7f01-4bc0-a7ee-b0c9b3ec61f1"/></links></g>
<!-- task_bb687a0d&#45;3056&#45;4aa7&#45;81fe&#45;14f622f7adc8 -->
<g id="task_bb687a0d-3056-4aa7-81fe-14f622f7adc8" class="node">
<title>task_bb687a0d-3056-4aa7-81fe-14f622f7adc8</title>
<g id="a_task_bb687a0d-3056-4aa7-81fe-14f622f7adc8"><a xlink:title="[task] ../../roles/kubeinit_prepare : list all_service_nodes">
<polygon fill="none" stroke="black" points="2090.93,-160.14 2090.93,-175.05 1920.18,-185.59 1678.7,-185.59 1507.95,-175.05 1507.95,-160.14 1678.7,-149.59 1920.18,-149.59 2090.93,-160.14"/>
<text text-anchor="middle" x="1799.44" y="-163.89" font-family="Times,serif" font-size="14.00">[task] ../../roles/kubeinit_prepare : list all_service_nodes</text>
</a>
</g>
</g>
<!-- Play #1: Main deployment playbook for integrating submariner (0)&#45;&gt;task_bb687a0d&#45;3056&#45;4aa7&#45;81fe&#45;14f622f7adc8 -->
<g id="edge_c566dc5e-1c53-4bd8-895f-4a4f478fd56a" class="edge">
<title>Play #1: Main deployment playbook for integrating submariner (0)-&gt;task_bb687a0d-3056-4aa7-81fe-14f622f7adc8</title>
<path fill="none" stroke="#65a5a8" stroke-width="2" d="M703.42,-419.46C735.4,-369.48 833.03,-230.03 956.76,-178.59 1068.34,-132.21 1387,-141.16 1598.64,-153.31"/>
<polygon fill="#65a5a8" stroke="#65a5a8" stroke-width="2" points="1598.45,-156.81 1608.63,-153.89 1598.85,-149.82 1598.45,-156.81"/>
<text text-anchor="middle" x="1139.76" y="-182.39" font-family="Times,serif" font-size="14.00" fill="#65a5a8">13</text>
<links><link target="task_bb687a0d-3056-4aa7-81fe-14f622f7adc8"/></links></g>
<!-- task_ad1e0aa1&#45;ddea&#45;40d4&#45;a99d&#45;52755bd50e0e -->
<g id="task_ad1e0aa1-ddea-40d4-a99d-52755bd50e0e" class="node">
<title>task_ad1e0aa1-ddea-40d4-a99d-52755bd50e0e</title>
<g id="a_task_ad1e0aa1-ddea-40d4-a99d-52755bd50e0e"><a xlink:title="[task] ../../roles/kubeinit_prepare : list all_bootstrap_nodes">
<polygon fill="none" stroke="black" points="2103.26,-106.14 2103.26,-121.05 1925.29,-131.59 1673.6,-131.59 1495.62,-121.05 1495.62,-106.14 1673.6,-95.59 1925.29,-95.59 2103.26,-106.14"/>
<text text-anchor="middle" x="1799.44" y="-109.89" font-family="Times,serif" font-size="14.00">[task] ../../roles/kubeinit_prepare : list all_bootstrap_nodes</text>
</a>
</g>
</g>
<!-- Play #1: Main deployment playbook for integrating submariner (0)&#45;&gt;task_ad1e0aa1&#45;ddea&#45;40d4&#45;a99d&#45;52755bd50e0e -->
<g id="edge_dc87591e-77d0-4924-a734-3679dce6042c" class="edge">
<title>Play #1: Main deployment playbook for integrating submariner (0)-&gt;task_ad1e0aa1-ddea-40d4-a99d-52755bd50e0e</title>
<path fill="none" stroke="#65a5a8" stroke-width="2" d="M700.53,-419.48C727.54,-362.75 819.49,-188.44 956.76,-123.59 1005.52,-100.56 1277.87,-100.76 1499.76,-105.06"/>
<polygon fill="#65a5a8" stroke="#65a5a8" stroke-width="2" points="1499.89,-108.57 1509.96,-105.26 1500.03,-101.57 1499.89,-108.57"/>
<text text-anchor="middle" x="1139.76" y="-127.39" font-family="Times,serif" font-size="14.00" fill="#65a5a8">14</text>
<links><link target="task_ad1e0aa1-ddea-40d4-a99d-52755bd50e0e"/></links></g>
<!-- task_3718da33&#45;25e0&#45;44ae&#45;933d&#45;49b8e8eb532b -->
<g id="task_3718da33-25e0-44ae-933d-49b8e8eb532b" class="node">
<title>task_3718da33-25e0-44ae-933d-49b8e8eb532b</title>
<g id="a_task_3718da33-25e0-44ae-933d-49b8e8eb532b"><a xlink:title="[task] ../../roles/kubeinit_submariner : Execute subctl verify">
<polygon fill="none" stroke="black" points="2109.92,-52.14 2109.92,-67.05 1928.05,-77.59 1670.84,-77.59 1488.96,-67.05 1488.96,-52.14 1670.84,-41.59 1928.05,-41.59 2109.92,-52.14"/>
<text text-anchor="middle" x="1799.44" y="-55.89" font-family="Times,serif" font-size="14.00">[task] ../../roles/kubeinit_submariner : Execute subctl verify</text>
</a>
</g>
</g>
<!-- Play #1: Main deployment playbook for integrating submariner (0)&#45;&gt;task_3718da33&#45;25e0&#45;44ae&#45;933d&#45;49b8e8eb532b -->
<g id="edge_ccbeb94e-ba7c-48c3-beb1-15ee83be1643" class="edge">
<title>Play #1: Main deployment playbook for integrating submariner (0)-&gt;task_3718da33-25e0-44ae-933d-49b8e8eb532b</title>
<path fill="none" stroke="#65a5a8" stroke-width="2" d="M699.01,-419.53C722.91,-358.54 810.03,-159.76 956.76,-83.59 1206.55,46.07 1556.66,-5.72 1714.93,-39.37"/>
<polygon fill="#65a5a8" stroke="#65a5a8" stroke-width="2" points="1714.56,-42.87 1725.08,-41.56 1716.04,-36.03 1714.56,-42.87"/>
<text text-anchor="middle" x="1139.76" y="-87.39" font-family="Times,serif" font-size="14.00" fill="#65a5a8">15  [when: kubeinit_submariner_is_secondary|bool]</text>
<links><link target="task_3718da33-25e0-44ae-933d-49b8e8eb532b"/></links></g>
</g>
</svg>