<?xml version='1.0' encoding='UTF-8'?>
<!DOCTYPE svg PUBLIC "-//W3C//DTD SVG 1.1//EN" "http://www.w3.org/Graphics/SVG/1.1/DTD/svg11.dtd">
<!-- Generated by graphviz version 2.43.0 (0)
 --><!-- Title: ./playbooks/rke.yml  Pages: 1 --><svg xmlns="http://www.w3.org/2000/svg" xmlns:xlink="http://www.w3.org/1999/xlink" width="2210pt" height="575pt" viewBox="0.00 0.00 2209.77 575.36" id="svg">
<script type="text/javascript" href="https://ajax.googleapis.com/ajax/libs/jquery/3.2.1/jquery.min.js" id="jquery"/><script type="text/javascript" id="my_javascript"><![CDATA[const HOVER_CLASS = "my_hover";

var selectedElement = null;

function addClass(rootElement) {
    $(rootElement).find('link').each(function (index, element) {
        var target = $(element).attr('target');
        var currentElement = $('#' + target);
        currentElement.addClass(HOVER_CLASS);

        addClass(currentElement);
    })
}

function removeClass(rootElement, hover) {
    $(rootElement).find('link').each(function (index, element) {
        if ($(rootElement).attr('id') !== $(selectedElement).attr('id') || !hover) {
            var target = $(element).attr('target');
            var currentElement = $('#' + target);
            currentElement.removeClass(HOVER_CLASS);

            removeClass(currentElement);
        }

    })
}

function hoverIn(event) {
    addClass(event.currentTarget);
}

function hoverOut(event) {
    removeClass(event.currentTarget, true);
}

function clickOnElement(event) {
    var newElement = event.currentTarget;

    if ($(newElement).attr('id') === $(selectedElement).attr('id')) {
        removeClass(selectedElement, false);
    } else {
        removeClass(selectedElement);
        addClass(newElement)
    }

    selectedElement = newElement;
}


$("#svg").ready(function () {

    $("g[id^=play_]").hover(hoverIn, hoverOut);
    $("g[id^=role_]").hover(hoverIn, hoverOut);

    $("g[id^=play_]").click(clickOnElement);
    $("g[id^=role_]").click(clickOnElement);

});
]]></script><style type="text/css" id="my_css"><![CDATA[.node:hover, .edge:hover, path:hover, path + polygon:hover {
    cursor: pointer;
    stroke-width: 3;
    font-weight: bolder;
}

.my_hover {
    cursor: pointer;
    stroke-width: 3;
    font-weight: bolder;
}
]]></style><g id="graph0" class="graph" transform="scale(1 1) rotate(0) translate(4 571.36)">
<title>./playbooks/rke.yml </title>
<polygon fill="white" stroke="transparent" points="-4,4 -4,-571.36 2205.77,-571.36 2205.77,4 -4,4"/>
<!-- ./playbooks/rke.yml -->
<g id="root_node" class="node">
<title>./playbooks/rke.yml</title>
<ellipse fill="none" stroke="black" stroke-dasharray="1,5" cx="100.74" cy="-296.36" rx="100.98" ry="18"/>
<text text-anchor="middle" x="100.74" y="-292.66" font-family="Times,serif" font-size="14.00">./playbooks/rke.yml</text>
</g>
<!-- Play #1: Check Ansible version (1) -->
<g id="play_4fb6c733-3ee9-4802-87a3-7f9cc47c802b" class="node">
<title>Play #1: Check Ansible version (1)</title>
<g id="a_play_4fb6c733-3ee9-4802-87a3-7f9cc47c802b"><a xlink:title="localhost">
<polygon fill="#24ceb6" stroke="#24ceb6" points="510.48,-314.36 247.48,-314.36 247.48,-278.36 510.48,-278.36 510.48,-314.36"/>
<text text-anchor="middle" x="378.98" y="-292.66" font-family="Times,serif" font-size="14.00" fill="#ffffff">Play #1: Check Ansible version (1)</text>
</a>
</g>
<links><link target="edge_49231f76-9be3-4c9e-99f0-3c20e7a0fce2"/><link target="edge_8f49353e-1a9e-4b6f-8c30-42a6612db55e"/><link target="edge_44645cc3-10ea-43db-a706-0b31bacfaf97"/><link target="edge_446040cc-0fd5-4afe-b5d7-bf5e5caf83f6"/><link target="edge_c8cbfe81-4c46-4369-8916-097653b4f886"/><link target="edge_e17ac5a9-ac44-4af7-9158-1f95b30798a3"/><link target="edge_a564aa98-af7a-47ec-bedb-7e8ac38ccfa2"/><link target="edge_1247e6dc-42e3-4641-aeab-d9a9e8dcd869"/><link target="edge_e38e84cc-9ef8-4f76-a827-4e27247ac5b2"/><link target="edge_bc4537c3-8528-49c0-b961-fd262fbe1134"/></links></g>
<!-- ./playbooks/rke.yml&#45;&gt;Play #1: Check Ansible version (1) -->
<g id="edge_176b6c53-0c0a-4428-a004-efc85829ce27" class="edge">
<title>./playbooks/rke.yml-&gt;Play #1: Check Ansible version (1)</title>
<path fill="none" stroke="#24ceb6" stroke-width="2" d="M201.86,-296.36C213.44,-296.36 225.41,-296.36 237.4,-296.36"/>
<polygon fill="#24ceb6" stroke="#24ceb6" stroke-width="2" points="237.47,-299.86 247.47,-296.36 237.47,-292.86 237.47,-299.86"/>
<text text-anchor="middle" x="224.48" y="-300.16" font-family="Times,serif" font-size="14.00" fill="#24ceb6">1</text>
</g>
<!-- pre_task_27235a3d&#45;5b63&#45;4d10&#45;97a9&#45;e8cdf49d7257 -->
<g id="pre_task_27235a3d-5b63-4d10-97a9-e8cdf49d7257" class="node">
<title>pre_task_27235a3d-5b63-4d10-97a9-e8cdf49d7257</title>
<g id="a_pre_task_27235a3d-5b63-4d10-97a9-e8cdf49d7257"><a xlink:title="[pre_task] Check if Ansible meets version requirements.">
<polygon fill="none" stroke="black" points="2165.24,-531.9 2165.24,-546.81 1992.95,-557.36 1749.3,-557.36 1577,-546.81 1577,-531.9 1749.3,-521.36 1992.95,-521.36 2165.24,-531.9"/>
<text text-anchor="middle" x="1871.12" y="-535.66" font-family="Times,serif" font-size="14.00">[pre_task] Check if Ansible meets version requirements.</text>
</a>
</g>
</g>
<!-- Play #1: Check Ansible version (1)&#45;&gt;pre_task_27235a3d&#45;5b63&#45;4d10&#45;97a9&#45;e8cdf49d7257 -->
<g id="edge_49231f76-9be3-4c9e-99f0-3c20e7a0fce2" class="edge">
<title>Play #1: Check Ansible version (1)-&gt;pre_task_27235a3d-5b63-4d10-97a9-e8cdf49d7257</title>
<path fill="none" stroke="#24ceb6" stroke-width="2" d="M385.98,-314.66C401.43,-358.39 447.16,-468.53 528.48,-512.36 617.88,-560.54 1207.92,-555.61 1575.13,-547.57"/>
<polygon fill="#24ceb6" stroke="#24ceb6" stroke-width="2" points="1575.47,-551.06 1585.39,-547.34 1575.31,-544.06 1575.47,-551.06"/>
<text text-anchor="middle" x="1025.48" y="-556.16" font-family="Times,serif" font-size="14.00" fill="#24ceb6">1</text>
<links><link target="pre_task_27235a3d-5b63-4d10-97a9-e8cdf49d7257"/></links></g>
<!-- task_6429f844&#45;53a7&#45;47a6&#45;93e6&#45;1cb2a0316d0e -->
<g id="task_6429f844-53a7-47a6-93e6-1cb2a0316d0e" class="node">
<title>task_6429f844-53a7-47a6-93e6-1cb2a0316d0e</title>
<g id="a_task_6429f844-53a7-47a6-93e6-1cb2a0316d0e"><a xlink:title="[task] ../../roles/kubeinit_prepare : Gather network facts">
<polygon fill="none" stroke="black" points="2163.02,-477.9 2163.02,-492.81 1992.03,-503.36 1750.22,-503.36 1579.22,-492.81 1579.22,-477.9 1750.22,-467.36 1992.03,-467.36 2163.02,-477.9"/>
<text text-anchor="middle" x="1871.12" y="-481.66" font-family="Times,serif" font-size="14.00">[task] ../../roles/kubeinit_prepare : Gather network facts</text>
</a>
</g>
</g>
<!-- Play #1: Check Ansible version (1)&#45;&gt;task_6429f844&#45;53a7&#45;47a6&#45;93e6&#45;1cb2a0316d0e -->
<g id="edge_8f49353e-1a9e-4b6f-8c30-42a6612db55e" class="edge">
<title>Play #1: Check Ansible version (1)-&gt;task_6429f844-53a7-47a6-93e6-1cb2a0316d0e</title>
<path fill="none" stroke="#24ceb6" stroke-width="2" d="M389.93,-314.39C410.45,-349.49 461.24,-426.16 528.48,-456.36 620.5,-497.68 1202.07,-496.37 1568.68,-491.19"/>
<polygon fill="#24ceb6" stroke="#24ceb6" stroke-width="2" points="1568.97,-494.69 1578.92,-491.04 1568.87,-487.69 1568.97,-494.69"/>
<text text-anchor="middle" x="1025.48" y="-497.16" font-family="Times,serif" font-size="14.00" fill="#24ceb6">2</text>
<links><link target="task_6429f844-53a7-47a6-93e6-1cb2a0316d0e"/></links></g>
<!-- task_a259c916&#45;8e43&#45;421e&#45;b0aa&#45;9a22c5ec83f6 -->
<g id="task_a259c916-8e43-421e-b0aa-9a22c5ec83f6" class="node">
<title>task_a259c916-8e43-421e-b0aa-9a22c5ec83f6</title>
<g id="a_task_a259c916-8e43-421e-b0aa-9a22c5ec83f6"><a xlink:title="[task] ../../roles/kubeinit_prepare : Set distro_family for CentOS">
<polygon fill="none" stroke="black" points="2201,-423.9 2201,-438.81 2007.76,-449.36 1734.48,-449.36 1541.25,-438.81 1541.25,-423.9 1734.48,-413.36 2007.76,-413.36 2201,-423.9"/>
<text text-anchor="middle" x="1871.12" y="-427.66" font-family="Times,serif" font-size="14.00">[task] ../../roles/kubeinit_prepare : Set distro_family for CentOS</text>
</a>
</g>
</g>
<!-- Play #1: Check Ansible version (1)&#45;&gt;task_a259c916&#45;8e43&#45;421e&#45;b0aa&#45;9a22c5ec83f6 -->
<g id="edge_44645cc3-10ea-43db-a706-0b31bacfaf97" class="edge">
<title>Play #1: Check Ansible version (1)-&gt;task_a259c916-8e43-421e-b0aa-9a22c5ec83f6</title>
<path fill="none" stroke="#24ceb6" stroke-width="2" d="M396.56,-314.5C421.95,-340.81 473.36,-388.48 528.48,-407.36 620.6,-438.9 1164.6,-439.48 1530.98,-436.08"/>
<polygon fill="#24ceb6" stroke="#24ceb6" stroke-width="2" points="1531.26,-439.58 1541.23,-435.99 1531.19,-432.58 1531.26,-439.58"/>
<text text-anchor="middle" x="1025.48" y="-441.16" font-family="Times,serif" font-size="14.00" fill="#24ceb6">3  [when: (gather_results.ansible_facts.ansible_distribution == 'CentOS' or gather_results.ansible_facts.ansible_distribution == 'RedHat')]</text>
<links><link target="task_a259c916-8e43-421e-b0aa-9a22c5ec83f6"/></links></g>
<!-- task_eafca837&#45;89b2&#45;43ea&#45;a0c4&#45;9c9cd2dac97e -->
<g id="task_eafca837-89b2-43ea-a0c4-9c9cd2dac97e" class="node">
<title>task_eafca837-89b2-43ea-a0c4-9c9cd2dac97e</title>
<g id="a_task_eafca837-89b2-43ea-a0c4-9c9cd2dac97e"><a xlink:title="[task] ../../roles/kubeinit_prepare : Set distro_family for Fedora">
<polygon fill="none" stroke="black" points="2197.46,-369.9 2197.46,-384.81 2006.3,-395.36 1735.95,-395.36 1544.78,-384.81 1544.78,-369.9 1735.95,-359.36 2006.3,-359.36 2197.46,-369.9"/>
<text text-anchor="middle" x="1871.12" y="-373.66" font-family="Times,serif" font-size="14.00">[task] ../../roles/kubeinit_prepare : Set distro_family for Fedora</text>
</a>
</g>
</g>
<!-- Play #1: Check Ansible version (1)&#45;&gt;task_eafca837&#45;89b2&#45;43ea&#45;a0c4&#45;9c9cd2dac97e -->
<g id="edge_446040cc-0fd5-4afe-b5d7-bf5e5caf83f6" class="edge">
<title>Play #1: Check Ansible version (1)-&gt;task_eafca837-89b2-43ea-a0c4-9c9cd2dac97e</title>
<path fill="none" stroke="#24ceb6" stroke-width="2" d="M436.48,-314.4C463.95,-322.35 497.62,-330.88 528.48,-335.36 885.29,-387.12 1300.84,-391.65 1573.81,-387.14"/>
<polygon fill="#24ceb6" stroke="#24ceb6" stroke-width="2" points="1573.93,-390.64 1583.87,-386.97 1573.81,-383.64 1573.93,-390.64"/>
<text text-anchor="middle" x="1025.48" y="-392.16" font-family="Times,serif" font-size="14.00" fill="#24ceb6">4  [when: (gather_results.ansible_facts.ansible_distribution == 'Fedora')]</text>
<links><link target="task_eafca837-89b2-43ea-a0c4-9c9cd2dac97e"/></links></g>
<!-- task_90a7425c&#45;66bd&#45;45bc&#45;ae8f&#45;4cd3e9c0006a -->
<g id="task_90a7425c-66bd-45bc-ae8f-4cd3e9c0006a" class="node">
<title>task_90a7425c-66bd-45bc-ae8f-4cd3e9c0006a</title>
<g id="a_task_90a7425c-66bd-45bc-ae8f-4cd3e9c0006a"><a xlink:title="[task] ../../roles/kubeinit_prepare : Set distro_family for Debian">
<polygon fill="none" stroke="black" points="2197.46,-315.9 2197.46,-330.81 2006.3,-341.36 1735.95,-341.36 1544.78,-330.81 1544.78,-315.9 1735.95,-305.36 2006.3,-305.36 2197.46,-315.9"/>
<text text-anchor="middle" x="1871.12" y="-319.66" font-family="Times,serif" font-size="14.00">[task] ../../roles/kubeinit_prepare : Set distro_family for Debian</text>
</a>
</g>
</g>
<!-- Play #1: Check Ansible version (1)&#45;&gt;task_90a7425c&#45;66bd&#45;45bc&#45;ae8f&#45;4cd3e9c0006a -->
<g id="edge_c8cbfe81-4c46-4369-8916-097653b4f886" class="edge">
<title>Play #1: Check Ansible version (1)-&gt;task_90a7425c-66bd-45bc-ae8f-4cd3e9c0006a</title>
<path fill="none" stroke="#24ceb6" stroke-width="2" d="M510.59,-298.72C737.38,-302.83 1210.69,-311.41 1534.44,-317.27"/>
<polygon fill="#24ceb6" stroke="#24ceb6" stroke-width="2" points="1534.39,-320.77 1544.46,-317.46 1534.52,-313.77 1534.39,-320.77"/>
<text text-anchor="middle" x="1025.48" y="-320.16" font-family="Times,serif" font-size="14.00" fill="#24ceb6">5  [when: (gather_results.ansible_facts.ansible_distribution == 'Debian' or gather_results.ansible_facts.ansible_distribution == 'Ubuntu')]</text>
<links><link target="task_90a7425c-66bd-45bc-ae8f-4cd3e9c0006a"/></links></g>
<!-- task_dc0f2309&#45;42cb&#45;4d48&#45;8643&#45;2a139c948753 -->
<g id="task_dc0f2309-42cb-4d48-8643-2a139c948753" class="node">
<title>task_dc0f2309-42cb-4d48-8643-2a139c948753</title>
<g id="a_task_dc0f2309-42cb-4d48-8643-2a139c948753"><a xlink:title="[task] ../../roles/kubeinit_prepare : Fails if OS is not supported">
<polygon fill="none" stroke="black" points="2193.52,-261.9 2193.52,-276.81 2004.67,-287.36 1737.58,-287.36 1548.72,-276.81 1548.72,-261.9 1737.58,-251.36 2004.67,-251.36 2193.52,-261.9"/>
<text text-anchor="middle" x="1871.12" y="-265.66" font-family="Times,serif" font-size="14.00">[task] ../../roles/kubeinit_prepare : Fails if OS is not supported</text>
</a>
</g>
</g>
<!-- Play #1: Check Ansible version (1)&#45;&gt;task_dc0f2309&#45;42cb&#45;4d48&#45;8643&#45;2a139c948753 -->
<g id="edge_e17ac5a9-ac44-4af7-9158-1f95b30798a3" class="edge">
<title>Play #1: Check Ansible version (1)-&gt;task_dc0f2309-42cb-4d48-8643-2a139c948753</title>
<path fill="none" stroke="#24ceb6" stroke-width="2" d="M510.7,-280.61C516.7,-280.13 522.65,-279.71 528.48,-279.36 872.55,-258.44 1267.15,-258.36 1538.89,-262.02"/>
<polygon fill="#24ceb6" stroke="#24ceb6" stroke-width="2" points="1538.86,-265.52 1548.9,-262.16 1538.95,-258.52 1538.86,-265.52"/>
<text text-anchor="middle" x="1025.48" y="-283.16" font-family="Times,serif" font-size="14.00" fill="#24ceb6">6  [when: not distro_family is defined]</text>
<links><link target="task_dc0f2309-42cb-4d48-8643-2a139c948753"/></links></g>
<!-- task_a1da797f&#45;2834&#45;42b0&#45;84e7&#45;d7bfb6b08f46 -->
<g id="task_a1da797f-2834-42b0-84e7-d7bfb6b08f46" class="node">
<title>task_a1da797f-2834-42b0-84e7-d7bfb6b08f46</title>
<g id="a_task_a1da797f-2834-42b0-84e7-d7bfb6b08f46"><a xlink:title="[task] ../../roles/kubeinit_prepare : Add ansible facts to hostvars">
<polygon fill="none" stroke="black" points="2201.91,-207.9 2201.91,-222.81 2008.14,-233.36 1734.11,-233.36 1540.34,-222.81 1540.34,-207.9 1734.11,-197.36 2008.14,-197.36 2201.91,-207.9"/>
<text text-anchor="middle" x="1871.12" y="-211.66" font-family="Times,serif" font-size="14.00">[task] ../../roles/kubeinit_prepare : Add ansible facts to hostvars</text>
</a>
</g>
</g>
<!-- Play #1: Check Ansible version (1)&#45;&gt;task_a1da797f&#45;2834&#45;42b0&#45;84e7&#45;d7bfb6b08f46 -->
<g id="edge_a564aa98-af7a-47ec-bedb-7e8ac38ccfa2" class="edge">
<title>Play #1: Check Ansible version (1)-&gt;task_a1da797f-2834-42b0-84e7-d7bfb6b08f46</title>
<path fill="none" stroke="#24ceb6" stroke-width="2" d="M417.09,-278.29C446.52,-264.97 489.11,-247.91 528.48,-240.36 933.74,-162.57 1420.51,-180.46 1681.97,-198.87"/>
<polygon fill="#24ceb6" stroke="#24ceb6" stroke-width="2" points="1682.1,-202.38 1692.33,-199.6 1682.6,-195.4 1682.1,-202.38"/>
<text text-anchor="middle" x="1025.48" y="-244.16" font-family="Times,serif" font-size="14.00" fill="#24ceb6">7</text>
<links><link target="task_a1da797f-2834-42b0-84e7-d7bfb6b08f46"/></links></g>
<!-- task_57a000bf&#45;57b0&#45;4ff7&#45;997b&#45;9fbe9744c29d -->
<g id="task_57a000bf-57b0-4ff7-997b-9fbe9744c29d" class="node">
<title>task_57a000bf-57b0-4ff7-997b-9fbe9744c29d</title>
<g id="a_task_57a000bf-57b0-4ff7-997b-9fbe9744c29d"><a xlink:title="[task] ../../roles/kubeinit_prepare : Clear gather_results">
<polygon fill="none" stroke="black" points="2159.49,-153.9 2159.49,-168.81 1990.57,-179.36 1751.68,-179.36 1582.76,-168.81 1582.76,-153.9 1751.68,-143.36 1990.57,-143.36 2159.49,-153.9"/>
<text text-anchor="middle" x="1871.12" y="-157.66" font-family="Times,serif" font-size="14.00">[task] ../../roles/kubeinit_prepare : Clear gather_results</text>
</a>
</g>
</g>
<!-- Play #1: Check Ansible version (1)&#45;&gt;task_57a000bf&#45;57b0&#45;4ff7&#45;997b&#45;9fbe9744c29d -->
<g id="edge_1247e6dc-42e3-4641-aeab-d9a9e8dcd869" class="edge">
<title>Play #1: Check Ansible version (1)-&gt;task_57a000bf-57b0-4ff7-997b-9fbe9744c29d</title>
<path fill="none" stroke="#24ceb6" stroke-width="2" d="M392.99,-278.12C416.12,-247.45 467.72,-186.64 528.48,-163.36 625.65,-126.12 1240.91,-139.9 1603.61,-151.61"/>
<polygon fill="#24ceb6" stroke="#24ceb6" stroke-width="2" points="1603.62,-155.11 1613.73,-151.94 1603.85,-148.11 1603.62,-155.11"/>
<text text-anchor="middle" x="1025.48" y="-167.16" font-family="Times,serif" font-size="14.00" fill="#24ceb6">8</text>
<links><link target="task_57a000bf-57b0-4ff7-997b-9fbe9744c29d"/></links></g>
<!-- task_fd8a9b8c&#45;2b83&#45;4102&#45;9646&#45;3c93538e32a6 -->
<g id="task_fd8a9b8c-2b83-4102-9646-3c93538e32a6" class="node">
<title>task_fd8a9b8c-2b83-4102-9646-3c93538e32a6</title>
<g id="a_task_fd8a9b8c-2b83-4102-9646-3c93538e32a6"><a xlink:title="[task] Check to see if we should stop here">
<polygon fill="none" stroke="black" points="2092.82,-99.9 2092.82,-114.81 1962.95,-125.36 1779.29,-125.36 1649.42,-114.81 1649.42,-99.9 1779.29,-89.36 1962.95,-89.36 2092.82,-99.9"/>
<text text-anchor="middle" x="1871.12" y="-103.66" font-family="Times,serif" font-size="14.00">[task] Check to see if we should stop here</text>
</a>
</g>
</g>
<!-- Play #1: Check Ansible version (1)&#45;&gt;task_fd8a9b8c&#45;2b83&#45;4102&#45;9646&#45;3c93538e32a6 -->
<g id="edge_e38e84cc-9ef8-4f76-a827-4e27247ac5b2" class="edge">
<title>Play #1: Check Ansible version (1)-&gt;task_fd8a9b8c-2b83-4102-9646-3c93538e32a6</title>
<path fill="none" stroke="#24ceb6" stroke-width="2" d="M388.48,-278.15C407.35,-240.15 456.84,-153.16 528.48,-119.36 626.29,-73.21 1288.26,-87.7 1644.38,-99.14"/>
<polygon fill="#24ceb6" stroke="#24ceb6" stroke-width="2" points="1644.46,-102.64 1654.56,-99.47 1644.68,-95.65 1644.46,-102.64"/>
<text text-anchor="middle" x="1025.48" y="-123.16" font-family="Times,serif" font-size="14.00" fill="#24ceb6">9  [when: kubeinit_stop_after_task is defined and kubeinit_stop_after_task == 'task-gather-hypervisor-facts']</text>
<links><link target="task_fd8a9b8c-2b83-4102-9646-3c93538e32a6"/></links></g>
<!-- task_34512da7&#45;1c2d&#45;474c&#45;ba2d&#45;d435e4d28970 -->
<g id="task_34512da7-1c2d-474c-ba2d-d435e4d28970" class="node">
<title>task_34512da7-1c2d-474c-ba2d-d435e4d28970</title>
<g id="a_task_34512da7-1c2d-474c-ba2d-d435e4d28970"><a xlink:title="[task] End play">
<polygon fill="none" stroke="black" points="1959,-45.9 1959,-60.81 1907.52,-71.36 1834.73,-71.36 1783.25,-60.81 1783.25,-45.9 1834.73,-35.36 1907.52,-35.36 1959,-45.9"/>
<text text-anchor="middle" x="1871.12" y="-49.66" font-family="Times,serif" font-size="14.00">[task] End play</text>
</a>
</g>
</g>
<!-- Play #1: Check Ansible version (1)&#45;&gt;task_34512da7&#45;1c2d&#45;474c&#45;ba2d&#45;d435e4d28970 -->
<g id="edge_bc4537c3-8528-49c0-b961-fd262fbe1134" class="edge">
<title>Play #1: Check Ansible version (1)-&gt;task_34512da7-1c2d-474c-ba2d-d435e4d28970</title>
<path fill="none" stroke="#24ceb6" stroke-width="2" d="M385.31,-278.03C399.65,-232.56 443.81,-114.87 528.48,-68.36 743.66,49.85 1514.09,-16.44 1779.5,-43.53"/>
<polygon fill="#24ceb6" stroke="#24ceb6" stroke-width="2" points="1779.18,-47.02 1789.49,-44.56 1779.9,-40.06 1779.18,-47.02"/>
<text text-anchor="middle" x="1025.48" y="-72.16" font-family="Times,serif" font-size="14.00" fill="#24ceb6">10  [when: kubeinit_stop_after_task is defined and kubeinit_stop_after_task == 'task-gather-hypervisor-facts']</text>
<links><link target="task_34512da7-1c2d-474c-ba2d-d435e4d28970"/></links></g>
</g>
</svg>