<?xml version="1.0" encoding="UTF-8" standalone="no"?>
<!-- Created with Inkscape (http://www.inkscape.org/) -->

<svg
   xmlns:dc="http://purl.org/dc/elements/1.1/"
   xmlns:cc="http://creativecommons.org/ns#"
   xmlns:rdf="http://www.w3.org/1999/02/22-rdf-syntax-ns#"
   xmlns:svg="http://www.w3.org/2000/svg"
   xmlns="http://www.w3.org/2000/svg"
   xmlns:sodipodi="http://sodipodi.sourceforge.net/DTD/sodipodi-0.dtd"
   xmlns:inkscape="http://www.inkscape.org/namespaces/inkscape"
   width="140mm"
   height="40mm"
   viewBox="0 0 140 40"
   version="1.1"
   id="svg8"
   inkscape:version="0.92.3 (2405546, 2018-03-11)"
   sodipodi:docname="logo.svg">
  <defs
     id="defs2" />
  <sodipodi:namedview
     id="base"
     pagecolor="#ffffff"
     bordercolor="#666666"
     borderopacity="1.0"
     inkscape:pageopacity="0.0"
     inkscape:pageshadow="2"
     inkscape:zoom="1.979899"
     inkscape:cx="289.85802"
     inkscape:cy="91.55378"
     inkscape:document-units="mm"
     inkscape:current-layer="layer1"
     showgrid="false"
     inkscape:snap-bbox="true"
     inkscape:bbox-paths="true"
     inkscape:snap-bbox-edge-midpoints="true"
     inkscape:bbox-nodes="true"
     inkscape:snap-bbox-midpoints="true"
     inkscape:window-width="3840"
     inkscape:window-height="1537"
     inkscape:window-x="-8"
     inkscape:window-y="-8"
     inkscape:window-maximized="1"
     inkscape:object-nodes="true"
     inkscape:snap-intersection-paths="true"
     inkscape:snap-smooth-nodes="true" />
  <metadata
     id="metadata5">
    <rdf:RDF>
      <cc:Work
         rdf:about="">
        <dc:format>image/svg+xml</dc:format>
        <dc:type
           rdf:resource="http://purl.org/dc/dcmitype/StillImage" />
        <dc:title />
      </cc:Work>
    </rdf:RDF>
  </metadata>
  <g
     inkscape:label="Layer 1"
     inkscape:groupmode="layer"
     id="layer1"
     transform="translate(0,-257)">
    <g
       id="g972">
      <path
         inkscape:export-filename="C:\Users\strix\Dropbox\kubeinit\docs\src\white_text_logo.png"
         inkscape:export-ydpi="100.095"
         inkscape:export-xdpi="100.095"
         inkscape:connector-curvature="0"
         id="path1036-2-6"
         d="m 17.628699,257.01627 v 5.3e-4 c -0.411777,0.012 -0.827544,0.12387 -1.211174,0.34537 l -15.045524,8.6866 c -0.04268,0.0247 -0.08206,0.0522 -0.122706,0.0788 -0.736422,0.44742 -1.228627,1.25757 -1.228627,2.18911 v 17.3732 c 0,0.97538 0.538029,1.81957 1.332821,2.25151 0.0051,0.003 0.0092,0.006 0.01481,0.009 l 15.044999,8.68661 c 0.01075,0.006 0.02204,0.0109 0.03279,0.0169 0.05343,0.0303 0.108697,0.0576 0.164486,0.0841 0.01607,0.007 0.03196,0.0161 0.04813,0.0232 0.06591,0.0296 0.133779,0.0554 0.202566,0.0793 0.01116,0.004 0.02217,0.008 0.03332,0.0122 0.06949,0.0231 0.140118,0.0426 0.212087,0.0598 0.01044,0.002 0.02077,0.005 0.03121,0.008 0.06274,0.0141 0.126502,0.025 0.190932,0.0344 0.0219,0.003 0.04368,0.007 0.06558,0.009 0.05527,0.006 0.111392,0.0102 0.16766,0.0132 0.02876,10e-4 0.05755,0.004 0.08621,0.004 0.01709,3.4e-4 0.03368,0.003 0.05078,0.003 0.03828,0 0.07532,-0.004 0.113184,-0.006 0.02907,-10e-4 0.05821,-0.002 0.08727,-0.004 0.05516,-0.004 0.109347,-0.0113 0.163428,-0.019 0.02774,-0.004 0.0555,-0.008 0.08304,-0.0127 0.05557,-0.0102 0.110254,-0.0215 0.164489,-0.0349 0.02497,-0.006 0.0498,-0.0127 0.07457,-0.0196 0.05496,-0.0153 0.108996,-0.0324 0.162372,-0.0513 0.02354,-0.008 0.04648,-0.0169 0.06981,-0.0259 0.05312,-0.0206 0.105267,-0.0427 0.156553,-0.0666 0.02344,-0.0109 0.04668,-0.0222 0.06982,-0.0339 0.04882,-0.0247 0.09631,-0.0511 0.143329,-0.0788 0.02651,-0.0156 0.05281,-0.0311 0.07881,-0.0476 0.03756,-0.0241 0.07429,-0.0491 0.110538,-0.0751 0.03439,-0.0246 0.06829,-0.0498 0.10155,-0.0761 0.03029,-0.0241 0.05969,-0.0491 0.08886,-0.0746 0.03367,-0.0294 0.06719,-0.0592 0.09943,-0.0905 0.02518,-0.0245 0.04936,-0.0496 0.07352,-0.0751 0.03316,-0.035 0.06589,-0.0702 0.09731,-0.10738 0.02436,-0.0288 0.04732,-0.0585 0.07034,-0.0883 0.026,-0.0337 0.05171,-0.0674 0.07616,-0.10261 0.026,-0.0373 0.05052,-0.0755 0.07457,-0.11424 0.01433,-0.023 0.03018,-0.0445 0.0439,-0.0683 0.0061,-0.0105 0.01046,-0.0217 0.0164,-0.0322 0.0219,-0.0392 0.04159,-0.0796 0.06135,-0.12007 0.01832,-0.0371 0.03704,-0.074 0.05342,-0.1116 0.01402,-0.0324 0.02592,-0.0658 0.03861,-0.0989 0.01863,-0.0483 0.03691,-0.0966 0.05236,-0.14544 0.0072,-0.0228 0.01302,-0.0462 0.01957,-0.0693 0.01689,-0.0592 0.0331,-0.11852 0.04548,-0.17824 0.0041,-0.0195 0.0059,-0.0396 0.01003,-0.0593 0.01146,-0.0623 0.02191,-0.12462 0.02856,-0.18722 0.0031,-0.0319 0.0043,-0.0645 0.0074,-0.0968 0.0031,-0.0469 0.0069,-0.0939 0.0069,-0.14069 2.66e-4,-0.0157 0.0021,-0.0308 0.0021,-0.0466 v -15.98009 l 3.170737,-1.83051 c 1.227621,-0.70876 1.648179,-2.26253 0.943022,-3.48385 -0.705126,-1.22132 -2.260982,-1.63379 -3.488601,-0.92504 l -4.431628,2.55881 c -0.84399,0.48727 -1.306605,1.37395 -1.284161,2.27743 -3.1e-5,0.004 -5.28e-4,0.007 -5.28e-4,0.0105 V 290.03 L 5.111244,284.23339 v -14.46585 l 12.589858,-7.26862 12.946333,7.47384 v 14.46162 l -3.170735,1.83051 c -1.227601,0.70875 -1.648676,2.26253 -0.943553,3.48384 0.705156,1.22133 2.261543,1.6338 3.489133,0.92504 l 4.431625,-2.55827 c 0.0216,-0.0124 0.0408,-0.0272 0.06188,-0.0402 0.04749,-0.0291 0.09479,-0.0584 0.140156,-0.0905 0.02139,-0.0151 0.04153,-0.0314 0.06241,-0.0471 0.04462,-0.0336 0.08844,-0.0679 0.13064,-0.10419 0.02712,-0.0233 0.05281,-0.0477 0.07881,-0.072 0.03377,-0.0316 0.06793,-0.0633 0.09996,-0.0968 0.02548,-0.0265 0.04883,-0.054 0.07298,-0.0815 0.03101,-0.0353 0.0619,-0.0709 0.09097,-0.1079 0.02292,-0.0292 0.04462,-0.0589 0.06612,-0.0888 0.02497,-0.0348 0.04923,-0.0697 0.07246,-0.10578 0.02282,-0.0354 0.04417,-0.0715 0.06505,-0.1079 0.01985,-0.0345 0.03943,-0.0692 0.05765,-0.10472 0.02027,-0.0392 0.039,-0.0789 0.05712,-0.119 0.01494,-0.0331 0.02923,-0.0662 0.04284,-0.1 0.01873,-0.0467 0.03544,-0.0941 0.05131,-0.14174 0.01023,-0.0294 0.01975,-0.0585 0.02855,-0.0883 0.01453,-0.0495 0.02704,-0.0994 0.03861,-0.14968 0.0072,-0.0316 0.01449,-0.0631 0.02063,-0.0952 0.01054,-0.0558 0.01853,-0.11182 0.02539,-0.16819 0.0031,-0.0251 0.0064,-0.0499 0.0095,-0.0751 0.0051,-0.0583 0.008,-0.11682 0.009,-0.17559 5.42e-4,-0.022 0.0032,-0.0434 0.0032,-0.0656 v -17.37267 c 0,-0.9876 -0.551747,-1.84 -1.362966,-2.26685 -0.01873,-0.0115 -0.03596,-0.0244 -0.055,-0.0354 l -15.0455,-8.68654 c -0.04984,-0.0288 -0.100925,-0.0526 -0.151795,-0.0778 -0.440873,-0.29667 -0.964076,-0.44971 -1.495189,-0.43422 z m 7.838776,21.98465 a 2.5435513,2.5435513 0 0 0 -1.211702,0.34008 2.5435513,2.5435513 0 0 0 -0.931386,3.47485 2.5435513,2.5435513 0 0 0 3.474851,0.93086 2.5435513,2.5435513 0 0 0 0.930858,-3.47433 2.5435513,2.5435513 0 0 0 -2.262621,-1.27146 z"
         style="opacity:1;vector-effect:none;fill:#fc624d;fill-opacity:1;stroke:#fc624d;stroke-width:0.03028558;stroke-linecap:round;stroke-linejoin:miter;stroke-miterlimit:4;stroke-dasharray:none;stroke-dashoffset:0;stroke-opacity:1" />
      <path
         inkscape:export-filename="C:\Users\strix\Dropbox\kubeinit\docs\src\white_text_logo.png"
         inkscape:export-ydpi="100.095"
         inkscape:export-xdpi="100.095"
         d="m 41.742232,288.02195 c 0.978869,0 1.736704,-0.78941 1.736704,-1.7367 v -4.48386 l 3.283948,-3.3471 6.820509,8.93613 c 0.34734,0.41049 0.820987,0.63153 1.294633,0.63153 0.410494,0 0.789411,-0.12631 1.105175,-0.41049 0.757834,-0.59996 0.88414,-1.70513 0.252611,-2.43139 l -7.009967,-9.18874 6.946814,-6.91523 c 0.663106,-0.69469 0.663106,-1.79986 0,-2.46296 -0.694681,-0.69469 -1.768279,-0.69469 -2.462961,0 l -10.230762,10.26233 v -9.06244 c 0,-0.91571 -0.757835,-1.73669 -1.736704,-1.73669 -0.978869,0 -1.736703,0.82098 -1.736703,1.73669 v 18.47222 c 0,0.94729 0.757834,1.7367 1.736703,1.7367 z"
         style="font-style:normal;font-variant:normal;font-weight:bold;font-stretch:normal;font-size:medium;line-height:1.25;font-family:Quicksand;-inkscape-font-specification:'Quicksand Bold';letter-spacing:-2.6220212px;word-spacing:0px;fill:#000000;fill-opacity:1;stroke:none;stroke-width:0.78941065"
         id="path879"
         inkscape:connector-curvature="0" />
      <path
         inkscape:export-filename="C:\Users\strix\Dropbox\kubeinit\docs\src\white_text_logo.png"
         inkscape:export-ydpi="100.095"
         inkscape:export-xdpi="100.095"
         d="m 70.442658,281.45405 v -7.54677 c 0,-0.88414 -0.820993,-1.67355 -1.705134,-1.67355 -0.947281,0 -1.641967,0.78941 -1.641967,1.67355 v 7.54677 c -0.03154,1.79985 -1.484088,3.2208 -3.31552,3.2208 -1.799857,0 -3.220796,-1.42095 -3.220796,-3.2208 v -7.54677 c 0,-0.88414 -0.726258,-1.67355 -1.673551,-1.67355 -0.915716,0 -1.67355,0.78941 -1.67355,1.67355 v 7.54677 c 0,3.59972 2.968184,6.5679 6.567897,6.5679 3.631283,0 6.662621,-2.96818 6.662621,-6.5679 z"
         style="font-style:normal;font-variant:normal;font-weight:bold;font-stretch:normal;font-size:medium;line-height:1.25;font-family:Quicksand;-inkscape-font-specification:'Quicksand Bold';letter-spacing:-2.6220212px;word-spacing:0px;fill:#000000;fill-opacity:1;stroke:none;stroke-width:0.78941065"
         id="path881"
         inkscape:connector-curvature="0" />
      <path
         inkscape:export-filename="C:\Users\strix\Dropbox\kubeinit\docs\src\white_text_logo.png"
         inkscape:export-ydpi="100.095"
         inkscape:export-xdpi="100.095"
         d="m 72.29374,286.31682 c 0,0.91572 0.757826,1.70513 1.705124,1.70513 0.852566,0 1.515672,-0.59995 1.67355,-1.35779 1.199906,0.82099 2.715578,1.35779 4.294397,1.35779 4.262813,0 7.67307,-3.59971 7.67307,-7.86253 0,-4.32597 -3.410257,-7.92569 -7.67307,-7.92569 -1.547246,0 -3.062918,0.50523 -4.23124,1.32621 v -5.93636 c 0,-0.91572 -0.757836,-1.70513 -1.736707,-1.70513 -0.947298,0 -1.705124,0.78941 -1.705124,1.70513 v 12.50426 c 0,0 0,0 0,0.0315 0,0 0,0 0,0 z m 4.704884,-9.34662 c 0.78941,-0.82099 1.799854,-1.29464 2.968187,-1.29464 1.136749,0 2.178767,0.47365 2.968177,1.29464 0.789419,0.78941 1.263063,1.92616 1.263063,3.18922 0,1.1999 -0.473644,2.33666 -1.263063,3.12607 -0.78941,0.82098 -1.831428,1.29463 -2.968177,1.29463 -1.168333,0 -2.178777,-0.47365 -2.968187,-1.29463 -0.78941,-0.78941 -1.263053,-1.92617 -1.263053,-3.12607 0,-1.26306 0.473643,-2.39981 1.263053,-3.18922 z"
         style="font-style:normal;font-variant:normal;font-weight:bold;font-stretch:normal;font-size:medium;line-height:1.25;font-family:Quicksand;-inkscape-font-specification:'Quicksand Bold';letter-spacing:-2.6220212px;word-spacing:0px;fill:#000000;fill-opacity:1;stroke:none;stroke-width:0.78941065"
         id="path883"
         inkscape:connector-curvature="0" />
      <path
         inkscape:export-filename="C:\Users\strix\Dropbox\kubeinit\docs\src\white_text_logo.png"
         inkscape:export-ydpi="100.095"
         inkscape:export-xdpi="100.095"
         d="m 96.680034,288.02195 c 2.241925,0 4.104936,-0.66311 5.652186,-2.08404 0.72626,-0.66311 0.41049,-1.6104 0,-2.05247 -0.4105,-0.50522 -1.70513,-0.59995 -2.368233,0.0947 -0.78941,0.59995 -2.147204,0.88414 -3.283953,0.78941 -1.105175,-0.0947 -2.368229,-0.66311 -3.031334,-1.42094 -0.568374,-0.53681 -0.915714,-1.35779 -1.073601,-2.08404 h 10.041311 c 0.88414,0 1.54723,-0.50523 1.64196,-1.26306 0.0315,-0.0632 0.0315,-0.22104 0.0315,-0.28419 0,0 0,0 0,0 0,0 0,0 0,0 0,-0.0632 0,-0.12631 0,-0.15788 -0.25262,-4.26282 -3.50499,-7.32574 -7.609925,-7.32574 -4.32597,0 -7.67307,3.59972 -7.704644,7.89411 0.03154,4.2944 3.378674,7.86253 7.704644,7.89411 z m 0,-12.78846 c 2.747152,0.22104 4.357546,2.08405 4.673306,3.3471 h -8.93612 c 0.252609,-1.29462 1.57882,-3.22079 4.262814,-3.3471 z"
         style="font-style:normal;font-variant:normal;font-weight:bold;font-stretch:normal;font-size:medium;line-height:1.25;font-family:Quicksand;-inkscape-font-specification:'Quicksand Bold';letter-spacing:-2.6220212px;word-spacing:0px;fill:#000000;fill-opacity:1;stroke:none;stroke-width:0.78941065"
         id="path885"
         inkscape:connector-curvature="0" />
      <path
         inkscape:export-filename="C:\Users\strix\Dropbox\kubeinit\docs\src\white_text_logo.png"
         inkscape:export-ydpi="100.095"
         inkscape:export-xdpi="100.095"
         d="m 118.36696,272.23373 c -1.23148,0 -2.39981,0.37893 -3.3471,0.97888 -0.28419,-0.59995 -0.88414,-0.97888 -1.54725,-0.97888 -0.94729,0 -1.67355,0.75784 -1.67355,1.67355 v 4.89435 c 0,0 0,0 0,0 v 7.54677 c 0,0.91572 0.72626,1.67355 1.67355,1.67355 0.82099,0 1.51568,-0.59995 1.67355,-1.35779 0.0632,-0.1263 0.0632,-0.22103 0.0632,-0.31576 v -7.54677 c 0,-1.76828 1.38937,-3.18921 3.15765,-3.18921 1.79985,0 3.28395,1.42093 3.28395,3.18921 v 7.54677 c 0,0.91572 0.78941,1.67355 1.67355,1.67355 0.91571,0 1.64197,-0.75783 1.64197,-1.67355 v -7.54677 c 0,-3.56814 -2.93661,-6.5679 -6.59947,-6.5679 z"
         style="font-style:normal;font-variant:normal;font-weight:bold;font-stretch:normal;font-size:medium;line-height:1.25;font-family:Quicksand;-inkscape-font-specification:'Quicksand Bold';letter-spacing:-2.6220212px;word-spacing:0px;fill:#000000;fill-opacity:1;stroke:none;stroke-width:0.78941065"
         id="path889"
         inkscape:connector-curvature="0" />
      <path
         inkscape:export-filename="C:\Users\strix\Dropbox\kubeinit\docs\src\white_text_logo.png"
         inkscape:export-ydpi="100.095"
         inkscape:export-xdpi="100.095"
         d="m 484.91992,57.695312 c -3.58031,0 -6.44531,2.745468 -6.44531,6.564454 v 46.544924 c 0,3.58034 2.865,6.44336 6.44531,6.44336 3.69967,0 6.44336,-2.86302 6.44336,-6.44336 V 64.259766 c 0,-3.818986 -2.74369,-6.564453 -6.44336,-6.564454 z"
         style="font-style:normal;font-variant:normal;font-weight:bold;font-stretch:normal;font-size:medium;line-height:1.25;font-family:Quicksand;-inkscape-font-specification:'Quicksand Bold';letter-spacing:-2.6220212px;word-spacing:0px;fill:#000000;fill-opacity:1;stroke:none;stroke-width:2.98359942"
         transform="matrix(0.26458333,0,0,0.26458333,0,257)"
         id="path891" />
      <path
         inkscape:export-filename="C:\Users\strix\Dropbox\kubeinit\docs\src\white_text_logo.png"
         inkscape:export-ydpi="100.095"
         inkscape:export-xdpi="100.095"
         d="m 138.23725,272.23373 h -0.78942 v -4.57858 c 0,-0.97887 -0.75783,-1.7367 -1.7367,-1.7367 -0.97887,0 -1.76828,0.75783 -1.76828,1.7367 v 4.57858 h -0.91571 c -0.97887,0 -1.73671,0.75784 -1.73671,1.73671 0,0.94729 0.75784,1.7367 1.73671,1.7367 h 0.91571 v 8.80983 c 0,1.92616 1.57882,3.50498 3.50498,3.50498 0.97887,0 1.73671,-0.75783 1.73671,-1.7367 0,-0.97887 -0.75784,-1.76828 -1.73671,-1.76828 0,0 0,0 0,0 v -8.80983 h 0.78942 c 0.94729,0 1.76828,-0.78941 1.76828,-1.7367 0,-0.97887 -0.82099,-1.73671 -1.76828,-1.73671 z"
         style="font-style:normal;font-variant:normal;font-weight:bold;font-stretch:normal;font-size:medium;line-height:1.25;font-family:Quicksand;-inkscape-font-specification:'Quicksand Bold';letter-spacing:-2.6220212px;word-spacing:0px;fill:#000000;fill-opacity:1;stroke:none;stroke-width:0.78941065"
         id="path893"
         inkscape:connector-curvature="0" />
      <path
         inkscape:export-filename="C:\Users\strix\Dropbox\kubeinit\docs\src\white_text_logo.png"
         inkscape:export-ydpi="100.095"
         inkscape:export-xdpi="100.095"
         id="path891-4"
         transform="matrix(0.26458333,0,0,0.26458333,0,257)"
         d="M 408.99219 47.695312 C 405.41188 47.695312 402.54687 50.44078 402.54688 54.259766 L 402.54688 64.259766 L 402.54688 100.80469 L 402.54688 110.80469 C 402.54688 114.38503 405.41188 117.24805 408.99219 117.24805 C 412.69185 117.24805 415.43555 114.38503 415.43555 110.80469 L 415.43555 100.80469 L 415.43555 64.259766 L 415.43555 54.259766 C 415.43555 50.44078 412.69185 47.695312 408.99219 47.695312 z "
         style="font-style:normal;font-variant:normal;font-weight:bold;font-stretch:normal;font-size:medium;line-height:1.25;font-family:Quicksand;-inkscape-font-specification:'Quicksand Bold';letter-spacing:-2.6220212px;word-spacing:0px;fill:#000000;fill-opacity:1;stroke:none;stroke-width:2.98359942" />
      <circle
         inkscape:export-filename="C:\Users\strix\Dropbox\kubeinit\docs\src\white_text_logo.png"
         inkscape:export-ydpi="100.095"
         inkscape:export-xdpi="100.095"
         r="2.4881999"
         cy="266.06107"
         cx="108.21243"
         id="path886-5"
         style="opacity:1;vector-effect:none;fill:#fc624d;fill-opacity:1;stroke:#fc624d;stroke-width:0.02359987;stroke-linecap:round;stroke-linejoin:miter;stroke-miterlimit:4;stroke-dasharray:none;stroke-dashoffset:0;stroke-opacity:1" />
    </g>
  </g>
</svg>
