<?xml version="1.0" encoding="UTF-8" standalone="no"?>
<!-- Created with Inkscape (http://www.inkscape.org/) -->

<svg
   xmlns:dc="http://purl.org/dc/elements/1.1/"
   xmlns:cc="http://creativecommons.org/ns#"
   xmlns:rdf="http://www.w3.org/1999/02/22-rdf-syntax-ns#"
   xmlns:svg="http://www.w3.org/2000/svg"
   xmlns="http://www.w3.org/2000/svg"
   xmlns:sodipodi="http://sodipodi.sourceforge.net/DTD/sodipodi-0.dtd"
   xmlns:inkscape="http://www.inkscape.org/namespaces/inkscape"
   width="100mm"
   height="55mm"
   viewBox="0 0 100 55"
   version="1.1"
   id="svg8"
   inkscape:version="0.92.3 (2405546, 2018-03-11)"
   sodipodi:docname="logo.svg">
  <defs
     id="defs2" />
  <sodipodi:namedview
     id="base"
     pagecolor="#ffffff"
     bordercolor="#666666"
     borderopacity="1.0"
     inkscape:pageopacity="0.0"
     inkscape:pageshadow="2"
     inkscape:zoom="1.979899"
     inkscape:cx="264.9414"
     inkscape:cy="212.97742"
     inkscape:document-units="mm"
     inkscape:current-layer="layer1"
     showgrid="false"
     inkscape:snap-bbox="true"
     inkscape:bbox-paths="false"
     inkscape:bbox-nodes="false"
     inkscape:snap-bbox-edge-midpoints="true"
     inkscape:snap-bbox-midpoints="true"
     inkscape:snap-nodes="true"
     inkscape:object-paths="true"
     inkscape:snap-intersection-paths="true"
     inkscape:snap-smooth-nodes="true"
     inkscape:window-width="1893"
     inkscape:window-height="1537"
     inkscape:window-x="1939"
     inkscape:window-y="-8"
     inkscape:window-maximized="0" />
  <metadata
     id="metadata5">
    <rdf:RDF>
      <cc:Work
         rdf:about="">
        <dc:format>image/svg+xml</dc:format>
        <dc:type
           rdf:resource="http://purl.org/dc/dcmitype/StillImage" />
        <dc:title></dc:title>
      </cc:Work>
    </rdf:RDF>
  </metadata>
  <g
     inkscape:label="Layer 1"
     inkscape:groupmode="layer"
     id="layer1"
     transform="translate(0,-242)">
    <g
       id="g922"
       transform="translate(-41.142803,194.83948)">
      <g
         transform="matrix(0.92041684,0,0,0.92041684,-3.740126,-56.247868)"
         id="g866">
        <g
           id="g927"
           transform="matrix(4.3319486,0,0,4.3319486,-603.50033,-335.97482)"
           inkscape:export-xdpi="100.095"
           inkscape:export-ydpi="100.095">
          <g
             aria-label="K"
             style="font-style:normal;font-weight:normal;font-size:10.58333302px;line-height:1.25;font-family:sans-serif;letter-spacing:0px;word-spacing:0px;fill:#000000;fill-opacity:1;stroke:none;stroke-width:0.26458332"
             id="text879">
            <path
               d="m 160.93149,108.2821 -0.74414,0.81649 v 1.98437 h -1.81384 v -7.52409 h 1.81384 v 3.31763 l 0.63045,-0.95601 1.62264,-2.36162 h 2.24276 l -2.54248,3.32797 2.54248,4.19612 h -2.14974 z"
               style="font-style:normal;font-variant:normal;font-weight:900;font-stretch:normal;font-family:Roboto;-inkscape-font-specification:'Roboto Heavy';stroke-width:0.26458332"
               id="path929"
               inkscape:connector-curvature="0" />
          </g>
          <g
             aria-label="I"
             style="font-style:normal;font-weight:normal;font-size:10.58333302px;line-height:1.25;font-family:sans-serif;letter-spacing:0px;word-spacing:0px;fill:#000000;fill-opacity:1;stroke:none;stroke-width:0.26458332"
             id="text879-2">
            <path
               d="m 165.89759,111.08305 h -1.80867 v -7.52408 h 1.80867 z"
               style="font-style:normal;font-variant:normal;font-weight:900;font-stretch:normal;font-family:Roboto;-inkscape-font-specification:'Roboto Heavy';stroke-width:0.26458332"
               id="path932"
               inkscape:connector-curvature="0" />
          </g>
        </g>
      </g>
      <g
         inkscape:export-ydpi="100.095"
         inkscape:export-xdpi="100.095"
         transform="matrix(4.3319486,0,0,4.3319486,-647.09507,-420.86939)"
         id="g937">
        <g
           id="text879-21"
           style="font-style:normal;font-weight:normal;font-size:6.20266533px;line-height:1.25;font-family:sans-serif;letter-spacing:0px;word-spacing:0px;fill:#000000;fill-opacity:1;stroke:none;stroke-width:0.15506664"
           aria-label="KubeInit">
          <path
             inkscape:connector-curvature="0"
             id="path943"
             style="font-style:normal;font-variant:normal;font-weight:900;font-stretch:normal;font-family:Roboto;-inkscape-font-specification:'Roboto Heavy';stroke-width:0.15506664"
             d="m 160.37649,119.09676 -0.43613,0.47852 v 1.163 h -1.06305 v -4.40971 h 1.06305 v 1.94439 l 0.3695,-0.5603 0.95099,-1.38409 h 1.31444 l -1.4901,1.95045 1.4901,2.45926 h -1.25992 z" />
          <path
             inkscape:connector-curvature="0"
             id="path945"
             style="font-style:normal;font-variant:normal;font-weight:900;font-stretch:normal;font-family:Roboto;-inkscape-font-specification:'Roboto Heavy';stroke-width:0.15506664"
             d="m 164.68322,120.38393 q -0.32406,0.41492 -0.87528,0.41492 -0.53909,0 -0.81773,-0.31195 -0.27561,-0.31498 -0.27561,-0.90253 v -2.12308 h 1.02066 v 2.12913 q 0,0.42099 0.40886,0.42099 0.35133,0 0.49973,-0.25138 v -2.29874 h 1.02671 v 3.27699 h -0.95705 z" />
          <path
             inkscape:connector-curvature="0"
             id="path947"
             style="font-style:normal;font-variant:normal;font-weight:900;font-stretch:normal;font-family:Roboto;-inkscape-font-specification:'Roboto Heavy';stroke-width:0.15506664"
             d="m 169.27465,119.12704 q 0,0.80562 -0.33315,1.23872 -0.33315,0.43309 -0.93888,0.43309 -0.49973,0 -0.80562,-0.39675 l -0.0424,0.33618 h -0.91465 v -4.652 h 1.02065 v 1.6385 q 0.28469,-0.32407 0.73596,-0.32407 0.61179,0 0.94494,0.43916 0.33315,0.43915 0.33315,1.23569 z m -1.02368,-0.0636 q 0,-0.47247 -0.12721,-0.67236 -0.12417,-0.20292 -0.38463,-0.20292 -0.34527,0 -0.47853,0.26349 v 1.30232 q 0.13023,0.26047 0.48458,0.26047 0.36041,0 0.45733,-0.35133 0.0485,-0.17263 0.0485,-0.59967 z" />
          <path
             inkscape:connector-curvature="0"
             id="path949"
             style="font-style:normal;font-variant:normal;font-weight:900;font-stretch:normal;font-family:Roboto;-inkscape-font-specification:'Roboto Heavy';stroke-width:0.15506664"
             d="m 171.30687,120.79885 q -0.75413,0 -1.22054,-0.44824 -0.46642,-0.45126 -0.46642,-1.17208 v -0.0848 q 0,-0.50276 0.18475,-0.8874 0.18778,-0.38463 0.54516,-0.59361 0.35738,-0.21201 0.84802,-0.21201 0.69053,0 1.09031,0.43007 0.39978,0.42704 0.39978,1.19329 v 0.39675 h -2.02919 q 0.0545,0.27561 0.23926,0.4331 0.18475,0.15749 0.47853,0.15749 0.48458,0 0.75716,-0.33921 l 0.46641,0.55121 q -0.1908,0.26349 -0.54213,0.42098 -0.34829,0.15446 -0.7511,0.15446 z m -0.11509,-2.61069 q -0.44824,0 -0.53304,0.59362 h 1.02974 v -0.0787 q 0.006,-0.24532 -0.12418,-0.37858 -0.13023,-0.13629 -0.37252,-0.13629 z" />
          <path
             inkscape:connector-curvature="0"
             id="path951"
             style="font-style:normal;font-variant:normal;font-weight:900;font-stretch:normal;font-family:Roboto;-inkscape-font-specification:'Roboto Heavy';stroke-width:0.15506664"
             d="m 174.281,120.73828 h -1.06003 v -4.40971 h 1.06003 z" />
          <path
             inkscape:connector-curvature="0"
             id="path953"
             style="font-style:normal;font-variant:normal;font-weight:900;font-stretch:normal;font-family:Roboto;-inkscape-font-specification:'Roboto Heavy';stroke-width:0.15506664"
             d="m 175.91647,117.46129 0.0333,0.38464 q 0.33921,-0.44522 0.93585,-0.44522 0.51185,0 0.76322,0.3059 0.25441,0.30589 0.2635,0.92071 v 2.11096 h -1.02369 v -2.06856 q 0,-0.24835 -0.0999,-0.36344 -0.1,-0.11812 -0.36344,-0.11812 -0.29983,0 -0.44521,0.23624 v 2.31388 h -1.02065 v -3.27699 z" />
          <path
             inkscape:connector-curvature="0"
             id="path955"
             style="font-style:normal;font-variant:normal;font-weight:900;font-stretch:normal;font-family:Roboto;-inkscape-font-specification:'Roboto Heavy';stroke-width:0.15506664"
             d="m 179.5569,120.73828 h -1.02368 v -3.27699 h 1.02368 z m -1.08425,-4.12198 q 0,-0.21807 0.15748,-0.35738 0.15749,-0.13932 0.40887,-0.13932 0.25138,0 0.40887,0.13932 0.15749,0.13931 0.15749,0.35738 0,0.21806 -0.15749,0.35738 -0.15749,0.13931 -0.40887,0.13931 -0.25138,0 -0.40887,-0.13931 -0.15748,-0.13932 -0.15748,-0.35738 z" />
          <path
             inkscape:connector-curvature="0"
             id="path957"
             style="font-style:normal;font-variant:normal;font-weight:900;font-stretch:normal;font-family:Roboto;-inkscape-font-specification:'Roboto Heavy';stroke-width:0.15506664"
             d="m 181.37711,116.64658 v 0.81471 h 0.5391 v 0.7087 h -0.5391 v 1.49918 q 0,0.18475 0.0666,0.25743 0.0666,0.0727 0.2635,0.0727 0.15143,0 0.2544,-0.0182 v 0.7299 q -0.2756,0.0878 -0.57544,0.0878 -0.52698,0 -0.77836,-0.24834 -0.25138,-0.24835 -0.25138,-0.75414 v -1.62638 h -0.41795 v -0.7087 h 0.41795 v -0.81471 z" />
        </g>
      </g>
    </g>
  </g>
</svg>
