<?xml version="1.0" encoding="UTF-8" standalone="no"?>
<!-- Created with Inkscape (http://www.inkscape.org/) -->

<svg
   xmlns:dc="http://purl.org/dc/elements/1.1/"
   xmlns:cc="http://creativecommons.org/ns#"
   xmlns:rdf="http://www.w3.org/1999/02/22-rdf-syntax-ns#"
   xmlns:svg="http://www.w3.org/2000/svg"
   xmlns="http://www.w3.org/2000/svg"
   xmlns:sodipodi="http://sodipodi.sourceforge.net/DTD/sodipodi-0.dtd"
   xmlns:inkscape="http://www.inkscape.org/namespaces/inkscape"
   width="140mm"
   height="40mm"
   viewBox="0 0 140 40"
   version="1.1"
   id="svg8"
   inkscape:version="0.92.3 (2405546, 2018-03-11)"
   sodipodi:docname="kubeinit.svg">
  <defs
     id="defs2" />
  <sodipodi:namedview
     id="base"
     pagecolor="#ffffff"
     bordercolor="#666666"
     borderopacity="1.0"
     inkscape:pageopacity="0.0"
     inkscape:pageshadow="2"
     inkscape:zoom="1.4"
     inkscape:cx="650.80593"
     inkscape:cy="20.299067"
     inkscape:document-units="mm"
     inkscape:current-layer="layer1"
     showgrid="false"
     inkscape:snap-bbox="true"
     inkscape:bbox-paths="true"
     inkscape:snap-bbox-edge-midpoints="false"
     inkscape:bbox-nodes="true"
     inkscape:snap-bbox-midpoints="true"
     inkscape:window-width="3840"
     inkscape:window-height="1537"
     inkscape:window-x="-8"
     inkscape:window-y="-8"
     inkscape:window-maximized="1"
     inkscape:object-nodes="false" />
  <metadata
     id="metadata5">
    <rdf:RDF>
      <cc:Work
         rdf:about="">
        <dc:format>image/svg+xml</dc:format>
        <dc:type
           rdf:resource="http://purl.org/dc/dcmitype/StillImage" />
        <dc:title></dc:title>
      </cc:Work>
    </rdf:RDF>
  </metadata>
  <g
     inkscape:label="Layer 1"
     inkscape:groupmode="layer"
     id="layer1"
     transform="translate(0,-257)">
    <g
       id="g984">
      <g
         transform="translate(-28.531639,143.66509)"
         id="g971">
        <path
           style="opacity:1;vector-effect:none;fill:#fc624d;fill-opacity:1;stroke:#fc624d;stroke-width:0.03028558;stroke-linecap:round;stroke-linejoin:miter;stroke-miterlimit:4;stroke-dasharray:none;stroke-dashoffset:0;stroke-opacity:1"
           d="m 46.160338,113.35118 v 5.3e-4 c -0.411777,0.012 -0.827544,0.12387 -1.211174,0.34537 l -15.045524,8.6866 c -0.04268,0.0247 -0.08206,0.0522 -0.122706,0.0788 -0.736422,0.44742 -1.228627,1.25757 -1.228627,2.18911 v 17.3732 c 0,0.97538 0.538029,1.81957 1.332821,2.25151 0.0051,0.003 0.0092,0.006 0.01481,0.009 l 15.044999,8.68661 c 0.01075,0.006 0.02204,0.0109 0.03279,0.0169 0.05343,0.0303 0.108697,0.0576 0.164486,0.0841 0.01607,0.007 0.03196,0.0161 0.04813,0.0232 0.06591,0.0296 0.133779,0.0554 0.202566,0.0793 0.01116,0.004 0.02217,0.008 0.03332,0.0122 0.06949,0.0231 0.140118,0.0426 0.212087,0.0598 0.01044,0.002 0.02077,0.005 0.03121,0.008 0.06274,0.0141 0.126502,0.025 0.190932,0.0344 0.0219,0.003 0.04368,0.007 0.06558,0.009 0.05527,0.006 0.111392,0.0102 0.16766,0.0132 0.02876,0.001 0.05755,0.004 0.08621,0.004 0.01709,3.4e-4 0.03368,0.003 0.05078,0.003 0.03828,0 0.07532,-0.004 0.113184,-0.006 0.02907,-0.001 0.05821,-0.002 0.08727,-0.004 0.05516,-0.004 0.109347,-0.0113 0.163428,-0.019 0.02774,-0.004 0.0555,-0.008 0.08304,-0.0127 0.05557,-0.0102 0.110254,-0.0215 0.164489,-0.0349 0.02497,-0.006 0.0498,-0.0127 0.07457,-0.0196 0.05496,-0.0153 0.108996,-0.0324 0.162372,-0.0513 0.02354,-0.008 0.04648,-0.0169 0.06981,-0.0259 0.05312,-0.0206 0.105267,-0.0427 0.156553,-0.0666 0.02344,-0.0109 0.04668,-0.0222 0.06982,-0.0339 0.04882,-0.0247 0.09631,-0.0511 0.143329,-0.0788 0.02651,-0.0156 0.05281,-0.0311 0.07881,-0.0476 0.03756,-0.0241 0.07429,-0.0491 0.110538,-0.0751 0.03439,-0.0246 0.06829,-0.0498 0.10155,-0.0761 0.03029,-0.0241 0.05969,-0.0491 0.08886,-0.0746 0.03367,-0.0294 0.06719,-0.0592 0.09943,-0.0905 0.02518,-0.0245 0.04936,-0.0496 0.07352,-0.0751 0.03316,-0.035 0.06589,-0.0702 0.09731,-0.10738 0.02436,-0.0288 0.04732,-0.0585 0.07034,-0.0883 0.026,-0.0337 0.05171,-0.0674 0.07616,-0.10261 0.026,-0.0373 0.05052,-0.0755 0.07457,-0.11424 0.01433,-0.023 0.03018,-0.0445 0.0439,-0.0683 0.0061,-0.0105 0.01046,-0.0217 0.0164,-0.0322 0.0219,-0.0392 0.04159,-0.0796 0.06135,-0.12007 0.01832,-0.0371 0.03704,-0.074 0.05342,-0.1116 0.01402,-0.0324 0.02592,-0.0658 0.03861,-0.0989 0.01863,-0.0483 0.03691,-0.0966 0.05236,-0.14544 0.0072,-0.0228 0.01302,-0.0462 0.01957,-0.0693 0.01689,-0.0592 0.0331,-0.11852 0.04548,-0.17824 0.0041,-0.0195 0.0059,-0.0396 0.01003,-0.0593 0.01146,-0.0623 0.02191,-0.12462 0.02856,-0.18722 0.0031,-0.0319 0.0043,-0.0645 0.0074,-0.0968 0.0031,-0.0469 0.0069,-0.0939 0.0069,-0.14069 2.66e-4,-0.0157 0.0021,-0.0308 0.0021,-0.0466 v -15.98009 l 3.170737,-1.83051 c 1.227621,-0.70876 1.648179,-2.26253 0.943022,-3.48385 -0.705126,-1.22132 -2.260982,-1.63379 -3.488601,-0.92504 l -4.431628,2.55881 c -0.84399,0.48727 -1.306605,1.37395 -1.284161,2.27743 -3.1e-5,0.004 -5.28e-4,0.007 -5.28e-4,0.0105 v 12.97754 L 33.642883,140.5683 v -14.46585 l 12.589858,-7.26862 12.946333,7.47384 v 14.46162 l -3.170735,1.83051 c -1.227601,0.70875 -1.648676,2.26253 -0.943553,3.48384 0.705156,1.22133 2.261543,1.6338 3.489133,0.92504 l 4.431625,-2.55827 c 0.0216,-0.0124 0.0408,-0.0272 0.06188,-0.0402 0.04749,-0.0291 0.09479,-0.0584 0.140156,-0.0905 0.02139,-0.0151 0.04153,-0.0314 0.06241,-0.0471 0.04462,-0.0336 0.08844,-0.0679 0.13064,-0.10419 0.02712,-0.0233 0.05281,-0.0477 0.07881,-0.072 0.03377,-0.0316 0.06793,-0.0633 0.09996,-0.0968 0.02548,-0.0265 0.04883,-0.054 0.07298,-0.0815 0.03101,-0.0353 0.0619,-0.0709 0.09097,-0.1079 0.02292,-0.0292 0.04462,-0.0589 0.06612,-0.0888 0.02497,-0.0348 0.04923,-0.0697 0.07246,-0.10578 0.02282,-0.0354 0.04417,-0.0715 0.06505,-0.1079 0.01985,-0.0345 0.03943,-0.0692 0.05765,-0.10472 0.02027,-0.0392 0.039,-0.0789 0.05712,-0.119 0.01494,-0.0331 0.02923,-0.0662 0.04284,-0.1 0.01873,-0.0467 0.03544,-0.0941 0.05131,-0.14174 0.01023,-0.0294 0.01975,-0.0585 0.02855,-0.0883 0.01453,-0.0495 0.02704,-0.0994 0.03861,-0.14968 0.0072,-0.0316 0.01449,-0.0631 0.02063,-0.0952 0.01054,-0.0558 0.01853,-0.11182 0.02539,-0.16819 0.0031,-0.0251 0.0064,-0.0499 0.0095,-0.0751 0.0051,-0.0583 0.008,-0.11682 0.009,-0.17559 5.42e-4,-0.022 0.0032,-0.0434 0.0032,-0.0656 v -17.37267 c 0,-0.9876 -0.551747,-1.84 -1.362966,-2.26685 -0.01873,-0.0115 -0.03596,-0.0244 -0.055,-0.0354 l -15.0455,-8.68654 c -0.04984,-0.0288 -0.100925,-0.0526 -0.151795,-0.0778 -0.440873,-0.29667 -0.964076,-0.44971 -1.495189,-0.43422 z m 7.838776,21.98465 a 2.5435513,2.5435513 0 0 0 -1.211702,0.34008 2.5435513,2.5435513 0 0 0 -0.931386,3.47485 2.5435513,2.5435513 0 0 0 3.474851,0.93086 2.5435513,2.5435513 0 0 0 0.930858,-3.47433 2.5435513,2.5435513 0 0 0 -2.262621,-1.27146 z"
           id="path1036-2-6"
           inkscape:connector-curvature="0" />
        <g
           id="g948"
           transform="matrix(0.97060147,0,0,0.97060147,-0.21822288,3.5744909)">
          <path
             d="m 72.627228,145.04652 c 1.008518,0 1.789307,-0.81332 1.789307,-1.7893 v -4.61967 l 3.383415,-3.44848 7.027095,9.2068 c 0.357861,0.42292 0.845854,0.65065 1.333847,0.65065 0.422927,0 0.813321,-0.13013 1.138649,-0.42292 0.780788,-0.61813 0.91092,-1.75678 0.260263,-2.50503 l -7.222292,-9.46706 7.157226,-7.12469 c 0.68319,-0.71573 0.68319,-1.85437 0,-2.53756 -0.715722,-0.71573 -1.821839,-0.71573 -2.537562,0 l -10.540641,10.57317 v -9.33693 c 0,-0.94345 -0.780789,-1.7893 -1.789307,-1.7893 -1.008518,0 -1.789306,0.84585 -1.789306,1.7893 v 19.03172 c 0,0.97598 0.780788,1.7893 1.789306,1.7893 z"
             style="font-style:normal;font-variant:normal;font-weight:bold;font-stretch:normal;font-size:medium;line-height:1.25;font-family:Quicksand;-inkscape-font-specification:'Quicksand Bold';letter-spacing:-2.6220212px;word-spacing:0px;fill:#000000;fill-opacity:1;stroke:none;stroke-width:0.81332111"
             id="path879"
             inkscape:connector-curvature="0" />
          <path
             d="m 102.19696,138.27969 v -7.77535 c 0,-0.91092 -0.84586,-1.72424 -1.75678,-1.72424 -0.975974,0 -1.691701,0.81332 -1.691701,1.72424 v 7.77535 c -0.0325,1.85437 -1.529039,3.31835 -3.415944,3.31835 -1.854372,0 -3.31835,-1.46398 -3.31835,-3.31835 v -7.77535 c 0,-0.91092 -0.748256,-1.72424 -1.724241,-1.72424 -0.943452,0 -1.724241,0.81332 -1.724241,1.72424 v 7.77535 c 0,3.70875 3.058088,6.76683 6.766832,6.76683 3.741271,0 6.864425,-3.05808 6.864425,-6.76683 z"
             style="font-style:normal;font-variant:normal;font-weight:bold;font-stretch:normal;font-size:medium;line-height:1.25;font-family:Quicksand;-inkscape-font-specification:'Quicksand Bold';letter-spacing:-2.6220212px;word-spacing:0px;fill:#000000;fill-opacity:1;stroke:none;stroke-width:0.81332111"
             id="path881"
             inkscape:connector-curvature="0" />
          <path
             d="m 104.10411,143.28975 c 0,0.94345 0.78078,1.75677 1.75677,1.75677 0.87839,0 1.56158,-0.61812 1.72424,-1.39891 1.23625,0.84586 2.79783,1.39891 4.42447,1.39891 4.39193,0 7.90548,-3.70874 7.90548,-8.10067 0,-4.457 -3.51355,-8.16575 -7.90548,-8.16575 -1.59411,0 -3.15569,0.52053 -4.3594,1.36638 v -6.11617 c 0,-0.94346 -0.78079,-1.75678 -1.78931,-1.75678 -0.97599,0 -1.75677,0.81332 -1.75677,1.75678 v 12.883 c 0,0 0,0 0,0.0325 0,0 0,0 0,0 z m 4.84739,-9.62972 c 0.81332,-0.84586 1.85437,-1.33385 3.05809,-1.33385 1.17118,0 2.24476,0.48799 3.05808,1.33385 0.81333,0.81332 1.30132,1.9845 1.30132,3.28582 0,1.23624 -0.48799,2.40743 -1.30132,3.22075 -0.81332,0.84585 -1.8869,1.33384 -3.05808,1.33384 -1.20372,0 -2.24477,-0.48799 -3.05809,-1.33384 -0.81332,-0.81332 -1.30131,-1.98451 -1.30131,-3.22075 0,-1.30132 0.48799,-2.4725 1.30131,-3.28582 z"
             style="font-style:normal;font-variant:normal;font-weight:bold;font-stretch:normal;font-size:medium;line-height:1.25;font-family:Quicksand;-inkscape-font-specification:'Quicksand Bold';letter-spacing:-2.6220212px;word-spacing:0px;fill:#000000;fill-opacity:1;stroke:none;stroke-width:0.81332111"
             id="path883"
             inkscape:connector-curvature="0" />
          <path
             d="m 129.22904,145.04652 c 2.30983,0 4.22927,-0.68319 5.82338,-2.14716 0.74826,-0.68319 0.42293,-1.65918 0,-2.11464 -0.42293,-0.52052 -1.75677,-0.61812 -2.43996,0.0976 -0.81332,0.61812 -2.21224,0.91092 -3.38342,0.81332 -1.13865,-0.0976 -2.43996,-0.68319 -3.12315,-1.46398 -0.58559,-0.55306 -0.94345,-1.39891 -1.10612,-2.14716 h 10.34545 c 0.91092,0 1.5941,-0.52053 1.6917,-1.30132 0.0325,-0.0651 0.0325,-0.22773 0.0325,-0.29279 0,0 0,0 0,0 0,0 0,0 0,0 0,-0.0651 0,-0.13014 0,-0.16267 -0.26027,-4.39193 -3.61115,-7.54762 -7.84042,-7.54762 -4.457,0 -7.90548,3.70875 -7.93801,8.13321 0.0325,4.42447 3.48101,8.10068 7.93801,8.13321 z m 0,-13.1758 c 2.83036,0.22773 4.48953,2.14717 4.81486,3.44848 h -9.20679 c 0.26026,-1.33384 1.62664,-3.31835 4.39193,-3.44848 z"
             style="font-style:normal;font-variant:normal;font-weight:bold;font-stretch:normal;font-size:medium;line-height:1.25;font-family:Quicksand;-inkscape-font-specification:'Quicksand Bold';letter-spacing:-2.6220212px;word-spacing:0px;fill:#000000;fill-opacity:1;stroke:none;stroke-width:0.81332111"
             id="path885"
             inkscape:connector-curvature="0" />
          <path
             d="m 139.1596,143.25722 c 0,1.00852 0.78079,1.7893 1.78931,1.7893 0.97598,0 1.82184,-0.78078 1.82184,-1.7893 v -19.19438 c 0,-1.00852 -0.84586,-1.78931 -1.82184,-1.78931 -1.00852,0 -1.78931,0.78079 -1.78931,1.78931 z"
             style="font-style:normal;font-variant:normal;font-weight:bold;font-stretch:normal;font-size:medium;line-height:1.25;font-family:Quicksand;-inkscape-font-specification:'Quicksand Bold';letter-spacing:-2.6220212px;word-spacing:0px;fill:#000000;fill-opacity:1;stroke:none;stroke-width:0.81332111"
             id="path887"
             inkscape:connector-curvature="0" />
          <path
             d="m 151.57284,128.7801 c -1.26878,0 -2.4725,0.3904 -3.44848,1.00852 -0.2928,-0.61812 -0.91092,-1.00852 -1.59411,-1.00852 -0.97599,0 -1.72424,0.78079 -1.72424,1.72424 v 5.04259 c 0,0 0,0 0,0 v 7.77535 c 0,0.94346 0.74825,1.72424 1.72424,1.72424 0.84585,0 1.56158,-0.61812 1.72424,-1.39891 0.0651,-0.13013 0.0651,-0.22773 0.0651,-0.32533 v -7.77535 c 0,-1.82184 1.43145,-3.28581 3.25329,-3.28581 1.85437,0 3.38342,1.46397 3.38342,3.28581 v 7.77535 c 0,0.94346 0.81332,1.72424 1.72424,1.72424 0.94345,0 1.6917,-0.78078 1.6917,-1.72424 v -7.77535 c 0,-3.67621 -3.02555,-6.76683 -6.79936,-6.76683 z"
             style="font-style:normal;font-variant:normal;font-weight:bold;font-stretch:normal;font-size:medium;line-height:1.25;font-family:Quicksand;-inkscape-font-specification:'Quicksand Bold';letter-spacing:-2.6220212px;word-spacing:0px;fill:#000000;fill-opacity:1;stroke:none;stroke-width:0.81332111"
             id="path889"
             inkscape:connector-curvature="0" />
          <path
             d="m 161.80839,128.81263 c -0.97598,0 -1.75677,0.74826 -1.75677,1.78931 v 12.68781 c 0,0.97599 0.78079,1.75677 1.75677,1.75677 1.00852,0 1.75678,-0.78078 1.75678,-1.75677 v -12.68781 c 0,-1.04105 -0.74826,-1.78931 -1.75678,-1.78931 z m 1.75678,-4.78232 c 0,-0.97599 -0.74826,-1.75678 -1.75678,-1.75678 -0.97598,0 -1.75677,0.78079 -1.75677,1.75678 v 0.68319 c 0,0.97598 0.78079,1.7893 1.75677,1.7893 1.00852,0 1.75678,-0.81332 1.75678,-1.7893 z"
             style="font-style:normal;font-variant:normal;font-weight:bold;font-stretch:normal;font-size:medium;line-height:1.25;font-family:Quicksand;-inkscape-font-specification:'Quicksand Bold';letter-spacing:-2.6220212px;word-spacing:0px;fill:#000000;fill-opacity:1;stroke:none;stroke-width:0.81332111"
             id="path891"
             inkscape:connector-curvature="0" />
          <path
             d="m 172.04498,128.7801 h -0.81333 v -4.71726 c 0,-1.00852 -0.78078,-1.78931 -1.7893,-1.78931 -1.00852,0 -1.82184,0.78079 -1.82184,1.78931 v 4.71726 h -0.94345 c -1.00852,0 -1.78931,0.78079 -1.78931,1.78931 0,0.97598 0.78079,1.7893 1.78931,1.7893 h 0.94345 v 9.07667 c 0,1.9845 1.62664,3.61114 3.61114,3.61114 1.00852,0 1.78931,-0.78078 1.78931,-1.7893 0,-1.00852 -0.78079,-1.82184 -1.78931,-1.82184 0,0 0,0 0,0 v -9.07667 h 0.81333 c 0.97598,0 1.82184,-0.81332 1.82184,-1.7893 0,-1.00852 -0.84586,-1.78931 -1.82184,-1.78931 z"
             style="font-style:normal;font-variant:normal;font-weight:bold;font-stretch:normal;font-size:medium;line-height:1.25;font-family:Quicksand;-inkscape-font-specification:'Quicksand Bold';letter-spacing:-2.6220212px;word-spacing:0px;fill:#000000;fill-opacity:1;stroke:none;stroke-width:0.81332111"
             id="path893"
             inkscape:connector-curvature="0" />
        </g>
      </g>
    </g>
  </g>
</svg>
