<?xml version='1.0' encoding='UTF-8'?>
<!DOCTYPE svg PUBLIC "-//W3C//DTD SVG 1.1//EN" "http://www.w3.org/Graphics/SVG/1.1/DTD/svg11.dtd">
<!-- Generated by graphviz version 2.43.0 (0)
 --><!-- Title: ./playbooks/submariner&#45;subctl&#45;verify.yml  Pages: 1 --><svg xmlns="http://www.w3.org/2000/svg" xmlns:xlink="http://www.w3.org/1999/xlink" width="1919pt" height="807pt" viewBox="0.00 0.00 1919.12 807.41" id="svg">
<script type="text/javascript" href="https://ajax.googleapis.com/ajax/libs/jquery/3.2.1/jquery.min.js" id="jquery"/><script type="text/javascript" id="my_javascript"><![CDATA[const HOVER_CLASS = "my_hover";

var selectedElement = null;

function addClass(rootElement) {
    $(rootElement).find('link').each(function (index, element) {
        var target = $(element).attr('target');
        var currentElement = $('#' + target);
        currentElement.addClass(HOVER_CLASS);

        addClass(currentElement);
    })
}

function removeClass(rootElement, hover) {
    $(rootElement).find('link').each(function (index, element) {
        if ($(rootElement).attr('id') !== $(selectedElement).attr('id') || !hover) {
            var target = $(element).attr('target');
            var currentElement = $('#' + target);
            currentElement.removeClass(HOVER_CLASS);

            removeClass(currentElement);
        }

    })
}

function hoverIn(event) {
    addClass(event.currentTarget);
}

function hoverOut(event) {
    removeClass(event.currentTarget, true);
}

function clickOnElement(event) {
    var newElement = event.currentTarget;

    if ($(newElement).attr('id') === $(selectedElement).attr('id')) {
        removeClass(selectedElement, false);
    } else {
        removeClass(selectedElement);
        addClass(newElement)
    }

    selectedElement = newElement;
}


$("#svg").ready(function () {

    $("g[id^=play_]").hover(hoverIn, hoverOut);
    $("g[id^=role_]").hover(hoverIn, hoverOut);

    $("g[id^=play_]").click(clickOnElement);
    $("g[id^=role_]").click(clickOnElement);

});
]]></script><style type="text/css" id="my_css"><![CDATA[.node:hover, .edge:hover, path:hover, path + polygon:hover {
    cursor: pointer;
    stroke-width: 3;
    font-weight: bolder;
}

.my_hover {
    cursor: pointer;
    stroke-width: 3;
    font-weight: bolder;
}
]]></style><g id="graph0" class="graph" transform="scale(1 1) rotate(0) translate(4 803.41)">
<title>./playbooks/submariner-subctl-verify.yml </title>
<polygon fill="white" stroke="transparent" points="-4,4 -4,-803.41 1915.12,-803.41 1915.12,4 -4,4"/>
<!-- ./playbooks/submariner&#45;subctl&#45;verify.yml -->
<g id="root_node" class="node">
<title>./playbooks/submariner-subctl-verify.yml</title>
<ellipse fill="none" stroke="black" stroke-dasharray="1,5" cx="198.88" cy="-399.72" rx="198.76" ry="18"/>
<text text-anchor="middle" x="198.88" y="-396.02" font-family="Times,serif" font-size="14.00">./playbooks/submariner-subctl-verify.yml</text>
</g>
<!-- Play #1: Main deployment playbook for integrating submariner (0) -->
<g id="play_7d02a5f9-3373-4dd6-bf53-a57faca05f9a" class="node">
<title>Play #1: Main deployment playbook for integrating submariner (0)</title>
<polygon fill="#94d96d" stroke="#94d96d" points="938.76,-417.72 443.76,-417.72 443.76,-381.72 938.76,-381.72 938.76,-417.72"/>
<text text-anchor="middle" x="691.26" y="-396.02" font-family="Times,serif" font-size="14.00" fill="#000000">Play #1: Main deployment playbook for integrating submariner (0)</text>
<links><link target="edge_9f4d1910-f444-43ad-8613-7fc5111fc678"/><link target="edge_44c1df7d-8642-4b35-b535-7e6c54cc269f"/><link target="edge_d0e2e3df-05b1-43dd-a145-1656bc01376d"/><link target="edge_ca66a90f-2ab0-498a-a8dd-f8540dbb6cff"/><link target="edge_dbb19083-8c31-4d61-8138-5b23784a4ae7"/><link target="edge_2bc3e085-6b4b-47b1-979b-d79abac4ff96"/><link target="edge_3fcc63dc-2371-4a27-8143-7e1a42c74b01"/><link target="edge_1f5cfa1c-ffd1-4992-8e7a-a046d4bd1c6a"/><link target="edge_66fe1982-23df-4814-be32-f8666aa3d36d"/><link target="edge_639db88c-0b47-434a-8589-6c520a5ed8da"/><link target="edge_7d6dca84-a4b3-4fb2-99a4-91cd01804aa8"/><link target="edge_d59e4603-1c8c-40d7-a999-81fb27f968c0"/><link target="edge_4eec4874-591e-424c-85ca-a82d75d3eaf2"/><link target="edge_d5c3c689-94de-494a-9e7f-f8d02b73508c"/><link target="edge_5223f0fb-73b3-4615-b22e-bb8b6948850a"/></links></g>
<!-- ./playbooks/submariner&#45;subctl&#45;verify.yml&#45;&gt;Play #1: Main deployment playbook for integrating submariner (0) -->
<g id="edge_b7a32c2c-437d-497a-a208-5d3def0b60b4" class="edge">
<title>./playbooks/submariner-subctl-verify.yml-&gt;Play #1: Main deployment playbook for integrating submariner (0)</title>
<path fill="none" stroke="#94d96d" stroke-width="2" d="M397.93,-399.72C409.66,-399.72 421.54,-399.72 433.46,-399.72"/>
<polygon fill="#94d96d" stroke="#94d96d" stroke-width="2" points="433.48,-403.22 443.48,-399.72 433.48,-396.22 433.48,-403.22"/>
<text text-anchor="middle" x="420.76" y="-403.52" font-family="Times,serif" font-size="14.00" fill="#94d96d">1</text>
</g>
<!-- pre_task_ff3b5f06&#45;943d&#45;490c&#45;9686&#45;2a5393a3cdd7 -->
<g id="pre_task_ff3b5f06-943d-490c-9686-2a5393a3cdd7" class="node">
<title>pre_task_ff3b5f06-943d-490c-9686-2a5393a3cdd7</title>
<g id="a_pre_task_ff3b5f06-943d-490c-9686-2a5393a3cdd7"><a xlink:title="[pre_task] Check if Ansible meets version requirements.">
<polygon fill="none" stroke="black" points="1746.56,-770.26 1746.56,-785.18 1574.27,-795.72 1330.61,-795.72 1158.32,-785.18 1158.32,-770.26 1330.61,-759.72 1574.27,-759.72 1746.56,-770.26"/>
<text text-anchor="middle" x="1452.44" y="-774.02" font-family="Times,serif" font-size="14.00">[pre_task] Check if Ansible meets version requirements.</text>
</a>
</g>
</g>
<!-- Play #1: Main deployment playbook for integrating submariner (0)&#45;&gt;pre_task_ff3b5f06&#45;943d&#45;490c&#45;9686&#45;2a5393a3cdd7 -->
<g id="edge_9f4d1910-f444-43ad-8613-7fc5111fc678" class="edge">
<title>Play #1: Main deployment playbook for integrating submariner (0)-&gt;pre_task_ff3b5f06-943d-490c-9686-2a5393a3cdd7</title>
<path fill="none" stroke="#94d96d" stroke-width="2" d="M701.08,-417.95C731.53,-478.59 839.01,-674.04 993.76,-750.72 1094.33,-800.55 1222.97,-803.68 1318.25,-796.43"/>
<polygon fill="#94d96d" stroke="#94d96d" stroke-width="2" points="1318.55,-799.92 1328.23,-795.63 1317.98,-792.94 1318.55,-799.92"/>
<text text-anchor="middle" x="966.26" y="-742.52" font-family="Times,serif" font-size="14.00" fill="#94d96d">1</text>
<links><link target="pre_task_ff3b5f06-943d-490c-9686-2a5393a3cdd7"/></links></g>
<!-- task_854069f5&#45;1b29&#45;4a1e&#45;ae70&#45;bb91f0a49cad -->
<g id="task_854069f5-1b29-4a1e-ae70-bb91f0a49cad" class="node">
<title>task_854069f5-1b29-4a1e-ae70-bb91f0a49cad</title>
<g id="a_task_854069f5-1b29-4a1e-ae70-bb91f0a49cad"><a xlink:title="[task] ../../roles/kubeinit_prepare : Gather variables for each operating system">
<polygon fill="none" stroke="black" points="1856.05,-716.26 1856.05,-731.18 1619.62,-741.72 1285.26,-741.72 1048.83,-731.18 1048.83,-716.26 1285.26,-705.72 1619.62,-705.72 1856.05,-716.26"/>
<text text-anchor="middle" x="1452.44" y="-720.02" font-family="Times,serif" font-size="14.00">[task] ../../roles/kubeinit_prepare : Gather variables for each operating system</text>
</a>
</g>
</g>
<!-- Play #1: Main deployment playbook for integrating submariner (0)&#45;&gt;task_854069f5&#45;1b29&#45;4a1e&#45;ae70&#45;bb91f0a49cad -->
<g id="edge_44c1df7d-8642-4b35-b535-7e6c54cc269f" class="edge">
<title>Play #1: Main deployment playbook for integrating submariner (0)-&gt;task_854069f5-1b29-4a1e-ae70-bb91f0a49cad</title>
<path fill="none" stroke="#94d96d" stroke-width="2" d="M703.56,-417.8C738.61,-472.05 851.77,-633.58 993.76,-696.72 1080.17,-735.14 1184.93,-743.72 1272.42,-741.87"/>
<polygon fill="#94d96d" stroke="#94d96d" stroke-width="2" points="1272.55,-745.37 1282.45,-741.62 1272.37,-738.37 1272.55,-745.37"/>
<text text-anchor="middle" x="966.26" y="-690.52" font-family="Times,serif" font-size="14.00" fill="#94d96d">2</text>
<links><link target="task_854069f5-1b29-4a1e-ae70-bb91f0a49cad"/></links></g>
<!-- task_60bf0798&#45;de14&#45;4fa9&#45;957a&#45;fd9e7f923dee -->
<g id="task_60bf0798-de14-4fa9-957a-fd9e7f923dee" class="node">
<title>task_60bf0798-de14-4fa9-957a-fd9e7f923dee</title>
<g id="a_task_60bf0798-de14-4fa9-957a-fd9e7f923dee"><a xlink:title="[task] ../../roles/kubeinit_prepare : add all nodes to the all_nodes group">
<polygon fill="none" stroke="black" points="1818.98,-662.26 1818.98,-677.18 1604.27,-687.72 1300.62,-687.72 1085.9,-677.18 1085.9,-662.26 1300.62,-651.72 1604.27,-651.72 1818.98,-662.26"/>
<text text-anchor="middle" x="1452.44" y="-666.02" font-family="Times,serif" font-size="14.00">[task] ../../roles/kubeinit_prepare : add all nodes to the all_nodes group</text>
</a>
</g>
</g>
<!-- Play #1: Main deployment playbook for integrating submariner (0)&#45;&gt;task_60bf0798&#45;de14&#45;4fa9&#45;957a&#45;fd9e7f923dee -->
<g id="edge_d0e2e3df-05b1-43dd-a145-1656bc01376d" class="edge">
<title>Play #1: Main deployment playbook for integrating submariner (0)-&gt;task_60bf0798-de14-4fa9-957a-fd9e7f923dee</title>
<path fill="none" stroke="#94d96d" stroke-width="2" d="M707.2,-417.85C747.51,-465.26 864.27,-592.69 993.76,-642.72 1019.92,-652.82 1047.54,-660.66 1075.72,-666.66"/>
<polygon fill="#94d96d" stroke="#94d96d" stroke-width="2" points="1075.22,-670.12 1085.72,-668.7 1076.62,-663.27 1075.22,-670.12"/>
<text text-anchor="middle" x="966.26" y="-638.52" font-family="Times,serif" font-size="14.00" fill="#94d96d">3</text>
<links><link target="task_60bf0798-de14-4fa9-957a-fd9e7f923dee"/></links></g>
<!-- task_9dbf1446&#45;48ef&#45;4f24&#45;9a60&#45;36ef945f8bb3 -->
<g id="task_9dbf1446-48ef-4f24-9a60-36ef945f8bb3" class="node">
<title>task_9dbf1446-48ef-4f24-9a60-36ef945f8bb3</title>
<g id="a_task_9dbf1446-48ef-4f24-9a60-36ef945f8bb3"><a xlink:title="[task] ../../roles/kubeinit_prepare : add all master nodes to the all_master_nodes group">
<polygon fill="none" stroke="black" points="1897.56,-608.26 1897.56,-623.18 1636.82,-633.72 1268.07,-633.72 1007.32,-623.18 1007.32,-608.26 1268.07,-597.72 1636.82,-597.72 1897.56,-608.26"/>
<text text-anchor="middle" x="1452.44" y="-612.02" font-family="Times,serif" font-size="14.00">[task] ../../roles/kubeinit_prepare : add all master nodes to the all_master_nodes group</text>
</a>
</g>
</g>
<!-- Play #1: Main deployment playbook for integrating submariner (0)&#45;&gt;task_9dbf1446&#45;48ef&#45;4f24&#45;9a60&#45;36ef945f8bb3 -->
<g id="edge_ca66a90f-2ab0-498a-a8dd-f8540dbb6cff" class="edge">
<title>Play #1: Main deployment playbook for integrating submariner (0)-&gt;task_9dbf1446-48ef-4f24-9a60-36ef945f8bb3</title>
<path fill="none" stroke="#94d96d" stroke-width="2" d="M712.69,-417.79C758.84,-457.37 876.37,-551.19 993.76,-588.72 1012.33,-594.66 1031.53,-599.7 1051.08,-603.98"/>
<polygon fill="#94d96d" stroke="#94d96d" stroke-width="2" points="1050.5,-607.43 1061.01,-606.08 1051.95,-600.58 1050.5,-607.43"/>
<text text-anchor="middle" x="966.26" y="-585.52" font-family="Times,serif" font-size="14.00" fill="#94d96d">4</text>
<links><link target="task_9dbf1446-48ef-4f24-9a60-36ef945f8bb3"/></links></g>
<!-- task_54d599da&#45;9ee6&#45;468a&#45;9a81&#45;479af7158791 -->
<g id="task_54d599da-9ee6-468a-9a81-479af7158791" class="node">
<title>task_54d599da-9ee6-468a-9a81-479af7158791</title>
<g id="a_task_54d599da-9ee6-468a-9a81-479af7158791"><a xlink:title="[task] ../../roles/kubeinit_prepare : add all worker nodes to the all_worker_nodes group">
<polygon fill="none" stroke="black" points="1897.56,-554.26 1897.56,-569.18 1636.82,-579.72 1268.07,-579.72 1007.32,-569.18 1007.32,-554.26 1268.07,-543.72 1636.82,-543.72 1897.56,-554.26"/>
<text text-anchor="middle" x="1452.44" y="-558.02" font-family="Times,serif" font-size="14.00">[task] ../../roles/kubeinit_prepare : add all worker nodes to the all_worker_nodes group</text>
</a>
</g>
</g>
<!-- Play #1: Main deployment playbook for integrating submariner (0)&#45;&gt;task_54d599da&#45;9ee6&#45;468a&#45;9a81&#45;479af7158791 -->
<g id="edge_dbb19083-8c31-4d61-8138-5b23784a4ae7" class="edge">
<title>Play #1: Main deployment playbook for integrating submariner (0)-&gt;task_54d599da-9ee6-468a-9a81-479af7158791</title>
<path fill="none" stroke="#94d96d" stroke-width="2" d="M722.61,-417.81C775.53,-448.3 889.03,-509.1 993.76,-534.72 1018.53,-540.78 1044.27,-545.75 1070.34,-549.8"/>
<polygon fill="#94d96d" stroke="#94d96d" stroke-width="2" points="1069.93,-553.28 1080.34,-551.31 1070.98,-546.35 1069.93,-553.28"/>
<text text-anchor="middle" x="966.26" y="-531.52" font-family="Times,serif" font-size="14.00" fill="#94d96d">5</text>
<links><link target="task_54d599da-9ee6-468a-9a81-479af7158791"/></links></g>
<!-- task_613e986c&#45;2e41&#45;4c3e&#45;844f&#45;bd1d61d142af -->
<g id="task_613e986c-2e41-4c3e-844f-bd1d61d142af" class="node">
<title>task_613e986c-2e41-4c3e-844f-bd1d61d142af</title>
<g id="a_task_613e986c-2e41-4c3e-844f-bd1d61d142af"><a xlink:title="[task] ../../roles/kubeinit_prepare : add all bootstrap nodes the all_bootstrap_nodes group">
<polygon fill="none" stroke="black" points="1911.3,-500.26 1911.3,-515.18 1642.51,-525.72 1262.38,-525.72 993.59,-515.18 993.59,-500.26 1262.38,-489.72 1642.51,-489.72 1911.3,-500.26"/>
<text text-anchor="middle" x="1452.44" y="-504.02" font-family="Times,serif" font-size="14.00">[task] ../../roles/kubeinit_prepare : add all bootstrap nodes the all_bootstrap_nodes group</text>
</a>
</g>
</g>
<!-- Play #1: Main deployment playbook for integrating submariner (0)&#45;&gt;task_613e986c&#45;2e41&#45;4c3e&#45;844f&#45;bd1d61d142af -->
<g id="edge_2bc3e085-6b4b-47b1-979b-d79abac4ff96" class="edge">
<title>Play #1: Main deployment playbook for integrating submariner (0)-&gt;task_613e986c-2e41-4c3e-844f-bd1d61d142af</title>
<path fill="none" stroke="#94d96d" stroke-width="2" d="M746.01,-417.72C805.76,-436.9 905.49,-466.41 993.76,-480.72 1028.96,-486.42 1065.84,-490.96 1102.75,-494.56"/>
<polygon fill="#94d96d" stroke="#94d96d" stroke-width="2" points="1102.88,-498.09 1113.16,-495.55 1103.54,-491.12 1102.88,-498.09"/>
<text text-anchor="middle" x="966.26" y="-479.52" font-family="Times,serif" font-size="14.00" fill="#94d96d">6</text>
<links><link target="task_613e986c-2e41-4c3e-844f-bd1d61d142af"/></links></g>
<!-- task_96378110&#45;5091&#45;43cb&#45;b56b&#45;140af085bb2b -->
<g id="task_96378110-5091-43cb-b56b-140af085bb2b" class="node">
<title>task_96378110-5091-43cb-b56b-140af085bb2b</title>
<g id="a_task_96378110-5091-43cb-b56b-140af085bb2b"><a xlink:title="[task] ../../roles/kubeinit_prepare : add all service nodes to the all_service_nodes group">
<polygon fill="none" stroke="black" points="1899.38,-446.26 1899.38,-461.18 1637.57,-471.72 1267.32,-471.72 1005.51,-461.18 1005.51,-446.26 1267.32,-435.72 1637.57,-435.72 1899.38,-446.26"/>
<text text-anchor="middle" x="1452.44" y="-450.02" font-family="Times,serif" font-size="14.00">[task] ../../roles/kubeinit_prepare : add all service nodes to the all_service_nodes group</text>
</a>
</g>
</g>
<!-- Play #1: Main deployment playbook for integrating submariner (0)&#45;&gt;task_96378110&#45;5091&#45;43cb&#45;b56b&#45;140af085bb2b -->
<g id="edge_3fcc63dc-2371-4a27-8143-7e1a42c74b01" class="edge">
<title>Play #1: Main deployment playbook for integrating submariner (0)-&gt;task_96378110-5091-43cb-b56b-140af085bb2b</title>
<path fill="none" stroke="#94d96d" stroke-width="2" d="M883.59,-417.74C920.15,-420.93 958.13,-424.07 993.76,-426.72 1051.17,-430.98 1112.66,-434.99 1171.35,-438.55"/>
<polygon fill="#94d96d" stroke="#94d96d" stroke-width="2" points="1171.32,-442.05 1181.51,-439.16 1171.74,-435.07 1171.32,-442.05"/>
<text text-anchor="middle" x="966.26" y="-428.52" font-family="Times,serif" font-size="14.00" fill="#94d96d">7</text>
<links><link target="task_96378110-5091-43cb-b56b-140af085bb2b"/></links></g>
<!-- task_1bc92063&#45;ea5e&#45;4236&#45;adb2&#45;de5fee8ab5ec -->
<g id="task_1bc92063-ea5e-4236-adb2-de5fee8ab5ec" class="node">
<title>task_1bc92063-ea5e-4236-adb2-de5fee8ab5ec</title>
<g id="a_task_1bc92063-ea5e-4236-adb2-de5fee8ab5ec"><a xlink:title="[task] ../../roles/kubeinit_prepare : add all hosts to the all_hosts group">
<polygon fill="none" stroke="black" points="1814.13,-392.26 1814.13,-407.18 1602.26,-417.72 1302.62,-417.72 1090.75,-407.18 1090.75,-392.26 1302.62,-381.72 1602.26,-381.72 1814.13,-392.26"/>
<text text-anchor="middle" x="1452.44" y="-396.02" font-family="Times,serif" font-size="14.00">[task] ../../roles/kubeinit_prepare : add all hosts to the all_hosts group</text>
</a>
</g>
</g>
<!-- Play #1: Main deployment playbook for integrating submariner (0)&#45;&gt;task_1bc92063&#45;ea5e&#45;4236&#45;adb2&#45;de5fee8ab5ec -->
<g id="edge_1f5cfa1c-ffd1-4992-8e7a-a046d4bd1c6a" class="edge">
<title>Play #1: Main deployment playbook for integrating submariner (0)-&gt;task_1bc92063-ea5e-4236-adb2-de5fee8ab5ec</title>
<path fill="none" stroke="#94d96d" stroke-width="2" d="M939.01,-399.72C984.27,-399.72 1032.42,-399.72 1080.39,-399.72"/>
<polygon fill="#94d96d" stroke="#94d96d" stroke-width="2" points="1080.62,-403.22 1090.62,-399.72 1080.62,-396.22 1080.62,-403.22"/>
<text text-anchor="middle" x="966.26" y="-403.52" font-family="Times,serif" font-size="14.00" fill="#94d96d">8</text>
<links><link target="task_1bc92063-ea5e-4236-adb2-de5fee8ab5ec"/></links></g>
<!-- task_5bd90140&#45;16b8&#45;4688&#45;b3bd&#45;5b06cf7a6691 -->
<g id="task_5bd90140-16b8-4688-b3bd-5b06cf7a6691" class="node">
<title>task_5bd90140-16b8-4688-b3bd-5b06cf7a6691</title>
<g id="a_task_5bd90140-16b8-4688-b3bd-5b06cf7a6691"><a xlink:title="[task] ../../roles/kubeinit_prepare : list all_hosts">
<polygon fill="none" stroke="black" points="1700.61,-338.26 1700.61,-353.18 1555.24,-363.72 1349.65,-363.72 1204.28,-353.18 1204.28,-338.26 1349.65,-327.72 1555.24,-327.72 1700.61,-338.26"/>
<text text-anchor="middle" x="1452.44" y="-342.02" font-family="Times,serif" font-size="14.00">[task] ../../roles/kubeinit_prepare : list all_hosts</text>
</a>
</g>
</g>
<!-- Play #1: Main deployment playbook for integrating submariner (0)&#45;&gt;task_5bd90140&#45;16b8&#45;4688&#45;b3bd&#45;5b06cf7a6691 -->
<g id="edge_66fe1982-23df-4814-be32-f8666aa3d36d" class="edge">
<title>Play #1: Main deployment playbook for integrating submariner (0)-&gt;task_5bd90140-16b8-4688-b3bd-5b06cf7a6691</title>
<path fill="none" stroke="#94d96d" stroke-width="2" d="M883.59,-381.71C920.15,-378.51 958.13,-375.37 993.76,-372.72 1073.43,-366.8 1160.98,-361.38 1237.99,-356.96"/>
<polygon fill="#94d96d" stroke="#94d96d" stroke-width="2" points="1238.51,-360.44 1248.3,-356.38 1238.11,-353.45 1238.51,-360.44"/>
<text text-anchor="middle" x="966.26" y="-378.52" font-family="Times,serif" font-size="14.00" fill="#94d96d">9</text>
<links><link target="task_5bd90140-16b8-4688-b3bd-5b06cf7a6691"/></links></g>
<!-- task_ca96c32c&#45;e319&#45;4624&#45;a2dd&#45;51e406ac20cc -->
<g id="task_ca96c32c-e319-4624-a2dd-51e406ac20cc" class="node">
<title>task_ca96c32c-e319-4624-a2dd-51e406ac20cc</title>
<g id="a_task_ca96c32c-e319-4624-a2dd-51e406ac20cc"><a xlink:title="[task] ../../roles/kubeinit_prepare : list all_nodes">
<polygon fill="none" stroke="black" points="1702.83,-284.26 1702.83,-299.18 1556.16,-309.72 1348.73,-309.72 1202.06,-299.18 1202.06,-284.26 1348.73,-273.72 1556.16,-273.72 1702.83,-284.26"/>
<text text-anchor="middle" x="1452.44" y="-288.02" font-family="Times,serif" font-size="14.00">[task] ../../roles/kubeinit_prepare : list all_nodes</text>
</a>
</g>
</g>
<!-- Play #1: Main deployment playbook for integrating submariner (0)&#45;&gt;task_ca96c32c&#45;e319&#45;4624&#45;a2dd&#45;51e406ac20cc -->
<g id="edge_639db88c-0b47-434a-8589-6c520a5ed8da" class="edge">
<title>Play #1: Main deployment playbook for integrating submariner (0)-&gt;task_ca96c32c-e319-4624-a2dd-51e406ac20cc</title>
<path fill="none" stroke="#94d96d" stroke-width="2" d="M746.01,-381.72C805.76,-362.54 905.49,-333.03 993.76,-318.72 1057.44,-308.4 1126.66,-301.91 1191.54,-297.85"/>
<polygon fill="#94d96d" stroke="#94d96d" stroke-width="2" points="1192.15,-301.32 1201.92,-297.22 1191.72,-294.34 1192.15,-301.32"/>
<text text-anchor="middle" x="966.26" y="-327.52" font-family="Times,serif" font-size="14.00" fill="#94d96d">10</text>
<links><link target="task_ca96c32c-e319-4624-a2dd-51e406ac20cc"/></links></g>
<!-- task_08ad216a&#45;d5c4&#45;495f&#45;b946&#45;41d59c1e5a66 -->
<g id="task_08ad216a-d5c4-495f-b946-41d59c1e5a66" class="node">
<title>task_08ad216a-d5c4-495f-b946-41d59c1e5a66</title>
<g id="a_task_08ad216a-d5c4-495f-b946-41d59c1e5a66"><a xlink:title="[task] ../../roles/kubeinit_prepare : list all_master_nodes">
<polygon fill="none" stroke="black" points="1743.03,-230.26 1743.03,-245.18 1572.81,-255.72 1332.08,-255.72 1161.86,-245.18 1161.86,-230.26 1332.08,-219.72 1572.81,-219.72 1743.03,-230.26"/>
<text text-anchor="middle" x="1452.44" y="-234.02" font-family="Times,serif" font-size="14.00">[task] ../../roles/kubeinit_prepare : list all_master_nodes</text>
</a>
</g>
</g>
<!-- Play #1: Main deployment playbook for integrating submariner (0)&#45;&gt;task_08ad216a&#45;d5c4&#45;495f&#45;b946&#45;41d59c1e5a66 -->
<g id="edge_7d6dca84-a4b3-4fb2-99a4-91cd01804aa8" class="edge">
<title>Play #1: Main deployment playbook for integrating submariner (0)-&gt;task_08ad216a-d5c4-495f-b946-41d59c1e5a66</title>
<path fill="none" stroke="#94d96d" stroke-width="2" d="M722.61,-381.63C775.53,-351.14 889.03,-290.35 993.76,-264.72 1044.15,-252.39 1098.55,-244.59 1151.65,-239.81"/>
<polygon fill="#94d96d" stroke="#94d96d" stroke-width="2" points="1152.24,-243.27 1161.9,-238.92 1151.63,-236.3 1152.24,-243.27"/>
<text text-anchor="middle" x="966.26" y="-277.52" font-family="Times,serif" font-size="14.00" fill="#94d96d">11</text>
<links><link target="task_08ad216a-d5c4-495f-b946-41d59c1e5a66"/></links></g>
<!-- task_8f616dd7&#45;0dd6&#45;4a96&#45;8022&#45;61c37c9cb091 -->
<g id="task_8f616dd7-0dd6-4a96-8022-61c37c9cb091" class="node">
<title>task_8f616dd7-0dd6-4a96-8022-61c37c9cb091</title>
<g id="a_task_8f616dd7-0dd6-4a96-8022-61c37c9cb091"><a xlink:title="[task] ../../roles/kubeinit_prepare : list all_worker_nodes">
<polygon fill="none" stroke="black" points="1743.03,-176.26 1743.03,-191.18 1572.81,-201.72 1332.08,-201.72 1161.86,-191.18 1161.86,-176.26 1332.08,-165.72 1572.81,-165.72 1743.03,-176.26"/>
<text text-anchor="middle" x="1452.44" y="-180.02" font-family="Times,serif" font-size="14.00">[task] ../../roles/kubeinit_prepare : list all_worker_nodes</text>
</a>
</g>
</g>
<!-- Play #1: Main deployment playbook for integrating submariner (0)&#45;&gt;task_8f616dd7&#45;0dd6&#45;4a96&#45;8022&#45;61c37c9cb091 -->
<g id="edge_d59e4603-1c8c-40d7-a999-81fb27f968c0" class="edge">
<title>Play #1: Main deployment playbook for integrating submariner (0)-&gt;task_8f616dd7-0dd6-4a96-8022-61c37c9cb091</title>
<path fill="none" stroke="#94d96d" stroke-width="2" d="M712.69,-381.65C758.84,-342.07 876.37,-248.25 993.76,-210.72 1043.73,-194.75 1098.29,-185.21 1151.78,-179.85"/>
<polygon fill="#94d96d" stroke="#94d96d" stroke-width="2" points="1152.14,-183.33 1161.76,-178.9 1151.47,-176.36 1152.14,-183.33"/>
<text text-anchor="middle" x="966.26" y="-227.52" font-family="Times,serif" font-size="14.00" fill="#94d96d">12</text>
<links><link target="task_8f616dd7-0dd6-4a96-8022-61c37c9cb091"/></links></g>
<!-- task_6be9b4b6&#45;f614&#45;4325&#45;a042&#45;c3540f24b48c -->
<g id="task_6be9b4b6-f614-4325-a042-c3540f24b48c" class="node">
<title>task_6be9b4b6-f614-4325-a042-c3540f24b48c</title>
<g id="a_task_6be9b4b6-f614-4325-a042-c3540f24b48c"><a xlink:title="[task] ../../roles/kubeinit_prepare : list all_service_nodes">
<polygon fill="none" stroke="black" points="1743.93,-122.26 1743.93,-137.18 1573.18,-147.72 1331.7,-147.72 1160.95,-137.18 1160.95,-122.26 1331.7,-111.72 1573.18,-111.72 1743.93,-122.26"/>
<text text-anchor="middle" x="1452.44" y="-126.02" font-family="Times,serif" font-size="14.00">[task] ../../roles/kubeinit_prepare : list all_service_nodes</text>
</a>
</g>
</g>
<!-- Play #1: Main deployment playbook for integrating submariner (0)&#45;&gt;task_6be9b4b6&#45;f614&#45;4325&#45;a042&#45;c3540f24b48c -->
<g id="edge_4eec4874-591e-424c-85ca-a82d75d3eaf2" class="edge">
<title>Play #1: Main deployment playbook for integrating submariner (0)-&gt;task_6be9b4b6-f614-4325-a042-c3540f24b48c</title>
<path fill="none" stroke="#94d96d" stroke-width="2" d="M707.2,-381.59C747.51,-334.18 864.27,-206.75 993.76,-156.72 1078.49,-123.99 1178.61,-115.07 1263.58,-115.25"/>
<polygon fill="#94d96d" stroke="#94d96d" stroke-width="2" points="1263.57,-118.75 1273.6,-115.31 1263.62,-111.75 1263.57,-118.75"/>
<text text-anchor="middle" x="966.26" y="-172.52" font-family="Times,serif" font-size="14.00" fill="#94d96d">13</text>
<links><link target="task_6be9b4b6-f614-4325-a042-c3540f24b48c"/></links></g>
<!-- task_c3dec235&#45;37bb&#45;4d07&#45;beb3&#45;9574bed40170 -->
<g id="task_c3dec235-37bb-4d07-beb3-9574bed40170" class="node">
<title>task_c3dec235-37bb-4d07-beb3-9574bed40170</title>
<g id="a_task_c3dec235-37bb-4d07-beb3-9574bed40170"><a xlink:title="[task] ../../roles/kubeinit_prepare : list all_bootstrap_nodes">
<polygon fill="none" stroke="black" points="1756.26,-68.26 1756.26,-83.18 1578.29,-93.72 1326.6,-93.72 1148.62,-83.18 1148.62,-68.26 1326.6,-57.72 1578.29,-57.72 1756.26,-68.26"/>
<text text-anchor="middle" x="1452.44" y="-72.02" font-family="Times,serif" font-size="14.00">[task] ../../roles/kubeinit_prepare : list all_bootstrap_nodes</text>
</a>
</g>
</g>
<!-- Play #1: Main deployment playbook for integrating submariner (0)&#45;&gt;task_c3dec235&#45;37bb&#45;4d07&#45;beb3&#45;9574bed40170 -->
<g id="edge_d5c3c689-94de-494a-9e7f-f8d02b73508c" class="edge">
<title>Play #1: Main deployment playbook for integrating submariner (0)-&gt;task_c3dec235-37bb-4d07-beb3-9574bed40170</title>
<path fill="none" stroke="#94d96d" stroke-width="2" d="M703.56,-381.64C738.61,-327.39 851.77,-165.86 993.76,-102.72 1088.4,-60.64 1205.08,-54.36 1296.94,-58.36"/>
<polygon fill="#94d96d" stroke="#94d96d" stroke-width="2" points="1297,-61.87 1307.16,-58.85 1297.34,-54.88 1297,-61.87"/>
<text text-anchor="middle" x="966.26" y="-121.52" font-family="Times,serif" font-size="14.00" fill="#94d96d">14</text>
<links><link target="task_c3dec235-37bb-4d07-beb3-9574bed40170"/></links></g>
<!-- task_46e653d1&#45;494a&#45;4363&#45;8d72&#45;b69424a77409 -->
<g id="task_46e653d1-494a-4363-8d72-b69424a77409" class="node">
<title>task_46e653d1-494a-4363-8d72-b69424a77409</title>
<g id="a_task_46e653d1-494a-4363-8d72-b69424a77409"><a xlink:title="[task] ../../roles/kubeinit_submariner : Execute subctl verify">
<polygon fill="none" stroke="black" points="1762.92,-14.26 1762.92,-29.18 1581.05,-39.72 1323.84,-39.72 1141.96,-29.18 1141.96,-14.26 1323.84,-3.72 1581.05,-3.72 1762.92,-14.26"/>
<text text-anchor="middle" x="1452.44" y="-18.02" font-family="Times,serif" font-size="14.00">[task] ../../roles/kubeinit_submariner : Execute subctl verify</text>
</a>
</g>
</g>
<!-- Play #1: Main deployment playbook for integrating submariner (0)&#45;&gt;task_46e653d1&#45;494a&#45;4363&#45;8d72&#45;b69424a77409 -->
<g id="edge_5223f0fb-73b3-4615-b22e-bb8b6948850a" class="edge">
<title>Play #1: Main deployment playbook for integrating submariner (0)-&gt;task_46e653d1-494a-4363-8d72-b69424a77409</title>
<path fill="none" stroke="#94d96d" stroke-width="2" d="M701.08,-381.5C731.53,-320.86 839.01,-125.4 993.76,-48.72 1093.82,0.85 1221.65,4.2 1316.77,-2.9"/>
<polygon fill="#94d96d" stroke="#94d96d" stroke-width="2" points="1316.5,-6.39 1326.75,-3.69 1317.06,0.59 1316.5,-6.39"/>
<text text-anchor="middle" x="966.26" y="-70.52" font-family="Times,serif" font-size="14.00" fill="#94d96d">15</text>
<links><link target="task_46e653d1-494a-4363-8d72-b69424a77409"/></links></g>
</g>
</svg>