<?xml version="1.0" encoding="UTF-8" standalone="no"?>
<!DOCTYPE svg PUBLIC "-//W3C//DTD SVG 1.1//EN"
 "http://www.w3.org/Graphics/SVG/1.1/DTD/svg11.dtd">
<!-- Generated by graphviz version 2.43.0 (0)
 -->
<!-- Title: kubeinit/playbook.yml  Pages: 1 -->
<svg width="2332pt" height="390pt"
 viewBox="0.00 0.00 2331.72 389.72" xmlns="http://www.w3.org/2000/svg" xmlns:xlink="http://www.w3.org/1999/xlink">
<g id="graph0" class="graph" transform="scale(1 1) rotate(0) translate(4 385.72)">
<title>kubeinit/playbook.yml </title>
<polygon fill="white" stroke="transparent" points="-4,4 -4,-385.72 2327.72,-385.72 2327.72,4 -4,4"/>
<!-- kubeinit/playbook.yml -->
<g id="root_node" class="node">
<title>kubeinit/playbook.yml</title>
<ellipse fill="none" stroke="black" stroke-dasharray="1,5" cx="113.09" cy="-205.72" rx="113.18" ry="18"/>
<text text-anchor="middle" x="113.09" y="-202.02" font-family="Times,serif" font-size="14.00">kubeinit/playbook.yml</text>
</g>
<!-- task&#45;download&#45;images -->
<g id="play_82c880e5&#45;3d01&#45;4984&#45;b57f&#45;d42f0e74089d" class="node">
<title>task&#45;download&#45;images</title>
<g id="a_play_82c880e5&#45;3d01&#45;4984&#45;b57f&#45;d42f0e74089d"><a xlink:title="localhost">
<polygon fill="none" stroke="#000000" points="518.51,-198.26 518.51,-213.18 446.33,-223.72 344.25,-223.72 272.07,-213.18 272.07,-198.26 344.25,-187.72 446.33,-187.72 518.51,-198.26"/>
<text text-anchor="middle" x="395.29" y="-202.02" font-family="Times,serif" font-size="14.00" fill="#000000">task&#45;download&#45;images</text>
</a>
</g>
</g>
<!-- kubeinit/playbook.yml&#45;&gt;task&#45;download&#45;images -->
<g id="edge_8f9cc11f&#45;028d&#45;41c1&#45;bbf0&#45;bb5e23cc2248" class="edge">
<title>kubeinit/playbook.yml&#45;&gt;task&#45;download&#45;images</title>
<path fill="none" stroke="#000000" stroke-width="2" d="M226.44,-205.72C237.98,-205.72 249.79,-205.72 261.52,-205.72"/>
<polygon fill="#000000" stroke="#000000" stroke-width="2" points="261.8,-209.22 271.8,-205.72 261.8,-202.22 261.8,-209.22"/>
<text text-anchor="middle" x="249.18" y="-209.52" font-family="Times,serif" font-size="14.00" fill="#000000">3</text>
</g>
<!-- task_9dbbb724&#45;c841&#45;4764&#45;9e5f&#45;fca87718c105 -->
<g id="task_9dbbb724&#45;c841&#45;4764&#45;9e5f&#45;fca87718c105" class="node">
<title>task_9dbbb724&#45;c841&#45;4764&#45;9e5f&#45;fca87718c105</title>
<g id="a_task_9dbbb724&#45;c841&#45;4764&#45;9e5f&#45;fca87718c105"><a xlink:title="[task] kubeinit.kubeinit.kubeinit_libvirt : Create tuples for hosts and guest vms">
<polygon fill="none" stroke="black" points="2278.83,-333.26 2278.83,-348.18 2038.5,-358.72 1698.62,-358.72 1458.29,-348.18 1458.29,-333.26 1698.62,-322.72 2038.5,-322.72 2278.83,-333.26"/>
<text text-anchor="middle" x="1868.56" y="-337.02" font-family="Times,serif" font-size="14.00">[task] kubeinit.kubeinit.kubeinit_libvirt : Create tuples for hosts and guest vms</text>
</a>
</g>
</g>
<!-- task&#45;download&#45;images&#45;&gt;task_9dbbb724&#45;c841&#45;4764&#45;9e5f&#45;fca87718c105 -->
<g id="edge_28bc3934&#45;7500&#45;41d2&#45;b714&#45;7a086854e117" class="edge">
<title>task&#45;download&#45;images&#45;&gt;task_9dbbb724&#45;c841&#45;4764&#45;9e5f&#45;fca87718c105</title>
<path fill="none" stroke="#000000" stroke-width="2" d="M412.14,-224.11C436,-250.25 483.96,-297.04 536.4,-315.72 725.72,-383.15 1272.01,-370.51 1602.98,-355.47"/>
<polygon fill="#000000" stroke="#000000" stroke-width="2" points="1603.37,-358.95 1613.2,-355 1603.05,-351.96 1603.37,-358.95"/>
<text text-anchor="middle" x="965.9" y="-370.52" font-family="Times,serif" font-size="14.00" fill="#000000">1 &#160;[when: hostvars[item[1]].target in item[0]]</text>
</g>
<!-- task_ce556243&#45;2ddb&#45;4c21&#45;b761&#45;200a1b151f4a -->
<g id="task_ce556243&#45;2ddb&#45;4c21&#45;b761&#45;200a1b151f4a" class="node">
<title>task_ce556243&#45;2ddb&#45;4c21&#45;b761&#45;200a1b151f4a</title>
<g id="a_task_ce556243&#45;2ddb&#45;4c21&#45;b761&#45;200a1b151f4a"><a xlink:title="[task] kubeinit.kubeinit.kubeinit_libvirt : Create new directories for config files per node">
<polygon fill="none" stroke="black" points="2323.88,-279.26 2323.88,-294.18 2057.16,-304.72 1679.96,-304.72 1413.24,-294.18 1413.24,-279.26 1679.96,-268.72 2057.16,-268.72 2323.88,-279.26"/>
<text text-anchor="middle" x="1868.56" y="-283.02" font-family="Times,serif" font-size="14.00">[task] kubeinit.kubeinit.kubeinit_libvirt : Create new directories for config files per node</text>
</a>
</g>
</g>
<!-- task&#45;download&#45;images&#45;&gt;task_ce556243&#45;2ddb&#45;4c21&#45;b761&#45;200a1b151f4a -->
<g id="edge_01f4f58d&#45;f7ed&#45;4eb1&#45;aa31&#45;3fbbb7aaa141" class="edge">
<title>task&#45;download&#45;images&#45;&gt;task_ce556243&#45;2ddb&#45;4c21&#45;b761&#45;200a1b151f4a</title>
<path fill="none" stroke="#000000" stroke-width="2" d="M450.6,-223.11C476.32,-230.56 507.65,-238.5 536.4,-242.72 847.55,-288.35 1203.8,-297.92 1469.41,-296.86"/>
<polygon fill="#000000" stroke="#000000" stroke-width="2" points="1469.62,-300.36 1479.61,-296.81 1469.59,-293.36 1469.62,-300.36"/>
<text text-anchor="middle" x="965.9" y="-300.52" font-family="Times,serif" font-size="14.00" fill="#000000">2</text>
</g>
<!-- task_8543da18&#45;11e7&#45;4f7f&#45;8f14&#45;649869e4e4ad -->
<g id="task_8543da18&#45;11e7&#45;4f7f&#45;8f14&#45;649869e4e4ad" class="node">
<title>task_8543da18&#45;11e7&#45;4f7f&#45;8f14&#45;649869e4e4ad</title>
<g id="a_task_8543da18&#45;11e7&#45;4f7f&#45;8f14&#45;649869e4e4ad"><a xlink:title="[task] kubeinit.kubeinit.kubeinit_libvirt : Create tuples for hosts and cloud images">
<polygon fill="none" stroke="black" points="2292.97,-225.26 2292.97,-240.18 2044.36,-250.72 1692.76,-250.72 1444.15,-240.18 1444.15,-225.26 1692.76,-214.72 2044.36,-214.72 2292.97,-225.26"/>
<text text-anchor="middle" x="1868.56" y="-229.02" font-family="Times,serif" font-size="14.00">[task] kubeinit.kubeinit.kubeinit_libvirt : Create tuples for hosts and cloud images</text>
</a>
</g>
</g>
<!-- task&#45;download&#45;images&#45;&gt;task_8543da18&#45;11e7&#45;4f7f&#45;8f14&#45;649869e4e4ad -->
<g id="edge_c4348a71&#45;628a&#45;47d9&#45;b75f&#45;2edd481176e7" class="edge">
<title>task&#45;download&#45;images&#45;&gt;task_8543da18&#45;11e7&#45;4f7f&#45;8f14&#45;649869e4e4ad</title>
<path fill="none" stroke="#000000" stroke-width="2" d="M518.57,-207.96C718.44,-211.63 1124.35,-219.08 1438.95,-224.85"/>
<polygon fill="#000000" stroke="#000000" stroke-width="2" points="1439.11,-228.36 1449.17,-225.04 1439.24,-221.36 1439.11,-228.36"/>
<text text-anchor="middle" x="965.9" y="-227.52" font-family="Times,serif" font-size="14.00" fill="#000000">3 &#160;[when: hostvars[guest_vm].target in hypervisor and kubeinit_libvirt_cloud_images[kubeinit_cluster_distro] is defined]</text>
</g>
<!-- task_cde47492&#45;2d5b&#45;4adf&#45;bcf1&#45;b56227a6ce93 -->
<g id="task_cde47492&#45;2d5b&#45;4adf&#45;bcf1&#45;b56227a6ce93" class="node">
<title>task_cde47492&#45;2d5b&#45;4adf&#45;bcf1&#45;b56227a6ce93</title>
<g id="a_task_cde47492&#45;2d5b&#45;4adf&#45;bcf1&#45;b56227a6ce93"><a xlink:title="[task] kubeinit.kubeinit.kubeinit_libvirt : Remove duplicates">
<polygon fill="none" stroke="black" points="2181.67,-171.26 2181.67,-186.18 1998.26,-196.72 1738.87,-196.72 1555.45,-186.18 1555.45,-171.26 1738.87,-160.72 1998.26,-160.72 2181.67,-171.26"/>
<text text-anchor="middle" x="1868.56" y="-175.02" font-family="Times,serif" font-size="14.00">[task] kubeinit.kubeinit.kubeinit_libvirt : Remove duplicates</text>
</a>
</g>
</g>
<!-- task&#45;download&#45;images&#45;&gt;task_cde47492&#45;2d5b&#45;4adf&#45;bcf1&#45;b56227a6ce93 -->
<g id="edge_646398e8&#45;b237&#45;455f&#45;b386&#45;5383e7c66eac" class="edge">
<title>task&#45;download&#45;images&#45;&gt;task_cde47492&#45;2d5b&#45;4adf&#45;bcf1&#45;b56227a6ce93</title>
<path fill="none" stroke="#000000" stroke-width="2" d="M485.47,-193.37C502.35,-191.46 519.9,-189.78 536.4,-188.72 881.24,-166.58 1277.34,-166.89 1547.2,-170.98"/>
<polygon fill="#000000" stroke="#000000" stroke-width="2" points="1547.5,-174.48 1557.55,-171.14 1547.61,-167.48 1547.5,-174.48"/>
<text text-anchor="middle" x="965.9" y="-192.52" font-family="Times,serif" font-size="14.00" fill="#000000">4</text>
</g>
<!-- task_dd7c208d&#45;3637&#45;44f2&#45;8798&#45;178804ef1f93 -->
<g id="task_dd7c208d&#45;3637&#45;44f2&#45;8798&#45;178804ef1f93" class="node">
<title>task_dd7c208d&#45;3637&#45;44f2&#45;8798&#45;178804ef1f93</title>
<g id="a_task_dd7c208d&#45;3637&#45;44f2&#45;8798&#45;178804ef1f93"><a xlink:title="[task] kubeinit.kubeinit.kubeinit_libvirt : Download cloud images">
<polygon fill="none" stroke="black" points="2205.51,-117.26 2205.51,-132.18 2008.13,-142.72 1728.99,-142.72 1531.62,-132.18 1531.62,-117.26 1728.99,-106.72 2008.13,-106.72 2205.51,-117.26"/>
<text text-anchor="middle" x="1868.56" y="-121.02" font-family="Times,serif" font-size="14.00">[task] kubeinit.kubeinit.kubeinit_libvirt : Download cloud images</text>
</a>
</g>
</g>
<!-- task&#45;download&#45;images&#45;&gt;task_dd7c208d&#45;3637&#45;44f2&#45;8798&#45;178804ef1f93 -->
<g id="edge_2cd00db6&#45;6d06&#45;4267&#45;a89b&#45;1adc1ed7ef16" class="edge">
<title>task&#45;download&#45;images&#45;&gt;task_dd7c208d&#45;3637&#45;44f2&#45;8798&#45;178804ef1f93</title>
<path fill="none" stroke="#000000" stroke-width="2" d="M431.19,-187.65C458.89,-174.33 499.04,-157.27 536.4,-149.72 717.33,-113.14 1190.66,-112.47 1521.1,-117.15"/>
<polygon fill="#000000" stroke="#000000" stroke-width="2" points="1521.28,-120.65 1531.33,-117.29 1521.38,-113.65 1521.28,-120.65"/>
<text text-anchor="middle" x="965.9" y="-153.52" font-family="Times,serif" font-size="14.00" fill="#000000">5</text>
</g>
<!-- task_10fdad3a&#45;8be3&#45;4444&#45;95b7&#45;d34a3a41c2a2 -->
<g id="task_10fdad3a&#45;8be3&#45;4444&#45;95b7&#45;d34a3a41c2a2" class="node">
<title>task_10fdad3a&#45;8be3&#45;4444&#45;95b7&#45;d34a3a41c2a2</title>
<g id="a_task_10fdad3a&#45;8be3&#45;4444&#45;95b7&#45;d34a3a41c2a2"><a xlink:title="[task] kubeinit.kubeinit.kubeinit_libvirt : Update packages in cloud images">
<polygon fill="none" stroke="black" points="2255,-63.26 2255,-78.18 2028.63,-88.72 1708.5,-88.72 1482.13,-78.18 1482.13,-63.26 1708.5,-52.72 2028.63,-52.72 2255,-63.26"/>
<text text-anchor="middle" x="1868.56" y="-67.02" font-family="Times,serif" font-size="14.00">[task] kubeinit.kubeinit.kubeinit_libvirt : Update packages in cloud images</text>
</a>
</g>
</g>
<!-- task&#45;download&#45;images&#45;&gt;task_10fdad3a&#45;8be3&#45;4444&#45;95b7&#45;d34a3a41c2a2 -->
<g id="edge_7f898670&#45;e6a8&#45;4def&#45;bef0&#45;947ad209559d" class="edge">
<title>task&#45;download&#45;images&#45;&gt;task_10fdad3a&#45;8be3&#45;4444&#45;95b7&#45;d34a3a41c2a2</title>
<path fill="none" stroke="#000000" stroke-width="2" d="M412.14,-187.33C436,-161.19 483.96,-114.4 536.4,-95.72 969.8,58.65 1533.96,-11.91 1763.56,-50.96"/>
<polygon fill="#000000" stroke="#000000" stroke-width="2" points="1763.12,-54.43 1773.57,-52.68 1764.31,-47.53 1763.12,-54.43"/>
<text text-anchor="middle" x="965.9" y="-99.52" font-family="Times,serif" font-size="14.00" fill="#000000">6</text>
</g>
</g>
</svg>
