<?xml version="1.0" encoding="UTF-8" standalone="no"?>
<!DOCTYPE svg PUBLIC "-//W3C//DTD SVG 1.1//EN"
 "http://www.w3.org/Graphics/SVG/1.1/DTD/svg11.dtd">
<!-- Generated by graphviz version 2.43.0 (0)
 -->
<!-- Title: kubeinit/playbook.yml  Pages: 1 -->
<svg width="2537pt" height="1467pt"
 viewBox="0.00 0.00 2537.49 1467.23" xmlns="http://www.w3.org/2000/svg" xmlns:xlink="http://www.w3.org/1999/xlink">
<g id="graph0" class="graph" transform="scale(1 1) rotate(0) translate(4 1463.23)">
<title>kubeinit/playbook.yml </title>
<polygon fill="white" stroke="transparent" points="-4,4 -4,-1463.23 2533.49,-1463.23 2533.49,4 -4,4"/>
<!-- kubeinit/playbook.yml -->
<g id="root_node" class="node">
<title>kubeinit/playbook.yml</title>
<ellipse fill="none" stroke="black" stroke-dasharray="1,5" cx="113.09" cy="-748.23" rx="113.18" ry="18"/>
<text text-anchor="middle" x="113.09" y="-744.53" font-family="Times,serif" font-size="14.00">kubeinit/playbook.yml</text>
</g>
<!-- task&#45;create&#45;network -->
<g id="play_fa630362&#45;b717&#45;406a&#45;8d56&#45;43b8780a8518" class="node">
<title>task&#45;create&#45;network</title>
<g id="a_play_fa630362&#45;b717&#45;406a&#45;8d56&#45;43b8780a8518"><a xlink:title="localhost">
<polygon fill="none" stroke="#000000" points="495.75,-740.77 495.75,-755.68 430.31,-766.23 337.76,-766.23 272.32,-755.68 272.32,-740.77 337.76,-730.23 430.31,-730.23 495.75,-740.77"/>
<text text-anchor="middle" x="384.04" y="-744.53" font-family="Times,serif" font-size="14.00" fill="#000000">task&#45;create&#45;network</text>
</a>
</g>
</g>
<!-- kubeinit/playbook.yml&#45;&gt;task&#45;create&#45;network -->
<g id="edge_dd23136e&#45;0577&#45;432e&#45;85a9&#45;eda2de90a179" class="edge">
<title>kubeinit/playbook.yml&#45;&gt;task&#45;create&#45;network</title>
<path fill="none" stroke="#000000" stroke-width="2" d="M226.2,-748.23C237.9,-748.23 249.84,-748.23 261.64,-748.23"/>
<polygon fill="#000000" stroke="#000000" stroke-width="2" points="261.97,-751.73 271.97,-748.23 261.97,-744.73 261.97,-751.73"/>
<text text-anchor="middle" x="249.18" y="-752.03" font-family="Times,serif" font-size="14.00" fill="#000000">3</text>
</g>
<!-- task_4d059da7&#45;5523&#45;4e8a&#45;b8cf&#45;590c7140c808 -->
<g id="task_4d059da7&#45;5523&#45;4e8a&#45;b8cf&#45;590c7140c808" class="node">
<title>task_4d059da7&#45;5523&#45;4e8a&#45;b8cf&#45;590c7140c808</title>
<g id="a_task_4d059da7&#45;5523&#45;4e8a&#45;b8cf&#45;590c7140c808"><a xlink:title="[task] kubeinit.kubeinit.kubeinit_libvirt : Install OVN packages in CentOS/RHEL">
<polygon fill="none" stroke="black" points="2338.09,-1415.77 2338.09,-1430.68 2096.22,-1441.23 1754.16,-1441.23 1512.29,-1430.68 1512.29,-1415.77 1754.16,-1405.23 2096.22,-1405.23 2338.09,-1415.77"/>
<text text-anchor="middle" x="1925.19" y="-1419.53" font-family="Times,serif" font-size="14.00">[task] kubeinit.kubeinit.kubeinit_libvirt : Install OVN packages in CentOS/RHEL</text>
</a>
</g>
</g>
<!-- task&#45;create&#45;network&#45;&gt;task_4d059da7&#45;5523&#45;4e8a&#45;b8cf&#45;590c7140c808 -->
<g id="edge_383dbf6b&#45;7cd9&#45;46a0&#45;8292&#45;8f7071cdfa76" class="edge">
<title>task&#45;create&#45;network&#45;&gt;task_4d059da7&#45;5523&#45;4e8a&#45;b8cf&#45;590c7140c808</title>
<path fill="none" stroke="#000000" stroke-width="2" d="M385.75,-766.26C389.94,-861.61 414.66,-1305.95 513.89,-1389.23 595.9,-1458.06 1223.91,-1448.72 1613.74,-1435.89"/>
<polygon fill="#000000" stroke="#000000" stroke-width="2" points="1613.88,-1439.39 1623.76,-1435.56 1613.65,-1432.39 1613.88,-1439.39"/>
<text text-anchor="middle" x="908.39" y="-1448.03" font-family="Times,serif" font-size="14.00" fill="#000000">1 &#160;[when: hostvars[kubeinit_ovn_central_host].distribution_family == &#39;CentOS&#39;]</text>
</g>
<!-- task_05b3154e&#45;9d3c&#45;4807&#45;b5f9&#45;1e6c9d8ea5f9 -->
<g id="task_05b3154e&#45;9d3c&#45;4807&#45;b5f9&#45;1e6c9d8ea5f9" class="node">
<title>task_05b3154e&#45;9d3c&#45;4807&#45;b5f9&#45;1e6c9d8ea5f9</title>
<g id="a_task_05b3154e&#45;9d3c&#45;4807&#45;b5f9&#45;1e6c9d8ea5f9"><a xlink:title="[task] kubeinit.kubeinit.kubeinit_libvirt : Install OVN packages in Fedora">
<polygon fill="none" stroke="black" points="2301.43,-1361.77 2301.43,-1376.68 2081.03,-1387.23 1769.35,-1387.23 1548.95,-1376.68 1548.95,-1361.77 1769.35,-1351.23 2081.03,-1351.23 2301.43,-1361.77"/>
<text text-anchor="middle" x="1925.19" y="-1365.53" font-family="Times,serif" font-size="14.00">[task] kubeinit.kubeinit.kubeinit_libvirt : Install OVN packages in Fedora</text>
</a>
</g>
</g>
<!-- task&#45;create&#45;network&#45;&gt;task_05b3154e&#45;9d3c&#45;4807&#45;b5f9&#45;1e6c9d8ea5f9 -->
<g id="edge_2ad233ed&#45;cc8f&#45;43d9&#45;ba88&#45;99b503c2a40b" class="edge">
<title>task&#45;create&#45;network&#45;&gt;task_05b3154e&#45;9d3c&#45;4807&#45;b5f9&#45;1e6c9d8ea5f9</title>
<path fill="none" stroke="#000000" stroke-width="2" d="M386.12,-766.52C391.94,-857.51 422.61,-1259.99 513.89,-1335.23 553.12,-1367.56 1134.79,-1372.26 1538.72,-1371.56"/>
<polygon fill="#000000" stroke="#000000" stroke-width="2" points="1538.83,-1375.06 1548.82,-1371.54 1538.81,-1368.06 1538.83,-1375.06"/>
<text text-anchor="middle" x="908.39" y="-1374.03" font-family="Times,serif" font-size="14.00" fill="#000000">2 &#160;[when: hostvars[kubeinit_ovn_central_host].distribution_family == &#39;Fedora&#39;]</text>
</g>
<!-- task_1f65b39d&#45;6836&#45;4d2f&#45;9fb7&#45;99b2d8d5e501 -->
<g id="task_1f65b39d&#45;6836&#45;4d2f&#45;9fb7&#45;99b2d8d5e501" class="node">
<title>task_1f65b39d&#45;6836&#45;4d2f&#45;9fb7&#45;99b2d8d5e501</title>
<g id="a_task_1f65b39d&#45;6836&#45;4d2f&#45;9fb7&#45;99b2d8d5e501"><a xlink:title="[task] kubeinit.kubeinit.kubeinit_libvirt : Install OVN packages in Ubuntu/Debian">
<polygon fill="none" stroke="black" points="2342.94,-1307.77 2342.94,-1322.68 2098.23,-1333.23 1752.15,-1333.23 1507.44,-1322.68 1507.44,-1307.77 1752.15,-1297.23 2098.23,-1297.23 2342.94,-1307.77"/>
<text text-anchor="middle" x="1925.19" y="-1311.53" font-family="Times,serif" font-size="14.00">[task] kubeinit.kubeinit.kubeinit_libvirt : Install OVN packages in Ubuntu/Debian</text>
</a>
</g>
</g>
<!-- task&#45;create&#45;network&#45;&gt;task_1f65b39d&#45;6836&#45;4d2f&#45;9fb7&#45;99b2d8d5e501 -->
<g id="edge_320526be&#45;e1b9&#45;4e7c&#45;8967&#45;336ef2cb70d4" class="edge">
<title>task&#45;create&#45;network&#45;&gt;task_1f65b39d&#45;6836&#45;4d2f&#45;9fb7&#45;99b2d8d5e501</title>
<path fill="none" stroke="#000000" stroke-width="2" d="M386.53,-766.25C394,-851.61 430.35,-1213.83 513.89,-1281.23 552.11,-1312.06 1096.14,-1317.61 1497.1,-1317.44"/>
<polygon fill="#000000" stroke="#000000" stroke-width="2" points="1497.14,-1320.94 1507.14,-1317.44 1497.14,-1313.94 1497.14,-1320.94"/>
<text text-anchor="middle" x="908.39" y="-1320.03" font-family="Times,serif" font-size="14.00" fill="#000000">3 &#160;[when: hostvars[kubeinit_ovn_central_host].distribution_family == &#39;Debian&#39;]</text>
</g>
<!-- task_50bc222a&#45;41fc&#45;4102&#45;b06c&#45;622d5a08fd2f -->
<g id="task_50bc222a&#45;41fc&#45;4102&#45;b06c&#45;622d5a08fd2f" class="node">
<title>task_50bc222a&#45;41fc&#45;4102&#45;b06c&#45;622d5a08fd2f</title>
<g id="a_task_50bc222a&#45;41fc&#45;4102&#45;b06c&#45;622d5a08fd2f"><a xlink:title="[task] kubeinit.kubeinit.kubeinit_libvirt : Collect all HVs which are not the ovn&#45;central host">
<polygon fill="none" stroke="black" points="2392.84,-1253.77 2392.84,-1268.68 2118.9,-1279.23 1731.49,-1279.23 1457.55,-1268.68 1457.55,-1253.77 1731.49,-1243.23 2118.9,-1243.23 2392.84,-1253.77"/>
<text text-anchor="middle" x="1925.19" y="-1257.53" font-family="Times,serif" font-size="14.00">[task] kubeinit.kubeinit.kubeinit_libvirt : Collect all HVs which are not the ovn&#45;central host</text>
</a>
</g>
</g>
<!-- task&#45;create&#45;network&#45;&gt;task_50bc222a&#45;41fc&#45;4102&#45;b06c&#45;622d5a08fd2f -->
<g id="edge_c16360ce&#45;bbb2&#45;4a3f&#45;83fd&#45;9484b958690c" class="edge">
<title>task&#45;create&#45;network&#45;&gt;task_50bc222a&#45;41fc&#45;4102&#45;b06c&#45;622d5a08fd2f</title>
<path fill="none" stroke="#000000" stroke-width="2" d="M387.05,-766.28C396.37,-846.31 438.14,-1167.7 513.89,-1227.23 550.91,-1256.32 1052.48,-1262.73 1447.05,-1263.21"/>
<polygon fill="#000000" stroke="#000000" stroke-width="2" points="1447.22,-1266.71 1457.23,-1263.22 1447.23,-1259.71 1447.22,-1266.71"/>
<text text-anchor="middle" x="908.39" y="-1266.03" font-family="Times,serif" font-size="14.00" fill="#000000">4 &#160;[when: ovn_host not in kubeinit_ovn_central_host]</text>
</g>
<!-- task_ebb7f8d8&#45;392e&#45;4869&#45;b968&#45;ac6f273afaae -->
<g id="task_ebb7f8d8&#45;392e&#45;4869&#45;b968&#45;ac6f273afaae" class="node">
<title>task_ebb7f8d8&#45;392e&#45;4869&#45;b968&#45;ac6f273afaae</title>
<g id="a_task_ebb7f8d8&#45;392e&#45;4869&#45;b968&#45;ac6f273afaae"><a xlink:title="[task] kubeinit.kubeinit.kubeinit_libvirt : Install OVN packages in CentOS/RHEL">
<polygon fill="none" stroke="black" points="2338.09,-1199.77 2338.09,-1214.68 2096.22,-1225.23 1754.16,-1225.23 1512.29,-1214.68 1512.29,-1199.77 1754.16,-1189.23 2096.22,-1189.23 2338.09,-1199.77"/>
<text text-anchor="middle" x="1925.19" y="-1203.53" font-family="Times,serif" font-size="14.00">[task] kubeinit.kubeinit.kubeinit_libvirt : Install OVN packages in CentOS/RHEL</text>
</a>
</g>
</g>
<!-- task&#45;create&#45;network&#45;&gt;task_ebb7f8d8&#45;392e&#45;4869&#45;b968&#45;ac6f273afaae -->
<g id="edge_fe33904c&#45;7d4f&#45;4b39&#45;b47b&#45;cfd443fa6844" class="edge">
<title>task&#45;create&#45;network&#45;&gt;task_ebb7f8d8&#45;392e&#45;4869&#45;b968&#45;ac6f273afaae</title>
<path fill="none" stroke="#000000" stroke-width="2" d="M387.68,-766.28C398.96,-840.71 445.7,-1122.37 513.89,-1174.23 553.13,-1204.07 1101,-1209.43 1502.1,-1209.29"/>
<polygon fill="#000000" stroke="#000000" stroke-width="2" points="1502.15,-1212.79 1512.14,-1209.29 1502.14,-1205.79 1502.15,-1212.79"/>
<text text-anchor="middle" x="908.39" y="-1212.03" font-family="Times,serif" font-size="14.00" fill="#000000">5 &#160;[when: hostvars[ovn_host].distribution_family == &#39;CentOS&#39;]</text>
</g>
<!-- task_533b2c79&#45;1547&#45;437b&#45;811a&#45;f15fe4a9e3bb -->
<g id="task_533b2c79&#45;1547&#45;437b&#45;811a&#45;f15fe4a9e3bb" class="node">
<title>task_533b2c79&#45;1547&#45;437b&#45;811a&#45;f15fe4a9e3bb</title>
<g id="a_task_533b2c79&#45;1547&#45;437b&#45;811a&#45;f15fe4a9e3bb"><a xlink:title="[task] kubeinit.kubeinit.kubeinit_libvirt : Install OVN packages in Fedora">
<polygon fill="none" stroke="black" points="2301.43,-1145.77 2301.43,-1160.68 2081.03,-1171.23 1769.35,-1171.23 1548.95,-1160.68 1548.95,-1145.77 1769.35,-1135.23 2081.03,-1135.23 2301.43,-1145.77"/>
<text text-anchor="middle" x="1925.19" y="-1149.53" font-family="Times,serif" font-size="14.00">[task] kubeinit.kubeinit.kubeinit_libvirt : Install OVN packages in Fedora</text>
</a>
</g>
</g>
<!-- task&#45;create&#45;network&#45;&gt;task_533b2c79&#45;1547&#45;437b&#45;811a&#45;f15fe4a9e3bb -->
<g id="edge_5b28e90c&#45;dc41&#45;484f&#45;adc6&#45;086c56eedfca" class="edge">
<title>task&#45;create&#45;network&#45;&gt;task_533b2c79&#45;1547&#45;437b&#45;811a&#45;f15fe4a9e3bb</title>
<path fill="none" stroke="#000000" stroke-width="2" d="M384.69,-766.41C384.62,-828.86 393.79,-1035.56 513.89,-1123.23 554.92,-1153.18 1135.21,-1156.91 1538.49,-1155.82"/>
<polygon fill="#000000" stroke="#000000" stroke-width="2" points="1538.59,-1159.32 1548.58,-1155.79 1538.57,-1152.32 1538.59,-1159.32"/>
<text text-anchor="middle" x="908.39" y="-1159.03" font-family="Times,serif" font-size="14.00" fill="#000000">6 &#160;[when: hostvars[ovn_host].distribution_family == &#39;Fedora&#39;]</text>
</g>
<!-- task_f4ee0acb&#45;1609&#45;4915&#45;9694&#45;b75c8e89dc8a -->
<g id="task_f4ee0acb&#45;1609&#45;4915&#45;9694&#45;b75c8e89dc8a" class="node">
<title>task_f4ee0acb&#45;1609&#45;4915&#45;9694&#45;b75c8e89dc8a</title>
<g id="a_task_f4ee0acb&#45;1609&#45;4915&#45;9694&#45;b75c8e89dc8a"><a xlink:title="[task] kubeinit.kubeinit.kubeinit_libvirt : Install OVN packages in Ubuntu/Debian">
<polygon fill="none" stroke="black" points="2342.94,-1091.77 2342.94,-1106.68 2098.23,-1117.23 1752.15,-1117.23 1507.44,-1106.68 1507.44,-1091.77 1752.15,-1081.23 2098.23,-1081.23 2342.94,-1091.77"/>
<text text-anchor="middle" x="1925.19" y="-1095.53" font-family="Times,serif" font-size="14.00">[task] kubeinit.kubeinit.kubeinit_libvirt : Install OVN packages in Ubuntu/Debian</text>
</a>
</g>
</g>
<!-- task&#45;create&#45;network&#45;&gt;task_f4ee0acb&#45;1609&#45;4915&#45;9694&#45;b75c8e89dc8a -->
<g id="edge_077182bf&#45;abce&#45;4852&#45;9a16&#45;1c072e89f351" class="edge">
<title>task&#45;create&#45;network&#45;&gt;task_f4ee0acb&#45;1609&#45;4915&#45;9694&#45;b75c8e89dc8a</title>
<path fill="none" stroke="#000000" stroke-width="2" d="M385.61,-766.25C388.54,-823.61 406.29,-1002.57 513.89,-1077.23 554.2,-1105.2 1096.89,-1106.77 1497.06,-1104.03"/>
<polygon fill="#000000" stroke="#000000" stroke-width="2" points="1497.11,-1107.53 1507.08,-1103.96 1497.06,-1100.53 1497.11,-1107.53"/>
<text text-anchor="middle" x="908.39" y="-1108.03" font-family="Times,serif" font-size="14.00" fill="#000000">7 &#160;[when: hostvars[ovn_host].distribution_family == &#39;Debian&#39;]</text>
</g>
<!-- task_99bf3212&#45;bb34&#45;40df&#45;87c4&#45;1a2d8ac5f800 -->
<g id="task_99bf3212&#45;bb34&#45;40df&#45;87c4&#45;1a2d8ac5f800" class="node">
<title>task_99bf3212&#45;bb34&#45;40df&#45;87c4&#45;1a2d8ac5f800</title>
<g id="a_task_99bf3212&#45;bb34&#45;40df&#45;87c4&#45;1a2d8ac5f800"><a xlink:title="[task] kubeinit.kubeinit.kubeinit_libvirt : Refresh firewalld services list to pick up ovn services">
<polygon fill="none" stroke="black" points="2410.51,-1037.77 2410.51,-1052.68 2126.22,-1063.23 1724.16,-1063.23 1439.87,-1052.68 1439.87,-1037.77 1724.16,-1027.23 2126.22,-1027.23 2410.51,-1037.77"/>
<text text-anchor="middle" x="1925.19" y="-1041.53" font-family="Times,serif" font-size="14.00">[task] kubeinit.kubeinit.kubeinit_libvirt : Refresh firewalld services list to pick up ovn services</text>
</a>
</g>
</g>
<!-- task&#45;create&#45;network&#45;&gt;task_99bf3212&#45;bb34&#45;40df&#45;87c4&#45;1a2d8ac5f800 -->
<g id="edge_8f4c48c1&#45;3707&#45;45ea&#45;aee8&#45;c57eda37a86c" class="edge">
<title>task&#45;create&#45;network&#45;&gt;task_99bf3212&#45;bb34&#45;40df&#45;87c4&#45;1a2d8ac5f800</title>
<path fill="none" stroke="#000000" stroke-width="2" d="M387.43,-766.26C395.1,-816.07 424.12,-955.63 513.89,-1013.23 598.08,-1067.24 1149.12,-1065.35 1536.9,-1056.91"/>
<polygon fill="#000000" stroke="#000000" stroke-width="2" points="1537.26,-1060.4 1547.18,-1056.68 1537.11,-1053.4 1537.26,-1060.4"/>
<text text-anchor="middle" x="908.39" y="-1065.03" font-family="Times,serif" font-size="14.00" fill="#000000">8 &#160;[when: hostvars[ovn_host].firewalld_is_active]</text>
</g>
<!-- task_4f59a122&#45;918b&#45;4065&#45;b8b7&#45;03f17a4232d0 -->
<g id="task_4f59a122&#45;918b&#45;4065&#45;b8b7&#45;03f17a4232d0" class="node">
<title>task_4f59a122&#45;918b&#45;4065&#45;b8b7&#45;03f17a4232d0</title>
<g id="a_task_4f59a122&#45;918b&#45;4065&#45;b8b7&#45;03f17a4232d0"><a xlink:title="[task] kubeinit.kubeinit.kubeinit_libvirt : Enable OVN central in firewalld">
<polygon fill="none" stroke="black" points="2302.33,-983.77 2302.33,-998.68 2081.41,-1009.23 1768.97,-1009.23 1548.05,-998.68 1548.05,-983.77 1768.97,-973.23 2081.41,-973.23 2302.33,-983.77"/>
<text text-anchor="middle" x="1925.19" y="-987.53" font-family="Times,serif" font-size="14.00">[task] kubeinit.kubeinit.kubeinit_libvirt : Enable OVN central in firewalld</text>
</a>
</g>
</g>
<!-- task&#45;create&#45;network&#45;&gt;task_4f59a122&#45;918b&#45;4065&#45;b8b7&#45;03f17a4232d0 -->
<g id="edge_a1822d83&#45;5657&#45;409a&#45;a769&#45;3cac1fa41843" class="edge">
<title>task&#45;create&#45;network&#45;&gt;task_4f59a122&#45;918b&#45;4065&#45;b8b7&#45;03f17a4232d0</title>
<path fill="none" stroke="#000000" stroke-width="2" d="M389.26,-766.46C400.56,-810.58 436.11,-922.8 513.89,-968.23 557.68,-993.81 1135.47,-995.91 1537.74,-994.21"/>
<polygon fill="#000000" stroke="#000000" stroke-width="2" points="1537.82,-997.71 1547.8,-994.17 1537.79,-990.71 1537.82,-997.71"/>
<text text-anchor="middle" x="908.39" y="-998.03" font-family="Times,serif" font-size="14.00" fill="#000000">9 &#160;[when: hostvars[kubeinit_ovn_central_host].firewalld_is_active]</text>
</g>
<!-- task_d0d9b311&#45;97fc&#45;4d5b&#45;9d2b&#45;c669bf895df4 -->
<g id="task_d0d9b311&#45;97fc&#45;4d5b&#45;9d2b&#45;c669bf895df4" class="node">
<title>task_d0d9b311&#45;97fc&#45;4d5b&#45;9d2b&#45;c669bf895df4</title>
<g id="a_task_d0d9b311&#45;97fc&#45;4d5b&#45;9d2b&#45;c669bf895df4"><a xlink:title="[task] kubeinit.kubeinit.kubeinit_libvirt : Enable OVN NAT in firewalld">
<polygon fill="none" stroke="black" points="2288.19,-929.77 2288.19,-944.68 2075.55,-955.23 1774.83,-955.23 1562.19,-944.68 1562.19,-929.77 1774.83,-919.23 2075.55,-919.23 2288.19,-929.77"/>
<text text-anchor="middle" x="1925.19" y="-933.53" font-family="Times,serif" font-size="14.00">[task] kubeinit.kubeinit.kubeinit_libvirt : Enable OVN NAT in firewalld</text>
</a>
</g>
</g>
<!-- task&#45;create&#45;network&#45;&gt;task_d0d9b311&#45;97fc&#45;4d5b&#45;9d2b&#45;c669bf895df4 -->
<g id="edge_2128bf88&#45;6070&#45;42c4&#45;83ab&#45;c784cf080643" class="edge">
<title>task&#45;create&#45;network&#45;&gt;task_d0d9b311&#45;97fc&#45;4d5b&#45;9d2b&#45;c669bf895df4</title>
<path fill="none" stroke="#000000" stroke-width="2" d="M392.96,-766.31C409.5,-801.5 451.43,-878.45 513.89,-909.23 605.95,-954.59 1182.2,-952.55 1569.03,-945.74"/>
<polygon fill="#000000" stroke="#000000" stroke-width="2" points="1569.34,-949.23 1579.27,-945.56 1569.21,-942.23 1569.34,-949.23"/>
<text text-anchor="middle" x="908.39" y="-953.03" font-family="Times,serif" font-size="14.00" fill="#000000">10 &#160;[when: hostvars[kubeinit_ovn_central_host].firewalld_is_active]</text>
</g>
<!-- task_7095bdf8&#45;70b2&#45;4472&#45;be03&#45;cf57d8312424 -->
<g id="task_7095bdf8&#45;70b2&#45;4472&#45;be03&#45;cf57d8312424" class="node">
<title>task_7095bdf8&#45;70b2&#45;4472&#45;be03&#45;cf57d8312424</title>
<g id="a_task_7095bdf8&#45;70b2&#45;4472&#45;be03&#45;cf57d8312424"><a xlink:title="[task] kubeinit.kubeinit.kubeinit_libvirt : Enable OVN host in firewalld">
<polygon fill="none" stroke="black" points="2289.1,-875.77 2289.1,-890.68 2075.93,-901.23 1774.45,-901.23 1561.28,-890.68 1561.28,-875.77 1774.45,-865.23 2075.93,-865.23 2289.1,-875.77"/>
<text text-anchor="middle" x="1925.19" y="-879.53" font-family="Times,serif" font-size="14.00">[task] kubeinit.kubeinit.kubeinit_libvirt : Enable OVN host in firewalld</text>
</a>
</g>
</g>
<!-- task&#45;create&#45;network&#45;&gt;task_7095bdf8&#45;70b2&#45;4472&#45;be03&#45;cf57d8312424 -->
<g id="edge_4a43d7db&#45;ed15&#45;4b48&#45;a680&#45;f7e75e5f247c" class="edge">
<title>task&#45;create&#45;network&#45;&gt;task_7095bdf8&#45;70b2&#45;4472&#45;be03&#45;cf57d8312424</title>
<path fill="none" stroke="#000000" stroke-width="2" d="M399.35,-766.26C420.97,-791.89 464.69,-837.8 513.89,-856.23 608.4,-891.63 1166,-892.63 1551.09,-888.86"/>
<polygon fill="#000000" stroke="#000000" stroke-width="2" points="1551.33,-892.36 1561.29,-888.76 1551.26,-885.36 1551.33,-892.36"/>
<text text-anchor="middle" x="908.39" y="-894.03" font-family="Times,serif" font-size="14.00" fill="#000000">11 &#160;[when: hostvars[ovn_host].firewalld_is_active]</text>
</g>
<!-- task_9ade1be9&#45;cba3&#45;4f69&#45;b96d&#45;b4ad8c30bac8 -->
<g id="task_9ade1be9&#45;cba3&#45;4f69&#45;b96d&#45;b4ad8c30bac8" class="node">
<title>task_9ade1be9&#45;cba3&#45;4f69&#45;b96d&#45;b4ad8c30bac8</title>
<g id="a_task_9ade1be9&#45;cba3&#45;4f69&#45;b96d&#45;b4ad8c30bac8"><a xlink:title="[task] kubeinit.kubeinit.kubeinit_libvirt : Refresh firewalld services list">
<polygon fill="none" stroke="black" points="2292.64,-821.77 2292.64,-836.68 2077.39,-847.23 1772.99,-847.23 1557.74,-836.68 1557.74,-821.77 1772.99,-811.23 2077.39,-811.23 2292.64,-821.77"/>
<text text-anchor="middle" x="1925.19" y="-825.53" font-family="Times,serif" font-size="14.00">[task] kubeinit.kubeinit.kubeinit_libvirt : Refresh firewalld services list</text>
</a>
</g>
</g>
<!-- task&#45;create&#45;network&#45;&gt;task_9ade1be9&#45;cba3&#45;4f69&#45;b96d&#45;b4ad8c30bac8 -->
<g id="edge_4a4b0b29&#45;7b28&#45;4c8f&#45;8552&#45;1cd0fee5d159" class="edge">
<title>task&#45;create&#45;network&#45;&gt;task_9ade1be9&#45;cba3&#45;4f69&#45;b96d&#45;b4ad8c30bac8</title>
<path fill="none" stroke="#000000" stroke-width="2" d="M438.08,-765.1C461.13,-771.68 488.6,-778.52 513.89,-782.23 880.54,-836.01 1306.31,-842.64 1593.3,-839.07"/>
<polygon fill="#000000" stroke="#000000" stroke-width="2" points="1593.5,-842.57 1603.45,-838.94 1593.41,-835.57 1593.5,-842.57"/>
<text text-anchor="middle" x="908.39" y="-841.03" font-family="Times,serif" font-size="14.00" fill="#000000">12 &#160;[when: hostvars[ovn_host].firewalld_is_active]</text>
</g>
<!-- task_18a731de&#45;6c6d&#45;4025&#45;a98f&#45;3b48b4798cbc -->
<g id="task_18a731de&#45;6c6d&#45;4025&#45;a98f&#45;3b48b4798cbc" class="node">
<title>task_18a731de&#45;6c6d&#45;4025&#45;a98f&#45;3b48b4798cbc</title>
<g id="a_task_18a731de&#45;6c6d&#45;4025&#45;a98f&#45;3b48b4798cbc"><a xlink:title="[task] kubeinit.kubeinit.kubeinit_libvirt : Enable and start OVN services in the ovn&#45;central hypervisor (CentOS based)">
<polygon fill="none" stroke="black" points="2527.98,-767.77 2527.98,-782.68 2174.87,-793.23 1675.51,-793.23 1322.4,-782.68 1322.4,-767.77 1675.51,-757.23 2174.87,-757.23 2527.98,-767.77"/>
<text text-anchor="middle" x="1925.19" y="-771.53" font-family="Times,serif" font-size="14.00">[task] kubeinit.kubeinit.kubeinit_libvirt : Enable and start OVN services in the ovn&#45;central hypervisor (CentOS based)</text>
</a>
</g>
</g>
<!-- task&#45;create&#45;network&#45;&gt;task_18a731de&#45;6c6d&#45;4025&#45;a98f&#45;3b48b4798cbc -->
<g id="edge_c14ec674&#45;967b&#45;4ebd&#45;8112&#45;0fe91eeef64a" class="edge">
<title>task&#45;create&#45;network&#45;&gt;task_18a731de&#45;6c6d&#45;4025&#45;a98f&#45;3b48b4798cbc</title>
<path fill="none" stroke="#000000" stroke-width="2" d="M496.04,-750.18C679.2,-753.39 1056.42,-760.01 1377.19,-765.63"/>
<polygon fill="#000000" stroke="#000000" stroke-width="2" points="1377.56,-769.14 1387.62,-765.82 1377.68,-762.14 1377.56,-769.14"/>
<text text-anchor="middle" x="908.39" y="-767.03" font-family="Times,serif" font-size="14.00" fill="#000000">13 &#160;[when: hostvars[kubeinit_ovn_central_host].distribution_family != &#39;Debian&#39;]</text>
</g>
<!-- task_1e010c5d&#45;fb5c&#45;42df&#45;9428&#45;2c3c1ed1b9a9 -->
<g id="task_1e010c5d&#45;fb5c&#45;42df&#45;9428&#45;2c3c1ed1b9a9" class="node">
<title>task_1e010c5d&#45;fb5c&#45;42df&#45;9428&#45;2c3c1ed1b9a9</title>
<g id="a_task_1e010c5d&#45;fb5c&#45;42df&#45;9428&#45;2c3c1ed1b9a9"><a xlink:title="[task] kubeinit.kubeinit.kubeinit_libvirt : Enable and start OVN services in the rest of the hypervisors (CentOS based)">
<polygon fill="none" stroke="black" points="2529.29,-713.77 2529.29,-728.68 2175.42,-739.23 1674.96,-739.23 1321.09,-728.68 1321.09,-713.77 1674.96,-703.23 2175.42,-703.23 2529.29,-713.77"/>
<text text-anchor="middle" x="1925.19" y="-717.53" font-family="Times,serif" font-size="14.00">[task] kubeinit.kubeinit.kubeinit_libvirt : Enable and start OVN services in the rest of the hypervisors (CentOS based)</text>
</a>
</g>
</g>
<!-- task&#45;create&#45;network&#45;&gt;task_1e010c5d&#45;fb5c&#45;42df&#45;9428&#45;2c3c1ed1b9a9 -->
<g id="edge_81d8bbe9&#45;a6ec&#45;4c73&#45;9594&#45;b5ea119054c7" class="edge">
<title>task&#45;create&#45;network&#45;&gt;task_1e010c5d&#45;fb5c&#45;42df&#45;9428&#45;2c3c1ed1b9a9</title>
<path fill="none" stroke="#000000" stroke-width="2" d="M466.33,-735.95C482.08,-734.01 498.47,-732.3 513.89,-731.23 821.07,-709.96 1166.79,-707.17 1439.05,-709.84"/>
<polygon fill="#000000" stroke="#000000" stroke-width="2" points="1439.07,-713.34 1449.11,-709.94 1439.14,-706.34 1439.07,-713.34"/>
<text text-anchor="middle" x="908.39" y="-735.03" font-family="Times,serif" font-size="14.00" fill="#000000">14 &#160;[when: hostvars[ovn_host].distribution_family != &#39;Debian&#39;]</text>
</g>
<!-- task_9966cd9e&#45;fbf6&#45;412a&#45;870a&#45;acb077015d7d -->
<g id="task_9966cd9e&#45;fbf6&#45;412a&#45;870a&#45;acb077015d7d" class="node">
<title>task_9966cd9e&#45;fbf6&#45;412a&#45;870a&#45;acb077015d7d</title>
<g id="a_task_9966cd9e&#45;fbf6&#45;412a&#45;870a&#45;acb077015d7d"><a xlink:title="[task] kubeinit.kubeinit.kubeinit_libvirt : Enable and start OVN services in the ovn&#45;central hypervisor (Ubuntu based)">
<polygon fill="none" stroke="black" points="2527.98,-659.77 2527.98,-674.68 2174.87,-685.23 1675.51,-685.23 1322.4,-674.68 1322.4,-659.77 1675.51,-649.23 2174.87,-649.23 2527.98,-659.77"/>
<text text-anchor="middle" x="1925.19" y="-663.53" font-family="Times,serif" font-size="14.00">[task] kubeinit.kubeinit.kubeinit_libvirt : Enable and start OVN services in the ovn&#45;central hypervisor (Ubuntu based)</text>
</a>
</g>
</g>
<!-- task&#45;create&#45;network&#45;&gt;task_9966cd9e&#45;fbf6&#45;412a&#45;870a&#45;acb077015d7d -->
<g id="edge_bcb3ea8b&#45;d1d6&#45;4771&#45;b8ee&#45;edc9d62c7049" class="edge">
<title>task&#45;create&#45;network&#45;&gt;task_9966cd9e&#45;fbf6&#45;412a&#45;870a&#45;acb077015d7d</title>
<path fill="none" stroke="#000000" stroke-width="2" d="M415.01,-730.16C440.35,-715.98 478.13,-697.32 513.89,-689.23 691.79,-648.98 1140.2,-648.13 1484.05,-654.44"/>
<polygon fill="#000000" stroke="#000000" stroke-width="2" points="1484.13,-657.95 1494.19,-654.63 1484.26,-650.95 1484.13,-657.95"/>
<text text-anchor="middle" x="908.39" y="-693.03" font-family="Times,serif" font-size="14.00" fill="#000000">15 &#160;[when: hostvars[kubeinit_ovn_central_host].distribution_family == &#39;Debian&#39;]</text>
</g>
<!-- task_a7876865&#45;7839&#45;4980&#45;a9a7&#45;4421e0029848 -->
<g id="task_a7876865&#45;7839&#45;4980&#45;a9a7&#45;4421e0029848" class="node">
<title>task_a7876865&#45;7839&#45;4980&#45;a9a7&#45;4421e0029848</title>
<g id="a_task_a7876865&#45;7839&#45;4980&#45;a9a7&#45;4421e0029848"><a xlink:title="[task] kubeinit.kubeinit.kubeinit_libvirt : Enable and start OVN services in the rest of the hypervisors (Ubuntu based)">
<polygon fill="none" stroke="black" points="2528.88,-605.77 2528.88,-620.68 2175.25,-631.23 1675.13,-631.23 1321.5,-620.68 1321.5,-605.77 1675.13,-595.23 2175.25,-595.23 2528.88,-605.77"/>
<text text-anchor="middle" x="1925.19" y="-609.53" font-family="Times,serif" font-size="14.00">[task] kubeinit.kubeinit.kubeinit_libvirt : Enable and start OVN services in the rest of the hypervisors (Ubuntu based)</text>
</a>
</g>
</g>
<!-- task&#45;create&#45;network&#45;&gt;task_a7876865&#45;7839&#45;4980&#45;a9a7&#45;4421e0029848 -->
<g id="edge_34d2e7bd&#45;8c79&#45;444a&#45;bbf4&#45;f02aacc25c4b" class="edge">
<title>task&#45;create&#45;network&#45;&gt;task_a7876865&#45;7839&#45;4980&#45;a9a7&#45;4421e0029848</title>
<path fill="none" stroke="#000000" stroke-width="2" d="M397.98,-730.21C418.79,-702.96 462.6,-652.31 513.89,-632.23 596.96,-599.7 1042.49,-598.05 1410.88,-602.66"/>
<polygon fill="#000000" stroke="#000000" stroke-width="2" points="1410.89,-606.16 1420.94,-602.79 1410.98,-599.16 1410.89,-606.16"/>
<text text-anchor="middle" x="908.39" y="-636.03" font-family="Times,serif" font-size="14.00" fill="#000000">16 &#160;[when: hostvars[ovn_host].distribution_family == &#39;Debian&#39;]</text>
</g>
<!-- task_e9bc9ccd&#45;364a&#45;4f50&#45;8c69&#45;9f4d0f5cf9f3 -->
<g id="task_e9bc9ccd&#45;364a&#45;4f50&#45;8c69&#45;9f4d0f5cf9f3" class="node">
<title>task_e9bc9ccd&#45;364a&#45;4f50&#45;8c69&#45;9f4d0f5cf9f3</title>
<g id="a_task_e9bc9ccd&#45;364a&#45;4f50&#45;8c69&#45;9f4d0f5cf9f3"><a xlink:title="[task] kubeinit.kubeinit.kubeinit_libvirt : Configure OVS on the Hypervisors">
<polygon fill="none" stroke="black" points="2316.47,-551.77 2316.47,-566.68 2087.27,-577.23 1763.12,-577.23 1533.91,-566.68 1533.91,-551.77 1763.12,-541.23 2087.27,-541.23 2316.47,-551.77"/>
<text text-anchor="middle" x="1925.19" y="-555.53" font-family="Times,serif" font-size="14.00">[task] kubeinit.kubeinit.kubeinit_libvirt : Configure OVS on the Hypervisors</text>
</a>
</g>
</g>
<!-- task&#45;create&#45;network&#45;&gt;task_e9bc9ccd&#45;364a&#45;4f50&#45;8c69&#45;9f4d0f5cf9f3 -->
<g id="edge_1fd26111&#45;e8c1&#45;4b29&#45;b284&#45;c27d8c560c49" class="edge">
<title>task&#45;create&#45;network&#45;&gt;task_e9bc9ccd&#45;364a&#45;4f50&#45;8c69&#45;9f4d0f5cf9f3</title>
<path fill="none" stroke="#000000" stroke-width="2" d="M392.5,-730.03C408.49,-693.78 449.89,-613.31 513.89,-581.23 606.32,-534.9 1190.53,-540.12 1577.46,-549.04"/>
<polygon fill="#000000" stroke="#000000" stroke-width="2" points="1577.63,-552.55 1587.71,-549.28 1577.79,-545.55 1577.63,-552.55"/>
<text text-anchor="middle" x="908.39" y="-585.03" font-family="Times,serif" font-size="14.00" fill="#000000">17</text>
</g>
<!-- task_acfd8488&#45;f7d6&#45;4c9c&#45;81d8&#45;132466c1f208 -->
<g id="task_acfd8488&#45;f7d6&#45;4c9c&#45;81d8&#45;132466c1f208" class="node">
<title>task_acfd8488&#45;f7d6&#45;4c9c&#45;81d8&#45;132466c1f208</title>
<g id="a_task_acfd8488&#45;f7d6&#45;4c9c&#45;81d8&#45;132466c1f208"><a xlink:title="[task] kubeinit.kubeinit.kubeinit_libvirt : Configure OVN in the ovn&#45;central hypervisor">
<polygon fill="none" stroke="black" points="2367.68,-497.77 2367.68,-512.68 2108.48,-523.23 1741.9,-523.23 1482.7,-512.68 1482.7,-497.77 1741.9,-487.23 2108.48,-487.23 2367.68,-497.77"/>
<text text-anchor="middle" x="1925.19" y="-501.53" font-family="Times,serif" font-size="14.00">[task] kubeinit.kubeinit.kubeinit_libvirt : Configure OVN in the ovn&#45;central hypervisor</text>
</a>
</g>
</g>
<!-- task&#45;create&#45;network&#45;&gt;task_acfd8488&#45;f7d6&#45;4c9c&#45;81d8&#45;132466c1f208 -->
<g id="edge_633c62d3&#45;9423&#45;41df&#45;8b2b&#45;55175100bd52" class="edge">
<title>task&#45;create&#45;network&#45;&gt;task_acfd8488&#45;f7d6&#45;4c9c&#45;81d8&#45;132466c1f208</title>
<path fill="none" stroke="#000000" stroke-width="2" d="M389.03,-729.91C399.91,-685.02 434.74,-569.79 513.89,-523.23 604.44,-469.97 1207.29,-480.02 1594.94,-492.44"/>
<polygon fill="#000000" stroke="#000000" stroke-width="2" points="1595.09,-495.95 1605.2,-492.77 1595.32,-488.95 1595.09,-495.95"/>
<text text-anchor="middle" x="908.39" y="-527.03" font-family="Times,serif" font-size="14.00" fill="#000000">18</text>
</g>
<!-- task_dd6d8d26&#45;57ce&#45;4a44&#45;9b7f&#45;e1fa9160db3a -->
<g id="task_dd6d8d26&#45;57ce&#45;4a44&#45;9b7f&#45;e1fa9160db3a" class="node">
<title>task_dd6d8d26&#45;57ce&#45;4a44&#45;9b7f&#45;e1fa9160db3a</title>
<g id="a_task_dd6d8d26&#45;57ce&#45;4a44&#45;9b7f&#45;e1fa9160db3a"><a xlink:title="[task] kubeinit.kubeinit.kubeinit_libvirt : Remove and create the cluster switch if exists">
<polygon fill="none" stroke="black" points="2376.07,-443.77 2376.07,-458.68 2111.95,-469.23 1738.43,-469.23 1474.31,-458.68 1474.31,-443.77 1738.43,-433.23 2111.95,-433.23 2376.07,-443.77"/>
<text text-anchor="middle" x="1925.19" y="-447.53" font-family="Times,serif" font-size="14.00">[task] kubeinit.kubeinit.kubeinit_libvirt : Remove and create the cluster switch if exists</text>
</a>
</g>
</g>
<!-- task&#45;create&#45;network&#45;&gt;task_dd6d8d26&#45;57ce&#45;4a44&#45;9b7f&#45;e1fa9160db3a -->
<g id="edge_017b709e&#45;a8d2&#45;44bf&#45;81f5&#45;e89ed1e475a9" class="edge">
<title>task&#45;create&#45;network&#45;&gt;task_dd6d8d26&#45;57ce&#45;4a44&#45;9b7f&#45;e1fa9160db3a</title>
<path fill="none" stroke="#000000" stroke-width="2" d="M386.77,-729.96C392.84,-677.38 418.34,-525.47 513.89,-463.23 604.32,-404.32 1239.14,-420.86 1625.59,-436.87"/>
<polygon fill="#000000" stroke="#000000" stroke-width="2" points="1625.68,-440.38 1635.81,-437.29 1625.97,-433.38 1625.68,-440.38"/>
<text text-anchor="middle" x="908.39" y="-467.03" font-family="Times,serif" font-size="14.00" fill="#000000">19 &#160;[when: kubeinit_libvirt_destroy_nets|bool and not kubeinit_libvirt_multicluster_keep_predefined_networks]</text>
</g>
<!-- task_be530d61&#45;21da&#45;4ec8&#45;a87c&#45;692ce89ea97e -->
<g id="task_be530d61&#45;21da&#45;4ec8&#45;a87c&#45;692ce89ea97e" class="node">
<title>task_be530d61&#45;21da&#45;4ec8&#45;a87c&#45;692ce89ea97e</title>
<g id="a_task_be530d61&#45;21da&#45;4ec8&#45;a87c&#45;692ce89ea97e"><a xlink:title="[task] kubeinit.kubeinit.kubeinit_libvirt : Create OVS/OVN bindings for the VMs ports">
<polygon fill="none" stroke="black" points="2366.37,-389.77 2366.37,-404.68 2107.93,-415.23 1742.45,-415.23 1484.01,-404.68 1484.01,-389.77 1742.45,-379.23 2107.93,-379.23 2366.37,-389.77"/>
<text text-anchor="middle" x="1925.19" y="-393.53" font-family="Times,serif" font-size="14.00">[task] kubeinit.kubeinit.kubeinit_libvirt : Create OVS/OVN bindings for the VMs ports</text>
</a>
</g>
</g>
<!-- task&#45;create&#45;network&#45;&gt;task_be530d61&#45;21da&#45;4ec8&#45;a87c&#45;692ce89ea97e -->
<g id="edge_47016cff&#45;021e&#45;45f1&#45;9152&#45;d23e13be2f39" class="edge">
<title>task&#45;create&#45;network&#45;&gt;task_be530d61&#45;21da&#45;4ec8&#45;a87c&#45;692ce89ea97e</title>
<path fill="none" stroke="#000000" stroke-width="2" d="M385.2,-730.1C386.86,-670.64 401.11,-480.87 513.89,-402.23 555.02,-373.55 1121,-379.53 1523.28,-387.55"/>
<polygon fill="#000000" stroke="#000000" stroke-width="2" points="1523.28,-391.05 1533.35,-387.75 1523.42,-384.05 1523.28,-391.05"/>
<text text-anchor="middle" x="908.39" y="-406.03" font-family="Times,serif" font-size="14.00" fill="#000000">20</text>
</g>
<!-- task_db14a60c&#45;d158&#45;4204&#45;a5a5&#45;c9b9eb9c3261 -->
<g id="task_db14a60c&#45;d158&#45;4204&#45;a5a5&#45;c9b9eb9c3261" class="node">
<title>task_db14a60c&#45;d158&#45;4204&#45;a5a5&#45;c9b9eb9c3261</title>
<g id="a_task_db14a60c&#45;d158&#45;4204&#45;a5a5&#45;c9b9eb9c3261"><a xlink:title="[task] kubeinit.kubeinit.kubeinit_libvirt : Configuring a router connected to the guests switch">
<polygon fill="none" stroke="black" points="2405.66,-335.77 2405.66,-350.68 2124.21,-361.23 1726.17,-361.23 1444.72,-350.68 1444.72,-335.77 1726.17,-325.23 2124.21,-325.23 2405.66,-335.77"/>
<text text-anchor="middle" x="1925.19" y="-339.53" font-family="Times,serif" font-size="14.00">[task] kubeinit.kubeinit.kubeinit_libvirt : Configuring a router connected to the guests switch</text>
</a>
</g>
</g>
<!-- task&#45;create&#45;network&#45;&gt;task_db14a60c&#45;d158&#45;4204&#45;a5a5&#45;c9b9eb9c3261 -->
<g id="edge_f4950f10&#45;a7ad&#45;45fa&#45;9ab7&#45;b55516b32c05" class="edge">
<title>task&#45;create&#45;network&#45;&gt;task_db14a60c&#45;d158&#45;4204&#45;a5a5&#45;c9b9eb9c3261</title>
<path fill="none" stroke="#000000" stroke-width="2" d="M384.45,-729.89C383.53,-665.93 390.11,-451.68 513.89,-361.23 600.42,-298 1228.18,-312.83 1616.43,-328.53"/>
<polygon fill="#000000" stroke="#000000" stroke-width="2" points="1616.57,-332.04 1626.7,-328.95 1616.85,-325.04 1616.57,-332.04"/>
<text text-anchor="middle" x="908.39" y="-365.03" font-family="Times,serif" font-size="14.00" fill="#000000">21</text>
</g>
<!-- task_889bb392&#45;a579&#45;4bed&#45;b209&#45;647531596df3 -->
<g id="task_889bb392&#45;a579&#45;4bed&#45;b209&#45;647531596df3" class="node">
<title>task_889bb392&#45;a579&#45;4bed&#45;b209&#45;647531596df3</title>
<g id="a_task_889bb392&#45;a579&#45;4bed&#45;b209&#45;647531596df3"><a xlink:title="[task] kubeinit.kubeinit.kubeinit_libvirt : Configuring NAT">
<polygon fill="none" stroke="black" points="2226.38,-281.77 2226.38,-296.68 2049.95,-307.23 1800.43,-307.23 1624,-296.68 1624,-281.77 1800.43,-271.23 2049.95,-271.23 2226.38,-281.77"/>
<text text-anchor="middle" x="1925.19" y="-285.53" font-family="Times,serif" font-size="14.00">[task] kubeinit.kubeinit.kubeinit_libvirt : Configuring NAT</text>
</a>
</g>
</g>
<!-- task&#45;create&#45;network&#45;&gt;task_889bb392&#45;a579&#45;4bed&#45;b209&#45;647531596df3 -->
<g id="edge_93d53fac&#45;740c&#45;4d0b&#45;88f1&#45;4d4a28f975c8" class="edge">
<title>task&#45;create&#45;network&#45;&gt;task_889bb392&#45;a579&#45;4bed&#45;b209&#45;647531596df3</title>
<path fill="none" stroke="#000000" stroke-width="2" d="M387.32,-730.07C397.49,-652.49 441.34,-350.27 513.89,-295.23 557.12,-262.44 1216.69,-272.18 1618.31,-281.28"/>
<polygon fill="#000000" stroke="#000000" stroke-width="2" points="1618.27,-284.78 1628.34,-281.51 1618.43,-277.78 1618.27,-284.78"/>
<text text-anchor="middle" x="908.39" y="-299.03" font-family="Times,serif" font-size="14.00" fill="#000000">22 &#160;[when: not hostvars[kubeinit_ovn_central_host].firewalld_is_active]</text>
</g>
<!-- task_3ca6800a&#45;a2d7&#45;4e8a&#45;8abc&#45;9196836f53cc -->
<g id="task_3ca6800a&#45;a2d7&#45;4e8a&#45;8abc&#45;9196836f53cc" class="node">
<title>task_3ca6800a&#45;a2d7&#45;4e8a&#45;8abc&#45;9196836f53cc</title>
<g id="a_task_3ca6800a&#45;a2d7&#45;4e8a&#45;8abc&#45;9196836f53cc"><a xlink:title="[task] kubeinit.kubeinit.kubeinit_libvirt : Render KubeInit networks for debugging">
<polygon fill="none" stroke="black" points="2349.6,-227.77 2349.6,-242.68 2100.99,-253.23 1749.39,-253.23 1500.78,-242.68 1500.78,-227.77 1749.39,-217.23 2100.99,-217.23 2349.6,-227.77"/>
<text text-anchor="middle" x="1925.19" y="-231.53" font-family="Times,serif" font-size="14.00">[task] kubeinit.kubeinit.kubeinit_libvirt : Render KubeInit networks for debugging</text>
</a>
</g>
</g>
<!-- task&#45;create&#45;network&#45;&gt;task_3ca6800a&#45;a2d7&#45;4e8a&#45;8abc&#45;9196836f53cc -->
<g id="edge_1d93175d&#45;535a&#45;472b&#45;b5aa&#45;b8bfe8803360" class="edge">
<title>task&#45;create&#45;network&#45;&gt;task_3ca6800a&#45;a2d7&#45;4e8a&#45;8abc&#45;9196836f53cc</title>
<path fill="none" stroke="#000000" stroke-width="2" d="M386.87,-730.11C395.57,-648.29 435.5,-314.62 513.89,-253.23 600.23,-185.6 1256.47,-203.81 1642.63,-220.84"/>
<polygon fill="#000000" stroke="#000000" stroke-width="2" points="1642.7,-224.35 1652.84,-221.29 1643.01,-217.35 1642.7,-224.35"/>
<text text-anchor="middle" x="908.39" y="-257.03" font-family="Times,serif" font-size="14.00" fill="#000000">23</text>
</g>
<!-- task_cfee2843&#45;60f6&#45;41fe&#45;9f6c&#45;0ef88e3d17c4 -->
<g id="task_cfee2843&#45;60f6&#45;41fe&#45;9f6c&#45;0ef88e3d17c4" class="node">
<title>task_cfee2843&#45;60f6&#45;41fe&#45;9f6c&#45;0ef88e3d17c4</title>
<g id="a_task_cfee2843&#45;60f6&#45;41fe&#45;9f6c&#45;0ef88e3d17c4"><a xlink:title="[task] kubeinit.kubeinit.kubeinit_libvirt : Define KubeInit networks">
<polygon fill="none" stroke="black" points="2271.43,-173.77 2271.43,-188.68 2068.61,-199.23 1781.77,-199.23 1578.95,-188.68 1578.95,-173.77 1781.77,-163.23 2068.61,-163.23 2271.43,-173.77"/>
<text text-anchor="middle" x="1925.19" y="-177.53" font-family="Times,serif" font-size="14.00">[task] kubeinit.kubeinit.kubeinit_libvirt : Define KubeInit networks</text>
</a>
</g>
</g>
<!-- task&#45;create&#45;network&#45;&gt;task_cfee2843&#45;60f6&#45;41fe&#45;9f6c&#45;0ef88e3d17c4 -->
<g id="edge_b2067d66&#45;eb04&#45;4b1b&#45;856f&#45;1567fbc81306" class="edge">
<title>task&#45;create&#45;network&#45;&gt;task_cfee2843&#45;60f6&#45;41fe&#45;9f6c&#45;0ef88e3d17c4</title>
<path fill="none" stroke="#000000" stroke-width="2" d="M386.26,-730.05C392.65,-641.44 425.29,-256.05 513.89,-185.23 555.56,-151.92 1194.19,-162.11 1597.62,-172.01"/>
<polygon fill="#000000" stroke="#000000" stroke-width="2" points="1597.62,-175.51 1607.7,-172.26 1597.79,-168.52 1597.62,-175.51"/>
<text text-anchor="middle" x="908.39" y="-189.03" font-family="Times,serif" font-size="14.00" fill="#000000">24 &#160;[when: kubeinit_libvirt_destroy_nets|bool and not kubeinit_libvirt_multicluster_keep_predefined_networks]</text>
</g>
<!-- task_0c71a23a&#45;2ea4&#45;4058&#45;a3e3&#45;de0ff593c033 -->
<g id="task_0c71a23a&#45;2ea4&#45;4058&#45;a3e3&#45;de0ff593c033" class="node">
<title>task_0c71a23a&#45;2ea4&#45;4058&#45;a3e3&#45;de0ff593c033</title>
<g id="a_task_0c71a23a&#45;2ea4&#45;4058&#45;a3e3&#45;de0ff593c033"><a xlink:title="[task] kubeinit.kubeinit.kubeinit_libvirt : Activate KubeInit networks">
<polygon fill="none" stroke="black" points="2280.22,-119.77 2280.22,-134.68 2072.25,-145.23 1778.13,-145.23 1570.16,-134.68 1570.16,-119.77 1778.13,-109.23 2072.25,-109.23 2280.22,-119.77"/>
<text text-anchor="middle" x="1925.19" y="-123.53" font-family="Times,serif" font-size="14.00">[task] kubeinit.kubeinit.kubeinit_libvirt : Activate KubeInit networks</text>
</a>
</g>
</g>
<!-- task&#45;create&#45;network&#45;&gt;task_0c71a23a&#45;2ea4&#45;4058&#45;a3e3&#45;de0ff593c033 -->
<g id="edge_e4580a38&#45;7b12&#45;4e50&#45;ae44&#45;ec020023da5b" class="edge">
<title>task&#45;create&#45;network&#45;&gt;task_0c71a23a&#45;2ea4&#45;4058&#45;a3e3&#45;de0ff593c033</title>
<path fill="none" stroke="#000000" stroke-width="2" d="M385.97,-729.98C391.15,-637.33 419.48,-220.54 513.89,-143.23 553.9,-110.46 1155.43,-113.98 1559.84,-120.16"/>
<polygon fill="#000000" stroke="#000000" stroke-width="2" points="1559.9,-123.66 1569.95,-120.31 1560.01,-116.66 1559.9,-123.66"/>
<text text-anchor="middle" x="908.39" y="-147.03" font-family="Times,serif" font-size="14.00" fill="#000000">25 &#160;[when: kubeinit_libvirt_destroy_nets|bool and not kubeinit_libvirt_multicluster_keep_predefined_networks]</text>
</g>
<!-- task_615a085e&#45;b3b4&#45;4672&#45;8d87&#45;57a4f2321174 -->
<g id="task_615a085e&#45;b3b4&#45;4672&#45;8d87&#45;57a4f2321174" class="node">
<title>task_615a085e&#45;b3b4&#45;4672&#45;8d87&#45;57a4f2321174</title>
<g id="a_task_615a085e&#45;b3b4&#45;4672&#45;8d87&#45;57a4f2321174"><a xlink:title="[task] kubeinit.kubeinit.kubeinit_libvirt : Autostart KubeInit networks">
<polygon fill="none" stroke="black" points="2286.88,-65.77 2286.88,-80.68 2075.01,-91.23 1775.37,-91.23 1563.5,-80.68 1563.5,-65.77 1775.37,-55.23 2075.01,-55.23 2286.88,-65.77"/>
<text text-anchor="middle" x="1925.19" y="-69.53" font-family="Times,serif" font-size="14.00">[task] kubeinit.kubeinit.kubeinit_libvirt : Autostart KubeInit networks</text>
</a>
</g>
</g>
<!-- task&#45;create&#45;network&#45;&gt;task_615a085e&#45;b3b4&#45;4672&#45;8d87&#45;57a4f2321174 -->
<g id="edge_a0c0cbee&#45;ca66&#45;4a1a&#45;8dc4&#45;a8c50b601ff1" class="edge">
<title>task&#45;create&#45;network&#45;&gt;task_615a085e&#45;b3b4&#45;4672&#45;8d87&#45;57a4f2321174</title>
<path fill="none" stroke="#000000" stroke-width="2" d="M385.67,-730.2C389.5,-633.83 412.72,-180.75 513.89,-96.23 702.47,61.32 1462.15,-14.02 1781.57,-53.93"/>
<polygon fill="#000000" stroke="#000000" stroke-width="2" points="1781.47,-57.44 1791.82,-55.21 1782.34,-50.49 1781.47,-57.44"/>
<text text-anchor="middle" x="908.39" y="-100.03" font-family="Times,serif" font-size="14.00" fill="#000000">26 &#160;[when: kubeinit_libvirt_destroy_nets|bool and not kubeinit_libvirt_multicluster_keep_predefined_networks]</text>
</g>
</g>
</svg>
