<?xml version='1.0' encoding='UTF-8'?>
<!DOCTYPE svg PUBLIC "-//W3C//DTD SVG 1.1//EN" "http://www.w3.org/Graphics/SVG/1.1/DTD/svg11.dtd">
<!-- Generated by graphviz version 2.40.1 (20161225.0304)
 --><!-- Title: ./playbooks/submariner.yml  Pages: 1 --><svg xmlns="http://www.w3.org/2000/svg" xmlns:xlink="http://www.w3.org/1999/xlink" width="2258pt" height="1555pt" viewBox="0.00 0.00 2258.50 1555.39" id="svg">
<script type="text/javascript" href="https://ajax.googleapis.com/ajax/libs/jquery/3.2.1/jquery.min.js" id="jquery"/><script type="text/javascript" id="my_javascript"><![CDATA[const HOVER_CLASS = "my_hover";

var selectedElement = null;

function addClass(rootElement) {
    $(rootElement).find('link').each(function (index, element) {
        var target = $(element).attr('target');
        var currentElement = $('#' + target);
        currentElement.addClass(HOVER_CLASS);

        addClass(currentElement);
    })
}

function removeClass(rootElement, hover) {
    $(rootElement).find('link').each(function (index, element) {
        if ($(rootElement).attr('id') !== $(selectedElement).attr('id') || !hover) {
            var target = $(element).attr('target');
            var currentElement = $('#' + target);
            currentElement.removeClass(HOVER_CLASS);

            removeClass(currentElement);
        }

    })
}

function hoverIn(event) {
    addClass(event.currentTarget);
}

function hoverOut(event) {
    removeClass(event.currentTarget, true);
}

function clickOnElement(event) {
    var newElement = event.currentTarget;

    if ($(newElement).attr('id') === $(selectedElement).attr('id')) {
        removeClass(selectedElement, false);
    } else {
        removeClass(selectedElement);
        addClass(newElement)
    }

    selectedElement = newElement;
}


$("#svg").ready(function () {

    $("g[id^=play_]").hover(hoverIn, hoverOut);
    $("g[id^=role_]").hover(hoverIn, hoverOut);

    $("g[id^=play_]").click(clickOnElement);
    $("g[id^=role_]").click(clickOnElement);

});
]]></script><style type="text/css" id="my_css"><![CDATA[.node:hover, .edge:hover, path:hover, path + polygon:hover {
    cursor: pointer;
    stroke-width: 3;
    font-weight: bolder;
}

.my_hover {
    cursor: pointer;
    stroke-width: 3;
    font-weight: bolder;
}
]]></style><g id="graph0" class="graph" transform="scale(1 1) rotate(0) translate(4 1551.3949)">
<title>./playbooks/submariner.yml </title>
<polygon fill="#ffffff" stroke="transparent" points="-4,4 -4,-1551.3949 2254.4971,-1551.3949 2254.4971,4 -4,4"/>
<!-- ./playbooks/submariner.yml -->
<g id="root_node" class="node">
<title>./playbooks/submariner.yml</title>
<ellipse fill="none" stroke="#000000" stroke-dasharray="1,5" cx="110.4902" cy="-791.3949" rx="110.4804" ry="18"/>
<text text-anchor="middle" x="110.4902" y="-787.6949" font-family="Times,serif" font-size="14.00" fill="#000000">./playbooks/submariner.yml</text>
</g>
<!-- Play #1: Main deployment playbook for integrating submariner (0) -->
<g id="play_327a3079-acdf-48f6-8032-3643ecc9bd60" class="node">
<title>Play #1: Main deployment playbook for integrating submariner (0)</title>
<polygon fill="#d120ac" stroke="#d120ac" points="646.9804,-809.3949 263.9804,-809.3949 263.9804,-773.3949 646.9804,-773.3949 646.9804,-809.3949"/>
<text text-anchor="middle" x="455.4804" y="-787.6949" font-family="Times,serif" font-size="14.00" fill="#ffffff">Play #1: Main deployment playbook for integrating submariner (0)</text>
<links><link target="edge_2ebde132-a084-47ae-b110-b86781fc7183"/><link target="edge_a74147f4-2a19-4105-81e9-7d357edc38bb"/><link target="edge_1073b7de-c3cd-44ce-aca7-a071fd2a811e"/><link target="edge_dc503c2b-8a3e-414a-af0e-6d48cec193b2"/><link target="edge_48714ad7-0475-4c04-a0bd-5bcb110ba619"/><link target="edge_c3766f2e-2570-419c-9d0e-6b3239649214"/><link target="edge_d264ed6a-d799-4f3b-9711-b3355af1bf2d"/><link target="edge_6b499853-2585-450c-a199-ff7fedabab2c"/><link target="edge_ea05c834-7780-4ca5-b279-f41d76391b26"/><link target="edge_6770c840-432d-4a9b-963d-13f5631b1c3e"/><link target="edge_97589b30-161e-4fe9-93aa-3e947095dd26"/><link target="edge_675ad6fc-1bbd-4fe4-ae76-5d8364343cc0"/><link target="edge_943acfdf-0964-4545-a07e-51935cfff5bb"/><link target="edge_539eb54e-1221-4d15-88be-9ce88a6e58e8"/><link target="edge_af773fe5-f9c6-47fc-ab01-dc5810679fe9"/><link target="edge_30715f49-efde-44c0-a9fe-6f9aefda7d92"/><link target="edge_e1ccdc31-30b8-4728-a8ee-dd6b883787e8"/><link target="edge_19cb7a5e-3a56-41f6-bf41-c2cd09679d48"/><link target="edge_d0ab5d97-a0ea-4e25-a415-0905103bf131"/><link target="edge_06677c4c-b3fe-448c-9d35-7c85673e01b4"/><link target="edge_1b462890-e9ba-4180-915a-abac020185f5"/><link target="edge_19bbbd76-ff86-4928-9d4a-94d5a45ef25f"/><link target="edge_e90bec90-7a2c-43fe-94ec-6e2cd20b126e"/><link target="edge_c428f6ef-78bb-4ecf-b435-79d3330e10be"/><link target="edge_b91deefe-6338-4dbe-b76f-453d0221360a"/><link target="edge_44f060bf-1c8b-44c4-9897-78712f587533"/><link target="edge_30cd7235-b282-483c-ae86-3b82b464a359"/><link target="edge_e6326f7d-3441-4f21-83cd-e01c72dfec58"/></links></g>
<!-- ./playbooks/submariner.yml&#45;&gt;Play #1: Main deployment playbook for integrating submariner (0) -->
<g id="edge_959c369e-47d8-4837-9ded-ade850458d69" class="edge">
<title>./playbooks/submariner.yml-&gt;Play #1: Main deployment playbook for integrating submariner (0)</title>
<path fill="none" stroke="#d120ac" stroke-width="2" d="M221.0708,-791.3949C231.6334,-791.3949 242.5531,-791.3949 253.6394,-791.3949"/>
<polygon fill="#d120ac" stroke="#d120ac" stroke-width="2" points="253.8622,-794.895 263.8622,-791.3949 253.8621,-787.895 253.8622,-794.895"/>
<text text-anchor="middle" x="242.4804" y="-795.1949" font-family="Times,serif" font-size="14.00" fill="#d120ac">1</text>
</g>
<!-- pre_task_e06f1ef4&#45;9b52&#45;477f&#45;b506&#45;cc895678396e -->
<g id="pre_task_e06f1ef4-9b52-477f-b506-cc895678396e" class="node">
<title>pre_task_e06f1ef4-9b52-477f-b506-cc895678396e</title>
<polygon fill="none" stroke="#000000" points="2044.916,-1512.9391 2044.916,-1527.8508 1910.6671,-1538.3949 1720.8104,-1538.3949 1586.5615,-1527.8508 1586.5615,-1512.9391 1720.8104,-1502.3949 1910.6671,-1502.3949 2044.916,-1512.9391"/>
<text text-anchor="middle" x="1815.7388" y="-1516.6949" font-family="Times,serif" font-size="14.00" fill="#000000">[pre_task] Check if Ansible meets version requirements.</text>
</g>
<!-- Play #1: Main deployment playbook for integrating submariner (0)&#45;&gt;pre_task_e06f1ef4&#45;9b52&#45;477f&#45;b506&#45;cc895678396e -->
<g id="edge_2ebde132-a084-47ae-b110-b86781fc7183" class="edge">
<title>Play #1: Main deployment playbook for integrating submariner (0)-&gt;pre_task_e06f1ef4-9b52-477f-b506-cc895678396e</title>
<path fill="none" stroke="#d120ac" stroke-width="2" d="M458.1031,-809.7242C472.9759,-910.8698 550.1427,-1399.4511 664.9804,-1487.3949 735.3745,-1541.3034 1261.0809,-1536.3332 1577.072,-1528.2075"/>
<polygon fill="#d120ac" stroke="#d120ac" stroke-width="2" points="1577.3852,-1531.7006 1587.2908,-1527.9417 1577.2032,-1524.703 1577.3852,-1531.7006"/>
<text text-anchor="middle" x="1013.9804" y="-1536.1949" font-family="Times,serif" font-size="14.00" fill="#d120ac">1</text>
<links><link target="pre_task_e06f1ef4-9b52-477f-b506-cc895678396e"/></links></g>
<!-- task_2126a2a7&#45;a9bd&#45;4a72&#45;b0d3&#45;51b6b6867ff2 -->
<g id="task_2126a2a7-a9bd-4a72-b0d3-51b6b6867ff2" class="node">
<title>task_2126a2a7-a9bd-4a72-b0d3-51b6b6867ff2</title>
<polygon fill="none" stroke="#000000" points="1874.9257,-1458.9391 1874.9257,-1473.8508 1840.2548,-1484.3949 1791.2228,-1484.3949 1756.5519,-1473.8508 1756.5519,-1458.9391 1791.2228,-1448.3949 1840.2548,-1448.3949 1874.9257,-1458.9391"/>
<text text-anchor="middle" x="1815.7388" y="-1462.6949" font-family="Times,serif" font-size="14.00" fill="#000000">[task] debug</text>
</g>
<!-- Play #1: Main deployment playbook for integrating submariner (0)&#45;&gt;task_2126a2a7&#45;a9bd&#45;4a72&#45;b0d3&#45;51b6b6867ff2 -->
<g id="edge_a74147f4-2a19-4105-81e9-7d357edc38bb" class="edge">
<title>Play #1: Main deployment playbook for integrating submariner (0)-&gt;task_2126a2a7-a9bd-4a72-b0d3-51b6b6867ff2</title>
<path fill="none" stroke="#d120ac" stroke-width="2" d="M458.4474,-809.5126C474.6997,-906.3383 556.19,-1361.3701 664.9804,-1442.3949 708.4287,-1474.7543 1504.2239,-1469.5097 1746.3949,-1467.1516"/>
<polygon fill="#d120ac" stroke="#d120ac" stroke-width="2" points="1746.5187,-1470.6507 1756.4836,-1467.0519 1746.4495,-1463.651 1746.5187,-1470.6507"/>
<text text-anchor="middle" x="1013.9804" y="-1472.1949" font-family="Times,serif" font-size="14.00" fill="#d120ac">2</text>
<links><link target="task_2126a2a7-a9bd-4a72-b0d3-51b6b6867ff2"/></links></g>
<!-- task_720c3240&#45;8d0d&#45;45d0&#45;b827&#45;a0997deed490 -->
<g id="task_720c3240-8d0d-45d0-b827-a0997deed490" class="node">
<title>task_720c3240-8d0d-45d0-b827-a0997deed490</title>
<polygon fill="none" stroke="#000000" points="2139.859,-1404.9391 2139.859,-1419.8508 1949.9937,-1430.3949 1681.4838,-1430.3949 1491.6186,-1419.8508 1491.6186,-1404.9391 1681.4838,-1394.3949 1949.9937,-1394.3949 2139.859,-1404.9391"/>
<text text-anchor="middle" x="1815.7388" y="-1408.6949" font-family="Times,serif" font-size="14.00" fill="#000000">[task] ../../roles/kubeinit_submariner : Gather variables for each operating system</text>
</g>
<!-- Play #1: Main deployment playbook for integrating submariner (0)&#45;&gt;task_720c3240&#45;8d0d&#45;45d0&#45;b827&#45;a0997deed490 -->
<g id="edge_1073b7de-c3cd-44ce-aca7-a071fd2a811e" class="edge">
<title>Play #1: Main deployment playbook for integrating submariner (0)-&gt;task_720c3240-8d0d-45d0-b827-a0997deed490</title>
<path fill="none" stroke="#d120ac" stroke-width="2" d="M459.1065,-809.5378C477.7165,-900.682 565.4922,-1307.0701 664.9804,-1379.3949 731.3497,-1427.6434 1186.092,-1427.5708 1503.6366,-1421.3168"/>
<polygon fill="#d120ac" stroke="#d120ac" stroke-width="2" points="1504.0039,-1424.8103 1513.9319,-1421.111 1503.8639,-1417.8117 1504.0039,-1424.8103"/>
<text text-anchor="middle" x="1013.9804" y="-1427.1949" font-family="Times,serif" font-size="14.00" fill="#d120ac">3</text>
<links><link target="task_720c3240-8d0d-45d0-b827-a0997deed490"/></links></g>
<!-- task_bc1bc53f&#45;f677&#45;4056&#45;847d&#45;01ef4c2978a0 -->
<g id="task_bc1bc53f-f677-4056-847d-01ef4c2978a0" class="node">
<title>task_bc1bc53f-f677-4056-847d-01ef4c2978a0</title>
<polygon fill="none" stroke="#000000" points="2043.1952,-1350.9391 2043.1952,-1365.8508 1909.9543,-1376.3949 1721.5232,-1376.3949 1588.2824,-1365.8508 1588.2824,-1350.9391 1721.5232,-1340.3949 1909.9543,-1340.3949 2043.1952,-1350.9391"/>
<text text-anchor="middle" x="1815.7388" y="-1354.6949" font-family="Times,serif" font-size="14.00" fill="#000000">[task] ../../roles/kubeinit_submariner : Remove repo file</text>
</g>
<!-- Play #1: Main deployment playbook for integrating submariner (0)&#45;&gt;task_bc1bc53f&#45;f677&#45;4056&#45;847d&#45;01ef4c2978a0 -->
<g id="edge_dc503c2b-8a3e-414a-af0e-6d48cec193b2" class="edge">
<title>Play #1: Main deployment playbook for integrating submariner (0)-&gt;task_bc1bc53f-f677-4056-847d-01ef4c2978a0</title>
<path fill="none" stroke="#d120ac" stroke-width="2" d="M459.6403,-809.6742C479.9249,-897.0611 571.2929,-1270.711 664.9804,-1336.3949 701.6694,-1362.1174 1252.0162,-1362.593 1578.1154,-1360.5741"/>
<polygon fill="#d120ac" stroke="#d120ac" stroke-width="2" points="1578.2,-1364.0738 1588.1777,-1360.5106 1578.1557,-1357.0739 1578.2,-1364.0738"/>
<text text-anchor="middle" x="1013.9804" y="-1364.1949" font-family="Times,serif" font-size="14.00" fill="#d120ac">4  [when: kubeinit_submariner_is_broker|bool or kubeinit_submariner_is_secondary|bool]</text>
<links><link target="task_bc1bc53f-f677-4056-847d-01ef4c2978a0"/></links></g>
<!-- task_86dec321&#45;57b4&#45;4524&#45;a287&#45;49a4dcf0f27a -->
<g id="task_86dec321-57b4-4524-a287-49a4dcf0f27a" class="node">
<title>task_86dec321-57b4-4524-a287-49a4dcf0f27a</title>
<polygon fill="none" stroke="#000000" points="2142.0798,-1296.9391 2142.0798,-1311.8508 1950.9137,-1322.3949 1680.5639,-1322.3949 1489.3977,-1311.8508 1489.3977,-1296.9391 1680.5639,-1286.3949 1950.9137,-1286.3949 2142.0798,-1296.9391"/>
<text text-anchor="middle" x="1815.7388" y="-1300.6949" font-family="Times,serif" font-size="14.00" fill="#000000">[task] ../../roles/kubeinit_submariner : Get submariner-operator repository content</text>
</g>
<!-- Play #1: Main deployment playbook for integrating submariner (0)&#45;&gt;task_86dec321&#45;57b4&#45;4524&#45;a287&#45;49a4dcf0f27a -->
<g id="edge_48714ad7-0475-4c04-a0bd-5bcb110ba619" class="edge">
<title>Play #1: Main deployment playbook for integrating submariner (0)-&gt;task_86dec321-57b4-4524-a287-49a4dcf0f27a</title>
<path fill="none" stroke="#d120ac" stroke-width="2" d="M456.5962,-809.4901C462.2685,-883.8819 494.7818,-1167.6199 664.9804,-1282.3949 734.7877,-1329.4701 1211.4855,-1324.0949 1529.0395,-1314.9284"/>
<polygon fill="#d120ac" stroke="#d120ac" stroke-width="2" points="1529.4335,-1318.4185 1539.3272,-1314.6285 1529.2295,-1311.4215 1529.4335,-1318.4185"/>
<text text-anchor="middle" x="1013.9804" y="-1324.1949" font-family="Times,serif" font-size="14.00" fill="#d120ac">5  [when: kubeinit_submariner_is_broker|bool or kubeinit_submariner_is_secondary|bool]</text>
<links><link target="task_86dec321-57b4-4524-a287-49a4dcf0f27a"/></links></g>
<!-- task_adb2b6ed&#45;a3bf&#45;4c9b&#45;a480&#45;9fb6062a0fda -->
<g id="task_adb2b6ed-a3bf-4c9b-a480-9fb6062a0fda" class="node">
<title>task_adb2b6ed-a3bf-4c9b-a480-9fb6062a0fda</title>
<polygon fill="none" stroke="#000000" points="2173.8942,-1242.9391 2173.8942,-1257.8508 1964.0916,-1268.3949 1667.3859,-1268.3949 1457.5834,-1257.8508 1457.5834,-1242.9391 1667.3859,-1232.3949 1964.0916,-1232.3949 2173.8942,-1242.9391"/>
<text text-anchor="middle" x="1815.7388" y="-1246.6949" font-family="Times,serif" font-size="14.00" fill="#000000">[task] ../../roles/kubeinit_submariner : Get submariner code based on a PR or from master</text>
</g>
<!-- Play #1: Main deployment playbook for integrating submariner (0)&#45;&gt;task_adb2b6ed&#45;a3bf&#45;4c9b&#45;a480&#45;9fb6062a0fda -->
<g id="edge_c3766f2e-2570-419c-9d0e-6b3239649214" class="edge">
<title>Play #1: Main deployment playbook for integrating submariner (0)-&gt;task_adb2b6ed-a3bf-4c9b-a480-9fb6062a0fda</title>
<path fill="none" stroke="#d120ac" stroke-width="2" d="M457.6498,-809.852C466.9457,-879.5663 510.2839,-1127.928 664.9804,-1227.3949 733.7498,-1271.6124 1184.9084,-1268.6937 1501.4285,-1260.8352"/>
<polygon fill="#d120ac" stroke="#d120ac" stroke-width="2" points="1501.7823,-1264.3275 1511.6913,-1260.5775 1501.6066,-1257.3297 1501.7823,-1264.3275"/>
<text text-anchor="middle" x="1013.9804" y="-1269.1949" font-family="Times,serif" font-size="14.00" fill="#d120ac">6  [when: kubeinit_submariner_is_broker|bool or kubeinit_submariner_is_secondary|bool]</text>
<links><link target="task_adb2b6ed-a3bf-4c9b-a480-9fb6062a0fda"/></links></g>
<!-- task_89a056db&#45;4356&#45;4dae&#45;a881&#45;62ebbf4d1d34 -->
<g id="task_89a056db-4356-4dae-a881-62ebbf4d1d34" class="node">
<title>task_89a056db-4356-4dae-a881-62ebbf4d1d34</title>
<polygon fill="none" stroke="#000000" points="2063.4976,-1188.9391 2063.4976,-1203.8508 1918.3638,-1214.3949 1713.1137,-1214.3949 1567.98,-1203.8508 1567.98,-1188.9391 1713.1137,-1178.3949 1918.3638,-1178.3949 2063.4976,-1188.9391"/>
<text text-anchor="middle" x="1815.7388" y="-1192.6949" font-family="Times,serif" font-size="14.00" fill="#000000">[task] ../../roles/kubeinit_submariner : Clean previous images</text>
</g>
<!-- Play #1: Main deployment playbook for integrating submariner (0)&#45;&gt;task_89a056db&#45;4356&#45;4dae&#45;a881&#45;62ebbf4d1d34 -->
<g id="edge_d264ed6a-d799-4f3b-9711-b3355af1bf2d" class="edge">
<title>Play #1: Main deployment playbook for integrating submariner (0)-&gt;task_89a056db-4356-4dae-a881-62ebbf4d1d34</title>
<path fill="none" stroke="#d120ac" stroke-width="2" d="M458.9389,-809.7113C472.0862,-873.5499 525.4542,-1086.935 664.9804,-1171.3949 739.2849,-1216.374 1243.441,-1211.7892 1559.3099,-1204.2167"/>
<polygon fill="#d120ac" stroke="#d120ac" stroke-width="2" points="1559.6202,-1207.7103 1569.5324,-1203.969 1559.4505,-1200.7124 1559.6202,-1207.7103"/>
<text text-anchor="middle" x="1013.9804" y="-1212.1949" font-family="Times,serif" font-size="14.00" fill="#d120ac">7  [when: kubeinit_submariner_is_broker|bool or kubeinit_submariner_is_secondary|bool]</text>
<links><link target="task_89a056db-4356-4dae-a881-62ebbf4d1d34"/></links></g>
<!-- task_fa204b6c&#45;fda5&#45;48f1&#45;aa18&#45;fda66da6abf4 -->
<g id="task_fa204b6c-fda5-48f1-aa18-fda66da6abf4" class="node">
<title>task_fa204b6c-fda5-48f1-aa18-fda66da6abf4</title>
<polygon fill="none" stroke="#000000" points="2020.6716,-1134.9391 2020.6716,-1149.8508 1900.6247,-1160.3949 1730.8528,-1160.3949 1610.8059,-1149.8508 1610.8059,-1134.9391 1730.8528,-1124.3949 1900.6247,-1124.3949 2020.6716,-1134.9391"/>
<text text-anchor="middle" x="1815.7388" y="-1138.6949" font-family="Times,serif" font-size="14.00" fill="#000000">[task] ../../roles/kubeinit_submariner : Make clean</text>
</g>
<!-- Play #1: Main deployment playbook for integrating submariner (0)&#45;&gt;task_fa204b6c&#45;fda5&#45;48f1&#45;aa18&#45;fda66da6abf4 -->
<g id="edge_6b499853-2585-450c-a199-ff7fedabab2c" class="edge">
<title>Play #1: Main deployment playbook for integrating submariner (0)-&gt;task_fa204b6c-fda5-48f1-aa18-fda66da6abf4</title>
<path fill="none" stroke="#d120ac" stroke-width="2" d="M460.5662,-809.4454C477.8281,-866.8567 540.1766,-1045.5627 664.9804,-1115.3949 744.1789,-1159.7093 1290.3931,-1154.7291 1600.9764,-1148.0987"/>
<polygon fill="#d120ac" stroke="#d120ac" stroke-width="2" points="1601.0877,-1151.5973 1611.0099,-1147.8822 1600.9366,-1144.5989 1601.0877,-1151.5973"/>
<text text-anchor="middle" x="1013.9804" y="-1156.1949" font-family="Times,serif" font-size="14.00" fill="#d120ac">8  [when: kubeinit_submariner_is_broker|bool or kubeinit_submariner_is_secondary|bool]</text>
<links><link target="task_fa204b6c-fda5-48f1-aa18-fda66da6abf4"/></links></g>
<!-- task_461ad2b2&#45;9dcf&#45;46ef&#45;953e&#45;69926aa0e903 -->
<g id="task_461ad2b2-9dcf-46ef-953e-69926aa0e903" class="node">
<title>task_461ad2b2-9dcf-46ef-953e-69926aa0e903</title>
<polygon fill="none" stroke="#000000" points="2063.9046,-1080.9391 2063.9046,-1095.8508 1918.5324,-1106.3949 1712.9451,-1106.3949 1567.5729,-1095.8508 1567.5729,-1080.9391 1712.9451,-1070.3949 1918.5324,-1070.3949 2063.9046,-1080.9391"/>
<text text-anchor="middle" x="1815.7388" y="-1084.6949" font-family="Times,serif" font-size="14.00" fill="#000000">[task] ../../roles/kubeinit_submariner : Make the subctl binary</text>
</g>
<!-- Play #1: Main deployment playbook for integrating submariner (0)&#45;&gt;task_461ad2b2&#45;9dcf&#45;46ef&#45;953e&#45;69926aa0e903 -->
<g id="edge_ea05c834-7780-4ca5-b279-f41d76391b26" class="edge">
<title>Play #1: Main deployment playbook for integrating submariner (0)-&gt;task_461ad2b2-9dcf-46ef-953e-69926aa0e903</title>
<path fill="none" stroke="#d120ac" stroke-width="2" d="M462.8768,-809.7084C484.692,-860.9284 554.2668,-1005.548 664.9804,-1061.3949 742.2854,-1100.3897 1242.3103,-1098.9615 1557.285,-1093.9698"/>
<polygon fill="#d120ac" stroke="#d120ac" stroke-width="2" points="1557.5371,-1097.4663 1567.4795,-1093.806 1557.4245,-1090.4672 1557.5371,-1097.4663"/>
<text text-anchor="middle" x="1013.9804" y="-1100.1949" font-family="Times,serif" font-size="14.00" fill="#d120ac">9  [when: kubeinit_submariner_is_broker|bool or kubeinit_submariner_is_secondary|bool]</text>
<links><link target="task_461ad2b2-9dcf-46ef-953e-69926aa0e903"/></links></g>
<!-- task_696faaa0&#45;2be8&#45;47e6&#45;b1fc&#45;09b764566e12 -->
<g id="task_696faaa0-2be8-47e6-b1fc-09b764566e12" class="node">
<title>task_696faaa0-2be8-47e6-b1fc-09b764566e12</title>
<polygon fill="none" stroke="#000000" points="2019.7644,-1026.9391 2019.7644,-1041.8508 1900.249,-1052.3949 1731.2286,-1052.3949 1611.7131,-1041.8508 1611.7131,-1026.9391 1731.2286,-1016.3949 1900.249,-1016.3949 2019.7644,-1026.9391"/>
<text text-anchor="middle" x="1815.7388" y="-1030.6949" font-family="Times,serif" font-size="14.00" fill="#000000">[task] ../../roles/kubeinit_submariner : Make build</text>
</g>
<!-- Play #1: Main deployment playbook for integrating submariner (0)&#45;&gt;task_696faaa0&#45;2be8&#45;47e6&#45;b1fc&#45;09b764566e12 -->
<g id="edge_6770c840-432d-4a9b-963d-13f5631b1c3e" class="edge">
<title>Play #1: Main deployment playbook for integrating submariner (0)-&gt;task_696faaa0-2be8-47e6-b1fc-09b764566e12</title>
<path fill="none" stroke="#d120ac" stroke-width="2" d="M465.6874,-809.6559C491.8616,-854.3679 566.3115,-968.8506 664.9804,-1012.3949 747.931,-1049.0025 1291.7049,-1044.76 1601.1691,-1039.1906"/>
<polygon fill="#d120ac" stroke="#d120ac" stroke-width="2" points="1601.6875,-1042.6818 1611.6221,-1039.0003 1601.56,-1035.683 1601.6875,-1042.6818"/>
<text text-anchor="middle" x="1013.9804" y="-1046.1949" font-family="Times,serif" font-size="14.00" fill="#d120ac">10  [when: kubeinit_submariner_is_broker|bool or kubeinit_submariner_is_secondary|bool]</text>
<links><link target="task_696faaa0-2be8-47e6-b1fc-09b764566e12"/></links></g>
<!-- task_dac977e5&#45;4dda&#45;4f78&#45;afcf&#45;0cf4f7ac07bc -->
<g id="task_dac977e5-4dda-4f78-afcf-0cf4f7ac07bc" class="node">
<title>task_dac977e5-4dda-4f78-afcf-0cf4f7ac07bc</title>
<polygon fill="none" stroke="#000000" points="2028.1482,-972.9391 2028.1482,-987.8508 1903.7217,-998.3949 1727.7559,-998.3949 1603.3293,-987.8508 1603.3293,-972.9391 1727.7559,-962.3949 1903.7217,-962.3949 2028.1482,-972.9391"/>
<text text-anchor="middle" x="1815.7388" y="-976.6949" font-family="Times,serif" font-size="14.00" fill="#000000">[task] ../../roles/kubeinit_submariner : Make images</text>
</g>
<!-- Play #1: Main deployment playbook for integrating submariner (0)&#45;&gt;task_dac977e5&#45;4dda&#45;4f78&#45;afcf&#45;0cf4f7ac07bc -->
<g id="edge_97589b30-161e-4fe9-93aa-3e947095dd26" class="edge">
<title>Play #1: Main deployment playbook for integrating submariner (0)-&gt;task_dac977e5-4dda-4f78-afcf-0cf4f7ac07bc</title>
<path fill="none" stroke="#d120ac" stroke-width="2" d="M472.0513,-809.479C504.8924,-843.8561 582.2499,-917.7562 664.9804,-946.3949 832.5676,-1004.4083 1320.7768,-998.3301 1604.5709,-989.1397"/>
<polygon fill="#d120ac" stroke="#d120ac" stroke-width="2" points="1604.6993,-992.6375 1614.5792,-988.8116 1604.4699,-985.6413 1604.6993,-992.6375"/>
<text text-anchor="middle" x="1013.9804" y="-998.1949" font-family="Times,serif" font-size="14.00" fill="#d120ac">11  [when: kubeinit_submariner_is_broker|bool or kubeinit_submariner_is_secondary|bool]</text>
<links><link target="task_dac977e5-4dda-4f78-afcf-0cf4f7ac07bc"/></links></g>
<!-- task_9c5f859e&#45;ea3e&#45;46ee&#45;b1b4&#45;86ce7d153b05 -->
<g id="task_9c5f859e-ea3e-46ee-b1b4-86ce7d153b05" class="node">
<title>task_9c5f859e-ea3e-46ee-b1b4-86ce7d153b05</title>
<polygon fill="none" stroke="#000000" points="2101.4747,-918.9391 2101.4747,-933.8508 1934.0945,-944.3949 1697.3831,-944.3949 1530.0028,-933.8508 1530.0028,-918.9391 1697.3831,-908.3949 1934.0945,-908.3949 2101.4747,-918.9391"/>
<text text-anchor="middle" x="1815.7388" y="-922.6949" font-family="Times,serif" font-size="14.00" fill="#000000">[task] ../../roles/kubeinit_submariner : Make the subctl binary available</text>
</g>
<!-- Play #1: Main deployment playbook for integrating submariner (0)&#45;&gt;task_9c5f859e&#45;ea3e&#45;46ee&#45;b1b4&#45;86ce7d153b05 -->
<g id="edge_675ad6fc-1bbd-4fe4-ae76-5d8364343cc0" class="edge">
<title>Play #1: Main deployment playbook for integrating submariner (0)-&gt;task_9c5f859e-ea3e-46ee-b1b4-86ce7d153b05</title>
<path fill="none" stroke="#d120ac" stroke-width="2" d="M485.3701,-809.5107C524.8548,-832.3483 597.3249,-870.5369 664.9804,-886.3949 821.1439,-922.9986 1233.699,-929.43 1519.8484,-929.133"/>
<polygon fill="#d120ac" stroke="#d120ac" stroke-width="2" points="1519.9783,-932.6329 1529.9737,-929.1196 1519.969,-925.6329 1519.9783,-932.6329"/>
<text text-anchor="middle" x="1013.9804" y="-931.1949" font-family="Times,serif" font-size="14.00" fill="#d120ac">12  [when: kubeinit_submariner_is_broker|bool or kubeinit_submariner_is_secondary|bool]</text>
<links><link target="task_9c5f859e-ea3e-46ee-b1b4-86ce7d153b05"/></links></g>
<!-- task_74059d52&#45;7c2b&#45;4ddb&#45;a3a7&#45;7d877ba8a54a -->
<g id="task_74059d52-7c2b-4ddb-a3a7-7d877ba8a54a" class="node">
<title>task_74059d52-7c2b-4ddb-a3a7-7d877ba8a54a</title>
<polygon fill="none" stroke="#000000" points="2070.9744,-864.9391 2070.9744,-879.8508 1921.4608,-890.3949 1710.0167,-890.3949 1560.5031,-879.8508 1560.5031,-864.9391 1710.0167,-854.3949 1921.4608,-854.3949 2070.9744,-864.9391"/>
<text text-anchor="middle" x="1815.7388" y="-868.6949" font-family="Times,serif" font-size="14.00" fill="#000000">[task] ../../roles/kubeinit_submariner : Check if ~/.profile exists</text>
</g>
<!-- Play #1: Main deployment playbook for integrating submariner (0)&#45;&gt;task_74059d52&#45;7c2b&#45;4ddb&#45;a3a7&#45;7d877ba8a54a -->
<g id="edge_943acfdf-0964-4545-a07e-51935cfff5bb" class="edge">
<title>Play #1: Main deployment playbook for integrating submariner (0)-&gt;task_74059d52-7c2b-4ddb-a3a7-7d877ba8a54a</title>
<path fill="none" stroke="#d120ac" stroke-width="2" d="M544.8359,-809.4055C581.8613,-816.1746 625.3414,-823.2323 664.9804,-827.3949 967.2039,-859.1325 1316.1959,-869.0464 1549.8901,-871.8632"/>
<polygon fill="#d120ac" stroke="#d120ac" stroke-width="2" points="1550.1953,-875.3669 1560.2356,-871.9842 1550.2772,-868.3674 1550.1953,-875.3669"/>
<text text-anchor="middle" x="1013.9804" y="-871.1949" font-family="Times,serif" font-size="14.00" fill="#d120ac">13  [when: kubeinit_submariner_is_broker|bool or kubeinit_submariner_is_secondary|bool]</text>
<links><link target="task_74059d52-7c2b-4ddb-a3a7-7d877ba8a54a"/></links></g>
<!-- task_f81ca5da&#45;3df1&#45;4214&#45;b4e8&#45;a83fd784b213 -->
<g id="task_f81ca5da-3df1-4214-b4e8-a83fd784b213" class="node">
<title>task_f81ca5da-3df1-4214-b4e8-a83fd784b213</title>
<polygon fill="none" stroke="#000000" points="2087.7422,-810.9391 2087.7422,-825.8508 1928.4063,-836.3949 1703.0713,-836.3949 1543.7353,-825.8508 1543.7353,-810.9391 1703.0713,-800.3949 1928.4063,-800.3949 2087.7422,-810.9391"/>
<text text-anchor="middle" x="1815.7388" y="-814.6949" font-family="Times,serif" font-size="14.00" fill="#000000">[task] ../../roles/kubeinit_submariner : Append subctl path to profile</text>
</g>
<!-- Play #1: Main deployment playbook for integrating submariner (0)&#45;&gt;task_f81ca5da&#45;3df1&#45;4214&#45;b4e8&#45;a83fd784b213 -->
<g id="edge_539eb54e-1221-4d15-88be-9ce88a6e58e8" class="edge">
<title>Play #1: Main deployment playbook for integrating submariner (0)-&gt;task_f81ca5da-3df1-4214-b4e8-a83fd784b213</title>
<path fill="none" stroke="#d120ac" stroke-width="2" d="M647.1277,-795.199C878.0475,-799.7825 1268.0096,-807.523 1533.389,-812.7905"/>
<polygon fill="#d120ac" stroke="#d120ac" stroke-width="2" points="1533.4963,-816.2932 1543.5638,-812.9925 1533.6353,-809.2946 1533.4963,-816.2932"/>
<text text-anchor="middle" x="1013.9804" y="-812.1949" font-family="Times,serif" font-size="14.00" fill="#d120ac">14  [when: profile_exists.stat.exists and (kubeinit_submariner_is_broker|bool or kubeinit_submariner_is_secondary|bool)]</text>
<links><link target="task_f81ca5da-3df1-4214-b4e8-a83fd784b213"/></links></g>
<!-- task_f6a01b9e&#45;e9e3&#45;4b24&#45;b455&#45;471f83ff93e4 -->
<g id="task_f6a01b9e-e9e3-4b24-b455-471f83ff93e4" class="node">
<title>task_f6a01b9e-e9e3-4b24-b455-471f83ff93e4</title>
<polygon fill="none" stroke="#000000" points="2093.4979,-756.9391 2093.4979,-771.8508 1930.7904,-782.3949 1700.6872,-782.3949 1537.9796,-771.8508 1537.9796,-756.9391 1700.6872,-746.3949 1930.7904,-746.3949 2093.4979,-756.9391"/>
<text text-anchor="middle" x="1815.7388" y="-760.6949" font-family="Times,serif" font-size="14.00" fill="#000000">[task] ../../roles/kubeinit_submariner : Check if ~/.bash_profile exists</text>
</g>
<!-- Play #1: Main deployment playbook for integrating submariner (0)&#45;&gt;task_f6a01b9e&#45;e9e3&#45;4b24&#45;b455&#45;471f83ff93e4 -->
<g id="edge_af773fe5-f9c6-47fc-ab01-dc5810679fe9" class="edge">
<title>Play #1: Main deployment playbook for integrating submariner (0)-&gt;task_f6a01b9e-e9e3-4b24-b455-471f83ff93e4</title>
<path fill="none" stroke="#d120ac" stroke-width="2" d="M647.257,-777.1932C653.2318,-776.9014 659.1509,-776.6338 664.9804,-776.3949 958.5604,-764.3654 1294.6013,-762.1969 1527.433,-762.5296"/>
<polygon fill="#d120ac" stroke="#d120ac" stroke-width="2" points="1527.7425,-766.03 1537.7481,-762.5461 1527.7537,-759.03 1527.7425,-766.03"/>
<text text-anchor="middle" x="1013.9804" y="-780.1949" font-family="Times,serif" font-size="14.00" fill="#d120ac">15  [when: kubeinit_submariner_is_broker|bool or kubeinit_submariner_is_secondary|bool]</text>
<links><link target="task_f6a01b9e-e9e3-4b24-b455-471f83ff93e4"/></links></g>
<!-- task_eb623fe0&#45;9151&#45;45a9&#45;8576&#45;baae8395c52e -->
<g id="task_eb623fe0-9151-45a9-8576-baae8395c52e" class="node">
<title>task_eb623fe0-9151-45a9-8576-baae8395c52e</title>
<polygon fill="none" stroke="#000000" points="2110.2657,-702.9391 2110.2657,-717.8508 1937.7358,-728.3949 1693.7417,-728.3949 1521.2119,-717.8508 1521.2119,-702.9391 1693.7417,-692.3949 1937.7358,-692.3949 2110.2657,-702.9391"/>
<text text-anchor="middle" x="1815.7388" y="-706.6949" font-family="Times,serif" font-size="14.00" fill="#000000">[task] ../../roles/kubeinit_submariner : Append subctl path to bash_profile</text>
</g>
<!-- Play #1: Main deployment playbook for integrating submariner (0)&#45;&gt;task_eb623fe0&#45;9151&#45;45a9&#45;8576&#45;baae8395c52e -->
<g id="edge_30715f49-efde-44c0-a9fe-6f9aefda7d92" class="edge">
<title>Play #1: Main deployment playbook for integrating submariner (0)-&gt;task_eb623fe0-9151-45a9-8576-baae8395c52e</title>
<path fill="none" stroke="#d120ac" stroke-width="2" d="M519.0774,-773.3944C560.3067,-762.5801 615.382,-749.7254 664.9804,-743.3949 950.0752,-707.0067 1277.9795,-701.0859 1510.6445,-702.8858"/>
<polygon fill="#d120ac" stroke="#d120ac" stroke-width="2" points="1510.9288,-706.3882 1520.9575,-702.9711 1510.9868,-699.3884 1510.9288,-706.3882"/>
<text text-anchor="middle" x="1013.9804" y="-747.1949" font-family="Times,serif" font-size="14.00" fill="#d120ac">16  [when: bash_profile_exists.stat.exists and (kubeinit_submariner_is_broker|bool or kubeinit_submariner_is_secondary|bool)]</text>
<links><link target="task_eb623fe0-9151-45a9-8576-baae8395c52e"/></links></g>
<!-- task_18790e4e&#45;cba4&#45;413f&#45;8b29&#45;ddfba5796d22 -->
<g id="task_18790e4e-cba4-413f-8b29-ddfba5796d22" class="node">
<title>task_18790e4e-cba4-413f-8b29-ddfba5796d22</title>
<polygon fill="none" stroke="#000000" points="2070.5674,-648.9391 2070.5674,-663.8508 1921.2923,-674.3949 1710.1853,-674.3949 1560.9101,-663.8508 1560.9101,-648.9391 1710.1853,-638.3949 1921.2923,-638.3949 2070.5674,-648.9391"/>
<text text-anchor="middle" x="1815.7388" y="-652.6949" font-family="Times,serif" font-size="14.00" fill="#000000">[task] ../../roles/kubeinit_submariner : Check if ~/.bashrc exists</text>
</g>
<!-- Play #1: Main deployment playbook for integrating submariner (0)&#45;&gt;task_18790e4e&#45;cba4&#45;413f&#45;8b29&#45;ddfba5796d22 -->
<g id="edge_e1ccdc31-30b8-4728-a8ee-dd6b883787e8" class="edge">
<title>Play #1: Main deployment playbook for integrating submariner (0)-&gt;task_18790e4e-cba4-413f-8b29-ddfba5796d22</title>
<path fill="none" stroke="#d120ac" stroke-width="2" d="M481.039,-773.3038C519.03,-747.5964 593.609,-701.5977 664.9804,-683.3949 826.0913,-642.3047 1263.9619,-643.2246 1550.7298,-648.9019"/>
<polygon fill="#d120ac" stroke="#d120ac" stroke-width="2" points="1550.7982,-652.4038 1560.8666,-649.1058 1550.939,-645.4053 1550.7982,-652.4038"/>
<text text-anchor="middle" x="1013.9804" y="-687.1949" font-family="Times,serif" font-size="14.00" fill="#d120ac">17  [when: kubeinit_submariner_is_broker|bool or kubeinit_submariner_is_secondary|bool]</text>
<links><link target="task_18790e4e-cba4-413f-8b29-ddfba5796d22"/></links></g>
<!-- task_ed7c515e&#45;f640&#45;4e7e&#45;9f63&#45;dad17321b89e -->
<g id="task_ed7c515e-f640-4e7e-9f63-dad17321b89e" class="node">
<title>task_ed7c515e-f640-4e7e-9f63-dad17321b89e</title>
<polygon fill="none" stroke="#000000" points="2087.335,-594.9391 2087.335,-609.8508 1928.2376,-620.3949 1703.2399,-620.3949 1544.1425,-609.8508 1544.1425,-594.9391 1703.2399,-584.3949 1928.2376,-584.3949 2087.335,-594.9391"/>
<text text-anchor="middle" x="1815.7388" y="-598.6949" font-family="Times,serif" font-size="14.00" fill="#000000">[task] ../../roles/kubeinit_submariner : Append subctl path to bashrc</text>
</g>
<!-- Play #1: Main deployment playbook for integrating submariner (0)&#45;&gt;task_ed7c515e&#45;f640&#45;4e7e&#45;9f63&#45;dad17321b89e -->
<g id="edge_19cb7a5e-3a56-41f6-bf41-c2cd09679d48" class="edge">
<title>Play #1: Main deployment playbook for integrating submariner (0)-&gt;task_ed7c515e-f640-4e7e-9f63-dad17321b89e</title>
<path fill="none" stroke="#d120ac" stroke-width="2" d="M470.7752,-773.2189C502.5263,-737.0498 579.771,-656.9197 664.9804,-626.3949 829.9815,-567.2861 1309.1875,-577.915 1594.5151,-590.4625"/>
<polygon fill="#d120ac" stroke="#d120ac" stroke-width="2" points="1594.437,-593.9624 1604.5824,-590.9095 1594.7476,-586.9693 1594.437,-593.9624"/>
<text text-anchor="middle" x="1013.9804" y="-630.1949" font-family="Times,serif" font-size="14.00" fill="#d120ac">18  [when: bashrc_exists.stat.exists and (kubeinit_submariner_is_broker|bool or kubeinit_submariner_is_secondary|bool)]</text>
<links><link target="task_ed7c515e-f640-4e7e-9f63-dad17321b89e"/></links></g>
<!-- task_46cda281&#45;8acd&#45;43d3&#45;b51a&#45;98e779e48b3f -->
<g id="task_46cda281-8acd-43d3-b51a-98e779e48b3f" class="node">
<title>task_46cda281-8acd-43d3-b51a-98e779e48b3f</title>
<polygon fill="none" stroke="#000000" points="2112.4865,-540.9391 2112.4865,-555.8508 1938.6557,-566.3949 1692.8218,-566.3949 1518.991,-555.8508 1518.991,-540.9391 1692.8218,-530.3949 1938.6557,-530.3949 2112.4865,-540.9391"/>
<text text-anchor="middle" x="1815.7388" y="-544.6949" font-family="Times,serif" font-size="14.00" fill="#000000">[task] ../../roles/kubeinit_submariner : Render the iptables persist template</text>
</g>
<!-- Play #1: Main deployment playbook for integrating submariner (0)&#45;&gt;task_46cda281&#45;8acd&#45;43d3&#45;b51a&#45;98e779e48b3f -->
<g id="edge_d0ab5d97-a0ea-4e25-a415-0905103bf131" class="edge">
<title>Play #1: Main deployment playbook for integrating submariner (0)-&gt;task_46cda281-8acd-43d3-b51a-98e779e48b3f</title>
<path fill="none" stroke="#d120ac" stroke-width="2" d="M464.8985,-773.3788C490.0266,-727.5252 563.7066,-606.8219 664.9804,-561.3949 741.2583,-527.18 1209.6775,-532.147 1524.8782,-539.6874"/>
<polygon fill="#d120ac" stroke="#d120ac" stroke-width="2" points="1525.0099,-543.1915 1535.0914,-539.9339 1525.1788,-536.1935 1525.0099,-543.1915"/>
<text text-anchor="middle" x="1013.9804" y="-565.1949" font-family="Times,serif" font-size="14.00" fill="#d120ac">19  [when: kubeinit_submariner_is_broker|bool]</text>
<links><link target="task_46cda281-8acd-43d3-b51a-98e779e48b3f"/></links></g>
<!-- task_eff3693e&#45;855f&#45;41a4&#45;8f44&#45;22bb5d2667ca -->
<g id="task_eff3693e-855f-41a4-8f44-22bb5d2667ca" class="node">
<title>task_eff3693e-855f-41a4-8f44-22bb5d2667ca</title>
<polygon fill="none" stroke="#000000" points="2207.4295,-486.9391 2207.4295,-501.8508 1977.9824,-512.3949 1653.4952,-512.3949 1424.048,-501.8508 1424.048,-486.9391 1653.4952,-476.3949 1977.9824,-476.3949 2207.4295,-486.9391"/>
<text text-anchor="middle" x="1815.7388" y="-490.6949" font-family="Times,serif" font-size="14.00" fill="#000000">[task] ../../roles/kubeinit_submariner : Make sure there the traffic is allowed from/to the cluster net</text>
</g>
<!-- Play #1: Main deployment playbook for integrating submariner (0)&#45;&gt;task_eff3693e&#45;855f&#45;41a4&#45;8f44&#45;22bb5d2667ca -->
<g id="edge_06677c4c-b3fe-448c-9d35-7c85673e01b4" class="edge">
<title>Play #1: Main deployment playbook for integrating submariner (0)-&gt;task_eff3693e-855f-41a4-8f44-22bb5d2667ca</title>
<path fill="none" stroke="#d120ac" stroke-width="2" d="M462.4091,-773.3361C483.4416,-721.413 552.1077,-571.776 664.9804,-514.3949 734.1137,-479.2496 1142.6252,-479.3765 1453.4557,-484.9197"/>
<polygon fill="#d120ac" stroke="#d120ac" stroke-width="2" points="1453.4847,-488.4207 1463.5464,-485.1021 1453.6113,-481.4218 1453.4847,-488.4207"/>
<text text-anchor="middle" x="1013.9804" y="-518.1949" font-family="Times,serif" font-size="14.00" fill="#d120ac">20  [when: kubeinit_submariner_is_broker|bool]</text>
<links><link target="task_eff3693e-855f-41a4-8f44-22bb5d2667ca"/></links></g>
<!-- task_3963c83e&#45;1627&#45;4a64&#45;9055&#45;245f545c6ef0 -->
<g id="task_3963c83e-1627-4a64-9055-245f545c6ef0" class="node">
<title>task_3963c83e-1627-4a64-9055-245f545c6ef0</title>
<polygon fill="none" stroke="#000000" points="2069.6604,-432.9391 2069.6604,-447.8508 1920.9165,-458.3949 1710.561,-458.3949 1561.8172,-447.8508 1561.8172,-432.9391 1710.561,-422.3949 1920.9165,-422.3949 2069.6604,-432.9391"/>
<text text-anchor="middle" x="1815.7388" y="-436.6949" font-family="Times,serif" font-size="14.00" fill="#000000">[task] ../../roles/kubeinit_submariner : Configure broker cluster</text>
</g>
<!-- Play #1: Main deployment playbook for integrating submariner (0)&#45;&gt;task_3963c83e&#45;1627&#45;4a64&#45;9055&#45;245f545c6ef0 -->
<g id="edge_1b462890-e9ba-4180-915a-abac020185f5" class="edge">
<title>Play #1: Main deployment playbook for integrating submariner (0)-&gt;task_3963c83e-1627-4a64-9055-245f545c6ef0</title>
<path fill="none" stroke="#d120ac" stroke-width="2" d="M460.4613,-773.0534C477.4069,-714.7184 538.9079,-533.1539 664.9804,-462.3949 740.2888,-420.1276 1238.6442,-424.913 1554.3512,-432.4775"/>
<polygon fill="#d120ac" stroke="#d120ac" stroke-width="2" points="1554.4887,-435.9817 1564.5705,-432.7248 1554.6581,-428.9838 1554.4887,-435.9817"/>
<text text-anchor="middle" x="1013.9804" y="-466.1949" font-family="Times,serif" font-size="14.00" fill="#d120ac">21  [when: kubeinit_submariner_is_broker|bool]</text>
<links><link target="task_3963c83e-1627-4a64-9055-245f545c6ef0"/></links></g>
<!-- task_41d9a260&#45;68d4&#45;4fea&#45;b15f&#45;4329b2e08f65 -->
<g id="task_41d9a260-68d4-4fea-b15f-4329b2e08f65" class="node">
<title>task_41d9a260-68d4-4fea-b15f-4329b2e08f65</title>
<polygon fill="none" stroke="#000000" points="2147.8357,-378.9391 2147.8357,-393.8508 1953.2978,-404.3949 1678.1797,-404.3949 1483.6418,-393.8508 1483.6418,-378.9391 1678.1797,-368.3949 1953.2978,-368.3949 2147.8357,-378.9391"/>
<text text-anchor="middle" x="1815.7388" y="-382.6949" font-family="Times,serif" font-size="14.00" fill="#000000">[task] ../../roles/kubeinit_submariner : Copy the broker-info.subm to the hypervisor</text>
</g>
<!-- Play #1: Main deployment playbook for integrating submariner (0)&#45;&gt;task_41d9a260&#45;68d4&#45;4fea&#45;b15f&#45;4329b2e08f65 -->
<g id="edge_19bbbd76-ff86-4928-9d4a-94d5a45ef25f" class="edge">
<title>Play #1: Main deployment playbook for integrating submariner (0)-&gt;task_41d9a260-68d4-4fea-b15f-4329b2e08f65</title>
<path fill="none" stroke="#d120ac" stroke-width="2" d="M458.7916,-773.3699C471.5912,-709.5534 524.3148,-493.613 664.9804,-408.3949 735.6194,-365.6003 1194.9795,-368.9051 1511.5112,-376.6143"/>
<polygon fill="#d120ac" stroke="#d120ac" stroke-width="2" points="1511.6884,-380.1197 1521.7715,-376.867 1511.8607,-373.1218 1511.6884,-380.1197"/>
<text text-anchor="middle" x="1013.9804" y="-412.1949" font-family="Times,serif" font-size="14.00" fill="#d120ac">22  [when: kubeinit_submariner_is_broker|bool]</text>
<links><link target="task_41d9a260-68d4-4fea-b15f-4329b2e08f65"/></links></g>
<!-- task_0c4fc550&#45;42cd&#45;4ce1&#45;b50d&#45;a8f8649746ef -->
<g id="task_0c4fc550-42cd-4ce1-b50d-a8f8649746ef" class="node">
<title>task_0c4fc550-42cd-4ce1-b50d-a8f8649746ef</title>
<polygon fill="none" stroke="#000000" points="2123.0912,-324.9391 2123.0912,-339.8508 1943.0483,-350.3949 1688.4292,-350.3949 1508.3863,-339.8508 1508.3863,-324.9391 1688.4292,-314.3949 1943.0483,-314.3949 2123.0912,-324.9391"/>
<text text-anchor="middle" x="1815.7388" y="-328.6949" font-family="Times,serif" font-size="14.00" fill="#000000">[task] ../../roles/kubeinit_submariner : Copy the kubeconfig to the hypervisor</text>
</g>
<!-- Play #1: Main deployment playbook for integrating submariner (0)&#45;&gt;task_0c4fc550&#45;42cd&#45;4ce1&#45;b50d&#45;a8f8649746ef -->
<g id="edge_e90bec90-7a2c-43fe-94ec-6e2cd20b126e" class="edge">
<title>Play #1: Main deployment playbook for integrating submariner (0)-&gt;task_0c4fc550-42cd-4ce1-b50d-a8f8649746ef</title>
<path fill="none" stroke="#d120ac" stroke-width="2" d="M457.534,-773.2813C466.502,-703.7244 509.0667,-452.6517 664.9804,-352.3949 736.5767,-306.3566 1222.7097,-312.7455 1539.8074,-322.1656"/>
<polygon fill="#d120ac" stroke="#d120ac" stroke-width="2" points="1539.9764,-325.6722 1550.0768,-322.4735 1540.1862,-318.6753 1539.9764,-325.6722"/>
<text text-anchor="middle" x="1013.9804" y="-356.1949" font-family="Times,serif" font-size="14.00" fill="#d120ac">23  [when: kubeinit_submariner_is_broker|bool or kubeinit_submariner_is_secondary|bool]</text>
<links><link target="task_0c4fc550-42cd-4ce1-b50d-a8f8649746ef"/></links></g>
<!-- task_77b75027&#45;0886&#45;4582&#45;8869&#45;c50edd16fc16 -->
<g id="task_77b75027-0886-4582-8869-c50edd16fc16" class="node">
<title>task_77b75027-0886-4582-8869-c50edd16fc16</title>
<polygon fill="none" stroke="#000000" points="2250.2556,-270.9391 2250.2556,-285.8508 1995.7215,-296.3949 1635.756,-296.3949 1381.2219,-285.8508 1381.2219,-270.9391 1635.756,-260.3949 1995.7215,-260.3949 2250.2556,-270.9391"/>
<text text-anchor="middle" x="1815.7388" y="-274.6949" font-family="Times,serif" font-size="14.00" fill="#000000">[task] ../../roles/kubeinit_submariner : Copying the broker-info.subm and kubeconfig to the destination cluster</text>
</g>
<!-- Play #1: Main deployment playbook for integrating submariner (0)&#45;&gt;task_77b75027&#45;0886&#45;4582&#45;8869&#45;c50edd16fc16 -->
<g id="edge_c428f6ef-78bb-4ecf-b435-79d3330e10be" class="edge">
<title>Play #1: Main deployment playbook for integrating submariner (0)-&gt;task_77b75027-0886-4582-8869-c50edd16fc16</title>
<path fill="none" stroke="#d120ac" stroke-width="2" d="M456.5305,-773.1419C461.9435,-698.103 493.576,-411.914 664.9804,-296.3949 732.1073,-251.1543 1175.3725,-255.9772 1491.6723,-265.6098"/>
<polygon fill="#d120ac" stroke="#d120ac" stroke-width="2" points="1491.8278,-269.1161 1501.9307,-265.9252 1492.043,-262.1194 1491.8278,-269.1161"/>
<text text-anchor="middle" x="1013.9804" y="-300.1949" font-family="Times,serif" font-size="14.00" fill="#d120ac">24  [when: kubeinit_submariner_is_secondary|bool]</text>
<links><link target="task_77b75027-0886-4582-8869-c50edd16fc16"/></links></g>
<!-- task_86259b36&#45;39ad&#45;441b&#45;98b9&#45;abf34655be74 -->
<g id="task_86259b36-39ad-441b-98b9-abf34655be74" class="node">
<title>task_86259b36-39ad-441b-98b9-abf34655be74</title>
<polygon fill="none" stroke="#000000" points="2070.9744,-216.9391 2070.9744,-231.8508 1921.4608,-242.3949 1710.0167,-242.3949 1560.5031,-231.8508 1560.5031,-216.9391 1710.0167,-206.3949 1921.4608,-206.3949 2070.9744,-216.9391"/>
<text text-anchor="middle" x="1815.7388" y="-220.6949" font-family="Times,serif" font-size="14.00" fill="#000000">[task] ../../roles/kubeinit_submariner : Join cluster to the broker</text>
</g>
<!-- Play #1: Main deployment playbook for integrating submariner (0)&#45;&gt;task_86259b36&#45;39ad&#45;441b&#45;98b9&#45;abf34655be74 -->
<g id="edge_b91deefe-6338-4dbe-b76f-453d0221360a" class="edge">
<title>Play #1: Main deployment playbook for integrating submariner (0)-&gt;task_86259b36-39ad-441b-98b9-abf34655be74</title>
<path fill="none" stroke="#d120ac" stroke-width="2" d="M459.5274,-773.1658C479.4622,-685.1645 570.078,-305.8014 664.9804,-239.3949 738.4379,-187.9942 1274.5778,-201.2966 1588.4918,-213.8395"/>
<polygon fill="#d120ac" stroke="#d120ac" stroke-width="2" points="1588.5059,-217.3428 1598.6386,-214.2478 1588.7874,-210.3485 1588.5059,-217.3428"/>
<text text-anchor="middle" x="1013.9804" y="-243.1949" font-family="Times,serif" font-size="14.00" fill="#d120ac">25  [when: kubeinit_submariner_is_broker|bool or kubeinit_submariner_is_secondary|bool]</text>
<links><link target="task_86259b36-39ad-441b-98b9-abf34655be74"/></links></g>
<!-- task_a6bda3ca&#45;c1a6&#45;43cd&#45;a6e3&#45;0bff07140c57 -->
<g id="task_a6bda3ca-c1a6-43cd-a6e3-0bff07140c57" class="node">
<title>task_a6bda3ca-c1a6-43cd-a6e3-0bff07140c57</title>
<polygon fill="none" stroke="#000000" points="2040.974,-162.9391 2040.974,-177.8508 1909.0343,-188.3949 1722.4433,-188.3949 1590.5035,-177.8508 1590.5035,-162.9391 1722.4433,-152.3949 1909.0343,-152.3949 2040.974,-162.9391"/>
<text text-anchor="middle" x="1815.7388" y="-166.6949" font-family="Times,serif" font-size="14.00" fill="#000000">[task] ../../roles/kubeinit_submariner : Tag worker node</text>
</g>
<!-- Play #1: Main deployment playbook for integrating submariner (0)&#45;&gt;task_a6bda3ca&#45;c1a6&#45;43cd&#45;a6e3&#45;0bff07140c57 -->
<g id="edge_44f060bf-1c8b-44c4-9897-78712f587533" class="edge">
<title>Play #1: Main deployment playbook for integrating submariner (0)-&gt;task_a6bda3ca-c1a6-43cd-a6e3-0bff07140c57</title>
<path fill="none" stroke="#d120ac" stroke-width="2" d="M458.8628,-773.2295C476.6011,-680.1031 561.9998,-257.7143 664.9804,-183.3949 739.4069,-129.6825 1299.8871,-146.3808 1610.3042,-160.0834"/>
<polygon fill="#d120ac" stroke="#d120ac" stroke-width="2" points="1610.1816,-163.5813 1620.3271,-160.5286 1610.4923,-156.5882 1610.1816,-163.5813"/>
<text text-anchor="middle" x="1013.9804" y="-187.1949" font-family="Times,serif" font-size="14.00" fill="#d120ac">26  [when: kubeinit_submariner_is_broker|bool or kubeinit_submariner_is_secondary|bool]</text>
<links><link target="task_a6bda3ca-c1a6-43cd-a6e3-0bff07140c57"/></links></g>
<!-- task_41504841&#45;0207&#45;48be&#45;91b9&#45;6bf59a42943a -->
<g id="task_41504841-0207-48be-91b9-6bf59a42943a" class="node">
<title>task_41504841-0207-48be-91b9-6bf59a42943a</title>
<polygon fill="none" stroke="#000000" points="2075.8234,-108.9391 2075.8234,-123.8508 1923.4693,-134.3949 1708.0082,-134.3949 1555.6541,-123.8508 1555.6541,-108.9391 1708.0082,-98.3949 1923.4693,-98.3949 2075.8234,-108.9391"/>
<text text-anchor="middle" x="1815.7388" y="-112.6949" font-family="Times,serif" font-size="14.00" fill="#000000">[task] ../../roles/kubeinit_submariner : Render the netshoot script</text>
</g>
<!-- Play #1: Main deployment playbook for integrating submariner (0)&#45;&gt;task_41504841&#45;0207&#45;48be&#45;91b9&#45;6bf59a42943a -->
<g id="edge_30cd7235-b282-483c-ae86-3b82b464a359" class="edge">
<title>Play #1: Main deployment playbook for integrating submariner (0)-&gt;task_41504841-0207-48be-91b9-6bf59a42943a</title>
<path fill="none" stroke="#d120ac" stroke-width="2" d="M458.3194,-773.2227C474.0526,-675.0743 553.8687,-209.6681 664.9804,-127.3949 737.7254,-73.5305 1284.133,-90.414 1597.1487,-104.8739"/>
<polygon fill="#d120ac" stroke="#d120ac" stroke-width="2" points="1597.1105,-108.3758 1607.2622,-105.344 1597.4356,-101.3833 1597.1105,-108.3758"/>
<text text-anchor="middle" x="1013.9804" y="-131.1949" font-family="Times,serif" font-size="14.00" fill="#d120ac">27  [when: kubeinit_submariner_is_broker|bool or kubeinit_submariner_is_secondary|bool]</text>
<links><link target="task_41504841-0207-48be-91b9-6bf59a42943a"/></links></g>
<!-- task_b322666f&#45;a9b9&#45;417a&#45;ae63&#45;8bc8f4e5b7f0 -->
<g id="task_b322666f-a9b9-417a-ae63-8bc8f4e5b7f0" class="node">
<title>task_b322666f-a9b9-417a-ae63-8bc8f4e5b7f0</title>
<polygon fill="none" stroke="#000000" points="2076.7302,-54.9391 2076.7302,-69.8508 1923.845,-80.3949 1707.6326,-80.3949 1554.7473,-69.8508 1554.7473,-54.9391 1707.6326,-44.3949 1923.845,-44.3949 2076.7302,-54.9391"/>
<text text-anchor="middle" x="1815.7388" y="-58.6949" font-family="Times,serif" font-size="14.00" fill="#000000">[task] ../../roles/kubeinit_submariner : Verify cluster deployment</text>
</g>
<!-- Play #1: Main deployment playbook for integrating submariner (0)&#45;&gt;task_b322666f&#45;a9b9&#45;417a&#45;ae63&#45;8bc8f4e5b7f0 -->
<g id="edge_e6326f7d-3441-4f21-83cd-e01c72dfec58" class="edge">
<title>Play #1: Main deployment playbook for integrating submariner (0)-&gt;task_b322666f-a9b9-417a-ae63-8bc8f4e5b7f0</title>
<path fill="none" stroke="#d120ac" stroke-width="2" d="M457.8751,-773.0829C471.7842,-669.8141 545.7219,-161.6296 664.9804,-71.3949 821.1019,46.7314 1412.6024,-10.7302 1681.379,-44.1675"/>
<polygon fill="#d120ac" stroke="#d120ac" stroke-width="2" points="1681.2283,-47.6758 1691.5856,-45.445 1682.0977,-40.73 1681.2283,-47.6758"/>
<text text-anchor="middle" x="1013.9804" y="-75.1949" font-family="Times,serif" font-size="14.00" fill="#d120ac">28  [when: kubeinit_submariner_is_secondary|bool]</text>
<links><link target="task_b322666f-a9b9-417a-ae63-8bc8f4e5b7f0"/></links></g>
</g>
</svg>