<?xml version='1.0' encoding='UTF-8'?>
<!DOCTYPE svg PUBLIC "-//W3C//DTD SVG 1.1//EN" "http://www.w3.org/Graphics/SVG/1.1/DTD/svg11.dtd">
<!-- Generated by graphviz version 2.40.1 (20161225.0304)
 --><!-- Title: ./playbooks/submariner.yml  Pages: 1 --><svg xmlns="http://www.w3.org/2000/svg" xmlns:xlink="http://www.w3.org/1999/xlink" width="2258pt" height="1450pt" viewBox="0.00 0.00 2258.50 1450.01" id="svg">
<script type="text/javascript" href="https://ajax.googleapis.com/ajax/libs/jquery/3.2.1/jquery.min.js" id="jquery"/><script type="text/javascript" id="my_javascript"><![CDATA[const HOVER_CLASS = "my_hover";

var selectedElement = null;

function addClass(rootElement) {
    $(rootElement).find('link').each(function (index, element) {
        var target = $(element).attr('target');
        var currentElement = $('#' + target);
        currentElement.addClass(HOVER_CLASS);

        addClass(currentElement);
    })
}

function removeClass(rootElement, hover) {
    $(rootElement).find('link').each(function (index, element) {
        if ($(rootElement).attr('id') !== $(selectedElement).attr('id') || !hover) {
            var target = $(element).attr('target');
            var currentElement = $('#' + target);
            currentElement.removeClass(HOVER_CLASS);

            removeClass(currentElement);
        }

    })
}

function hoverIn(event) {
    addClass(event.currentTarget);
}

function hoverOut(event) {
    removeClass(event.currentTarget, true);
}

function clickOnElement(event) {
    var newElement = event.currentTarget;

    if ($(newElement).attr('id') === $(selectedElement).attr('id')) {
        removeClass(selectedElement, false);
    } else {
        removeClass(selectedElement);
        addClass(newElement)
    }

    selectedElement = newElement;
}


$("#svg").ready(function () {

    $("g[id^=play_]").hover(hoverIn, hoverOut);
    $("g[id^=role_]").hover(hoverIn, hoverOut);

    $("g[id^=play_]").click(clickOnElement);
    $("g[id^=role_]").click(clickOnElement);

});
]]></script><style type="text/css" id="my_css"><![CDATA[.node:hover, .edge:hover, path:hover, path + polygon:hover {
    cursor: pointer;
    stroke-width: 3;
    font-weight: bolder;
}

.my_hover {
    cursor: pointer;
    stroke-width: 3;
    font-weight: bolder;
}
]]></style><g id="graph0" class="graph" transform="scale(1 1) rotate(0) translate(4 1446.0123)">
<title>./playbooks/submariner.yml </title>
<polygon fill="#ffffff" stroke="transparent" points="-4,4 -4,-1446.0123 2254.4971,-1446.0123 2254.4971,4 -4,4"/>
<!-- ./playbooks/submariner.yml -->
<g id="root_node" class="node">
<title>./playbooks/submariner.yml</title>
<ellipse fill="none" stroke="#000000" stroke-dasharray="1,5" cx="110.4902" cy="-735.0123" rx="110.4804" ry="18"/>
<text text-anchor="middle" x="110.4902" y="-731.3123" font-family="Times,serif" font-size="14.00" fill="#000000">./playbooks/submariner.yml</text>
</g>
<!-- Play #1: Main deployment playbook for integrating submariner (0) -->
<g id="play_cc67d1db-0be8-4efb-b5d8-da026f44f1e2" class="node">
<title>Play #1: Main deployment playbook for integrating submariner (0)</title>
<polygon fill="#815ac8" stroke="#815ac8" points="646.9804,-753.0123 263.9804,-753.0123 263.9804,-717.0123 646.9804,-717.0123 646.9804,-753.0123"/>
<text text-anchor="middle" x="455.4804" y="-731.3123" font-family="Times,serif" font-size="14.00" fill="#ffffff">Play #1: Main deployment playbook for integrating submariner (0)</text>
<links><link target="edge_0aa427be-4377-4dcf-9023-93a53b7c3e5d"/><link target="edge_8b38862a-1ee1-42d1-8076-7fc3939ec67d"/><link target="edge_39483cdd-89ae-4d6c-8b0c-2b437ba53353"/><link target="edge_3d92d116-ea0a-4047-8af3-62126fbf63ad"/><link target="edge_dfb2603f-0aed-4e3a-ac77-f3c9af96ef64"/><link target="edge_0622d6ee-e8da-474e-b664-a9c6a3e69f93"/><link target="edge_95517051-335d-4fdf-9119-f7ba7eabfa7d"/><link target="edge_d475daa8-bfae-4c8f-aaf5-0a45752c2ff7"/><link target="edge_92d8c962-d768-4907-a1dc-0ae46bb86aa2"/><link target="edge_64ef3200-4f12-4b9b-9655-b830d3c4319f"/><link target="edge_c9ccfe0a-4c04-4c2a-8054-26497448623c"/><link target="edge_649bc25d-1de4-4cd7-ba35-43d04799cf40"/><link target="edge_2630f3b9-50ec-446d-ac54-c27ef0d09208"/><link target="edge_b4180968-5a4e-4828-9c45-b64d7d8b2130"/><link target="edge_ad3d91f6-9abe-4761-8bea-63613e838612"/><link target="edge_d4442c86-d7b4-4dfd-861f-044c1694c2d0"/><link target="edge_77e3b71b-4607-41c6-be92-474a60970c25"/><link target="edge_7920f4b9-3cf7-476d-9b74-be186e3b5cc9"/><link target="edge_3960a0ab-3ccf-48b6-9c77-42cacdc2a1a1"/><link target="edge_57b88862-aa12-4b28-8a02-496b8c8b8b95"/><link target="edge_e6069251-0331-4558-a2b8-7bdf3a80537e"/><link target="edge_5f6b36dd-6550-4c15-80e3-ee080259a95d"/><link target="edge_0ef3326a-de96-4097-8bbb-49b2e8e00f61"/><link target="edge_4092afc1-9056-4f69-87e2-64c722ca13d2"/><link target="edge_c1ac791c-9eea-400e-8148-99345d594daa"/><link target="edge_71c9a9d7-4336-4b15-84a2-b508651da117"/></links></g>
<!-- ./playbooks/submariner.yml&#45;&gt;Play #1: Main deployment playbook for integrating submariner (0) -->
<g id="edge_8b67c565-f864-4947-ba73-cbf73c32313b" class="edge">
<title>./playbooks/submariner.yml-&gt;Play #1: Main deployment playbook for integrating submariner (0)</title>
<path fill="none" stroke="#815ac8" stroke-width="2" d="M221.0708,-735.0123C231.6334,-735.0123 242.5531,-735.0123 253.6394,-735.0123"/>
<polygon fill="#815ac8" stroke="#815ac8" stroke-width="2" points="253.8622,-738.5124 263.8622,-735.0123 253.8621,-731.5124 253.8622,-738.5124"/>
<text text-anchor="middle" x="242.4804" y="-738.8123" font-family="Times,serif" font-size="14.00" fill="#815ac8">1</text>
</g>
<!-- pre_task_832268c9&#45;1281&#45;432b&#45;a9ee&#45;e40d26a6b619 -->
<g id="pre_task_832268c9-1281-432b-a9ee-e40d26a6b619" class="node">
<title>pre_task_832268c9-1281-432b-a9ee-e40d26a6b619</title>
<polygon fill="none" stroke="#000000" points="2044.916,-1402.5564 2044.916,-1417.4681 1910.6671,-1428.0123 1720.8104,-1428.0123 1586.5615,-1417.4681 1586.5615,-1402.5564 1720.8104,-1392.0123 1910.6671,-1392.0123 2044.916,-1402.5564"/>
<text text-anchor="middle" x="1815.7388" y="-1406.3123" font-family="Times,serif" font-size="14.00" fill="#000000">[pre_task] Check if Ansible meets version requirements.</text>
</g>
<!-- Play #1: Main deployment playbook for integrating submariner (0)&#45;&gt;pre_task_832268c9&#45;1281&#45;432b&#45;a9ee&#45;e40d26a6b619 -->
<g id="edge_0aa427be-4377-4dcf-9023-93a53b7c3e5d" class="edge">
<title>Play #1: Main deployment playbook for integrating submariner (0)-&gt;pre_task_832268c9-1281-432b-a9ee-e40d26a6b619</title>
<path fill="none" stroke="#815ac8" stroke-width="2" d="M458.4474,-753.1299C474.6997,-849.9557 556.19,-1304.9874 664.9804,-1386.0123 737.2158,-1439.8117 1278.4715,-1429.7367 1592.2887,-1419.0724"/>
<polygon fill="#815ac8" stroke="#815ac8" stroke-width="2" points="1592.5562,-1422.5654 1602.4304,-1418.7248 1592.3164,-1415.5695 1592.5562,-1422.5654"/>
<text text-anchor="middle" x="1013.9804" y="-1430.8123" font-family="Times,serif" font-size="14.00" fill="#815ac8">1</text>
<links><link target="pre_task_832268c9-1281-432b-a9ee-e40d26a6b619"/></links></g>
<!-- task_49f17dd6&#45;1542&#45;4307&#45;9834&#45;d25077648413 -->
<g id="task_49f17dd6-1542-4307-9834-d25077648413" class="node">
<title>task_49f17dd6-1542-4307-9834-d25077648413</title>
<polygon fill="none" stroke="#000000" points="1874.9257,-1348.5564 1874.9257,-1363.4681 1840.2548,-1374.0123 1791.2228,-1374.0123 1756.5519,-1363.4681 1756.5519,-1348.5564 1791.2228,-1338.0123 1840.2548,-1338.0123 1874.9257,-1348.5564"/>
<text text-anchor="middle" x="1815.7388" y="-1352.3123" font-family="Times,serif" font-size="14.00" fill="#000000">[task] debug</text>
</g>
<!-- Play #1: Main deployment playbook for integrating submariner (0)&#45;&gt;task_49f17dd6&#45;1542&#45;4307&#45;9834&#45;d25077648413 -->
<g id="edge_8b38862a-1ee1-42d1-8076-7fc3939ec67d" class="edge">
<title>Play #1: Main deployment playbook for integrating submariner (0)-&gt;task_49f17dd6-1542-4307-9834-d25077648413</title>
<path fill="none" stroke="#815ac8" stroke-width="2" d="M459.1065,-753.1551C477.7165,-844.2993 565.4922,-1250.6874 664.9804,-1323.0123 752.2439,-1386.4502 1510.9057,-1366.3534 1746.3509,-1358.5044"/>
<polygon fill="#815ac8" stroke="#815ac8" stroke-width="2" points="1746.624,-1361.9973 1756.5006,-1358.1628 1746.3885,-1355.0013 1746.624,-1361.9973"/>
<text text-anchor="middle" x="1013.9804" y="-1370.8123" font-family="Times,serif" font-size="14.00" fill="#815ac8">2</text>
<links><link target="task_49f17dd6-1542-4307-9834-d25077648413"/></links></g>
<!-- task_0fbde394&#45;a829&#45;42c6&#45;b8e5&#45;c002034d5c3e -->
<g id="task_0fbde394-a829-42c6-b8e5-c002034d5c3e" class="node">
<title>task_0fbde394-a829-42c6-b8e5-c002034d5c3e</title>
<polygon fill="none" stroke="#000000" points="2139.859,-1294.5564 2139.859,-1309.4681 1949.9937,-1320.0123 1681.4838,-1320.0123 1491.6186,-1309.4681 1491.6186,-1294.5564 1681.4838,-1284.0123 1949.9937,-1284.0123 2139.859,-1294.5564"/>
<text text-anchor="middle" x="1815.7388" y="-1298.3123" font-family="Times,serif" font-size="14.00" fill="#000000">[task] ../../roles/kubeinit_submariner : Gather variables for each operating system</text>
</g>
<!-- Play #1: Main deployment playbook for integrating submariner (0)&#45;&gt;task_0fbde394&#45;a829&#45;42c6&#45;b8e5&#45;c002034d5c3e -->
<g id="edge_39483cdd-89ae-4d6c-8b0c-2b437ba53353" class="edge">
<title>Play #1: Main deployment playbook for integrating submariner (0)-&gt;task_0fbde394-a829-42c6-b8e5-c002034d5c3e</title>
<path fill="none" stroke="#815ac8" stroke-width="2" d="M459.6403,-753.2916C479.9249,-840.6784 571.2929,-1214.3283 664.9804,-1280.0123 698.2409,-1303.3311 1153.6438,-1305.901 1481.4226,-1304.6735"/>
<polygon fill="#815ac8" stroke="#815ac8" stroke-width="2" points="1481.582,-1308.173 1491.5683,-1304.6342 1481.5548,-1301.1731 1481.582,-1308.173"/>
<text text-anchor="middle" x="1013.9804" y="-1307.8123" font-family="Times,serif" font-size="14.00" fill="#815ac8">3</text>
<links><link target="task_0fbde394-a829-42c6-b8e5-c002034d5c3e"/></links></g>
<!-- task_9d665f2c&#45;bcd8&#45;4c8d&#45;a0d7&#45;e3511ca86362 -->
<g id="task_9d665f2c-bcd8-4c8d-a0d7-e3511ca86362" class="node">
<title>task_9d665f2c-bcd8-4c8d-a0d7-e3511ca86362</title>
<polygon fill="none" stroke="#000000" points="2173.8942,-1240.5564 2173.8942,-1255.4681 1964.0916,-1266.0123 1667.3859,-1266.0123 1457.5834,-1255.4681 1457.5834,-1240.5564 1667.3859,-1230.0123 1964.0916,-1230.0123 2173.8942,-1240.5564"/>
<text text-anchor="middle" x="1815.7388" y="-1244.3123" font-family="Times,serif" font-size="14.00" fill="#000000">[task] ../../roles/kubeinit_submariner : Get submariner code based on a PR or from master</text>
</g>
<!-- Play #1: Main deployment playbook for integrating submariner (0)&#45;&gt;task_9d665f2c&#45;bcd8&#45;4c8d&#45;a0d7&#45;e3511ca86362 -->
<g id="edge_3d92d116-ea0a-4047-8af3-62126fbf63ad" class="edge">
<title>Play #1: Main deployment playbook for integrating submariner (0)-&gt;task_9d665f2c-bcd8-4c8d-a0d7-e3511ca86362</title>
<path fill="none" stroke="#815ac8" stroke-width="2" d="M456.5962,-753.1075C462.2685,-827.4992 494.7818,-1111.2372 664.9804,-1226.0123 733.5585,-1272.2585 1194.8241,-1267.8853 1512.1198,-1259.0262"/>
<polygon fill="#815ac8" stroke="#815ac8" stroke-width="2" points="1512.5073,-1262.5167 1522.4046,-1258.736 1512.3099,-1255.5195 1512.5073,-1262.5167"/>
<text text-anchor="middle" x="1013.9804" y="-1267.8123" font-family="Times,serif" font-size="14.00" fill="#815ac8">4  [when: kubeinit_submariner_is_broker|bool or kubeinit_submariner_is_secondary|bool]</text>
<links><link target="task_9d665f2c-bcd8-4c8d-a0d7-e3511ca86362"/></links></g>
<!-- task_0fa9ba5f&#45;1b12&#45;4d88&#45;9f8b&#45;f58c017896fe -->
<g id="task_0fa9ba5f-1b12-4d88-9f8b-f58c017896fe" class="node">
<title>task_0fa9ba5f-1b12-4d88-9f8b-f58c017896fe</title>
<polygon fill="none" stroke="#000000" points="2063.4976,-1186.5564 2063.4976,-1201.4681 1918.3638,-1212.0123 1713.1137,-1212.0123 1567.98,-1201.4681 1567.98,-1186.5564 1713.1137,-1176.0123 1918.3638,-1176.0123 2063.4976,-1186.5564"/>
<text text-anchor="middle" x="1815.7388" y="-1190.3123" font-family="Times,serif" font-size="14.00" fill="#000000">[task] ../../roles/kubeinit_submariner : Clean previous images</text>
</g>
<!-- Play #1: Main deployment playbook for integrating submariner (0)&#45;&gt;task_0fa9ba5f&#45;1b12&#45;4d88&#45;9f8b&#45;f58c017896fe -->
<g id="edge_dfb2603f-0aed-4e3a-ac77-f3c9af96ef64" class="edge">
<title>Play #1: Main deployment playbook for integrating submariner (0)-&gt;task_0fa9ba5f-1b12-4d88-9f8b-f58c017896fe</title>
<path fill="none" stroke="#815ac8" stroke-width="2" d="M457.6498,-753.4694C466.9457,-823.1836 510.2839,-1071.5453 664.9804,-1171.0123 738.8679,-1218.5206 1254.1803,-1211.6155 1569.648,-1202.6333"/>
<polygon fill="#815ac8" stroke="#815ac8" stroke-width="2" points="1569.9581,-1206.1259 1579.8534,-1202.34 1569.7569,-1199.1288 1569.9581,-1206.1259"/>
<text text-anchor="middle" x="1013.9804" y="-1212.8123" font-family="Times,serif" font-size="14.00" fill="#815ac8">5  [when: kubeinit_submariner_is_broker|bool or kubeinit_submariner_is_secondary|bool]</text>
<links><link target="task_0fa9ba5f-1b12-4d88-9f8b-f58c017896fe"/></links></g>
<!-- task_5f6206d6&#45;addf&#45;443b&#45;a2ce&#45;070e6477ab9a -->
<g id="task_5f6206d6-addf-443b-a2ce-070e6477ab9a" class="node">
<title>task_5f6206d6-addf-443b-a2ce-070e6477ab9a</title>
<polygon fill="none" stroke="#000000" points="2020.6716,-1132.5564 2020.6716,-1147.4681 1900.6247,-1158.0123 1730.8528,-1158.0123 1610.8059,-1147.4681 1610.8059,-1132.5564 1730.8528,-1122.0123 1900.6247,-1122.0123 2020.6716,-1132.5564"/>
<text text-anchor="middle" x="1815.7388" y="-1136.3123" font-family="Times,serif" font-size="14.00" fill="#000000">[task] ../../roles/kubeinit_submariner : Make clean</text>
</g>
<!-- Play #1: Main deployment playbook for integrating submariner (0)&#45;&gt;task_5f6206d6&#45;addf&#45;443b&#45;a2ce&#45;070e6477ab9a -->
<g id="edge_0622d6ee-e8da-474e-b664-a9c6a3e69f93" class="edge">
<title>Play #1: Main deployment playbook for integrating submariner (0)-&gt;task_5f6206d6-addf-443b-a2ce-070e6477ab9a</title>
<path fill="none" stroke="#815ac8" stroke-width="2" d="M458.9389,-753.3287C472.0862,-817.1672 525.4542,-1030.5523 664.9804,-1115.0123 742.6408,-1162.0228 1289.8567,-1154.8913 1600.8981,-1146.7941"/>
<polygon fill="#815ac8" stroke="#815ac8" stroke-width="2" points="1601.0417,-1150.2916 1610.9463,-1146.53 1600.8578,-1143.294 1601.0417,-1150.2916"/>
<text text-anchor="middle" x="1013.9804" y="-1155.8123" font-family="Times,serif" font-size="14.00" fill="#815ac8">6  [when: kubeinit_submariner_is_broker|bool or kubeinit_submariner_is_secondary|bool]</text>
<links><link target="task_5f6206d6-addf-443b-a2ce-070e6477ab9a"/></links></g>
<!-- task_295c959d&#45;9626&#45;47e8&#45;86e4&#45;47db089901ce -->
<g id="task_295c959d-9626-47e8-86e4-47db089901ce" class="node">
<title>task_295c959d-9626-47e8-86e4-47db089901ce</title>
<polygon fill="none" stroke="#000000" points="2063.9046,-1078.5564 2063.9046,-1093.4681 1918.5324,-1104.0123 1712.9451,-1104.0123 1567.5729,-1093.4681 1567.5729,-1078.5564 1712.9451,-1068.0123 1918.5324,-1068.0123 2063.9046,-1078.5564"/>
<text text-anchor="middle" x="1815.7388" y="-1082.3123" font-family="Times,serif" font-size="14.00" fill="#000000">[task] ../../roles/kubeinit_submariner : Make the subctl binary</text>
</g>
<!-- Play #1: Main deployment playbook for integrating submariner (0)&#45;&gt;task_295c959d&#45;9626&#45;47e8&#45;86e4&#45;47db089901ce -->
<g id="edge_95517051-335d-4fdf-9119-f7ba7eabfa7d" class="edge">
<title>Play #1: Main deployment playbook for integrating submariner (0)-&gt;task_295c959d-9626-47e8-86e4-47db089901ce</title>
<path fill="none" stroke="#815ac8" stroke-width="2" d="M460.5662,-753.0628C477.8281,-810.4741 540.1766,-989.18 664.9804,-1059.0123 740.5667,-1101.3055 1241.5398,-1098.6982 1557.0762,-1092.6085"/>
<polygon fill="#815ac8" stroke="#815ac8" stroke-width="2" points="1557.3592,-1096.1037 1567.2889,-1092.4089 1557.2224,-1089.1051 1557.3592,-1096.1037"/>
<text text-anchor="middle" x="1013.9804" y="-1099.8123" font-family="Times,serif" font-size="14.00" fill="#815ac8">7  [when: kubeinit_submariner_is_broker|bool or kubeinit_submariner_is_secondary|bool]</text>
<links><link target="task_295c959d-9626-47e8-86e4-47db089901ce"/></links></g>
<!-- task_38eb19e0&#45;24cc&#45;4883&#45;95d9&#45;726cfea52124 -->
<g id="task_38eb19e0-24cc-4883-95d9-726cfea52124" class="node">
<title>task_38eb19e0-24cc-4883-95d9-726cfea52124</title>
<polygon fill="none" stroke="#000000" points="2019.7644,-1024.5564 2019.7644,-1039.4681 1900.249,-1050.0123 1731.2286,-1050.0123 1611.7131,-1039.4681 1611.7131,-1024.5564 1731.2286,-1014.0123 1900.249,-1014.0123 2019.7644,-1024.5564"/>
<text text-anchor="middle" x="1815.7388" y="-1028.3123" font-family="Times,serif" font-size="14.00" fill="#000000">[task] ../../roles/kubeinit_submariner : Make build</text>
</g>
<!-- Play #1: Main deployment playbook for integrating submariner (0)&#45;&gt;task_38eb19e0&#45;24cc&#45;4883&#45;95d9&#45;726cfea52124 -->
<g id="edge_d475daa8-bfae-4c8f-aaf5-0a45752c2ff7" class="edge">
<title>Play #1: Main deployment playbook for integrating submariner (0)-&gt;task_38eb19e0-24cc-4883-95d9-726cfea52124</title>
<path fill="none" stroke="#815ac8" stroke-width="2" d="M462.8768,-753.3257C484.692,-804.5458 554.2668,-949.1653 664.9804,-1005.0123 746.0086,-1045.8851 1291.4559,-1042.3475 1601.4394,-1036.8453"/>
<polygon fill="#815ac8" stroke="#815ac8" stroke-width="2" points="1601.5179,-1040.3445 1611.4534,-1036.6654 1601.3921,-1033.3456 1601.5179,-1040.3445"/>
<text text-anchor="middle" x="1013.9804" y="-1043.8123" font-family="Times,serif" font-size="14.00" fill="#815ac8">8  [when: kubeinit_submariner_is_broker|bool or kubeinit_submariner_is_secondary|bool]</text>
<links><link target="task_38eb19e0-24cc-4883-95d9-726cfea52124"/></links></g>
<!-- task_5fa98255&#45;5e1a&#45;4257&#45;9346&#45;83604142831c -->
<g id="task_5fa98255-5e1a-4257-9346-83604142831c" class="node">
<title>task_5fa98255-5e1a-4257-9346-83604142831c</title>
<polygon fill="none" stroke="#000000" points="2028.1482,-970.5564 2028.1482,-985.4681 1903.7217,-996.0123 1727.7559,-996.0123 1603.3293,-985.4681 1603.3293,-970.5564 1727.7559,-960.0123 1903.7217,-960.0123 2028.1482,-970.5564"/>
<text text-anchor="middle" x="1815.7388" y="-974.3123" font-family="Times,serif" font-size="14.00" fill="#000000">[task] ../../roles/kubeinit_submariner : Make images</text>
</g>
<!-- Play #1: Main deployment playbook for integrating submariner (0)&#45;&gt;task_5fa98255&#45;5e1a&#45;4257&#45;9346&#45;83604142831c -->
<g id="edge_92d8c962-d768-4907-a1dc-0ae46bb86aa2" class="edge">
<title>Play #1: Main deployment playbook for integrating submariner (0)-&gt;task_5fa98255-5e1a-4257-9346-83604142831c</title>
<path fill="none" stroke="#815ac8" stroke-width="2" d="M465.6874,-753.2732C491.8616,-797.9852 566.3115,-912.4679 664.9804,-956.0123 747.209,-992.3012 1282.274,-988.4481 1593.0358,-982.953"/>
<polygon fill="#815ac8" stroke="#815ac8" stroke-width="2" points="1593.1433,-986.4517 1603.0791,-982.7734 1593.0181,-979.4528 1593.1433,-986.4517"/>
<text text-anchor="middle" x="1013.9804" y="-989.8123" font-family="Times,serif" font-size="14.00" fill="#815ac8">9  [when: kubeinit_submariner_is_broker|bool or kubeinit_submariner_is_secondary|bool]</text>
<links><link target="task_5fa98255-5e1a-4257-9346-83604142831c"/></links></g>
<!-- task_ab45f53e&#45;37a6&#45;4b97&#45;9925&#45;ffcb32c954e6 -->
<g id="task_ab45f53e-37a6-4b97-9925-ffcb32c954e6" class="node">
<title>task_ab45f53e-37a6-4b97-9925-ffcb32c954e6</title>
<polygon fill="none" stroke="#000000" points="2101.4747,-916.5564 2101.4747,-931.4681 1934.0945,-942.0123 1697.3831,-942.0123 1530.0028,-931.4681 1530.0028,-916.5564 1697.3831,-906.0123 1934.0945,-906.0123 2101.4747,-916.5564"/>
<text text-anchor="middle" x="1815.7388" y="-920.3123" font-family="Times,serif" font-size="14.00" fill="#000000">[task] ../../roles/kubeinit_submariner : Make the subctl binary available</text>
</g>
<!-- Play #1: Main deployment playbook for integrating submariner (0)&#45;&gt;task_ab45f53e&#45;37a6&#45;4b97&#45;9925&#45;ffcb32c954e6 -->
<g id="edge_64ef3200-4f12-4b9b-9655-b830d3c4319f" class="edge">
<title>Play #1: Main deployment playbook for integrating submariner (0)-&gt;task_ab45f53e-37a6-4b97-9925-ffcb32c954e6</title>
<path fill="none" stroke="#815ac8" stroke-width="2" d="M472.0513,-753.0963C504.8924,-787.4734 582.2499,-861.3736 664.9804,-890.0123 823.7011,-944.9564 1270.0155,-942.4112 1557.8886,-934.1806"/>
<polygon fill="#815ac8" stroke="#815ac8" stroke-width="2" points="1558.1673,-937.6741 1568.0615,-933.8855 1557.9642,-930.677 1558.1673,-937.6741"/>
<text text-anchor="middle" x="1013.9804" y="-941.8123" font-family="Times,serif" font-size="14.00" fill="#815ac8">10  [when: kubeinit_submariner_is_broker|bool or kubeinit_submariner_is_secondary|bool]</text>
<links><link target="task_ab45f53e-37a6-4b97-9925-ffcb32c954e6"/></links></g>
<!-- task_8fe2281f&#45;788b&#45;4e1f&#45;a092&#45;02b1a5613f9d -->
<g id="task_8fe2281f-788b-4e1f-a092-02b1a5613f9d" class="node">
<title>task_8fe2281f-788b-4e1f-a092-02b1a5613f9d</title>
<polygon fill="none" stroke="#000000" points="2070.9744,-862.5564 2070.9744,-877.4681 1921.4608,-888.0123 1710.0167,-888.0123 1560.5031,-877.4681 1560.5031,-862.5564 1710.0167,-852.0123 1921.4608,-852.0123 2070.9744,-862.5564"/>
<text text-anchor="middle" x="1815.7388" y="-866.3123" font-family="Times,serif" font-size="14.00" fill="#000000">[task] ../../roles/kubeinit_submariner : Check if ~/.profile exists</text>
</g>
<!-- Play #1: Main deployment playbook for integrating submariner (0)&#45;&gt;task_8fe2281f&#45;788b&#45;4e1f&#45;a092&#45;02b1a5613f9d -->
<g id="edge_c9ccfe0a-4c04-4c2a-8054-26497448623c" class="edge">
<title>Play #1: Main deployment playbook for integrating submariner (0)-&gt;task_8fe2281f-788b-4e1f-a092-02b1a5613f9d</title>
<path fill="none" stroke="#815ac8" stroke-width="2" d="M485.3701,-753.128C524.8548,-775.9656 597.3249,-814.1543 664.9804,-830.0123 826.7341,-867.9262 1263.5638,-873.4691 1550.0746,-872.6936"/>
<polygon fill="#815ac8" stroke="#815ac8" stroke-width="2" points="1550.2131,-876.1933 1560.2026,-872.6634 1550.1921,-869.1933 1550.2131,-876.1933"/>
<text text-anchor="middle" x="1013.9804" y="-874.8123" font-family="Times,serif" font-size="14.00" fill="#815ac8">11  [when: kubeinit_submariner_is_broker|bool or kubeinit_submariner_is_secondary|bool]</text>
<links><link target="task_8fe2281f-788b-4e1f-a092-02b1a5613f9d"/></links></g>
<!-- task_2a8e271b&#45;1177&#45;4984&#45;b120&#45;4acd3abf2bc6 -->
<g id="task_2a8e271b-1177-4984-b120-4acd3abf2bc6" class="node">
<title>task_2a8e271b-1177-4984-b120-4acd3abf2bc6</title>
<polygon fill="none" stroke="#000000" points="2087.7422,-808.5564 2087.7422,-823.4681 1928.4063,-834.0123 1703.0713,-834.0123 1543.7353,-823.4681 1543.7353,-808.5564 1703.0713,-798.0123 1928.4063,-798.0123 2087.7422,-808.5564"/>
<text text-anchor="middle" x="1815.7388" y="-812.3123" font-family="Times,serif" font-size="14.00" fill="#000000">[task] ../../roles/kubeinit_submariner : Append subctl path to profile</text>
</g>
<!-- Play #1: Main deployment playbook for integrating submariner (0)&#45;&gt;task_2a8e271b&#45;1177&#45;4984&#45;b120&#45;4acd3abf2bc6 -->
<g id="edge_649bc25d-1de4-4cd7-ba35-43d04799cf40" class="edge">
<title>Play #1: Main deployment playbook for integrating submariner (0)-&gt;task_2a8e271b-1177-4984-b120-4acd3abf2bc6</title>
<path fill="none" stroke="#815ac8" stroke-width="2" d="M544.8359,-753.0229C581.8613,-759.792 625.3414,-766.8496 664.9804,-771.0123 960.1014,-802.004 1299.8186,-812.1857 1533.2252,-815.27"/>
<polygon fill="#815ac8" stroke="#815ac8" stroke-width="2" points="1533.5196,-818.774 1543.5638,-815.4029 1533.6096,-811.7745 1533.5196,-818.774"/>
<text text-anchor="middle" x="1013.9804" y="-814.8123" font-family="Times,serif" font-size="14.00" fill="#815ac8">12  [when: profile_exists.stat.exists and (kubeinit_submariner_is_broker|bool or kubeinit_submariner_is_secondary|bool)]</text>
<links><link target="task_2a8e271b-1177-4984-b120-4acd3abf2bc6"/></links></g>
<!-- task_cd52e8ec&#45;5972&#45;4cb5&#45;8704&#45;9f4d1a5c498e -->
<g id="task_cd52e8ec-5972-4cb5-8704-9f4d1a5c498e" class="node">
<title>task_cd52e8ec-5972-4cb5-8704-9f4d1a5c498e</title>
<polygon fill="none" stroke="#000000" points="2093.4979,-754.5564 2093.4979,-769.4681 1930.7904,-780.0123 1700.6872,-780.0123 1537.9796,-769.4681 1537.9796,-754.5564 1700.6872,-744.0123 1930.7904,-744.0123 2093.4979,-754.5564"/>
<text text-anchor="middle" x="1815.7388" y="-758.3123" font-family="Times,serif" font-size="14.00" fill="#000000">[task] ../../roles/kubeinit_submariner : Check if ~/.bash_profile exists</text>
</g>
<!-- Play #1: Main deployment playbook for integrating submariner (0)&#45;&gt;task_cd52e8ec&#45;5972&#45;4cb5&#45;8704&#45;9f4d1a5c498e -->
<g id="edge_2630f3b9-50ec-446d-ac54-c27ef0d09208" class="edge">
<title>Play #1: Main deployment playbook for integrating submariner (0)-&gt;task_cd52e8ec-5972-4cb5-8704-9f4d1a5c498e</title>
<path fill="none" stroke="#815ac8" stroke-width="2" d="M647.1277,-738.8163C876.4213,-743.3676 1262.5251,-751.0314 1527.764,-756.2962"/>
<polygon fill="#815ac8" stroke="#815ac8" stroke-width="2" points="1527.8677,-759.7989 1537.9352,-756.4981 1528.0067,-752.8002 1527.8677,-759.7989"/>
<text text-anchor="middle" x="1013.9804" y="-755.8123" font-family="Times,serif" font-size="14.00" fill="#815ac8">13  [when: kubeinit_submariner_is_broker|bool or kubeinit_submariner_is_secondary|bool]</text>
<links><link target="task_cd52e8ec-5972-4cb5-8704-9f4d1a5c498e"/></links></g>
<!-- task_07213d80&#45;2a56&#45;431b&#45;8ca6&#45;9741ac66ac0a -->
<g id="task_07213d80-2a56-431b-8ca6-9741ac66ac0a" class="node">
<title>task_07213d80-2a56-431b-8ca6-9741ac66ac0a</title>
<polygon fill="none" stroke="#000000" points="2110.2657,-700.5564 2110.2657,-715.4681 1937.7358,-726.0123 1693.7417,-726.0123 1521.2119,-715.4681 1521.2119,-700.5564 1693.7417,-690.0123 1937.7358,-690.0123 2110.2657,-700.5564"/>
<text text-anchor="middle" x="1815.7388" y="-704.3123" font-family="Times,serif" font-size="14.00" fill="#000000">[task] ../../roles/kubeinit_submariner : Append subctl path to bash_profile</text>
</g>
<!-- Play #1: Main deployment playbook for integrating submariner (0)&#45;&gt;task_07213d80&#45;2a56&#45;431b&#45;8ca6&#45;9741ac66ac0a -->
<g id="edge_b4180968-5a4e-4828-9c45-b64d7d8b2130" class="edge">
<title>Play #1: Main deployment playbook for integrating submariner (0)-&gt;task_07213d80-2a56-431b-8ca6-9741ac66ac0a</title>
<path fill="none" stroke="#815ac8" stroke-width="2" d="M647.257,-720.8105C653.2318,-720.5187 659.1509,-720.2511 664.9804,-720.0123 951.6758,-708.2649 1278.864,-705.9213 1510.8845,-706.1277"/>
<polygon fill="#815ac8" stroke="#815ac8" stroke-width="2" points="1511.1651,-709.6279 1521.1688,-706.1386 1511.1725,-702.6279 1511.1651,-709.6279"/>
<text text-anchor="middle" x="1013.9804" y="-723.8123" font-family="Times,serif" font-size="14.00" fill="#815ac8">14  [when: bash_profile_exists.stat.exists and (kubeinit_submariner_is_broker|bool or kubeinit_submariner_is_secondary|bool)]</text>
<links><link target="task_07213d80-2a56-431b-8ca6-9741ac66ac0a"/></links></g>
<!-- task_19963480&#45;ff21&#45;483e&#45;b3c1&#45;f21fb086cff2 -->
<g id="task_19963480-ff21-483e-b3c1-f21fb086cff2" class="node">
<title>task_19963480-ff21-483e-b3c1-f21fb086cff2</title>
<polygon fill="none" stroke="#000000" points="2070.5674,-646.5564 2070.5674,-661.4681 1921.2923,-672.0123 1710.1853,-672.0123 1560.9101,-661.4681 1560.9101,-646.5564 1710.1853,-636.0123 1921.2923,-636.0123 2070.5674,-646.5564"/>
<text text-anchor="middle" x="1815.7388" y="-650.3123" font-family="Times,serif" font-size="14.00" fill="#000000">[task] ../../roles/kubeinit_submariner : Check if ~/.bashrc exists</text>
</g>
<!-- Play #1: Main deployment playbook for integrating submariner (0)&#45;&gt;task_19963480&#45;ff21&#45;483e&#45;b3c1&#45;f21fb086cff2 -->
<g id="edge_ad3d91f6-9abe-4761-8bea-63613e838612" class="edge">
<title>Play #1: Main deployment playbook for integrating submariner (0)-&gt;task_19963480-ff21-483e-b3c1-f21fb086cff2</title>
<path fill="none" stroke="#815ac8" stroke-width="2" d="M519.0774,-717.0117C560.3067,-706.1974 615.382,-693.3428 664.9804,-687.0123 966.9519,-648.4699 1316.9514,-644.109 1550.9339,-646.8992"/>
<polygon fill="#815ac8" stroke="#815ac8" stroke-width="2" points="1550.9012,-650.399 1560.9441,-647.0238 1550.9884,-643.3996 1550.9012,-650.399"/>
<text text-anchor="middle" x="1013.9804" y="-690.8123" font-family="Times,serif" font-size="14.00" fill="#815ac8">15  [when: kubeinit_submariner_is_broker|bool or kubeinit_submariner_is_secondary|bool]</text>
<links><link target="task_19963480-ff21-483e-b3c1-f21fb086cff2"/></links></g>
<!-- task_22d2bd54&#45;7bea&#45;4b23&#45;b1c5&#45;3df0025d7f24 -->
<g id="task_22d2bd54-7bea-4b23-b1c5-3df0025d7f24" class="node">
<title>task_22d2bd54-7bea-4b23-b1c5-3df0025d7f24</title>
<polygon fill="none" stroke="#000000" points="2087.335,-592.5564 2087.335,-607.4681 1928.2376,-618.0123 1703.2399,-618.0123 1544.1425,-607.4681 1544.1425,-592.5564 1703.2399,-582.0123 1928.2376,-582.0123 2087.335,-592.5564"/>
<text text-anchor="middle" x="1815.7388" y="-596.3123" font-family="Times,serif" font-size="14.00" fill="#000000">[task] ../../roles/kubeinit_submariner : Append subctl path to bashrc</text>
</g>
<!-- Play #1: Main deployment playbook for integrating submariner (0)&#45;&gt;task_22d2bd54&#45;7bea&#45;4b23&#45;b1c5&#45;3df0025d7f24 -->
<g id="edge_d4442c86-d7b4-4dfd-861f-044c1694c2d0" class="edge">
<title>Play #1: Main deployment playbook for integrating submariner (0)-&gt;task_22d2bd54-7bea-4b23-b1c5-3df0025d7f24</title>
<path fill="none" stroke="#815ac8" stroke-width="2" d="M481.039,-716.9211C519.03,-691.2137 593.609,-645.2151 664.9804,-627.0123 823.3403,-586.6236 1249.0894,-586.8227 1535.9101,-592.2327"/>
<polygon fill="#815ac8" stroke="#815ac8" stroke-width="2" points="1535.9886,-595.7348 1546.0539,-592.4273 1536.1229,-588.7361 1535.9886,-595.7348"/>
<text text-anchor="middle" x="1013.9804" y="-630.8123" font-family="Times,serif" font-size="14.00" fill="#815ac8">16  [when: bashrc_exists.stat.exists and (kubeinit_submariner_is_broker|bool or kubeinit_submariner_is_secondary|bool)]</text>
<links><link target="task_22d2bd54-7bea-4b23-b1c5-3df0025d7f24"/></links></g>
<!-- task_f2f5cc29&#45;eda7&#45;4610&#45;ac0e&#45;302b43269726 -->
<g id="task_f2f5cc29-eda7-4610-ac0e-302b43269726" class="node">
<title>task_f2f5cc29-eda7-4610-ac0e-302b43269726</title>
<polygon fill="none" stroke="#000000" points="2112.4865,-538.5564 2112.4865,-553.4681 1938.6557,-564.0123 1692.8218,-564.0123 1518.991,-553.4681 1518.991,-538.5564 1692.8218,-528.0123 1938.6557,-528.0123 2112.4865,-538.5564"/>
<text text-anchor="middle" x="1815.7388" y="-542.3123" font-family="Times,serif" font-size="14.00" fill="#000000">[task] ../../roles/kubeinit_submariner : Render the iptables persist template</text>
</g>
<!-- Play #1: Main deployment playbook for integrating submariner (0)&#45;&gt;task_f2f5cc29&#45;eda7&#45;4610&#45;ac0e&#45;302b43269726 -->
<g id="edge_77e3b71b-4607-41c6-be92-474a60970c25" class="edge">
<title>Play #1: Main deployment playbook for integrating submariner (0)-&gt;task_f2f5cc29-eda7-4610-ac0e-302b43269726</title>
<path fill="none" stroke="#815ac8" stroke-width="2" d="M470.7752,-716.8363C502.5263,-680.6671 579.771,-600.5371 664.9804,-570.0123 827.8318,-511.6735 1296.7545,-521.2672 1583.2656,-533.5905"/>
<polygon fill="#815ac8" stroke="#815ac8" stroke-width="2" points="1583.2374,-537.0925 1593.3799,-534.03 1583.5413,-530.0991 1583.2374,-537.0925"/>
<text text-anchor="middle" x="1013.9804" y="-573.8123" font-family="Times,serif" font-size="14.00" fill="#815ac8">17  [when: kubeinit_submariner_is_broker|bool]</text>
<links><link target="task_f2f5cc29-eda7-4610-ac0e-302b43269726"/></links></g>
<!-- task_c89ba8e2&#45;0c9f&#45;4edc&#45;8d65&#45;6160982d55c7 -->
<g id="task_c89ba8e2-0c9f-4edc-8d65-6160982d55c7" class="node">
<title>task_c89ba8e2-0c9f-4edc-8d65-6160982d55c7</title>
<polygon fill="none" stroke="#000000" points="2207.4295,-484.5564 2207.4295,-499.4681 1977.9824,-510.0123 1653.4952,-510.0123 1424.048,-499.4681 1424.048,-484.5564 1653.4952,-474.0123 1977.9824,-474.0123 2207.4295,-484.5564"/>
<text text-anchor="middle" x="1815.7388" y="-488.3123" font-family="Times,serif" font-size="14.00" fill="#000000">[task] ../../roles/kubeinit_submariner : Make sure there the traffic is allowed from/to the cluster net</text>
</g>
<!-- Play #1: Main deployment playbook for integrating submariner (0)&#45;&gt;task_c89ba8e2&#45;0c9f&#45;4edc&#45;8d65&#45;6160982d55c7 -->
<g id="edge_7920f4b9-3cf7-476d-9b74-be186e3b5cc9" class="edge">
<title>Play #1: Main deployment playbook for integrating submariner (0)-&gt;task_c89ba8e2-0c9f-4edc-8d65-6160982d55c7</title>
<path fill="none" stroke="#815ac8" stroke-width="2" d="M464.8985,-716.9961C490.0266,-671.1426 563.7066,-550.4392 664.9804,-505.0123 736.5808,-472.8955 1153.7029,-475.3025 1465.2888,-481.955"/>
<polygon fill="#815ac8" stroke="#815ac8" stroke-width="2" points="1465.328,-485.4566 1475.4012,-482.1732 1465.4791,-478.4582 1465.328,-485.4566"/>
<text text-anchor="middle" x="1013.9804" y="-508.8123" font-family="Times,serif" font-size="14.00" fill="#815ac8">18  [when: kubeinit_submariner_is_broker|bool]</text>
<links><link target="task_c89ba8e2-0c9f-4edc-8d65-6160982d55c7"/></links></g>
<!-- task_abc2b6eb&#45;d057&#45;45c1&#45;8cd3&#45;e65be6dfc28e -->
<g id="task_abc2b6eb-d057-45c1-8cd3-e65be6dfc28e" class="node">
<title>task_abc2b6eb-d057-45c1-8cd3-e65be6dfc28e</title>
<polygon fill="none" stroke="#000000" points="2069.6604,-430.5564 2069.6604,-445.4681 1920.9165,-456.0123 1710.561,-456.0123 1561.8172,-445.4681 1561.8172,-430.5564 1710.561,-420.0123 1920.9165,-420.0123 2069.6604,-430.5564"/>
<text text-anchor="middle" x="1815.7388" y="-434.3123" font-family="Times,serif" font-size="14.00" fill="#000000">[task] ../../roles/kubeinit_submariner : Configure broker cluster</text>
</g>
<!-- Play #1: Main deployment playbook for integrating submariner (0)&#45;&gt;task_abc2b6eb&#45;d057&#45;45c1&#45;8cd3&#45;e65be6dfc28e -->
<g id="edge_3960a0ab-3ccf-48b6-9c77-42cacdc2a1a1" class="edge">
<title>Play #1: Main deployment playbook for integrating submariner (0)-&gt;task_abc2b6eb-d057-45c1-8cd3-e65be6dfc28e</title>
<path fill="none" stroke="#815ac8" stroke-width="2" d="M462.4091,-716.9535C483.4416,-665.0304 552.1077,-515.3933 664.9804,-458.0123 741.685,-419.0179 1236.1746,-423.4447 1551.4915,-430.5139"/>
<polygon fill="#815ac8" stroke="#815ac8" stroke-width="2" points="1551.6226,-434.0177 1561.6993,-430.7451 1551.7812,-427.0195 1551.6226,-434.0177"/>
<text text-anchor="middle" x="1013.9804" y="-461.8123" font-family="Times,serif" font-size="14.00" fill="#815ac8">19  [when: kubeinit_submariner_is_broker|bool]</text>
<links><link target="task_abc2b6eb-d057-45c1-8cd3-e65be6dfc28e"/></links></g>
<!-- task_bd8d403a&#45;e985&#45;40d1&#45;920c&#45;0f9eff4c7b20 -->
<g id="task_bd8d403a-e985-40d1-920c-0f9eff4c7b20" class="node">
<title>task_bd8d403a-e985-40d1-920c-0f9eff4c7b20</title>
<polygon fill="none" stroke="#000000" points="2147.8357,-376.5564 2147.8357,-391.4681 1953.2978,-402.0123 1678.1797,-402.0123 1483.6418,-391.4681 1483.6418,-376.5564 1678.1797,-366.0123 1953.2978,-366.0123 2147.8357,-376.5564"/>
<text text-anchor="middle" x="1815.7388" y="-380.3123" font-family="Times,serif" font-size="14.00" fill="#000000">[task] ../../roles/kubeinit_submariner : Copy the broker-info.subm to the hypervisor</text>
</g>
<!-- Play #1: Main deployment playbook for integrating submariner (0)&#45;&gt;task_bd8d403a&#45;e985&#45;40d1&#45;920c&#45;0f9eff4c7b20 -->
<g id="edge_57b88862-aa12-4b28-8a02-496b8c8b8b95" class="edge">
<title>Play #1: Main deployment playbook for integrating submariner (0)-&gt;task_bd8d403a-e985-40d1-920c-0f9eff4c7b20</title>
<path fill="none" stroke="#815ac8" stroke-width="2" d="M460.4613,-716.6707C477.4069,-658.3358 538.9079,-476.7712 664.9804,-406.0123 736.114,-366.0881 1184.6903,-368.1444 1500.2656,-374.87"/>
<polygon fill="#815ac8" stroke="#815ac8" stroke-width="2" points="1500.425,-378.3741 1510.4982,-375.0906 1500.576,-371.3757 1500.425,-378.3741"/>
<text text-anchor="middle" x="1013.9804" y="-409.8123" font-family="Times,serif" font-size="14.00" fill="#815ac8">20  [when: kubeinit_submariner_is_broker|bool]</text>
<links><link target="task_bd8d403a-e985-40d1-920c-0f9eff4c7b20"/></links></g>
<!-- task_bb5cd519&#45;034e&#45;4cb2&#45;bf35&#45;eb901a32ecd0 -->
<g id="task_bb5cd519-034e-4cb2-bf35-eb901a32ecd0" class="node">
<title>task_bb5cd519-034e-4cb2-bf35-eb901a32ecd0</title>
<polygon fill="none" stroke="#000000" points="2123.0912,-322.5564 2123.0912,-337.4681 1943.0483,-348.0123 1688.4292,-348.0123 1508.3863,-337.4681 1508.3863,-322.5564 1688.4292,-312.0123 1943.0483,-312.0123 2123.0912,-322.5564"/>
<text text-anchor="middle" x="1815.7388" y="-326.3123" font-family="Times,serif" font-size="14.00" fill="#000000">[task] ../../roles/kubeinit_submariner : Copy the kubeconfig to the hypervisor</text>
</g>
<!-- Play #1: Main deployment playbook for integrating submariner (0)&#45;&gt;task_bb5cd519&#45;034e&#45;4cb2&#45;bf35&#45;eb901a32ecd0 -->
<g id="edge_e6069251-0331-4558-a2b8-7bdf3a80537e" class="edge">
<title>Play #1: Main deployment playbook for integrating submariner (0)-&gt;task_bb5cd519-034e-4cb2-bf35-eb901a32ecd0</title>
<path fill="none" stroke="#815ac8" stroke-width="2" d="M458.7916,-716.9873C471.5912,-653.1707 524.3148,-437.2304 664.9804,-352.0123 736.7553,-308.5295 1209.8537,-312.6406 1526.6685,-320.6068"/>
<polygon fill="#815ac8" stroke="#815ac8" stroke-width="2" points="1526.8475,-324.1124 1536.9332,-320.8677 1527.0253,-317.1147 1526.8475,-324.1124"/>
<text text-anchor="middle" x="1013.9804" y="-355.8123" font-family="Times,serif" font-size="14.00" fill="#815ac8">21  [when: kubeinit_submariner_is_broker|bool or kubeinit_submariner_is_secondary|bool]</text>
<links><link target="task_bb5cd519-034e-4cb2-bf35-eb901a32ecd0"/></links></g>
<!-- task_fcc3f565&#45;74e4&#45;4270&#45;8087&#45;34b3cd5c89a4 -->
<g id="task_fcc3f565-74e4-4270-8087-34b3cd5c89a4" class="node">
<title>task_fcc3f565-74e4-4270-8087-34b3cd5c89a4</title>
<polygon fill="none" stroke="#000000" points="2250.2556,-268.5564 2250.2556,-283.4681 1995.7215,-294.0123 1635.756,-294.0123 1381.2219,-283.4681 1381.2219,-268.5564 1635.756,-258.0123 1995.7215,-258.0123 2250.2556,-268.5564"/>
<text text-anchor="middle" x="1815.7388" y="-272.3123" font-family="Times,serif" font-size="14.00" fill="#000000">[task] ../../roles/kubeinit_submariner : Copying the broker-info.subm and kubeconfig to the destination cluster</text>
</g>
<!-- Play #1: Main deployment playbook for integrating submariner (0)&#45;&gt;task_fcc3f565&#45;74e4&#45;4270&#45;8087&#45;34b3cd5c89a4 -->
<g id="edge_5f6b36dd-6550-4c15-80e3-ee080259a95d" class="edge">
<title>Play #1: Main deployment playbook for integrating submariner (0)-&gt;task_fcc3f565-74e4-4270-8087-34b3cd5c89a4</title>
<path fill="none" stroke="#815ac8" stroke-width="2" d="M457.534,-716.8986C466.502,-647.3417 509.0667,-396.269 664.9804,-296.0123 731.8486,-253.0142 1160.3112,-255.7477 1474.9428,-263.9706"/>
<polygon fill="#815ac8" stroke="#815ac8" stroke-width="2" points="1475.0625,-267.4749 1485.1515,-264.2404 1475.2475,-260.4773 1475.0625,-267.4749"/>
<text text-anchor="middle" x="1013.9804" y="-299.8123" font-family="Times,serif" font-size="14.00" fill="#815ac8">22  [when: kubeinit_submariner_is_secondary|bool]</text>
<links><link target="task_fcc3f565-74e4-4270-8087-34b3cd5c89a4"/></links></g>
<!-- task_3645a33b&#45;a259&#45;4486&#45;866a&#45;0ee6442ad6de -->
<g id="task_3645a33b-a259-4486-866a-0ee6442ad6de" class="node">
<title>task_3645a33b-a259-4486-866a-0ee6442ad6de</title>
<polygon fill="none" stroke="#000000" points="2070.9744,-214.5564 2070.9744,-229.4681 1921.4608,-240.0123 1710.0167,-240.0123 1560.5031,-229.4681 1560.5031,-214.5564 1710.0167,-204.0123 1921.4608,-204.0123 2070.9744,-214.5564"/>
<text text-anchor="middle" x="1815.7388" y="-218.3123" font-family="Times,serif" font-size="14.00" fill="#000000">[task] ../../roles/kubeinit_submariner : Join cluster to the broker</text>
</g>
<!-- Play #1: Main deployment playbook for integrating submariner (0)&#45;&gt;task_3645a33b&#45;a259&#45;4486&#45;866a&#45;0ee6442ad6de -->
<g id="edge_0ef3326a-de96-4097-8bbb-49b2e8e00f61" class="edge">
<title>Play #1: Main deployment playbook for integrating submariner (0)-&gt;task_3645a33b-a259-4486-866a-0ee6442ad6de</title>
<path fill="none" stroke="#815ac8" stroke-width="2" d="M456.5305,-716.7592C461.9435,-641.7204 493.576,-355.5313 664.9804,-240.0123 738.6126,-190.3874 1264.8183,-200.9995 1579.5946,-212.1219"/>
<polygon fill="#815ac8" stroke="#815ac8" stroke-width="2" points="1579.6551,-215.6262 1589.7733,-212.4843 1579.9042,-208.6306 1579.6551,-215.6262"/>
<text text-anchor="middle" x="1013.9804" y="-243.8123" font-family="Times,serif" font-size="14.00" fill="#815ac8">23  [when: kubeinit_submariner_is_broker|bool or kubeinit_submariner_is_secondary|bool]</text>
<links><link target="task_3645a33b-a259-4486-866a-0ee6442ad6de"/></links></g>
<!-- task_c3cf1c7f&#45;00d3&#45;4f9b&#45;a8f2&#45;9fd73fe42b14 -->
<g id="task_c3cf1c7f-00d3-4f9b-a8f2-9fd73fe42b14" class="node">
<title>task_c3cf1c7f-00d3-4f9b-a8f2-9fd73fe42b14</title>
<polygon fill="none" stroke="#000000" points="2040.974,-160.5564 2040.974,-175.4681 1909.0343,-186.0123 1722.4433,-186.0123 1590.5035,-175.4681 1590.5035,-160.5564 1722.4433,-150.0123 1909.0343,-150.0123 2040.974,-160.5564"/>
<text text-anchor="middle" x="1815.7388" y="-164.3123" font-family="Times,serif" font-size="14.00" fill="#000000">[task] ../../roles/kubeinit_submariner : Tag worker node</text>
</g>
<!-- Play #1: Main deployment playbook for integrating submariner (0)&#45;&gt;task_c3cf1c7f&#45;00d3&#45;4f9b&#45;a8f2&#45;9fd73fe42b14 -->
<g id="edge_4092afc1-9056-4f69-87e2-64c722ca13d2" class="edge">
<title>Play #1: Main deployment playbook for integrating submariner (0)-&gt;task_c3cf1c7f-00d3-4f9b-a8f2-9fd73fe42b14</title>
<path fill="none" stroke="#815ac8" stroke-width="2" d="M459.5274,-716.7831C479.4622,-628.7818 570.078,-249.4187 664.9804,-183.0123 739.779,-130.6731 1294.3086,-145.4213 1605.4588,-158.1427"/>
<polygon fill="#815ac8" stroke="#815ac8" stroke-width="2" points="1605.3725,-161.642 1615.508,-158.5563 1605.6604,-154.6479 1605.3725,-161.642"/>
<text text-anchor="middle" x="1013.9804" y="-186.8123" font-family="Times,serif" font-size="14.00" fill="#815ac8">24  [when: kubeinit_submariner_is_broker|bool or kubeinit_submariner_is_secondary|bool]</text>
<links><link target="task_c3cf1c7f-00d3-4f9b-a8f2-9fd73fe42b14"/></links></g>
<!-- task_81fe5232&#45;d48f&#45;41c9&#45;8566&#45;3cd11385412f -->
<g id="task_81fe5232-d48f-41c9-8566-3cd11385412f" class="node">
<title>task_81fe5232-d48f-41c9-8566-3cd11385412f</title>
<polygon fill="none" stroke="#000000" points="2075.8234,-106.5564 2075.8234,-121.4681 1923.4693,-132.0123 1708.0082,-132.0123 1555.6541,-121.4681 1555.6541,-106.5564 1708.0082,-96.0123 1923.4693,-96.0123 2075.8234,-106.5564"/>
<text text-anchor="middle" x="1815.7388" y="-110.3123" font-family="Times,serif" font-size="14.00" fill="#000000">[task] ../../roles/kubeinit_submariner : Render the netshoot script</text>
</g>
<!-- Play #1: Main deployment playbook for integrating submariner (0)&#45;&gt;task_81fe5232&#45;d48f&#45;41c9&#45;8566&#45;3cd11385412f -->
<g id="edge_c1ac791c-9eea-400e-8148-99345d594daa" class="edge">
<title>Play #1: Main deployment playbook for integrating submariner (0)-&gt;task_81fe5232-d48f-41c9-8566-3cd11385412f</title>
<path fill="none" stroke="#815ac8" stroke-width="2" d="M458.8628,-716.8469C476.6011,-623.7205 561.9998,-201.3316 664.9804,-127.0123 737.9545,-74.3481 1278.1962,-89.3732 1591.8501,-102.8956"/>
<polygon fill="#815ac8" stroke="#815ac8" stroke-width="2" points="1591.8445,-106.3985 1601.9869,-103.3355 1592.148,-99.4051 1591.8445,-106.3985"/>
<text text-anchor="middle" x="1013.9804" y="-130.8123" font-family="Times,serif" font-size="14.00" fill="#815ac8">25  [when: kubeinit_submariner_is_broker|bool or kubeinit_submariner_is_secondary|bool]</text>
<links><link target="task_81fe5232-d48f-41c9-8566-3cd11385412f"/></links></g>
<!-- task_079739d8&#45;a626&#45;4f03&#45;b15c&#45;2a2643b1fdfc -->
<g id="task_079739d8-a626-4f03-b15c-2a2643b1fdfc" class="node">
<title>task_079739d8-a626-4f03-b15c-2a2643b1fdfc</title>
<polygon fill="none" stroke="#000000" points="2076.7302,-52.5564 2076.7302,-67.4681 1923.845,-78.0123 1707.6326,-78.0123 1554.7473,-67.4681 1554.7473,-52.5564 1707.6326,-42.0123 1923.845,-42.0123 2076.7302,-52.5564"/>
<text text-anchor="middle" x="1815.7388" y="-56.3123" font-family="Times,serif" font-size="14.00" fill="#000000">[task] ../../roles/kubeinit_submariner : Verify cluster deployment</text>
</g>
<!-- Play #1: Main deployment playbook for integrating submariner (0)&#45;&gt;task_079739d8&#45;a626&#45;4f03&#45;b15c&#45;2a2643b1fdfc -->
<g id="edge_71c9a9d7-4336-4b15-84a2-b508651da117" class="edge">
<title>Play #1: Main deployment playbook for integrating submariner (0)-&gt;task_079739d8-a626-4f03-b15c-2a2643b1fdfc</title>
<path fill="none" stroke="#815ac8" stroke-width="2" d="M458.3194,-716.84C474.0526,-618.6916 553.8687,-153.2855 664.9804,-71.0123 821.8251,45.1241 1409.4574,-9.5891 1679.0351,-42.0241"/>
<polygon fill="#815ac8" stroke="#815ac8" stroke-width="2" points="1678.9267,-45.5364 1689.2749,-43.2638 1679.7681,-38.5872 1678.9267,-45.5364"/>
<text text-anchor="middle" x="1013.9804" y="-74.8123" font-family="Times,serif" font-size="14.00" fill="#815ac8">26  [when: kubeinit_submariner_is_secondary|bool]</text>
<links><link target="task_079739d8-a626-4f03-b15c-2a2643b1fdfc"/></links></g>
</g>
</svg>