<?xml version="1.0" encoding="UTF-8" standalone="no"?>
<!DOCTYPE svg PUBLIC "-//W3C//DTD SVG 1.1//EN"
 "http://www.w3.org/Graphics/SVG/1.1/DTD/svg11.dtd">
<!-- Generated by graphviz version 2.43.0 (0)
 -->
<!-- Title: kubeinit/playbook.yml  Pages: 1 -->
<svg width="2537pt" height="1467pt"
 viewBox="0.00 0.00 2537.49 1467.23" xmlns="http://www.w3.org/2000/svg" xmlns:xlink="http://www.w3.org/1999/xlink">
<g id="graph0" class="graph" transform="scale(1 1) rotate(0) translate(4 1463.23)">
<title>kubeinit/playbook.yml </title>
<polygon fill="white" stroke="transparent" points="-4,4 -4,-1463.23 2533.49,-1463.23 2533.49,4 -4,4"/>
<!-- kubeinit/playbook.yml -->
<g id="root_node" class="node">
<title>kubeinit/playbook.yml</title>
<ellipse fill="none" stroke="black" stroke-dasharray="1,5" cx="113.09" cy="-748.23" rx="113.18" ry="18"/>
<text text-anchor="middle" x="113.09" y="-744.53" font-family="Times,serif" font-size="14.00">kubeinit/playbook.yml</text>
</g>
<!-- task&#45;create&#45;network -->
<g id="play_ba91e561&#45;b1bd&#45;42b7&#45;8867&#45;110414274584" class="node">
<title>task&#45;create&#45;network</title>
<g id="a_play_ba91e561&#45;b1bd&#45;42b7&#45;8867&#45;110414274584"><a xlink:title="localhost">
<polygon fill="none" stroke="#000000" points="495.75,-740.77 495.75,-755.68 430.31,-766.23 337.76,-766.23 272.32,-755.68 272.32,-740.77 337.76,-730.23 430.31,-730.23 495.75,-740.77"/>
<text text-anchor="middle" x="384.04" y="-744.53" font-family="Times,serif" font-size="14.00" fill="#000000">task&#45;create&#45;network</text>
</a>
</g>
</g>
<!-- kubeinit/playbook.yml&#45;&gt;task&#45;create&#45;network -->
<g id="edge_2f16ea31&#45;c45b&#45;41c5&#45;8b3b&#45;a00340aa2dd3" class="edge">
<title>kubeinit/playbook.yml&#45;&gt;task&#45;create&#45;network</title>
<path fill="none" stroke="#000000" stroke-width="2" d="M226.2,-748.23C237.9,-748.23 249.84,-748.23 261.64,-748.23"/>
<polygon fill="#000000" stroke="#000000" stroke-width="2" points="261.97,-751.73 271.97,-748.23 261.97,-744.73 261.97,-751.73"/>
<text text-anchor="middle" x="249.18" y="-752.03" font-family="Times,serif" font-size="14.00" fill="#000000">3</text>
</g>
<!-- task_09e8d430&#45;ea22&#45;4ff3&#45;891f&#45;250f48213405 -->
<g id="task_09e8d430&#45;ea22&#45;4ff3&#45;891f&#45;250f48213405" class="node">
<title>task_09e8d430&#45;ea22&#45;4ff3&#45;891f&#45;250f48213405</title>
<g id="a_task_09e8d430&#45;ea22&#45;4ff3&#45;891f&#45;250f48213405"><a xlink:title="[task] kubeinit.kubeinit.kubeinit_libvirt : Install OVN central packages in CentOS/RHEL">
<polygon fill="none" stroke="black" points="2376.07,-1415.77 2376.07,-1430.68 2111.95,-1441.23 1738.43,-1441.23 1474.31,-1430.68 1474.31,-1415.77 1738.43,-1405.23 2111.95,-1405.23 2376.07,-1415.77"/>
<text text-anchor="middle" x="1925.19" y="-1419.53" font-family="Times,serif" font-size="14.00">[task] kubeinit.kubeinit.kubeinit_libvirt : Install OVN central packages in CentOS/RHEL</text>
</a>
</g>
</g>
<!-- task&#45;create&#45;network&#45;&gt;task_09e8d430&#45;ea22&#45;4ff3&#45;891f&#45;250f48213405 -->
<g id="edge_4fe34e94&#45;09d2&#45;4ff9&#45;a88f&#45;9f704ffc9033" class="edge">
<title>task&#45;create&#45;network&#45;&gt;task_09e8d430&#45;ea22&#45;4ff3&#45;891f&#45;250f48213405</title>
<path fill="none" stroke="#000000" stroke-width="2" d="M385.75,-766.26C389.94,-861.61 414.66,-1305.95 513.89,-1389.23 594.86,-1457.18 1207.98,-1448.95 1598.7,-1436.38"/>
<polygon fill="#000000" stroke="#000000" stroke-width="2" points="1598.87,-1439.87 1608.75,-1436.05 1598.65,-1432.88 1598.87,-1439.87"/>
<text text-anchor="middle" x="908.39" y="-1448.03" font-family="Times,serif" font-size="14.00" fill="#000000">1 &#160;[when: hostvars[kubeinit_ovn_central_host].distribution_family == &#39;CentOS&#39;]</text>
</g>
<!-- task_b9a42a08&#45;245b&#45;4e7f&#45;a282&#45;e17feb113bad -->
<g id="task_b9a42a08&#45;245b&#45;4e7f&#45;a282&#45;e17feb113bad" class="node">
<title>task_b9a42a08&#45;245b&#45;4e7f&#45;a282&#45;e17feb113bad</title>
<g id="a_task_b9a42a08&#45;245b&#45;4e7f&#45;a282&#45;e17feb113bad"><a xlink:title="[task] kubeinit.kubeinit.kubeinit_libvirt : Install OVN central packages in Fedora">
<polygon fill="none" stroke="black" points="2340.31,-1361.77 2340.31,-1376.68 2097.14,-1387.23 1753.24,-1387.23 1510.07,-1376.68 1510.07,-1361.77 1753.24,-1351.23 2097.14,-1351.23 2340.31,-1361.77"/>
<text text-anchor="middle" x="1925.19" y="-1365.53" font-family="Times,serif" font-size="14.00">[task] kubeinit.kubeinit.kubeinit_libvirt : Install OVN central packages in Fedora</text>
</a>
</g>
</g>
<!-- task&#45;create&#45;network&#45;&gt;task_b9a42a08&#45;245b&#45;4e7f&#45;a282&#45;e17feb113bad -->
<g id="edge_c813368c&#45;0ef7&#45;4cf2&#45;8393&#45;f96519177dff" class="edge">
<title>task&#45;create&#45;network&#45;&gt;task_b9a42a08&#45;245b&#45;4e7f&#45;a282&#45;e17feb113bad</title>
<path fill="none" stroke="#000000" stroke-width="2" d="M386.12,-766.52C391.94,-857.51 422.61,-1259.99 513.89,-1335.23 551.87,-1366.54 1098.42,-1371.93 1499.75,-1371.61"/>
<polygon fill="#000000" stroke="#000000" stroke-width="2" points="1499.8,-1375.11 1509.8,-1371.6 1499.8,-1368.11 1499.8,-1375.11"/>
<text text-anchor="middle" x="908.39" y="-1374.03" font-family="Times,serif" font-size="14.00" fill="#000000">2 &#160;[when: hostvars[kubeinit_ovn_central_host].distribution_family == &#39;Fedora&#39;]</text>
</g>
<!-- task_61aabdb7&#45;72c5&#45;4e97&#45;856b&#45;46ec6ff5b376 -->
<g id="task_61aabdb7&#45;72c5&#45;4e97&#45;856b&#45;46ec6ff5b376" class="node">
<title>task_61aabdb7&#45;72c5&#45;4e97&#45;856b&#45;46ec6ff5b376</title>
<g id="a_task_61aabdb7&#45;72c5&#45;4e97&#45;856b&#45;46ec6ff5b376"><a xlink:title="[task] kubeinit.kubeinit.kubeinit_libvirt : Install OVN central packages in Ubuntu/Debian">
<polygon fill="none" stroke="black" points="2381.82,-1307.77 2381.82,-1322.68 2114.33,-1333.23 1736.05,-1333.23 1468.56,-1322.68 1468.56,-1307.77 1736.05,-1297.23 2114.33,-1297.23 2381.82,-1307.77"/>
<text text-anchor="middle" x="1925.19" y="-1311.53" font-family="Times,serif" font-size="14.00">[task] kubeinit.kubeinit.kubeinit_libvirt : Install OVN central packages in Ubuntu/Debian</text>
</a>
</g>
</g>
<!-- task&#45;create&#45;network&#45;&gt;task_61aabdb7&#45;72c5&#45;4e97&#45;856b&#45;46ec6ff5b376 -->
<g id="edge_a83f6830&#45;0284&#45;4709&#45;b9c2&#45;44ee30ef6832" class="edge">
<title>task&#45;create&#45;network&#45;&gt;task_61aabdb7&#45;72c5&#45;4e97&#45;856b&#45;46ec6ff5b376</title>
<path fill="none" stroke="#000000" stroke-width="2" d="M386.53,-766.25C394,-851.61 430.35,-1213.83 513.89,-1281.23 550.89,-1311.08 1061.92,-1317.23 1458.29,-1317.44"/>
<polygon fill="#000000" stroke="#000000" stroke-width="2" points="1458.51,-1320.94 1468.51,-1317.45 1458.51,-1313.94 1458.51,-1320.94"/>
<text text-anchor="middle" x="908.39" y="-1320.03" font-family="Times,serif" font-size="14.00" fill="#000000">3 &#160;[when: hostvars[kubeinit_ovn_central_host].distribution_family == &#39;Debian&#39;]</text>
</g>
<!-- task_ea0e1b03&#45;d7b7&#45;49bf&#45;9afc&#45;6b4163d3159d -->
<g id="task_ea0e1b03&#45;d7b7&#45;49bf&#45;9afc&#45;6b4163d3159d" class="node">
<title>task_ea0e1b03&#45;d7b7&#45;49bf&#45;9afc&#45;6b4163d3159d</title>
<g id="a_task_ea0e1b03&#45;d7b7&#45;49bf&#45;9afc&#45;6b4163d3159d"><a xlink:title="[task] kubeinit.kubeinit.kubeinit_libvirt : Collect all HVs which are not the ovn&#45;central host">
<polygon fill="none" stroke="black" points="2392.84,-1253.77 2392.84,-1268.68 2118.9,-1279.23 1731.49,-1279.23 1457.55,-1268.68 1457.55,-1253.77 1731.49,-1243.23 2118.9,-1243.23 2392.84,-1253.77"/>
<text text-anchor="middle" x="1925.19" y="-1257.53" font-family="Times,serif" font-size="14.00">[task] kubeinit.kubeinit.kubeinit_libvirt : Collect all HVs which are not the ovn&#45;central host</text>
</a>
</g>
</g>
<!-- task&#45;create&#45;network&#45;&gt;task_ea0e1b03&#45;d7b7&#45;49bf&#45;9afc&#45;6b4163d3159d -->
<g id="edge_edf534d8&#45;c4cc&#45;4f64&#45;9a2b&#45;2185f199e763" class="edge">
<title>task&#45;create&#45;network&#45;&gt;task_ea0e1b03&#45;d7b7&#45;49bf&#45;9afc&#45;6b4163d3159d</title>
<path fill="none" stroke="#000000" stroke-width="2" d="M387.05,-766.28C396.37,-846.31 438.14,-1167.7 513.89,-1227.23 550.91,-1256.32 1052.48,-1262.73 1447.05,-1263.21"/>
<polygon fill="#000000" stroke="#000000" stroke-width="2" points="1447.22,-1266.71 1457.23,-1263.22 1447.23,-1259.71 1447.22,-1266.71"/>
<text text-anchor="middle" x="908.39" y="-1266.03" font-family="Times,serif" font-size="14.00" fill="#000000">4 &#160;[when: ovn_host not in kubeinit_ovn_central_host]</text>
</g>
<!-- task_f2a8ee59&#45;40a2&#45;4fef&#45;9d8e&#45;84b6cac60b6f -->
<g id="task_f2a8ee59&#45;40a2&#45;4fef&#45;9d8e&#45;84b6cac60b6f" class="node">
<title>task_f2a8ee59&#45;40a2&#45;4fef&#45;9d8e&#45;84b6cac60b6f</title>
<g id="a_task_f2a8ee59&#45;40a2&#45;4fef&#45;9d8e&#45;84b6cac60b6f"><a xlink:title="[task] kubeinit.kubeinit.kubeinit_libvirt : Install OVN host packages in CentOS/RHEL">
<polygon fill="none" stroke="black" points="2362.84,-1199.77 2362.84,-1214.68 2106.47,-1225.23 1743.91,-1225.23 1487.55,-1214.68 1487.55,-1199.77 1743.91,-1189.23 2106.47,-1189.23 2362.84,-1199.77"/>
<text text-anchor="middle" x="1925.19" y="-1203.53" font-family="Times,serif" font-size="14.00">[task] kubeinit.kubeinit.kubeinit_libvirt : Install OVN host packages in CentOS/RHEL</text>
</a>
</g>
</g>
<!-- task&#45;create&#45;network&#45;&gt;task_f2a8ee59&#45;40a2&#45;4fef&#45;9d8e&#45;84b6cac60b6f -->
<g id="edge_d714658b&#45;4bae&#45;434f&#45;a511&#45;25442457555f" class="edge">
<title>task&#45;create&#45;network&#45;&gt;task_f2a8ee59&#45;40a2&#45;4fef&#45;9d8e&#45;84b6cac60b6f</title>
<path fill="none" stroke="#000000" stroke-width="2" d="M387.68,-766.28C398.96,-840.71 445.7,-1122.37 513.89,-1174.23 552.32,-1203.46 1078.6,-1209.2 1477.08,-1209.3"/>
<polygon fill="#000000" stroke="#000000" stroke-width="2" points="1477.36,-1212.8 1487.36,-1209.3 1477.36,-1205.8 1477.36,-1212.8"/>
<text text-anchor="middle" x="908.39" y="-1212.03" font-family="Times,serif" font-size="14.00" fill="#000000">5 &#160;[when: hostvars[ovn_host].distribution_family == &#39;CentOS&#39;]</text>
</g>
<!-- task_4cb312a4&#45;29d9&#45;4416&#45;a3c8&#45;e2393ed87b2a -->
<g id="task_4cb312a4&#45;29d9&#45;4416&#45;a3c8&#45;e2393ed87b2a" class="node">
<title>task_4cb312a4&#45;29d9&#45;4416&#45;a3c8&#45;e2393ed87b2a</title>
<g id="a_task_4cb312a4&#45;29d9&#45;4416&#45;a3c8&#45;e2393ed87b2a"><a xlink:title="[task] kubeinit.kubeinit.kubeinit_libvirt : Install OVN host packages in Fedora">
<polygon fill="none" stroke="black" points="2326.17,-1145.77 2326.17,-1160.68 2091.28,-1171.23 1759.1,-1171.23 1524.21,-1160.68 1524.21,-1145.77 1759.1,-1135.23 2091.28,-1135.23 2326.17,-1145.77"/>
<text text-anchor="middle" x="1925.19" y="-1149.53" font-family="Times,serif" font-size="14.00">[task] kubeinit.kubeinit.kubeinit_libvirt : Install OVN host packages in Fedora</text>
</a>
</g>
</g>
<!-- task&#45;create&#45;network&#45;&gt;task_4cb312a4&#45;29d9&#45;4416&#45;a3c8&#45;e2393ed87b2a -->
<g id="edge_a8837a9a&#45;8ef2&#45;4c58&#45;9e62&#45;05c828defe6f" class="edge">
<title>task&#45;create&#45;network&#45;&gt;task_4cb312a4&#45;29d9&#45;4416&#45;a3c8&#45;e2393ed87b2a</title>
<path fill="none" stroke="#000000" stroke-width="2" d="M384.69,-766.41C384.62,-828.86 393.79,-1035.56 513.89,-1123.23 554.09,-1152.57 1112.02,-1156.74 1513.88,-1155.88"/>
<polygon fill="#000000" stroke="#000000" stroke-width="2" points="1513.94,-1159.38 1523.93,-1155.86 1513.92,-1152.38 1513.94,-1159.38"/>
<text text-anchor="middle" x="908.39" y="-1159.03" font-family="Times,serif" font-size="14.00" fill="#000000">6 &#160;[when: hostvars[ovn_host].distribution_family == &#39;Fedora&#39;]</text>
</g>
<!-- task_e1b37457&#45;f646&#45;4a69&#45;84be&#45;5a0d996317a9 -->
<g id="task_e1b37457&#45;f646&#45;4a69&#45;84be&#45;5a0d996317a9" class="node">
<title>task_e1b37457&#45;f646&#45;4a69&#45;84be&#45;5a0d996317a9</title>
<g id="a_task_e1b37457&#45;f646&#45;4a69&#45;84be&#45;5a0d996317a9"><a xlink:title="[task] kubeinit.kubeinit.kubeinit_libvirt : Install OVN host packages in Ubuntu/Debian">
<polygon fill="none" stroke="black" points="2367.68,-1091.77 2367.68,-1106.68 2108.48,-1117.23 1741.9,-1117.23 1482.7,-1106.68 1482.7,-1091.77 1741.9,-1081.23 2108.48,-1081.23 2367.68,-1091.77"/>
<text text-anchor="middle" x="1925.19" y="-1095.53" font-family="Times,serif" font-size="14.00">[task] kubeinit.kubeinit.kubeinit_libvirt : Install OVN host packages in Ubuntu/Debian</text>
</a>
</g>
</g>
<!-- task&#45;create&#45;network&#45;&gt;task_e1b37457&#45;f646&#45;4a69&#45;84be&#45;5a0d996317a9 -->
<g id="edge_c7f921c2&#45;6ae6&#45;469b&#45;8b2e&#45;d073ede29352" class="edge">
<title>task&#45;create&#45;network&#45;&gt;task_e1b37457&#45;f646&#45;4a69&#45;84be&#45;5a0d996317a9</title>
<path fill="none" stroke="#000000" stroke-width="2" d="M385.61,-766.25C388.54,-823.61 406.29,-1002.57 513.89,-1077.23 553.36,-1104.62 1074.6,-1106.69 1471.99,-1104.2"/>
<polygon fill="#000000" stroke="#000000" stroke-width="2" points="1472.26,-1107.69 1482.24,-1104.13 1472.21,-1100.69 1472.26,-1107.69"/>
<text text-anchor="middle" x="908.39" y="-1108.03" font-family="Times,serif" font-size="14.00" fill="#000000">7 &#160;[when: hostvars[ovn_host].distribution_family == &#39;Debian&#39;]</text>
</g>
<!-- task_fecf19d2&#45;ed7f&#45;4f4e&#45;a975&#45;65dfbafea37a -->
<g id="task_fecf19d2&#45;ed7f&#45;4f4e&#45;a975&#45;65dfbafea37a" class="node">
<title>task_fecf19d2&#45;ed7f&#45;4f4e&#45;a975&#45;65dfbafea37a</title>
<g id="a_task_fecf19d2&#45;ed7f&#45;4f4e&#45;a975&#45;65dfbafea37a"><a xlink:title="[task] kubeinit.kubeinit.kubeinit_libvirt : Refresh firewalld services list to pick up ovn services">
<polygon fill="none" stroke="black" points="2410.51,-1037.77 2410.51,-1052.68 2126.22,-1063.23 1724.16,-1063.23 1439.87,-1052.68 1439.87,-1037.77 1724.16,-1027.23 2126.22,-1027.23 2410.51,-1037.77"/>
<text text-anchor="middle" x="1925.19" y="-1041.53" font-family="Times,serif" font-size="14.00">[task] kubeinit.kubeinit.kubeinit_libvirt : Refresh firewalld services list to pick up ovn services</text>
</a>
</g>
</g>
<!-- task&#45;create&#45;network&#45;&gt;task_fecf19d2&#45;ed7f&#45;4f4e&#45;a975&#45;65dfbafea37a -->
<g id="edge_394d5787&#45;37e0&#45;4f98&#45;a7be&#45;da6336d1aec2" class="edge">
<title>task&#45;create&#45;network&#45;&gt;task_fecf19d2&#45;ed7f&#45;4f4e&#45;a975&#45;65dfbafea37a</title>
<path fill="none" stroke="#000000" stroke-width="2" d="M387.43,-766.26C395.1,-816.07 424.12,-955.63 513.89,-1013.23 598.08,-1067.24 1149.12,-1065.35 1536.9,-1056.91"/>
<polygon fill="#000000" stroke="#000000" stroke-width="2" points="1537.26,-1060.4 1547.18,-1056.68 1537.11,-1053.4 1537.26,-1060.4"/>
<text text-anchor="middle" x="908.39" y="-1065.03" font-family="Times,serif" font-size="14.00" fill="#000000">8 &#160;[when: hostvars[ovn_host].firewalld_is_active]</text>
</g>
<!-- task_75b5376e&#45;6a00&#45;40de&#45;a360&#45;3cf3e1edd938 -->
<g id="task_75b5376e&#45;6a00&#45;40de&#45;a360&#45;3cf3e1edd938" class="node">
<title>task_75b5376e&#45;6a00&#45;40de&#45;a360&#45;3cf3e1edd938</title>
<g id="a_task_75b5376e&#45;6a00&#45;40de&#45;a360&#45;3cf3e1edd938"><a xlink:title="[task] kubeinit.kubeinit.kubeinit_libvirt : Enable OVN central in firewalld">
<polygon fill="none" stroke="black" points="2302.33,-983.77 2302.33,-998.68 2081.41,-1009.23 1768.97,-1009.23 1548.05,-998.68 1548.05,-983.77 1768.97,-973.23 2081.41,-973.23 2302.33,-983.77"/>
<text text-anchor="middle" x="1925.19" y="-987.53" font-family="Times,serif" font-size="14.00">[task] kubeinit.kubeinit.kubeinit_libvirt : Enable OVN central in firewalld</text>
</a>
</g>
</g>
<!-- task&#45;create&#45;network&#45;&gt;task_75b5376e&#45;6a00&#45;40de&#45;a360&#45;3cf3e1edd938 -->
<g id="edge_700d717f&#45;192f&#45;4eff&#45;966b&#45;96da9d912af6" class="edge">
<title>task&#45;create&#45;network&#45;&gt;task_75b5376e&#45;6a00&#45;40de&#45;a360&#45;3cf3e1edd938</title>
<path fill="none" stroke="#000000" stroke-width="2" d="M389.26,-766.46C400.56,-810.58 436.11,-922.8 513.89,-968.23 557.68,-993.81 1135.47,-995.91 1537.74,-994.21"/>
<polygon fill="#000000" stroke="#000000" stroke-width="2" points="1537.82,-997.71 1547.8,-994.17 1537.79,-990.71 1537.82,-997.71"/>
<text text-anchor="middle" x="908.39" y="-998.03" font-family="Times,serif" font-size="14.00" fill="#000000">9 &#160;[when: hostvars[kubeinit_ovn_central_host].firewalld_is_active]</text>
</g>
<!-- task_28aafc6b&#45;5b10&#45;4b40&#45;9e5f&#45;c5d4d9e43941 -->
<g id="task_28aafc6b&#45;5b10&#45;4b40&#45;9e5f&#45;c5d4d9e43941" class="node">
<title>task_28aafc6b&#45;5b10&#45;4b40&#45;9e5f&#45;c5d4d9e43941</title>
<g id="a_task_28aafc6b&#45;5b10&#45;4b40&#45;9e5f&#45;c5d4d9e43941"><a xlink:title="[task] kubeinit.kubeinit.kubeinit_libvirt : Enable OVN NAT in firewalld">
<polygon fill="none" stroke="black" points="2288.19,-929.77 2288.19,-944.68 2075.55,-955.23 1774.83,-955.23 1562.19,-944.68 1562.19,-929.77 1774.83,-919.23 2075.55,-919.23 2288.19,-929.77"/>
<text text-anchor="middle" x="1925.19" y="-933.53" font-family="Times,serif" font-size="14.00">[task] kubeinit.kubeinit.kubeinit_libvirt : Enable OVN NAT in firewalld</text>
</a>
</g>
</g>
<!-- task&#45;create&#45;network&#45;&gt;task_28aafc6b&#45;5b10&#45;4b40&#45;9e5f&#45;c5d4d9e43941 -->
<g id="edge_c3317309&#45;4f12&#45;49e6&#45;b392&#45;6742da81baec" class="edge">
<title>task&#45;create&#45;network&#45;&gt;task_28aafc6b&#45;5b10&#45;4b40&#45;9e5f&#45;c5d4d9e43941</title>
<path fill="none" stroke="#000000" stroke-width="2" d="M392.96,-766.31C409.5,-801.5 451.43,-878.45 513.89,-909.23 605.95,-954.59 1182.2,-952.55 1569.03,-945.74"/>
<polygon fill="#000000" stroke="#000000" stroke-width="2" points="1569.34,-949.23 1579.27,-945.56 1569.21,-942.23 1569.34,-949.23"/>
<text text-anchor="middle" x="908.39" y="-953.03" font-family="Times,serif" font-size="14.00" fill="#000000">10 &#160;[when: hostvars[kubeinit_ovn_central_host].firewalld_is_active]</text>
</g>
<!-- task_ddea236d&#45;78f5&#45;403b&#45;ab38&#45;d432ab230fab -->
<g id="task_ddea236d&#45;78f5&#45;403b&#45;ab38&#45;d432ab230fab" class="node">
<title>task_ddea236d&#45;78f5&#45;403b&#45;ab38&#45;d432ab230fab</title>
<g id="a_task_ddea236d&#45;78f5&#45;403b&#45;ab38&#45;d432ab230fab"><a xlink:title="[task] kubeinit.kubeinit.kubeinit_libvirt : Enable OVN host in firewalld">
<polygon fill="none" stroke="black" points="2289.1,-875.77 2289.1,-890.68 2075.93,-901.23 1774.45,-901.23 1561.28,-890.68 1561.28,-875.77 1774.45,-865.23 2075.93,-865.23 2289.1,-875.77"/>
<text text-anchor="middle" x="1925.19" y="-879.53" font-family="Times,serif" font-size="14.00">[task] kubeinit.kubeinit.kubeinit_libvirt : Enable OVN host in firewalld</text>
</a>
</g>
</g>
<!-- task&#45;create&#45;network&#45;&gt;task_ddea236d&#45;78f5&#45;403b&#45;ab38&#45;d432ab230fab -->
<g id="edge_707371f7&#45;1acb&#45;4cad&#45;8250&#45;0815d51eaaae" class="edge">
<title>task&#45;create&#45;network&#45;&gt;task_ddea236d&#45;78f5&#45;403b&#45;ab38&#45;d432ab230fab</title>
<path fill="none" stroke="#000000" stroke-width="2" d="M399.35,-766.26C420.97,-791.89 464.69,-837.8 513.89,-856.23 608.4,-891.63 1166,-892.63 1551.09,-888.86"/>
<polygon fill="#000000" stroke="#000000" stroke-width="2" points="1551.33,-892.36 1561.29,-888.76 1551.26,-885.36 1551.33,-892.36"/>
<text text-anchor="middle" x="908.39" y="-894.03" font-family="Times,serif" font-size="14.00" fill="#000000">11 &#160;[when: hostvars[ovn_host].firewalld_is_active]</text>
</g>
<!-- task_2c06ae2a&#45;87ed&#45;4a04&#45;8a4a&#45;327441036d5c -->
<g id="task_2c06ae2a&#45;87ed&#45;4a04&#45;8a4a&#45;327441036d5c" class="node">
<title>task_2c06ae2a&#45;87ed&#45;4a04&#45;8a4a&#45;327441036d5c</title>
<g id="a_task_2c06ae2a&#45;87ed&#45;4a04&#45;8a4a&#45;327441036d5c"><a xlink:title="[task] kubeinit.kubeinit.kubeinit_libvirt : Refresh firewalld services list">
<polygon fill="none" stroke="black" points="2292.64,-821.77 2292.64,-836.68 2077.39,-847.23 1772.99,-847.23 1557.74,-836.68 1557.74,-821.77 1772.99,-811.23 2077.39,-811.23 2292.64,-821.77"/>
<text text-anchor="middle" x="1925.19" y="-825.53" font-family="Times,serif" font-size="14.00">[task] kubeinit.kubeinit.kubeinit_libvirt : Refresh firewalld services list</text>
</a>
</g>
</g>
<!-- task&#45;create&#45;network&#45;&gt;task_2c06ae2a&#45;87ed&#45;4a04&#45;8a4a&#45;327441036d5c -->
<g id="edge_5c781aaa&#45;0ba4&#45;4c26&#45;87b0&#45;00844f46bd56" class="edge">
<title>task&#45;create&#45;network&#45;&gt;task_2c06ae2a&#45;87ed&#45;4a04&#45;8a4a&#45;327441036d5c</title>
<path fill="none" stroke="#000000" stroke-width="2" d="M438.08,-765.1C461.13,-771.68 488.6,-778.52 513.89,-782.23 880.54,-836.01 1306.31,-842.64 1593.3,-839.07"/>
<polygon fill="#000000" stroke="#000000" stroke-width="2" points="1593.5,-842.57 1603.45,-838.94 1593.41,-835.57 1593.5,-842.57"/>
<text text-anchor="middle" x="908.39" y="-841.03" font-family="Times,serif" font-size="14.00" fill="#000000">12 &#160;[when: hostvars[ovn_host].firewalld_is_active]</text>
</g>
<!-- task_0dfdc39a&#45;2335&#45;4b82&#45;9845&#45;ebe03d9f281a -->
<g id="task_0dfdc39a&#45;2335&#45;4b82&#45;9845&#45;ebe03d9f281a" class="node">
<title>task_0dfdc39a&#45;2335&#45;4b82&#45;9845&#45;ebe03d9f281a</title>
<g id="a_task_0dfdc39a&#45;2335&#45;4b82&#45;9845&#45;ebe03d9f281a"><a xlink:title="[task] kubeinit.kubeinit.kubeinit_libvirt : Enable and start OVN services in the ovn&#45;central hypervisor (CentOS based)">
<polygon fill="none" stroke="black" points="2527.98,-767.77 2527.98,-782.68 2174.87,-793.23 1675.51,-793.23 1322.4,-782.68 1322.4,-767.77 1675.51,-757.23 2174.87,-757.23 2527.98,-767.77"/>
<text text-anchor="middle" x="1925.19" y="-771.53" font-family="Times,serif" font-size="14.00">[task] kubeinit.kubeinit.kubeinit_libvirt : Enable and start OVN services in the ovn&#45;central hypervisor (CentOS based)</text>
</a>
</g>
</g>
<!-- task&#45;create&#45;network&#45;&gt;task_0dfdc39a&#45;2335&#45;4b82&#45;9845&#45;ebe03d9f281a -->
<g id="edge_5a4023bf&#45;b230&#45;4ef4&#45;b8ee&#45;4fc096997662" class="edge">
<title>task&#45;create&#45;network&#45;&gt;task_0dfdc39a&#45;2335&#45;4b82&#45;9845&#45;ebe03d9f281a</title>
<path fill="none" stroke="#000000" stroke-width="2" d="M496.04,-750.18C679.2,-753.39 1056.42,-760.01 1377.19,-765.63"/>
<polygon fill="#000000" stroke="#000000" stroke-width="2" points="1377.56,-769.14 1387.62,-765.82 1377.68,-762.14 1377.56,-769.14"/>
<text text-anchor="middle" x="908.39" y="-767.03" font-family="Times,serif" font-size="14.00" fill="#000000">13 &#160;[when: hostvars[kubeinit_ovn_central_host].distribution_family != &#39;Debian&#39;]</text>
</g>
<!-- task_567ddc19&#45;3690&#45;4b81&#45;a5d9&#45;260a102729b5 -->
<g id="task_567ddc19&#45;3690&#45;4b81&#45;a5d9&#45;260a102729b5" class="node">
<title>task_567ddc19&#45;3690&#45;4b81&#45;a5d9&#45;260a102729b5</title>
<g id="a_task_567ddc19&#45;3690&#45;4b81&#45;a5d9&#45;260a102729b5"><a xlink:title="[task] kubeinit.kubeinit.kubeinit_libvirt : Enable and start OVN services in the rest of the hypervisors (CentOS based)">
<polygon fill="none" stroke="black" points="2529.29,-713.77 2529.29,-728.68 2175.42,-739.23 1674.96,-739.23 1321.09,-728.68 1321.09,-713.77 1674.96,-703.23 2175.42,-703.23 2529.29,-713.77"/>
<text text-anchor="middle" x="1925.19" y="-717.53" font-family="Times,serif" font-size="14.00">[task] kubeinit.kubeinit.kubeinit_libvirt : Enable and start OVN services in the rest of the hypervisors (CentOS based)</text>
</a>
</g>
</g>
<!-- task&#45;create&#45;network&#45;&gt;task_567ddc19&#45;3690&#45;4b81&#45;a5d9&#45;260a102729b5 -->
<g id="edge_319ad5b8&#45;0719&#45;465c&#45;8a6f&#45;50e8c0394e5b" class="edge">
<title>task&#45;create&#45;network&#45;&gt;task_567ddc19&#45;3690&#45;4b81&#45;a5d9&#45;260a102729b5</title>
<path fill="none" stroke="#000000" stroke-width="2" d="M466.33,-735.95C482.08,-734.01 498.47,-732.3 513.89,-731.23 821.07,-709.96 1166.79,-707.17 1439.05,-709.84"/>
<polygon fill="#000000" stroke="#000000" stroke-width="2" points="1439.07,-713.34 1449.11,-709.94 1439.14,-706.34 1439.07,-713.34"/>
<text text-anchor="middle" x="908.39" y="-735.03" font-family="Times,serif" font-size="14.00" fill="#000000">14 &#160;[when: hostvars[ovn_host].distribution_family != &#39;Debian&#39;]</text>
</g>
<!-- task_19db4cd0&#45;20d7&#45;4061&#45;8a7f&#45;102ace0883f6 -->
<g id="task_19db4cd0&#45;20d7&#45;4061&#45;8a7f&#45;102ace0883f6" class="node">
<title>task_19db4cd0&#45;20d7&#45;4061&#45;8a7f&#45;102ace0883f6</title>
<g id="a_task_19db4cd0&#45;20d7&#45;4061&#45;8a7f&#45;102ace0883f6"><a xlink:title="[task] kubeinit.kubeinit.kubeinit_libvirt : Enable and start OVN services in the ovn&#45;central hypervisor (Ubuntu based)">
<polygon fill="none" stroke="black" points="2527.98,-659.77 2527.98,-674.68 2174.87,-685.23 1675.51,-685.23 1322.4,-674.68 1322.4,-659.77 1675.51,-649.23 2174.87,-649.23 2527.98,-659.77"/>
<text text-anchor="middle" x="1925.19" y="-663.53" font-family="Times,serif" font-size="14.00">[task] kubeinit.kubeinit.kubeinit_libvirt : Enable and start OVN services in the ovn&#45;central hypervisor (Ubuntu based)</text>
</a>
</g>
</g>
<!-- task&#45;create&#45;network&#45;&gt;task_19db4cd0&#45;20d7&#45;4061&#45;8a7f&#45;102ace0883f6 -->
<g id="edge_81ed8eff&#45;cc14&#45;4e49&#45;bea2&#45;43d0a2f19b07" class="edge">
<title>task&#45;create&#45;network&#45;&gt;task_19db4cd0&#45;20d7&#45;4061&#45;8a7f&#45;102ace0883f6</title>
<path fill="none" stroke="#000000" stroke-width="2" d="M415.01,-730.16C440.35,-715.98 478.13,-697.32 513.89,-689.23 691.79,-648.98 1140.2,-648.13 1484.05,-654.44"/>
<polygon fill="#000000" stroke="#000000" stroke-width="2" points="1484.13,-657.95 1494.19,-654.63 1484.26,-650.95 1484.13,-657.95"/>
<text text-anchor="middle" x="908.39" y="-693.03" font-family="Times,serif" font-size="14.00" fill="#000000">15 &#160;[when: hostvars[kubeinit_ovn_central_host].distribution_family == &#39;Debian&#39;]</text>
</g>
<!-- task_a44570d8&#45;ebd4&#45;41ad&#45;92cb&#45;a5c65c624531 -->
<g id="task_a44570d8&#45;ebd4&#45;41ad&#45;92cb&#45;a5c65c624531" class="node">
<title>task_a44570d8&#45;ebd4&#45;41ad&#45;92cb&#45;a5c65c624531</title>
<g id="a_task_a44570d8&#45;ebd4&#45;41ad&#45;92cb&#45;a5c65c624531"><a xlink:title="[task] kubeinit.kubeinit.kubeinit_libvirt : Enable and start OVN services in the rest of the hypervisors (Ubuntu based)">
<polygon fill="none" stroke="black" points="2528.88,-605.77 2528.88,-620.68 2175.25,-631.23 1675.13,-631.23 1321.5,-620.68 1321.5,-605.77 1675.13,-595.23 2175.25,-595.23 2528.88,-605.77"/>
<text text-anchor="middle" x="1925.19" y="-609.53" font-family="Times,serif" font-size="14.00">[task] kubeinit.kubeinit.kubeinit_libvirt : Enable and start OVN services in the rest of the hypervisors (Ubuntu based)</text>
</a>
</g>
</g>
<!-- task&#45;create&#45;network&#45;&gt;task_a44570d8&#45;ebd4&#45;41ad&#45;92cb&#45;a5c65c624531 -->
<g id="edge_37fa4dfb&#45;41fe&#45;4820&#45;a02f&#45;e430a3843094" class="edge">
<title>task&#45;create&#45;network&#45;&gt;task_a44570d8&#45;ebd4&#45;41ad&#45;92cb&#45;a5c65c624531</title>
<path fill="none" stroke="#000000" stroke-width="2" d="M397.98,-730.21C418.79,-702.96 462.6,-652.31 513.89,-632.23 596.96,-599.7 1042.49,-598.05 1410.88,-602.66"/>
<polygon fill="#000000" stroke="#000000" stroke-width="2" points="1410.89,-606.16 1420.94,-602.79 1410.98,-599.16 1410.89,-606.16"/>
<text text-anchor="middle" x="908.39" y="-636.03" font-family="Times,serif" font-size="14.00" fill="#000000">16 &#160;[when: hostvars[ovn_host].distribution_family == &#39;Debian&#39;]</text>
</g>
<!-- task_02fa939f&#45;5f29&#45;4a7a&#45;836e&#45;cf3a06ed52fc -->
<g id="task_02fa939f&#45;5f29&#45;4a7a&#45;836e&#45;cf3a06ed52fc" class="node">
<title>task_02fa939f&#45;5f29&#45;4a7a&#45;836e&#45;cf3a06ed52fc</title>
<g id="a_task_02fa939f&#45;5f29&#45;4a7a&#45;836e&#45;cf3a06ed52fc"><a xlink:title="[task] kubeinit.kubeinit.kubeinit_libvirt : Configure OVS on the Hypervisors">
<polygon fill="none" stroke="black" points="2316.47,-551.77 2316.47,-566.68 2087.27,-577.23 1763.12,-577.23 1533.91,-566.68 1533.91,-551.77 1763.12,-541.23 2087.27,-541.23 2316.47,-551.77"/>
<text text-anchor="middle" x="1925.19" y="-555.53" font-family="Times,serif" font-size="14.00">[task] kubeinit.kubeinit.kubeinit_libvirt : Configure OVS on the Hypervisors</text>
</a>
</g>
</g>
<!-- task&#45;create&#45;network&#45;&gt;task_02fa939f&#45;5f29&#45;4a7a&#45;836e&#45;cf3a06ed52fc -->
<g id="edge_61dc193d&#45;3120&#45;496a&#45;b896&#45;ac3ac949245d" class="edge">
<title>task&#45;create&#45;network&#45;&gt;task_02fa939f&#45;5f29&#45;4a7a&#45;836e&#45;cf3a06ed52fc</title>
<path fill="none" stroke="#000000" stroke-width="2" d="M392.5,-730.03C408.49,-693.78 449.89,-613.31 513.89,-581.23 606.32,-534.9 1190.53,-540.12 1577.46,-549.04"/>
<polygon fill="#000000" stroke="#000000" stroke-width="2" points="1577.63,-552.55 1587.71,-549.28 1577.79,-545.55 1577.63,-552.55"/>
<text text-anchor="middle" x="908.39" y="-585.03" font-family="Times,serif" font-size="14.00" fill="#000000">17</text>
</g>
<!-- task_86d59c98&#45;5780&#45;4aa5&#45;8a13&#45;17423e3899f0 -->
<g id="task_86d59c98&#45;5780&#45;4aa5&#45;8a13&#45;17423e3899f0" class="node">
<title>task_86d59c98&#45;5780&#45;4aa5&#45;8a13&#45;17423e3899f0</title>
<g id="a_task_86d59c98&#45;5780&#45;4aa5&#45;8a13&#45;17423e3899f0"><a xlink:title="[task] kubeinit.kubeinit.kubeinit_libvirt : Configure OVN in the ovn&#45;central hypervisor">
<polygon fill="none" stroke="black" points="2367.68,-497.77 2367.68,-512.68 2108.48,-523.23 1741.9,-523.23 1482.7,-512.68 1482.7,-497.77 1741.9,-487.23 2108.48,-487.23 2367.68,-497.77"/>
<text text-anchor="middle" x="1925.19" y="-501.53" font-family="Times,serif" font-size="14.00">[task] kubeinit.kubeinit.kubeinit_libvirt : Configure OVN in the ovn&#45;central hypervisor</text>
</a>
</g>
</g>
<!-- task&#45;create&#45;network&#45;&gt;task_86d59c98&#45;5780&#45;4aa5&#45;8a13&#45;17423e3899f0 -->
<g id="edge_d1454ac4&#45;4f3d&#45;4309&#45;b887&#45;9f18133cff7e" class="edge">
<title>task&#45;create&#45;network&#45;&gt;task_86d59c98&#45;5780&#45;4aa5&#45;8a13&#45;17423e3899f0</title>
<path fill="none" stroke="#000000" stroke-width="2" d="M389.03,-729.91C399.91,-685.02 434.74,-569.79 513.89,-523.23 604.44,-469.97 1207.29,-480.02 1594.94,-492.44"/>
<polygon fill="#000000" stroke="#000000" stroke-width="2" points="1595.09,-495.95 1605.2,-492.77 1595.32,-488.95 1595.09,-495.95"/>
<text text-anchor="middle" x="908.39" y="-527.03" font-family="Times,serif" font-size="14.00" fill="#000000">18</text>
</g>
<!-- task_6e6e0056&#45;1530&#45;4b12&#45;821f&#45;264fe3ec4258 -->
<g id="task_6e6e0056&#45;1530&#45;4b12&#45;821f&#45;264fe3ec4258" class="node">
<title>task_6e6e0056&#45;1530&#45;4b12&#45;821f&#45;264fe3ec4258</title>
<g id="a_task_6e6e0056&#45;1530&#45;4b12&#45;821f&#45;264fe3ec4258"><a xlink:title="[task] kubeinit.kubeinit.kubeinit_libvirt : Remove and create the cluster switch if exists">
<polygon fill="none" stroke="black" points="2376.07,-443.77 2376.07,-458.68 2111.95,-469.23 1738.43,-469.23 1474.31,-458.68 1474.31,-443.77 1738.43,-433.23 2111.95,-433.23 2376.07,-443.77"/>
<text text-anchor="middle" x="1925.19" y="-447.53" font-family="Times,serif" font-size="14.00">[task] kubeinit.kubeinit.kubeinit_libvirt : Remove and create the cluster switch if exists</text>
</a>
</g>
</g>
<!-- task&#45;create&#45;network&#45;&gt;task_6e6e0056&#45;1530&#45;4b12&#45;821f&#45;264fe3ec4258 -->
<g id="edge_18c55f35&#45;7c70&#45;4c1d&#45;9e2e&#45;4085d2d970e2" class="edge">
<title>task&#45;create&#45;network&#45;&gt;task_6e6e0056&#45;1530&#45;4b12&#45;821f&#45;264fe3ec4258</title>
<path fill="none" stroke="#000000" stroke-width="2" d="M386.77,-729.96C392.84,-677.38 418.34,-525.47 513.89,-463.23 604.32,-404.32 1239.14,-420.86 1625.59,-436.87"/>
<polygon fill="#000000" stroke="#000000" stroke-width="2" points="1625.68,-440.38 1635.81,-437.29 1625.97,-433.38 1625.68,-440.38"/>
<text text-anchor="middle" x="908.39" y="-467.03" font-family="Times,serif" font-size="14.00" fill="#000000">19 &#160;[when: kubeinit_libvirt_destroy_nets|bool and not kubeinit_libvirt_multicluster_keep_predefined_networks]</text>
</g>
<!-- task_9591ecff&#45;69e9&#45;450d&#45;8bd3&#45;65fc9c7eb6b4 -->
<g id="task_9591ecff&#45;69e9&#45;450d&#45;8bd3&#45;65fc9c7eb6b4" class="node">
<title>task_9591ecff&#45;69e9&#45;450d&#45;8bd3&#45;65fc9c7eb6b4</title>
<g id="a_task_9591ecff&#45;69e9&#45;450d&#45;8bd3&#45;65fc9c7eb6b4"><a xlink:title="[task] kubeinit.kubeinit.kubeinit_libvirt : Create OVS/OVN bindings for the VMs ports">
<polygon fill="none" stroke="black" points="2366.37,-389.77 2366.37,-404.68 2107.93,-415.23 1742.45,-415.23 1484.01,-404.68 1484.01,-389.77 1742.45,-379.23 2107.93,-379.23 2366.37,-389.77"/>
<text text-anchor="middle" x="1925.19" y="-393.53" font-family="Times,serif" font-size="14.00">[task] kubeinit.kubeinit.kubeinit_libvirt : Create OVS/OVN bindings for the VMs ports</text>
</a>
</g>
</g>
<!-- task&#45;create&#45;network&#45;&gt;task_9591ecff&#45;69e9&#45;450d&#45;8bd3&#45;65fc9c7eb6b4 -->
<g id="edge_fe2a21db&#45;e76b&#45;4dd7&#45;9f60&#45;b7d9ed58e9f6" class="edge">
<title>task&#45;create&#45;network&#45;&gt;task_9591ecff&#45;69e9&#45;450d&#45;8bd3&#45;65fc9c7eb6b4</title>
<path fill="none" stroke="#000000" stroke-width="2" d="M385.2,-730.1C386.86,-670.64 401.11,-480.87 513.89,-402.23 555.02,-373.55 1121,-379.53 1523.28,-387.55"/>
<polygon fill="#000000" stroke="#000000" stroke-width="2" points="1523.28,-391.05 1533.35,-387.75 1523.42,-384.05 1523.28,-391.05"/>
<text text-anchor="middle" x="908.39" y="-406.03" font-family="Times,serif" font-size="14.00" fill="#000000">20</text>
</g>
<!-- task_6a8409a8&#45;5a8f&#45;4e83&#45;be8b&#45;0cdc79a881ff -->
<g id="task_6a8409a8&#45;5a8f&#45;4e83&#45;be8b&#45;0cdc79a881ff" class="node">
<title>task_6a8409a8&#45;5a8f&#45;4e83&#45;be8b&#45;0cdc79a881ff</title>
<g id="a_task_6a8409a8&#45;5a8f&#45;4e83&#45;be8b&#45;0cdc79a881ff"><a xlink:title="[task] kubeinit.kubeinit.kubeinit_libvirt : Configuring a router connected to the guests switch">
<polygon fill="none" stroke="black" points="2405.66,-335.77 2405.66,-350.68 2124.21,-361.23 1726.17,-361.23 1444.72,-350.68 1444.72,-335.77 1726.17,-325.23 2124.21,-325.23 2405.66,-335.77"/>
<text text-anchor="middle" x="1925.19" y="-339.53" font-family="Times,serif" font-size="14.00">[task] kubeinit.kubeinit.kubeinit_libvirt : Configuring a router connected to the guests switch</text>
</a>
</g>
</g>
<!-- task&#45;create&#45;network&#45;&gt;task_6a8409a8&#45;5a8f&#45;4e83&#45;be8b&#45;0cdc79a881ff -->
<g id="edge_2833483c&#45;d8ca&#45;4678&#45;bd25&#45;e1ad1fd89542" class="edge">
<title>task&#45;create&#45;network&#45;&gt;task_6a8409a8&#45;5a8f&#45;4e83&#45;be8b&#45;0cdc79a881ff</title>
<path fill="none" stroke="#000000" stroke-width="2" d="M384.45,-729.89C383.53,-665.93 390.11,-451.68 513.89,-361.23 600.42,-298 1228.18,-312.83 1616.43,-328.53"/>
<polygon fill="#000000" stroke="#000000" stroke-width="2" points="1616.57,-332.04 1626.7,-328.95 1616.85,-325.04 1616.57,-332.04"/>
<text text-anchor="middle" x="908.39" y="-365.03" font-family="Times,serif" font-size="14.00" fill="#000000">21</text>
</g>
<!-- task_33176b2a&#45;7df9&#45;444b&#45;bb11&#45;83fa192776b6 -->
<g id="task_33176b2a&#45;7df9&#45;444b&#45;bb11&#45;83fa192776b6" class="node">
<title>task_33176b2a&#45;7df9&#45;444b&#45;bb11&#45;83fa192776b6</title>
<g id="a_task_33176b2a&#45;7df9&#45;444b&#45;bb11&#45;83fa192776b6"><a xlink:title="[task] kubeinit.kubeinit.kubeinit_libvirt : Configuring NAT">
<polygon fill="none" stroke="black" points="2226.38,-281.77 2226.38,-296.68 2049.95,-307.23 1800.43,-307.23 1624,-296.68 1624,-281.77 1800.43,-271.23 2049.95,-271.23 2226.38,-281.77"/>
<text text-anchor="middle" x="1925.19" y="-285.53" font-family="Times,serif" font-size="14.00">[task] kubeinit.kubeinit.kubeinit_libvirt : Configuring NAT</text>
</a>
</g>
</g>
<!-- task&#45;create&#45;network&#45;&gt;task_33176b2a&#45;7df9&#45;444b&#45;bb11&#45;83fa192776b6 -->
<g id="edge_d4d98e0e&#45;1ea8&#45;448e&#45;b3d3&#45;c91b265ffcf1" class="edge">
<title>task&#45;create&#45;network&#45;&gt;task_33176b2a&#45;7df9&#45;444b&#45;bb11&#45;83fa192776b6</title>
<path fill="none" stroke="#000000" stroke-width="2" d="M387.32,-730.07C397.49,-652.49 441.34,-350.27 513.89,-295.23 557.12,-262.44 1216.69,-272.18 1618.31,-281.28"/>
<polygon fill="#000000" stroke="#000000" stroke-width="2" points="1618.27,-284.78 1628.34,-281.51 1618.43,-277.78 1618.27,-284.78"/>
<text text-anchor="middle" x="908.39" y="-299.03" font-family="Times,serif" font-size="14.00" fill="#000000">22 &#160;[when: not hostvars[kubeinit_ovn_central_host].firewalld_is_active]</text>
</g>
<!-- task_6c4858c5&#45;2090&#45;4f8f&#45;88d8&#45;e91e60ec03c2 -->
<g id="task_6c4858c5&#45;2090&#45;4f8f&#45;88d8&#45;e91e60ec03c2" class="node">
<title>task_6c4858c5&#45;2090&#45;4f8f&#45;88d8&#45;e91e60ec03c2</title>
<g id="a_task_6c4858c5&#45;2090&#45;4f8f&#45;88d8&#45;e91e60ec03c2"><a xlink:title="[task] kubeinit.kubeinit.kubeinit_libvirt : Render KubeInit networks for debugging">
<polygon fill="none" stroke="black" points="2349.6,-227.77 2349.6,-242.68 2100.99,-253.23 1749.39,-253.23 1500.78,-242.68 1500.78,-227.77 1749.39,-217.23 2100.99,-217.23 2349.6,-227.77"/>
<text text-anchor="middle" x="1925.19" y="-231.53" font-family="Times,serif" font-size="14.00">[task] kubeinit.kubeinit.kubeinit_libvirt : Render KubeInit networks for debugging</text>
</a>
</g>
</g>
<!-- task&#45;create&#45;network&#45;&gt;task_6c4858c5&#45;2090&#45;4f8f&#45;88d8&#45;e91e60ec03c2 -->
<g id="edge_4d39d7f7&#45;604d&#45;448d&#45;bd2f&#45;32df3604a59f" class="edge">
<title>task&#45;create&#45;network&#45;&gt;task_6c4858c5&#45;2090&#45;4f8f&#45;88d8&#45;e91e60ec03c2</title>
<path fill="none" stroke="#000000" stroke-width="2" d="M386.87,-730.11C395.57,-648.29 435.5,-314.62 513.89,-253.23 600.23,-185.6 1256.47,-203.81 1642.63,-220.84"/>
<polygon fill="#000000" stroke="#000000" stroke-width="2" points="1642.7,-224.35 1652.84,-221.29 1643.01,-217.35 1642.7,-224.35"/>
<text text-anchor="middle" x="908.39" y="-257.03" font-family="Times,serif" font-size="14.00" fill="#000000">23</text>
</g>
<!-- task_4f6ba598&#45;5754&#45;4aea&#45;85a5&#45;675bb8e60151 -->
<g id="task_4f6ba598&#45;5754&#45;4aea&#45;85a5&#45;675bb8e60151" class="node">
<title>task_4f6ba598&#45;5754&#45;4aea&#45;85a5&#45;675bb8e60151</title>
<g id="a_task_4f6ba598&#45;5754&#45;4aea&#45;85a5&#45;675bb8e60151"><a xlink:title="[task] kubeinit.kubeinit.kubeinit_libvirt : Define KubeInit networks">
<polygon fill="none" stroke="black" points="2271.43,-173.77 2271.43,-188.68 2068.61,-199.23 1781.77,-199.23 1578.95,-188.68 1578.95,-173.77 1781.77,-163.23 2068.61,-163.23 2271.43,-173.77"/>
<text text-anchor="middle" x="1925.19" y="-177.53" font-family="Times,serif" font-size="14.00">[task] kubeinit.kubeinit.kubeinit_libvirt : Define KubeInit networks</text>
</a>
</g>
</g>
<!-- task&#45;create&#45;network&#45;&gt;task_4f6ba598&#45;5754&#45;4aea&#45;85a5&#45;675bb8e60151 -->
<g id="edge_f01d491c&#45;6ed7&#45;44db&#45;8f72&#45;e84efedde853" class="edge">
<title>task&#45;create&#45;network&#45;&gt;task_4f6ba598&#45;5754&#45;4aea&#45;85a5&#45;675bb8e60151</title>
<path fill="none" stroke="#000000" stroke-width="2" d="M386.26,-730.05C392.65,-641.44 425.29,-256.05 513.89,-185.23 555.56,-151.92 1194.19,-162.11 1597.62,-172.01"/>
<polygon fill="#000000" stroke="#000000" stroke-width="2" points="1597.62,-175.51 1607.7,-172.26 1597.79,-168.52 1597.62,-175.51"/>
<text text-anchor="middle" x="908.39" y="-189.03" font-family="Times,serif" font-size="14.00" fill="#000000">24 &#160;[when: kubeinit_libvirt_destroy_nets|bool and not kubeinit_libvirt_multicluster_keep_predefined_networks]</text>
</g>
<!-- task_1ac64641&#45;40be&#45;44fd&#45;b3e1&#45;8dba94ec3785 -->
<g id="task_1ac64641&#45;40be&#45;44fd&#45;b3e1&#45;8dba94ec3785" class="node">
<title>task_1ac64641&#45;40be&#45;44fd&#45;b3e1&#45;8dba94ec3785</title>
<g id="a_task_1ac64641&#45;40be&#45;44fd&#45;b3e1&#45;8dba94ec3785"><a xlink:title="[task] kubeinit.kubeinit.kubeinit_libvirt : Activate KubeInit networks">
<polygon fill="none" stroke="black" points="2280.22,-119.77 2280.22,-134.68 2072.25,-145.23 1778.13,-145.23 1570.16,-134.68 1570.16,-119.77 1778.13,-109.23 2072.25,-109.23 2280.22,-119.77"/>
<text text-anchor="middle" x="1925.19" y="-123.53" font-family="Times,serif" font-size="14.00">[task] kubeinit.kubeinit.kubeinit_libvirt : Activate KubeInit networks</text>
</a>
</g>
</g>
<!-- task&#45;create&#45;network&#45;&gt;task_1ac64641&#45;40be&#45;44fd&#45;b3e1&#45;8dba94ec3785 -->
<g id="edge_8dfa79fd&#45;0b0b&#45;4470&#45;a703&#45;9603df6643d9" class="edge">
<title>task&#45;create&#45;network&#45;&gt;task_1ac64641&#45;40be&#45;44fd&#45;b3e1&#45;8dba94ec3785</title>
<path fill="none" stroke="#000000" stroke-width="2" d="M385.97,-729.98C391.15,-637.33 419.48,-220.54 513.89,-143.23 553.9,-110.46 1155.43,-113.98 1559.84,-120.16"/>
<polygon fill="#000000" stroke="#000000" stroke-width="2" points="1559.9,-123.66 1569.95,-120.31 1560.01,-116.66 1559.9,-123.66"/>
<text text-anchor="middle" x="908.39" y="-147.03" font-family="Times,serif" font-size="14.00" fill="#000000">25 &#160;[when: kubeinit_libvirt_destroy_nets|bool and not kubeinit_libvirt_multicluster_keep_predefined_networks]</text>
</g>
<!-- task_4aa28687&#45;5407&#45;4406&#45;880c&#45;4e47ca57dab9 -->
<g id="task_4aa28687&#45;5407&#45;4406&#45;880c&#45;4e47ca57dab9" class="node">
<title>task_4aa28687&#45;5407&#45;4406&#45;880c&#45;4e47ca57dab9</title>
<g id="a_task_4aa28687&#45;5407&#45;4406&#45;880c&#45;4e47ca57dab9"><a xlink:title="[task] kubeinit.kubeinit.kubeinit_libvirt : Autostart KubeInit networks">
<polygon fill="none" stroke="black" points="2286.88,-65.77 2286.88,-80.68 2075.01,-91.23 1775.37,-91.23 1563.5,-80.68 1563.5,-65.77 1775.37,-55.23 2075.01,-55.23 2286.88,-65.77"/>
<text text-anchor="middle" x="1925.19" y="-69.53" font-family="Times,serif" font-size="14.00">[task] kubeinit.kubeinit.kubeinit_libvirt : Autostart KubeInit networks</text>
</a>
</g>
</g>
<!-- task&#45;create&#45;network&#45;&gt;task_4aa28687&#45;5407&#45;4406&#45;880c&#45;4e47ca57dab9 -->
<g id="edge_6782ab2e&#45;f842&#45;49d2&#45;b841&#45;ee10488e9fd5" class="edge">
<title>task&#45;create&#45;network&#45;&gt;task_4aa28687&#45;5407&#45;4406&#45;880c&#45;4e47ca57dab9</title>
<path fill="none" stroke="#000000" stroke-width="2" d="M385.67,-730.2C389.5,-633.83 412.72,-180.75 513.89,-96.23 702.47,61.32 1462.15,-14.02 1781.57,-53.93"/>
<polygon fill="#000000" stroke="#000000" stroke-width="2" points="1781.47,-57.44 1791.82,-55.21 1782.34,-50.49 1781.47,-57.44"/>
<text text-anchor="middle" x="908.39" y="-100.03" font-family="Times,serif" font-size="14.00" fill="#000000">26 &#160;[when: kubeinit_libvirt_destroy_nets|bool and not kubeinit_libvirt_multicluster_keep_predefined_networks]</text>
</g>
</g>
</svg>
