<?xml version='1.0' encoding='UTF-8'?>
<!DOCTYPE svg PUBLIC "-//W3C//DTD SVG 1.1//EN" "http://www.w3.org/Graphics/SVG/1.1/DTD/svg11.dtd">
<!-- Generated by graphviz version 2.43.0 (0)
 --><!-- Title: ./playbooks/submariner&#45;subctl&#45;verify.yml  Pages: 1 --><svg xmlns="http://www.w3.org/2000/svg" xmlns:xlink="http://www.w3.org/1999/xlink" width="1919pt" height="807pt" viewBox="0.00 0.00 1919.12 807.41" id="svg">
<script type="text/javascript" href="https://ajax.googleapis.com/ajax/libs/jquery/3.2.1/jquery.min.js" id="jquery"/><script type="text/javascript" id="my_javascript"><![CDATA[const HOVER_CLASS = "my_hover";

var selectedElement = null;

function addClass(rootElement) {
    $(rootElement).find('link').each(function (index, element) {
        var target = $(element).attr('target');
        var currentElement = $('#' + target);
        currentElement.addClass(HOVER_CLASS);

        addClass(currentElement);
    })
}

function removeClass(rootElement, hover) {
    $(rootElement).find('link').each(function (index, element) {
        if ($(rootElement).attr('id') !== $(selectedElement).attr('id') || !hover) {
            var target = $(element).attr('target');
            var currentElement = $('#' + target);
            currentElement.removeClass(HOVER_CLASS);

            removeClass(currentElement);
        }

    })
}

function hoverIn(event) {
    addClass(event.currentTarget);
}

function hoverOut(event) {
    removeClass(event.currentTarget, true);
}

function clickOnElement(event) {
    var newElement = event.currentTarget;

    if ($(newElement).attr('id') === $(selectedElement).attr('id')) {
        removeClass(selectedElement, false);
    } else {
        removeClass(selectedElement);
        addClass(newElement)
    }

    selectedElement = newElement;
}


$("#svg").ready(function () {

    $("g[id^=play_]").hover(hoverIn, hoverOut);
    $("g[id^=role_]").hover(hoverIn, hoverOut);

    $("g[id^=play_]").click(clickOnElement);
    $("g[id^=role_]").click(clickOnElement);

});
]]></script><style type="text/css" id="my_css"><![CDATA[.node:hover, .edge:hover, path:hover, path + polygon:hover {
    cursor: pointer;
    stroke-width: 3;
    font-weight: bolder;
}

.my_hover {
    cursor: pointer;
    stroke-width: 3;
    font-weight: bolder;
}
]]></style><g id="graph0" class="graph" transform="scale(1 1) rotate(0) translate(4 803.41)">
<title>./playbooks/submariner-subctl-verify.yml </title>
<polygon fill="white" stroke="transparent" points="-4,4 -4,-803.41 1915.12,-803.41 1915.12,4 -4,4"/>
<!-- ./playbooks/submariner&#45;subctl&#45;verify.yml -->
<g id="root_node" class="node">
<title>./playbooks/submariner-subctl-verify.yml</title>
<ellipse fill="none" stroke="black" stroke-dasharray="1,5" cx="198.88" cy="-399.72" rx="198.76" ry="18"/>
<text text-anchor="middle" x="198.88" y="-396.02" font-family="Times,serif" font-size="14.00">./playbooks/submariner-subctl-verify.yml</text>
</g>
<!-- Play #1: Main deployment playbook for integrating submariner (0) -->
<g id="play_aebad1de-1a3e-4911-ba0d-ffdee0003737" class="node">
<title>Play #1: Main deployment playbook for integrating submariner (0)</title>
<polygon fill="#d76050" stroke="#d76050" points="938.76,-417.72 443.76,-417.72 443.76,-381.72 938.76,-381.72 938.76,-417.72"/>
<text text-anchor="middle" x="691.26" y="-396.02" font-family="Times,serif" font-size="14.00" fill="#ffffff">Play #1: Main deployment playbook for integrating submariner (0)</text>
<links><link target="edge_a5d0367a-506c-40b1-b45a-816601aa58c3"/><link target="edge_4b288d91-1f1f-4053-884c-a217daba2d56"/><link target="edge_f56010aa-6492-4b32-beb3-1925887e9276"/><link target="edge_305b8bbc-a6a4-4d59-b610-881114e37489"/><link target="edge_db8cab08-d9ce-4193-820a-37c70a24da19"/><link target="edge_42c13517-1104-4240-83a5-06320deaf557"/><link target="edge_0fb1bac6-1c3b-4348-ad68-8beb300a17c7"/><link target="edge_3fee2e07-d736-43de-8f3d-78c2d088ed78"/><link target="edge_51f61272-f72d-400b-9fe0-56bbe1074813"/><link target="edge_0ce242fa-8604-49ae-8fdd-91669bd1066d"/><link target="edge_d9065a88-7201-43d9-bb85-0614baf25183"/><link target="edge_b416504f-e7d7-4adb-8afd-017281534152"/><link target="edge_c5cca3ed-427a-4775-ba37-a138337cd4b3"/><link target="edge_b3beeeb9-f112-4c40-8689-4e6a70122f8b"/><link target="edge_ced03a2c-96de-46e7-93d8-e8056c715570"/></links></g>
<!-- ./playbooks/submariner&#45;subctl&#45;verify.yml&#45;&gt;Play #1: Main deployment playbook for integrating submariner (0) -->
<g id="edge_6d2329fa-67d0-4109-9811-00b71e3642e1" class="edge">
<title>./playbooks/submariner-subctl-verify.yml-&gt;Play #1: Main deployment playbook for integrating submariner (0)</title>
<path fill="none" stroke="#d76050" stroke-width="2" d="M397.93,-399.72C409.66,-399.72 421.54,-399.72 433.46,-399.72"/>
<polygon fill="#d76050" stroke="#d76050" stroke-width="2" points="433.48,-403.22 443.48,-399.72 433.48,-396.22 433.48,-403.22"/>
<text text-anchor="middle" x="420.76" y="-403.52" font-family="Times,serif" font-size="14.00" fill="#d76050">1</text>
</g>
<!-- pre_task_6f158bbc&#45;8613&#45;4b32&#45;8cf2&#45;c94ff2427804 -->
<g id="pre_task_6f158bbc-8613-4b32-8cf2-c94ff2427804" class="node">
<title>pre_task_6f158bbc-8613-4b32-8cf2-c94ff2427804</title>
<g id="a_pre_task_6f158bbc-8613-4b32-8cf2-c94ff2427804"><a xlink:title="[pre_task] Check if Ansible meets version requirements.">
<polygon fill="none" stroke="black" points="1746.56,-770.26 1746.56,-785.18 1574.27,-795.72 1330.61,-795.72 1158.32,-785.18 1158.32,-770.26 1330.61,-759.72 1574.27,-759.72 1746.56,-770.26"/>
<text text-anchor="middle" x="1452.44" y="-774.02" font-family="Times,serif" font-size="14.00">[pre_task] Check if Ansible meets version requirements.</text>
</a>
</g>
</g>
<!-- Play #1: Main deployment playbook for integrating submariner (0)&#45;&gt;pre_task_6f158bbc&#45;8613&#45;4b32&#45;8cf2&#45;c94ff2427804 -->
<g id="edge_a5d0367a-506c-40b1-b45a-816601aa58c3" class="edge">
<title>Play #1: Main deployment playbook for integrating submariner (0)-&gt;pre_task_6f158bbc-8613-4b32-8cf2-c94ff2427804</title>
<path fill="none" stroke="#d76050" stroke-width="2" d="M701.08,-417.95C731.53,-478.59 839.01,-674.04 993.76,-750.72 1094.33,-800.55 1222.97,-803.68 1318.25,-796.43"/>
<polygon fill="#d76050" stroke="#d76050" stroke-width="2" points="1318.55,-799.92 1328.23,-795.63 1317.98,-792.94 1318.55,-799.92"/>
<text text-anchor="middle" x="966.26" y="-742.52" font-family="Times,serif" font-size="14.00" fill="#d76050">1</text>
<links><link target="pre_task_6f158bbc-8613-4b32-8cf2-c94ff2427804"/></links></g>
<!-- task_211c98b2&#45;9ee3&#45;4775&#45;b7a6&#45;e90cf2238c55 -->
<g id="task_211c98b2-9ee3-4775-b7a6-e90cf2238c55" class="node">
<title>task_211c98b2-9ee3-4775-b7a6-e90cf2238c55</title>
<g id="a_task_211c98b2-9ee3-4775-b7a6-e90cf2238c55"><a xlink:title="[task] ../../roles/kubeinit_prepare : Gather variables for each operating system">
<polygon fill="none" stroke="black" points="1856.05,-716.26 1856.05,-731.18 1619.62,-741.72 1285.26,-741.72 1048.83,-731.18 1048.83,-716.26 1285.26,-705.72 1619.62,-705.72 1856.05,-716.26"/>
<text text-anchor="middle" x="1452.44" y="-720.02" font-family="Times,serif" font-size="14.00">[task] ../../roles/kubeinit_prepare : Gather variables for each operating system</text>
</a>
</g>
</g>
<!-- Play #1: Main deployment playbook for integrating submariner (0)&#45;&gt;task_211c98b2&#45;9ee3&#45;4775&#45;b7a6&#45;e90cf2238c55 -->
<g id="edge_4b288d91-1f1f-4053-884c-a217daba2d56" class="edge">
<title>Play #1: Main deployment playbook for integrating submariner (0)-&gt;task_211c98b2-9ee3-4775-b7a6-e90cf2238c55</title>
<path fill="none" stroke="#d76050" stroke-width="2" d="M703.56,-417.8C738.61,-472.05 851.77,-633.58 993.76,-696.72 1080.17,-735.14 1184.93,-743.72 1272.42,-741.87"/>
<polygon fill="#d76050" stroke="#d76050" stroke-width="2" points="1272.55,-745.37 1282.45,-741.62 1272.37,-738.37 1272.55,-745.37"/>
<text text-anchor="middle" x="966.26" y="-690.52" font-family="Times,serif" font-size="14.00" fill="#d76050">2</text>
<links><link target="task_211c98b2-9ee3-4775-b7a6-e90cf2238c55"/></links></g>
<!-- task_0a07d5c0&#45;b8df&#45;4963&#45;8f24&#45;6cb8cbce4534 -->
<g id="task_0a07d5c0-b8df-4963-8f24-6cb8cbce4534" class="node">
<title>task_0a07d5c0-b8df-4963-8f24-6cb8cbce4534</title>
<g id="a_task_0a07d5c0-b8df-4963-8f24-6cb8cbce4534"><a xlink:title="[task] ../../roles/kubeinit_prepare : add all nodes to the all_nodes group">
<polygon fill="none" stroke="black" points="1818.98,-662.26 1818.98,-677.18 1604.27,-687.72 1300.62,-687.72 1085.9,-677.18 1085.9,-662.26 1300.62,-651.72 1604.27,-651.72 1818.98,-662.26"/>
<text text-anchor="middle" x="1452.44" y="-666.02" font-family="Times,serif" font-size="14.00">[task] ../../roles/kubeinit_prepare : add all nodes to the all_nodes group</text>
</a>
</g>
</g>
<!-- Play #1: Main deployment playbook for integrating submariner (0)&#45;&gt;task_0a07d5c0&#45;b8df&#45;4963&#45;8f24&#45;6cb8cbce4534 -->
<g id="edge_f56010aa-6492-4b32-beb3-1925887e9276" class="edge">
<title>Play #1: Main deployment playbook for integrating submariner (0)-&gt;task_0a07d5c0-b8df-4963-8f24-6cb8cbce4534</title>
<path fill="none" stroke="#d76050" stroke-width="2" d="M707.2,-417.85C747.51,-465.26 864.27,-592.69 993.76,-642.72 1019.92,-652.82 1047.54,-660.66 1075.72,-666.66"/>
<polygon fill="#d76050" stroke="#d76050" stroke-width="2" points="1075.22,-670.12 1085.72,-668.7 1076.62,-663.27 1075.22,-670.12"/>
<text text-anchor="middle" x="966.26" y="-638.52" font-family="Times,serif" font-size="14.00" fill="#d76050">3</text>
<links><link target="task_0a07d5c0-b8df-4963-8f24-6cb8cbce4534"/></links></g>
<!-- task_c56ab7a7&#45;97ac&#45;422e&#45;b1d0&#45;c31b218a1dd1 -->
<g id="task_c56ab7a7-97ac-422e-b1d0-c31b218a1dd1" class="node">
<title>task_c56ab7a7-97ac-422e-b1d0-c31b218a1dd1</title>
<g id="a_task_c56ab7a7-97ac-422e-b1d0-c31b218a1dd1"><a xlink:title="[task] ../../roles/kubeinit_prepare : add all master nodes to the all_master_nodes group">
<polygon fill="none" stroke="black" points="1897.56,-608.26 1897.56,-623.18 1636.82,-633.72 1268.07,-633.72 1007.32,-623.18 1007.32,-608.26 1268.07,-597.72 1636.82,-597.72 1897.56,-608.26"/>
<text text-anchor="middle" x="1452.44" y="-612.02" font-family="Times,serif" font-size="14.00">[task] ../../roles/kubeinit_prepare : add all master nodes to the all_master_nodes group</text>
</a>
</g>
</g>
<!-- Play #1: Main deployment playbook for integrating submariner (0)&#45;&gt;task_c56ab7a7&#45;97ac&#45;422e&#45;b1d0&#45;c31b218a1dd1 -->
<g id="edge_305b8bbc-a6a4-4d59-b610-881114e37489" class="edge">
<title>Play #1: Main deployment playbook for integrating submariner (0)-&gt;task_c56ab7a7-97ac-422e-b1d0-c31b218a1dd1</title>
<path fill="none" stroke="#d76050" stroke-width="2" d="M712.69,-417.79C758.84,-457.37 876.37,-551.19 993.76,-588.72 1012.33,-594.66 1031.53,-599.7 1051.08,-603.98"/>
<polygon fill="#d76050" stroke="#d76050" stroke-width="2" points="1050.5,-607.43 1061.01,-606.08 1051.95,-600.58 1050.5,-607.43"/>
<text text-anchor="middle" x="966.26" y="-585.52" font-family="Times,serif" font-size="14.00" fill="#d76050">4</text>
<links><link target="task_c56ab7a7-97ac-422e-b1d0-c31b218a1dd1"/></links></g>
<!-- task_9e02ae77&#45;9d61&#45;4fbc&#45;a47d&#45;add0c33ceacb -->
<g id="task_9e02ae77-9d61-4fbc-a47d-add0c33ceacb" class="node">
<title>task_9e02ae77-9d61-4fbc-a47d-add0c33ceacb</title>
<g id="a_task_9e02ae77-9d61-4fbc-a47d-add0c33ceacb"><a xlink:title="[task] ../../roles/kubeinit_prepare : add all worker nodes to the all_worker_nodes group">
<polygon fill="none" stroke="black" points="1897.56,-554.26 1897.56,-569.18 1636.82,-579.72 1268.07,-579.72 1007.32,-569.18 1007.32,-554.26 1268.07,-543.72 1636.82,-543.72 1897.56,-554.26"/>
<text text-anchor="middle" x="1452.44" y="-558.02" font-family="Times,serif" font-size="14.00">[task] ../../roles/kubeinit_prepare : add all worker nodes to the all_worker_nodes group</text>
</a>
</g>
</g>
<!-- Play #1: Main deployment playbook for integrating submariner (0)&#45;&gt;task_9e02ae77&#45;9d61&#45;4fbc&#45;a47d&#45;add0c33ceacb -->
<g id="edge_db8cab08-d9ce-4193-820a-37c70a24da19" class="edge">
<title>Play #1: Main deployment playbook for integrating submariner (0)-&gt;task_9e02ae77-9d61-4fbc-a47d-add0c33ceacb</title>
<path fill="none" stroke="#d76050" stroke-width="2" d="M722.61,-417.81C775.53,-448.3 889.03,-509.1 993.76,-534.72 1018.53,-540.78 1044.27,-545.75 1070.34,-549.8"/>
<polygon fill="#d76050" stroke="#d76050" stroke-width="2" points="1069.93,-553.28 1080.34,-551.31 1070.98,-546.35 1069.93,-553.28"/>
<text text-anchor="middle" x="966.26" y="-531.52" font-family="Times,serif" font-size="14.00" fill="#d76050">5</text>
<links><link target="task_9e02ae77-9d61-4fbc-a47d-add0c33ceacb"/></links></g>
<!-- task_003d939e&#45;05a4&#45;474a&#45;bc37&#45;4dae5e52246c -->
<g id="task_003d939e-05a4-474a-bc37-4dae5e52246c" class="node">
<title>task_003d939e-05a4-474a-bc37-4dae5e52246c</title>
<g id="a_task_003d939e-05a4-474a-bc37-4dae5e52246c"><a xlink:title="[task] ../../roles/kubeinit_prepare : add all bootstrap nodes the all_bootstrap_nodes group">
<polygon fill="none" stroke="black" points="1911.3,-500.26 1911.3,-515.18 1642.51,-525.72 1262.38,-525.72 993.59,-515.18 993.59,-500.26 1262.38,-489.72 1642.51,-489.72 1911.3,-500.26"/>
<text text-anchor="middle" x="1452.44" y="-504.02" font-family="Times,serif" font-size="14.00">[task] ../../roles/kubeinit_prepare : add all bootstrap nodes the all_bootstrap_nodes group</text>
</a>
</g>
</g>
<!-- Play #1: Main deployment playbook for integrating submariner (0)&#45;&gt;task_003d939e&#45;05a4&#45;474a&#45;bc37&#45;4dae5e52246c -->
<g id="edge_42c13517-1104-4240-83a5-06320deaf557" class="edge">
<title>Play #1: Main deployment playbook for integrating submariner (0)-&gt;task_003d939e-05a4-474a-bc37-4dae5e52246c</title>
<path fill="none" stroke="#d76050" stroke-width="2" d="M746.01,-417.72C805.76,-436.9 905.49,-466.41 993.76,-480.72 1028.96,-486.42 1065.84,-490.96 1102.75,-494.56"/>
<polygon fill="#d76050" stroke="#d76050" stroke-width="2" points="1102.88,-498.09 1113.16,-495.55 1103.54,-491.12 1102.88,-498.09"/>
<text text-anchor="middle" x="966.26" y="-479.52" font-family="Times,serif" font-size="14.00" fill="#d76050">6</text>
<links><link target="task_003d939e-05a4-474a-bc37-4dae5e52246c"/></links></g>
<!-- task_2ab6c7c2&#45;b043&#45;41be&#45;9242&#45;6f1b139106d9 -->
<g id="task_2ab6c7c2-b043-41be-9242-6f1b139106d9" class="node">
<title>task_2ab6c7c2-b043-41be-9242-6f1b139106d9</title>
<g id="a_task_2ab6c7c2-b043-41be-9242-6f1b139106d9"><a xlink:title="[task] ../../roles/kubeinit_prepare : add all service nodes to the all_service_nodes group">
<polygon fill="none" stroke="black" points="1899.38,-446.26 1899.38,-461.18 1637.57,-471.72 1267.32,-471.72 1005.51,-461.18 1005.51,-446.26 1267.32,-435.72 1637.57,-435.72 1899.38,-446.26"/>
<text text-anchor="middle" x="1452.44" y="-450.02" font-family="Times,serif" font-size="14.00">[task] ../../roles/kubeinit_prepare : add all service nodes to the all_service_nodes group</text>
</a>
</g>
</g>
<!-- Play #1: Main deployment playbook for integrating submariner (0)&#45;&gt;task_2ab6c7c2&#45;b043&#45;41be&#45;9242&#45;6f1b139106d9 -->
<g id="edge_0fb1bac6-1c3b-4348-ad68-8beb300a17c7" class="edge">
<title>Play #1: Main deployment playbook for integrating submariner (0)-&gt;task_2ab6c7c2-b043-41be-9242-6f1b139106d9</title>
<path fill="none" stroke="#d76050" stroke-width="2" d="M883.59,-417.74C920.15,-420.93 958.13,-424.07 993.76,-426.72 1051.17,-430.98 1112.66,-434.99 1171.35,-438.55"/>
<polygon fill="#d76050" stroke="#d76050" stroke-width="2" points="1171.32,-442.05 1181.51,-439.16 1171.74,-435.07 1171.32,-442.05"/>
<text text-anchor="middle" x="966.26" y="-428.52" font-family="Times,serif" font-size="14.00" fill="#d76050">7</text>
<links><link target="task_2ab6c7c2-b043-41be-9242-6f1b139106d9"/></links></g>
<!-- task_da51226b&#45;26d3&#45;4395&#45;9198&#45;5746933a88d5 -->
<g id="task_da51226b-26d3-4395-9198-5746933a88d5" class="node">
<title>task_da51226b-26d3-4395-9198-5746933a88d5</title>
<g id="a_task_da51226b-26d3-4395-9198-5746933a88d5"><a xlink:title="[task] ../../roles/kubeinit_prepare : add all hosts to the all_hosts group">
<polygon fill="none" stroke="black" points="1814.13,-392.26 1814.13,-407.18 1602.26,-417.72 1302.62,-417.72 1090.75,-407.18 1090.75,-392.26 1302.62,-381.72 1602.26,-381.72 1814.13,-392.26"/>
<text text-anchor="middle" x="1452.44" y="-396.02" font-family="Times,serif" font-size="14.00">[task] ../../roles/kubeinit_prepare : add all hosts to the all_hosts group</text>
</a>
</g>
</g>
<!-- Play #1: Main deployment playbook for integrating submariner (0)&#45;&gt;task_da51226b&#45;26d3&#45;4395&#45;9198&#45;5746933a88d5 -->
<g id="edge_3fee2e07-d736-43de-8f3d-78c2d088ed78" class="edge">
<title>Play #1: Main deployment playbook for integrating submariner (0)-&gt;task_da51226b-26d3-4395-9198-5746933a88d5</title>
<path fill="none" stroke="#d76050" stroke-width="2" d="M939.01,-399.72C984.27,-399.72 1032.42,-399.72 1080.39,-399.72"/>
<polygon fill="#d76050" stroke="#d76050" stroke-width="2" points="1080.62,-403.22 1090.62,-399.72 1080.62,-396.22 1080.62,-403.22"/>
<text text-anchor="middle" x="966.26" y="-403.52" font-family="Times,serif" font-size="14.00" fill="#d76050">8</text>
<links><link target="task_da51226b-26d3-4395-9198-5746933a88d5"/></links></g>
<!-- task_76109410&#45;6de2&#45;4d0d&#45;8d26&#45;03dd52ac7b1c -->
<g id="task_76109410-6de2-4d0d-8d26-03dd52ac7b1c" class="node">
<title>task_76109410-6de2-4d0d-8d26-03dd52ac7b1c</title>
<g id="a_task_76109410-6de2-4d0d-8d26-03dd52ac7b1c"><a xlink:title="[task] ../../roles/kubeinit_prepare : list all_hosts">
<polygon fill="none" stroke="black" points="1700.61,-338.26 1700.61,-353.18 1555.24,-363.72 1349.65,-363.72 1204.28,-353.18 1204.28,-338.26 1349.65,-327.72 1555.24,-327.72 1700.61,-338.26"/>
<text text-anchor="middle" x="1452.44" y="-342.02" font-family="Times,serif" font-size="14.00">[task] ../../roles/kubeinit_prepare : list all_hosts</text>
</a>
</g>
</g>
<!-- Play #1: Main deployment playbook for integrating submariner (0)&#45;&gt;task_76109410&#45;6de2&#45;4d0d&#45;8d26&#45;03dd52ac7b1c -->
<g id="edge_51f61272-f72d-400b-9fe0-56bbe1074813" class="edge">
<title>Play #1: Main deployment playbook for integrating submariner (0)-&gt;task_76109410-6de2-4d0d-8d26-03dd52ac7b1c</title>
<path fill="none" stroke="#d76050" stroke-width="2" d="M883.59,-381.71C920.15,-378.51 958.13,-375.37 993.76,-372.72 1073.43,-366.8 1160.98,-361.38 1237.99,-356.96"/>
<polygon fill="#d76050" stroke="#d76050" stroke-width="2" points="1238.51,-360.44 1248.3,-356.38 1238.11,-353.45 1238.51,-360.44"/>
<text text-anchor="middle" x="966.26" y="-378.52" font-family="Times,serif" font-size="14.00" fill="#d76050">9</text>
<links><link target="task_76109410-6de2-4d0d-8d26-03dd52ac7b1c"/></links></g>
<!-- task_0dd53dc7&#45;e83a&#45;41ff&#45;8b92&#45;fee7e314d01e -->
<g id="task_0dd53dc7-e83a-41ff-8b92-fee7e314d01e" class="node">
<title>task_0dd53dc7-e83a-41ff-8b92-fee7e314d01e</title>
<g id="a_task_0dd53dc7-e83a-41ff-8b92-fee7e314d01e"><a xlink:title="[task] ../../roles/kubeinit_prepare : list all_nodes">
<polygon fill="none" stroke="black" points="1702.83,-284.26 1702.83,-299.18 1556.16,-309.72 1348.73,-309.72 1202.06,-299.18 1202.06,-284.26 1348.73,-273.72 1556.16,-273.72 1702.83,-284.26"/>
<text text-anchor="middle" x="1452.44" y="-288.02" font-family="Times,serif" font-size="14.00">[task] ../../roles/kubeinit_prepare : list all_nodes</text>
</a>
</g>
</g>
<!-- Play #1: Main deployment playbook for integrating submariner (0)&#45;&gt;task_0dd53dc7&#45;e83a&#45;41ff&#45;8b92&#45;fee7e314d01e -->
<g id="edge_0ce242fa-8604-49ae-8fdd-91669bd1066d" class="edge">
<title>Play #1: Main deployment playbook for integrating submariner (0)-&gt;task_0dd53dc7-e83a-41ff-8b92-fee7e314d01e</title>
<path fill="none" stroke="#d76050" stroke-width="2" d="M746.01,-381.72C805.76,-362.54 905.49,-333.03 993.76,-318.72 1057.44,-308.4 1126.66,-301.91 1191.54,-297.85"/>
<polygon fill="#d76050" stroke="#d76050" stroke-width="2" points="1192.15,-301.32 1201.92,-297.22 1191.72,-294.34 1192.15,-301.32"/>
<text text-anchor="middle" x="966.26" y="-327.52" font-family="Times,serif" font-size="14.00" fill="#d76050">10</text>
<links><link target="task_0dd53dc7-e83a-41ff-8b92-fee7e314d01e"/></links></g>
<!-- task_1a0b1ae9&#45;1898&#45;4cb7&#45;9d04&#45;68dd66d16899 -->
<g id="task_1a0b1ae9-1898-4cb7-9d04-68dd66d16899" class="node">
<title>task_1a0b1ae9-1898-4cb7-9d04-68dd66d16899</title>
<g id="a_task_1a0b1ae9-1898-4cb7-9d04-68dd66d16899"><a xlink:title="[task] ../../roles/kubeinit_prepare : list all_master_nodes">
<polygon fill="none" stroke="black" points="1743.03,-230.26 1743.03,-245.18 1572.81,-255.72 1332.08,-255.72 1161.86,-245.18 1161.86,-230.26 1332.08,-219.72 1572.81,-219.72 1743.03,-230.26"/>
<text text-anchor="middle" x="1452.44" y="-234.02" font-family="Times,serif" font-size="14.00">[task] ../../roles/kubeinit_prepare : list all_master_nodes</text>
</a>
</g>
</g>
<!-- Play #1: Main deployment playbook for integrating submariner (0)&#45;&gt;task_1a0b1ae9&#45;1898&#45;4cb7&#45;9d04&#45;68dd66d16899 -->
<g id="edge_d9065a88-7201-43d9-bb85-0614baf25183" class="edge">
<title>Play #1: Main deployment playbook for integrating submariner (0)-&gt;task_1a0b1ae9-1898-4cb7-9d04-68dd66d16899</title>
<path fill="none" stroke="#d76050" stroke-width="2" d="M722.61,-381.63C775.53,-351.14 889.03,-290.35 993.76,-264.72 1044.15,-252.39 1098.55,-244.59 1151.65,-239.81"/>
<polygon fill="#d76050" stroke="#d76050" stroke-width="2" points="1152.24,-243.27 1161.9,-238.92 1151.63,-236.3 1152.24,-243.27"/>
<text text-anchor="middle" x="966.26" y="-277.52" font-family="Times,serif" font-size="14.00" fill="#d76050">11</text>
<links><link target="task_1a0b1ae9-1898-4cb7-9d04-68dd66d16899"/></links></g>
<!-- task_398abc6b&#45;4f8d&#45;4b3d&#45;88f8&#45;0f2f81e66c7d -->
<g id="task_398abc6b-4f8d-4b3d-88f8-0f2f81e66c7d" class="node">
<title>task_398abc6b-4f8d-4b3d-88f8-0f2f81e66c7d</title>
<g id="a_task_398abc6b-4f8d-4b3d-88f8-0f2f81e66c7d"><a xlink:title="[task] ../../roles/kubeinit_prepare : list all_worker_nodes">
<polygon fill="none" stroke="black" points="1743.03,-176.26 1743.03,-191.18 1572.81,-201.72 1332.08,-201.72 1161.86,-191.18 1161.86,-176.26 1332.08,-165.72 1572.81,-165.72 1743.03,-176.26"/>
<text text-anchor="middle" x="1452.44" y="-180.02" font-family="Times,serif" font-size="14.00">[task] ../../roles/kubeinit_prepare : list all_worker_nodes</text>
</a>
</g>
</g>
<!-- Play #1: Main deployment playbook for integrating submariner (0)&#45;&gt;task_398abc6b&#45;4f8d&#45;4b3d&#45;88f8&#45;0f2f81e66c7d -->
<g id="edge_b416504f-e7d7-4adb-8afd-017281534152" class="edge">
<title>Play #1: Main deployment playbook for integrating submariner (0)-&gt;task_398abc6b-4f8d-4b3d-88f8-0f2f81e66c7d</title>
<path fill="none" stroke="#d76050" stroke-width="2" d="M712.69,-381.65C758.84,-342.07 876.37,-248.25 993.76,-210.72 1043.73,-194.75 1098.29,-185.21 1151.78,-179.85"/>
<polygon fill="#d76050" stroke="#d76050" stroke-width="2" points="1152.14,-183.33 1161.76,-178.9 1151.47,-176.36 1152.14,-183.33"/>
<text text-anchor="middle" x="966.26" y="-227.52" font-family="Times,serif" font-size="14.00" fill="#d76050">12</text>
<links><link target="task_398abc6b-4f8d-4b3d-88f8-0f2f81e66c7d"/></links></g>
<!-- task_d3cd3fc1&#45;d68f&#45;4d4d&#45;a968&#45;d122c40b7563 -->
<g id="task_d3cd3fc1-d68f-4d4d-a968-d122c40b7563" class="node">
<title>task_d3cd3fc1-d68f-4d4d-a968-d122c40b7563</title>
<g id="a_task_d3cd3fc1-d68f-4d4d-a968-d122c40b7563"><a xlink:title="[task] ../../roles/kubeinit_prepare : list all_service_nodes">
<polygon fill="none" stroke="black" points="1743.93,-122.26 1743.93,-137.18 1573.18,-147.72 1331.7,-147.72 1160.95,-137.18 1160.95,-122.26 1331.7,-111.72 1573.18,-111.72 1743.93,-122.26"/>
<text text-anchor="middle" x="1452.44" y="-126.02" font-family="Times,serif" font-size="14.00">[task] ../../roles/kubeinit_prepare : list all_service_nodes</text>
</a>
</g>
</g>
<!-- Play #1: Main deployment playbook for integrating submariner (0)&#45;&gt;task_d3cd3fc1&#45;d68f&#45;4d4d&#45;a968&#45;d122c40b7563 -->
<g id="edge_c5cca3ed-427a-4775-ba37-a138337cd4b3" class="edge">
<title>Play #1: Main deployment playbook for integrating submariner (0)-&gt;task_d3cd3fc1-d68f-4d4d-a968-d122c40b7563</title>
<path fill="none" stroke="#d76050" stroke-width="2" d="M707.2,-381.59C747.51,-334.18 864.27,-206.75 993.76,-156.72 1078.49,-123.99 1178.61,-115.07 1263.58,-115.25"/>
<polygon fill="#d76050" stroke="#d76050" stroke-width="2" points="1263.57,-118.75 1273.6,-115.31 1263.62,-111.75 1263.57,-118.75"/>
<text text-anchor="middle" x="966.26" y="-172.52" font-family="Times,serif" font-size="14.00" fill="#d76050">13</text>
<links><link target="task_d3cd3fc1-d68f-4d4d-a968-d122c40b7563"/></links></g>
<!-- task_2fa1c084&#45;2b63&#45;468c&#45;a689&#45;fa8d914f6fa0 -->
<g id="task_2fa1c084-2b63-468c-a689-fa8d914f6fa0" class="node">
<title>task_2fa1c084-2b63-468c-a689-fa8d914f6fa0</title>
<g id="a_task_2fa1c084-2b63-468c-a689-fa8d914f6fa0"><a xlink:title="[task] ../../roles/kubeinit_prepare : list all_bootstrap_nodes">
<polygon fill="none" stroke="black" points="1756.26,-68.26 1756.26,-83.18 1578.29,-93.72 1326.6,-93.72 1148.62,-83.18 1148.62,-68.26 1326.6,-57.72 1578.29,-57.72 1756.26,-68.26"/>
<text text-anchor="middle" x="1452.44" y="-72.02" font-family="Times,serif" font-size="14.00">[task] ../../roles/kubeinit_prepare : list all_bootstrap_nodes</text>
</a>
</g>
</g>
<!-- Play #1: Main deployment playbook for integrating submariner (0)&#45;&gt;task_2fa1c084&#45;2b63&#45;468c&#45;a689&#45;fa8d914f6fa0 -->
<g id="edge_b3beeeb9-f112-4c40-8689-4e6a70122f8b" class="edge">
<title>Play #1: Main deployment playbook for integrating submariner (0)-&gt;task_2fa1c084-2b63-468c-a689-fa8d914f6fa0</title>
<path fill="none" stroke="#d76050" stroke-width="2" d="M703.56,-381.64C738.61,-327.39 851.77,-165.86 993.76,-102.72 1088.4,-60.64 1205.08,-54.36 1296.94,-58.36"/>
<polygon fill="#d76050" stroke="#d76050" stroke-width="2" points="1297,-61.87 1307.16,-58.85 1297.34,-54.88 1297,-61.87"/>
<text text-anchor="middle" x="966.26" y="-121.52" font-family="Times,serif" font-size="14.00" fill="#d76050">14</text>
<links><link target="task_2fa1c084-2b63-468c-a689-fa8d914f6fa0"/></links></g>
<!-- task_1e8f4f64&#45;eacd&#45;41c2&#45;9bea&#45;873fa9a5a381 -->
<g id="task_1e8f4f64-eacd-41c2-9bea-873fa9a5a381" class="node">
<title>task_1e8f4f64-eacd-41c2-9bea-873fa9a5a381</title>
<g id="a_task_1e8f4f64-eacd-41c2-9bea-873fa9a5a381"><a xlink:title="[task] ../../roles/kubeinit_submariner : Execute subctl verify">
<polygon fill="none" stroke="black" points="1762.92,-14.26 1762.92,-29.18 1581.05,-39.72 1323.84,-39.72 1141.96,-29.18 1141.96,-14.26 1323.84,-3.72 1581.05,-3.72 1762.92,-14.26"/>
<text text-anchor="middle" x="1452.44" y="-18.02" font-family="Times,serif" font-size="14.00">[task] ../../roles/kubeinit_submariner : Execute subctl verify</text>
</a>
</g>
</g>
<!-- Play #1: Main deployment playbook for integrating submariner (0)&#45;&gt;task_1e8f4f64&#45;eacd&#45;41c2&#45;9bea&#45;873fa9a5a381 -->
<g id="edge_ced03a2c-96de-46e7-93d8-e8056c715570" class="edge">
<title>Play #1: Main deployment playbook for integrating submariner (0)-&gt;task_1e8f4f64-eacd-41c2-9bea-873fa9a5a381</title>
<path fill="none" stroke="#d76050" stroke-width="2" d="M701.08,-381.5C731.53,-320.86 839.01,-125.4 993.76,-48.72 1093.82,0.85 1221.65,4.2 1316.77,-2.9"/>
<polygon fill="#d76050" stroke="#d76050" stroke-width="2" points="1316.5,-6.39 1326.75,-3.69 1317.06,0.59 1316.5,-6.39"/>
<text text-anchor="middle" x="966.26" y="-70.52" font-family="Times,serif" font-size="14.00" fill="#d76050">15</text>
<links><link target="task_1e8f4f64-eacd-41c2-9bea-873fa9a5a381"/></links></g>
</g>
</svg>