<?xml version="1.0" encoding="UTF-8" standalone="no"?>
<!DOCTYPE svg PUBLIC "-//W3C//DTD SVG 1.1//EN"
 "http://www.w3.org/Graphics/SVG/1.1/DTD/svg11.dtd">
<!-- Generated by graphviz version 2.43.0 (0)
 -->
<!-- Title: kubeinit/playbook.yml  Pages: 1 -->
<svg width="3480pt" height="1674pt"
 viewBox="0.00 0.00 3480.22 1673.54" xmlns="http://www.w3.org/2000/svg" xmlns:xlink="http://www.w3.org/1999/xlink">
<g id="graph0" class="graph" transform="scale(1 1) rotate(0) translate(4 1669.54)">
<title>kubeinit/playbook.yml </title>
<polygon fill="white" stroke="transparent" points="-4,4 -4,-1669.54 3476.22,-1669.54 3476.22,4 -4,4"/>
<!-- kubeinit/playbook.yml -->
<g id="root_node" class="node">
<title>kubeinit/playbook.yml</title>
<ellipse fill="none" stroke="black" stroke-dasharray="1,5" cx="113.09" cy="-848.54" rx="113.18" ry="18"/>
<text text-anchor="middle" x="113.09" y="-844.84" font-family="Times,serif" font-size="14.00">kubeinit/playbook.yml</text>
</g>
<!-- task&#45;prepare&#45;hypervisors -->
<g id="play_f355b3b3&#45;5242&#45;4b47&#45;bbce&#45;df152c1d5060" class="node">
<title>task&#45;prepare&#45;hypervisors</title>
<polygon fill="none" stroke="#000000" points="547.83,-841.08 547.83,-856 467.13,-866.54 353,-866.54 272.3,-856 272.3,-841.08 353,-830.54 467.13,-830.54 547.83,-841.08"/>
<text text-anchor="middle" x="410.06" y="-844.84" font-family="Times,serif" font-size="14.00" fill="#000000">task&#45;prepare&#45;hypervisors</text>
</g>
<!-- kubeinit/playbook.yml&#45;&gt;task&#45;prepare&#45;hypervisors -->
<g id="edge_0a6ebbf9&#45;195f&#45;4e6c&#45;be1a&#45;08adf0034e51" class="edge">
<title>kubeinit/playbook.yml&#45;&gt;task&#45;prepare&#45;hypervisors</title>
<path fill="none" stroke="#000000" stroke-width="2" d="M226.45,-848.54C238.15,-848.54 250.17,-848.54 262.18,-848.54"/>
<polygon fill="#000000" stroke="#000000" stroke-width="2" points="262.26,-852.04 272.26,-848.54 262.26,-845.04 262.26,-852.04"/>
<text text-anchor="middle" x="249.18" y="-852.34" font-family="Times,serif" font-size="14.00" fill="#000000">2</text>
</g>
<!-- task_a166228e&#45;9f81&#45;4f98&#45;a2a2&#45;3f0c53bd4f1c -->
<g id="task_a166228e&#45;9f81&#45;4f98&#45;a2a2&#45;3f0c53bd4f1c" class="node">
<title>task_a166228e&#45;9f81&#45;4f98&#45;a2a2&#45;3f0c53bd4f1c</title>
<g id="a_task_a166228e&#45;9f81&#45;4f98&#45;a2a2&#45;3f0c53bd4f1c"><a xlink:title="[task] kubeinit.kubeinit.kubeinit_libvirt : Show ansible_distribution">
<polygon fill="none" stroke="black" points="3108.04,-1624.08 3108.04,-1639 2903.92,-1649.54 2615.25,-1649.54 2411.13,-1639 2411.13,-1624.08 2615.25,-1613.54 2903.92,-1613.54 3108.04,-1624.08"/>
<text text-anchor="middle" x="2759.59" y="-1627.84" font-family="Times,serif" font-size="14.00">[task] kubeinit.kubeinit.kubeinit_libvirt : Show ansible_distribution</text>
</a>
</g>
</g>
<!-- task&#45;prepare&#45;hypervisors&#45;&gt;task_a166228e&#45;9f81&#45;4f98&#45;a2a2&#45;3f0c53bd4f1c -->
<g id="edge_47df54e3&#45;c195&#45;40cc&#45;b661&#45;8a0cb92eb98c" class="edge">
<title>task&#45;prepare&#45;hypervisors&#45;&gt;task_a166228e&#45;9f81&#45;4f98&#45;a2a2&#45;3f0c53bd4f1c</title>
<path fill="none" stroke="#000000" stroke-width="2" d="M411.8,-866.74C416.51,-972.89 446.11,-1510.63 565.95,-1609.54 635.51,-1666.96 1804.2,-1651.41 2406.19,-1639.47"/>
<polygon fill="#000000" stroke="#000000" stroke-width="2" points="2406.4,-1642.96 2416.33,-1639.27 2406.26,-1635.97 2406.4,-1642.96"/>
<text text-anchor="middle" x="1297.45" y="-1654.34" font-family="Times,serif" font-size="14.00" fill="#000000">1</text>
</g>
<!-- task_1840f2e9&#45;2395&#45;416a&#45;8aeb&#45;79d265f915fa -->
<g id="task_1840f2e9&#45;2395&#45;416a&#45;8aeb&#45;79d265f915fa" class="node">
<title>task_1840f2e9&#45;2395&#45;416a&#45;8aeb&#45;79d265f915fa</title>
<g id="a_task_1840f2e9&#45;2395&#45;416a&#45;8aeb&#45;79d265f915fa"><a xlink:title="[task] kubeinit.kubeinit.kubeinit_libvirt : Show distribution_family">
<polygon fill="none" stroke="black" points="3102.7,-1570.08 3102.7,-1585 2901.71,-1595.54 2617.47,-1595.54 2416.48,-1585 2416.48,-1570.08 2617.47,-1559.54 2901.71,-1559.54 3102.7,-1570.08"/>
<text text-anchor="middle" x="2759.59" y="-1573.84" font-family="Times,serif" font-size="14.00">[task] kubeinit.kubeinit.kubeinit_libvirt : Show distribution_family</text>
</a>
</g>
</g>
<!-- task&#45;prepare&#45;hypervisors&#45;&gt;task_1840f2e9&#45;2395&#45;416a&#45;8aeb&#45;79d265f915fa -->
<g id="edge_00c59422&#45;40e8&#45;49e8&#45;a2a7&#45;65216b4e1cd3" class="edge">
<title>task&#45;prepare&#45;hypervisors&#45;&gt;task_1840f2e9&#45;2395&#45;416a&#45;8aeb&#45;79d265f915fa</title>
<path fill="none" stroke="#000000" stroke-width="2" d="M412.18,-866.84C418.72,-967.84 455.77,-1455.83 565.95,-1545.54 635.9,-1602.5 1804.4,-1592.65 2406.27,-1583.7"/>
<polygon fill="#000000" stroke="#000000" stroke-width="2" points="2406.46,-1587.2 2416.41,-1583.55 2406.36,-1580.2 2406.46,-1587.2"/>
<text text-anchor="middle" x="1297.45" y="-1594.34" font-family="Times,serif" font-size="14.00" fill="#000000">2</text>
</g>
<!-- task_d9ee2c03&#45;f711&#45;4157&#45;ae29&#45;9b589cfc9fa7 -->
<g id="task_d9ee2c03&#45;f711&#45;4157&#45;ae29&#45;9b589cfc9fa7" class="node">
<title>task_d9ee2c03&#45;f711&#45;4157&#45;ae29&#45;9b589cfc9fa7</title>
<g id="a_task_d9ee2c03&#45;f711&#45;4157&#45;ae29&#45;9b589cfc9fa7"><a xlink:title="[task] kubeinit.kubeinit.kubeinit_libvirt : Fails if CentOS 7 hypervisor">
<polygon fill="none" stroke="black" points="3119.96,-1516.08 3119.96,-1531 2908.86,-1541.54 2610.31,-1541.54 2399.21,-1531 2399.21,-1516.08 2610.31,-1505.54 2908.86,-1505.54 3119.96,-1516.08"/>
<text text-anchor="middle" x="2759.59" y="-1519.84" font-family="Times,serif" font-size="14.00">[task] kubeinit.kubeinit.kubeinit_libvirt : Fails if CentOS 7 hypervisor</text>
</a>
</g>
</g>
<!-- task&#45;prepare&#45;hypervisors&#45;&gt;task_d9ee2c03&#45;f711&#45;4157&#45;ae29&#45;9b589cfc9fa7 -->
<g id="edge_d528e067&#45;03ce&#45;4a30&#45;965a&#45;a2363a3aa17a" class="edge">
<title>task&#45;prepare&#45;hypervisors&#45;&gt;task_d9ee2c03&#45;f711&#45;4157&#45;ae29&#45;9b589cfc9fa7</title>
<path fill="none" stroke="#000000" stroke-width="2" d="M412.44,-866.65C420.21,-963.45 461.94,-1418.46 565.95,-1501.54 600.99,-1529.53 1773.21,-1528.23 2388.95,-1525.6"/>
<polygon fill="#000000" stroke="#000000" stroke-width="2" points="2389.34,-1529.09 2399.33,-1525.55 2389.31,-1522.09 2389.34,-1529.09"/>
<text text-anchor="middle" x="1297.45" y="-1530.34" font-family="Times,serif" font-size="14.00" fill="#000000">3 &#160;[when: (hostvars[kubeinit_deployment_node_name].ansible_distribution == &#39;CentOS&#39; and hostvars[kubeinit_deployment_node_name].ansible_distribution_major_version == &quot;7&quot;)]</text>
</g>
<!-- task_3742f10e&#45;1524&#45;423d&#45;bb6c&#45;dd4e037ce220 -->
<g id="task_3742f10e&#45;1524&#45;423d&#45;bb6c&#45;dd4e037ce220" class="node">
<title>task_3742f10e&#45;1524&#45;423d&#45;bb6c&#45;dd4e037ce220</title>
<g id="a_task_3742f10e&#45;1524&#45;423d&#45;bb6c&#45;dd4e037ce220"><a xlink:title="[task] kubeinit.kubeinit.kubeinit_libvirt : Fix libvirt qemu bug">
<polygon fill="none" stroke="black" points="3080.17,-1462.08 3080.17,-1477 2892.38,-1487.54 2626.8,-1487.54 2439,-1477 2439,-1462.08 2626.8,-1451.54 2892.38,-1451.54 3080.17,-1462.08"/>
<text text-anchor="middle" x="2759.59" y="-1465.84" font-family="Times,serif" font-size="14.00">[task] kubeinit.kubeinit.kubeinit_libvirt : Fix libvirt qemu bug</text>
</a>
</g>
</g>
<!-- task&#45;prepare&#45;hypervisors&#45;&gt;task_3742f10e&#45;1524&#45;423d&#45;bb6c&#45;dd4e037ce220 -->
<g id="edge_65b190fd&#45;6fd3&#45;4a3a&#45;b06d&#45;2103ec4f647d" class="edge">
<title>task&#45;prepare&#45;hypervisors&#45;&gt;task_3742f10e&#45;1524&#45;423d&#45;bb6c&#45;dd4e037ce220</title>
<path fill="none" stroke="#000000" stroke-width="2" d="M412.86,-866.6C422.38,-958.26 470.13,-1370.57 565.95,-1445.54 637.89,-1501.83 1834.63,-1487.2 2428.99,-1476.36"/>
<polygon fill="#000000" stroke="#000000" stroke-width="2" points="2429.07,-1479.85 2439,-1476.17 2428.94,-1472.86 2429.07,-1479.85"/>
<text text-anchor="middle" x="1297.45" y="-1489.34" font-family="Times,serif" font-size="14.00" fill="#000000">4</text>
</g>
<!-- task_19bdd6c9&#45;957f&#45;4b91&#45;8c56&#45;74274cee52ab -->
<g id="task_19bdd6c9&#45;957f&#45;4b91&#45;8c56&#45;74274cee52ab" class="node">
<title>task_19bdd6c9&#45;957f&#45;4b91&#45;8c56&#45;74274cee52ab</title>
<g id="a_task_19bdd6c9&#45;957f&#45;4b91&#45;8c56&#45;74274cee52ab"><a xlink:title="[task] kubeinit.kubeinit.kubeinit_libvirt : Install CentOS based requirements">
<polygon fill="none" stroke="black" points="3154.81,-1408.08 3154.81,-1423 2923.29,-1433.54 2595.88,-1433.54 2364.36,-1423 2364.36,-1408.08 2595.88,-1397.54 2923.29,-1397.54 3154.81,-1408.08"/>
<text text-anchor="middle" x="2759.59" y="-1411.84" font-family="Times,serif" font-size="14.00">[task] kubeinit.kubeinit.kubeinit_libvirt : Install CentOS based requirements</text>
</a>
</g>
</g>
<!-- task&#45;prepare&#45;hypervisors&#45;&gt;task_19bdd6c9&#45;957f&#45;4b91&#45;8c56&#45;74274cee52ab -->
<g id="edge_b92a3988&#45;97d9&#45;4f44&#45;a71f&#45;92fdd7bf352d" class="edge">
<title>task&#45;prepare&#45;hypervisors&#45;&gt;task_19bdd6c9&#45;957f&#45;4b91&#45;8c56&#45;74274cee52ab</title>
<path fill="none" stroke="#000000" stroke-width="2" d="M413.45,-866.66C425.15,-952.47 479.42,-1316.52 565.95,-1382.54 635.62,-1435.7 1739.6,-1429.46 2353.82,-1421.76"/>
<polygon fill="#000000" stroke="#000000" stroke-width="2" points="2354.23,-1425.26 2364.18,-1421.63 2354.14,-1418.26 2354.23,-1425.26"/>
<text text-anchor="middle" x="1297.45" y="-1430.34" font-family="Times,serif" font-size="14.00" fill="#000000">5 &#160;[when: hostvars[kubeinit_deployment_node_name].distribution_family == &#39;CentOS&#39; or hostvars[kubeinit_deployment_node_name].distribution_family == &#39;Fedora&#39;]</text>
</g>
<!-- task_097af8c6&#45;de43&#45;4623&#45;8a40&#45;ab35c0aa13e1 -->
<g id="task_097af8c6&#45;de43&#45;4623&#45;8a40&#45;ab35c0aa13e1" class="node">
<title>task_097af8c6&#45;de43&#45;4623&#45;8a40&#45;ab35c0aa13e1</title>
<g id="a_task_097af8c6&#45;de43&#45;4623&#45;8a40&#45;ab35c0aa13e1"><a xlink:title="[task] kubeinit.kubeinit.kubeinit_libvirt : Install Debian based requirements">
<polygon fill="none" stroke="black" points="3151.28,-1354.08 3151.28,-1369 2921.83,-1379.54 2597.34,-1379.54 2367.9,-1369 2367.9,-1354.08 2597.34,-1343.54 2921.83,-1343.54 3151.28,-1354.08"/>
<text text-anchor="middle" x="2759.59" y="-1357.84" font-family="Times,serif" font-size="14.00">[task] kubeinit.kubeinit.kubeinit_libvirt : Install Debian based requirements</text>
</a>
</g>
</g>
<!-- task&#45;prepare&#45;hypervisors&#45;&gt;task_097af8c6&#45;de43&#45;4623&#45;8a40&#45;ab35c0aa13e1 -->
<g id="edge_5ac3e90b&#45;a478&#45;4d24&#45;ba44&#45;cd1e5f5a29ba" class="edge">
<title>task&#45;prepare&#45;hypervisors&#45;&gt;task_097af8c6&#45;de43&#45;4623&#45;8a40&#45;ab35c0aa13e1</title>
<path fill="none" stroke="#000000" stroke-width="2" d="M413.9,-866.57C427.13,-947.98 485.42,-1279.88 565.95,-1339.54 601.38,-1365.79 1734.82,-1365.56 2357.79,-1363.44"/>
<polygon fill="#000000" stroke="#000000" stroke-width="2" points="2357.85,-1366.94 2367.84,-1363.4 2357.83,-1359.94 2357.85,-1366.94"/>
<text text-anchor="middle" x="1297.45" y="-1367.34" font-family="Times,serif" font-size="14.00" fill="#000000">6 &#160;[when: hostvars[kubeinit_deployment_node_name].distribution_family == &#39;Debian&#39;]</text>
</g>
<!-- task_2f800c09&#45;deec&#45;43d0&#45;8396&#45;6f2ef510a185 -->
<g id="task_2f800c09&#45;deec&#45;43d0&#45;8396&#45;6f2ef510a185" class="node">
<title>task_2f800c09&#45;deec&#45;43d0&#45;8396&#45;6f2ef510a185</title>
<g id="a_task_2f800c09&#45;deec&#45;43d0&#45;8396&#45;6f2ef510a185"><a xlink:title="[task] kubeinit.kubeinit.kubeinit_libvirt : Upgrade all packages">
<polygon fill="none" stroke="black" points="3085.93,-1300.08 3085.93,-1315 2894.76,-1325.54 2624.41,-1325.54 2433.25,-1315 2433.25,-1300.08 2624.41,-1289.54 2894.76,-1289.54 3085.93,-1300.08"/>
<text text-anchor="middle" x="2759.59" y="-1303.84" font-family="Times,serif" font-size="14.00">[task] kubeinit.kubeinit.kubeinit_libvirt : Upgrade all packages</text>
</a>
</g>
</g>
<!-- task&#45;prepare&#45;hypervisors&#45;&gt;task_2f800c09&#45;deec&#45;43d0&#45;8396&#45;6f2ef510a185 -->
<g id="edge_647922e2&#45;a48f&#45;4974&#45;bb86&#45;df098f2842f4" class="edge">
<title>task&#45;prepare&#45;hypervisors&#45;&gt;task_2f800c09&#45;deec&#45;43d0&#45;8396&#45;6f2ef510a185</title>
<path fill="none" stroke="#000000" stroke-width="2" d="M410.85,-866.87C411.13,-936.12 422.49,-1183.1 565.95,-1285.54 640.02,-1338.43 1827.33,-1324.57 2423.07,-1314.18"/>
<polygon fill="#000000" stroke="#000000" stroke-width="2" points="2423.17,-1317.68 2433.11,-1314 2423.05,-1310.68 2423.17,-1317.68"/>
<text text-anchor="middle" x="1297.45" y="-1327.34" font-family="Times,serif" font-size="14.00" fill="#000000">7</text>
</g>
<!-- task_43257411&#45;fd9b&#45;4ad7&#45;ac05&#45;9922ec267f2d -->
<g id="task_43257411&#45;fd9b&#45;4ad7&#45;ac05&#45;9922ec267f2d" class="node">
<title>task_43257411&#45;fd9b&#45;4ad7&#45;ac05&#45;9922ec267f2d</title>
<g id="a_task_43257411&#45;fd9b&#45;4ad7&#45;ac05&#45;9922ec267f2d"><a xlink:title="[task] kubeinit.kubeinit.kubeinit_libvirt : Add users to libvirt">
<polygon fill="none" stroke="black" points="3074.92,-1246.08 3074.92,-1261 2890.2,-1271.54 2628.97,-1271.54 2444.26,-1261 2444.26,-1246.08 2628.97,-1235.54 2890.2,-1235.54 3074.92,-1246.08"/>
<text text-anchor="middle" x="2759.59" y="-1249.84" font-family="Times,serif" font-size="14.00">[task] kubeinit.kubeinit.kubeinit_libvirt : Add users to libvirt</text>
</a>
</g>
</g>
<!-- task&#45;prepare&#45;hypervisors&#45;&gt;task_43257411&#45;fd9b&#45;4ad7&#45;ac05&#45;9922ec267f2d -->
<g id="edge_49c2675f&#45;6c81&#45;45ab&#45;942b&#45;3ffdfc964b09" class="edge">
<title>task&#45;prepare&#45;hypervisors&#45;&gt;task_43257411&#45;fd9b&#45;4ad7&#45;ac05&#45;9922ec267f2d</title>
<path fill="none" stroke="#000000" stroke-width="2" d="M411.86,-866.74C415.74,-930.19 438.17,-1142.53 565.95,-1229.54 641.63,-1281.07 1842.02,-1268.7 2433.82,-1259.37"/>
<polygon fill="#000000" stroke="#000000" stroke-width="2" points="2434.28,-1262.87 2444.22,-1259.21 2434.17,-1255.87 2434.28,-1262.87"/>
<text text-anchor="middle" x="1297.45" y="-1271.34" font-family="Times,serif" font-size="14.00" fill="#000000">8</text>
</g>
<!-- task_518e6075&#45;05aa&#45;42b0&#45;a1c5&#45;5362f2609cba -->
<g id="task_518e6075&#45;05aa&#45;42b0&#45;a1c5&#45;5362f2609cba" class="node">
<title>task_518e6075&#45;05aa&#45;42b0&#45;a1c5&#45;5362f2609cba</title>
<g id="a_task_518e6075&#45;05aa&#45;42b0&#45;a1c5&#45;5362f2609cba"><a xlink:title="[task] kubeinit.kubeinit.kubeinit_libvirt : Reboot host and wait for it to restart">
<polygon fill="none" stroke="black" points="3163.2,-1192.08 3163.2,-1207 2926.77,-1217.54 2592.41,-1217.54 2355.98,-1207 2355.98,-1192.08 2592.41,-1181.54 2926.77,-1181.54 3163.2,-1192.08"/>
<text text-anchor="middle" x="2759.59" y="-1195.84" font-family="Times,serif" font-size="14.00">[task] kubeinit.kubeinit.kubeinit_libvirt : Reboot host and wait for it to restart</text>
</a>
</g>
</g>
<!-- task&#45;prepare&#45;hypervisors&#45;&gt;task_518e6075&#45;05aa&#45;42b0&#45;a1c5&#45;5362f2609cba -->
<g id="edge_c02daaca&#45;0010&#45;4d6e&#45;990a&#45;3d9d37a68fc2" class="edge">
<title>task&#45;prepare&#45;hypervisors&#45;&gt;task_518e6075&#45;05aa&#45;42b0&#45;a1c5&#45;5362f2609cba</title>
<path fill="none" stroke="#000000" stroke-width="2" d="M413.23,-866.84C421.13,-924.22 454.04,-1101.04 565.95,-1172.54 639.42,-1219.49 1730.81,-1213.06 2345.46,-1205.62"/>
<polygon fill="#000000" stroke="#000000" stroke-width="2" points="2345.87,-1209.11 2355.83,-1205.49 2345.79,-1202.11 2345.87,-1209.11"/>
<text text-anchor="middle" x="1297.45" y="-1214.34" font-family="Times,serif" font-size="14.00" fill="#000000">9 &#160;[when: (_result_installed_packages_centos.changed or _result_installed_packages_debian.changed or _result_upgraded_packages.changed) and kubeinit_libvirt_reboot_hypervisors_after_package_update]</text>
</g>
<!-- task_aad737ae&#45;d317&#45;4b3f&#45;99af&#45;75751fe288b2 -->
<g id="task_aad737ae&#45;d317&#45;4b3f&#45;99af&#45;75751fe288b2" class="node">
<title>task_aad737ae&#45;d317&#45;4b3f&#45;99af&#45;75751fe288b2</title>
<g id="a_task_aad737ae&#45;d317&#45;4b3f&#45;99af&#45;75751fe288b2"><a xlink:title="[task] kubeinit.kubeinit.kubeinit_libvirt : Clear installed/upgraded packages facts">
<polygon fill="none" stroke="black" points="3178.65,-1138.08 3178.65,-1153 2933.17,-1163.54 2586.01,-1163.54 2340.52,-1153 2340.52,-1138.08 2586.01,-1127.54 2933.17,-1127.54 3178.65,-1138.08"/>
<text text-anchor="middle" x="2759.59" y="-1141.84" font-family="Times,serif" font-size="14.00">[task] kubeinit.kubeinit.kubeinit_libvirt : Clear installed/upgraded packages facts</text>
</a>
</g>
</g>
<!-- task&#45;prepare&#45;hypervisors&#45;&gt;task_aad737ae&#45;d317&#45;4b3f&#45;99af&#45;75751fe288b2 -->
<g id="edge_312d364b&#45;31b9&#45;47b9&#45;b9e0&#45;c55a42a8f7ed" class="edge">
<title>task&#45;prepare&#45;hypervisors&#45;&gt;task_aad737ae&#45;d317&#45;4b3f&#45;99af&#45;75751fe288b2</title>
<path fill="none" stroke="#000000" stroke-width="2" d="M415.01,-866.58C427.13,-917.06 469.04,-1059.76 565.95,-1116.54 640.52,-1160.23 1713.01,-1156.53 2329.85,-1150.68"/>
<polygon fill="#000000" stroke="#000000" stroke-width="2" points="2330.29,-1154.18 2340.25,-1150.58 2330.22,-1147.18 2330.29,-1154.18"/>
<text text-anchor="middle" x="1297.45" y="-1157.34" font-family="Times,serif" font-size="14.00" fill="#000000">10</text>
</g>
<!-- task_6b19cc2b&#45;1f27&#45;4a46&#45;a77c&#45;7f2c3801ec5b -->
<g id="task_6b19cc2b&#45;1f27&#45;4a46&#45;a77c&#45;7f2c3801ec5b" class="node">
<title>task_6b19cc2b&#45;1f27&#45;4a46&#45;a77c&#45;7f2c3801ec5b</title>
<g id="a_task_6b19cc2b&#45;1f27&#45;4a46&#45;a77c&#45;7f2c3801ec5b"><a xlink:title="[task] kubeinit.kubeinit.kubeinit_libvirt : Check if Intel virtualization is supported">
<polygon fill="none" stroke="black" points="3180.87,-1084.08 3180.87,-1099 2934.09,-1109.54 2585.09,-1109.54 2338.3,-1099 2338.3,-1084.08 2585.09,-1073.54 2934.09,-1073.54 3180.87,-1084.08"/>
<text text-anchor="middle" x="2759.59" y="-1087.84" font-family="Times,serif" font-size="14.00">[task] kubeinit.kubeinit.kubeinit_libvirt : Check if Intel virtualization is supported</text>
</a>
</g>
</g>
<!-- task&#45;prepare&#45;hypervisors&#45;&gt;task_6b19cc2b&#45;1f27&#45;4a46&#45;a77c&#45;7f2c3801ec5b -->
<g id="edge_66058b0b&#45;5db5&#45;449d&#45;a217&#45;20db4bffbf42" class="edge">
<title>task&#45;prepare&#45;hypervisors&#45;&gt;task_6b19cc2b&#45;1f27&#45;4a46&#45;a77c&#45;7f2c3801ec5b</title>
<path fill="none" stroke="#000000" stroke-width="2" d="M417.63,-866.66C434.43,-909.93 483.53,-1018.85 565.95,-1061.54 642.59,-1101.24 1711.35,-1099.74 2327.87,-1095.5"/>
<polygon fill="#000000" stroke="#000000" stroke-width="2" points="2328.29,-1098.99 2338.27,-1095.42 2328.24,-1091.99 2328.29,-1098.99"/>
<text text-anchor="middle" x="1297.45" y="-1101.34" font-family="Times,serif" font-size="14.00" fill="#000000">11</text>
</g>
<!-- task_d2aa50a2&#45;e349&#45;4175&#45;8c4e&#45;05151e9856b6 -->
<g id="task_d2aa50a2&#45;e349&#45;4175&#45;8c4e&#45;05151e9856b6" class="node">
<title>task_d2aa50a2&#45;e349&#45;4175&#45;8c4e&#45;05151e9856b6</title>
<g id="a_task_d2aa50a2&#45;e349&#45;4175&#45;8c4e&#45;05151e9856b6"><a xlink:title="[task] kubeinit.kubeinit.kubeinit_libvirt : Check if AMD virtualization is supported">
<polygon fill="none" stroke="black" points="3182.18,-1030.08 3182.18,-1045 2934.63,-1055.54 2584.54,-1055.54 2336.99,-1045 2336.99,-1030.08 2584.54,-1019.54 2934.63,-1019.54 3182.18,-1030.08"/>
<text text-anchor="middle" x="2759.59" y="-1033.84" font-family="Times,serif" font-size="14.00">[task] kubeinit.kubeinit.kubeinit_libvirt : Check if AMD virtualization is supported</text>
</a>
</g>
</g>
<!-- task&#45;prepare&#45;hypervisors&#45;&gt;task_d2aa50a2&#45;e349&#45;4175&#45;8c4e&#45;05151e9856b6 -->
<g id="edge_aec64750&#45;115f&#45;4eeb&#45;8357&#45;dcbd1a0dce18" class="edge">
<title>task&#45;prepare&#45;hypervisors&#45;&gt;task_d2aa50a2&#45;e349&#45;4175&#45;8c4e&#45;05151e9856b6</title>
<path fill="none" stroke="#000000" stroke-width="2" d="M421.18,-866.54C442.47,-902.38 495.81,-981.83 565.95,-1012.54 644.93,-1047.12 1710.56,-1045.27 2326.58,-1041.24"/>
<polygon fill="#000000" stroke="#000000" stroke-width="2" points="2327,-1044.74 2336.98,-1041.17 2326.95,-1037.74 2327,-1044.74"/>
<text text-anchor="middle" x="1297.45" y="-1046.34" font-family="Times,serif" font-size="14.00" fill="#000000">12</text>
</g>
<!-- task_a2c217d2&#45;91f1&#45;4a2c&#45;a590&#45;9c31844bd329 -->
<g id="task_a2c217d2&#45;91f1&#45;4a2c&#45;a590&#45;9c31844bd329" class="node">
<title>task_a2c217d2&#45;91f1&#45;4a2c&#45;a590&#45;9c31844bd329</title>
<g id="a_task_a2c217d2&#45;91f1&#45;4a2c&#45;a590&#45;9c31844bd329"><a xlink:title="[task] kubeinit.kubeinit.kubeinit_libvirt : Fail in case no Intel or AMD virtualization support is not detected and is not a hosted deployment.">
<polygon fill="none" stroke="black" points="3472.36,-976.08 3472.36,-991 3054.83,-1001.54 2464.35,-1001.54 2046.81,-991 2046.81,-976.08 2464.35,-965.54 3054.83,-965.54 3472.36,-976.08"/>
<text text-anchor="middle" x="2759.59" y="-979.84" font-family="Times,serif" font-size="14.00">[task] kubeinit.kubeinit.kubeinit_libvirt : Fail in case no Intel or AMD virtualization support is not detected and is not a hosted deployment.</text>
</a>
</g>
</g>
<!-- task&#45;prepare&#45;hypervisors&#45;&gt;task_a2c217d2&#45;91f1&#45;4a2c&#45;a590&#45;9c31844bd329 -->
<g id="edge_1f05c7b5&#45;6f09&#45;4a42&#45;a126&#45;3bdfaf7e1b51" class="edge">
<title>task&#45;prepare&#45;hypervisors&#45;&gt;task_a2c217d2&#45;91f1&#45;4a2c&#45;a590&#45;9c31844bd329</title>
<path fill="none" stroke="#000000" stroke-width="2" d="M430.65,-866.89C458.29,-891.43 511.48,-933.77 565.95,-950.54 708.23,-994.35 1495.26,-996.94 2086,-992.33"/>
<polygon fill="#000000" stroke="#000000" stroke-width="2" points="2086.45,-995.83 2096.43,-992.25 2086.4,-988.83 2086.45,-995.83"/>
<text text-anchor="middle" x="1297.45" y="-997.34" font-family="Times,serif" font-size="14.00" fill="#000000">13 &#160;[when: _result_intel_processor.rc != 0 and _result_amd_processor.rc != 0 and not kubeinit_inventory_hosted_deployment]</text>
</g>
<!-- task_9d6c548e&#45;4c6e&#45;40ce&#45;b26e&#45;8abc1f2b20b8 -->
<g id="task_9d6c548e&#45;4c6e&#45;40ce&#45;b26e&#45;8abc1f2b20b8" class="node">
<title>task_9d6c548e&#45;4c6e&#45;40ce&#45;b26e&#45;8abc1f2b20b8</title>
<g id="a_task_9d6c548e&#45;4c6e&#45;40ce&#45;b26e&#45;8abc1f2b20b8"><a xlink:title="[task] kubeinit.kubeinit.kubeinit_libvirt : Set fact for Intel virtualization">
<polygon fill="none" stroke="black" points="3130.57,-922.08 3130.57,-937 2913.25,-947.54 2605.92,-947.54 2388.61,-937 2388.61,-922.08 2605.92,-911.54 2913.25,-911.54 3130.57,-922.08"/>
<text text-anchor="middle" x="2759.59" y="-925.84" font-family="Times,serif" font-size="14.00">[task] kubeinit.kubeinit.kubeinit_libvirt : Set fact for Intel virtualization</text>
</a>
</g>
</g>
<!-- task&#45;prepare&#45;hypervisors&#45;&gt;task_9d6c548e&#45;4c6e&#45;40ce&#45;b26e&#45;8abc1f2b20b8 -->
<g id="edge_5654762d&#45;c3dd&#45;4208&#45;a44e&#45;d328a8a4a55d" class="edge">
<title>task&#45;prepare&#45;hypervisors&#45;&gt;task_9d6c548e&#45;4c6e&#45;40ce&#45;b26e&#45;8abc1f2b20b8</title>
<path fill="none" stroke="#000000" stroke-width="2" d="M471.19,-866.08C499.66,-873.56 534.28,-881.49 565.95,-885.54 904.8,-928.9 1845.97,-933.09 2378.55,-931.72"/>
<polygon fill="#000000" stroke="#000000" stroke-width="2" points="2378.71,-935.22 2388.7,-931.7 2378.69,-928.22 2378.71,-935.22"/>
<text text-anchor="middle" x="1297.45" y="-935.34" font-family="Times,serif" font-size="14.00" fill="#000000">14 &#160;[when: _result_intel_processor.rc == 0]</text>
</g>
<!-- task_5165a9e7&#45;d098&#45;449d&#45;9a9c&#45;063cd9931f6b -->
<g id="task_5165a9e7&#45;d098&#45;449d&#45;9a9c&#45;063cd9931f6b" class="node">
<title>task_5165a9e7&#45;d098&#45;449d&#45;9a9c&#45;063cd9931f6b</title>
<g id="a_task_5165a9e7&#45;d098&#45;449d&#45;9a9c&#45;063cd9931f6b"><a xlink:title="[task] kubeinit.kubeinit.kubeinit_libvirt : Set fact for AMD virtualization">
<polygon fill="none" stroke="black" points="3132.29,-868.08 3132.29,-883 2913.97,-893.54 2605.21,-893.54 2386.88,-883 2386.88,-868.08 2605.21,-857.54 2913.97,-857.54 3132.29,-868.08"/>
<text text-anchor="middle" x="2759.59" y="-871.84" font-family="Times,serif" font-size="14.00">[task] kubeinit.kubeinit.kubeinit_libvirt : Set fact for AMD virtualization</text>
</a>
</g>
</g>
<!-- task&#45;prepare&#45;hypervisors&#45;&gt;task_5165a9e7&#45;d098&#45;449d&#45;9a9c&#45;063cd9931f6b -->
<g id="edge_cad0ee98&#45;5c85&#45;4731&#45;a1f5&#45;53420c1b13d7" class="edge">
<title>task&#45;prepare&#45;hypervisors&#45;&gt;task_5165a9e7&#45;d098&#45;449d&#45;9a9c&#45;063cd9931f6b</title>
<path fill="none" stroke="#000000" stroke-width="2" d="M547.85,-850.11C899.13,-854.15 1842.74,-865.01 2376.69,-871.15"/>
<polygon fill="#000000" stroke="#000000" stroke-width="2" points="2376.83,-874.65 2386.87,-871.26 2376.91,-867.65 2376.83,-874.65"/>
<text text-anchor="middle" x="1297.45" y="-870.34" font-family="Times,serif" font-size="14.00" fill="#000000">15 &#160;[when: _result_amd_processor.rc == 0]</text>
</g>
<!-- task_d6c11866&#45;197b&#45;47ed&#45;be51&#45;ee30bc283cc7 -->
<g id="task_d6c11866&#45;197b&#45;47ed&#45;be51&#45;ee30bc283cc7" class="node">
<title>task_d6c11866&#45;197b&#45;47ed&#45;be51&#45;ee30bc283cc7</title>
<g id="a_task_d6c11866&#45;197b&#45;47ed&#45;be51&#45;ee30bc283cc7"><a xlink:title="[task] kubeinit.kubeinit.kubeinit_libvirt : Set fact for nested virtualization test path">
<polygon fill="none" stroke="black" points="3189.25,-814.08 3189.25,-829 2937.56,-839.54 2581.61,-839.54 2329.92,-829 2329.92,-814.08 2581.61,-803.54 2937.56,-803.54 3189.25,-814.08"/>
<text text-anchor="middle" x="2759.59" y="-817.84" font-family="Times,serif" font-size="14.00">[task] kubeinit.kubeinit.kubeinit_libvirt : Set fact for nested virtualization test path</text>
</a>
</g>
</g>
<!-- task&#45;prepare&#45;hypervisors&#45;&gt;task_d6c11866&#45;197b&#45;47ed&#45;be51&#45;ee30bc283cc7 -->
<g id="edge_cf314185&#45;d1cd&#45;4269&#45;bc4d&#45;d13aeced8375" class="edge">
<title>task&#45;prepare&#45;hypervisors&#45;&gt;task_d6c11866&#45;197b&#45;47ed&#45;be51&#45;ee30bc283cc7</title>
<path fill="none" stroke="#000000" stroke-width="2" d="M507.17,-835.68C526.59,-833.56 546.9,-831.68 565.95,-830.54 1209,-791.97 1960.04,-800.46 2395.28,-810.65"/>
<polygon fill="#000000" stroke="#000000" stroke-width="2" points="2395.42,-814.15 2405.5,-810.89 2395.59,-807.16 2395.42,-814.15"/>
<text text-anchor="middle" x="1297.45" y="-834.34" font-family="Times,serif" font-size="14.00" fill="#000000">16 &#160;[when: _result_intel_processor.rc == 0 or _result_amd_processor.rc == 0]</text>
</g>
<!-- task_ea1d2fce&#45;7ad2&#45;47ea&#45;96a5&#45;864b4761aabf -->
<g id="task_ea1d2fce&#45;7ad2&#45;47ea&#45;96a5&#45;864b4761aabf" class="node">
<title>task_ea1d2fce&#45;7ad2&#45;47ea&#45;96a5&#45;864b4761aabf</title>
<g id="a_task_ea1d2fce&#45;7ad2&#45;47ea&#45;96a5&#45;864b4761aabf"><a xlink:title="[task] kubeinit.kubeinit.kubeinit_libvirt : Ensure {{ nested_virtualization_module_name }} module is available and loaded">
<polygon fill="none" stroke="black" points="3385.8,-760.08 3385.8,-775 3018.97,-785.54 2500.2,-785.54 2133.37,-775 2133.37,-760.08 2500.2,-749.54 3018.97,-749.54 3385.8,-760.08"/>
<text text-anchor="middle" x="2759.59" y="-763.84" font-family="Times,serif" font-size="14.00">[task] kubeinit.kubeinit.kubeinit_libvirt : Ensure {{ nested_virtualization_module_name }} module is available and loaded</text>
</a>
</g>
</g>
<!-- task&#45;prepare&#45;hypervisors&#45;&gt;task_ea1d2fce&#45;7ad2&#45;47ea&#45;96a5&#45;864b4761aabf -->
<g id="edge_600e87f0&#45;114e&#45;4b0b&#45;9374&#45;12aaf0e60570" class="edge">
<title>task&#45;prepare&#45;hypervisors&#45;&gt;task_ea1d2fce&#45;7ad2&#45;47ea&#45;96a5&#45;864b4761aabf</title>
<path fill="none" stroke="#000000" stroke-width="2" d="M443.06,-830.44C473.56,-814.29 521.3,-791.81 565.95,-782.54 901.35,-712.86 1848.87,-733.74 2382.06,-752.29"/>
<polygon fill="#000000" stroke="#000000" stroke-width="2" points="2382.11,-755.79 2392.23,-752.64 2382.35,-748.8 2382.11,-755.79"/>
<text text-anchor="middle" x="1297.45" y="-786.34" font-family="Times,serif" font-size="14.00" fill="#000000">17 &#160;[when: _result_intel_processor.rc == 0 or _result_amd_processor.rc == 0]</text>
</g>
<!-- task_fbc0e17e&#45;dd81&#45;4951&#45;97d0&#45;3e22ac96048d -->
<g id="task_fbc0e17e&#45;dd81&#45;4951&#45;97d0&#45;3e22ac96048d" class="node">
<title>task_fbc0e17e&#45;dd81&#45;4951&#45;97d0&#45;3e22ac96048d</title>
<g id="a_task_fbc0e17e&#45;dd81&#45;4951&#45;97d0&#45;3e22ac96048d"><a xlink:title="[task] kubeinit.kubeinit.kubeinit_libvirt : Test status of nested virtualization">
<polygon fill="none" stroke="black" points="3152.59,-706.08 3152.59,-721 2922.37,-731.54 2596.8,-731.54 2366.58,-721 2366.58,-706.08 2596.8,-695.54 2922.37,-695.54 3152.59,-706.08"/>
<text text-anchor="middle" x="2759.59" y="-709.84" font-family="Times,serif" font-size="14.00">[task] kubeinit.kubeinit.kubeinit_libvirt : Test status of nested virtualization</text>
</a>
</g>
</g>
<!-- task&#45;prepare&#45;hypervisors&#45;&gt;task_fbc0e17e&#45;dd81&#45;4951&#45;97d0&#45;3e22ac96048d -->
<g id="edge_558dfb43&#45;510f&#45;45ca&#45;b736&#45;0aa1abf17d2f" class="edge">
<title>task&#45;prepare&#45;hypervisors&#45;&gt;task_fbc0e17e&#45;dd81&#45;4951&#45;97d0&#45;3e22ac96048d</title>
<path fill="none" stroke="#000000" stroke-width="2" d="M424.79,-830.14C449.14,-799.21 503.31,-737.89 565.95,-714.54 648.02,-683.94 1745.83,-696.83 2356.14,-706.49"/>
<polygon fill="#000000" stroke="#000000" stroke-width="2" points="2356.38,-709.99 2366.43,-706.65 2356.49,-702.99 2356.38,-709.99"/>
<text text-anchor="middle" x="1297.45" y="-718.34" font-family="Times,serif" font-size="14.00" fill="#000000">18 &#160;[when: _result_intel_processor.rc == 0 or _result_amd_processor.rc == 0]</text>
</g>
<!-- task_8fd360b0&#45;be8c&#45;45b1&#45;8598&#45;b03aa3198e47 -->
<g id="task_8fd360b0&#45;be8c&#45;45b1&#45;8598&#45;b03aa3198e47" class="node">
<title>task_8fd360b0&#45;be8c&#45;45b1&#45;8598&#45;b03aa3198e47</title>
<g id="a_task_8fd360b0&#45;be8c&#45;45b1&#45;8598&#45;b03aa3198e47"><a xlink:title="[task] kubeinit.kubeinit.kubeinit_libvirt : Persist configuration in /etc/modprobe.d/kvm.conf">
<polygon fill="none" stroke="black" points="3228.14,-652.08 3228.14,-667 2953.67,-677.54 2565.51,-677.54 2291.03,-667 2291.03,-652.08 2565.51,-641.54 2953.67,-641.54 3228.14,-652.08"/>
<text text-anchor="middle" x="2759.59" y="-655.84" font-family="Times,serif" font-size="14.00">[task] kubeinit.kubeinit.kubeinit_libvirt : Persist configuration in /etc/modprobe.d/kvm.conf</text>
</a>
</g>
</g>
<!-- task&#45;prepare&#45;hypervisors&#45;&gt;task_8fd360b0&#45;be8c&#45;45b1&#45;8598&#45;b03aa3198e47 -->
<g id="edge_f3a0603d&#45;040e&#45;4087&#45;8c4e&#45;c441e80bac06" class="edge">
<title>task&#45;prepare&#45;hypervisors&#45;&gt;task_8fd360b0&#45;be8c&#45;45b1&#45;8598&#45;b03aa3198e47</title>
<path fill="none" stroke="#000000" stroke-width="2" d="M420.42,-830.41C440.86,-793.05 493.56,-708.21 565.95,-675.54 729.02,-601.95 1834.92,-627.81 2411.05,-646.74"/>
<polygon fill="#000000" stroke="#000000" stroke-width="2" points="2411.07,-650.25 2421.18,-647.08 2411.3,-643.25 2411.07,-650.25"/>
<text text-anchor="middle" x="1297.45" y="-679.34" font-family="Times,serif" font-size="14.00" fill="#000000">19 &#160;[when: _result_intel_processor.rc == 0 or _result_amd_processor.rc == 0]</text>
</g>
<!-- task_c5cd3d22&#45;fee2&#45;4b25&#45;99a0&#45;9c8a49a7e51e -->
<g id="task_c5cd3d22&#45;fee2&#45;4b25&#45;99a0&#45;9c8a49a7e51e" class="node">
<title>task_c5cd3d22&#45;fee2&#45;4b25&#45;99a0&#45;9c8a49a7e51e</title>
<g id="a_task_c5cd3d22&#45;fee2&#45;4b25&#45;99a0&#45;9c8a49a7e51e"><a xlink:title="[task] kubeinit.kubeinit.kubeinit_libvirt : Load {{ nested_virtualization_module_name }} module">
<polygon fill="none" stroke="black" points="3256.42,-598.08 3256.42,-613 2965.38,-623.54 2553.79,-623.54 2262.76,-613 2262.76,-598.08 2553.79,-587.54 2965.38,-587.54 3256.42,-598.08"/>
<text text-anchor="middle" x="2759.59" y="-601.84" font-family="Times,serif" font-size="14.00">[task] kubeinit.kubeinit.kubeinit_libvirt : Load {{ nested_virtualization_module_name }} module</text>
</a>
</g>
</g>
<!-- task&#45;prepare&#45;hypervisors&#45;&gt;task_c5cd3d22&#45;fee2&#45;4b25&#45;99a0&#45;9c8a49a7e51e -->
<g id="edge_fbfa529f&#45;b3dc&#45;4002&#45;843c&#45;19e58d97a5cb" class="edge">
<title>task&#45;prepare&#45;hypervisors&#45;&gt;task_c5cd3d22&#45;fee2&#45;4b25&#45;99a0&#45;9c8a49a7e51e</title>
<path fill="none" stroke="#000000" stroke-width="2" d="M416.06,-830.44C430.23,-783.13 475.6,-656.01 565.95,-606.54 641.61,-565.11 1709.7,-581.86 2326.67,-595.16"/>
<polygon fill="#000000" stroke="#000000" stroke-width="2" points="2327.01,-598.67 2337.08,-595.39 2327.16,-591.67 2327.01,-598.67"/>
<text text-anchor="middle" x="1297.45" y="-610.34" font-family="Times,serif" font-size="14.00" fill="#000000">20 &#160;[when: _result_intel_processor.rc == 0 or _result_amd_processor.rc == 0]</text>
</g>
<!-- task_97f10df8&#45;a435&#45;4e10&#45;8db1&#45;3e43d8b434b4 -->
<g id="task_97f10df8&#45;a435&#45;4e10&#45;8db1&#45;3e43d8b434b4" class="node">
<title>task_97f10df8&#45;a435&#45;4e10&#45;8db1&#45;3e43d8b434b4</title>
<g id="a_task_97f10df8&#45;a435&#45;4e10&#45;8db1&#45;3e43d8b434b4"><a xlink:title="[task] kubeinit.kubeinit.kubeinit_libvirt : Clear intel and amd processor facts">
<polygon fill="none" stroke="black" points="3156.13,-544.08 3156.13,-559 2923.84,-569.54 2595.33,-569.54 2363.05,-559 2363.05,-544.08 2595.33,-533.54 2923.84,-533.54 3156.13,-544.08"/>
<text text-anchor="middle" x="2759.59" y="-547.84" font-family="Times,serif" font-size="14.00">[task] kubeinit.kubeinit.kubeinit_libvirt : Clear intel and amd processor facts</text>
</a>
</g>
</g>
<!-- task&#45;prepare&#45;hypervisors&#45;&gt;task_97f10df8&#45;a435&#45;4e10&#45;8db1&#45;3e43d8b434b4 -->
<g id="edge_52b80469&#45;e5de&#45;41a4&#45;8d6c&#45;f57c32a008ff" class="edge">
<title>task&#45;prepare&#45;hypervisors&#45;&gt;task_97f10df8&#45;a435&#45;4e10&#45;8db1&#45;3e43d8b434b4</title>
<path fill="none" stroke="#000000" stroke-width="2" d="M414.29,-830.31C424.81,-777.13 463.49,-622.06 565.95,-560.54 641.81,-514.99 1764.32,-530.86 2372.95,-542.96"/>
<polygon fill="#000000" stroke="#000000" stroke-width="2" points="2373.15,-546.47 2383.21,-543.17 2373.28,-539.47 2373.15,-546.47"/>
<text text-anchor="middle" x="1297.45" y="-564.34" font-family="Times,serif" font-size="14.00" fill="#000000">21</text>
</g>
<!-- task_8e9f752c&#45;8e87&#45;4f7b&#45;9fff&#45;ba6f09e66e24 -->
<g id="task_8e9f752c&#45;8e87&#45;4f7b&#45;9fff&#45;ba6f09e66e24" class="node">
<title>task_8e9f752c&#45;8e87&#45;4f7b&#45;9fff&#45;ba6f09e66e24</title>
<g id="a_task_8e9f752c&#45;8e87&#45;4f7b&#45;9fff&#45;ba6f09e66e24"><a xlink:title="[task] kubeinit.kubeinit.kubeinit_libvirt : Enable and start libvirtd">
<polygon fill="none" stroke="black" points="3101.38,-490.08 3101.38,-505 2901.16,-515.54 2618.01,-515.54 2417.79,-505 2417.79,-490.08 2618.01,-479.54 2901.16,-479.54 3101.38,-490.08"/>
<text text-anchor="middle" x="2759.59" y="-493.84" font-family="Times,serif" font-size="14.00">[task] kubeinit.kubeinit.kubeinit_libvirt : Enable and start libvirtd</text>
</a>
</g>
</g>
<!-- task&#45;prepare&#45;hypervisors&#45;&gt;task_8e9f752c&#45;8e87&#45;4f7b&#45;9fff&#45;ba6f09e66e24 -->
<g id="edge_aff55d86&#45;f9e6&#45;4c9c&#45;a534&#45;54e45417f96a" class="edge">
<title>task&#45;prepare&#45;hypervisors&#45;&gt;task_8e9f752c&#45;8e87&#45;4f7b&#45;9fff&#45;ba6f09e66e24</title>
<path fill="none" stroke="#000000" stroke-width="2" d="M412.83,-830.28C419.64,-771.32 449.92,-585.49 565.95,-510.54 641.75,-461.58 1808.57,-478.02 2408.33,-489.84"/>
<polygon fill="#000000" stroke="#000000" stroke-width="2" points="2408.36,-493.34 2418.43,-490.04 2408.5,-486.34 2408.36,-493.34"/>
<text text-anchor="middle" x="1297.45" y="-514.34" font-family="Times,serif" font-size="14.00" fill="#000000">22</text>
</g>
<!-- task_248d4e90&#45;89ac&#45;4300&#45;ad94&#45;6f182332a6fe -->
<g id="task_248d4e90&#45;89ac&#45;4300&#45;ad94&#45;6f182332a6fe" class="node">
<title>task_248d4e90&#45;89ac&#45;4300&#45;ad94&#45;6f182332a6fe</title>
<g id="a_task_248d4e90&#45;89ac&#45;4300&#45;ad94&#45;6f182332a6fe"><a xlink:title="[task] kubeinit.kubeinit.kubeinit_libvirt : Make sure we have a &#39;toor&#39; group">
<polygon fill="none" stroke="black" points="3145.11,-436.08 3145.11,-451 2919.28,-461.54 2599.9,-461.54 2374.06,-451 2374.06,-436.08 2599.9,-425.54 2919.28,-425.54 3145.11,-436.08"/>
<text text-anchor="middle" x="2759.59" y="-439.84" font-family="Times,serif" font-size="14.00">[task] kubeinit.kubeinit.kubeinit_libvirt : Make sure we have a &#39;toor&#39; group</text>
</a>
</g>
</g>
<!-- task&#45;prepare&#45;hypervisors&#45;&gt;task_248d4e90&#45;89ac&#45;4300&#45;ad94&#45;6f182332a6fe -->
<g id="edge_11869ba9&#45;2f82&#45;45bd&#45;ae44&#45;5fe9fd0b20cd" class="edge">
<title>task&#45;prepare&#45;hypervisors&#45;&gt;task_248d4e90&#45;89ac&#45;4300&#45;ad94&#45;6f182332a6fe</title>
<path fill="none" stroke="#000000" stroke-width="2" d="M411.65,-830.31C414.82,-765.74 435.18,-547 565.95,-457.54 639.33,-407.34 1773.69,-422.96 2381.14,-435.06"/>
<polygon fill="#000000" stroke="#000000" stroke-width="2" points="2381.31,-438.57 2391.38,-435.27 2381.45,-431.57 2381.31,-438.57"/>
<text text-anchor="middle" x="1297.45" y="-461.34" font-family="Times,serif" font-size="14.00" fill="#000000">23</text>
</g>
<!-- task_ba76a2c7&#45;3360&#45;44b8&#45;9fa6&#45;84c20b9b0bd6 -->
<g id="task_ba76a2c7&#45;3360&#45;44b8&#45;9fa6&#45;84c20b9b0bd6" class="node">
<title>task_ba76a2c7&#45;3360&#45;44b8&#45;9fa6&#45;84c20b9b0bd6</title>
<g id="a_task_ba76a2c7&#45;3360&#45;44b8&#45;9fa6&#45;84c20b9b0bd6"><a xlink:title="[task] kubeinit.kubeinit.kubeinit_libvirt : Allow &#39;toor&#39; group to have passwordless sudo">
<polygon fill="none" stroke="black" points="3204.3,-382.08 3204.3,-397 2943.79,-407.54 2575.38,-407.54 2314.87,-397 2314.87,-382.08 2575.38,-371.54 2943.79,-371.54 3204.3,-382.08"/>
<text text-anchor="middle" x="2759.59" y="-385.84" font-family="Times,serif" font-size="14.00">[task] kubeinit.kubeinit.kubeinit_libvirt : Allow &#39;toor&#39; group to have passwordless sudo</text>
</a>
</g>
</g>
<!-- task&#45;prepare&#45;hypervisors&#45;&gt;task_ba76a2c7&#45;3360&#45;44b8&#45;9fa6&#45;84c20b9b0bd6 -->
<g id="edge_eb759ef2&#45;f8ec&#45;4716&#45;b828&#45;be41b9cfe090" class="edge">
<title>task&#45;prepare&#45;hypervisors&#45;&gt;task_ba76a2c7&#45;3360&#45;44b8&#45;9fa6&#45;84c20b9b0bd6</title>
<path fill="none" stroke="#000000" stroke-width="2" d="M410.71,-830.35C410.44,-760.49 419.93,-508.03 565.95,-403.54 637,-352.69 1734.17,-367.58 2348.9,-380.07"/>
<polygon fill="#000000" stroke="#000000" stroke-width="2" points="2349.2,-383.58 2359.27,-380.28 2349.35,-376.58 2349.2,-383.58"/>
<text text-anchor="middle" x="1297.45" y="-407.34" font-family="Times,serif" font-size="14.00" fill="#000000">24</text>
</g>
<!-- task_ce6f10c4&#45;18af&#45;4231&#45;8588&#45;cfaddb9b6305 -->
<g id="task_ce6f10c4&#45;18af&#45;4231&#45;8588&#45;cfaddb9b6305" class="node">
<title>task_ce6f10c4&#45;18af&#45;4231&#45;8588&#45;cfaddb9b6305</title>
<g id="a_task_ce6f10c4&#45;18af&#45;4231&#45;8588&#45;cfaddb9b6305"><a xlink:title="[task] kubeinit.kubeinit.kubeinit_libvirt : Add sudoers users to toor group">
<polygon fill="none" stroke="black" points="3140.27,-328.08 3140.27,-343 2917.27,-353.54 2601.9,-353.54 2378.91,-343 2378.91,-328.08 2601.9,-317.54 2917.27,-317.54 3140.27,-328.08"/>
<text text-anchor="middle" x="2759.59" y="-331.84" font-family="Times,serif" font-size="14.00">[task] kubeinit.kubeinit.kubeinit_libvirt : Add sudoers users to toor group</text>
</a>
</g>
</g>
<!-- task&#45;prepare&#45;hypervisors&#45;&gt;task_ce6f10c4&#45;18af&#45;4231&#45;8588&#45;cfaddb9b6305 -->
<g id="edge_eeef993b&#45;7939&#45;4c23&#45;984f&#45;7f821eeb12e9" class="edge">
<title>task&#45;prepare&#45;hypervisors&#45;&gt;task_ce6f10c4&#45;18af&#45;4231&#45;8588&#45;cfaddb9b6305</title>
<path fill="none" stroke="#000000" stroke-width="2" d="M413.8,-830.45C426.67,-748.02 484.02,-409.31 565.95,-348.54 637.93,-295.15 1790.82,-313.28 2395.17,-326.6"/>
<polygon fill="#000000" stroke="#000000" stroke-width="2" points="2395.28,-330.1 2405.36,-326.82 2395.44,-323.1 2395.28,-330.1"/>
<text text-anchor="middle" x="1297.45" y="-352.34" font-family="Times,serif" font-size="14.00" fill="#000000">25</text>
</g>
<!-- task_ce1ec828&#45;ca03&#45;43f8&#45;ab2c&#45;8390f42da6bf -->
<g id="task_ce1ec828&#45;ca03&#45;43f8&#45;ab2c&#45;8390f42da6bf" class="node">
<title>task_ce1ec828&#45;ca03&#45;43f8&#45;ab2c&#45;8390f42da6bf</title>
<g id="a_task_ce1ec828&#45;ca03&#45;43f8&#45;ab2c&#45;8390f42da6bf"><a xlink:title="[task] kubeinit.kubeinit.kubeinit_libvirt : Add cloud user to libvirt">
<polygon fill="none" stroke="black" points="3099.16,-274.08 3099.16,-289 2900.24,-299.54 2618.93,-299.54 2420.01,-289 2420.01,-274.08 2618.93,-263.54 2900.24,-263.54 3099.16,-274.08"/>
<text text-anchor="middle" x="2759.59" y="-277.84" font-family="Times,serif" font-size="14.00">[task] kubeinit.kubeinit.kubeinit_libvirt : Add cloud user to libvirt</text>
</a>
</g>
</g>
<!-- task&#45;prepare&#45;hypervisors&#45;&gt;task_ce1ec828&#45;ca03&#45;43f8&#45;ab2c&#45;8390f42da6bf -->
<g id="edge_dda190b6&#45;647a&#45;48b0&#45;8f57&#45;25532216c0be" class="edge">
<title>task&#45;prepare&#45;hypervisors&#45;&gt;task_ce1ec828&#45;ca03&#45;43f8&#45;ab2c&#45;8390f42da6bf</title>
<path fill="none" stroke="#000000" stroke-width="2" d="M413.24,-830.25C424.15,-741.97 475.95,-361.25 565.95,-292.54 638.53,-237.12 1834.57,-258.61 2428.83,-272.85"/>
<polygon fill="#000000" stroke="#000000" stroke-width="2" points="2428.75,-276.34 2438.83,-273.09 2428.92,-269.35 2428.75,-276.34"/>
<text text-anchor="middle" x="1297.45" y="-296.34" font-family="Times,serif" font-size="14.00" fill="#000000">26</text>
</g>
<!-- task_7d690aa7&#45;026f&#45;49a4&#45;bf93&#45;b409ecf89ee9 -->
<g id="task_7d690aa7&#45;026f&#45;49a4&#45;bf93&#45;b409ecf89ee9" class="node">
<title>task_7d690aa7&#45;026f&#45;49a4&#45;bf93&#45;b409ecf89ee9</title>
<g id="a_task_7d690aa7&#45;026f&#45;49a4&#45;bf93&#45;b409ecf89ee9"><a xlink:title="[task] kubeinit.kubeinit.kubeinit_libvirt : Create ssh folder">
<polygon fill="none" stroke="black" points="3064.31,-220.08 3064.31,-235 2885.81,-245.54 2633.37,-245.54 2454.86,-235 2454.86,-220.08 2633.37,-209.54 2885.81,-209.54 3064.31,-220.08"/>
<text text-anchor="middle" x="2759.59" y="-223.84" font-family="Times,serif" font-size="14.00">[task] kubeinit.kubeinit.kubeinit_libvirt : Create ssh folder</text>
</a>
</g>
</g>
<!-- task&#45;prepare&#45;hypervisors&#45;&gt;task_7d690aa7&#45;026f&#45;49a4&#45;bf93&#45;b409ecf89ee9 -->
<g id="edge_ae0ea261&#45;97b3&#45;4cc9&#45;b27e&#45;7615c1a03022" class="edge">
<title>task&#45;prepare&#45;hypervisors&#45;&gt;task_7d690aa7&#45;026f&#45;49a4&#45;bf93&#45;b409ecf89ee9</title>
<path fill="none" stroke="#000000" stroke-width="2" d="M412.75,-830.36C421.8,-737.14 467.88,-314.21 565.95,-237.54 638.97,-180.45 1870.32,-204.45 2454.99,-219.19"/>
<polygon fill="#000000" stroke="#000000" stroke-width="2" points="2455.18,-222.7 2465.26,-219.45 2455.35,-215.7 2455.18,-222.7"/>
<text text-anchor="middle" x="1297.45" y="-241.34" font-family="Times,serif" font-size="14.00" fill="#000000">27</text>
</g>
<!-- task_ebc51a0f&#45;da82&#45;40dc&#45;928a&#45;1c9bf861aa62 -->
<g id="task_ebc51a0f&#45;da82&#45;40dc&#45;928a&#45;1c9bf861aa62" class="node">
<title>task_ebc51a0f&#45;da82&#45;40dc&#45;928a&#45;1c9bf861aa62</title>
<g id="a_task_ebc51a0f&#45;da82&#45;40dc&#45;928a&#45;1c9bf861aa62"><a xlink:title="[task] kubeinit.kubeinit.kubeinit_libvirt : Generate an OpenSSH keypair with the default values (4096 bits, rsa)">
<polygon fill="none" stroke="black" points="3330.15,-166.08 3330.15,-181 2995.92,-191.54 2523.25,-191.54 2189.02,-181 2189.02,-166.08 2523.25,-155.54 2995.92,-155.54 3330.15,-166.08"/>
<text text-anchor="middle" x="2759.59" y="-169.84" font-family="Times,serif" font-size="14.00">[task] kubeinit.kubeinit.kubeinit_libvirt : Generate an OpenSSH keypair with the default values (4096 bits, rsa)</text>
</a>
</g>
</g>
<!-- task&#45;prepare&#45;hypervisors&#45;&gt;task_ebc51a0f&#45;da82&#45;40dc&#45;928a&#45;1c9bf861aa62 -->
<g id="edge_874b1a85&#45;d959&#45;464c&#45;9f3f&#45;9d729447e465" class="edge">
<title>task&#45;prepare&#45;hypervisors&#45;&gt;task_ebc51a0f&#45;da82&#45;40dc&#45;928a&#45;1c9bf861aa62</title>
<path fill="none" stroke="#000000" stroke-width="2" d="M412.34,-830.36C419.65,-732.15 459.64,-266.31 565.95,-181.54 633.26,-127.87 1700.66,-146.06 2320.88,-161.35"/>
<polygon fill="#000000" stroke="#000000" stroke-width="2" points="2320.81,-164.85 2330.89,-161.6 2320.98,-157.85 2320.81,-164.85"/>
<text text-anchor="middle" x="1297.45" y="-185.34" font-family="Times,serif" font-size="14.00" fill="#000000">28</text>
</g>
<!-- task_ea37f45b&#45;fb58&#45;492b&#45;80b3&#45;c24a8668657c -->
<g id="task_ea37f45b&#45;fb58&#45;492b&#45;80b3&#45;c24a8668657c" class="node">
<title>task_ea37f45b&#45;fb58&#45;492b&#45;80b3&#45;c24a8668657c</title>
<g id="a_task_ea37f45b&#45;fb58&#45;492b&#45;80b3&#45;c24a8668657c"><a xlink:title="[task] kubeinit.kubeinit.kubeinit_libvirt : Fix owner of the generated pub key">
<polygon fill="none" stroke="black" points="3157.03,-112.08 3157.03,-127 2924.21,-137.54 2594.96,-137.54 2362.14,-127 2362.14,-112.08 2594.96,-101.54 2924.21,-101.54 3157.03,-112.08"/>
<text text-anchor="middle" x="2759.59" y="-115.84" font-family="Times,serif" font-size="14.00">[task] kubeinit.kubeinit.kubeinit_libvirt : Fix owner of the generated pub key</text>
</a>
</g>
</g>
<!-- task&#45;prepare&#45;hypervisors&#45;&gt;task_ea37f45b&#45;fb58&#45;492b&#45;80b3&#45;c24a8668657c -->
<g id="edge_e83a0018&#45;bb86&#45;4808&#45;a6de&#45;15801d39ac71" class="edge">
<title>task&#45;prepare&#45;hypervisors&#45;&gt;task_ea37f45b&#45;fb58&#45;492b&#45;80b3&#45;c24a8668657c</title>
<path fill="none" stroke="#000000" stroke-width="2" d="M412.01,-830.25C417.74,-727.09 451.56,-219.29 565.95,-126.54 636.07,-69.68 1806.37,-93.25 2407.77,-109.27"/>
<polygon fill="#000000" stroke="#000000" stroke-width="2" points="2407.81,-112.77 2417.9,-109.54 2408,-105.77 2407.81,-112.77"/>
<text text-anchor="middle" x="1297.45" y="-130.34" font-family="Times,serif" font-size="14.00" fill="#000000">29</text>
</g>
<!-- task_fc2d83f4&#45;f945&#45;48e1&#45;961a&#45;eb2e84546eff -->
<g id="task_fc2d83f4&#45;f945&#45;48e1&#45;961a&#45;eb2e84546eff" class="node">
<title>task_fc2d83f4&#45;f945&#45;48e1&#45;961a&#45;eb2e84546eff</title>
<g id="a_task_fc2d83f4&#45;f945&#45;48e1&#45;961a&#45;eb2e84546eff"><a xlink:title="[task] kubeinit.kubeinit.kubeinit_libvirt : Insert the default libvirt uri in user&#39;s home">
<polygon fill="none" stroke="black" points="3193.7,-58.08 3193.7,-73 2939.4,-83.54 2579.77,-83.54 2325.48,-73 2325.48,-58.08 2579.77,-47.54 2939.4,-47.54 3193.7,-58.08"/>
<text text-anchor="middle" x="2759.59" y="-61.84" font-family="Times,serif" font-size="14.00">[task] kubeinit.kubeinit.kubeinit_libvirt : Insert the default libvirt uri in user&#39;s home</text>
</a>
</g>
</g>
<!-- task&#45;prepare&#45;hypervisors&#45;&gt;task_fc2d83f4&#45;f945&#45;48e1&#45;961a&#45;eb2e84546eff -->
<g id="edge_783335d4&#45;8fee&#45;4e84&#45;8cc0&#45;373401de401f" class="edge">
<title>task&#45;prepare&#45;hypervisors&#45;&gt;task_fc2d83f4&#45;f945&#45;48e1&#45;961a&#45;eb2e84546eff</title>
<path fill="none" stroke="#000000" stroke-width="2" d="M411.71,-830.27C415.9,-722.55 443.23,-171.47 565.95,-70.54 713.39,50.72 1976,-14.98 2515.64,-49.1"/>
<polygon fill="#000000" stroke="#000000" stroke-width="2" points="2515.69,-52.61 2525.89,-49.75 2516.13,-45.62 2515.69,-52.61"/>
<text text-anchor="middle" x="1297.45" y="-74.34" font-family="Times,serif" font-size="14.00" fill="#000000">30</text>
</g>
</g>
</svg>
