<?xml version="1.0" encoding="UTF-8" standalone="no"?>
<!DOCTYPE svg PUBLIC "-//W3C//DTD SVG 1.1//EN"
 "http://www.w3.org/Graphics/SVG/1.1/DTD/svg11.dtd">
<!-- Generated by graphviz version 2.43.0 (0)
 -->
<!-- Title: kubeinit/playbook.yml  Pages: 1 -->
<svg width="2537pt" height="1467pt"
 viewBox="0.00 0.00 2537.49 1467.23" xmlns="http://www.w3.org/2000/svg" xmlns:xlink="http://www.w3.org/1999/xlink">
<g id="graph0" class="graph" transform="scale(1 1) rotate(0) translate(4 1463.23)">
<title>kubeinit/playbook.yml </title>
<polygon fill="white" stroke="transparent" points="-4,4 -4,-1463.23 2533.49,-1463.23 2533.49,4 -4,4"/>
<!-- kubeinit/playbook.yml -->
<g id="root_node" class="node">
<title>kubeinit/playbook.yml</title>
<ellipse fill="none" stroke="black" stroke-dasharray="1,5" cx="113.09" cy="-748.23" rx="113.18" ry="18"/>
<text text-anchor="middle" x="113.09" y="-744.53" font-family="Times,serif" font-size="14.00">kubeinit/playbook.yml</text>
</g>
<!-- task&#45;create&#45;network -->
<g id="play_b1385fc5&#45;fd0e&#45;4c77&#45;b74a&#45;1adbbb936b3f" class="node">
<title>task&#45;create&#45;network</title>
<g id="a_play_b1385fc5&#45;fd0e&#45;4c77&#45;b74a&#45;1adbbb936b3f"><a xlink:title="localhost">
<polygon fill="none" stroke="#000000" points="495.75,-740.77 495.75,-755.68 430.31,-766.23 337.76,-766.23 272.32,-755.68 272.32,-740.77 337.76,-730.23 430.31,-730.23 495.75,-740.77"/>
<text text-anchor="middle" x="384.04" y="-744.53" font-family="Times,serif" font-size="14.00" fill="#000000">task&#45;create&#45;network</text>
</a>
</g>
</g>
<!-- kubeinit/playbook.yml&#45;&gt;task&#45;create&#45;network -->
<g id="edge_77fa9e6d&#45;21aa&#45;43e7&#45;8074&#45;32616247b209" class="edge">
<title>kubeinit/playbook.yml&#45;&gt;task&#45;create&#45;network</title>
<path fill="none" stroke="#000000" stroke-width="2" d="M226.2,-748.23C237.9,-748.23 249.84,-748.23 261.64,-748.23"/>
<polygon fill="#000000" stroke="#000000" stroke-width="2" points="261.97,-751.73 271.97,-748.23 261.97,-744.73 261.97,-751.73"/>
<text text-anchor="middle" x="249.18" y="-752.03" font-family="Times,serif" font-size="14.00" fill="#000000">3</text>
</g>
<!-- task_91840b72&#45;41f8&#45;4ec8&#45;a987&#45;ede30db65918 -->
<g id="task_91840b72&#45;41f8&#45;4ec8&#45;a987&#45;ede30db65918" class="node">
<title>task_91840b72&#45;41f8&#45;4ec8&#45;a987&#45;ede30db65918</title>
<g id="a_task_91840b72&#45;41f8&#45;4ec8&#45;a987&#45;ede30db65918"><a xlink:title="[task] kubeinit.kubeinit.kubeinit_libvirt : Install OVN central packages in CentOS/RHEL">
<polygon fill="none" stroke="black" points="2376.07,-1415.77 2376.07,-1430.68 2111.95,-1441.23 1738.43,-1441.23 1474.31,-1430.68 1474.31,-1415.77 1738.43,-1405.23 2111.95,-1405.23 2376.07,-1415.77"/>
<text text-anchor="middle" x="1925.19" y="-1419.53" font-family="Times,serif" font-size="14.00">[task] kubeinit.kubeinit.kubeinit_libvirt : Install OVN central packages in CentOS/RHEL</text>
</a>
</g>
</g>
<!-- task&#45;create&#45;network&#45;&gt;task_91840b72&#45;41f8&#45;4ec8&#45;a987&#45;ede30db65918 -->
<g id="edge_b52352a1&#45;0b54&#45;44ce&#45;b6af&#45;7ab665279a45" class="edge">
<title>task&#45;create&#45;network&#45;&gt;task_91840b72&#45;41f8&#45;4ec8&#45;a987&#45;ede30db65918</title>
<path fill="none" stroke="#000000" stroke-width="2" d="M385.75,-766.26C389.94,-861.61 414.66,-1305.95 513.89,-1389.23 594.86,-1457.18 1207.98,-1448.95 1598.7,-1436.38"/>
<polygon fill="#000000" stroke="#000000" stroke-width="2" points="1598.87,-1439.87 1608.75,-1436.05 1598.65,-1432.88 1598.87,-1439.87"/>
<text text-anchor="middle" x="908.39" y="-1448.03" font-family="Times,serif" font-size="14.00" fill="#000000">1 &#160;[when: hostvars[kubeinit_ovn_central_host].distribution_family == &#39;CentOS&#39;]</text>
</g>
<!-- task_48b00c88&#45;afc5&#45;443e&#45;bc63&#45;fe60c5ff8035 -->
<g id="task_48b00c88&#45;afc5&#45;443e&#45;bc63&#45;fe60c5ff8035" class="node">
<title>task_48b00c88&#45;afc5&#45;443e&#45;bc63&#45;fe60c5ff8035</title>
<g id="a_task_48b00c88&#45;afc5&#45;443e&#45;bc63&#45;fe60c5ff8035"><a xlink:title="[task] kubeinit.kubeinit.kubeinit_libvirt : Install OVN central packages in Fedora">
<polygon fill="none" stroke="black" points="2340.31,-1361.77 2340.31,-1376.68 2097.14,-1387.23 1753.24,-1387.23 1510.07,-1376.68 1510.07,-1361.77 1753.24,-1351.23 2097.14,-1351.23 2340.31,-1361.77"/>
<text text-anchor="middle" x="1925.19" y="-1365.53" font-family="Times,serif" font-size="14.00">[task] kubeinit.kubeinit.kubeinit_libvirt : Install OVN central packages in Fedora</text>
</a>
</g>
</g>
<!-- task&#45;create&#45;network&#45;&gt;task_48b00c88&#45;afc5&#45;443e&#45;bc63&#45;fe60c5ff8035 -->
<g id="edge_7e0513fd&#45;1b9a&#45;4369&#45;ab55&#45;f29202c4ecc2" class="edge">
<title>task&#45;create&#45;network&#45;&gt;task_48b00c88&#45;afc5&#45;443e&#45;bc63&#45;fe60c5ff8035</title>
<path fill="none" stroke="#000000" stroke-width="2" d="M386.12,-766.52C391.94,-857.51 422.61,-1259.99 513.89,-1335.23 551.87,-1366.54 1098.42,-1371.93 1499.75,-1371.61"/>
<polygon fill="#000000" stroke="#000000" stroke-width="2" points="1499.8,-1375.11 1509.8,-1371.6 1499.8,-1368.11 1499.8,-1375.11"/>
<text text-anchor="middle" x="908.39" y="-1374.03" font-family="Times,serif" font-size="14.00" fill="#000000">2 &#160;[when: hostvars[kubeinit_ovn_central_host].distribution_family == &#39;Fedora&#39;]</text>
</g>
<!-- task_eef2b609&#45;27b8&#45;4ab6&#45;9785&#45;64a6c351c64d -->
<g id="task_eef2b609&#45;27b8&#45;4ab6&#45;9785&#45;64a6c351c64d" class="node">
<title>task_eef2b609&#45;27b8&#45;4ab6&#45;9785&#45;64a6c351c64d</title>
<g id="a_task_eef2b609&#45;27b8&#45;4ab6&#45;9785&#45;64a6c351c64d"><a xlink:title="[task] kubeinit.kubeinit.kubeinit_libvirt : Install OVN central packages in Ubuntu/Debian">
<polygon fill="none" stroke="black" points="2381.82,-1307.77 2381.82,-1322.68 2114.33,-1333.23 1736.05,-1333.23 1468.56,-1322.68 1468.56,-1307.77 1736.05,-1297.23 2114.33,-1297.23 2381.82,-1307.77"/>
<text text-anchor="middle" x="1925.19" y="-1311.53" font-family="Times,serif" font-size="14.00">[task] kubeinit.kubeinit.kubeinit_libvirt : Install OVN central packages in Ubuntu/Debian</text>
</a>
</g>
</g>
<!-- task&#45;create&#45;network&#45;&gt;task_eef2b609&#45;27b8&#45;4ab6&#45;9785&#45;64a6c351c64d -->
<g id="edge_97ffc060&#45;1ab4&#45;43dc&#45;a691&#45;02711b4d30e5" class="edge">
<title>task&#45;create&#45;network&#45;&gt;task_eef2b609&#45;27b8&#45;4ab6&#45;9785&#45;64a6c351c64d</title>
<path fill="none" stroke="#000000" stroke-width="2" d="M386.53,-766.25C394,-851.61 430.35,-1213.83 513.89,-1281.23 550.89,-1311.08 1061.92,-1317.23 1458.29,-1317.44"/>
<polygon fill="#000000" stroke="#000000" stroke-width="2" points="1458.51,-1320.94 1468.51,-1317.45 1458.51,-1313.94 1458.51,-1320.94"/>
<text text-anchor="middle" x="908.39" y="-1320.03" font-family="Times,serif" font-size="14.00" fill="#000000">3 &#160;[when: hostvars[kubeinit_ovn_central_host].distribution_family == &#39;Debian&#39;]</text>
</g>
<!-- task_6fa327c3&#45;09f2&#45;4f59&#45;b848&#45;e2dd830f200b -->
<g id="task_6fa327c3&#45;09f2&#45;4f59&#45;b848&#45;e2dd830f200b" class="node">
<title>task_6fa327c3&#45;09f2&#45;4f59&#45;b848&#45;e2dd830f200b</title>
<g id="a_task_6fa327c3&#45;09f2&#45;4f59&#45;b848&#45;e2dd830f200b"><a xlink:title="[task] kubeinit.kubeinit.kubeinit_libvirt : Collect all HVs which are not the ovn&#45;central host">
<polygon fill="none" stroke="black" points="2392.84,-1253.77 2392.84,-1268.68 2118.9,-1279.23 1731.49,-1279.23 1457.55,-1268.68 1457.55,-1253.77 1731.49,-1243.23 2118.9,-1243.23 2392.84,-1253.77"/>
<text text-anchor="middle" x="1925.19" y="-1257.53" font-family="Times,serif" font-size="14.00">[task] kubeinit.kubeinit.kubeinit_libvirt : Collect all HVs which are not the ovn&#45;central host</text>
</a>
</g>
</g>
<!-- task&#45;create&#45;network&#45;&gt;task_6fa327c3&#45;09f2&#45;4f59&#45;b848&#45;e2dd830f200b -->
<g id="edge_2f9f547e&#45;cdcf&#45;4e6c&#45;b077&#45;9ff57e95106d" class="edge">
<title>task&#45;create&#45;network&#45;&gt;task_6fa327c3&#45;09f2&#45;4f59&#45;b848&#45;e2dd830f200b</title>
<path fill="none" stroke="#000000" stroke-width="2" d="M387.05,-766.28C396.37,-846.31 438.14,-1167.7 513.89,-1227.23 550.91,-1256.32 1052.48,-1262.73 1447.05,-1263.21"/>
<polygon fill="#000000" stroke="#000000" stroke-width="2" points="1447.22,-1266.71 1457.23,-1263.22 1447.23,-1259.71 1447.22,-1266.71"/>
<text text-anchor="middle" x="908.39" y="-1266.03" font-family="Times,serif" font-size="14.00" fill="#000000">4 &#160;[when: ovn_host not in kubeinit_ovn_central_host]</text>
</g>
<!-- task_1f93fe03&#45;8c3b&#45;4d89&#45;a9d3&#45;12bcf0d8e14d -->
<g id="task_1f93fe03&#45;8c3b&#45;4d89&#45;a9d3&#45;12bcf0d8e14d" class="node">
<title>task_1f93fe03&#45;8c3b&#45;4d89&#45;a9d3&#45;12bcf0d8e14d</title>
<g id="a_task_1f93fe03&#45;8c3b&#45;4d89&#45;a9d3&#45;12bcf0d8e14d"><a xlink:title="[task] kubeinit.kubeinit.kubeinit_libvirt : Install OVN host packages in CentOS/RHEL">
<polygon fill="none" stroke="black" points="2362.84,-1199.77 2362.84,-1214.68 2106.47,-1225.23 1743.91,-1225.23 1487.55,-1214.68 1487.55,-1199.77 1743.91,-1189.23 2106.47,-1189.23 2362.84,-1199.77"/>
<text text-anchor="middle" x="1925.19" y="-1203.53" font-family="Times,serif" font-size="14.00">[task] kubeinit.kubeinit.kubeinit_libvirt : Install OVN host packages in CentOS/RHEL</text>
</a>
</g>
</g>
<!-- task&#45;create&#45;network&#45;&gt;task_1f93fe03&#45;8c3b&#45;4d89&#45;a9d3&#45;12bcf0d8e14d -->
<g id="edge_411a3e62&#45;a691&#45;4275&#45;80f0&#45;ee36c4ed5bad" class="edge">
<title>task&#45;create&#45;network&#45;&gt;task_1f93fe03&#45;8c3b&#45;4d89&#45;a9d3&#45;12bcf0d8e14d</title>
<path fill="none" stroke="#000000" stroke-width="2" d="M387.68,-766.28C398.96,-840.71 445.7,-1122.37 513.89,-1174.23 552.32,-1203.46 1078.6,-1209.2 1477.08,-1209.3"/>
<polygon fill="#000000" stroke="#000000" stroke-width="2" points="1477.36,-1212.8 1487.36,-1209.3 1477.36,-1205.8 1477.36,-1212.8"/>
<text text-anchor="middle" x="908.39" y="-1212.03" font-family="Times,serif" font-size="14.00" fill="#000000">5 &#160;[when: hostvars[ovn_host].distribution_family == &#39;CentOS&#39;]</text>
</g>
<!-- task_f0ca0ad4&#45;771f&#45;4d0b&#45;aefa&#45;7a4c457c93a9 -->
<g id="task_f0ca0ad4&#45;771f&#45;4d0b&#45;aefa&#45;7a4c457c93a9" class="node">
<title>task_f0ca0ad4&#45;771f&#45;4d0b&#45;aefa&#45;7a4c457c93a9</title>
<g id="a_task_f0ca0ad4&#45;771f&#45;4d0b&#45;aefa&#45;7a4c457c93a9"><a xlink:title="[task] kubeinit.kubeinit.kubeinit_libvirt : Install OVN host packages in Fedora">
<polygon fill="none" stroke="black" points="2326.17,-1145.77 2326.17,-1160.68 2091.28,-1171.23 1759.1,-1171.23 1524.21,-1160.68 1524.21,-1145.77 1759.1,-1135.23 2091.28,-1135.23 2326.17,-1145.77"/>
<text text-anchor="middle" x="1925.19" y="-1149.53" font-family="Times,serif" font-size="14.00">[task] kubeinit.kubeinit.kubeinit_libvirt : Install OVN host packages in Fedora</text>
</a>
</g>
</g>
<!-- task&#45;create&#45;network&#45;&gt;task_f0ca0ad4&#45;771f&#45;4d0b&#45;aefa&#45;7a4c457c93a9 -->
<g id="edge_32f1a839&#45;302d&#45;4e18&#45;9178&#45;8aadbdcd57c4" class="edge">
<title>task&#45;create&#45;network&#45;&gt;task_f0ca0ad4&#45;771f&#45;4d0b&#45;aefa&#45;7a4c457c93a9</title>
<path fill="none" stroke="#000000" stroke-width="2" d="M384.69,-766.41C384.62,-828.86 393.79,-1035.56 513.89,-1123.23 554.09,-1152.57 1112.02,-1156.74 1513.88,-1155.88"/>
<polygon fill="#000000" stroke="#000000" stroke-width="2" points="1513.94,-1159.38 1523.93,-1155.86 1513.92,-1152.38 1513.94,-1159.38"/>
<text text-anchor="middle" x="908.39" y="-1159.03" font-family="Times,serif" font-size="14.00" fill="#000000">6 &#160;[when: hostvars[ovn_host].distribution_family == &#39;Fedora&#39;]</text>
</g>
<!-- task_6f3915e7&#45;35e6&#45;4fef&#45;936c&#45;183d2d081cc4 -->
<g id="task_6f3915e7&#45;35e6&#45;4fef&#45;936c&#45;183d2d081cc4" class="node">
<title>task_6f3915e7&#45;35e6&#45;4fef&#45;936c&#45;183d2d081cc4</title>
<g id="a_task_6f3915e7&#45;35e6&#45;4fef&#45;936c&#45;183d2d081cc4"><a xlink:title="[task] kubeinit.kubeinit.kubeinit_libvirt : Install OVN host packages in Ubuntu/Debian">
<polygon fill="none" stroke="black" points="2367.68,-1091.77 2367.68,-1106.68 2108.48,-1117.23 1741.9,-1117.23 1482.7,-1106.68 1482.7,-1091.77 1741.9,-1081.23 2108.48,-1081.23 2367.68,-1091.77"/>
<text text-anchor="middle" x="1925.19" y="-1095.53" font-family="Times,serif" font-size="14.00">[task] kubeinit.kubeinit.kubeinit_libvirt : Install OVN host packages in Ubuntu/Debian</text>
</a>
</g>
</g>
<!-- task&#45;create&#45;network&#45;&gt;task_6f3915e7&#45;35e6&#45;4fef&#45;936c&#45;183d2d081cc4 -->
<g id="edge_7f81e2fe&#45;246c&#45;4adc&#45;94f7&#45;71b2fd2f4be6" class="edge">
<title>task&#45;create&#45;network&#45;&gt;task_6f3915e7&#45;35e6&#45;4fef&#45;936c&#45;183d2d081cc4</title>
<path fill="none" stroke="#000000" stroke-width="2" d="M385.61,-766.25C388.54,-823.61 406.29,-1002.57 513.89,-1077.23 553.36,-1104.62 1074.6,-1106.69 1471.99,-1104.2"/>
<polygon fill="#000000" stroke="#000000" stroke-width="2" points="1472.26,-1107.69 1482.24,-1104.13 1472.21,-1100.69 1472.26,-1107.69"/>
<text text-anchor="middle" x="908.39" y="-1108.03" font-family="Times,serif" font-size="14.00" fill="#000000">7 &#160;[when: hostvars[ovn_host].distribution_family == &#39;Debian&#39;]</text>
</g>
<!-- task_bef41fd2&#45;6976&#45;4b4c&#45;b06d&#45;44ffb27527bb -->
<g id="task_bef41fd2&#45;6976&#45;4b4c&#45;b06d&#45;44ffb27527bb" class="node">
<title>task_bef41fd2&#45;6976&#45;4b4c&#45;b06d&#45;44ffb27527bb</title>
<g id="a_task_bef41fd2&#45;6976&#45;4b4c&#45;b06d&#45;44ffb27527bb"><a xlink:title="[task] kubeinit.kubeinit.kubeinit_libvirt : Refresh firewalld services list to pick up ovn services">
<polygon fill="none" stroke="black" points="2410.51,-1037.77 2410.51,-1052.68 2126.22,-1063.23 1724.16,-1063.23 1439.87,-1052.68 1439.87,-1037.77 1724.16,-1027.23 2126.22,-1027.23 2410.51,-1037.77"/>
<text text-anchor="middle" x="1925.19" y="-1041.53" font-family="Times,serif" font-size="14.00">[task] kubeinit.kubeinit.kubeinit_libvirt : Refresh firewalld services list to pick up ovn services</text>
</a>
</g>
</g>
<!-- task&#45;create&#45;network&#45;&gt;task_bef41fd2&#45;6976&#45;4b4c&#45;b06d&#45;44ffb27527bb -->
<g id="edge_5f165701&#45;4ab1&#45;45fd&#45;868f&#45;0d721d129a0a" class="edge">
<title>task&#45;create&#45;network&#45;&gt;task_bef41fd2&#45;6976&#45;4b4c&#45;b06d&#45;44ffb27527bb</title>
<path fill="none" stroke="#000000" stroke-width="2" d="M387.43,-766.26C395.1,-816.07 424.12,-955.63 513.89,-1013.23 598.08,-1067.24 1149.12,-1065.35 1536.9,-1056.91"/>
<polygon fill="#000000" stroke="#000000" stroke-width="2" points="1537.26,-1060.4 1547.18,-1056.68 1537.11,-1053.4 1537.26,-1060.4"/>
<text text-anchor="middle" x="908.39" y="-1065.03" font-family="Times,serif" font-size="14.00" fill="#000000">8 &#160;[when: hostvars[ovn_host].firewalld_is_active]</text>
</g>
<!-- task_63087e6f&#45;d3fe&#45;4a4b&#45;902b&#45;9caea3a63fcd -->
<g id="task_63087e6f&#45;d3fe&#45;4a4b&#45;902b&#45;9caea3a63fcd" class="node">
<title>task_63087e6f&#45;d3fe&#45;4a4b&#45;902b&#45;9caea3a63fcd</title>
<g id="a_task_63087e6f&#45;d3fe&#45;4a4b&#45;902b&#45;9caea3a63fcd"><a xlink:title="[task] kubeinit.kubeinit.kubeinit_libvirt : Enable OVN central in firewalld">
<polygon fill="none" stroke="black" points="2302.33,-983.77 2302.33,-998.68 2081.41,-1009.23 1768.97,-1009.23 1548.05,-998.68 1548.05,-983.77 1768.97,-973.23 2081.41,-973.23 2302.33,-983.77"/>
<text text-anchor="middle" x="1925.19" y="-987.53" font-family="Times,serif" font-size="14.00">[task] kubeinit.kubeinit.kubeinit_libvirt : Enable OVN central in firewalld</text>
</a>
</g>
</g>
<!-- task&#45;create&#45;network&#45;&gt;task_63087e6f&#45;d3fe&#45;4a4b&#45;902b&#45;9caea3a63fcd -->
<g id="edge_a7d60c3d&#45;eac0&#45;4547&#45;9554&#45;5354a694e184" class="edge">
<title>task&#45;create&#45;network&#45;&gt;task_63087e6f&#45;d3fe&#45;4a4b&#45;902b&#45;9caea3a63fcd</title>
<path fill="none" stroke="#000000" stroke-width="2" d="M389.26,-766.46C400.56,-810.58 436.11,-922.8 513.89,-968.23 557.68,-993.81 1135.47,-995.91 1537.74,-994.21"/>
<polygon fill="#000000" stroke="#000000" stroke-width="2" points="1537.82,-997.71 1547.8,-994.17 1537.79,-990.71 1537.82,-997.71"/>
<text text-anchor="middle" x="908.39" y="-998.03" font-family="Times,serif" font-size="14.00" fill="#000000">9 &#160;[when: hostvars[kubeinit_ovn_central_host].firewalld_is_active]</text>
</g>
<!-- task_429ccd5c&#45;d2f4&#45;4cc4&#45;bf31&#45;e42f2aa16e7a -->
<g id="task_429ccd5c&#45;d2f4&#45;4cc4&#45;bf31&#45;e42f2aa16e7a" class="node">
<title>task_429ccd5c&#45;d2f4&#45;4cc4&#45;bf31&#45;e42f2aa16e7a</title>
<g id="a_task_429ccd5c&#45;d2f4&#45;4cc4&#45;bf31&#45;e42f2aa16e7a"><a xlink:title="[task] kubeinit.kubeinit.kubeinit_libvirt : Enable OVN NAT in firewalld">
<polygon fill="none" stroke="black" points="2288.19,-929.77 2288.19,-944.68 2075.55,-955.23 1774.83,-955.23 1562.19,-944.68 1562.19,-929.77 1774.83,-919.23 2075.55,-919.23 2288.19,-929.77"/>
<text text-anchor="middle" x="1925.19" y="-933.53" font-family="Times,serif" font-size="14.00">[task] kubeinit.kubeinit.kubeinit_libvirt : Enable OVN NAT in firewalld</text>
</a>
</g>
</g>
<!-- task&#45;create&#45;network&#45;&gt;task_429ccd5c&#45;d2f4&#45;4cc4&#45;bf31&#45;e42f2aa16e7a -->
<g id="edge_f7a3f873&#45;ec67&#45;4619&#45;ade6&#45;1f259726da51" class="edge">
<title>task&#45;create&#45;network&#45;&gt;task_429ccd5c&#45;d2f4&#45;4cc4&#45;bf31&#45;e42f2aa16e7a</title>
<path fill="none" stroke="#000000" stroke-width="2" d="M392.96,-766.31C409.5,-801.5 451.43,-878.45 513.89,-909.23 605.95,-954.59 1182.2,-952.55 1569.03,-945.74"/>
<polygon fill="#000000" stroke="#000000" stroke-width="2" points="1569.34,-949.23 1579.27,-945.56 1569.21,-942.23 1569.34,-949.23"/>
<text text-anchor="middle" x="908.39" y="-953.03" font-family="Times,serif" font-size="14.00" fill="#000000">10 &#160;[when: hostvars[kubeinit_ovn_central_host].firewalld_is_active]</text>
</g>
<!-- task_20b5c29b&#45;4431&#45;46a3&#45;a23f&#45;2003bdf10720 -->
<g id="task_20b5c29b&#45;4431&#45;46a3&#45;a23f&#45;2003bdf10720" class="node">
<title>task_20b5c29b&#45;4431&#45;46a3&#45;a23f&#45;2003bdf10720</title>
<g id="a_task_20b5c29b&#45;4431&#45;46a3&#45;a23f&#45;2003bdf10720"><a xlink:title="[task] kubeinit.kubeinit.kubeinit_libvirt : Enable OVN host in firewalld">
<polygon fill="none" stroke="black" points="2289.1,-875.77 2289.1,-890.68 2075.93,-901.23 1774.45,-901.23 1561.28,-890.68 1561.28,-875.77 1774.45,-865.23 2075.93,-865.23 2289.1,-875.77"/>
<text text-anchor="middle" x="1925.19" y="-879.53" font-family="Times,serif" font-size="14.00">[task] kubeinit.kubeinit.kubeinit_libvirt : Enable OVN host in firewalld</text>
</a>
</g>
</g>
<!-- task&#45;create&#45;network&#45;&gt;task_20b5c29b&#45;4431&#45;46a3&#45;a23f&#45;2003bdf10720 -->
<g id="edge_89ff983f&#45;6104&#45;4621&#45;bbb9&#45;e983482214cc" class="edge">
<title>task&#45;create&#45;network&#45;&gt;task_20b5c29b&#45;4431&#45;46a3&#45;a23f&#45;2003bdf10720</title>
<path fill="none" stroke="#000000" stroke-width="2" d="M399.35,-766.26C420.97,-791.89 464.69,-837.8 513.89,-856.23 608.4,-891.63 1166,-892.63 1551.09,-888.86"/>
<polygon fill="#000000" stroke="#000000" stroke-width="2" points="1551.33,-892.36 1561.29,-888.76 1551.26,-885.36 1551.33,-892.36"/>
<text text-anchor="middle" x="908.39" y="-894.03" font-family="Times,serif" font-size="14.00" fill="#000000">11 &#160;[when: hostvars[ovn_host].firewalld_is_active]</text>
</g>
<!-- task_b7310510&#45;1a9c&#45;4b36&#45;863e&#45;dc7da3f5d99c -->
<g id="task_b7310510&#45;1a9c&#45;4b36&#45;863e&#45;dc7da3f5d99c" class="node">
<title>task_b7310510&#45;1a9c&#45;4b36&#45;863e&#45;dc7da3f5d99c</title>
<g id="a_task_b7310510&#45;1a9c&#45;4b36&#45;863e&#45;dc7da3f5d99c"><a xlink:title="[task] kubeinit.kubeinit.kubeinit_libvirt : Refresh firewalld services list">
<polygon fill="none" stroke="black" points="2292.64,-821.77 2292.64,-836.68 2077.39,-847.23 1772.99,-847.23 1557.74,-836.68 1557.74,-821.77 1772.99,-811.23 2077.39,-811.23 2292.64,-821.77"/>
<text text-anchor="middle" x="1925.19" y="-825.53" font-family="Times,serif" font-size="14.00">[task] kubeinit.kubeinit.kubeinit_libvirt : Refresh firewalld services list</text>
</a>
</g>
</g>
<!-- task&#45;create&#45;network&#45;&gt;task_b7310510&#45;1a9c&#45;4b36&#45;863e&#45;dc7da3f5d99c -->
<g id="edge_877586ed&#45;090a&#45;4180&#45;8091&#45;fff795755712" class="edge">
<title>task&#45;create&#45;network&#45;&gt;task_b7310510&#45;1a9c&#45;4b36&#45;863e&#45;dc7da3f5d99c</title>
<path fill="none" stroke="#000000" stroke-width="2" d="M438.08,-765.1C461.13,-771.68 488.6,-778.52 513.89,-782.23 880.54,-836.01 1306.31,-842.64 1593.3,-839.07"/>
<polygon fill="#000000" stroke="#000000" stroke-width="2" points="1593.5,-842.57 1603.45,-838.94 1593.41,-835.57 1593.5,-842.57"/>
<text text-anchor="middle" x="908.39" y="-841.03" font-family="Times,serif" font-size="14.00" fill="#000000">12 &#160;[when: hostvars[ovn_host].firewalld_is_active]</text>
</g>
<!-- task_702db185&#45;d08a&#45;42ab&#45;a3b9&#45;340b4e16c1d0 -->
<g id="task_702db185&#45;d08a&#45;42ab&#45;a3b9&#45;340b4e16c1d0" class="node">
<title>task_702db185&#45;d08a&#45;42ab&#45;a3b9&#45;340b4e16c1d0</title>
<g id="a_task_702db185&#45;d08a&#45;42ab&#45;a3b9&#45;340b4e16c1d0"><a xlink:title="[task] kubeinit.kubeinit.kubeinit_libvirt : Enable and start OVN services in the ovn&#45;central hypervisor (CentOS based)">
<polygon fill="none" stroke="black" points="2527.98,-767.77 2527.98,-782.68 2174.87,-793.23 1675.51,-793.23 1322.4,-782.68 1322.4,-767.77 1675.51,-757.23 2174.87,-757.23 2527.98,-767.77"/>
<text text-anchor="middle" x="1925.19" y="-771.53" font-family="Times,serif" font-size="14.00">[task] kubeinit.kubeinit.kubeinit_libvirt : Enable and start OVN services in the ovn&#45;central hypervisor (CentOS based)</text>
</a>
</g>
</g>
<!-- task&#45;create&#45;network&#45;&gt;task_702db185&#45;d08a&#45;42ab&#45;a3b9&#45;340b4e16c1d0 -->
<g id="edge_3e01392b&#45;4524&#45;43be&#45;bebd&#45;2b34fec7a7e1" class="edge">
<title>task&#45;create&#45;network&#45;&gt;task_702db185&#45;d08a&#45;42ab&#45;a3b9&#45;340b4e16c1d0</title>
<path fill="none" stroke="#000000" stroke-width="2" d="M496.04,-750.18C679.2,-753.39 1056.42,-760.01 1377.19,-765.63"/>
<polygon fill="#000000" stroke="#000000" stroke-width="2" points="1377.56,-769.14 1387.62,-765.82 1377.68,-762.14 1377.56,-769.14"/>
<text text-anchor="middle" x="908.39" y="-767.03" font-family="Times,serif" font-size="14.00" fill="#000000">13 &#160;[when: hostvars[kubeinit_ovn_central_host].distribution_family != &#39;Debian&#39;]</text>
</g>
<!-- task_a4256681&#45;f0ca&#45;452a&#45;9bf6&#45;99eace79850e -->
<g id="task_a4256681&#45;f0ca&#45;452a&#45;9bf6&#45;99eace79850e" class="node">
<title>task_a4256681&#45;f0ca&#45;452a&#45;9bf6&#45;99eace79850e</title>
<g id="a_task_a4256681&#45;f0ca&#45;452a&#45;9bf6&#45;99eace79850e"><a xlink:title="[task] kubeinit.kubeinit.kubeinit_libvirt : Enable and start OVN services in the rest of the hypervisors (CentOS based)">
<polygon fill="none" stroke="black" points="2529.29,-713.77 2529.29,-728.68 2175.42,-739.23 1674.96,-739.23 1321.09,-728.68 1321.09,-713.77 1674.96,-703.23 2175.42,-703.23 2529.29,-713.77"/>
<text text-anchor="middle" x="1925.19" y="-717.53" font-family="Times,serif" font-size="14.00">[task] kubeinit.kubeinit.kubeinit_libvirt : Enable and start OVN services in the rest of the hypervisors (CentOS based)</text>
</a>
</g>
</g>
<!-- task&#45;create&#45;network&#45;&gt;task_a4256681&#45;f0ca&#45;452a&#45;9bf6&#45;99eace79850e -->
<g id="edge_c88c67d7&#45;884e&#45;46be&#45;82df&#45;12e913a1090d" class="edge">
<title>task&#45;create&#45;network&#45;&gt;task_a4256681&#45;f0ca&#45;452a&#45;9bf6&#45;99eace79850e</title>
<path fill="none" stroke="#000000" stroke-width="2" d="M466.33,-735.95C482.08,-734.01 498.47,-732.3 513.89,-731.23 821.07,-709.96 1166.79,-707.17 1439.05,-709.84"/>
<polygon fill="#000000" stroke="#000000" stroke-width="2" points="1439.07,-713.34 1449.11,-709.94 1439.14,-706.34 1439.07,-713.34"/>
<text text-anchor="middle" x="908.39" y="-735.03" font-family="Times,serif" font-size="14.00" fill="#000000">14 &#160;[when: hostvars[ovn_host].distribution_family != &#39;Debian&#39;]</text>
</g>
<!-- task_2620e76f&#45;d653&#45;4510&#45;a813&#45;d89fe4ffa51d -->
<g id="task_2620e76f&#45;d653&#45;4510&#45;a813&#45;d89fe4ffa51d" class="node">
<title>task_2620e76f&#45;d653&#45;4510&#45;a813&#45;d89fe4ffa51d</title>
<g id="a_task_2620e76f&#45;d653&#45;4510&#45;a813&#45;d89fe4ffa51d"><a xlink:title="[task] kubeinit.kubeinit.kubeinit_libvirt : Enable and start OVN services in the ovn&#45;central hypervisor (Ubuntu based)">
<polygon fill="none" stroke="black" points="2527.98,-659.77 2527.98,-674.68 2174.87,-685.23 1675.51,-685.23 1322.4,-674.68 1322.4,-659.77 1675.51,-649.23 2174.87,-649.23 2527.98,-659.77"/>
<text text-anchor="middle" x="1925.19" y="-663.53" font-family="Times,serif" font-size="14.00">[task] kubeinit.kubeinit.kubeinit_libvirt : Enable and start OVN services in the ovn&#45;central hypervisor (Ubuntu based)</text>
</a>
</g>
</g>
<!-- task&#45;create&#45;network&#45;&gt;task_2620e76f&#45;d653&#45;4510&#45;a813&#45;d89fe4ffa51d -->
<g id="edge_cc180640&#45;1e53&#45;4d9a&#45;9ca9&#45;83882befba30" class="edge">
<title>task&#45;create&#45;network&#45;&gt;task_2620e76f&#45;d653&#45;4510&#45;a813&#45;d89fe4ffa51d</title>
<path fill="none" stroke="#000000" stroke-width="2" d="M415.01,-730.16C440.35,-715.98 478.13,-697.32 513.89,-689.23 691.79,-648.98 1140.2,-648.13 1484.05,-654.44"/>
<polygon fill="#000000" stroke="#000000" stroke-width="2" points="1484.13,-657.95 1494.19,-654.63 1484.26,-650.95 1484.13,-657.95"/>
<text text-anchor="middle" x="908.39" y="-693.03" font-family="Times,serif" font-size="14.00" fill="#000000">15 &#160;[when: hostvars[kubeinit_ovn_central_host].distribution_family == &#39;Debian&#39;]</text>
</g>
<!-- task_effe4f09&#45;772a&#45;4b43&#45;8357&#45;39275e5e796b -->
<g id="task_effe4f09&#45;772a&#45;4b43&#45;8357&#45;39275e5e796b" class="node">
<title>task_effe4f09&#45;772a&#45;4b43&#45;8357&#45;39275e5e796b</title>
<g id="a_task_effe4f09&#45;772a&#45;4b43&#45;8357&#45;39275e5e796b"><a xlink:title="[task] kubeinit.kubeinit.kubeinit_libvirt : Enable and start OVN services in the rest of the hypervisors (Ubuntu based)">
<polygon fill="none" stroke="black" points="2528.88,-605.77 2528.88,-620.68 2175.25,-631.23 1675.13,-631.23 1321.5,-620.68 1321.5,-605.77 1675.13,-595.23 2175.25,-595.23 2528.88,-605.77"/>
<text text-anchor="middle" x="1925.19" y="-609.53" font-family="Times,serif" font-size="14.00">[task] kubeinit.kubeinit.kubeinit_libvirt : Enable and start OVN services in the rest of the hypervisors (Ubuntu based)</text>
</a>
</g>
</g>
<!-- task&#45;create&#45;network&#45;&gt;task_effe4f09&#45;772a&#45;4b43&#45;8357&#45;39275e5e796b -->
<g id="edge_bd974706&#45;8cb9&#45;4a61&#45;b6a3&#45;651bcab86547" class="edge">
<title>task&#45;create&#45;network&#45;&gt;task_effe4f09&#45;772a&#45;4b43&#45;8357&#45;39275e5e796b</title>
<path fill="none" stroke="#000000" stroke-width="2" d="M397.98,-730.21C418.79,-702.96 462.6,-652.31 513.89,-632.23 596.96,-599.7 1042.49,-598.05 1410.88,-602.66"/>
<polygon fill="#000000" stroke="#000000" stroke-width="2" points="1410.89,-606.16 1420.94,-602.79 1410.98,-599.16 1410.89,-606.16"/>
<text text-anchor="middle" x="908.39" y="-636.03" font-family="Times,serif" font-size="14.00" fill="#000000">16 &#160;[when: hostvars[ovn_host].distribution_family == &#39;Debian&#39;]</text>
</g>
<!-- task_3f893bbd&#45;b129&#45;41f9&#45;af99&#45;cf1b4cd150b8 -->
<g id="task_3f893bbd&#45;b129&#45;41f9&#45;af99&#45;cf1b4cd150b8" class="node">
<title>task_3f893bbd&#45;b129&#45;41f9&#45;af99&#45;cf1b4cd150b8</title>
<g id="a_task_3f893bbd&#45;b129&#45;41f9&#45;af99&#45;cf1b4cd150b8"><a xlink:title="[task] kubeinit.kubeinit.kubeinit_libvirt : Configure OVS on the Hypervisors">
<polygon fill="none" stroke="black" points="2316.47,-551.77 2316.47,-566.68 2087.27,-577.23 1763.12,-577.23 1533.91,-566.68 1533.91,-551.77 1763.12,-541.23 2087.27,-541.23 2316.47,-551.77"/>
<text text-anchor="middle" x="1925.19" y="-555.53" font-family="Times,serif" font-size="14.00">[task] kubeinit.kubeinit.kubeinit_libvirt : Configure OVS on the Hypervisors</text>
</a>
</g>
</g>
<!-- task&#45;create&#45;network&#45;&gt;task_3f893bbd&#45;b129&#45;41f9&#45;af99&#45;cf1b4cd150b8 -->
<g id="edge_740f21ea&#45;61f8&#45;46df&#45;9bc6&#45;ec8481f6b6e8" class="edge">
<title>task&#45;create&#45;network&#45;&gt;task_3f893bbd&#45;b129&#45;41f9&#45;af99&#45;cf1b4cd150b8</title>
<path fill="none" stroke="#000000" stroke-width="2" d="M392.5,-730.03C408.49,-693.78 449.89,-613.31 513.89,-581.23 606.32,-534.9 1190.53,-540.12 1577.46,-549.04"/>
<polygon fill="#000000" stroke="#000000" stroke-width="2" points="1577.63,-552.55 1587.71,-549.28 1577.79,-545.55 1577.63,-552.55"/>
<text text-anchor="middle" x="908.39" y="-585.03" font-family="Times,serif" font-size="14.00" fill="#000000">17</text>
</g>
<!-- task_7b1e83a9&#45;f80b&#45;440f&#45;9508&#45;51527131763e -->
<g id="task_7b1e83a9&#45;f80b&#45;440f&#45;9508&#45;51527131763e" class="node">
<title>task_7b1e83a9&#45;f80b&#45;440f&#45;9508&#45;51527131763e</title>
<g id="a_task_7b1e83a9&#45;f80b&#45;440f&#45;9508&#45;51527131763e"><a xlink:title="[task] kubeinit.kubeinit.kubeinit_libvirt : Configure OVN in the ovn&#45;central hypervisor">
<polygon fill="none" stroke="black" points="2367.68,-497.77 2367.68,-512.68 2108.48,-523.23 1741.9,-523.23 1482.7,-512.68 1482.7,-497.77 1741.9,-487.23 2108.48,-487.23 2367.68,-497.77"/>
<text text-anchor="middle" x="1925.19" y="-501.53" font-family="Times,serif" font-size="14.00">[task] kubeinit.kubeinit.kubeinit_libvirt : Configure OVN in the ovn&#45;central hypervisor</text>
</a>
</g>
</g>
<!-- task&#45;create&#45;network&#45;&gt;task_7b1e83a9&#45;f80b&#45;440f&#45;9508&#45;51527131763e -->
<g id="edge_43b784be&#45;ecdd&#45;441b&#45;839b&#45;b9f1d927fe1c" class="edge">
<title>task&#45;create&#45;network&#45;&gt;task_7b1e83a9&#45;f80b&#45;440f&#45;9508&#45;51527131763e</title>
<path fill="none" stroke="#000000" stroke-width="2" d="M389.03,-729.91C399.91,-685.02 434.74,-569.79 513.89,-523.23 604.44,-469.97 1207.29,-480.02 1594.94,-492.44"/>
<polygon fill="#000000" stroke="#000000" stroke-width="2" points="1595.09,-495.95 1605.2,-492.77 1595.32,-488.95 1595.09,-495.95"/>
<text text-anchor="middle" x="908.39" y="-527.03" font-family="Times,serif" font-size="14.00" fill="#000000">18</text>
</g>
<!-- task_b4cd5904&#45;29c3&#45;44ef&#45;8b77&#45;c8d279042c75 -->
<g id="task_b4cd5904&#45;29c3&#45;44ef&#45;8b77&#45;c8d279042c75" class="node">
<title>task_b4cd5904&#45;29c3&#45;44ef&#45;8b77&#45;c8d279042c75</title>
<g id="a_task_b4cd5904&#45;29c3&#45;44ef&#45;8b77&#45;c8d279042c75"><a xlink:title="[task] kubeinit.kubeinit.kubeinit_libvirt : Remove and create the cluster switch if exists">
<polygon fill="none" stroke="black" points="2376.07,-443.77 2376.07,-458.68 2111.95,-469.23 1738.43,-469.23 1474.31,-458.68 1474.31,-443.77 1738.43,-433.23 2111.95,-433.23 2376.07,-443.77"/>
<text text-anchor="middle" x="1925.19" y="-447.53" font-family="Times,serif" font-size="14.00">[task] kubeinit.kubeinit.kubeinit_libvirt : Remove and create the cluster switch if exists</text>
</a>
</g>
</g>
<!-- task&#45;create&#45;network&#45;&gt;task_b4cd5904&#45;29c3&#45;44ef&#45;8b77&#45;c8d279042c75 -->
<g id="edge_a38ce1e8&#45;d854&#45;4266&#45;a1b3&#45;62c56c55a0a0" class="edge">
<title>task&#45;create&#45;network&#45;&gt;task_b4cd5904&#45;29c3&#45;44ef&#45;8b77&#45;c8d279042c75</title>
<path fill="none" stroke="#000000" stroke-width="2" d="M386.77,-729.96C392.84,-677.38 418.34,-525.47 513.89,-463.23 604.32,-404.32 1239.14,-420.86 1625.59,-436.87"/>
<polygon fill="#000000" stroke="#000000" stroke-width="2" points="1625.68,-440.38 1635.81,-437.29 1625.97,-433.38 1625.68,-440.38"/>
<text text-anchor="middle" x="908.39" y="-467.03" font-family="Times,serif" font-size="14.00" fill="#000000">19 &#160;[when: kubeinit_libvirt_destroy_nets|bool and not kubeinit_libvirt_multicluster_keep_predefined_networks]</text>
</g>
<!-- task_296b9117&#45;7df0&#45;4943&#45;9785&#45;81d7ede77906 -->
<g id="task_296b9117&#45;7df0&#45;4943&#45;9785&#45;81d7ede77906" class="node">
<title>task_296b9117&#45;7df0&#45;4943&#45;9785&#45;81d7ede77906</title>
<g id="a_task_296b9117&#45;7df0&#45;4943&#45;9785&#45;81d7ede77906"><a xlink:title="[task] kubeinit.kubeinit.kubeinit_libvirt : Create OVS/OVN bindings for the VMs ports">
<polygon fill="none" stroke="black" points="2366.37,-389.77 2366.37,-404.68 2107.93,-415.23 1742.45,-415.23 1484.01,-404.68 1484.01,-389.77 1742.45,-379.23 2107.93,-379.23 2366.37,-389.77"/>
<text text-anchor="middle" x="1925.19" y="-393.53" font-family="Times,serif" font-size="14.00">[task] kubeinit.kubeinit.kubeinit_libvirt : Create OVS/OVN bindings for the VMs ports</text>
</a>
</g>
</g>
<!-- task&#45;create&#45;network&#45;&gt;task_296b9117&#45;7df0&#45;4943&#45;9785&#45;81d7ede77906 -->
<g id="edge_7d4256c1&#45;9a25&#45;4940&#45;af1c&#45;c67fdb732236" class="edge">
<title>task&#45;create&#45;network&#45;&gt;task_296b9117&#45;7df0&#45;4943&#45;9785&#45;81d7ede77906</title>
<path fill="none" stroke="#000000" stroke-width="2" d="M385.2,-730.1C386.86,-670.64 401.11,-480.87 513.89,-402.23 555.02,-373.55 1121,-379.53 1523.28,-387.55"/>
<polygon fill="#000000" stroke="#000000" stroke-width="2" points="1523.28,-391.05 1533.35,-387.75 1523.42,-384.05 1523.28,-391.05"/>
<text text-anchor="middle" x="908.39" y="-406.03" font-family="Times,serif" font-size="14.00" fill="#000000">20</text>
</g>
<!-- task_f34df811&#45;f535&#45;4c0e&#45;88e1&#45;8c6c7d927cfb -->
<g id="task_f34df811&#45;f535&#45;4c0e&#45;88e1&#45;8c6c7d927cfb" class="node">
<title>task_f34df811&#45;f535&#45;4c0e&#45;88e1&#45;8c6c7d927cfb</title>
<g id="a_task_f34df811&#45;f535&#45;4c0e&#45;88e1&#45;8c6c7d927cfb"><a xlink:title="[task] kubeinit.kubeinit.kubeinit_libvirt : Configuring a router connected to the guests switch">
<polygon fill="none" stroke="black" points="2405.66,-335.77 2405.66,-350.68 2124.21,-361.23 1726.17,-361.23 1444.72,-350.68 1444.72,-335.77 1726.17,-325.23 2124.21,-325.23 2405.66,-335.77"/>
<text text-anchor="middle" x="1925.19" y="-339.53" font-family="Times,serif" font-size="14.00">[task] kubeinit.kubeinit.kubeinit_libvirt : Configuring a router connected to the guests switch</text>
</a>
</g>
</g>
<!-- task&#45;create&#45;network&#45;&gt;task_f34df811&#45;f535&#45;4c0e&#45;88e1&#45;8c6c7d927cfb -->
<g id="edge_66092209&#45;fe22&#45;4036&#45;bbab&#45;8778f9598240" class="edge">
<title>task&#45;create&#45;network&#45;&gt;task_f34df811&#45;f535&#45;4c0e&#45;88e1&#45;8c6c7d927cfb</title>
<path fill="none" stroke="#000000" stroke-width="2" d="M384.45,-729.89C383.53,-665.93 390.11,-451.68 513.89,-361.23 600.42,-298 1228.18,-312.83 1616.43,-328.53"/>
<polygon fill="#000000" stroke="#000000" stroke-width="2" points="1616.57,-332.04 1626.7,-328.95 1616.85,-325.04 1616.57,-332.04"/>
<text text-anchor="middle" x="908.39" y="-365.03" font-family="Times,serif" font-size="14.00" fill="#000000">21</text>
</g>
<!-- task_b2ce93db&#45;7a26&#45;40a4&#45;9474&#45;52416daa25f6 -->
<g id="task_b2ce93db&#45;7a26&#45;40a4&#45;9474&#45;52416daa25f6" class="node">
<title>task_b2ce93db&#45;7a26&#45;40a4&#45;9474&#45;52416daa25f6</title>
<g id="a_task_b2ce93db&#45;7a26&#45;40a4&#45;9474&#45;52416daa25f6"><a xlink:title="[task] kubeinit.kubeinit.kubeinit_libvirt : Configuring NAT">
<polygon fill="none" stroke="black" points="2226.38,-281.77 2226.38,-296.68 2049.95,-307.23 1800.43,-307.23 1624,-296.68 1624,-281.77 1800.43,-271.23 2049.95,-271.23 2226.38,-281.77"/>
<text text-anchor="middle" x="1925.19" y="-285.53" font-family="Times,serif" font-size="14.00">[task] kubeinit.kubeinit.kubeinit_libvirt : Configuring NAT</text>
</a>
</g>
</g>
<!-- task&#45;create&#45;network&#45;&gt;task_b2ce93db&#45;7a26&#45;40a4&#45;9474&#45;52416daa25f6 -->
<g id="edge_deb48021&#45;61ad&#45;42e2&#45;ab3e&#45;27cbc1de1e2d" class="edge">
<title>task&#45;create&#45;network&#45;&gt;task_b2ce93db&#45;7a26&#45;40a4&#45;9474&#45;52416daa25f6</title>
<path fill="none" stroke="#000000" stroke-width="2" d="M387.32,-730.07C397.49,-652.49 441.34,-350.27 513.89,-295.23 557.12,-262.44 1216.69,-272.18 1618.31,-281.28"/>
<polygon fill="#000000" stroke="#000000" stroke-width="2" points="1618.27,-284.78 1628.34,-281.51 1618.43,-277.78 1618.27,-284.78"/>
<text text-anchor="middle" x="908.39" y="-299.03" font-family="Times,serif" font-size="14.00" fill="#000000">22 &#160;[when: not hostvars[kubeinit_ovn_central_host].firewalld_is_active]</text>
</g>
<!-- task_99b82be7&#45;75c0&#45;4282&#45;bc10&#45;da32c219e974 -->
<g id="task_99b82be7&#45;75c0&#45;4282&#45;bc10&#45;da32c219e974" class="node">
<title>task_99b82be7&#45;75c0&#45;4282&#45;bc10&#45;da32c219e974</title>
<g id="a_task_99b82be7&#45;75c0&#45;4282&#45;bc10&#45;da32c219e974"><a xlink:title="[task] kubeinit.kubeinit.kubeinit_libvirt : Render KubeInit networks for debugging">
<polygon fill="none" stroke="black" points="2349.6,-227.77 2349.6,-242.68 2100.99,-253.23 1749.39,-253.23 1500.78,-242.68 1500.78,-227.77 1749.39,-217.23 2100.99,-217.23 2349.6,-227.77"/>
<text text-anchor="middle" x="1925.19" y="-231.53" font-family="Times,serif" font-size="14.00">[task] kubeinit.kubeinit.kubeinit_libvirt : Render KubeInit networks for debugging</text>
</a>
</g>
</g>
<!-- task&#45;create&#45;network&#45;&gt;task_99b82be7&#45;75c0&#45;4282&#45;bc10&#45;da32c219e974 -->
<g id="edge_f2e5ff27&#45;cd34&#45;4bcc&#45;ba75&#45;76f618a84e27" class="edge">
<title>task&#45;create&#45;network&#45;&gt;task_99b82be7&#45;75c0&#45;4282&#45;bc10&#45;da32c219e974</title>
<path fill="none" stroke="#000000" stroke-width="2" d="M386.87,-730.11C395.57,-648.29 435.5,-314.62 513.89,-253.23 600.23,-185.6 1256.47,-203.81 1642.63,-220.84"/>
<polygon fill="#000000" stroke="#000000" stroke-width="2" points="1642.7,-224.35 1652.84,-221.29 1643.01,-217.35 1642.7,-224.35"/>
<text text-anchor="middle" x="908.39" y="-257.03" font-family="Times,serif" font-size="14.00" fill="#000000">23</text>
</g>
<!-- task_4c9d58ea&#45;8a18&#45;48b1&#45;ade4&#45;2c317d07bc12 -->
<g id="task_4c9d58ea&#45;8a18&#45;48b1&#45;ade4&#45;2c317d07bc12" class="node">
<title>task_4c9d58ea&#45;8a18&#45;48b1&#45;ade4&#45;2c317d07bc12</title>
<g id="a_task_4c9d58ea&#45;8a18&#45;48b1&#45;ade4&#45;2c317d07bc12"><a xlink:title="[task] kubeinit.kubeinit.kubeinit_libvirt : Define KubeInit networks">
<polygon fill="none" stroke="black" points="2271.43,-173.77 2271.43,-188.68 2068.61,-199.23 1781.77,-199.23 1578.95,-188.68 1578.95,-173.77 1781.77,-163.23 2068.61,-163.23 2271.43,-173.77"/>
<text text-anchor="middle" x="1925.19" y="-177.53" font-family="Times,serif" font-size="14.00">[task] kubeinit.kubeinit.kubeinit_libvirt : Define KubeInit networks</text>
</a>
</g>
</g>
<!-- task&#45;create&#45;network&#45;&gt;task_4c9d58ea&#45;8a18&#45;48b1&#45;ade4&#45;2c317d07bc12 -->
<g id="edge_097f1382&#45;6378&#45;4088&#45;ae82&#45;4e0477f24dff" class="edge">
<title>task&#45;create&#45;network&#45;&gt;task_4c9d58ea&#45;8a18&#45;48b1&#45;ade4&#45;2c317d07bc12</title>
<path fill="none" stroke="#000000" stroke-width="2" d="M386.26,-730.05C392.65,-641.44 425.29,-256.05 513.89,-185.23 555.56,-151.92 1194.19,-162.11 1597.62,-172.01"/>
<polygon fill="#000000" stroke="#000000" stroke-width="2" points="1597.62,-175.51 1607.7,-172.26 1597.79,-168.52 1597.62,-175.51"/>
<text text-anchor="middle" x="908.39" y="-189.03" font-family="Times,serif" font-size="14.00" fill="#000000">24 &#160;[when: kubeinit_libvirt_destroy_nets|bool and not kubeinit_libvirt_multicluster_keep_predefined_networks]</text>
</g>
<!-- task_c8e99937&#45;d4ac&#45;4939&#45;a1ea&#45;aa89a358cb44 -->
<g id="task_c8e99937&#45;d4ac&#45;4939&#45;a1ea&#45;aa89a358cb44" class="node">
<title>task_c8e99937&#45;d4ac&#45;4939&#45;a1ea&#45;aa89a358cb44</title>
<g id="a_task_c8e99937&#45;d4ac&#45;4939&#45;a1ea&#45;aa89a358cb44"><a xlink:title="[task] kubeinit.kubeinit.kubeinit_libvirt : Activate KubeInit networks">
<polygon fill="none" stroke="black" points="2280.22,-119.77 2280.22,-134.68 2072.25,-145.23 1778.13,-145.23 1570.16,-134.68 1570.16,-119.77 1778.13,-109.23 2072.25,-109.23 2280.22,-119.77"/>
<text text-anchor="middle" x="1925.19" y="-123.53" font-family="Times,serif" font-size="14.00">[task] kubeinit.kubeinit.kubeinit_libvirt : Activate KubeInit networks</text>
</a>
</g>
</g>
<!-- task&#45;create&#45;network&#45;&gt;task_c8e99937&#45;d4ac&#45;4939&#45;a1ea&#45;aa89a358cb44 -->
<g id="edge_c17a4241&#45;61b6&#45;458a&#45;8974&#45;680b0fb103ba" class="edge">
<title>task&#45;create&#45;network&#45;&gt;task_c8e99937&#45;d4ac&#45;4939&#45;a1ea&#45;aa89a358cb44</title>
<path fill="none" stroke="#000000" stroke-width="2" d="M385.97,-729.98C391.15,-637.33 419.48,-220.54 513.89,-143.23 553.9,-110.46 1155.43,-113.98 1559.84,-120.16"/>
<polygon fill="#000000" stroke="#000000" stroke-width="2" points="1559.9,-123.66 1569.95,-120.31 1560.01,-116.66 1559.9,-123.66"/>
<text text-anchor="middle" x="908.39" y="-147.03" font-family="Times,serif" font-size="14.00" fill="#000000">25 &#160;[when: kubeinit_libvirt_destroy_nets|bool and not kubeinit_libvirt_multicluster_keep_predefined_networks]</text>
</g>
<!-- task_94f76339&#45;a524&#45;4946&#45;a000&#45;d22988f90d3c -->
<g id="task_94f76339&#45;a524&#45;4946&#45;a000&#45;d22988f90d3c" class="node">
<title>task_94f76339&#45;a524&#45;4946&#45;a000&#45;d22988f90d3c</title>
<g id="a_task_94f76339&#45;a524&#45;4946&#45;a000&#45;d22988f90d3c"><a xlink:title="[task] kubeinit.kubeinit.kubeinit_libvirt : Autostart KubeInit networks">
<polygon fill="none" stroke="black" points="2286.88,-65.77 2286.88,-80.68 2075.01,-91.23 1775.37,-91.23 1563.5,-80.68 1563.5,-65.77 1775.37,-55.23 2075.01,-55.23 2286.88,-65.77"/>
<text text-anchor="middle" x="1925.19" y="-69.53" font-family="Times,serif" font-size="14.00">[task] kubeinit.kubeinit.kubeinit_libvirt : Autostart KubeInit networks</text>
</a>
</g>
</g>
<!-- task&#45;create&#45;network&#45;&gt;task_94f76339&#45;a524&#45;4946&#45;a000&#45;d22988f90d3c -->
<g id="edge_67ce0761&#45;f362&#45;408a&#45;9a48&#45;95cc46390795" class="edge">
<title>task&#45;create&#45;network&#45;&gt;task_94f76339&#45;a524&#45;4946&#45;a000&#45;d22988f90d3c</title>
<path fill="none" stroke="#000000" stroke-width="2" d="M385.67,-730.2C389.5,-633.83 412.72,-180.75 513.89,-96.23 702.47,61.32 1462.15,-14.02 1781.57,-53.93"/>
<polygon fill="#000000" stroke="#000000" stroke-width="2" points="1781.47,-57.44 1791.82,-55.21 1782.34,-50.49 1781.47,-57.44"/>
<text text-anchor="middle" x="908.39" y="-100.03" font-family="Times,serif" font-size="14.00" fill="#000000">26 &#160;[when: kubeinit_libvirt_destroy_nets|bool and not kubeinit_libvirt_multicluster_keep_predefined_networks]</text>
</g>
</g>
</svg>
