<?xml version="1.0" encoding="UTF-8" standalone="no"?>
<!DOCTYPE svg PUBLIC "-//W3C//DTD SVG 1.1//EN"
 "http://www.w3.org/Graphics/SVG/1.1/DTD/svg11.dtd">
<!-- Generated by graphviz version 2.43.0 (0)
 -->
<!-- Title: kubeinit/playbook.yml  Pages: 1 -->
<svg width="2332pt" height="390pt"
 viewBox="0.00 0.00 2331.72 389.72" xmlns="http://www.w3.org/2000/svg" xmlns:xlink="http://www.w3.org/1999/xlink">
<g id="graph0" class="graph" transform="scale(1 1) rotate(0) translate(4 385.72)">
<title>kubeinit/playbook.yml </title>
<polygon fill="white" stroke="transparent" points="-4,4 -4,-385.72 2327.72,-385.72 2327.72,4 -4,4"/>
<!-- kubeinit/playbook.yml -->
<g id="root_node" class="node">
<title>kubeinit/playbook.yml</title>
<ellipse fill="none" stroke="black" stroke-dasharray="1,5" cx="113.09" cy="-205.72" rx="113.18" ry="18"/>
<text text-anchor="middle" x="113.09" y="-202.02" font-family="Times,serif" font-size="14.00">kubeinit/playbook.yml</text>
</g>
<!-- task&#45;download&#45;images -->
<g id="play_483bb818&#45;48d1&#45;49c4&#45;88c4&#45;69641771af53" class="node">
<title>task&#45;download&#45;images</title>
<g id="a_play_483bb818&#45;48d1&#45;49c4&#45;88c4&#45;69641771af53"><a xlink:title="localhost">
<polygon fill="none" stroke="#000000" points="518.51,-198.26 518.51,-213.18 446.33,-223.72 344.25,-223.72 272.07,-213.18 272.07,-198.26 344.25,-187.72 446.33,-187.72 518.51,-198.26"/>
<text text-anchor="middle" x="395.29" y="-202.02" font-family="Times,serif" font-size="14.00" fill="#000000">task&#45;download&#45;images</text>
</a>
</g>
</g>
<!-- kubeinit/playbook.yml&#45;&gt;task&#45;download&#45;images -->
<g id="edge_138d009c&#45;f82b&#45;48e4&#45;a65e&#45;6959cac2a820" class="edge">
<title>kubeinit/playbook.yml&#45;&gt;task&#45;download&#45;images</title>
<path fill="none" stroke="#000000" stroke-width="2" d="M226.44,-205.72C237.98,-205.72 249.79,-205.72 261.52,-205.72"/>
<polygon fill="#000000" stroke="#000000" stroke-width="2" points="261.8,-209.22 271.8,-205.72 261.8,-202.22 261.8,-209.22"/>
<text text-anchor="middle" x="249.18" y="-209.52" font-family="Times,serif" font-size="14.00" fill="#000000">3</text>
</g>
<!-- task_95c79918&#45;a2bd&#45;4573&#45;b287&#45;846d6f03cb9d -->
<g id="task_95c79918&#45;a2bd&#45;4573&#45;b287&#45;846d6f03cb9d" class="node">
<title>task_95c79918&#45;a2bd&#45;4573&#45;b287&#45;846d6f03cb9d</title>
<g id="a_task_95c79918&#45;a2bd&#45;4573&#45;b287&#45;846d6f03cb9d"><a xlink:title="[task] kubeinit.kubeinit.kubeinit_libvirt : Create tuples for hosts and guest vms">
<polygon fill="none" stroke="black" points="2278.83,-333.26 2278.83,-348.18 2038.5,-358.72 1698.62,-358.72 1458.29,-348.18 1458.29,-333.26 1698.62,-322.72 2038.5,-322.72 2278.83,-333.26"/>
<text text-anchor="middle" x="1868.56" y="-337.02" font-family="Times,serif" font-size="14.00">[task] kubeinit.kubeinit.kubeinit_libvirt : Create tuples for hosts and guest vms</text>
</a>
</g>
</g>
<!-- task&#45;download&#45;images&#45;&gt;task_95c79918&#45;a2bd&#45;4573&#45;b287&#45;846d6f03cb9d -->
<g id="edge_37af08d9&#45;22f3&#45;4d18&#45;86fa&#45;436a069f5b2b" class="edge">
<title>task&#45;download&#45;images&#45;&gt;task_95c79918&#45;a2bd&#45;4573&#45;b287&#45;846d6f03cb9d</title>
<path fill="none" stroke="#000000" stroke-width="2" d="M412.14,-224.11C436,-250.25 483.96,-297.04 536.4,-315.72 725.72,-383.15 1272.01,-370.51 1602.98,-355.47"/>
<polygon fill="#000000" stroke="#000000" stroke-width="2" points="1603.37,-358.95 1613.2,-355 1603.05,-351.96 1603.37,-358.95"/>
<text text-anchor="middle" x="965.9" y="-370.52" font-family="Times,serif" font-size="14.00" fill="#000000">1 &#160;[when: hostvars[item[1]].target in item[0]]</text>
</g>
<!-- task_beeffcee&#45;50f4&#45;4bbf&#45;8755&#45;cddbd1b2375b -->
<g id="task_beeffcee&#45;50f4&#45;4bbf&#45;8755&#45;cddbd1b2375b" class="node">
<title>task_beeffcee&#45;50f4&#45;4bbf&#45;8755&#45;cddbd1b2375b</title>
<g id="a_task_beeffcee&#45;50f4&#45;4bbf&#45;8755&#45;cddbd1b2375b"><a xlink:title="[task] kubeinit.kubeinit.kubeinit_libvirt : Create new directories for config files per node">
<polygon fill="none" stroke="black" points="2323.88,-279.26 2323.88,-294.18 2057.16,-304.72 1679.96,-304.72 1413.24,-294.18 1413.24,-279.26 1679.96,-268.72 2057.16,-268.72 2323.88,-279.26"/>
<text text-anchor="middle" x="1868.56" y="-283.02" font-family="Times,serif" font-size="14.00">[task] kubeinit.kubeinit.kubeinit_libvirt : Create new directories for config files per node</text>
</a>
</g>
</g>
<!-- task&#45;download&#45;images&#45;&gt;task_beeffcee&#45;50f4&#45;4bbf&#45;8755&#45;cddbd1b2375b -->
<g id="edge_d2f03142&#45;5e74&#45;4de1&#45;8d14&#45;197a11572e23" class="edge">
<title>task&#45;download&#45;images&#45;&gt;task_beeffcee&#45;50f4&#45;4bbf&#45;8755&#45;cddbd1b2375b</title>
<path fill="none" stroke="#000000" stroke-width="2" d="M450.6,-223.11C476.32,-230.56 507.65,-238.5 536.4,-242.72 847.55,-288.35 1203.8,-297.92 1469.41,-296.86"/>
<polygon fill="#000000" stroke="#000000" stroke-width="2" points="1469.62,-300.36 1479.61,-296.81 1469.59,-293.36 1469.62,-300.36"/>
<text text-anchor="middle" x="965.9" y="-300.52" font-family="Times,serif" font-size="14.00" fill="#000000">2</text>
</g>
<!-- task_33ec4e21&#45;0e6b&#45;45cb&#45;a82d&#45;27e746c81b46 -->
<g id="task_33ec4e21&#45;0e6b&#45;45cb&#45;a82d&#45;27e746c81b46" class="node">
<title>task_33ec4e21&#45;0e6b&#45;45cb&#45;a82d&#45;27e746c81b46</title>
<g id="a_task_33ec4e21&#45;0e6b&#45;45cb&#45;a82d&#45;27e746c81b46"><a xlink:title="[task] kubeinit.kubeinit.kubeinit_libvirt : Create tuples for hosts and cloud images">
<polygon fill="none" stroke="black" points="2292.97,-225.26 2292.97,-240.18 2044.36,-250.72 1692.76,-250.72 1444.15,-240.18 1444.15,-225.26 1692.76,-214.72 2044.36,-214.72 2292.97,-225.26"/>
<text text-anchor="middle" x="1868.56" y="-229.02" font-family="Times,serif" font-size="14.00">[task] kubeinit.kubeinit.kubeinit_libvirt : Create tuples for hosts and cloud images</text>
</a>
</g>
</g>
<!-- task&#45;download&#45;images&#45;&gt;task_33ec4e21&#45;0e6b&#45;45cb&#45;a82d&#45;27e746c81b46 -->
<g id="edge_f2bc4934&#45;7159&#45;46c1&#45;8e10&#45;3fe035721e63" class="edge">
<title>task&#45;download&#45;images&#45;&gt;task_33ec4e21&#45;0e6b&#45;45cb&#45;a82d&#45;27e746c81b46</title>
<path fill="none" stroke="#000000" stroke-width="2" d="M518.57,-207.96C718.44,-211.63 1124.35,-219.08 1438.95,-224.85"/>
<polygon fill="#000000" stroke="#000000" stroke-width="2" points="1439.11,-228.36 1449.17,-225.04 1439.24,-221.36 1439.11,-228.36"/>
<text text-anchor="middle" x="965.9" y="-227.52" font-family="Times,serif" font-size="14.00" fill="#000000">3 &#160;[when: hostvars[guest_vm].target in hypervisor and kubeinit_libvirt_cloud_images[kubeinit_cluster_distro] is defined]</text>
</g>
<!-- task_47caa2fc&#45;708f&#45;4a10&#45;bc0a&#45;e726a363c49f -->
<g id="task_47caa2fc&#45;708f&#45;4a10&#45;bc0a&#45;e726a363c49f" class="node">
<title>task_47caa2fc&#45;708f&#45;4a10&#45;bc0a&#45;e726a363c49f</title>
<g id="a_task_47caa2fc&#45;708f&#45;4a10&#45;bc0a&#45;e726a363c49f"><a xlink:title="[task] kubeinit.kubeinit.kubeinit_libvirt : Remove duplicates">
<polygon fill="none" stroke="black" points="2181.67,-171.26 2181.67,-186.18 1998.26,-196.72 1738.87,-196.72 1555.45,-186.18 1555.45,-171.26 1738.87,-160.72 1998.26,-160.72 2181.67,-171.26"/>
<text text-anchor="middle" x="1868.56" y="-175.02" font-family="Times,serif" font-size="14.00">[task] kubeinit.kubeinit.kubeinit_libvirt : Remove duplicates</text>
</a>
</g>
</g>
<!-- task&#45;download&#45;images&#45;&gt;task_47caa2fc&#45;708f&#45;4a10&#45;bc0a&#45;e726a363c49f -->
<g id="edge_1916939c&#45;631b&#45;4f70&#45;b76c&#45;6dd636d609ef" class="edge">
<title>task&#45;download&#45;images&#45;&gt;task_47caa2fc&#45;708f&#45;4a10&#45;bc0a&#45;e726a363c49f</title>
<path fill="none" stroke="#000000" stroke-width="2" d="M485.47,-193.37C502.35,-191.46 519.9,-189.78 536.4,-188.72 881.24,-166.58 1277.34,-166.89 1547.2,-170.98"/>
<polygon fill="#000000" stroke="#000000" stroke-width="2" points="1547.5,-174.48 1557.55,-171.14 1547.61,-167.48 1547.5,-174.48"/>
<text text-anchor="middle" x="965.9" y="-192.52" font-family="Times,serif" font-size="14.00" fill="#000000">4</text>
</g>
<!-- task_1a8fe862&#45;fd42&#45;4c46&#45;889e&#45;44df81f36e21 -->
<g id="task_1a8fe862&#45;fd42&#45;4c46&#45;889e&#45;44df81f36e21" class="node">
<title>task_1a8fe862&#45;fd42&#45;4c46&#45;889e&#45;44df81f36e21</title>
<g id="a_task_1a8fe862&#45;fd42&#45;4c46&#45;889e&#45;44df81f36e21"><a xlink:title="[task] kubeinit.kubeinit.kubeinit_libvirt : Download cloud images">
<polygon fill="none" stroke="black" points="2205.51,-117.26 2205.51,-132.18 2008.13,-142.72 1728.99,-142.72 1531.62,-132.18 1531.62,-117.26 1728.99,-106.72 2008.13,-106.72 2205.51,-117.26"/>
<text text-anchor="middle" x="1868.56" y="-121.02" font-family="Times,serif" font-size="14.00">[task] kubeinit.kubeinit.kubeinit_libvirt : Download cloud images</text>
</a>
</g>
</g>
<!-- task&#45;download&#45;images&#45;&gt;task_1a8fe862&#45;fd42&#45;4c46&#45;889e&#45;44df81f36e21 -->
<g id="edge_dc191faa&#45;1b5d&#45;42ee&#45;aab5&#45;f99219c2f64d" class="edge">
<title>task&#45;download&#45;images&#45;&gt;task_1a8fe862&#45;fd42&#45;4c46&#45;889e&#45;44df81f36e21</title>
<path fill="none" stroke="#000000" stroke-width="2" d="M431.19,-187.65C458.89,-174.33 499.04,-157.27 536.4,-149.72 717.33,-113.14 1190.66,-112.47 1521.1,-117.15"/>
<polygon fill="#000000" stroke="#000000" stroke-width="2" points="1521.28,-120.65 1531.33,-117.29 1521.38,-113.65 1521.28,-120.65"/>
<text text-anchor="middle" x="965.9" y="-153.52" font-family="Times,serif" font-size="14.00" fill="#000000">5</text>
</g>
<!-- task_c1714c1b&#45;6d0e&#45;4bc8&#45;8b42&#45;9a249e6fcd07 -->
<g id="task_c1714c1b&#45;6d0e&#45;4bc8&#45;8b42&#45;9a249e6fcd07" class="node">
<title>task_c1714c1b&#45;6d0e&#45;4bc8&#45;8b42&#45;9a249e6fcd07</title>
<g id="a_task_c1714c1b&#45;6d0e&#45;4bc8&#45;8b42&#45;9a249e6fcd07"><a xlink:title="[task] kubeinit.kubeinit.kubeinit_libvirt : Update packages in cloud images">
<polygon fill="none" stroke="black" points="2255,-63.26 2255,-78.18 2028.63,-88.72 1708.5,-88.72 1482.13,-78.18 1482.13,-63.26 1708.5,-52.72 2028.63,-52.72 2255,-63.26"/>
<text text-anchor="middle" x="1868.56" y="-67.02" font-family="Times,serif" font-size="14.00">[task] kubeinit.kubeinit.kubeinit_libvirt : Update packages in cloud images</text>
</a>
</g>
</g>
<!-- task&#45;download&#45;images&#45;&gt;task_c1714c1b&#45;6d0e&#45;4bc8&#45;8b42&#45;9a249e6fcd07 -->
<g id="edge_4d131477&#45;1b71&#45;43cd&#45;a118&#45;8f5c668ee1ee" class="edge">
<title>task&#45;download&#45;images&#45;&gt;task_c1714c1b&#45;6d0e&#45;4bc8&#45;8b42&#45;9a249e6fcd07</title>
<path fill="none" stroke="#000000" stroke-width="2" d="M412.14,-187.33C436,-161.19 483.96,-114.4 536.4,-95.72 969.8,58.65 1533.96,-11.91 1763.56,-50.96"/>
<polygon fill="#000000" stroke="#000000" stroke-width="2" points="1763.12,-54.43 1773.57,-52.68 1764.31,-47.53 1763.12,-54.43"/>
<text text-anchor="middle" x="965.9" y="-99.52" font-family="Times,serif" font-size="14.00" fill="#000000">6</text>
</g>
</g>
</svg>
