<?xml version='1.0' encoding='UTF-8'?>
<!DOCTYPE svg PUBLIC "-//W3C//DTD SVG 1.1//EN" "http://www.w3.org/Graphics/SVG/1.1/DTD/svg11.dtd">
<!-- Generated by graphviz version 2.40.1 (20161225.0304)
 --><!-- Title: ./playbooks/submariner.yml  Pages: 1 --><svg xmlns="http://www.w3.org/2000/svg" xmlns:xlink="http://www.w3.org/1999/xlink" width="2347pt" height="1183pt" viewBox="0.00 0.00 2347.50 1182.65" id="svg">
<script type="text/javascript" href="https://ajax.googleapis.com/ajax/libs/jquery/3.2.1/jquery.min.js" id="jquery"/><script type="text/javascript" id="my_javascript"><![CDATA[const HOVER_CLASS = "my_hover";

var selectedElement = null;

function addClass(rootElement) {
    $(rootElement).find('link').each(function (index, element) {
        var target = $(element).attr('target');
        var currentElement = $('#' + target);
        currentElement.addClass(HOVER_CLASS);

        addClass(currentElement);
    })
}

function removeClass(rootElement, hover) {
    $(rootElement).find('link').each(function (index, element) {
        if ($(rootElement).attr('id') !== $(selectedElement).attr('id') || !hover) {
            var target = $(element).attr('target');
            var currentElement = $('#' + target);
            currentElement.removeClass(HOVER_CLASS);

            removeClass(currentElement);
        }

    })
}

function hoverIn(event) {
    addClass(event.currentTarget);
}

function hoverOut(event) {
    removeClass(event.currentTarget, true);
}

function clickOnElement(event) {
    var newElement = event.currentTarget;

    if ($(newElement).attr('id') === $(selectedElement).attr('id')) {
        removeClass(selectedElement, false);
    } else {
        removeClass(selectedElement);
        addClass(newElement)
    }

    selectedElement = newElement;
}


$("#svg").ready(function () {

    $("g[id^=play_]").hover(hoverIn, hoverOut);
    $("g[id^=role_]").hover(hoverIn, hoverOut);

    $("g[id^=play_]").click(clickOnElement);
    $("g[id^=role_]").click(clickOnElement);

});
]]></script><style type="text/css" id="my_css"><![CDATA[.node:hover, .edge:hover, path:hover, path + polygon:hover {
    cursor: pointer;
    stroke-width: 3;
    font-weight: bolder;
}

.my_hover {
    cursor: pointer;
    stroke-width: 3;
    font-weight: bolder;
}
]]></style><g id="graph0" class="graph" transform="scale(1 1) rotate(0) translate(4 1178.653)">
<title>./playbooks/submariner.yml </title>
<polygon fill="#ffffff" stroke="transparent" points="-4,4 -4,-1178.653 2343.4971,-1178.653 2343.4971,4 -4,4"/>
<!-- ./playbooks/submariner.yml -->
<g id="root_node" class="node">
<title>./playbooks/submariner.yml</title>
<ellipse fill="none" stroke="#000000" stroke-dasharray="1,5" cx="110.4902" cy="-601.653" rx="110.4804" ry="18"/>
<text text-anchor="middle" x="110.4902" y="-597.953" font-family="Times,serif" font-size="14.00" fill="#000000">./playbooks/submariner.yml</text>
</g>
<!-- Play #1: Main deployment playbook for integrating submariner (0) -->
<g id="play_ce8bbdf4-9d66-4501-b261-6ba4397767b8" class="node">
<title>Play #1: Main deployment playbook for integrating submariner (0)</title>
<polygon fill="#822bc1" stroke="#822bc1" points="646.9804,-619.653 263.9804,-619.653 263.9804,-583.653 646.9804,-583.653 646.9804,-619.653"/>
<text text-anchor="middle" x="455.4804" y="-597.953" font-family="Times,serif" font-size="14.00" fill="#ffffff">Play #1: Main deployment playbook for integrating submariner (0)</text>
<links><link target="edge_09876154-2b8f-41b8-839d-900bb7839915"/><link target="edge_e1d13aff-f073-4819-8a57-b2d18642985f"/><link target="edge_56d75caa-99d5-4aaf-9904-0c61296decc3"/><link target="edge_5687ee37-bd73-4fba-a99d-ebab1ba2e3c7"/><link target="edge_3dcbc551-ba83-4c08-80bf-8e2a5785ab06"/><link target="edge_3e609484-85ab-4438-8b33-01647322e45d"/><link target="edge_a4fd5226-f702-4972-ac94-112fbf5063c9"/><link target="edge_95278af8-4381-4753-a14b-e12e9acf8847"/><link target="edge_f3a18893-a0e3-45eb-9de6-92f31702f5f7"/><link target="edge_ed68776f-aadf-49f4-aa52-0f55a138a882"/><link target="edge_36a2634b-4b4e-4a50-b5ba-447749c00f91"/><link target="edge_9ebc1d41-5a4a-4369-bc8c-9173f20136f6"/><link target="edge_bf655d0a-0e55-4e17-8c32-222f8868f03e"/><link target="edge_7dae71ff-cd2f-4dc5-9e8b-b423a3dc48f1"/><link target="edge_35b94485-68a7-48c4-97e2-a09eea61db20"/><link target="edge_d98759d9-fc2d-4b0a-8718-2bc0ba886652"/><link target="edge_0e32784e-5346-4322-bdae-6059dbfb139a"/><link target="edge_c197e675-aa3d-47e8-af43-ea7baeb2fdaa"/><link target="edge_295e490b-0f87-4a51-ad25-d0c939997445"/><link target="edge_256f3f1c-5580-4792-80f4-78f57c9019eb"/><link target="edge_0e2e2c06-2ff4-437d-833a-f7b4ec13c122"/></links></g>
<!-- ./playbooks/submariner.yml&#45;&gt;Play #1: Main deployment playbook for integrating submariner (0) -->
<g id="edge_c9bf8e18-7a84-4a06-8736-fbd018cbca9f" class="edge">
<title>./playbooks/submariner.yml-&gt;Play #1: Main deployment playbook for integrating submariner (0)</title>
<path fill="none" stroke="#822bc1" stroke-width="2" d="M221.0708,-601.653C231.6334,-601.653 242.5531,-601.653 253.6394,-601.653"/>
<polygon fill="#822bc1" stroke="#822bc1" stroke-width="2" points="253.8622,-605.1531 263.8622,-601.653 253.8621,-598.1531 253.8622,-605.1531"/>
<text text-anchor="middle" x="242.4804" y="-605.453" font-family="Times,serif" font-size="14.00" fill="#822bc1">1</text>
</g>
<!-- pre_task_58443308&#45;4eeb&#45;4d56&#45;ad0a&#45;9ad25202b95c -->
<g id="pre_task_58443308-4eeb-4d56-ad0a-9ad25202b95c" class="node">
<title>pre_task_58443308-4eeb-4d56-ad0a-9ad25202b95c</title>
<polygon fill="none" stroke="#000000" points="2133.916,-1134.1971 2133.916,-1149.1088 1999.6671,-1159.653 1809.8104,-1159.653 1675.5615,-1149.1088 1675.5615,-1134.1971 1809.8104,-1123.653 1999.6671,-1123.653 2133.916,-1134.1971"/>
<text text-anchor="middle" x="1904.7388" y="-1137.953" font-family="Times,serif" font-size="14.00" fill="#000000">[pre_task] Check if Ansible meets version requirements.</text>
</g>
<!-- Play #1: Main deployment playbook for integrating submariner (0)&#45;&gt;pre_task_58443308&#45;4eeb&#45;4d56&#45;ad0a&#45;9ad25202b95c -->
<g id="edge_09876154-2b8f-41b8-839d-900bb7839915" class="edge">
<title>Play #1: Main deployment playbook for integrating submariner (0)-&gt;pre_task_58443308-4eeb-4d56-ad0a-9ad25202b95c</title>
<path fill="none" stroke="#822bc1" stroke-width="2" d="M456.195,-619.884C460.3079,-696.8387 487.599,-996.7332 664.9804,-1118.653 746.2176,-1174.4899 1345.867,-1162.1998 1680.5061,-1150.6866"/>
<polygon fill="#822bc1" stroke="#822bc1" stroke-width="2" points="1680.9479,-1154.1734 1690.8207,-1150.329 1680.7054,-1147.1776 1680.9479,-1154.1734"/>
<text text-anchor="middle" x="1058.4804" y="-1163.453" font-family="Times,serif" font-size="14.00" fill="#822bc1">1</text>
<links><link target="pre_task_58443308-4eeb-4d56-ad0a-9ad25202b95c"/></links></g>
<!-- task_8e783a2a&#45;2498&#45;438f&#45;a1db&#45;d9508f994901 -->
<g id="task_8e783a2a-2498-438f-a1db-d9508f994901" class="node">
<title>task_8e783a2a-2498-438f-a1db-d9508f994901</title>
<polygon fill="none" stroke="#000000" points="1963.9257,-1080.1971 1963.9257,-1095.1088 1929.2548,-1105.653 1880.2228,-1105.653 1845.5519,-1095.1088 1845.5519,-1080.1971 1880.2228,-1069.653 1929.2548,-1069.653 1963.9257,-1080.1971"/>
<text text-anchor="middle" x="1904.7388" y="-1083.953" font-family="Times,serif" font-size="14.00" fill="#000000">[task] debug</text>
</g>
<!-- Play #1: Main deployment playbook for integrating submariner (0)&#45;&gt;task_8e783a2a&#45;2498&#45;438f&#45;a1db&#45;d9508f994901 -->
<g id="edge_e1d13aff-f073-4819-8a57-b2d18642985f" class="edge">
<title>Play #1: Main deployment playbook for integrating submariner (0)-&gt;task_8e783a2a-2498-438f-a1db-d9508f994901</title>
<path fill="none" stroke="#822bc1" stroke-width="2" d="M457.2974,-619.7905C465.4754,-690.6244 505.7486,-949.8473 664.9804,-1054.653 762.7191,-1118.9842 1588.3679,-1097.8579 1835.2718,-1090.0191"/>
<polygon fill="#822bc1" stroke="#822bc1" stroke-width="2" points="1835.6662,-1093.5083 1845.549,-1089.6898 1835.442,-1086.5119 1835.6662,-1093.5083"/>
<text text-anchor="middle" x="1058.4804" y="-1103.453" font-family="Times,serif" font-size="14.00" fill="#822bc1">2</text>
<links><link target="task_8e783a2a-2498-438f-a1db-d9508f994901"/></links></g>
<!-- task_282822ca&#45;fafa&#45;4fde&#45;816e&#45;9e970271549a -->
<g id="task_282822ca-fafa-4fde-816e-9e970271549a" class="node">
<title>task_282822ca-fafa-4fde-816e-9e970271549a</title>
<polygon fill="none" stroke="#000000" points="2228.859,-1026.1971 2228.859,-1041.1088 2038.9937,-1051.653 1770.4838,-1051.653 1580.6186,-1041.1088 1580.6186,-1026.1971 1770.4838,-1015.653 2038.9937,-1015.653 2228.859,-1026.1971"/>
<text text-anchor="middle" x="1904.7388" y="-1029.953" font-family="Times,serif" font-size="14.00" fill="#000000">[task] ../../roles/kubeinit_submariner : Gather variables for each operating system</text>
</g>
<!-- Play #1: Main deployment playbook for integrating submariner (0)&#45;&gt;task_282822ca&#45;fafa&#45;4fde&#45;816e&#45;9e970271549a -->
<g id="edge_56d75caa-99d5-4aaf-9904-0c61296decc3" class="edge">
<title>Play #1: Main deployment playbook for integrating submariner (0)-&gt;task_282822ca-fafa-4fde-816e-9e970271549a</title>
<path fill="none" stroke="#822bc1" stroke-width="2" d="M458.1872,-619.9728C469.176,-686.9426 517.1618,-919.3741 664.9804,-1011.653 702.9912,-1035.3821 1216.1312,-1037.5492 1570.1879,-1036.1653"/>
<polygon fill="#822bc1" stroke="#822bc1" stroke-width="2" points="1570.3681,-1039.6647 1580.3539,-1036.1245 1570.3398,-1032.6648 1570.3681,-1039.6647"/>
<text text-anchor="middle" x="1058.4804" y="-1039.453" font-family="Times,serif" font-size="14.00" fill="#822bc1">3</text>
<links><link target="task_282822ca-fafa-4fde-816e-9e970271549a"/></links></g>
<!-- task_a963f983&#45;794c&#45;49c6&#45;b98c&#45;20752f69eaaa -->
<g id="task_a963f983-794c-49c6-b98c-20752f69eaaa" class="node">
<title>task_a963f983-794c-49c6-b98c-20752f69eaaa</title>
<polygon fill="none" stroke="#000000" points="2113.6133,-972.1971 2113.6133,-987.1088 1991.2574,-997.653 1818.2201,-997.653 1695.8642,-987.1088 1695.8642,-972.1971 1818.2201,-961.653 1991.2574,-961.653 2113.6133,-972.1971"/>
<text text-anchor="middle" x="1904.7388" y="-975.953" font-family="Times,serif" font-size="14.00" fill="#000000">[task] ../../roles/kubeinit_submariner : Install subctl</text>
</g>
<!-- Play #1: Main deployment playbook for integrating submariner (0)&#45;&gt;task_a963f983&#45;794c&#45;49c6&#45;b98c&#45;20752f69eaaa -->
<g id="edge_5687ee37-bd73-4fba-a99d-ebab1ba2e3c7" class="edge">
<title>Play #1: Main deployment playbook for integrating submariner (0)-&gt;task_a963f983-794c-49c6-b98c-20752f69eaaa</title>
<path fill="none" stroke="#822bc1" stroke-width="2" d="M459.7136,-619.9254C474.8929,-680.7232 532.8616,-876.6938 664.9804,-953.653 750.5085,-1003.4731 1352.9672,-995.131 1685.5041,-986.4815"/>
<polygon fill="#822bc1" stroke="#822bc1" stroke-width="2" points="1685.847,-989.9738 1695.7517,-986.2127 1685.6633,-982.9762 1685.847,-989.9738"/>
<text text-anchor="middle" x="1058.4804" y="-996.453" font-family="Times,serif" font-size="14.00" fill="#822bc1">4  [when: kubeinit_submariner_is_broker|bool or kubeinit_submariner_is_secondary|bool]</text>
<links><link target="task_a963f983-794c-49c6-b98c-20752f69eaaa"/></links></g>
<!-- task_219c64d5&#45;441e&#45;40e2&#45;81ff&#45;11b61549e9b0 -->
<g id="task_219c64d5-441e-40e2-81ff-11b61549e9b0" class="node">
<title>task_219c64d5-441e-40e2-81ff-11b61549e9b0</title>
<polygon fill="none" stroke="#000000" points="2191.7887,-918.1971 2191.7887,-933.1088 2023.6387,-943.653 1785.8388,-943.653 1617.6889,-933.1088 1617.6889,-918.1971 1785.8388,-907.653 2023.6387,-907.653 2191.7887,-918.1971"/>
<text text-anchor="middle" x="1904.7388" y="-921.953" font-family="Times,serif" font-size="14.00" fill="#000000">[task] ../../roles/kubeinit_submariner : Install submariner based on a PR</text>
</g>
<!-- Play #1: Main deployment playbook for integrating submariner (0)&#45;&gt;task_219c64d5&#45;441e&#45;40e2&#45;81ff&#45;11b61549e9b0 -->
<g id="edge_3dcbc551-ba83-4c08-80bf-8e2a5785ab06" class="edge">
<title>Play #1: Main deployment playbook for integrating submariner (0)-&gt;task_219c64d5-441e-40e2-81ff-11b61549e9b0</title>
<path fill="none" stroke="#822bc1" stroke-width="2" d="M461.7966,-619.9654C481.5928,-674.1325 548.1688,-833.6568 664.9804,-895.653 745.8979,-938.5989 1267.1948,-937.7013 1607.5506,-932.2751"/>
<polygon fill="#822bc1" stroke="#822bc1" stroke-width="2" points="1607.6248,-935.7745 1617.5669,-932.1133 1607.5116,-928.7754 1607.6248,-935.7745"/>
<text text-anchor="middle" x="1058.4804" y="-938.453" font-family="Times,serif" font-size="14.00" fill="#822bc1">5  [when: (kubeinit_submariner_is_broker|bool or kubeinit_submariner_is_secondary|bool) and (kubeinit_submariner_test_pr_url | length &gt; 0 )]</text>
<links><link target="task_219c64d5-441e-40e2-81ff-11b61549e9b0"/></links></g>
<!-- task_d3fa9656&#45;320a&#45;4505&#45;9a81&#45;8a8110f8749b -->
<g id="task_d3fa9656-320a-4505-9a81-8a8110f8749b" class="node">
<title>task_d3fa9656-320a-4505-9a81-8a8110f8749b</title>
<polygon fill="none" stroke="#000000" points="2159.9744,-864.1971 2159.9744,-879.1088 2010.4608,-889.653 1799.0167,-889.653 1649.5031,-879.1088 1649.5031,-864.1971 1799.0167,-853.653 2010.4608,-853.653 2159.9744,-864.1971"/>
<text text-anchor="middle" x="1904.7388" y="-867.953" font-family="Times,serif" font-size="14.00" fill="#000000">[task] ../../roles/kubeinit_submariner : Check if ~/.profile exists</text>
</g>
<!-- Play #1: Main deployment playbook for integrating submariner (0)&#45;&gt;task_d3fa9656&#45;320a&#45;4505&#45;9a81&#45;8a8110f8749b -->
<g id="edge_3e609484-85ab-4438-8b33-01647322e45d" class="edge">
<title>Play #1: Main deployment playbook for integrating submariner (0)-&gt;task_d3fa9656-320a-4505-9a81-8a8110f8749b</title>
<path fill="none" stroke="#822bc1" stroke-width="2" d="M464.5785,-619.8464C489.199,-666.7796 562.2591,-791.6194 664.9804,-839.653 750.5412,-879.6622 1301.3003,-879.8576 1639.315,-876.0221"/>
<polygon fill="#822bc1" stroke="#822bc1" stroke-width="2" points="1639.5431,-879.5198 1649.502,-875.9045 1639.4622,-872.5202 1639.5431,-879.5198"/>
<text text-anchor="middle" x="1058.4804" y="-880.453" font-family="Times,serif" font-size="14.00" fill="#822bc1">6  [when: kubeinit_submariner_is_broker|bool or kubeinit_submariner_is_secondary|bool]</text>
<links><link target="task_d3fa9656-320a-4505-9a81-8a8110f8749b"/></links></g>
<!-- task_a836cbd6&#45;3d3d&#45;4e18&#45;bbdb&#45;8d88c3b50114 -->
<g id="task_a836cbd6-3d3d-4e18-bbdb-8d88c3b50114" class="node">
<title>task_a836cbd6-3d3d-4e18-bbdb-8d88c3b50114</title>
<polygon fill="none" stroke="#000000" points="2176.7422,-810.1971 2176.7422,-825.1088 2017.4063,-835.653 1792.0713,-835.653 1632.7353,-825.1088 1632.7353,-810.1971 1792.0713,-799.653 2017.4063,-799.653 2176.7422,-810.1971"/>
<text text-anchor="middle" x="1904.7388" y="-813.953" font-family="Times,serif" font-size="14.00" fill="#000000">[task] ../../roles/kubeinit_submariner : Append subctl path to profile</text>
</g>
<!-- Play #1: Main deployment playbook for integrating submariner (0)&#45;&gt;task_a836cbd6&#45;3d3d&#45;4e18&#45;bbdb&#45;8d88c3b50114 -->
<g id="edge_a4fd5226-f702-4972-ac94-112fbf5063c9" class="edge">
<title>Play #1: Main deployment playbook for integrating submariner (0)-&gt;task_a836cbd6-3d3d-4e18-bbdb-8d88c3b50114</title>
<path fill="none" stroke="#822bc1" stroke-width="2" d="M468.6463,-619.8341C498.3631,-659.1473 575.1016,-751.3587 664.9804,-786.653 751.3771,-820.5799 1283.9179,-822.8661 1622.347,-820.7442"/>
<polygon fill="#822bc1" stroke="#822bc1" stroke-width="2" points="1622.5751,-824.2429 1632.5524,-820.6785 1622.53,-817.243 1622.5751,-824.2429"/>
<text text-anchor="middle" x="1058.4804" y="-824.453" font-family="Times,serif" font-size="14.00" fill="#822bc1">7  [when: profile_exists.stat.exists and (kubeinit_submariner_is_broker|bool or kubeinit_submariner_is_secondary|bool)]</text>
<links><link target="task_a836cbd6-3d3d-4e18-bbdb-8d88c3b50114"/></links></g>
<!-- task_69cef5a1&#45;9fde&#45;457a&#45;be92&#45;d11ba9989b8e -->
<g id="task_69cef5a1-9fde-457a-be92-d11ba9989b8e" class="node">
<title>task_69cef5a1-9fde-457a-be92-d11ba9989b8e</title>
<polygon fill="none" stroke="#000000" points="2182.4979,-756.1971 2182.4979,-771.1088 2019.7904,-781.653 1789.6872,-781.653 1626.9796,-771.1088 1626.9796,-756.1971 1789.6872,-745.653 2019.7904,-745.653 2182.4979,-756.1971"/>
<text text-anchor="middle" x="1904.7388" y="-759.953" font-family="Times,serif" font-size="14.00" fill="#000000">[task] ../../roles/kubeinit_submariner : Check if ~/.bash_profile exists</text>
</g>
<!-- Play #1: Main deployment playbook for integrating submariner (0)&#45;&gt;task_69cef5a1&#45;9fde&#45;457a&#45;be92&#45;d11ba9989b8e -->
<g id="edge_95278af8-4381-4753-a14b-e12e9acf8847" class="edge">
<title>Play #1: Main deployment playbook for integrating submariner (0)-&gt;task_69cef5a1-9fde-457a-be92-d11ba9989b8e</title>
<path fill="none" stroke="#822bc1" stroke-width="2" d="M474.2587,-619.8192C508.68,-651.73 585.6612,-716.8188 664.9804,-741.653 752.9739,-769.203 1278.483,-769.7308 1616.4727,-767.0662"/>
<polygon fill="#822bc1" stroke="#822bc1" stroke-width="2" points="1616.6952,-770.5647 1626.6668,-766.9845 1616.639,-763.5649 1616.6952,-770.5647"/>
<text text-anchor="middle" x="1058.4804" y="-771.453" font-family="Times,serif" font-size="14.00" fill="#822bc1">8  [when: kubeinit_submariner_is_broker|bool or kubeinit_submariner_is_secondary|bool]</text>
<links><link target="task_69cef5a1-9fde-457a-be92-d11ba9989b8e"/></links></g>
<!-- task_7cc57c38&#45;d348&#45;43bb&#45;a277&#45;c369cbee11c9 -->
<g id="task_7cc57c38-d348-43bb-a277-c369cbee11c9" class="node">
<title>task_7cc57c38-d348-43bb-a277-c369cbee11c9</title>
<polygon fill="none" stroke="#000000" points="2199.2657,-702.1971 2199.2657,-717.1088 2026.7358,-727.653 1782.7417,-727.653 1610.2119,-717.1088 1610.2119,-702.1971 1782.7417,-691.653 2026.7358,-691.653 2199.2657,-702.1971"/>
<text text-anchor="middle" x="1904.7388" y="-705.953" font-family="Times,serif" font-size="14.00" fill="#000000">[task] ../../roles/kubeinit_submariner : Append subctl path to bash_profile</text>
</g>
<!-- Play #1: Main deployment playbook for integrating submariner (0)&#45;&gt;task_7cc57c38&#45;d348&#45;43bb&#45;a277&#45;c369cbee11c9 -->
<g id="edge_f3a18893-a0e3-45eb-9de6-92f31702f5f7" class="edge">
<title>Play #1: Main deployment playbook for integrating submariner (0)-&gt;task_7cc57c38-d348-43bb-a277-c369cbee11c9</title>
<path fill="none" stroke="#822bc1" stroke-width="2" d="M500.3731,-619.7097C542.2085,-635.589 606.7205,-657.6805 664.9804,-667.653 1005.113,-725.8742 1405.1572,-727.6666 1656.8602,-720.8603"/>
<polygon fill="#822bc1" stroke="#822bc1" stroke-width="2" points="1656.9691,-724.3587 1666.8683,-720.583 1656.7752,-717.3614 1656.9691,-724.3587"/>
<text text-anchor="middle" x="1058.4804" y="-726.453" font-family="Times,serif" font-size="14.00" fill="#822bc1">9  [when: bash_profile_exists.stat.exists and (kubeinit_submariner_is_broker|bool or kubeinit_submariner_is_secondary|bool)]</text>
<links><link target="task_7cc57c38-d348-43bb-a277-c369cbee11c9"/></links></g>
<!-- task_02278875&#45;1d83&#45;48fc&#45;ba3c&#45;8dc8c5967a92 -->
<g id="task_02278875-1d83-48fc-ba3c-8dc8c5967a92" class="node">
<title>task_02278875-1d83-48fc-ba3c-8dc8c5967a92</title>
<polygon fill="none" stroke="#000000" points="2159.5674,-648.1971 2159.5674,-663.1088 2010.2923,-673.653 1799.1853,-673.653 1649.9101,-663.1088 1649.9101,-648.1971 1799.1853,-637.653 2010.2923,-637.653 2159.5674,-648.1971"/>
<text text-anchor="middle" x="1904.7388" y="-651.953" font-family="Times,serif" font-size="14.00" fill="#000000">[task] ../../roles/kubeinit_submariner : Check if ~/.bashrc exists</text>
</g>
<!-- Play #1: Main deployment playbook for integrating submariner (0)&#45;&gt;task_02278875&#45;1d83&#45;48fc&#45;ba3c&#45;8dc8c5967a92 -->
<g id="edge_ed68776f-aadf-49f4-aa52-0f55a138a882" class="edge">
<title>Play #1: Main deployment playbook for integrating submariner (0)-&gt;task_02278875-1d83-48fc-ba3c-8dc8c5967a92</title>
<path fill="none" stroke="#822bc1" stroke-width="2" d="M647.2475,-619.526C653.2251,-619.9291 659.1473,-620.3065 664.9804,-620.653 1000.7417,-640.5986 1388.3517,-649.2346 1639.5185,-652.9366"/>
<polygon fill="#822bc1" stroke="#822bc1" stroke-width="2" points="1639.8339,-656.4415 1649.8839,-653.0877 1639.936,-649.4422 1639.8339,-656.4415"/>
<text text-anchor="middle" x="1058.4804" y="-652.453" font-family="Times,serif" font-size="14.00" fill="#822bc1">10  [when: kubeinit_submariner_is_broker|bool or kubeinit_submariner_is_secondary|bool]</text>
<links><link target="task_02278875-1d83-48fc-ba3c-8dc8c5967a92"/></links></g>
<!-- task_28210418&#45;f7b9&#45;42d7&#45;945f&#45;2ec0b0ebfbfc -->
<g id="task_28210418-f7b9-42d7-945f-2ec0b0ebfbfc" class="node">
<title>task_28210418-f7b9-42d7-945f-2ec0b0ebfbfc</title>
<polygon fill="none" stroke="#000000" points="2176.335,-594.1971 2176.335,-609.1088 2017.2376,-619.653 1792.2399,-619.653 1633.1425,-609.1088 1633.1425,-594.1971 1792.2399,-583.653 2017.2376,-583.653 2176.335,-594.1971"/>
<text text-anchor="middle" x="1904.7388" y="-597.953" font-family="Times,serif" font-size="14.00" fill="#000000">[task] ../../roles/kubeinit_submariner : Append subctl path to bashrc</text>
</g>
<!-- Play #1: Main deployment playbook for integrating submariner (0)&#45;&gt;task_28210418&#45;f7b9&#45;42d7&#45;945f&#45;2ec0b0ebfbfc -->
<g id="edge_36a2634b-4b4e-4a50-b5ba-447749c00f91" class="edge">
<title>Play #1: Main deployment playbook for integrating submariner (0)-&gt;task_28210418-f7b9-42d7-945f-2ec0b0ebfbfc</title>
<path fill="none" stroke="#822bc1" stroke-width="2" d="M647.1827,-601.653C896.8418,-601.653 1335.2418,-601.653 1622.8173,-601.653"/>
<polygon fill="#822bc1" stroke="#822bc1" stroke-width="2" points="1622.9831,-605.1531 1632.983,-601.653 1622.983,-598.1531 1622.9831,-605.1531"/>
<text text-anchor="middle" x="1058.4804" y="-605.453" font-family="Times,serif" font-size="14.00" fill="#822bc1">11  [when: bashrc_exists.stat.exists and (kubeinit_submariner_is_broker|bool or kubeinit_submariner_is_secondary|bool)]</text>
<links><link target="task_28210418-f7b9-42d7-945f-2ec0b0ebfbfc"/></links></g>
<!-- task_1a9be252&#45;1338&#45;48fe&#45;8536&#45;0fe475916c63 -->
<g id="task_1a9be252-1338-48fe-8536-0fe475916c63" class="node">
<title>task_1a9be252-1338-48fe-8536-0fe475916c63</title>
<polygon fill="none" stroke="#000000" points="2201.4865,-540.1971 2201.4865,-555.1088 2027.6557,-565.653 1781.8218,-565.653 1607.991,-555.1088 1607.991,-540.1971 1781.8218,-529.653 2027.6557,-529.653 2201.4865,-540.1971"/>
<text text-anchor="middle" x="1904.7388" y="-543.953" font-family="Times,serif" font-size="14.00" fill="#000000">[task] ../../roles/kubeinit_submariner : Render the iptables persist template</text>
</g>
<!-- Play #1: Main deployment playbook for integrating submariner (0)&#45;&gt;task_1a9be252&#45;1338&#45;48fe&#45;8536&#45;0fe475916c63 -->
<g id="edge_9ebc1d41-5a4a-4369-bc8c-9173f20136f6" class="edge">
<title>Play #1: Main deployment playbook for integrating submariner (0)-&gt;task_1a9be252-1338-48fe-8536-0fe475916c63</title>
<path fill="none" stroke="#822bc1" stroke-width="2" d="M647.2475,-583.78C653.2251,-583.3769 659.1473,-582.9995 664.9804,-582.653 982.7461,-563.7764 1346.9516,-555.0296 1597.9867,-551.0081"/>
<polygon fill="#822bc1" stroke="#822bc1" stroke-width="2" points="1598.0438,-554.5077 1607.987,-550.8495 1597.9327,-547.5086 1598.0438,-554.5077"/>
<text text-anchor="middle" x="1058.4804" y="-586.453" font-family="Times,serif" font-size="14.00" fill="#822bc1">12  [when: kubeinit_submariner_is_broker|bool]</text>
<links><link target="task_1a9be252-1338-48fe-8536-0fe475916c63"/></links></g>
<!-- task_ec7d2f94&#45;83f4&#45;4a50&#45;9cc8&#45;79d0b34ed170 -->
<g id="task_ec7d2f94-83f4-4a50-9cc8-79d0b34ed170" class="node">
<title>task_ec7d2f94-83f4-4a50-9cc8-79d0b34ed170</title>
<polygon fill="none" stroke="#000000" points="2296.4295,-486.1971 2296.4295,-501.1088 2066.9824,-511.653 1742.4952,-511.653 1513.048,-501.1088 1513.048,-486.1971 1742.4952,-475.653 2066.9824,-475.653 2296.4295,-486.1971"/>
<text text-anchor="middle" x="1904.7388" y="-489.953" font-family="Times,serif" font-size="14.00" fill="#000000">[task] ../../roles/kubeinit_submariner : Make sure there the traffic is allowed from/to the cluster net</text>
</g>
<!-- Play #1: Main deployment playbook for integrating submariner (0)&#45;&gt;task_ec7d2f94&#45;83f4&#45;4a50&#45;9cc8&#45;79d0b34ed170 -->
<g id="edge_bf655d0a-0e55-4e17-8c32-222f8868f03e" class="edge">
<title>Play #1: Main deployment playbook for integrating submariner (0)-&gt;task_ec7d2f94-83f4-4a50-9cc8-79d0b34ed170</title>
<path fill="none" stroke="#822bc1" stroke-width="2" d="M499.5374,-583.6181C541.3267,-567.4657 606.2816,-544.8073 664.9804,-534.653 986.8085,-478.9801 1362.4351,-474.8817 1615.1648,-480.789"/>
<polygon fill="#822bc1" stroke="#822bc1" stroke-width="2" points="1615.1465,-484.2895 1625.2278,-481.0311 1615.3148,-477.2915 1615.1465,-484.2895"/>
<text text-anchor="middle" x="1058.4804" y="-538.453" font-family="Times,serif" font-size="14.00" fill="#822bc1">13  [when: kubeinit_submariner_is_broker|bool]</text>
<links><link target="task_ec7d2f94-83f4-4a50-9cc8-79d0b34ed170"/></links></g>
<!-- task_5446353c&#45;4a11&#45;428d&#45;b2e6&#45;2f48b7e7fc36 -->
<g id="task_5446353c-4a11-428d-b2e6-2f48b7e7fc36" class="node">
<title>task_5446353c-4a11-428d-b2e6-2f48b7e7fc36</title>
<polygon fill="none" stroke="#000000" points="2158.6604,-432.1971 2158.6604,-447.1088 2009.9165,-457.653 1799.561,-457.653 1650.8172,-447.1088 1650.8172,-432.1971 1799.561,-421.653 2009.9165,-421.653 2158.6604,-432.1971"/>
<text text-anchor="middle" x="1904.7388" y="-435.953" font-family="Times,serif" font-size="14.00" fill="#000000">[task] ../../roles/kubeinit_submariner : Configure broker cluster</text>
</g>
<!-- Play #1: Main deployment playbook for integrating submariner (0)&#45;&gt;task_5446353c&#45;4a11&#45;428d&#45;b2e6&#45;2f48b7e7fc36 -->
<g id="edge_7dae71ff-cd2f-4dc5-9e8b-b423a3dc48f1" class="edge">
<title>Play #1: Main deployment playbook for integrating submariner (0)-&gt;task_5446353c-4a11-428d-b2e6-2f48b7e7fc36</title>
<path fill="none" stroke="#822bc1" stroke-width="2" d="M473.9308,-583.4728C508.1263,-551.1841 585.1622,-484.8608 664.9804,-459.653 849.2346,-401.4627 1384.744,-415.0505 1688.2528,-428.3619"/>
<polygon fill="#822bc1" stroke="#822bc1" stroke-width="2" points="1688.359,-431.8699 1698.504,-428.8152 1688.6684,-424.8767 1688.359,-431.8699"/>
<text text-anchor="middle" x="1058.4804" y="-463.453" font-family="Times,serif" font-size="14.00" fill="#822bc1">14  [when: kubeinit_submariner_is_broker|bool]</text>
<links><link target="task_5446353c-4a11-428d-b2e6-2f48b7e7fc36"/></links></g>
<!-- task_4ea165b4&#45;e273&#45;4353&#45;bfb0&#45;fcb22b2b079d -->
<g id="task_4ea165b4-e273-4353-bfb0-fcb22b2b079d" class="node">
<title>task_4ea165b4-e273-4353-bfb0-fcb22b2b079d</title>
<polygon fill="none" stroke="#000000" points="2236.8357,-378.1971 2236.8357,-393.1088 2042.2978,-403.653 1767.1797,-403.653 1572.6418,-393.1088 1572.6418,-378.1971 1767.1797,-367.653 2042.2978,-367.653 2236.8357,-378.1971"/>
<text text-anchor="middle" x="1904.7388" y="-381.953" font-family="Times,serif" font-size="14.00" fill="#000000">[task] ../../roles/kubeinit_submariner : Copy the broker-info.subm to the hypervisor</text>
</g>
<!-- Play #1: Main deployment playbook for integrating submariner (0)&#45;&gt;task_4ea165b4&#45;e273&#45;4353&#45;bfb0&#45;fcb22b2b079d -->
<g id="edge_35b94485-68a7-48c4-97e2-a09eea61db20" class="edge">
<title>Play #1: Main deployment playbook for integrating submariner (0)-&gt;task_4ea165b4-e273-4353-bfb0-fcb22b2b079d</title>
<path fill="none" stroke="#822bc1" stroke-width="2" d="M466.8567,-583.4671C494.5423,-541.1508 570.1674,-436.7249 664.9804,-397.653 747.9435,-363.4644 1248.8398,-368.7234 1588.0084,-376.5456"/>
<polygon fill="#822bc1" stroke="#822bc1" stroke-width="2" points="1588.1675,-380.0502 1598.2461,-376.7836 1588.3302,-373.052 1588.1675,-380.0502"/>
<text text-anchor="middle" x="1058.4804" y="-401.453" font-family="Times,serif" font-size="14.00" fill="#822bc1">15  [when: kubeinit_submariner_is_broker|bool]</text>
<links><link target="task_4ea165b4-e273-4353-bfb0-fcb22b2b079d"/></links></g>
<!-- task_9060a23d&#45;90ad&#45;4050&#45;b52e&#45;c71a959f1cca -->
<g id="task_9060a23d-90ad-4050-b52e-c71a959f1cca" class="node">
<title>task_9060a23d-90ad-4050-b52e-c71a959f1cca</title>
<polygon fill="none" stroke="#000000" points="2212.0912,-324.1971 2212.0912,-339.1088 2032.0483,-349.653 1777.4292,-349.653 1597.3863,-339.1088 1597.3863,-324.1971 1777.4292,-313.653 2032.0483,-313.653 2212.0912,-324.1971"/>
<text text-anchor="middle" x="1904.7388" y="-327.953" font-family="Times,serif" font-size="14.00" fill="#000000">[task] ../../roles/kubeinit_submariner : Copy the kubeconfig to the hypervisor</text>
</g>
<!-- Play #1: Main deployment playbook for integrating submariner (0)&#45;&gt;task_9060a23d&#45;90ad&#45;4050&#45;b52e&#45;c71a959f1cca -->
<g id="edge_d98759d9-fc2d-4b0a-8718-2bc0ba886652" class="edge">
<title>Play #1: Main deployment playbook for integrating submariner (0)-&gt;task_9060a23d-90ad-4050-b52e-c71a959f1cca</title>
<path fill="none" stroke="#822bc1" stroke-width="2" d="M463.768,-583.5767C487.1501,-535.0533 558.9074,-402.2032 664.9804,-351.653 746.7922,-312.6647 1257.4452,-316.3164 1597.3372,-323.3805"/>
<polygon fill="#822bc1" stroke="#822bc1" stroke-width="2" points="1597.2715,-326.8798 1607.3428,-323.5905 1597.4185,-319.8814 1597.2715,-326.8798"/>
<text text-anchor="middle" x="1058.4804" y="-355.453" font-family="Times,serif" font-size="14.00" fill="#822bc1">16  [when: kubeinit_submariner_is_broker|bool or kubeinit_submariner_is_secondary|bool]</text>
<links><link target="task_9060a23d-90ad-4050-b52e-c71a959f1cca"/></links></g>
<!-- task_984ed88c&#45;d648&#45;4441&#45;85d9&#45;a3f933489c4b -->
<g id="task_984ed88c-d648-4441-85d9-a3f933489c4b" class="node">
<title>task_984ed88c-d648-4441-85d9-a3f933489c4b</title>
<polygon fill="none" stroke="#000000" points="2339.2556,-270.1971 2339.2556,-285.1088 2084.7215,-295.653 1724.756,-295.653 1470.2219,-285.1088 1470.2219,-270.1971 1724.756,-259.653 2084.7215,-259.653 2339.2556,-270.1971"/>
<text text-anchor="middle" x="1904.7388" y="-273.953" font-family="Times,serif" font-size="14.00" fill="#000000">[task] ../../roles/kubeinit_submariner : Copying the broker-info.subm and kubeconfig to the destination cluster</text>
</g>
<!-- Play #1: Main deployment playbook for integrating submariner (0)&#45;&gt;task_984ed88c&#45;d648&#45;4441&#45;85d9&#45;a3f933489c4b -->
<g id="edge_0e32784e-5346-4322-bdae-6059dbfb139a" class="edge">
<title>Play #1: Main deployment playbook for integrating submariner (0)-&gt;task_984ed88c-d648-4441-85d9-a3f933489c4b</title>
<path fill="none" stroke="#822bc1" stroke-width="2" d="M461.3471,-583.6087C480.2991,-528.6891 545.6842,-363.4412 664.9804,-299.653 739.6957,-259.7024 1191.373,-260.5683 1528.1181,-267.1578"/>
<polygon fill="#822bc1" stroke="#822bc1" stroke-width="2" points="1528.4793,-270.6656 1538.5467,-267.3645 1528.618,-263.667 1528.4793,-270.6656"/>
<text text-anchor="middle" x="1058.4804" y="-303.453" font-family="Times,serif" font-size="14.00" fill="#822bc1">17  [when: kubeinit_submariner_is_secondary|bool]</text>
<links><link target="task_984ed88c-d648-4441-85d9-a3f933489c4b"/></links></g>
<!-- task_fab4ce78&#45;66d6&#45;4891&#45;ad96&#45;d5dfc143362e -->
<g id="task_fab4ce78-66d6-4891-ad96-d5dfc143362e" class="node">
<title>task_fab4ce78-66d6-4891-ad96-d5dfc143362e</title>
<polygon fill="none" stroke="#000000" points="2159.9744,-216.1971 2159.9744,-231.1088 2010.4608,-241.653 1799.0167,-241.653 1649.5031,-231.1088 1649.5031,-216.1971 1799.0167,-205.653 2010.4608,-205.653 2159.9744,-216.1971"/>
<text text-anchor="middle" x="1904.7388" y="-219.953" font-family="Times,serif" font-size="14.00" fill="#000000">[task] ../../roles/kubeinit_submariner : Join cluster to the broker</text>
</g>
<!-- Play #1: Main deployment playbook for integrating submariner (0)&#45;&gt;task_fab4ce78&#45;66d6&#45;4891&#45;ad96&#45;d5dfc143362e -->
<g id="edge_c197e675-aa3d-47e8-af43-ea7baeb2fdaa" class="edge">
<title>Play #1: Main deployment playbook for integrating submariner (0)-&gt;task_fab4ce78-66d6-4891-ad96-d5dfc143362e</title>
<path fill="none" stroke="#822bc1" stroke-width="2" d="M459.5102,-583.5384C474.2098,-522.3399 531.2465,-322.7453 664.9804,-244.653 747.7666,-196.311 1315.6317,-205.0779 1653.4109,-214.883"/>
<polygon fill="#822bc1" stroke="#822bc1" stroke-width="2" points="1653.4873,-218.3866 1663.5854,-215.1807 1653.6921,-211.3896 1653.4873,-218.3866"/>
<text text-anchor="middle" x="1058.4804" y="-248.453" font-family="Times,serif" font-size="14.00" fill="#822bc1">18  [when: kubeinit_submariner_is_broker|bool or kubeinit_submariner_is_secondary|bool]</text>
<links><link target="task_fab4ce78-66d6-4891-ad96-d5dfc143362e"/></links></g>
<!-- task_6fa44194&#45;d4da&#45;41c1&#45;960c&#45;38c9ba4a7c95 -->
<g id="task_6fa44194-d4da-41c1-960c-38c9ba4a7c95" class="node">
<title>task_6fa44194-d4da-41c1-960c-38c9ba4a7c95</title>
<polygon fill="none" stroke="#000000" points="2129.974,-162.1971 2129.974,-177.1088 1998.0343,-187.653 1811.4433,-187.653 1679.5035,-177.1088 1679.5035,-162.1971 1811.4433,-151.653 1998.0343,-151.653 2129.974,-162.1971"/>
<text text-anchor="middle" x="1904.7388" y="-165.953" font-family="Times,serif" font-size="14.00" fill="#000000">[task] ../../roles/kubeinit_submariner : Tag worker node</text>
</g>
<!-- Play #1: Main deployment playbook for integrating submariner (0)&#45;&gt;task_6fa44194&#45;d4da&#45;41c1&#45;960c&#45;38c9ba4a7c95 -->
<g id="edge_295e490b-0f87-4a51-ad25-d0c939997445" class="edge">
<title>Play #1: Main deployment playbook for integrating submariner (0)-&gt;task_6fa44194-d4da-41c1-960c-38c9ba4a7c95</title>
<path fill="none" stroke="#822bc1" stroke-width="2" d="M458.0404,-583.6085C468.6298,-516.5693 515.7079,-280.9118 664.9804,-187.653 748.8304,-135.2672 1350.853,-148.8013 1684.116,-160.6196"/>
<polygon fill="#822bc1" stroke="#822bc1" stroke-width="2" points="1684.268,-164.1272 1694.3865,-160.9863 1684.5178,-157.1317 1684.268,-164.1272"/>
<text text-anchor="middle" x="1058.4804" y="-191.453" font-family="Times,serif" font-size="14.00" fill="#822bc1">19  [when: kubeinit_submariner_is_broker|bool or kubeinit_submariner_is_secondary|bool]</text>
<links><link target="task_6fa44194-d4da-41c1-960c-38c9ba4a7c95"/></links></g>
<!-- task_62637fd0&#45;1d0c&#45;435a&#45;a313&#45;cff40023e2a5 -->
<g id="task_62637fd0-1d0c-435a-a313-cff40023e2a5" class="node">
<title>task_62637fd0-1d0c-435a-a313-cff40023e2a5</title>
<polygon fill="none" stroke="#000000" points="2164.8234,-108.1971 2164.8234,-123.1088 2012.4693,-133.653 1797.0082,-133.653 1644.6541,-123.1088 1644.6541,-108.1971 1797.0082,-97.653 2012.4693,-97.653 2164.8234,-108.1971"/>
<text text-anchor="middle" x="1904.7388" y="-111.953" font-family="Times,serif" font-size="14.00" fill="#000000">[task] ../../roles/kubeinit_submariner : Render the netshoot script</text>
</g>
<!-- Play #1: Main deployment playbook for integrating submariner (0)&#45;&gt;task_62637fd0&#45;1d0c&#45;435a&#45;a313&#45;cff40023e2a5 -->
<g id="edge_256f3f1c-5580-4792-80f4-78f57c9019eb" class="edge">
<title>Play #1: Main deployment playbook for integrating submariner (0)-&gt;task_62637fd0-1d0c-435a-a313-cff40023e2a5</title>
<path fill="none" stroke="#822bc1" stroke-width="2" d="M456.9402,-583.2528C463.8413,-510.1748 500.1527,-239.1589 664.9804,-130.653 746.6418,-76.8953 1336.8089,-91.8852 1672.5909,-105.1194"/>
<polygon fill="#822bc1" stroke="#822bc1" stroke-width="2" points="1672.8135,-108.6309 1682.9444,-105.5301 1673.091,-101.6364 1672.8135,-108.6309"/>
<text text-anchor="middle" x="1058.4804" y="-134.453" font-family="Times,serif" font-size="14.00" fill="#822bc1">20  [when: kubeinit_submariner_is_broker|bool or kubeinit_submariner_is_secondary|bool]</text>
<links><link target="task_62637fd0-1d0c-435a-a313-cff40023e2a5"/></links></g>
<!-- task_5381d692&#45;4b1c&#45;4f2f&#45;80c8&#45;abf603c19c4c -->
<g id="task_5381d692-4b1c-4f2f-80c8-abf603c19c4c" class="node">
<title>task_5381d692-4b1c-4f2f-80c8-abf603c19c4c</title>
<polygon fill="none" stroke="#000000" points="2165.7302,-54.1971 2165.7302,-69.1088 2012.845,-79.653 1796.6326,-79.653 1643.7473,-69.1088 1643.7473,-54.1971 1796.6326,-43.653 2012.845,-43.653 2165.7302,-54.1971"/>
<text text-anchor="middle" x="1904.7388" y="-57.953" font-family="Times,serif" font-size="14.00" fill="#000000">[task] ../../roles/kubeinit_submariner : Verify cluster deployment</text>
</g>
<!-- Play #1: Main deployment playbook for integrating submariner (0)&#45;&gt;task_5381d692&#45;4b1c&#45;4f2f&#45;80c8&#45;abf603c19c4c -->
<g id="edge_0e2e2c06-2ff4-437d-833a-f7b4ec13c122" class="edge">
<title>Play #1: Main deployment playbook for integrating submariner (0)-&gt;task_5381d692-4b1c-4f2f-80c8-abf603c19c4c</title>
<path fill="none" stroke="#822bc1" stroke-width="2" d="M455.9824,-583.4987C459.2353,-505.4953 483.5404,-197.1279 664.9804,-72.653 839.6791,47.1971 1478.7707,-10.7679 1764.7591,-43.9503"/>
<polygon fill="#822bc1" stroke="#822bc1" stroke-width="2" points="1764.444,-47.4372 1774.7823,-45.1199 1765.2554,-40.4844 1764.444,-47.4372"/>
<text text-anchor="middle" x="1058.4804" y="-76.453" font-family="Times,serif" font-size="14.00" fill="#822bc1">21  [when: kubeinit_submariner_is_secondary|bool]</text>
<links><link target="task_5381d692-4b1c-4f2f-80c8-abf603c19c4c"/></links></g>
</g>
</svg>