<?xml version='1.0' encoding='UTF-8'?>
<!DOCTYPE svg PUBLIC "-//W3C//DTD SVG 1.1//EN" "http://www.w3.org/Graphics/SVG/1.1/DTD/svg11.dtd">
<!-- Generated by graphviz version 2.43.0 (0)
 --><!-- Title: ./playbooks/submariner&#45;subctl&#45;verify.yml  Pages: 1 --><svg xmlns="http://www.w3.org/2000/svg" xmlns:xlink="http://www.w3.org/1999/xlink" width="1919pt" height="807pt" viewBox="0.00 0.00 1919.12 807.41" id="svg">
<script type="text/javascript" href="https://ajax.googleapis.com/ajax/libs/jquery/3.2.1/jquery.min.js" id="jquery"/><script type="text/javascript" id="my_javascript"><![CDATA[const HOVER_CLASS = "my_hover";

var selectedElement = null;

function addClass(rootElement) {
    $(rootElement).find('link').each(function (index, element) {
        var target = $(element).attr('target');
        var currentElement = $('#' + target);
        currentElement.addClass(HOVER_CLASS);

        addClass(currentElement);
    })
}

function removeClass(rootElement, hover) {
    $(rootElement).find('link').each(function (index, element) {
        if ($(rootElement).attr('id') !== $(selectedElement).attr('id') || !hover) {
            var target = $(element).attr('target');
            var currentElement = $('#' + target);
            currentElement.removeClass(HOVER_CLASS);

            removeClass(currentElement);
        }

    })
}

function hoverIn(event) {
    addClass(event.currentTarget);
}

function hoverOut(event) {
    removeClass(event.currentTarget, true);
}

function clickOnElement(event) {
    var newElement = event.currentTarget;

    if ($(newElement).attr('id') === $(selectedElement).attr('id')) {
        removeClass(selectedElement, false);
    } else {
        removeClass(selectedElement);
        addClass(newElement)
    }

    selectedElement = newElement;
}


$("#svg").ready(function () {

    $("g[id^=play_]").hover(hoverIn, hoverOut);
    $("g[id^=role_]").hover(hoverIn, hoverOut);

    $("g[id^=play_]").click(clickOnElement);
    $("g[id^=role_]").click(clickOnElement);

});
]]></script><style type="text/css" id="my_css"><![CDATA[.node:hover, .edge:hover, path:hover, path + polygon:hover {
    cursor: pointer;
    stroke-width: 3;
    font-weight: bolder;
}

.my_hover {
    cursor: pointer;
    stroke-width: 3;
    font-weight: bolder;
}
]]></style><g id="graph0" class="graph" transform="scale(1 1) rotate(0) translate(4 803.41)">
<title>./playbooks/submariner-subctl-verify.yml </title>
<polygon fill="white" stroke="transparent" points="-4,4 -4,-803.41 1915.12,-803.41 1915.12,4 -4,4"/>
<!-- ./playbooks/submariner&#45;subctl&#45;verify.yml -->
<g id="root_node" class="node">
<title>./playbooks/submariner-subctl-verify.yml</title>
<ellipse fill="none" stroke="black" stroke-dasharray="1,5" cx="198.88" cy="-399.72" rx="198.76" ry="18"/>
<text text-anchor="middle" x="198.88" y="-396.02" font-family="Times,serif" font-size="14.00">./playbooks/submariner-subctl-verify.yml</text>
</g>
<!-- Play #1: Main deployment playbook for integrating submariner (0) -->
<g id="play_c7e77da0-f34d-4322-b4fd-9ba67af4277a" class="node">
<title>Play #1: Main deployment playbook for integrating submariner (0)</title>
<polygon fill="#77918e" stroke="#77918e" points="938.76,-417.72 443.76,-417.72 443.76,-381.72 938.76,-381.72 938.76,-417.72"/>
<text text-anchor="middle" x="691.26" y="-396.02" font-family="Times,serif" font-size="14.00" fill="#ffffff">Play #1: Main deployment playbook for integrating submariner (0)</text>
<links><link target="edge_3f20aa07-2d3d-4b3e-a8cf-a7b1364c3b5c"/><link target="edge_72484ab4-9cf2-43af-9128-76add7a95125"/><link target="edge_9194c4b8-eb91-484d-8061-24870c3a6796"/><link target="edge_8ad056b6-a863-424b-86be-c3c8507580c9"/><link target="edge_be24ba8e-4756-478e-96c2-9ce79e9fca44"/><link target="edge_a2882650-8665-4516-b5d2-3c15803177d7"/><link target="edge_5b1680f4-62e7-4387-a77b-bb6a143723cb"/><link target="edge_4aefc97d-fc59-428a-b352-ade4ae3c4eea"/><link target="edge_d5f567ac-60ed-4c2b-8ee8-9c5ce5f2e64b"/><link target="edge_0c2f90b0-699b-4fe4-9a5f-59f9045bb749"/><link target="edge_e67f6924-79f1-47f8-8957-668b8acda681"/><link target="edge_97ee538b-5236-4c04-8b62-4b87d9fbe984"/><link target="edge_956169ca-3143-40df-a10b-3c1a0263254b"/><link target="edge_f47758e2-1a0c-4a9d-9aab-c4d795bd0557"/><link target="edge_91cc9bfb-514d-4e92-b955-d55efde4c096"/></links></g>
<!-- ./playbooks/submariner&#45;subctl&#45;verify.yml&#45;&gt;Play #1: Main deployment playbook for integrating submariner (0) -->
<g id="edge_658dda03-00e0-47bd-9d8c-21f5b8e106c0" class="edge">
<title>./playbooks/submariner-subctl-verify.yml-&gt;Play #1: Main deployment playbook for integrating submariner (0)</title>
<path fill="none" stroke="#77918e" stroke-width="2" d="M397.93,-399.72C409.66,-399.72 421.54,-399.72 433.46,-399.72"/>
<polygon fill="#77918e" stroke="#77918e" stroke-width="2" points="433.48,-403.22 443.48,-399.72 433.48,-396.22 433.48,-403.22"/>
<text text-anchor="middle" x="420.76" y="-403.52" font-family="Times,serif" font-size="14.00" fill="#77918e">1</text>
</g>
<!-- pre_task_0377bb17&#45;eb35&#45;448d&#45;a3ed&#45;033eb2d1d977 -->
<g id="pre_task_0377bb17-eb35-448d-a3ed-033eb2d1d977" class="node">
<title>pre_task_0377bb17-eb35-448d-a3ed-033eb2d1d977</title>
<g id="a_pre_task_0377bb17-eb35-448d-a3ed-033eb2d1d977"><a xlink:title="[pre_task] Check if Ansible meets version requirements.">
<polygon fill="none" stroke="black" points="1746.56,-770.26 1746.56,-785.18 1574.27,-795.72 1330.61,-795.72 1158.32,-785.18 1158.32,-770.26 1330.61,-759.72 1574.27,-759.72 1746.56,-770.26"/>
<text text-anchor="middle" x="1452.44" y="-774.02" font-family="Times,serif" font-size="14.00">[pre_task] Check if Ansible meets version requirements.</text>
</a>
</g>
</g>
<!-- Play #1: Main deployment playbook for integrating submariner (0)&#45;&gt;pre_task_0377bb17&#45;eb35&#45;448d&#45;a3ed&#45;033eb2d1d977 -->
<g id="edge_3f20aa07-2d3d-4b3e-a8cf-a7b1364c3b5c" class="edge">
<title>Play #1: Main deployment playbook for integrating submariner (0)-&gt;pre_task_0377bb17-eb35-448d-a3ed-033eb2d1d977</title>
<path fill="none" stroke="#77918e" stroke-width="2" d="M701.08,-417.95C731.53,-478.59 839.01,-674.04 993.76,-750.72 1094.33,-800.55 1222.97,-803.68 1318.25,-796.43"/>
<polygon fill="#77918e" stroke="#77918e" stroke-width="2" points="1318.55,-799.92 1328.23,-795.63 1317.98,-792.94 1318.55,-799.92"/>
<text text-anchor="middle" x="966.26" y="-742.52" font-family="Times,serif" font-size="14.00" fill="#77918e">1</text>
<links><link target="pre_task_0377bb17-eb35-448d-a3ed-033eb2d1d977"/></links></g>
<!-- task_88ebd862&#45;0c2e&#45;4598&#45;8838&#45;bba00ad660b3 -->
<g id="task_88ebd862-0c2e-4598-8838-bba00ad660b3" class="node">
<title>task_88ebd862-0c2e-4598-8838-bba00ad660b3</title>
<g id="a_task_88ebd862-0c2e-4598-8838-bba00ad660b3"><a xlink:title="[task] ../../roles/kubeinit_prepare : Gather variables for each operating system">
<polygon fill="none" stroke="black" points="1856.05,-716.26 1856.05,-731.18 1619.62,-741.72 1285.26,-741.72 1048.83,-731.18 1048.83,-716.26 1285.26,-705.72 1619.62,-705.72 1856.05,-716.26"/>
<text text-anchor="middle" x="1452.44" y="-720.02" font-family="Times,serif" font-size="14.00">[task] ../../roles/kubeinit_prepare : Gather variables for each operating system</text>
</a>
</g>
</g>
<!-- Play #1: Main deployment playbook for integrating submariner (0)&#45;&gt;task_88ebd862&#45;0c2e&#45;4598&#45;8838&#45;bba00ad660b3 -->
<g id="edge_72484ab4-9cf2-43af-9128-76add7a95125" class="edge">
<title>Play #1: Main deployment playbook for integrating submariner (0)-&gt;task_88ebd862-0c2e-4598-8838-bba00ad660b3</title>
<path fill="none" stroke="#77918e" stroke-width="2" d="M703.56,-417.8C738.61,-472.05 851.77,-633.58 993.76,-696.72 1080.17,-735.14 1184.93,-743.72 1272.42,-741.87"/>
<polygon fill="#77918e" stroke="#77918e" stroke-width="2" points="1272.55,-745.37 1282.45,-741.62 1272.37,-738.37 1272.55,-745.37"/>
<text text-anchor="middle" x="966.26" y="-690.52" font-family="Times,serif" font-size="14.00" fill="#77918e">2</text>
<links><link target="task_88ebd862-0c2e-4598-8838-bba00ad660b3"/></links></g>
<!-- task_85fedf97&#45;7ed6&#45;4c40&#45;8cf5&#45;ca3024bd24a5 -->
<g id="task_85fedf97-7ed6-4c40-8cf5-ca3024bd24a5" class="node">
<title>task_85fedf97-7ed6-4c40-8cf5-ca3024bd24a5</title>
<g id="a_task_85fedf97-7ed6-4c40-8cf5-ca3024bd24a5"><a xlink:title="[task] ../../roles/kubeinit_prepare : add all nodes to the all_nodes group">
<polygon fill="none" stroke="black" points="1818.98,-662.26 1818.98,-677.18 1604.27,-687.72 1300.62,-687.72 1085.9,-677.18 1085.9,-662.26 1300.62,-651.72 1604.27,-651.72 1818.98,-662.26"/>
<text text-anchor="middle" x="1452.44" y="-666.02" font-family="Times,serif" font-size="14.00">[task] ../../roles/kubeinit_prepare : add all nodes to the all_nodes group</text>
</a>
</g>
</g>
<!-- Play #1: Main deployment playbook for integrating submariner (0)&#45;&gt;task_85fedf97&#45;7ed6&#45;4c40&#45;8cf5&#45;ca3024bd24a5 -->
<g id="edge_9194c4b8-eb91-484d-8061-24870c3a6796" class="edge">
<title>Play #1: Main deployment playbook for integrating submariner (0)-&gt;task_85fedf97-7ed6-4c40-8cf5-ca3024bd24a5</title>
<path fill="none" stroke="#77918e" stroke-width="2" d="M707.2,-417.85C747.51,-465.26 864.27,-592.69 993.76,-642.72 1019.92,-652.82 1047.54,-660.66 1075.72,-666.66"/>
<polygon fill="#77918e" stroke="#77918e" stroke-width="2" points="1075.22,-670.12 1085.72,-668.7 1076.62,-663.27 1075.22,-670.12"/>
<text text-anchor="middle" x="966.26" y="-638.52" font-family="Times,serif" font-size="14.00" fill="#77918e">3</text>
<links><link target="task_85fedf97-7ed6-4c40-8cf5-ca3024bd24a5"/></links></g>
<!-- task_144a3d3a&#45;c4d3&#45;43cb&#45;86a2&#45;69b1ea395048 -->
<g id="task_144a3d3a-c4d3-43cb-86a2-69b1ea395048" class="node">
<title>task_144a3d3a-c4d3-43cb-86a2-69b1ea395048</title>
<g id="a_task_144a3d3a-c4d3-43cb-86a2-69b1ea395048"><a xlink:title="[task] ../../roles/kubeinit_prepare : add all master nodes to the all_master_nodes group">
<polygon fill="none" stroke="black" points="1897.56,-608.26 1897.56,-623.18 1636.82,-633.72 1268.07,-633.72 1007.32,-623.18 1007.32,-608.26 1268.07,-597.72 1636.82,-597.72 1897.56,-608.26"/>
<text text-anchor="middle" x="1452.44" y="-612.02" font-family="Times,serif" font-size="14.00">[task] ../../roles/kubeinit_prepare : add all master nodes to the all_master_nodes group</text>
</a>
</g>
</g>
<!-- Play #1: Main deployment playbook for integrating submariner (0)&#45;&gt;task_144a3d3a&#45;c4d3&#45;43cb&#45;86a2&#45;69b1ea395048 -->
<g id="edge_8ad056b6-a863-424b-86be-c3c8507580c9" class="edge">
<title>Play #1: Main deployment playbook for integrating submariner (0)-&gt;task_144a3d3a-c4d3-43cb-86a2-69b1ea395048</title>
<path fill="none" stroke="#77918e" stroke-width="2" d="M712.69,-417.79C758.84,-457.37 876.37,-551.19 993.76,-588.72 1012.33,-594.66 1031.53,-599.7 1051.08,-603.98"/>
<polygon fill="#77918e" stroke="#77918e" stroke-width="2" points="1050.5,-607.43 1061.01,-606.08 1051.95,-600.58 1050.5,-607.43"/>
<text text-anchor="middle" x="966.26" y="-585.52" font-family="Times,serif" font-size="14.00" fill="#77918e">4</text>
<links><link target="task_144a3d3a-c4d3-43cb-86a2-69b1ea395048"/></links></g>
<!-- task_9ec7d9fa&#45;f7d9&#45;451d&#45;92b8&#45;4eb2339c4198 -->
<g id="task_9ec7d9fa-f7d9-451d-92b8-4eb2339c4198" class="node">
<title>task_9ec7d9fa-f7d9-451d-92b8-4eb2339c4198</title>
<g id="a_task_9ec7d9fa-f7d9-451d-92b8-4eb2339c4198"><a xlink:title="[task] ../../roles/kubeinit_prepare : add all worker nodes to the all_worker_nodes group">
<polygon fill="none" stroke="black" points="1897.56,-554.26 1897.56,-569.18 1636.82,-579.72 1268.07,-579.72 1007.32,-569.18 1007.32,-554.26 1268.07,-543.72 1636.82,-543.72 1897.56,-554.26"/>
<text text-anchor="middle" x="1452.44" y="-558.02" font-family="Times,serif" font-size="14.00">[task] ../../roles/kubeinit_prepare : add all worker nodes to the all_worker_nodes group</text>
</a>
</g>
</g>
<!-- Play #1: Main deployment playbook for integrating submariner (0)&#45;&gt;task_9ec7d9fa&#45;f7d9&#45;451d&#45;92b8&#45;4eb2339c4198 -->
<g id="edge_be24ba8e-4756-478e-96c2-9ce79e9fca44" class="edge">
<title>Play #1: Main deployment playbook for integrating submariner (0)-&gt;task_9ec7d9fa-f7d9-451d-92b8-4eb2339c4198</title>
<path fill="none" stroke="#77918e" stroke-width="2" d="M722.61,-417.81C775.53,-448.3 889.03,-509.1 993.76,-534.72 1018.53,-540.78 1044.27,-545.75 1070.34,-549.8"/>
<polygon fill="#77918e" stroke="#77918e" stroke-width="2" points="1069.93,-553.28 1080.34,-551.31 1070.98,-546.35 1069.93,-553.28"/>
<text text-anchor="middle" x="966.26" y="-531.52" font-family="Times,serif" font-size="14.00" fill="#77918e">5</text>
<links><link target="task_9ec7d9fa-f7d9-451d-92b8-4eb2339c4198"/></links></g>
<!-- task_c74641bd&#45;8cbd&#45;4a96&#45;a117&#45;6e01feb7fcbe -->
<g id="task_c74641bd-8cbd-4a96-a117-6e01feb7fcbe" class="node">
<title>task_c74641bd-8cbd-4a96-a117-6e01feb7fcbe</title>
<g id="a_task_c74641bd-8cbd-4a96-a117-6e01feb7fcbe"><a xlink:title="[task] ../../roles/kubeinit_prepare : add all bootstrap nodes the all_bootstrap_nodes group">
<polygon fill="none" stroke="black" points="1911.3,-500.26 1911.3,-515.18 1642.51,-525.72 1262.38,-525.72 993.59,-515.18 993.59,-500.26 1262.38,-489.72 1642.51,-489.72 1911.3,-500.26"/>
<text text-anchor="middle" x="1452.44" y="-504.02" font-family="Times,serif" font-size="14.00">[task] ../../roles/kubeinit_prepare : add all bootstrap nodes the all_bootstrap_nodes group</text>
</a>
</g>
</g>
<!-- Play #1: Main deployment playbook for integrating submariner (0)&#45;&gt;task_c74641bd&#45;8cbd&#45;4a96&#45;a117&#45;6e01feb7fcbe -->
<g id="edge_a2882650-8665-4516-b5d2-3c15803177d7" class="edge">
<title>Play #1: Main deployment playbook for integrating submariner (0)-&gt;task_c74641bd-8cbd-4a96-a117-6e01feb7fcbe</title>
<path fill="none" stroke="#77918e" stroke-width="2" d="M746.01,-417.72C805.76,-436.9 905.49,-466.41 993.76,-480.72 1028.96,-486.42 1065.84,-490.96 1102.75,-494.56"/>
<polygon fill="#77918e" stroke="#77918e" stroke-width="2" points="1102.88,-498.09 1113.16,-495.55 1103.54,-491.12 1102.88,-498.09"/>
<text text-anchor="middle" x="966.26" y="-479.52" font-family="Times,serif" font-size="14.00" fill="#77918e">6</text>
<links><link target="task_c74641bd-8cbd-4a96-a117-6e01feb7fcbe"/></links></g>
<!-- task_89a5c7f6&#45;cd4f&#45;4d6b&#45;a902&#45;8d7d2acdf064 -->
<g id="task_89a5c7f6-cd4f-4d6b-a902-8d7d2acdf064" class="node">
<title>task_89a5c7f6-cd4f-4d6b-a902-8d7d2acdf064</title>
<g id="a_task_89a5c7f6-cd4f-4d6b-a902-8d7d2acdf064"><a xlink:title="[task] ../../roles/kubeinit_prepare : add all service nodes to the all_service_nodes group">
<polygon fill="none" stroke="black" points="1899.38,-446.26 1899.38,-461.18 1637.57,-471.72 1267.32,-471.72 1005.51,-461.18 1005.51,-446.26 1267.32,-435.72 1637.57,-435.72 1899.38,-446.26"/>
<text text-anchor="middle" x="1452.44" y="-450.02" font-family="Times,serif" font-size="14.00">[task] ../../roles/kubeinit_prepare : add all service nodes to the all_service_nodes group</text>
</a>
</g>
</g>
<!-- Play #1: Main deployment playbook for integrating submariner (0)&#45;&gt;task_89a5c7f6&#45;cd4f&#45;4d6b&#45;a902&#45;8d7d2acdf064 -->
<g id="edge_5b1680f4-62e7-4387-a77b-bb6a143723cb" class="edge">
<title>Play #1: Main deployment playbook for integrating submariner (0)-&gt;task_89a5c7f6-cd4f-4d6b-a902-8d7d2acdf064</title>
<path fill="none" stroke="#77918e" stroke-width="2" d="M883.59,-417.74C920.15,-420.93 958.13,-424.07 993.76,-426.72 1051.17,-430.98 1112.66,-434.99 1171.35,-438.55"/>
<polygon fill="#77918e" stroke="#77918e" stroke-width="2" points="1171.32,-442.05 1181.51,-439.16 1171.74,-435.07 1171.32,-442.05"/>
<text text-anchor="middle" x="966.26" y="-428.52" font-family="Times,serif" font-size="14.00" fill="#77918e">7</text>
<links><link target="task_89a5c7f6-cd4f-4d6b-a902-8d7d2acdf064"/></links></g>
<!-- task_39d268fb&#45;e423&#45;4413&#45;b444&#45;d0969eca2703 -->
<g id="task_39d268fb-e423-4413-b444-d0969eca2703" class="node">
<title>task_39d268fb-e423-4413-b444-d0969eca2703</title>
<g id="a_task_39d268fb-e423-4413-b444-d0969eca2703"><a xlink:title="[task] ../../roles/kubeinit_prepare : add all hosts to the all_hosts group">
<polygon fill="none" stroke="black" points="1814.13,-392.26 1814.13,-407.18 1602.26,-417.72 1302.62,-417.72 1090.75,-407.18 1090.75,-392.26 1302.62,-381.72 1602.26,-381.72 1814.13,-392.26"/>
<text text-anchor="middle" x="1452.44" y="-396.02" font-family="Times,serif" font-size="14.00">[task] ../../roles/kubeinit_prepare : add all hosts to the all_hosts group</text>
</a>
</g>
</g>
<!-- Play #1: Main deployment playbook for integrating submariner (0)&#45;&gt;task_39d268fb&#45;e423&#45;4413&#45;b444&#45;d0969eca2703 -->
<g id="edge_4aefc97d-fc59-428a-b352-ade4ae3c4eea" class="edge">
<title>Play #1: Main deployment playbook for integrating submariner (0)-&gt;task_39d268fb-e423-4413-b444-d0969eca2703</title>
<path fill="none" stroke="#77918e" stroke-width="2" d="M939.01,-399.72C984.27,-399.72 1032.42,-399.72 1080.39,-399.72"/>
<polygon fill="#77918e" stroke="#77918e" stroke-width="2" points="1080.62,-403.22 1090.62,-399.72 1080.62,-396.22 1080.62,-403.22"/>
<text text-anchor="middle" x="966.26" y="-403.52" font-family="Times,serif" font-size="14.00" fill="#77918e">8</text>
<links><link target="task_39d268fb-e423-4413-b444-d0969eca2703"/></links></g>
<!-- task_8d37bb88&#45;8fdb&#45;44e2&#45;82f2&#45;6b7f3891ae21 -->
<g id="task_8d37bb88-8fdb-44e2-82f2-6b7f3891ae21" class="node">
<title>task_8d37bb88-8fdb-44e2-82f2-6b7f3891ae21</title>
<g id="a_task_8d37bb88-8fdb-44e2-82f2-6b7f3891ae21"><a xlink:title="[task] ../../roles/kubeinit_prepare : list all_hosts">
<polygon fill="none" stroke="black" points="1700.61,-338.26 1700.61,-353.18 1555.24,-363.72 1349.65,-363.72 1204.28,-353.18 1204.28,-338.26 1349.65,-327.72 1555.24,-327.72 1700.61,-338.26"/>
<text text-anchor="middle" x="1452.44" y="-342.02" font-family="Times,serif" font-size="14.00">[task] ../../roles/kubeinit_prepare : list all_hosts</text>
</a>
</g>
</g>
<!-- Play #1: Main deployment playbook for integrating submariner (0)&#45;&gt;task_8d37bb88&#45;8fdb&#45;44e2&#45;82f2&#45;6b7f3891ae21 -->
<g id="edge_d5f567ac-60ed-4c2b-8ee8-9c5ce5f2e64b" class="edge">
<title>Play #1: Main deployment playbook for integrating submariner (0)-&gt;task_8d37bb88-8fdb-44e2-82f2-6b7f3891ae21</title>
<path fill="none" stroke="#77918e" stroke-width="2" d="M883.59,-381.71C920.15,-378.51 958.13,-375.37 993.76,-372.72 1073.43,-366.8 1160.98,-361.38 1237.99,-356.96"/>
<polygon fill="#77918e" stroke="#77918e" stroke-width="2" points="1238.51,-360.44 1248.3,-356.38 1238.11,-353.45 1238.51,-360.44"/>
<text text-anchor="middle" x="966.26" y="-378.52" font-family="Times,serif" font-size="14.00" fill="#77918e">9</text>
<links><link target="task_8d37bb88-8fdb-44e2-82f2-6b7f3891ae21"/></links></g>
<!-- task_8f3c98d1&#45;adf2&#45;4d29&#45;b413&#45;7caffd535f99 -->
<g id="task_8f3c98d1-adf2-4d29-b413-7caffd535f99" class="node">
<title>task_8f3c98d1-adf2-4d29-b413-7caffd535f99</title>
<g id="a_task_8f3c98d1-adf2-4d29-b413-7caffd535f99"><a xlink:title="[task] ../../roles/kubeinit_prepare : list all_nodes">
<polygon fill="none" stroke="black" points="1702.83,-284.26 1702.83,-299.18 1556.16,-309.72 1348.73,-309.72 1202.06,-299.18 1202.06,-284.26 1348.73,-273.72 1556.16,-273.72 1702.83,-284.26"/>
<text text-anchor="middle" x="1452.44" y="-288.02" font-family="Times,serif" font-size="14.00">[task] ../../roles/kubeinit_prepare : list all_nodes</text>
</a>
</g>
</g>
<!-- Play #1: Main deployment playbook for integrating submariner (0)&#45;&gt;task_8f3c98d1&#45;adf2&#45;4d29&#45;b413&#45;7caffd535f99 -->
<g id="edge_0c2f90b0-699b-4fe4-9a5f-59f9045bb749" class="edge">
<title>Play #1: Main deployment playbook for integrating submariner (0)-&gt;task_8f3c98d1-adf2-4d29-b413-7caffd535f99</title>
<path fill="none" stroke="#77918e" stroke-width="2" d="M746.01,-381.72C805.76,-362.54 905.49,-333.03 993.76,-318.72 1057.44,-308.4 1126.66,-301.91 1191.54,-297.85"/>
<polygon fill="#77918e" stroke="#77918e" stroke-width="2" points="1192.15,-301.32 1201.92,-297.22 1191.72,-294.34 1192.15,-301.32"/>
<text text-anchor="middle" x="966.26" y="-327.52" font-family="Times,serif" font-size="14.00" fill="#77918e">10</text>
<links><link target="task_8f3c98d1-adf2-4d29-b413-7caffd535f99"/></links></g>
<!-- task_a31aa26b&#45;6a60&#45;44ba&#45;9b14&#45;1435008c707b -->
<g id="task_a31aa26b-6a60-44ba-9b14-1435008c707b" class="node">
<title>task_a31aa26b-6a60-44ba-9b14-1435008c707b</title>
<g id="a_task_a31aa26b-6a60-44ba-9b14-1435008c707b"><a xlink:title="[task] ../../roles/kubeinit_prepare : list all_master_nodes">
<polygon fill="none" stroke="black" points="1743.03,-230.26 1743.03,-245.18 1572.81,-255.72 1332.08,-255.72 1161.86,-245.18 1161.86,-230.26 1332.08,-219.72 1572.81,-219.72 1743.03,-230.26"/>
<text text-anchor="middle" x="1452.44" y="-234.02" font-family="Times,serif" font-size="14.00">[task] ../../roles/kubeinit_prepare : list all_master_nodes</text>
</a>
</g>
</g>
<!-- Play #1: Main deployment playbook for integrating submariner (0)&#45;&gt;task_a31aa26b&#45;6a60&#45;44ba&#45;9b14&#45;1435008c707b -->
<g id="edge_e67f6924-79f1-47f8-8957-668b8acda681" class="edge">
<title>Play #1: Main deployment playbook for integrating submariner (0)-&gt;task_a31aa26b-6a60-44ba-9b14-1435008c707b</title>
<path fill="none" stroke="#77918e" stroke-width="2" d="M722.61,-381.63C775.53,-351.14 889.03,-290.35 993.76,-264.72 1044.15,-252.39 1098.55,-244.59 1151.65,-239.81"/>
<polygon fill="#77918e" stroke="#77918e" stroke-width="2" points="1152.24,-243.27 1161.9,-238.92 1151.63,-236.3 1152.24,-243.27"/>
<text text-anchor="middle" x="966.26" y="-277.52" font-family="Times,serif" font-size="14.00" fill="#77918e">11</text>
<links><link target="task_a31aa26b-6a60-44ba-9b14-1435008c707b"/></links></g>
<!-- task_31e0a1d2&#45;0686&#45;4be3&#45;8340&#45;fc4104b51469 -->
<g id="task_31e0a1d2-0686-4be3-8340-fc4104b51469" class="node">
<title>task_31e0a1d2-0686-4be3-8340-fc4104b51469</title>
<g id="a_task_31e0a1d2-0686-4be3-8340-fc4104b51469"><a xlink:title="[task] ../../roles/kubeinit_prepare : list all_worker_nodes">
<polygon fill="none" stroke="black" points="1743.03,-176.26 1743.03,-191.18 1572.81,-201.72 1332.08,-201.72 1161.86,-191.18 1161.86,-176.26 1332.08,-165.72 1572.81,-165.72 1743.03,-176.26"/>
<text text-anchor="middle" x="1452.44" y="-180.02" font-family="Times,serif" font-size="14.00">[task] ../../roles/kubeinit_prepare : list all_worker_nodes</text>
</a>
</g>
</g>
<!-- Play #1: Main deployment playbook for integrating submariner (0)&#45;&gt;task_31e0a1d2&#45;0686&#45;4be3&#45;8340&#45;fc4104b51469 -->
<g id="edge_97ee538b-5236-4c04-8b62-4b87d9fbe984" class="edge">
<title>Play #1: Main deployment playbook for integrating submariner (0)-&gt;task_31e0a1d2-0686-4be3-8340-fc4104b51469</title>
<path fill="none" stroke="#77918e" stroke-width="2" d="M712.69,-381.65C758.84,-342.07 876.37,-248.25 993.76,-210.72 1043.73,-194.75 1098.29,-185.21 1151.78,-179.85"/>
<polygon fill="#77918e" stroke="#77918e" stroke-width="2" points="1152.14,-183.33 1161.76,-178.9 1151.47,-176.36 1152.14,-183.33"/>
<text text-anchor="middle" x="966.26" y="-227.52" font-family="Times,serif" font-size="14.00" fill="#77918e">12</text>
<links><link target="task_31e0a1d2-0686-4be3-8340-fc4104b51469"/></links></g>
<!-- task_3599c761&#45;1069&#45;4596&#45;85e9&#45;d6bfb1322eb0 -->
<g id="task_3599c761-1069-4596-85e9-d6bfb1322eb0" class="node">
<title>task_3599c761-1069-4596-85e9-d6bfb1322eb0</title>
<g id="a_task_3599c761-1069-4596-85e9-d6bfb1322eb0"><a xlink:title="[task] ../../roles/kubeinit_prepare : list all_service_nodes">
<polygon fill="none" stroke="black" points="1743.93,-122.26 1743.93,-137.18 1573.18,-147.72 1331.7,-147.72 1160.95,-137.18 1160.95,-122.26 1331.7,-111.72 1573.18,-111.72 1743.93,-122.26"/>
<text text-anchor="middle" x="1452.44" y="-126.02" font-family="Times,serif" font-size="14.00">[task] ../../roles/kubeinit_prepare : list all_service_nodes</text>
</a>
</g>
</g>
<!-- Play #1: Main deployment playbook for integrating submariner (0)&#45;&gt;task_3599c761&#45;1069&#45;4596&#45;85e9&#45;d6bfb1322eb0 -->
<g id="edge_956169ca-3143-40df-a10b-3c1a0263254b" class="edge">
<title>Play #1: Main deployment playbook for integrating submariner (0)-&gt;task_3599c761-1069-4596-85e9-d6bfb1322eb0</title>
<path fill="none" stroke="#77918e" stroke-width="2" d="M707.2,-381.59C747.51,-334.18 864.27,-206.75 993.76,-156.72 1078.49,-123.99 1178.61,-115.07 1263.58,-115.25"/>
<polygon fill="#77918e" stroke="#77918e" stroke-width="2" points="1263.57,-118.75 1273.6,-115.31 1263.62,-111.75 1263.57,-118.75"/>
<text text-anchor="middle" x="966.26" y="-172.52" font-family="Times,serif" font-size="14.00" fill="#77918e">13</text>
<links><link target="task_3599c761-1069-4596-85e9-d6bfb1322eb0"/></links></g>
<!-- task_ed4c78cd&#45;1622&#45;492b&#45;aee5&#45;dfb22ed95111 -->
<g id="task_ed4c78cd-1622-492b-aee5-dfb22ed95111" class="node">
<title>task_ed4c78cd-1622-492b-aee5-dfb22ed95111</title>
<g id="a_task_ed4c78cd-1622-492b-aee5-dfb22ed95111"><a xlink:title="[task] ../../roles/kubeinit_prepare : list all_bootstrap_nodes">
<polygon fill="none" stroke="black" points="1756.26,-68.26 1756.26,-83.18 1578.29,-93.72 1326.6,-93.72 1148.62,-83.18 1148.62,-68.26 1326.6,-57.72 1578.29,-57.72 1756.26,-68.26"/>
<text text-anchor="middle" x="1452.44" y="-72.02" font-family="Times,serif" font-size="14.00">[task] ../../roles/kubeinit_prepare : list all_bootstrap_nodes</text>
</a>
</g>
</g>
<!-- Play #1: Main deployment playbook for integrating submariner (0)&#45;&gt;task_ed4c78cd&#45;1622&#45;492b&#45;aee5&#45;dfb22ed95111 -->
<g id="edge_f47758e2-1a0c-4a9d-9aab-c4d795bd0557" class="edge">
<title>Play #1: Main deployment playbook for integrating submariner (0)-&gt;task_ed4c78cd-1622-492b-aee5-dfb22ed95111</title>
<path fill="none" stroke="#77918e" stroke-width="2" d="M703.56,-381.64C738.61,-327.39 851.77,-165.86 993.76,-102.72 1088.4,-60.64 1205.08,-54.36 1296.94,-58.36"/>
<polygon fill="#77918e" stroke="#77918e" stroke-width="2" points="1297,-61.87 1307.16,-58.85 1297.34,-54.88 1297,-61.87"/>
<text text-anchor="middle" x="966.26" y="-121.52" font-family="Times,serif" font-size="14.00" fill="#77918e">14</text>
<links><link target="task_ed4c78cd-1622-492b-aee5-dfb22ed95111"/></links></g>
<!-- task_2ebeca2e&#45;685a&#45;4dcd&#45;902c&#45;03c8e5350611 -->
<g id="task_2ebeca2e-685a-4dcd-902c-03c8e5350611" class="node">
<title>task_2ebeca2e-685a-4dcd-902c-03c8e5350611</title>
<g id="a_task_2ebeca2e-685a-4dcd-902c-03c8e5350611"><a xlink:title="[task] ../../roles/kubeinit_submariner : Execute subctl verify">
<polygon fill="none" stroke="black" points="1762.92,-14.26 1762.92,-29.18 1581.05,-39.72 1323.84,-39.72 1141.96,-29.18 1141.96,-14.26 1323.84,-3.72 1581.05,-3.72 1762.92,-14.26"/>
<text text-anchor="middle" x="1452.44" y="-18.02" font-family="Times,serif" font-size="14.00">[task] ../../roles/kubeinit_submariner : Execute subctl verify</text>
</a>
</g>
</g>
<!-- Play #1: Main deployment playbook for integrating submariner (0)&#45;&gt;task_2ebeca2e&#45;685a&#45;4dcd&#45;902c&#45;03c8e5350611 -->
<g id="edge_91cc9bfb-514d-4e92-b955-d55efde4c096" class="edge">
<title>Play #1: Main deployment playbook for integrating submariner (0)-&gt;task_2ebeca2e-685a-4dcd-902c-03c8e5350611</title>
<path fill="none" stroke="#77918e" stroke-width="2" d="M701.08,-381.5C731.53,-320.86 839.01,-125.4 993.76,-48.72 1093.82,0.85 1221.65,4.2 1316.77,-2.9"/>
<polygon fill="#77918e" stroke="#77918e" stroke-width="2" points="1316.5,-6.39 1326.75,-3.69 1317.06,0.59 1316.5,-6.39"/>
<text text-anchor="middle" x="966.26" y="-70.52" font-family="Times,serif" font-size="14.00" fill="#77918e">15</text>
<links><link target="task_2ebeca2e-685a-4dcd-902c-03c8e5350611"/></links></g>
</g>
</svg>