<?xml version="1.0" encoding="UTF-8" standalone="no"?>
<!DOCTYPE svg PUBLIC "-//W3C//DTD SVG 1.1//EN"
 "http://www.w3.org/Graphics/SVG/1.1/DTD/svg11.dtd">
<!-- Generated by graphviz version 2.43.0 (0)
 -->
<!-- Title: kubeinit/playbook.yml  Pages: 1 -->
<svg width="2537pt" height="1467pt"
 viewBox="0.00 0.00 2537.49 1467.23" xmlns="http://www.w3.org/2000/svg" xmlns:xlink="http://www.w3.org/1999/xlink">
<g id="graph0" class="graph" transform="scale(1 1) rotate(0) translate(4 1463.23)">
<title>kubeinit/playbook.yml </title>
<polygon fill="white" stroke="transparent" points="-4,4 -4,-1463.23 2533.49,-1463.23 2533.49,4 -4,4"/>
<!-- kubeinit/playbook.yml -->
<g id="root_node" class="node">
<title>kubeinit/playbook.yml</title>
<ellipse fill="none" stroke="black" stroke-dasharray="1,5" cx="113.09" cy="-748.23" rx="113.18" ry="18"/>
<text text-anchor="middle" x="113.09" y="-744.53" font-family="Times,serif" font-size="14.00">kubeinit/playbook.yml</text>
</g>
<!-- task&#45;create&#45;network -->
<g id="play_24f55657&#45;11fc&#45;4b97&#45;95d7&#45;7f426c96047e" class="node">
<title>task&#45;create&#45;network</title>
<g id="a_play_24f55657&#45;11fc&#45;4b97&#45;95d7&#45;7f426c96047e"><a xlink:title="localhost">
<polygon fill="none" stroke="#000000" points="495.75,-740.77 495.75,-755.68 430.31,-766.23 337.76,-766.23 272.32,-755.68 272.32,-740.77 337.76,-730.23 430.31,-730.23 495.75,-740.77"/>
<text text-anchor="middle" x="384.04" y="-744.53" font-family="Times,serif" font-size="14.00" fill="#000000">task&#45;create&#45;network</text>
</a>
</g>
</g>
<!-- kubeinit/playbook.yml&#45;&gt;task&#45;create&#45;network -->
<g id="edge_8ebfc728&#45;ea18&#45;42eb&#45;a2f8&#45;c7f53dd04ab8" class="edge">
<title>kubeinit/playbook.yml&#45;&gt;task&#45;create&#45;network</title>
<path fill="none" stroke="#000000" stroke-width="2" d="M226.2,-748.23C237.9,-748.23 249.84,-748.23 261.64,-748.23"/>
<polygon fill="#000000" stroke="#000000" stroke-width="2" points="261.97,-751.73 271.97,-748.23 261.97,-744.73 261.97,-751.73"/>
<text text-anchor="middle" x="249.18" y="-752.03" font-family="Times,serif" font-size="14.00" fill="#000000">3</text>
</g>
<!-- task_ba5bfd46&#45;0dd5&#45;40ca&#45;bbbe&#45;e3f6126364ce -->
<g id="task_ba5bfd46&#45;0dd5&#45;40ca&#45;bbbe&#45;e3f6126364ce" class="node">
<title>task_ba5bfd46&#45;0dd5&#45;40ca&#45;bbbe&#45;e3f6126364ce</title>
<g id="a_task_ba5bfd46&#45;0dd5&#45;40ca&#45;bbbe&#45;e3f6126364ce"><a xlink:title="[task] kubeinit.kubeinit.kubeinit_libvirt : Install OVN central packages in CentOS/RHEL">
<polygon fill="none" stroke="black" points="2376.07,-1415.77 2376.07,-1430.68 2111.95,-1441.23 1738.43,-1441.23 1474.31,-1430.68 1474.31,-1415.77 1738.43,-1405.23 2111.95,-1405.23 2376.07,-1415.77"/>
<text text-anchor="middle" x="1925.19" y="-1419.53" font-family="Times,serif" font-size="14.00">[task] kubeinit.kubeinit.kubeinit_libvirt : Install OVN central packages in CentOS/RHEL</text>
</a>
</g>
</g>
<!-- task&#45;create&#45;network&#45;&gt;task_ba5bfd46&#45;0dd5&#45;40ca&#45;bbbe&#45;e3f6126364ce -->
<g id="edge_d83d8c21&#45;281b&#45;490d&#45;8ec2&#45;07c517c19592" class="edge">
<title>task&#45;create&#45;network&#45;&gt;task_ba5bfd46&#45;0dd5&#45;40ca&#45;bbbe&#45;e3f6126364ce</title>
<path fill="none" stroke="#000000" stroke-width="2" d="M385.75,-766.26C389.94,-861.61 414.66,-1305.95 513.89,-1389.23 594.86,-1457.18 1207.98,-1448.95 1598.7,-1436.38"/>
<polygon fill="#000000" stroke="#000000" stroke-width="2" points="1598.87,-1439.87 1608.75,-1436.05 1598.65,-1432.88 1598.87,-1439.87"/>
<text text-anchor="middle" x="908.39" y="-1448.03" font-family="Times,serif" font-size="14.00" fill="#000000">1 &#160;[when: hostvars[kubeinit_ovn_central_host].distribution_family == &#39;CentOS&#39;]</text>
</g>
<!-- task_5fb32e25&#45;aa20&#45;4efb&#45;b5b4&#45;0f28b41a53f4 -->
<g id="task_5fb32e25&#45;aa20&#45;4efb&#45;b5b4&#45;0f28b41a53f4" class="node">
<title>task_5fb32e25&#45;aa20&#45;4efb&#45;b5b4&#45;0f28b41a53f4</title>
<g id="a_task_5fb32e25&#45;aa20&#45;4efb&#45;b5b4&#45;0f28b41a53f4"><a xlink:title="[task] kubeinit.kubeinit.kubeinit_libvirt : Install OVN central packages in Fedora">
<polygon fill="none" stroke="black" points="2340.31,-1361.77 2340.31,-1376.68 2097.14,-1387.23 1753.24,-1387.23 1510.07,-1376.68 1510.07,-1361.77 1753.24,-1351.23 2097.14,-1351.23 2340.31,-1361.77"/>
<text text-anchor="middle" x="1925.19" y="-1365.53" font-family="Times,serif" font-size="14.00">[task] kubeinit.kubeinit.kubeinit_libvirt : Install OVN central packages in Fedora</text>
</a>
</g>
</g>
<!-- task&#45;create&#45;network&#45;&gt;task_5fb32e25&#45;aa20&#45;4efb&#45;b5b4&#45;0f28b41a53f4 -->
<g id="edge_e348b004&#45;114a&#45;487b&#45;ae32&#45;f06020cfb9f3" class="edge">
<title>task&#45;create&#45;network&#45;&gt;task_5fb32e25&#45;aa20&#45;4efb&#45;b5b4&#45;0f28b41a53f4</title>
<path fill="none" stroke="#000000" stroke-width="2" d="M386.12,-766.52C391.94,-857.51 422.61,-1259.99 513.89,-1335.23 551.87,-1366.54 1098.42,-1371.93 1499.75,-1371.61"/>
<polygon fill="#000000" stroke="#000000" stroke-width="2" points="1499.8,-1375.11 1509.8,-1371.6 1499.8,-1368.11 1499.8,-1375.11"/>
<text text-anchor="middle" x="908.39" y="-1374.03" font-family="Times,serif" font-size="14.00" fill="#000000">2 &#160;[when: hostvars[kubeinit_ovn_central_host].distribution_family == &#39;Fedora&#39;]</text>
</g>
<!-- task_a23ae7b4&#45;c42c&#45;4430&#45;9e6e&#45;8012bf3f777c -->
<g id="task_a23ae7b4&#45;c42c&#45;4430&#45;9e6e&#45;8012bf3f777c" class="node">
<title>task_a23ae7b4&#45;c42c&#45;4430&#45;9e6e&#45;8012bf3f777c</title>
<g id="a_task_a23ae7b4&#45;c42c&#45;4430&#45;9e6e&#45;8012bf3f777c"><a xlink:title="[task] kubeinit.kubeinit.kubeinit_libvirt : Install OVN central packages in Ubuntu/Debian">
<polygon fill="none" stroke="black" points="2381.82,-1307.77 2381.82,-1322.68 2114.33,-1333.23 1736.05,-1333.23 1468.56,-1322.68 1468.56,-1307.77 1736.05,-1297.23 2114.33,-1297.23 2381.82,-1307.77"/>
<text text-anchor="middle" x="1925.19" y="-1311.53" font-family="Times,serif" font-size="14.00">[task] kubeinit.kubeinit.kubeinit_libvirt : Install OVN central packages in Ubuntu/Debian</text>
</a>
</g>
</g>
<!-- task&#45;create&#45;network&#45;&gt;task_a23ae7b4&#45;c42c&#45;4430&#45;9e6e&#45;8012bf3f777c -->
<g id="edge_5453b957&#45;8318&#45;4d74&#45;8003&#45;e44982801ba4" class="edge">
<title>task&#45;create&#45;network&#45;&gt;task_a23ae7b4&#45;c42c&#45;4430&#45;9e6e&#45;8012bf3f777c</title>
<path fill="none" stroke="#000000" stroke-width="2" d="M386.53,-766.25C394,-851.61 430.35,-1213.83 513.89,-1281.23 550.89,-1311.08 1061.92,-1317.23 1458.29,-1317.44"/>
<polygon fill="#000000" stroke="#000000" stroke-width="2" points="1458.51,-1320.94 1468.51,-1317.45 1458.51,-1313.94 1458.51,-1320.94"/>
<text text-anchor="middle" x="908.39" y="-1320.03" font-family="Times,serif" font-size="14.00" fill="#000000">3 &#160;[when: hostvars[kubeinit_ovn_central_host].distribution_family == &#39;Debian&#39;]</text>
</g>
<!-- task_ba9d9eea&#45;3256&#45;45ba&#45;95ef&#45;ceab42d49edd -->
<g id="task_ba9d9eea&#45;3256&#45;45ba&#45;95ef&#45;ceab42d49edd" class="node">
<title>task_ba9d9eea&#45;3256&#45;45ba&#45;95ef&#45;ceab42d49edd</title>
<g id="a_task_ba9d9eea&#45;3256&#45;45ba&#45;95ef&#45;ceab42d49edd"><a xlink:title="[task] kubeinit.kubeinit.kubeinit_libvirt : Collect all HVs which are not the ovn&#45;central host">
<polygon fill="none" stroke="black" points="2392.84,-1253.77 2392.84,-1268.68 2118.9,-1279.23 1731.49,-1279.23 1457.55,-1268.68 1457.55,-1253.77 1731.49,-1243.23 2118.9,-1243.23 2392.84,-1253.77"/>
<text text-anchor="middle" x="1925.19" y="-1257.53" font-family="Times,serif" font-size="14.00">[task] kubeinit.kubeinit.kubeinit_libvirt : Collect all HVs which are not the ovn&#45;central host</text>
</a>
</g>
</g>
<!-- task&#45;create&#45;network&#45;&gt;task_ba9d9eea&#45;3256&#45;45ba&#45;95ef&#45;ceab42d49edd -->
<g id="edge_588a9ba9&#45;205f&#45;4439&#45;a57e&#45;f58f2860f9c4" class="edge">
<title>task&#45;create&#45;network&#45;&gt;task_ba9d9eea&#45;3256&#45;45ba&#45;95ef&#45;ceab42d49edd</title>
<path fill="none" stroke="#000000" stroke-width="2" d="M387.05,-766.28C396.37,-846.31 438.14,-1167.7 513.89,-1227.23 550.91,-1256.32 1052.48,-1262.73 1447.05,-1263.21"/>
<polygon fill="#000000" stroke="#000000" stroke-width="2" points="1447.22,-1266.71 1457.23,-1263.22 1447.23,-1259.71 1447.22,-1266.71"/>
<text text-anchor="middle" x="908.39" y="-1266.03" font-family="Times,serif" font-size="14.00" fill="#000000">4 &#160;[when: ovn_host not in kubeinit_ovn_central_host]</text>
</g>
<!-- task_a7300a78&#45;208a&#45;42aa&#45;8550&#45;222ffe08c26a -->
<g id="task_a7300a78&#45;208a&#45;42aa&#45;8550&#45;222ffe08c26a" class="node">
<title>task_a7300a78&#45;208a&#45;42aa&#45;8550&#45;222ffe08c26a</title>
<g id="a_task_a7300a78&#45;208a&#45;42aa&#45;8550&#45;222ffe08c26a"><a xlink:title="[task] kubeinit.kubeinit.kubeinit_libvirt : Install OVN host packages in CentOS/RHEL">
<polygon fill="none" stroke="black" points="2362.84,-1199.77 2362.84,-1214.68 2106.47,-1225.23 1743.91,-1225.23 1487.55,-1214.68 1487.55,-1199.77 1743.91,-1189.23 2106.47,-1189.23 2362.84,-1199.77"/>
<text text-anchor="middle" x="1925.19" y="-1203.53" font-family="Times,serif" font-size="14.00">[task] kubeinit.kubeinit.kubeinit_libvirt : Install OVN host packages in CentOS/RHEL</text>
</a>
</g>
</g>
<!-- task&#45;create&#45;network&#45;&gt;task_a7300a78&#45;208a&#45;42aa&#45;8550&#45;222ffe08c26a -->
<g id="edge_4b6ca05e&#45;e07f&#45;4b8a&#45;92c9&#45;2e4c47b9e216" class="edge">
<title>task&#45;create&#45;network&#45;&gt;task_a7300a78&#45;208a&#45;42aa&#45;8550&#45;222ffe08c26a</title>
<path fill="none" stroke="#000000" stroke-width="2" d="M387.68,-766.28C398.96,-840.71 445.7,-1122.37 513.89,-1174.23 552.32,-1203.46 1078.6,-1209.2 1477.08,-1209.3"/>
<polygon fill="#000000" stroke="#000000" stroke-width="2" points="1477.36,-1212.8 1487.36,-1209.3 1477.36,-1205.8 1477.36,-1212.8"/>
<text text-anchor="middle" x="908.39" y="-1212.03" font-family="Times,serif" font-size="14.00" fill="#000000">5 &#160;[when: hostvars[ovn_host].distribution_family == &#39;CentOS&#39;]</text>
</g>
<!-- task_a8756b26&#45;60cf&#45;4ae2&#45;956c&#45;ca1b2b61b31f -->
<g id="task_a8756b26&#45;60cf&#45;4ae2&#45;956c&#45;ca1b2b61b31f" class="node">
<title>task_a8756b26&#45;60cf&#45;4ae2&#45;956c&#45;ca1b2b61b31f</title>
<g id="a_task_a8756b26&#45;60cf&#45;4ae2&#45;956c&#45;ca1b2b61b31f"><a xlink:title="[task] kubeinit.kubeinit.kubeinit_libvirt : Install OVN host packages in Fedora">
<polygon fill="none" stroke="black" points="2326.17,-1145.77 2326.17,-1160.68 2091.28,-1171.23 1759.1,-1171.23 1524.21,-1160.68 1524.21,-1145.77 1759.1,-1135.23 2091.28,-1135.23 2326.17,-1145.77"/>
<text text-anchor="middle" x="1925.19" y="-1149.53" font-family="Times,serif" font-size="14.00">[task] kubeinit.kubeinit.kubeinit_libvirt : Install OVN host packages in Fedora</text>
</a>
</g>
</g>
<!-- task&#45;create&#45;network&#45;&gt;task_a8756b26&#45;60cf&#45;4ae2&#45;956c&#45;ca1b2b61b31f -->
<g id="edge_d7bedf23&#45;0434&#45;4967&#45;af49&#45;e7533d688bce" class="edge">
<title>task&#45;create&#45;network&#45;&gt;task_a8756b26&#45;60cf&#45;4ae2&#45;956c&#45;ca1b2b61b31f</title>
<path fill="none" stroke="#000000" stroke-width="2" d="M384.69,-766.41C384.62,-828.86 393.79,-1035.56 513.89,-1123.23 554.09,-1152.57 1112.02,-1156.74 1513.88,-1155.88"/>
<polygon fill="#000000" stroke="#000000" stroke-width="2" points="1513.94,-1159.38 1523.93,-1155.86 1513.92,-1152.38 1513.94,-1159.38"/>
<text text-anchor="middle" x="908.39" y="-1159.03" font-family="Times,serif" font-size="14.00" fill="#000000">6 &#160;[when: hostvars[ovn_host].distribution_family == &#39;Fedora&#39;]</text>
</g>
<!-- task_ca53fc21&#45;1865&#45;44e9&#45;90c0&#45;10d85526a621 -->
<g id="task_ca53fc21&#45;1865&#45;44e9&#45;90c0&#45;10d85526a621" class="node">
<title>task_ca53fc21&#45;1865&#45;44e9&#45;90c0&#45;10d85526a621</title>
<g id="a_task_ca53fc21&#45;1865&#45;44e9&#45;90c0&#45;10d85526a621"><a xlink:title="[task] kubeinit.kubeinit.kubeinit_libvirt : Install OVN host packages in Ubuntu/Debian">
<polygon fill="none" stroke="black" points="2367.68,-1091.77 2367.68,-1106.68 2108.48,-1117.23 1741.9,-1117.23 1482.7,-1106.68 1482.7,-1091.77 1741.9,-1081.23 2108.48,-1081.23 2367.68,-1091.77"/>
<text text-anchor="middle" x="1925.19" y="-1095.53" font-family="Times,serif" font-size="14.00">[task] kubeinit.kubeinit.kubeinit_libvirt : Install OVN host packages in Ubuntu/Debian</text>
</a>
</g>
</g>
<!-- task&#45;create&#45;network&#45;&gt;task_ca53fc21&#45;1865&#45;44e9&#45;90c0&#45;10d85526a621 -->
<g id="edge_1023d159&#45;dbed&#45;4467&#45;bcc9&#45;7d870e45b1a1" class="edge">
<title>task&#45;create&#45;network&#45;&gt;task_ca53fc21&#45;1865&#45;44e9&#45;90c0&#45;10d85526a621</title>
<path fill="none" stroke="#000000" stroke-width="2" d="M385.61,-766.25C388.54,-823.61 406.29,-1002.57 513.89,-1077.23 553.36,-1104.62 1074.6,-1106.69 1471.99,-1104.2"/>
<polygon fill="#000000" stroke="#000000" stroke-width="2" points="1472.26,-1107.69 1482.24,-1104.13 1472.21,-1100.69 1472.26,-1107.69"/>
<text text-anchor="middle" x="908.39" y="-1108.03" font-family="Times,serif" font-size="14.00" fill="#000000">7 &#160;[when: hostvars[ovn_host].distribution_family == &#39;Debian&#39;]</text>
</g>
<!-- task_597959e4&#45;f9ba&#45;4659&#45;8c7a&#45;65295ae2bc93 -->
<g id="task_597959e4&#45;f9ba&#45;4659&#45;8c7a&#45;65295ae2bc93" class="node">
<title>task_597959e4&#45;f9ba&#45;4659&#45;8c7a&#45;65295ae2bc93</title>
<g id="a_task_597959e4&#45;f9ba&#45;4659&#45;8c7a&#45;65295ae2bc93"><a xlink:title="[task] kubeinit.kubeinit.kubeinit_libvirt : Refresh firewalld services list to pick up ovn services">
<polygon fill="none" stroke="black" points="2410.51,-1037.77 2410.51,-1052.68 2126.22,-1063.23 1724.16,-1063.23 1439.87,-1052.68 1439.87,-1037.77 1724.16,-1027.23 2126.22,-1027.23 2410.51,-1037.77"/>
<text text-anchor="middle" x="1925.19" y="-1041.53" font-family="Times,serif" font-size="14.00">[task] kubeinit.kubeinit.kubeinit_libvirt : Refresh firewalld services list to pick up ovn services</text>
</a>
</g>
</g>
<!-- task&#45;create&#45;network&#45;&gt;task_597959e4&#45;f9ba&#45;4659&#45;8c7a&#45;65295ae2bc93 -->
<g id="edge_591db516&#45;8508&#45;4081&#45;9c5e&#45;0cf640cbcd24" class="edge">
<title>task&#45;create&#45;network&#45;&gt;task_597959e4&#45;f9ba&#45;4659&#45;8c7a&#45;65295ae2bc93</title>
<path fill="none" stroke="#000000" stroke-width="2" d="M387.43,-766.26C395.1,-816.07 424.12,-955.63 513.89,-1013.23 598.08,-1067.24 1149.12,-1065.35 1536.9,-1056.91"/>
<polygon fill="#000000" stroke="#000000" stroke-width="2" points="1537.26,-1060.4 1547.18,-1056.68 1537.11,-1053.4 1537.26,-1060.4"/>
<text text-anchor="middle" x="908.39" y="-1065.03" font-family="Times,serif" font-size="14.00" fill="#000000">8 &#160;[when: hostvars[ovn_host].firewalld_is_active]</text>
</g>
<!-- task_18e435ee&#45;a9ab&#45;4c9a&#45;8bc4&#45;396bcbe805ac -->
<g id="task_18e435ee&#45;a9ab&#45;4c9a&#45;8bc4&#45;396bcbe805ac" class="node">
<title>task_18e435ee&#45;a9ab&#45;4c9a&#45;8bc4&#45;396bcbe805ac</title>
<g id="a_task_18e435ee&#45;a9ab&#45;4c9a&#45;8bc4&#45;396bcbe805ac"><a xlink:title="[task] kubeinit.kubeinit.kubeinit_libvirt : Enable OVN central in firewalld">
<polygon fill="none" stroke="black" points="2302.33,-983.77 2302.33,-998.68 2081.41,-1009.23 1768.97,-1009.23 1548.05,-998.68 1548.05,-983.77 1768.97,-973.23 2081.41,-973.23 2302.33,-983.77"/>
<text text-anchor="middle" x="1925.19" y="-987.53" font-family="Times,serif" font-size="14.00">[task] kubeinit.kubeinit.kubeinit_libvirt : Enable OVN central in firewalld</text>
</a>
</g>
</g>
<!-- task&#45;create&#45;network&#45;&gt;task_18e435ee&#45;a9ab&#45;4c9a&#45;8bc4&#45;396bcbe805ac -->
<g id="edge_d51dfbc3&#45;af4e&#45;4015&#45;9bde&#45;daf3a8848dda" class="edge">
<title>task&#45;create&#45;network&#45;&gt;task_18e435ee&#45;a9ab&#45;4c9a&#45;8bc4&#45;396bcbe805ac</title>
<path fill="none" stroke="#000000" stroke-width="2" d="M389.26,-766.46C400.56,-810.58 436.11,-922.8 513.89,-968.23 557.68,-993.81 1135.47,-995.91 1537.74,-994.21"/>
<polygon fill="#000000" stroke="#000000" stroke-width="2" points="1537.82,-997.71 1547.8,-994.17 1537.79,-990.71 1537.82,-997.71"/>
<text text-anchor="middle" x="908.39" y="-998.03" font-family="Times,serif" font-size="14.00" fill="#000000">9 &#160;[when: hostvars[kubeinit_ovn_central_host].firewalld_is_active]</text>
</g>
<!-- task_925ed9fd&#45;ecf2&#45;4393&#45;8e5e&#45;4ecd907467b9 -->
<g id="task_925ed9fd&#45;ecf2&#45;4393&#45;8e5e&#45;4ecd907467b9" class="node">
<title>task_925ed9fd&#45;ecf2&#45;4393&#45;8e5e&#45;4ecd907467b9</title>
<g id="a_task_925ed9fd&#45;ecf2&#45;4393&#45;8e5e&#45;4ecd907467b9"><a xlink:title="[task] kubeinit.kubeinit.kubeinit_libvirt : Enable OVN NAT in firewalld">
<polygon fill="none" stroke="black" points="2288.19,-929.77 2288.19,-944.68 2075.55,-955.23 1774.83,-955.23 1562.19,-944.68 1562.19,-929.77 1774.83,-919.23 2075.55,-919.23 2288.19,-929.77"/>
<text text-anchor="middle" x="1925.19" y="-933.53" font-family="Times,serif" font-size="14.00">[task] kubeinit.kubeinit.kubeinit_libvirt : Enable OVN NAT in firewalld</text>
</a>
</g>
</g>
<!-- task&#45;create&#45;network&#45;&gt;task_925ed9fd&#45;ecf2&#45;4393&#45;8e5e&#45;4ecd907467b9 -->
<g id="edge_a2e18065&#45;4730&#45;40d3&#45;aa49&#45;eeda0b55128e" class="edge">
<title>task&#45;create&#45;network&#45;&gt;task_925ed9fd&#45;ecf2&#45;4393&#45;8e5e&#45;4ecd907467b9</title>
<path fill="none" stroke="#000000" stroke-width="2" d="M392.96,-766.31C409.5,-801.5 451.43,-878.45 513.89,-909.23 605.95,-954.59 1182.2,-952.55 1569.03,-945.74"/>
<polygon fill="#000000" stroke="#000000" stroke-width="2" points="1569.34,-949.23 1579.27,-945.56 1569.21,-942.23 1569.34,-949.23"/>
<text text-anchor="middle" x="908.39" y="-953.03" font-family="Times,serif" font-size="14.00" fill="#000000">10 &#160;[when: hostvars[kubeinit_ovn_central_host].firewalld_is_active]</text>
</g>
<!-- task_7cbe4741&#45;9b38&#45;48a9&#45;a7bd&#45;061715ee83d6 -->
<g id="task_7cbe4741&#45;9b38&#45;48a9&#45;a7bd&#45;061715ee83d6" class="node">
<title>task_7cbe4741&#45;9b38&#45;48a9&#45;a7bd&#45;061715ee83d6</title>
<g id="a_task_7cbe4741&#45;9b38&#45;48a9&#45;a7bd&#45;061715ee83d6"><a xlink:title="[task] kubeinit.kubeinit.kubeinit_libvirt : Enable OVN host in firewalld">
<polygon fill="none" stroke="black" points="2289.1,-875.77 2289.1,-890.68 2075.93,-901.23 1774.45,-901.23 1561.28,-890.68 1561.28,-875.77 1774.45,-865.23 2075.93,-865.23 2289.1,-875.77"/>
<text text-anchor="middle" x="1925.19" y="-879.53" font-family="Times,serif" font-size="14.00">[task] kubeinit.kubeinit.kubeinit_libvirt : Enable OVN host in firewalld</text>
</a>
</g>
</g>
<!-- task&#45;create&#45;network&#45;&gt;task_7cbe4741&#45;9b38&#45;48a9&#45;a7bd&#45;061715ee83d6 -->
<g id="edge_14d1fe29&#45;f4c2&#45;4a63&#45;a0d2&#45;f57eff526e9f" class="edge">
<title>task&#45;create&#45;network&#45;&gt;task_7cbe4741&#45;9b38&#45;48a9&#45;a7bd&#45;061715ee83d6</title>
<path fill="none" stroke="#000000" stroke-width="2" d="M399.35,-766.26C420.97,-791.89 464.69,-837.8 513.89,-856.23 608.4,-891.63 1166,-892.63 1551.09,-888.86"/>
<polygon fill="#000000" stroke="#000000" stroke-width="2" points="1551.33,-892.36 1561.29,-888.76 1551.26,-885.36 1551.33,-892.36"/>
<text text-anchor="middle" x="908.39" y="-894.03" font-family="Times,serif" font-size="14.00" fill="#000000">11 &#160;[when: hostvars[ovn_host].firewalld_is_active]</text>
</g>
<!-- task_da12b893&#45;0920&#45;4207&#45;b09e&#45;2c0929b131b4 -->
<g id="task_da12b893&#45;0920&#45;4207&#45;b09e&#45;2c0929b131b4" class="node">
<title>task_da12b893&#45;0920&#45;4207&#45;b09e&#45;2c0929b131b4</title>
<g id="a_task_da12b893&#45;0920&#45;4207&#45;b09e&#45;2c0929b131b4"><a xlink:title="[task] kubeinit.kubeinit.kubeinit_libvirt : Refresh firewalld services list">
<polygon fill="none" stroke="black" points="2292.64,-821.77 2292.64,-836.68 2077.39,-847.23 1772.99,-847.23 1557.74,-836.68 1557.74,-821.77 1772.99,-811.23 2077.39,-811.23 2292.64,-821.77"/>
<text text-anchor="middle" x="1925.19" y="-825.53" font-family="Times,serif" font-size="14.00">[task] kubeinit.kubeinit.kubeinit_libvirt : Refresh firewalld services list</text>
</a>
</g>
</g>
<!-- task&#45;create&#45;network&#45;&gt;task_da12b893&#45;0920&#45;4207&#45;b09e&#45;2c0929b131b4 -->
<g id="edge_aec00cc3&#45;4611&#45;4433&#45;8ee2&#45;1e8aff170ac9" class="edge">
<title>task&#45;create&#45;network&#45;&gt;task_da12b893&#45;0920&#45;4207&#45;b09e&#45;2c0929b131b4</title>
<path fill="none" stroke="#000000" stroke-width="2" d="M438.08,-765.1C461.13,-771.68 488.6,-778.52 513.89,-782.23 880.54,-836.01 1306.31,-842.64 1593.3,-839.07"/>
<polygon fill="#000000" stroke="#000000" stroke-width="2" points="1593.5,-842.57 1603.45,-838.94 1593.41,-835.57 1593.5,-842.57"/>
<text text-anchor="middle" x="908.39" y="-841.03" font-family="Times,serif" font-size="14.00" fill="#000000">12 &#160;[when: hostvars[ovn_host].firewalld_is_active]</text>
</g>
<!-- task_f951a7dc&#45;cc56&#45;4911&#45;a980&#45;e472de3fc435 -->
<g id="task_f951a7dc&#45;cc56&#45;4911&#45;a980&#45;e472de3fc435" class="node">
<title>task_f951a7dc&#45;cc56&#45;4911&#45;a980&#45;e472de3fc435</title>
<g id="a_task_f951a7dc&#45;cc56&#45;4911&#45;a980&#45;e472de3fc435"><a xlink:title="[task] kubeinit.kubeinit.kubeinit_libvirt : Enable and start OVN services in the ovn&#45;central hypervisor (CentOS based)">
<polygon fill="none" stroke="black" points="2527.98,-767.77 2527.98,-782.68 2174.87,-793.23 1675.51,-793.23 1322.4,-782.68 1322.4,-767.77 1675.51,-757.23 2174.87,-757.23 2527.98,-767.77"/>
<text text-anchor="middle" x="1925.19" y="-771.53" font-family="Times,serif" font-size="14.00">[task] kubeinit.kubeinit.kubeinit_libvirt : Enable and start OVN services in the ovn&#45;central hypervisor (CentOS based)</text>
</a>
</g>
</g>
<!-- task&#45;create&#45;network&#45;&gt;task_f951a7dc&#45;cc56&#45;4911&#45;a980&#45;e472de3fc435 -->
<g id="edge_04ad04ac&#45;35cc&#45;48e3&#45;ab99&#45;3600daaeaefa" class="edge">
<title>task&#45;create&#45;network&#45;&gt;task_f951a7dc&#45;cc56&#45;4911&#45;a980&#45;e472de3fc435</title>
<path fill="none" stroke="#000000" stroke-width="2" d="M496.04,-750.18C679.2,-753.39 1056.42,-760.01 1377.19,-765.63"/>
<polygon fill="#000000" stroke="#000000" stroke-width="2" points="1377.56,-769.14 1387.62,-765.82 1377.68,-762.14 1377.56,-769.14"/>
<text text-anchor="middle" x="908.39" y="-767.03" font-family="Times,serif" font-size="14.00" fill="#000000">13 &#160;[when: hostvars[kubeinit_ovn_central_host].distribution_family != &#39;Debian&#39;]</text>
</g>
<!-- task_f993e988&#45;ce52&#45;401d&#45;9a17&#45;c7d7d284b976 -->
<g id="task_f993e988&#45;ce52&#45;401d&#45;9a17&#45;c7d7d284b976" class="node">
<title>task_f993e988&#45;ce52&#45;401d&#45;9a17&#45;c7d7d284b976</title>
<g id="a_task_f993e988&#45;ce52&#45;401d&#45;9a17&#45;c7d7d284b976"><a xlink:title="[task] kubeinit.kubeinit.kubeinit_libvirt : Enable and start OVN services in the rest of the hypervisors (CentOS based)">
<polygon fill="none" stroke="black" points="2529.29,-713.77 2529.29,-728.68 2175.42,-739.23 1674.96,-739.23 1321.09,-728.68 1321.09,-713.77 1674.96,-703.23 2175.42,-703.23 2529.29,-713.77"/>
<text text-anchor="middle" x="1925.19" y="-717.53" font-family="Times,serif" font-size="14.00">[task] kubeinit.kubeinit.kubeinit_libvirt : Enable and start OVN services in the rest of the hypervisors (CentOS based)</text>
</a>
</g>
</g>
<!-- task&#45;create&#45;network&#45;&gt;task_f993e988&#45;ce52&#45;401d&#45;9a17&#45;c7d7d284b976 -->
<g id="edge_a1e756e6&#45;062c&#45;4343&#45;9ccd&#45;13b1540d0920" class="edge">
<title>task&#45;create&#45;network&#45;&gt;task_f993e988&#45;ce52&#45;401d&#45;9a17&#45;c7d7d284b976</title>
<path fill="none" stroke="#000000" stroke-width="2" d="M466.33,-735.95C482.08,-734.01 498.47,-732.3 513.89,-731.23 821.07,-709.96 1166.79,-707.17 1439.05,-709.84"/>
<polygon fill="#000000" stroke="#000000" stroke-width="2" points="1439.07,-713.34 1449.11,-709.94 1439.14,-706.34 1439.07,-713.34"/>
<text text-anchor="middle" x="908.39" y="-735.03" font-family="Times,serif" font-size="14.00" fill="#000000">14 &#160;[when: hostvars[ovn_host].distribution_family != &#39;Debian&#39;]</text>
</g>
<!-- task_dd5cf122&#45;f751&#45;445c&#45;8cc4&#45;eba014f31447 -->
<g id="task_dd5cf122&#45;f751&#45;445c&#45;8cc4&#45;eba014f31447" class="node">
<title>task_dd5cf122&#45;f751&#45;445c&#45;8cc4&#45;eba014f31447</title>
<g id="a_task_dd5cf122&#45;f751&#45;445c&#45;8cc4&#45;eba014f31447"><a xlink:title="[task] kubeinit.kubeinit.kubeinit_libvirt : Enable and start OVN services in the ovn&#45;central hypervisor (Ubuntu based)">
<polygon fill="none" stroke="black" points="2527.98,-659.77 2527.98,-674.68 2174.87,-685.23 1675.51,-685.23 1322.4,-674.68 1322.4,-659.77 1675.51,-649.23 2174.87,-649.23 2527.98,-659.77"/>
<text text-anchor="middle" x="1925.19" y="-663.53" font-family="Times,serif" font-size="14.00">[task] kubeinit.kubeinit.kubeinit_libvirt : Enable and start OVN services in the ovn&#45;central hypervisor (Ubuntu based)</text>
</a>
</g>
</g>
<!-- task&#45;create&#45;network&#45;&gt;task_dd5cf122&#45;f751&#45;445c&#45;8cc4&#45;eba014f31447 -->
<g id="edge_08ed9072&#45;9859&#45;4d31&#45;afb4&#45;b230f6d5ba30" class="edge">
<title>task&#45;create&#45;network&#45;&gt;task_dd5cf122&#45;f751&#45;445c&#45;8cc4&#45;eba014f31447</title>
<path fill="none" stroke="#000000" stroke-width="2" d="M415.01,-730.16C440.35,-715.98 478.13,-697.32 513.89,-689.23 691.79,-648.98 1140.2,-648.13 1484.05,-654.44"/>
<polygon fill="#000000" stroke="#000000" stroke-width="2" points="1484.13,-657.95 1494.19,-654.63 1484.26,-650.95 1484.13,-657.95"/>
<text text-anchor="middle" x="908.39" y="-693.03" font-family="Times,serif" font-size="14.00" fill="#000000">15 &#160;[when: hostvars[kubeinit_ovn_central_host].distribution_family == &#39;Debian&#39;]</text>
</g>
<!-- task_4ab8a658&#45;227d&#45;4128&#45;9573&#45;55266dd46409 -->
<g id="task_4ab8a658&#45;227d&#45;4128&#45;9573&#45;55266dd46409" class="node">
<title>task_4ab8a658&#45;227d&#45;4128&#45;9573&#45;55266dd46409</title>
<g id="a_task_4ab8a658&#45;227d&#45;4128&#45;9573&#45;55266dd46409"><a xlink:title="[task] kubeinit.kubeinit.kubeinit_libvirt : Enable and start OVN services in the rest of the hypervisors (Ubuntu based)">
<polygon fill="none" stroke="black" points="2528.88,-605.77 2528.88,-620.68 2175.25,-631.23 1675.13,-631.23 1321.5,-620.68 1321.5,-605.77 1675.13,-595.23 2175.25,-595.23 2528.88,-605.77"/>
<text text-anchor="middle" x="1925.19" y="-609.53" font-family="Times,serif" font-size="14.00">[task] kubeinit.kubeinit.kubeinit_libvirt : Enable and start OVN services in the rest of the hypervisors (Ubuntu based)</text>
</a>
</g>
</g>
<!-- task&#45;create&#45;network&#45;&gt;task_4ab8a658&#45;227d&#45;4128&#45;9573&#45;55266dd46409 -->
<g id="edge_17de4c57&#45;8afe&#45;4d00&#45;be75&#45;3e2a2ab6e456" class="edge">
<title>task&#45;create&#45;network&#45;&gt;task_4ab8a658&#45;227d&#45;4128&#45;9573&#45;55266dd46409</title>
<path fill="none" stroke="#000000" stroke-width="2" d="M397.98,-730.21C418.79,-702.96 462.6,-652.31 513.89,-632.23 596.96,-599.7 1042.49,-598.05 1410.88,-602.66"/>
<polygon fill="#000000" stroke="#000000" stroke-width="2" points="1410.89,-606.16 1420.94,-602.79 1410.98,-599.16 1410.89,-606.16"/>
<text text-anchor="middle" x="908.39" y="-636.03" font-family="Times,serif" font-size="14.00" fill="#000000">16 &#160;[when: hostvars[ovn_host].distribution_family == &#39;Debian&#39;]</text>
</g>
<!-- task_ae209042&#45;f8ec&#45;4a6a&#45;8ed2&#45;eba2521ecd40 -->
<g id="task_ae209042&#45;f8ec&#45;4a6a&#45;8ed2&#45;eba2521ecd40" class="node">
<title>task_ae209042&#45;f8ec&#45;4a6a&#45;8ed2&#45;eba2521ecd40</title>
<g id="a_task_ae209042&#45;f8ec&#45;4a6a&#45;8ed2&#45;eba2521ecd40"><a xlink:title="[task] kubeinit.kubeinit.kubeinit_libvirt : Configure OVS on the Hypervisors">
<polygon fill="none" stroke="black" points="2316.47,-551.77 2316.47,-566.68 2087.27,-577.23 1763.12,-577.23 1533.91,-566.68 1533.91,-551.77 1763.12,-541.23 2087.27,-541.23 2316.47,-551.77"/>
<text text-anchor="middle" x="1925.19" y="-555.53" font-family="Times,serif" font-size="14.00">[task] kubeinit.kubeinit.kubeinit_libvirt : Configure OVS on the Hypervisors</text>
</a>
</g>
</g>
<!-- task&#45;create&#45;network&#45;&gt;task_ae209042&#45;f8ec&#45;4a6a&#45;8ed2&#45;eba2521ecd40 -->
<g id="edge_5b93a5f7&#45;cf6b&#45;4724&#45;b6eb&#45;6f197799e1d1" class="edge">
<title>task&#45;create&#45;network&#45;&gt;task_ae209042&#45;f8ec&#45;4a6a&#45;8ed2&#45;eba2521ecd40</title>
<path fill="none" stroke="#000000" stroke-width="2" d="M392.5,-730.03C408.49,-693.78 449.89,-613.31 513.89,-581.23 606.32,-534.9 1190.53,-540.12 1577.46,-549.04"/>
<polygon fill="#000000" stroke="#000000" stroke-width="2" points="1577.63,-552.55 1587.71,-549.28 1577.79,-545.55 1577.63,-552.55"/>
<text text-anchor="middle" x="908.39" y="-585.03" font-family="Times,serif" font-size="14.00" fill="#000000">17</text>
</g>
<!-- task_1ed05beb&#45;7423&#45;4a79&#45;9e23&#45;584a2d8f58d7 -->
<g id="task_1ed05beb&#45;7423&#45;4a79&#45;9e23&#45;584a2d8f58d7" class="node">
<title>task_1ed05beb&#45;7423&#45;4a79&#45;9e23&#45;584a2d8f58d7</title>
<g id="a_task_1ed05beb&#45;7423&#45;4a79&#45;9e23&#45;584a2d8f58d7"><a xlink:title="[task] kubeinit.kubeinit.kubeinit_libvirt : Configure OVN in the ovn&#45;central hypervisor">
<polygon fill="none" stroke="black" points="2367.68,-497.77 2367.68,-512.68 2108.48,-523.23 1741.9,-523.23 1482.7,-512.68 1482.7,-497.77 1741.9,-487.23 2108.48,-487.23 2367.68,-497.77"/>
<text text-anchor="middle" x="1925.19" y="-501.53" font-family="Times,serif" font-size="14.00">[task] kubeinit.kubeinit.kubeinit_libvirt : Configure OVN in the ovn&#45;central hypervisor</text>
</a>
</g>
</g>
<!-- task&#45;create&#45;network&#45;&gt;task_1ed05beb&#45;7423&#45;4a79&#45;9e23&#45;584a2d8f58d7 -->
<g id="edge_896de87f&#45;4949&#45;4990&#45;91e4&#45;9db67ceb52e7" class="edge">
<title>task&#45;create&#45;network&#45;&gt;task_1ed05beb&#45;7423&#45;4a79&#45;9e23&#45;584a2d8f58d7</title>
<path fill="none" stroke="#000000" stroke-width="2" d="M389.03,-729.91C399.91,-685.02 434.74,-569.79 513.89,-523.23 604.44,-469.97 1207.29,-480.02 1594.94,-492.44"/>
<polygon fill="#000000" stroke="#000000" stroke-width="2" points="1595.09,-495.95 1605.2,-492.77 1595.32,-488.95 1595.09,-495.95"/>
<text text-anchor="middle" x="908.39" y="-527.03" font-family="Times,serif" font-size="14.00" fill="#000000">18</text>
</g>
<!-- task_c1ea61c0&#45;94c6&#45;4877&#45;a2ec&#45;fbf09e473736 -->
<g id="task_c1ea61c0&#45;94c6&#45;4877&#45;a2ec&#45;fbf09e473736" class="node">
<title>task_c1ea61c0&#45;94c6&#45;4877&#45;a2ec&#45;fbf09e473736</title>
<g id="a_task_c1ea61c0&#45;94c6&#45;4877&#45;a2ec&#45;fbf09e473736"><a xlink:title="[task] kubeinit.kubeinit.kubeinit_libvirt : Remove and create the cluster switch if exists">
<polygon fill="none" stroke="black" points="2376.07,-443.77 2376.07,-458.68 2111.95,-469.23 1738.43,-469.23 1474.31,-458.68 1474.31,-443.77 1738.43,-433.23 2111.95,-433.23 2376.07,-443.77"/>
<text text-anchor="middle" x="1925.19" y="-447.53" font-family="Times,serif" font-size="14.00">[task] kubeinit.kubeinit.kubeinit_libvirt : Remove and create the cluster switch if exists</text>
</a>
</g>
</g>
<!-- task&#45;create&#45;network&#45;&gt;task_c1ea61c0&#45;94c6&#45;4877&#45;a2ec&#45;fbf09e473736 -->
<g id="edge_ff752271&#45;87af&#45;46e2&#45;a903&#45;d3f45c7d97ff" class="edge">
<title>task&#45;create&#45;network&#45;&gt;task_c1ea61c0&#45;94c6&#45;4877&#45;a2ec&#45;fbf09e473736</title>
<path fill="none" stroke="#000000" stroke-width="2" d="M386.77,-729.96C392.84,-677.38 418.34,-525.47 513.89,-463.23 604.32,-404.32 1239.14,-420.86 1625.59,-436.87"/>
<polygon fill="#000000" stroke="#000000" stroke-width="2" points="1625.68,-440.38 1635.81,-437.29 1625.97,-433.38 1625.68,-440.38"/>
<text text-anchor="middle" x="908.39" y="-467.03" font-family="Times,serif" font-size="14.00" fill="#000000">19 &#160;[when: kubeinit_libvirt_destroy_nets|bool and not kubeinit_libvirt_multicluster_keep_predefined_networks]</text>
</g>
<!-- task_241da0be&#45;0da2&#45;4d16&#45;9aed&#45;23acd77351af -->
<g id="task_241da0be&#45;0da2&#45;4d16&#45;9aed&#45;23acd77351af" class="node">
<title>task_241da0be&#45;0da2&#45;4d16&#45;9aed&#45;23acd77351af</title>
<g id="a_task_241da0be&#45;0da2&#45;4d16&#45;9aed&#45;23acd77351af"><a xlink:title="[task] kubeinit.kubeinit.kubeinit_libvirt : Create OVS/OVN bindings for the VMs ports">
<polygon fill="none" stroke="black" points="2366.37,-389.77 2366.37,-404.68 2107.93,-415.23 1742.45,-415.23 1484.01,-404.68 1484.01,-389.77 1742.45,-379.23 2107.93,-379.23 2366.37,-389.77"/>
<text text-anchor="middle" x="1925.19" y="-393.53" font-family="Times,serif" font-size="14.00">[task] kubeinit.kubeinit.kubeinit_libvirt : Create OVS/OVN bindings for the VMs ports</text>
</a>
</g>
</g>
<!-- task&#45;create&#45;network&#45;&gt;task_241da0be&#45;0da2&#45;4d16&#45;9aed&#45;23acd77351af -->
<g id="edge_87fb75be&#45;3ab5&#45;4224&#45;8ab1&#45;d7852fe54ef6" class="edge">
<title>task&#45;create&#45;network&#45;&gt;task_241da0be&#45;0da2&#45;4d16&#45;9aed&#45;23acd77351af</title>
<path fill="none" stroke="#000000" stroke-width="2" d="M385.2,-730.1C386.86,-670.64 401.11,-480.87 513.89,-402.23 555.02,-373.55 1121,-379.53 1523.28,-387.55"/>
<polygon fill="#000000" stroke="#000000" stroke-width="2" points="1523.28,-391.05 1533.35,-387.75 1523.42,-384.05 1523.28,-391.05"/>
<text text-anchor="middle" x="908.39" y="-406.03" font-family="Times,serif" font-size="14.00" fill="#000000">20</text>
</g>
<!-- task_8277d4ea&#45;b71c&#45;4c3a&#45;8eb6&#45;b9d56f0b0f15 -->
<g id="task_8277d4ea&#45;b71c&#45;4c3a&#45;8eb6&#45;b9d56f0b0f15" class="node">
<title>task_8277d4ea&#45;b71c&#45;4c3a&#45;8eb6&#45;b9d56f0b0f15</title>
<g id="a_task_8277d4ea&#45;b71c&#45;4c3a&#45;8eb6&#45;b9d56f0b0f15"><a xlink:title="[task] kubeinit.kubeinit.kubeinit_libvirt : Configuring a router connected to the guests switch">
<polygon fill="none" stroke="black" points="2405.66,-335.77 2405.66,-350.68 2124.21,-361.23 1726.17,-361.23 1444.72,-350.68 1444.72,-335.77 1726.17,-325.23 2124.21,-325.23 2405.66,-335.77"/>
<text text-anchor="middle" x="1925.19" y="-339.53" font-family="Times,serif" font-size="14.00">[task] kubeinit.kubeinit.kubeinit_libvirt : Configuring a router connected to the guests switch</text>
</a>
</g>
</g>
<!-- task&#45;create&#45;network&#45;&gt;task_8277d4ea&#45;b71c&#45;4c3a&#45;8eb6&#45;b9d56f0b0f15 -->
<g id="edge_8f248c34&#45;515e&#45;44c0&#45;9084&#45;b3b08ccbcd95" class="edge">
<title>task&#45;create&#45;network&#45;&gt;task_8277d4ea&#45;b71c&#45;4c3a&#45;8eb6&#45;b9d56f0b0f15</title>
<path fill="none" stroke="#000000" stroke-width="2" d="M384.45,-729.89C383.53,-665.93 390.11,-451.68 513.89,-361.23 600.42,-298 1228.18,-312.83 1616.43,-328.53"/>
<polygon fill="#000000" stroke="#000000" stroke-width="2" points="1616.57,-332.04 1626.7,-328.95 1616.85,-325.04 1616.57,-332.04"/>
<text text-anchor="middle" x="908.39" y="-365.03" font-family="Times,serif" font-size="14.00" fill="#000000">21</text>
</g>
<!-- task_45f93399&#45;4fc8&#45;4dda&#45;966c&#45;d792f1322d89 -->
<g id="task_45f93399&#45;4fc8&#45;4dda&#45;966c&#45;d792f1322d89" class="node">
<title>task_45f93399&#45;4fc8&#45;4dda&#45;966c&#45;d792f1322d89</title>
<g id="a_task_45f93399&#45;4fc8&#45;4dda&#45;966c&#45;d792f1322d89"><a xlink:title="[task] kubeinit.kubeinit.kubeinit_libvirt : Configuring NAT">
<polygon fill="none" stroke="black" points="2226.38,-281.77 2226.38,-296.68 2049.95,-307.23 1800.43,-307.23 1624,-296.68 1624,-281.77 1800.43,-271.23 2049.95,-271.23 2226.38,-281.77"/>
<text text-anchor="middle" x="1925.19" y="-285.53" font-family="Times,serif" font-size="14.00">[task] kubeinit.kubeinit.kubeinit_libvirt : Configuring NAT</text>
</a>
</g>
</g>
<!-- task&#45;create&#45;network&#45;&gt;task_45f93399&#45;4fc8&#45;4dda&#45;966c&#45;d792f1322d89 -->
<g id="edge_037b9258&#45;c783&#45;45f4&#45;abff&#45;eeef366eb0c1" class="edge">
<title>task&#45;create&#45;network&#45;&gt;task_45f93399&#45;4fc8&#45;4dda&#45;966c&#45;d792f1322d89</title>
<path fill="none" stroke="#000000" stroke-width="2" d="M387.32,-730.07C397.49,-652.49 441.34,-350.27 513.89,-295.23 557.12,-262.44 1216.69,-272.18 1618.31,-281.28"/>
<polygon fill="#000000" stroke="#000000" stroke-width="2" points="1618.27,-284.78 1628.34,-281.51 1618.43,-277.78 1618.27,-284.78"/>
<text text-anchor="middle" x="908.39" y="-299.03" font-family="Times,serif" font-size="14.00" fill="#000000">22 &#160;[when: not hostvars[kubeinit_ovn_central_host].firewalld_is_active]</text>
</g>
<!-- task_1779b88f&#45;7d5b&#45;4ba3&#45;a102&#45;1d4396196fc3 -->
<g id="task_1779b88f&#45;7d5b&#45;4ba3&#45;a102&#45;1d4396196fc3" class="node">
<title>task_1779b88f&#45;7d5b&#45;4ba3&#45;a102&#45;1d4396196fc3</title>
<g id="a_task_1779b88f&#45;7d5b&#45;4ba3&#45;a102&#45;1d4396196fc3"><a xlink:title="[task] kubeinit.kubeinit.kubeinit_libvirt : Render KubeInit networks for debugging">
<polygon fill="none" stroke="black" points="2349.6,-227.77 2349.6,-242.68 2100.99,-253.23 1749.39,-253.23 1500.78,-242.68 1500.78,-227.77 1749.39,-217.23 2100.99,-217.23 2349.6,-227.77"/>
<text text-anchor="middle" x="1925.19" y="-231.53" font-family="Times,serif" font-size="14.00">[task] kubeinit.kubeinit.kubeinit_libvirt : Render KubeInit networks for debugging</text>
</a>
</g>
</g>
<!-- task&#45;create&#45;network&#45;&gt;task_1779b88f&#45;7d5b&#45;4ba3&#45;a102&#45;1d4396196fc3 -->
<g id="edge_00ce6c87&#45;654e&#45;4b96&#45;889f&#45;3e005b873d85" class="edge">
<title>task&#45;create&#45;network&#45;&gt;task_1779b88f&#45;7d5b&#45;4ba3&#45;a102&#45;1d4396196fc3</title>
<path fill="none" stroke="#000000" stroke-width="2" d="M386.87,-730.11C395.57,-648.29 435.5,-314.62 513.89,-253.23 600.23,-185.6 1256.47,-203.81 1642.63,-220.84"/>
<polygon fill="#000000" stroke="#000000" stroke-width="2" points="1642.7,-224.35 1652.84,-221.29 1643.01,-217.35 1642.7,-224.35"/>
<text text-anchor="middle" x="908.39" y="-257.03" font-family="Times,serif" font-size="14.00" fill="#000000">23</text>
</g>
<!-- task_e329db64&#45;fe97&#45;4cd6&#45;9ac6&#45;74b5e97a6e80 -->
<g id="task_e329db64&#45;fe97&#45;4cd6&#45;9ac6&#45;74b5e97a6e80" class="node">
<title>task_e329db64&#45;fe97&#45;4cd6&#45;9ac6&#45;74b5e97a6e80</title>
<g id="a_task_e329db64&#45;fe97&#45;4cd6&#45;9ac6&#45;74b5e97a6e80"><a xlink:title="[task] kubeinit.kubeinit.kubeinit_libvirt : Define KubeInit networks">
<polygon fill="none" stroke="black" points="2271.43,-173.77 2271.43,-188.68 2068.61,-199.23 1781.77,-199.23 1578.95,-188.68 1578.95,-173.77 1781.77,-163.23 2068.61,-163.23 2271.43,-173.77"/>
<text text-anchor="middle" x="1925.19" y="-177.53" font-family="Times,serif" font-size="14.00">[task] kubeinit.kubeinit.kubeinit_libvirt : Define KubeInit networks</text>
</a>
</g>
</g>
<!-- task&#45;create&#45;network&#45;&gt;task_e329db64&#45;fe97&#45;4cd6&#45;9ac6&#45;74b5e97a6e80 -->
<g id="edge_c501a2ef&#45;de6a&#45;4b14&#45;a3de&#45;bc7c89f923f6" class="edge">
<title>task&#45;create&#45;network&#45;&gt;task_e329db64&#45;fe97&#45;4cd6&#45;9ac6&#45;74b5e97a6e80</title>
<path fill="none" stroke="#000000" stroke-width="2" d="M386.26,-730.05C392.65,-641.44 425.29,-256.05 513.89,-185.23 555.56,-151.92 1194.19,-162.11 1597.62,-172.01"/>
<polygon fill="#000000" stroke="#000000" stroke-width="2" points="1597.62,-175.51 1607.7,-172.26 1597.79,-168.52 1597.62,-175.51"/>
<text text-anchor="middle" x="908.39" y="-189.03" font-family="Times,serif" font-size="14.00" fill="#000000">24 &#160;[when: kubeinit_libvirt_destroy_nets|bool and not kubeinit_libvirt_multicluster_keep_predefined_networks]</text>
</g>
<!-- task_53f8df53&#45;8acc&#45;42aa&#45;8764&#45;8fd0efe40b11 -->
<g id="task_53f8df53&#45;8acc&#45;42aa&#45;8764&#45;8fd0efe40b11" class="node">
<title>task_53f8df53&#45;8acc&#45;42aa&#45;8764&#45;8fd0efe40b11</title>
<g id="a_task_53f8df53&#45;8acc&#45;42aa&#45;8764&#45;8fd0efe40b11"><a xlink:title="[task] kubeinit.kubeinit.kubeinit_libvirt : Activate KubeInit networks">
<polygon fill="none" stroke="black" points="2280.22,-119.77 2280.22,-134.68 2072.25,-145.23 1778.13,-145.23 1570.16,-134.68 1570.16,-119.77 1778.13,-109.23 2072.25,-109.23 2280.22,-119.77"/>
<text text-anchor="middle" x="1925.19" y="-123.53" font-family="Times,serif" font-size="14.00">[task] kubeinit.kubeinit.kubeinit_libvirt : Activate KubeInit networks</text>
</a>
</g>
</g>
<!-- task&#45;create&#45;network&#45;&gt;task_53f8df53&#45;8acc&#45;42aa&#45;8764&#45;8fd0efe40b11 -->
<g id="edge_1301b567&#45;c884&#45;40b9&#45;83f6&#45;13110205a55f" class="edge">
<title>task&#45;create&#45;network&#45;&gt;task_53f8df53&#45;8acc&#45;42aa&#45;8764&#45;8fd0efe40b11</title>
<path fill="none" stroke="#000000" stroke-width="2" d="M385.97,-729.98C391.15,-637.33 419.48,-220.54 513.89,-143.23 553.9,-110.46 1155.43,-113.98 1559.84,-120.16"/>
<polygon fill="#000000" stroke="#000000" stroke-width="2" points="1559.9,-123.66 1569.95,-120.31 1560.01,-116.66 1559.9,-123.66"/>
<text text-anchor="middle" x="908.39" y="-147.03" font-family="Times,serif" font-size="14.00" fill="#000000">25 &#160;[when: kubeinit_libvirt_destroy_nets|bool and not kubeinit_libvirt_multicluster_keep_predefined_networks]</text>
</g>
<!-- task_9632d3e8&#45;a21c&#45;4253&#45;8339&#45;9a16cfc79524 -->
<g id="task_9632d3e8&#45;a21c&#45;4253&#45;8339&#45;9a16cfc79524" class="node">
<title>task_9632d3e8&#45;a21c&#45;4253&#45;8339&#45;9a16cfc79524</title>
<g id="a_task_9632d3e8&#45;a21c&#45;4253&#45;8339&#45;9a16cfc79524"><a xlink:title="[task] kubeinit.kubeinit.kubeinit_libvirt : Autostart KubeInit networks">
<polygon fill="none" stroke="black" points="2286.88,-65.77 2286.88,-80.68 2075.01,-91.23 1775.37,-91.23 1563.5,-80.68 1563.5,-65.77 1775.37,-55.23 2075.01,-55.23 2286.88,-65.77"/>
<text text-anchor="middle" x="1925.19" y="-69.53" font-family="Times,serif" font-size="14.00">[task] kubeinit.kubeinit.kubeinit_libvirt : Autostart KubeInit networks</text>
</a>
</g>
</g>
<!-- task&#45;create&#45;network&#45;&gt;task_9632d3e8&#45;a21c&#45;4253&#45;8339&#45;9a16cfc79524 -->
<g id="edge_f06d1da9&#45;6401&#45;497f&#45;be43&#45;7268abd791ff" class="edge">
<title>task&#45;create&#45;network&#45;&gt;task_9632d3e8&#45;a21c&#45;4253&#45;8339&#45;9a16cfc79524</title>
<path fill="none" stroke="#000000" stroke-width="2" d="M385.67,-730.2C389.5,-633.83 412.72,-180.75 513.89,-96.23 702.47,61.32 1462.15,-14.02 1781.57,-53.93"/>
<polygon fill="#000000" stroke="#000000" stroke-width="2" points="1781.47,-57.44 1791.82,-55.21 1782.34,-50.49 1781.47,-57.44"/>
<text text-anchor="middle" x="908.39" y="-100.03" font-family="Times,serif" font-size="14.00" fill="#000000">26 &#160;[when: kubeinit_libvirt_destroy_nets|bool and not kubeinit_libvirt_multicluster_keep_predefined_networks]</text>
</g>
</g>
</svg>
