<?xml version='1.0' encoding='UTF-8'?>
<!DOCTYPE svg PUBLIC "-//W3C//DTD SVG 1.1//EN" "http://www.w3.org/Graphics/SVG/1.1/DTD/svg11.dtd">
<!-- Generated by graphviz version 2.43.0 (0)
 --><!-- Title: ./playbooks/submariner&#45;subctl&#45;verify.yml  Pages: 1 --><svg xmlns="http://www.w3.org/2000/svg" xmlns:xlink="http://www.w3.org/1999/xlink" width="1919pt" height="807pt" viewBox="0.00 0.00 1919.12 807.41" id="svg">
<script type="text/javascript" href="https://ajax.googleapis.com/ajax/libs/jquery/3.2.1/jquery.min.js" id="jquery"/><script type="text/javascript" id="my_javascript"><![CDATA[const HOVER_CLASS = "my_hover";

var selectedElement = null;

function addClass(rootElement) {
    $(rootElement).find('link').each(function (index, element) {
        var target = $(element).attr('target');
        var currentElement = $('#' + target);
        currentElement.addClass(HOVER_CLASS);

        addClass(currentElement);
    })
}

function removeClass(rootElement, hover) {
    $(rootElement).find('link').each(function (index, element) {
        if ($(rootElement).attr('id') !== $(selectedElement).attr('id') || !hover) {
            var target = $(element).attr('target');
            var currentElement = $('#' + target);
            currentElement.removeClass(HOVER_CLASS);

            removeClass(currentElement);
        }

    })
}

function hoverIn(event) {
    addClass(event.currentTarget);
}

function hoverOut(event) {
    removeClass(event.currentTarget, true);
}

function clickOnElement(event) {
    var newElement = event.currentTarget;

    if ($(newElement).attr('id') === $(selectedElement).attr('id')) {
        removeClass(selectedElement, false);
    } else {
        removeClass(selectedElement);
        addClass(newElement)
    }

    selectedElement = newElement;
}


$("#svg").ready(function () {

    $("g[id^=play_]").hover(hoverIn, hoverOut);
    $("g[id^=role_]").hover(hoverIn, hoverOut);

    $("g[id^=play_]").click(clickOnElement);
    $("g[id^=role_]").click(clickOnElement);

});
]]></script><style type="text/css" id="my_css"><![CDATA[.node:hover, .edge:hover, path:hover, path + polygon:hover {
    cursor: pointer;
    stroke-width: 3;
    font-weight: bolder;
}

.my_hover {
    cursor: pointer;
    stroke-width: 3;
    font-weight: bolder;
}
]]></style><g id="graph0" class="graph" transform="scale(1 1) rotate(0) translate(4 803.41)">
<title>./playbooks/submariner-subctl-verify.yml </title>
<polygon fill="white" stroke="transparent" points="-4,4 -4,-803.41 1915.12,-803.41 1915.12,4 -4,4"/>
<!-- ./playbooks/submariner&#45;subctl&#45;verify.yml -->
<g id="root_node" class="node">
<title>./playbooks/submariner-subctl-verify.yml</title>
<ellipse fill="none" stroke="black" stroke-dasharray="1,5" cx="198.88" cy="-399.72" rx="198.76" ry="18"/>
<text text-anchor="middle" x="198.88" y="-396.02" font-family="Times,serif" font-size="14.00">./playbooks/submariner-subctl-verify.yml</text>
</g>
<!-- Play #1: Main deployment playbook for integrating submariner (0) -->
<g id="play_016895e9-c044-4c12-960c-9376ced61727" class="node">
<title>Play #1: Main deployment playbook for integrating submariner (0)</title>
<polygon fill="#1071cb" stroke="#1071cb" points="938.76,-417.72 443.76,-417.72 443.76,-381.72 938.76,-381.72 938.76,-417.72"/>
<text text-anchor="middle" x="691.26" y="-396.02" font-family="Times,serif" font-size="14.00" fill="#ffffff">Play #1: Main deployment playbook for integrating submariner (0)</text>
<links><link target="edge_15913629-5180-42e0-80a7-4f1420d561fe"/><link target="edge_02fec1e1-300c-44cc-9551-478d3e781061"/><link target="edge_d8676579-6bd3-4ade-8155-2a96e4b0df46"/><link target="edge_59f0e14b-71f5-4e11-b83e-725cb63388cf"/><link target="edge_7d24a086-32e9-4fa8-9e79-48e96f09b8ea"/><link target="edge_2cf80873-c3f5-4c23-a96f-0d3b7abcdfd3"/><link target="edge_809354f6-d7e9-42a4-9b5d-e84f8cf4040c"/><link target="edge_bbf845ac-e537-4609-b60b-fe16cd639a4e"/><link target="edge_dc79afa8-6984-4fff-bcb6-7f149030d61f"/><link target="edge_401e5146-e73b-4f6f-b878-7e8226e7a974"/><link target="edge_d3b5814f-8542-4f50-8155-963c5135cf22"/><link target="edge_26f8c26b-6c70-416e-9ae2-ce54e9335987"/><link target="edge_276655fb-e22b-4016-bf0b-5e013d795406"/><link target="edge_ec333101-217d-41c8-971a-f7c556f6aba3"/><link target="edge_cc2c9a83-244b-4fdb-b7e0-c580b0afc614"/></links></g>
<!-- ./playbooks/submariner&#45;subctl&#45;verify.yml&#45;&gt;Play #1: Main deployment playbook for integrating submariner (0) -->
<g id="edge_57d46682-7496-4a0e-83ef-6366c4af6996" class="edge">
<title>./playbooks/submariner-subctl-verify.yml-&gt;Play #1: Main deployment playbook for integrating submariner (0)</title>
<path fill="none" stroke="#1071cb" stroke-width="2" d="M397.93,-399.72C409.66,-399.72 421.54,-399.72 433.46,-399.72"/>
<polygon fill="#1071cb" stroke="#1071cb" stroke-width="2" points="433.48,-403.22 443.48,-399.72 433.48,-396.22 433.48,-403.22"/>
<text text-anchor="middle" x="420.76" y="-403.52" font-family="Times,serif" font-size="14.00" fill="#1071cb">1</text>
</g>
<!-- pre_task_00a237d4&#45;6246&#45;4171&#45;9515&#45;063739318f9f -->
<g id="pre_task_00a237d4-6246-4171-9515-063739318f9f" class="node">
<title>pre_task_00a237d4-6246-4171-9515-063739318f9f</title>
<g id="a_pre_task_00a237d4-6246-4171-9515-063739318f9f"><a xlink:title="[pre_task] Check if Ansible meets version requirements.">
<polygon fill="none" stroke="black" points="1746.56,-770.26 1746.56,-785.18 1574.27,-795.72 1330.61,-795.72 1158.32,-785.18 1158.32,-770.26 1330.61,-759.72 1574.27,-759.72 1746.56,-770.26"/>
<text text-anchor="middle" x="1452.44" y="-774.02" font-family="Times,serif" font-size="14.00">[pre_task] Check if Ansible meets version requirements.</text>
</a>
</g>
</g>
<!-- Play #1: Main deployment playbook for integrating submariner (0)&#45;&gt;pre_task_00a237d4&#45;6246&#45;4171&#45;9515&#45;063739318f9f -->
<g id="edge_15913629-5180-42e0-80a7-4f1420d561fe" class="edge">
<title>Play #1: Main deployment playbook for integrating submariner (0)-&gt;pre_task_00a237d4-6246-4171-9515-063739318f9f</title>
<path fill="none" stroke="#1071cb" stroke-width="2" d="M701.08,-417.95C731.53,-478.59 839.01,-674.04 993.76,-750.72 1094.33,-800.55 1222.97,-803.68 1318.25,-796.43"/>
<polygon fill="#1071cb" stroke="#1071cb" stroke-width="2" points="1318.55,-799.92 1328.23,-795.63 1317.98,-792.94 1318.55,-799.92"/>
<text text-anchor="middle" x="966.26" y="-742.52" font-family="Times,serif" font-size="14.00" fill="#1071cb">1</text>
<links><link target="pre_task_00a237d4-6246-4171-9515-063739318f9f"/></links></g>
<!-- task_6ea71c5c&#45;2efa&#45;4799&#45;8f5f&#45;114c2569ef96 -->
<g id="task_6ea71c5c-2efa-4799-8f5f-114c2569ef96" class="node">
<title>task_6ea71c5c-2efa-4799-8f5f-114c2569ef96</title>
<g id="a_task_6ea71c5c-2efa-4799-8f5f-114c2569ef96"><a xlink:title="[task] ../../roles/kubeinit_prepare : Gather variables for each operating system">
<polygon fill="none" stroke="black" points="1856.05,-716.26 1856.05,-731.18 1619.62,-741.72 1285.26,-741.72 1048.83,-731.18 1048.83,-716.26 1285.26,-705.72 1619.62,-705.72 1856.05,-716.26"/>
<text text-anchor="middle" x="1452.44" y="-720.02" font-family="Times,serif" font-size="14.00">[task] ../../roles/kubeinit_prepare : Gather variables for each operating system</text>
</a>
</g>
</g>
<!-- Play #1: Main deployment playbook for integrating submariner (0)&#45;&gt;task_6ea71c5c&#45;2efa&#45;4799&#45;8f5f&#45;114c2569ef96 -->
<g id="edge_02fec1e1-300c-44cc-9551-478d3e781061" class="edge">
<title>Play #1: Main deployment playbook for integrating submariner (0)-&gt;task_6ea71c5c-2efa-4799-8f5f-114c2569ef96</title>
<path fill="none" stroke="#1071cb" stroke-width="2" d="M703.56,-417.8C738.61,-472.05 851.77,-633.58 993.76,-696.72 1080.17,-735.14 1184.93,-743.72 1272.42,-741.87"/>
<polygon fill="#1071cb" stroke="#1071cb" stroke-width="2" points="1272.55,-745.37 1282.45,-741.62 1272.37,-738.37 1272.55,-745.37"/>
<text text-anchor="middle" x="966.26" y="-690.52" font-family="Times,serif" font-size="14.00" fill="#1071cb">2</text>
<links><link target="task_6ea71c5c-2efa-4799-8f5f-114c2569ef96"/></links></g>
<!-- task_1324d78f&#45;7dfd&#45;4933&#45;abf6&#45;f9743dbbea2d -->
<g id="task_1324d78f-7dfd-4933-abf6-f9743dbbea2d" class="node">
<title>task_1324d78f-7dfd-4933-abf6-f9743dbbea2d</title>
<g id="a_task_1324d78f-7dfd-4933-abf6-f9743dbbea2d"><a xlink:title="[task] ../../roles/kubeinit_prepare : add all nodes to the all_nodes group">
<polygon fill="none" stroke="black" points="1818.98,-662.26 1818.98,-677.18 1604.27,-687.72 1300.62,-687.72 1085.9,-677.18 1085.9,-662.26 1300.62,-651.72 1604.27,-651.72 1818.98,-662.26"/>
<text text-anchor="middle" x="1452.44" y="-666.02" font-family="Times,serif" font-size="14.00">[task] ../../roles/kubeinit_prepare : add all nodes to the all_nodes group</text>
</a>
</g>
</g>
<!-- Play #1: Main deployment playbook for integrating submariner (0)&#45;&gt;task_1324d78f&#45;7dfd&#45;4933&#45;abf6&#45;f9743dbbea2d -->
<g id="edge_d8676579-6bd3-4ade-8155-2a96e4b0df46" class="edge">
<title>Play #1: Main deployment playbook for integrating submariner (0)-&gt;task_1324d78f-7dfd-4933-abf6-f9743dbbea2d</title>
<path fill="none" stroke="#1071cb" stroke-width="2" d="M707.2,-417.85C747.51,-465.26 864.27,-592.69 993.76,-642.72 1019.92,-652.82 1047.54,-660.66 1075.72,-666.66"/>
<polygon fill="#1071cb" stroke="#1071cb" stroke-width="2" points="1075.22,-670.12 1085.72,-668.7 1076.62,-663.27 1075.22,-670.12"/>
<text text-anchor="middle" x="966.26" y="-638.52" font-family="Times,serif" font-size="14.00" fill="#1071cb">3</text>
<links><link target="task_1324d78f-7dfd-4933-abf6-f9743dbbea2d"/></links></g>
<!-- task_56f64df5&#45;3d6e&#45;41bf&#45;a40a&#45;cd0fe51acc69 -->
<g id="task_56f64df5-3d6e-41bf-a40a-cd0fe51acc69" class="node">
<title>task_56f64df5-3d6e-41bf-a40a-cd0fe51acc69</title>
<g id="a_task_56f64df5-3d6e-41bf-a40a-cd0fe51acc69"><a xlink:title="[task] ../../roles/kubeinit_prepare : add all master nodes to the all_master_nodes group">
<polygon fill="none" stroke="black" points="1897.56,-608.26 1897.56,-623.18 1636.82,-633.72 1268.07,-633.72 1007.32,-623.18 1007.32,-608.26 1268.07,-597.72 1636.82,-597.72 1897.56,-608.26"/>
<text text-anchor="middle" x="1452.44" y="-612.02" font-family="Times,serif" font-size="14.00">[task] ../../roles/kubeinit_prepare : add all master nodes to the all_master_nodes group</text>
</a>
</g>
</g>
<!-- Play #1: Main deployment playbook for integrating submariner (0)&#45;&gt;task_56f64df5&#45;3d6e&#45;41bf&#45;a40a&#45;cd0fe51acc69 -->
<g id="edge_59f0e14b-71f5-4e11-b83e-725cb63388cf" class="edge">
<title>Play #1: Main deployment playbook for integrating submariner (0)-&gt;task_56f64df5-3d6e-41bf-a40a-cd0fe51acc69</title>
<path fill="none" stroke="#1071cb" stroke-width="2" d="M712.69,-417.79C758.84,-457.37 876.37,-551.19 993.76,-588.72 1012.33,-594.66 1031.53,-599.7 1051.08,-603.98"/>
<polygon fill="#1071cb" stroke="#1071cb" stroke-width="2" points="1050.5,-607.43 1061.01,-606.08 1051.95,-600.58 1050.5,-607.43"/>
<text text-anchor="middle" x="966.26" y="-585.52" font-family="Times,serif" font-size="14.00" fill="#1071cb">4</text>
<links><link target="task_56f64df5-3d6e-41bf-a40a-cd0fe51acc69"/></links></g>
<!-- task_e1352020&#45;39fe&#45;4ec8&#45;b5d8&#45;a371ef7b1d03 -->
<g id="task_e1352020-39fe-4ec8-b5d8-a371ef7b1d03" class="node">
<title>task_e1352020-39fe-4ec8-b5d8-a371ef7b1d03</title>
<g id="a_task_e1352020-39fe-4ec8-b5d8-a371ef7b1d03"><a xlink:title="[task] ../../roles/kubeinit_prepare : add all worker nodes to the all_worker_nodes group">
<polygon fill="none" stroke="black" points="1897.56,-554.26 1897.56,-569.18 1636.82,-579.72 1268.07,-579.72 1007.32,-569.18 1007.32,-554.26 1268.07,-543.72 1636.82,-543.72 1897.56,-554.26"/>
<text text-anchor="middle" x="1452.44" y="-558.02" font-family="Times,serif" font-size="14.00">[task] ../../roles/kubeinit_prepare : add all worker nodes to the all_worker_nodes group</text>
</a>
</g>
</g>
<!-- Play #1: Main deployment playbook for integrating submariner (0)&#45;&gt;task_e1352020&#45;39fe&#45;4ec8&#45;b5d8&#45;a371ef7b1d03 -->
<g id="edge_7d24a086-32e9-4fa8-9e79-48e96f09b8ea" class="edge">
<title>Play #1: Main deployment playbook for integrating submariner (0)-&gt;task_e1352020-39fe-4ec8-b5d8-a371ef7b1d03</title>
<path fill="none" stroke="#1071cb" stroke-width="2" d="M722.61,-417.81C775.53,-448.3 889.03,-509.1 993.76,-534.72 1018.53,-540.78 1044.27,-545.75 1070.34,-549.8"/>
<polygon fill="#1071cb" stroke="#1071cb" stroke-width="2" points="1069.93,-553.28 1080.34,-551.31 1070.98,-546.35 1069.93,-553.28"/>
<text text-anchor="middle" x="966.26" y="-531.52" font-family="Times,serif" font-size="14.00" fill="#1071cb">5</text>
<links><link target="task_e1352020-39fe-4ec8-b5d8-a371ef7b1d03"/></links></g>
<!-- task_34b09f4a&#45;c520&#45;4246&#45;a242&#45;acb867c36ac6 -->
<g id="task_34b09f4a-c520-4246-a242-acb867c36ac6" class="node">
<title>task_34b09f4a-c520-4246-a242-acb867c36ac6</title>
<g id="a_task_34b09f4a-c520-4246-a242-acb867c36ac6"><a xlink:title="[task] ../../roles/kubeinit_prepare : add all bootstrap nodes the all_bootstrap_nodes group">
<polygon fill="none" stroke="black" points="1911.3,-500.26 1911.3,-515.18 1642.51,-525.72 1262.38,-525.72 993.59,-515.18 993.59,-500.26 1262.38,-489.72 1642.51,-489.72 1911.3,-500.26"/>
<text text-anchor="middle" x="1452.44" y="-504.02" font-family="Times,serif" font-size="14.00">[task] ../../roles/kubeinit_prepare : add all bootstrap nodes the all_bootstrap_nodes group</text>
</a>
</g>
</g>
<!-- Play #1: Main deployment playbook for integrating submariner (0)&#45;&gt;task_34b09f4a&#45;c520&#45;4246&#45;a242&#45;acb867c36ac6 -->
<g id="edge_2cf80873-c3f5-4c23-a96f-0d3b7abcdfd3" class="edge">
<title>Play #1: Main deployment playbook for integrating submariner (0)-&gt;task_34b09f4a-c520-4246-a242-acb867c36ac6</title>
<path fill="none" stroke="#1071cb" stroke-width="2" d="M746.01,-417.72C805.76,-436.9 905.49,-466.41 993.76,-480.72 1028.96,-486.42 1065.84,-490.96 1102.75,-494.56"/>
<polygon fill="#1071cb" stroke="#1071cb" stroke-width="2" points="1102.88,-498.09 1113.16,-495.55 1103.54,-491.12 1102.88,-498.09"/>
<text text-anchor="middle" x="966.26" y="-479.52" font-family="Times,serif" font-size="14.00" fill="#1071cb">6</text>
<links><link target="task_34b09f4a-c520-4246-a242-acb867c36ac6"/></links></g>
<!-- task_225c2511&#45;aaf9&#45;4943&#45;ae33&#45;e863356e7fcd -->
<g id="task_225c2511-aaf9-4943-ae33-e863356e7fcd" class="node">
<title>task_225c2511-aaf9-4943-ae33-e863356e7fcd</title>
<g id="a_task_225c2511-aaf9-4943-ae33-e863356e7fcd"><a xlink:title="[task] ../../roles/kubeinit_prepare : add all service nodes to the all_service_nodes group">
<polygon fill="none" stroke="black" points="1899.38,-446.26 1899.38,-461.18 1637.57,-471.72 1267.32,-471.72 1005.51,-461.18 1005.51,-446.26 1267.32,-435.72 1637.57,-435.72 1899.38,-446.26"/>
<text text-anchor="middle" x="1452.44" y="-450.02" font-family="Times,serif" font-size="14.00">[task] ../../roles/kubeinit_prepare : add all service nodes to the all_service_nodes group</text>
</a>
</g>
</g>
<!-- Play #1: Main deployment playbook for integrating submariner (0)&#45;&gt;task_225c2511&#45;aaf9&#45;4943&#45;ae33&#45;e863356e7fcd -->
<g id="edge_809354f6-d7e9-42a4-9b5d-e84f8cf4040c" class="edge">
<title>Play #1: Main deployment playbook for integrating submariner (0)-&gt;task_225c2511-aaf9-4943-ae33-e863356e7fcd</title>
<path fill="none" stroke="#1071cb" stroke-width="2" d="M883.59,-417.74C920.15,-420.93 958.13,-424.07 993.76,-426.72 1051.17,-430.98 1112.66,-434.99 1171.35,-438.55"/>
<polygon fill="#1071cb" stroke="#1071cb" stroke-width="2" points="1171.32,-442.05 1181.51,-439.16 1171.74,-435.07 1171.32,-442.05"/>
<text text-anchor="middle" x="966.26" y="-428.52" font-family="Times,serif" font-size="14.00" fill="#1071cb">7</text>
<links><link target="task_225c2511-aaf9-4943-ae33-e863356e7fcd"/></links></g>
<!-- task_ccca7d54&#45;b4f6&#45;4f11&#45;8765&#45;718f923b5c6f -->
<g id="task_ccca7d54-b4f6-4f11-8765-718f923b5c6f" class="node">
<title>task_ccca7d54-b4f6-4f11-8765-718f923b5c6f</title>
<g id="a_task_ccca7d54-b4f6-4f11-8765-718f923b5c6f"><a xlink:title="[task] ../../roles/kubeinit_prepare : add all hosts to the all_hosts group">
<polygon fill="none" stroke="black" points="1814.13,-392.26 1814.13,-407.18 1602.26,-417.72 1302.62,-417.72 1090.75,-407.18 1090.75,-392.26 1302.62,-381.72 1602.26,-381.72 1814.13,-392.26"/>
<text text-anchor="middle" x="1452.44" y="-396.02" font-family="Times,serif" font-size="14.00">[task] ../../roles/kubeinit_prepare : add all hosts to the all_hosts group</text>
</a>
</g>
</g>
<!-- Play #1: Main deployment playbook for integrating submariner (0)&#45;&gt;task_ccca7d54&#45;b4f6&#45;4f11&#45;8765&#45;718f923b5c6f -->
<g id="edge_bbf845ac-e537-4609-b60b-fe16cd639a4e" class="edge">
<title>Play #1: Main deployment playbook for integrating submariner (0)-&gt;task_ccca7d54-b4f6-4f11-8765-718f923b5c6f</title>
<path fill="none" stroke="#1071cb" stroke-width="2" d="M939.01,-399.72C984.27,-399.72 1032.42,-399.72 1080.39,-399.72"/>
<polygon fill="#1071cb" stroke="#1071cb" stroke-width="2" points="1080.62,-403.22 1090.62,-399.72 1080.62,-396.22 1080.62,-403.22"/>
<text text-anchor="middle" x="966.26" y="-403.52" font-family="Times,serif" font-size="14.00" fill="#1071cb">8</text>
<links><link target="task_ccca7d54-b4f6-4f11-8765-718f923b5c6f"/></links></g>
<!-- task_7227781b&#45;c5c8&#45;473b&#45;8acc&#45;e0e003ecf768 -->
<g id="task_7227781b-c5c8-473b-8acc-e0e003ecf768" class="node">
<title>task_7227781b-c5c8-473b-8acc-e0e003ecf768</title>
<g id="a_task_7227781b-c5c8-473b-8acc-e0e003ecf768"><a xlink:title="[task] ../../roles/kubeinit_prepare : list all_hosts">
<polygon fill="none" stroke="black" points="1700.61,-338.26 1700.61,-353.18 1555.24,-363.72 1349.65,-363.72 1204.28,-353.18 1204.28,-338.26 1349.65,-327.72 1555.24,-327.72 1700.61,-338.26"/>
<text text-anchor="middle" x="1452.44" y="-342.02" font-family="Times,serif" font-size="14.00">[task] ../../roles/kubeinit_prepare : list all_hosts</text>
</a>
</g>
</g>
<!-- Play #1: Main deployment playbook for integrating submariner (0)&#45;&gt;task_7227781b&#45;c5c8&#45;473b&#45;8acc&#45;e0e003ecf768 -->
<g id="edge_dc79afa8-6984-4fff-bcb6-7f149030d61f" class="edge">
<title>Play #1: Main deployment playbook for integrating submariner (0)-&gt;task_7227781b-c5c8-473b-8acc-e0e003ecf768</title>
<path fill="none" stroke="#1071cb" stroke-width="2" d="M883.59,-381.71C920.15,-378.51 958.13,-375.37 993.76,-372.72 1073.43,-366.8 1160.98,-361.38 1237.99,-356.96"/>
<polygon fill="#1071cb" stroke="#1071cb" stroke-width="2" points="1238.51,-360.44 1248.3,-356.38 1238.11,-353.45 1238.51,-360.44"/>
<text text-anchor="middle" x="966.26" y="-378.52" font-family="Times,serif" font-size="14.00" fill="#1071cb">9</text>
<links><link target="task_7227781b-c5c8-473b-8acc-e0e003ecf768"/></links></g>
<!-- task_5937abcc&#45;7909&#45;40f5&#45;8de0&#45;2e8b52a829ec -->
<g id="task_5937abcc-7909-40f5-8de0-2e8b52a829ec" class="node">
<title>task_5937abcc-7909-40f5-8de0-2e8b52a829ec</title>
<g id="a_task_5937abcc-7909-40f5-8de0-2e8b52a829ec"><a xlink:title="[task] ../../roles/kubeinit_prepare : list all_nodes">
<polygon fill="none" stroke="black" points="1702.83,-284.26 1702.83,-299.18 1556.16,-309.72 1348.73,-309.72 1202.06,-299.18 1202.06,-284.26 1348.73,-273.72 1556.16,-273.72 1702.83,-284.26"/>
<text text-anchor="middle" x="1452.44" y="-288.02" font-family="Times,serif" font-size="14.00">[task] ../../roles/kubeinit_prepare : list all_nodes</text>
</a>
</g>
</g>
<!-- Play #1: Main deployment playbook for integrating submariner (0)&#45;&gt;task_5937abcc&#45;7909&#45;40f5&#45;8de0&#45;2e8b52a829ec -->
<g id="edge_401e5146-e73b-4f6f-b878-7e8226e7a974" class="edge">
<title>Play #1: Main deployment playbook for integrating submariner (0)-&gt;task_5937abcc-7909-40f5-8de0-2e8b52a829ec</title>
<path fill="none" stroke="#1071cb" stroke-width="2" d="M746.01,-381.72C805.76,-362.54 905.49,-333.03 993.76,-318.72 1057.44,-308.4 1126.66,-301.91 1191.54,-297.85"/>
<polygon fill="#1071cb" stroke="#1071cb" stroke-width="2" points="1192.15,-301.32 1201.92,-297.22 1191.72,-294.34 1192.15,-301.32"/>
<text text-anchor="middle" x="966.26" y="-327.52" font-family="Times,serif" font-size="14.00" fill="#1071cb">10</text>
<links><link target="task_5937abcc-7909-40f5-8de0-2e8b52a829ec"/></links></g>
<!-- task_6a16c150&#45;a508&#45;4f79&#45;b3d2&#45;8c1f2ddc474a -->
<g id="task_6a16c150-a508-4f79-b3d2-8c1f2ddc474a" class="node">
<title>task_6a16c150-a508-4f79-b3d2-8c1f2ddc474a</title>
<g id="a_task_6a16c150-a508-4f79-b3d2-8c1f2ddc474a"><a xlink:title="[task] ../../roles/kubeinit_prepare : list all_master_nodes">
<polygon fill="none" stroke="black" points="1743.03,-230.26 1743.03,-245.18 1572.81,-255.72 1332.08,-255.72 1161.86,-245.18 1161.86,-230.26 1332.08,-219.72 1572.81,-219.72 1743.03,-230.26"/>
<text text-anchor="middle" x="1452.44" y="-234.02" font-family="Times,serif" font-size="14.00">[task] ../../roles/kubeinit_prepare : list all_master_nodes</text>
</a>
</g>
</g>
<!-- Play #1: Main deployment playbook for integrating submariner (0)&#45;&gt;task_6a16c150&#45;a508&#45;4f79&#45;b3d2&#45;8c1f2ddc474a -->
<g id="edge_d3b5814f-8542-4f50-8155-963c5135cf22" class="edge">
<title>Play #1: Main deployment playbook for integrating submariner (0)-&gt;task_6a16c150-a508-4f79-b3d2-8c1f2ddc474a</title>
<path fill="none" stroke="#1071cb" stroke-width="2" d="M722.61,-381.63C775.53,-351.14 889.03,-290.35 993.76,-264.72 1044.15,-252.39 1098.55,-244.59 1151.65,-239.81"/>
<polygon fill="#1071cb" stroke="#1071cb" stroke-width="2" points="1152.24,-243.27 1161.9,-238.92 1151.63,-236.3 1152.24,-243.27"/>
<text text-anchor="middle" x="966.26" y="-277.52" font-family="Times,serif" font-size="14.00" fill="#1071cb">11</text>
<links><link target="task_6a16c150-a508-4f79-b3d2-8c1f2ddc474a"/></links></g>
<!-- task_01a9baa1&#45;ce24&#45;4c06&#45;874e&#45;2f5375d702a1 -->
<g id="task_01a9baa1-ce24-4c06-874e-2f5375d702a1" class="node">
<title>task_01a9baa1-ce24-4c06-874e-2f5375d702a1</title>
<g id="a_task_01a9baa1-ce24-4c06-874e-2f5375d702a1"><a xlink:title="[task] ../../roles/kubeinit_prepare : list all_worker_nodes">
<polygon fill="none" stroke="black" points="1743.03,-176.26 1743.03,-191.18 1572.81,-201.72 1332.08,-201.72 1161.86,-191.18 1161.86,-176.26 1332.08,-165.72 1572.81,-165.72 1743.03,-176.26"/>
<text text-anchor="middle" x="1452.44" y="-180.02" font-family="Times,serif" font-size="14.00">[task] ../../roles/kubeinit_prepare : list all_worker_nodes</text>
</a>
</g>
</g>
<!-- Play #1: Main deployment playbook for integrating submariner (0)&#45;&gt;task_01a9baa1&#45;ce24&#45;4c06&#45;874e&#45;2f5375d702a1 -->
<g id="edge_26f8c26b-6c70-416e-9ae2-ce54e9335987" class="edge">
<title>Play #1: Main deployment playbook for integrating submariner (0)-&gt;task_01a9baa1-ce24-4c06-874e-2f5375d702a1</title>
<path fill="none" stroke="#1071cb" stroke-width="2" d="M712.69,-381.65C758.84,-342.07 876.37,-248.25 993.76,-210.72 1043.73,-194.75 1098.29,-185.21 1151.78,-179.85"/>
<polygon fill="#1071cb" stroke="#1071cb" stroke-width="2" points="1152.14,-183.33 1161.76,-178.9 1151.47,-176.36 1152.14,-183.33"/>
<text text-anchor="middle" x="966.26" y="-227.52" font-family="Times,serif" font-size="14.00" fill="#1071cb">12</text>
<links><link target="task_01a9baa1-ce24-4c06-874e-2f5375d702a1"/></links></g>
<!-- task_cbaddfc2&#45;28bf&#45;4b99&#45;9005&#45;6153a67611ca -->
<g id="task_cbaddfc2-28bf-4b99-9005-6153a67611ca" class="node">
<title>task_cbaddfc2-28bf-4b99-9005-6153a67611ca</title>
<g id="a_task_cbaddfc2-28bf-4b99-9005-6153a67611ca"><a xlink:title="[task] ../../roles/kubeinit_prepare : list all_service_nodes">
<polygon fill="none" stroke="black" points="1743.93,-122.26 1743.93,-137.18 1573.18,-147.72 1331.7,-147.72 1160.95,-137.18 1160.95,-122.26 1331.7,-111.72 1573.18,-111.72 1743.93,-122.26"/>
<text text-anchor="middle" x="1452.44" y="-126.02" font-family="Times,serif" font-size="14.00">[task] ../../roles/kubeinit_prepare : list all_service_nodes</text>
</a>
</g>
</g>
<!-- Play #1: Main deployment playbook for integrating submariner (0)&#45;&gt;task_cbaddfc2&#45;28bf&#45;4b99&#45;9005&#45;6153a67611ca -->
<g id="edge_276655fb-e22b-4016-bf0b-5e013d795406" class="edge">
<title>Play #1: Main deployment playbook for integrating submariner (0)-&gt;task_cbaddfc2-28bf-4b99-9005-6153a67611ca</title>
<path fill="none" stroke="#1071cb" stroke-width="2" d="M707.2,-381.59C747.51,-334.18 864.27,-206.75 993.76,-156.72 1078.49,-123.99 1178.61,-115.07 1263.58,-115.25"/>
<polygon fill="#1071cb" stroke="#1071cb" stroke-width="2" points="1263.57,-118.75 1273.6,-115.31 1263.62,-111.75 1263.57,-118.75"/>
<text text-anchor="middle" x="966.26" y="-172.52" font-family="Times,serif" font-size="14.00" fill="#1071cb">13</text>
<links><link target="task_cbaddfc2-28bf-4b99-9005-6153a67611ca"/></links></g>
<!-- task_5fcef9c4&#45;d14c&#45;48be&#45;b8c7&#45;3b3453038294 -->
<g id="task_5fcef9c4-d14c-48be-b8c7-3b3453038294" class="node">
<title>task_5fcef9c4-d14c-48be-b8c7-3b3453038294</title>
<g id="a_task_5fcef9c4-d14c-48be-b8c7-3b3453038294"><a xlink:title="[task] ../../roles/kubeinit_prepare : list all_bootstrap_nodes">
<polygon fill="none" stroke="black" points="1756.26,-68.26 1756.26,-83.18 1578.29,-93.72 1326.6,-93.72 1148.62,-83.18 1148.62,-68.26 1326.6,-57.72 1578.29,-57.72 1756.26,-68.26"/>
<text text-anchor="middle" x="1452.44" y="-72.02" font-family="Times,serif" font-size="14.00">[task] ../../roles/kubeinit_prepare : list all_bootstrap_nodes</text>
</a>
</g>
</g>
<!-- Play #1: Main deployment playbook for integrating submariner (0)&#45;&gt;task_5fcef9c4&#45;d14c&#45;48be&#45;b8c7&#45;3b3453038294 -->
<g id="edge_ec333101-217d-41c8-971a-f7c556f6aba3" class="edge">
<title>Play #1: Main deployment playbook for integrating submariner (0)-&gt;task_5fcef9c4-d14c-48be-b8c7-3b3453038294</title>
<path fill="none" stroke="#1071cb" stroke-width="2" d="M703.56,-381.64C738.61,-327.39 851.77,-165.86 993.76,-102.72 1088.4,-60.64 1205.08,-54.36 1296.94,-58.36"/>
<polygon fill="#1071cb" stroke="#1071cb" stroke-width="2" points="1297,-61.87 1307.16,-58.85 1297.34,-54.88 1297,-61.87"/>
<text text-anchor="middle" x="966.26" y="-121.52" font-family="Times,serif" font-size="14.00" fill="#1071cb">14</text>
<links><link target="task_5fcef9c4-d14c-48be-b8c7-3b3453038294"/></links></g>
<!-- task_45da9613&#45;efaf&#45;4bd9&#45;9e75&#45;c9acfa76f9e6 -->
<g id="task_45da9613-efaf-4bd9-9e75-c9acfa76f9e6" class="node">
<title>task_45da9613-efaf-4bd9-9e75-c9acfa76f9e6</title>
<g id="a_task_45da9613-efaf-4bd9-9e75-c9acfa76f9e6"><a xlink:title="[task] ../../roles/kubeinit_submariner : Execute subctl verify">
<polygon fill="none" stroke="black" points="1762.92,-14.26 1762.92,-29.18 1581.05,-39.72 1323.84,-39.72 1141.96,-29.18 1141.96,-14.26 1323.84,-3.72 1581.05,-3.72 1762.92,-14.26"/>
<text text-anchor="middle" x="1452.44" y="-18.02" font-family="Times,serif" font-size="14.00">[task] ../../roles/kubeinit_submariner : Execute subctl verify</text>
</a>
</g>
</g>
<!-- Play #1: Main deployment playbook for integrating submariner (0)&#45;&gt;task_45da9613&#45;efaf&#45;4bd9&#45;9e75&#45;c9acfa76f9e6 -->
<g id="edge_cc2c9a83-244b-4fdb-b7e0-c580b0afc614" class="edge">
<title>Play #1: Main deployment playbook for integrating submariner (0)-&gt;task_45da9613-efaf-4bd9-9e75-c9acfa76f9e6</title>
<path fill="none" stroke="#1071cb" stroke-width="2" d="M701.08,-381.5C731.53,-320.86 839.01,-125.4 993.76,-48.72 1093.82,0.85 1221.65,4.2 1316.77,-2.9"/>
<polygon fill="#1071cb" stroke="#1071cb" stroke-width="2" points="1316.5,-6.39 1326.75,-3.69 1317.06,0.59 1316.5,-6.39"/>
<text text-anchor="middle" x="966.26" y="-70.52" font-family="Times,serif" font-size="14.00" fill="#1071cb">15</text>
<links><link target="task_45da9613-efaf-4bd9-9e75-c9acfa76f9e6"/></links></g>
</g>
</svg>