<?xml version="1.0" encoding="UTF-8" standalone="no"?>
<!DOCTYPE svg PUBLIC "-//W3C//DTD SVG 1.1//EN"
 "http://www.w3.org/Graphics/SVG/1.1/DTD/svg11.dtd">
<!-- Generated by graphviz version 2.43.0 (0)
 -->
<!-- Title: kubeinit/playbook.yml  Pages: 1 -->
<svg width="2510pt" height="703pt"
 viewBox="0.00 0.00 2509.62 703.15" xmlns="http://www.w3.org/2000/svg" xmlns:xlink="http://www.w3.org/1999/xlink">
<g id="graph0" class="graph" transform="scale(1 1) rotate(0) translate(4 699.15)">
<title>kubeinit/playbook.yml </title>
<polygon fill="white" stroke="transparent" points="-4,4 -4,-699.15 2505.62,-699.15 2505.62,4 -4,4"/>
<!-- kubeinit/playbook.yml -->
<g id="root_node" class="node">
<title>kubeinit/playbook.yml</title>
<ellipse fill="none" stroke="black" stroke-dasharray="1,5" cx="113.09" cy="-366.15" rx="113.18" ry="18"/>
<text text-anchor="middle" x="113.09" y="-362.45" font-family="Times,serif" font-size="14.00">kubeinit/playbook.yml</text>
</g>
<!-- task&#45;post&#45;deployment -->
<g id="play_97f3036f&#45;2f83&#45;4314&#45;ab75&#45;521141dee178" class="node">
<title>task&#45;post&#45;deployment</title>
<g id="a_play_97f3036f&#45;2f83&#45;4314&#45;ab75&#45;521141dee178"><a xlink:title="localhost">
<polygon fill="none" stroke="#000000" points="511.46,-358.69 511.46,-373.6 441.35,-384.15 342.2,-384.15 272.09,-373.6 272.09,-358.69 342.2,-348.15 441.35,-348.15 511.46,-358.69"/>
<text text-anchor="middle" x="391.77" y="-362.45" font-family="Times,serif" font-size="14.00" fill="#000000">task&#45;post&#45;deployment</text>
</a>
</g>
</g>
<!-- kubeinit/playbook.yml&#45;&gt;task&#45;post&#45;deployment -->
<g id="edge_ed9e6d1c&#45;5cb5&#45;46e0&#45;a380&#45;68141d256098" class="edge">
<title>kubeinit/playbook.yml&#45;&gt;task&#45;post&#45;deployment</title>
<path fill="none" stroke="#000000" stroke-width="2" d="M226.23,-366.15C238.05,-366.15 250.13,-366.15 262.12,-366.15"/>
<polygon fill="#000000" stroke="#000000" stroke-width="2" points="262.16,-369.65 272.16,-366.15 262.16,-362.65 262.16,-369.65"/>
<text text-anchor="middle" x="249.18" y="-369.95" font-family="Times,serif" font-size="14.00" fill="#000000">3</text>
</g>
<!-- task_38d8d894&#45;d238&#45;45f0&#45;8ba0&#45;2b359619dec1 -->
<g id="task_38d8d894&#45;d238&#45;45f0&#45;8ba0&#45;2b359619dec1" class="node">
<title>task_38d8d894&#45;d238&#45;45f0&#45;8ba0&#45;2b359619dec1</title>
<g id="a_task_38d8d894&#45;d238&#45;45f0&#45;8ba0&#45;2b359619dec1"><a xlink:title="[task] kubeinit.kubeinit.kubeinit_nfs : Install NFS packages">
<polygon fill="none" stroke="black" points="2302.57,-655.69 2302.57,-670.6 2121.22,-681.15 1864.76,-681.15 1683.42,-670.6 1683.42,-655.69 1864.76,-645.15 2121.22,-645.15 2302.57,-655.69"/>
<text text-anchor="middle" x="1992.99" y="-659.45" font-family="Times,serif" font-size="14.00">[task] kubeinit.kubeinit.kubeinit_nfs : Install NFS packages</text>
</a>
</g>
</g>
<!-- task&#45;post&#45;deployment&#45;&gt;task_38d8d894&#45;d238&#45;45f0&#45;8ba0&#45;2b359619dec1 -->
<g id="edge_2a79e674&#45;aeab&#45;4b06&#45;9e00&#45;c04d5b398ecf" class="edge">
<title>task&#45;post&#45;deployment&#45;&gt;task_38d8d894&#45;d238&#45;45f0&#45;8ba0&#45;2b359619dec1</title>
<path fill="none" stroke="#000000" stroke-width="2" d="M395.66,-384.3C404.7,-434.41 437.59,-574.76 529.37,-632.15 625.98,-692.56 1305.86,-683.51 1703.8,-672.7"/>
<polygon fill="#000000" stroke="#000000" stroke-width="2" points="1704.13,-676.19 1714.03,-672.42 1703.94,-669.19 1704.13,-676.19"/>
<text text-anchor="middle" x="997.87" y="-683.95" font-family="Times,serif" font-size="14.00" fill="#000000">1</text>
</g>
<!-- task_2a7c6c0d&#45;61ea&#45;4b99&#45;98c6&#45;d6dbafd2e722 -->
<g id="task_2a7c6c0d&#45;61ea&#45;4b99&#45;98c6&#45;d6dbafd2e722" class="node">
<title>task_2a7c6c0d&#45;61ea&#45;4b99&#45;98c6&#45;d6dbafd2e722</title>
<g id="a_task_2a7c6c0d&#45;61ea&#45;4b99&#45;98c6&#45;d6dbafd2e722"><a xlink:title="[task] kubeinit.kubeinit.kubeinit_nfs : Configure NFS shares of CentOS based guests">
<polygon fill="none" stroke="black" points="2429.73,-601.69 2429.73,-616.6 2173.9,-627.15 1812.09,-627.15 1556.25,-616.6 1556.25,-601.69 1812.09,-591.15 2173.9,-591.15 2429.73,-601.69"/>
<text text-anchor="middle" x="1992.99" y="-605.45" font-family="Times,serif" font-size="14.00">[task] kubeinit.kubeinit.kubeinit_nfs : Configure NFS shares of CentOS based guests</text>
</a>
</g>
</g>
<!-- task&#45;post&#45;deployment&#45;&gt;task_2a7c6c0d&#45;61ea&#45;4b99&#45;98c6&#45;d6dbafd2e722 -->
<g id="edge_89a6bc41&#45;59b7&#45;4715&#45;a638&#45;8f41b7283f87" class="edge">
<title>task&#45;post&#45;deployment&#45;&gt;task_2a7c6c0d&#45;61ea&#45;4b99&#45;98c6&#45;d6dbafd2e722</title>
<path fill="none" stroke="#000000" stroke-width="2" d="M397.49,-384.18C410.12,-428.36 449.34,-541.74 529.37,-587.15 573.48,-612.18 1132.19,-614.54 1546.02,-612.77"/>
<polygon fill="#000000" stroke="#000000" stroke-width="2" points="1546.09,-616.27 1556.07,-612.73 1546.06,-609.27 1546.09,-616.27"/>
<text text-anchor="middle" x="997.87" y="-616.95" font-family="Times,serif" font-size="14.00" fill="#000000">2 &#160;[when: hostvars[kubeinit_deployment_node_name].os == &#39;centos&#39;]</text>
</g>
<!-- task_b530193d&#45;fd91&#45;46d8&#45;a8e7&#45;8567d80279dc -->
<g id="task_b530193d&#45;fd91&#45;46d8&#45;a8e7&#45;8567d80279dc" class="node">
<title>task_b530193d&#45;fd91&#45;46d8&#45;a8e7&#45;8567d80279dc</title>
<g id="a_task_b530193d&#45;fd91&#45;46d8&#45;a8e7&#45;8567d80279dc"><a xlink:title="[task] kubeinit.kubeinit.kubeinit_nfs : Configure NFS shares of Ubuntu based guests">
<polygon fill="none" stroke="black" points="2429.32,-547.69 2429.32,-562.6 2173.73,-573.15 1812.26,-573.15 1556.66,-562.6 1556.66,-547.69 1812.26,-537.15 2173.73,-537.15 2429.32,-547.69"/>
<text text-anchor="middle" x="1992.99" y="-551.45" font-family="Times,serif" font-size="14.00">[task] kubeinit.kubeinit.kubeinit_nfs : Configure NFS shares of Ubuntu based guests</text>
</a>
</g>
</g>
<!-- task&#45;post&#45;deployment&#45;&gt;task_b530193d&#45;fd91&#45;46d8&#45;a8e7&#45;8567d80279dc -->
<g id="edge_1a2e89db&#45;c4e0&#45;4e40&#45;b854&#45;e349605a3d34" class="edge">
<title>task&#45;post&#45;deployment&#45;&gt;task_b530193d&#45;fd91&#45;46d8&#45;a8e7&#45;8567d80279dc</title>
<path fill="none" stroke="#000000" stroke-width="2" d="M401.28,-384.22C419.15,-419.79 464.4,-498.12 529.37,-529.15 623.29,-574.01 1196.75,-572.07 1597.04,-564.88"/>
<polygon fill="#000000" stroke="#000000" stroke-width="2" points="1597.12,-568.38 1607.05,-564.7 1596.99,-561.38 1597.12,-568.38"/>
<text text-anchor="middle" x="997.87" y="-571.95" font-family="Times,serif" font-size="14.00" fill="#000000">3 &#160;[when: hostvars[kubeinit_deployment_node_name].os == &#39;ubuntu&#39; or hostvars[kubeinit_deployment_node_name].os == &#39;debian&#39;]</text>
</g>
<!-- task_492b8a0f&#45;12cb&#45;449c&#45;b9ca&#45;d7b8f3743353 -->
<g id="task_492b8a0f&#45;12cb&#45;449c&#45;b9ca&#45;d7b8f3743353" class="node">
<title>task_492b8a0f&#45;12cb&#45;449c&#45;b9ca&#45;d7b8f3743353</title>
<g id="a_task_492b8a0f&#45;12cb&#45;449c&#45;b9ca&#45;d7b8f3743353"><a xlink:title="[task] kubeinit.kubeinit.kubeinit_nfs : Add nfs provisioning role">
<polygon fill="none" stroke="black" points="2321.55,-493.69 2321.55,-508.6 2129.09,-519.15 1856.9,-519.15 1664.43,-508.6 1664.43,-493.69 1856.9,-483.15 2129.09,-483.15 2321.55,-493.69"/>
<text text-anchor="middle" x="1992.99" y="-497.45" font-family="Times,serif" font-size="14.00">[task] kubeinit.kubeinit.kubeinit_nfs : Add nfs provisioning role</text>
</a>
</g>
</g>
<!-- task&#45;post&#45;deployment&#45;&gt;task_492b8a0f&#45;12cb&#45;449c&#45;b9ca&#45;d7b8f3743353 -->
<g id="edge_082b7ac3&#45;85cb&#45;42ca&#45;af1d&#45;ac85ec50117e" class="edge">
<title>task&#45;post&#45;deployment&#45;&gt;task_492b8a0f&#45;12cb&#45;449c&#45;b9ca&#45;d7b8f3743353</title>
<path fill="none" stroke="#000000" stroke-width="2" d="M407.66,-384.44C430.55,-410.97 477.25,-459.05 529.37,-478.15 631.73,-515.66 1254.78,-513.2 1653.99,-507.51"/>
<polygon fill="#000000" stroke="#000000" stroke-width="2" points="1654.31,-511.01 1664.26,-507.36 1654.21,-504.01 1654.31,-511.01"/>
<text text-anchor="middle" x="997.87" y="-513.95" font-family="Times,serif" font-size="14.00" fill="#000000">4</text>
</g>
<!-- task_5fad5a8d&#45;9451&#45;4f68&#45;a71e&#45;0e24d11a5ca0 -->
<g id="task_5fad5a8d&#45;9451&#45;4f68&#45;a71e&#45;0e24d11a5ca0" class="node">
<title>task_5fad5a8d&#45;9451&#45;4f68&#45;a71e&#45;0e24d11a5ca0</title>
<g id="a_task_5fad5a8d&#45;9451&#45;4f68&#45;a71e&#45;0e24d11a5ca0"><a xlink:title="[task] kubeinit.kubeinit.kubeinit_nfs : Add nfs client provisioner deployment">
<polygon fill="none" stroke="black" points="2386.9,-439.69 2386.9,-454.6 2156.16,-465.15 1829.83,-465.15 1599.08,-454.6 1599.08,-439.69 1829.83,-429.15 2156.16,-429.15 2386.9,-439.69"/>
<text text-anchor="middle" x="1992.99" y="-443.45" font-family="Times,serif" font-size="14.00">[task] kubeinit.kubeinit.kubeinit_nfs : Add nfs client provisioner deployment</text>
</a>
</g>
</g>
<!-- task&#45;post&#45;deployment&#45;&gt;task_5fad5a8d&#45;9451&#45;4f68&#45;a71e&#45;0e24d11a5ca0 -->
<g id="edge_f31ad4a8&#45;094e&#45;430d&#45;b6eb&#45;917bd52b60db" class="edge">
<title>task&#45;post&#45;deployment&#45;&gt;task_5fad5a8d&#45;9451&#45;4f68&#45;a71e&#45;0e24d11a5ca0</title>
<path fill="none" stroke="#000000" stroke-width="2" d="M446.69,-383.38C471.59,-390.55 501.7,-398.13 529.37,-402.15 916.08,-458.31 1366.11,-463.23 1663.76,-458.21"/>
<polygon fill="#000000" stroke="#000000" stroke-width="2" points="1663.91,-461.71 1673.84,-458.03 1663.78,-454.71 1663.91,-461.71"/>
<text text-anchor="middle" x="997.87" y="-462.95" font-family="Times,serif" font-size="14.00" fill="#000000">5</text>
</g>
<!-- task_3956ad33&#45;a07b&#45;47d3&#45;9fb2&#45;1618d7d5eb54 -->
<g id="task_3956ad33&#45;a07b&#45;47d3&#45;9fb2&#45;1618d7d5eb54" class="node">
<title>task_3956ad33&#45;a07b&#45;47d3&#45;9fb2&#45;1618d7d5eb54</title>
<g id="a_task_3956ad33&#45;a07b&#45;47d3&#45;9fb2&#45;1618d7d5eb54"><a xlink:title="[task] kubeinit.kubeinit.kubeinit_nfs : Add default nfs storage class">
<polygon fill="none" stroke="black" points="2341.45,-385.69 2341.45,-400.6 2137.33,-411.15 1848.66,-411.15 1644.53,-400.6 1644.53,-385.69 1848.66,-375.15 2137.33,-375.15 2341.45,-385.69"/>
<text text-anchor="middle" x="1992.99" y="-389.45" font-family="Times,serif" font-size="14.00">[task] kubeinit.kubeinit.kubeinit_nfs : Add default nfs storage class</text>
</a>
</g>
</g>
<!-- task&#45;post&#45;deployment&#45;&gt;task_3956ad33&#45;a07b&#45;47d3&#45;9fb2&#45;1618d7d5eb54 -->
<g id="edge_350f8b0a&#45;4698&#45;4e4c&#45;997b&#45;95a02a0053d7" class="edge">
<title>task&#45;post&#45;deployment&#45;&gt;task_3956ad33&#45;a07b&#45;47d3&#45;9fb2&#45;1618d7d5eb54</title>
<path fill="none" stroke="#000000" stroke-width="2" d="M511.67,-368.16C746.18,-372.12 1276.59,-381.07 1634.56,-387.11"/>
<polygon fill="#000000" stroke="#000000" stroke-width="2" points="1634.51,-390.61 1644.57,-387.28 1634.63,-383.62 1634.51,-390.61"/>
<text text-anchor="middle" x="997.87" y="-386.95" font-family="Times,serif" font-size="14.00" fill="#000000">6</text>
</g>
<!-- task_73b16c29&#45;8224&#45;4f11&#45;a1c0&#45;1a70269aa8e8 -->
<g id="task_73b16c29&#45;8224&#45;4f11&#45;a1c0&#45;1a70269aa8e8" class="node">
<title>task_73b16c29&#45;8224&#45;4f11&#45;a1c0&#45;1a70269aa8e8</title>
<g id="a_task_73b16c29&#45;8224&#45;4f11&#45;a1c0&#45;1a70269aa8e8"><a xlink:title="[task] kubeinit.kubeinit.kubeinit_okd : Add security context constraint for nfs provisioner">
<polygon fill="none" stroke="black" points="2452.25,-331.69 2452.25,-346.6 2183.22,-357.15 1802.76,-357.15 1533.73,-346.6 1533.73,-331.69 1802.76,-321.15 2183.22,-321.15 2452.25,-331.69"/>
<text text-anchor="middle" x="1992.99" y="-335.45" font-family="Times,serif" font-size="14.00">[task] kubeinit.kubeinit.kubeinit_okd : Add security context constraint for nfs provisioner</text>
</a>
</g>
</g>
<!-- task&#45;post&#45;deployment&#45;&gt;task_73b16c29&#45;8224&#45;4f11&#45;a1c0&#45;1a70269aa8e8 -->
<g id="edge_281deb95&#45;2e10&#45;4476&#45;a737&#45;42cfd3cb23d6" class="edge">
<title>task&#45;post&#45;deployment&#45;&gt;task_73b16c29&#45;8224&#45;4f11&#45;a1c0&#45;1a70269aa8e8</title>
<path fill="none" stroke="#000000" stroke-width="2" d="M479.34,-353.83C495.91,-351.91 513.15,-350.21 529.37,-349.15 884.81,-325.9 1289.87,-325.12 1583.46,-329.18"/>
<polygon fill="#000000" stroke="#000000" stroke-width="2" points="1583.8,-332.68 1593.85,-329.32 1583.9,-325.68 1583.8,-332.68"/>
<text text-anchor="middle" x="997.87" y="-352.95" font-family="Times,serif" font-size="14.00" fill="#000000">7 &#160;[when: &#39;nfs&#39; in kubeinit_cluster_hostvars.services]</text>
</g>
<!-- task_450d4736&#45;6f28&#45;4189&#45;a099&#45;44c7128e1c87 -->
<g id="task_450d4736&#45;6f28&#45;4189&#45;a099&#45;44c7128e1c87" class="node">
<title>task_450d4736&#45;6f28&#45;4189&#45;a099&#45;44c7128e1c87</title>
<g id="a_task_450d4736&#45;6f28&#45;4189&#45;a099&#45;44c7128e1c87"><a xlink:title="[task] kubeinit.kubeinit.kubeinit_okd : Apply nfs security policy to nfs user">
<polygon fill="none" stroke="black" points="2378.52,-277.69 2378.52,-292.6 2152.68,-303.15 1833.3,-303.15 1607.46,-292.6 1607.46,-277.69 1833.3,-267.15 2152.68,-267.15 2378.52,-277.69"/>
<text text-anchor="middle" x="1992.99" y="-281.45" font-family="Times,serif" font-size="14.00">[task] kubeinit.kubeinit.kubeinit_okd : Apply nfs security policy to nfs user</text>
</a>
</g>
</g>
<!-- task&#45;post&#45;deployment&#45;&gt;task_450d4736&#45;6f28&#45;4189&#45;a099&#45;44c7128e1c87 -->
<g id="edge_cc0cb056&#45;d9b6&#45;4b41&#45;a953&#45;e8b36e8f4d49" class="edge">
<title>task&#45;post&#45;deployment&#45;&gt;task_450d4736&#45;6f28&#45;4189&#45;a099&#45;44c7128e1c87</title>
<path fill="none" stroke="#000000" stroke-width="2" d="M425.28,-348.11C452.24,-334.2 492.06,-316.05 529.37,-308.15 733.82,-264.86 1279.93,-267.73 1643.88,-275.29"/>
<polygon fill="#000000" stroke="#000000" stroke-width="2" points="1643.99,-278.8 1654.06,-275.51 1644.13,-271.8 1643.99,-278.8"/>
<text text-anchor="middle" x="997.87" y="-311.95" font-family="Times,serif" font-size="14.00" fill="#000000">8 &#160;[when: &#39;nfs&#39; in kubeinit_cluster_hostvars.services]</text>
</g>
<!-- task_bee259b9&#45;9419&#45;44b1&#45;8d1f&#45;2b02dab3f5e3 -->
<g id="task_bee259b9&#45;9419&#45;44b1&#45;8d1f&#45;2b02dab3f5e3" class="node">
<title>task_bee259b9&#45;9419&#45;44b1&#45;8d1f&#45;2b02dab3f5e3</title>
<g id="a_task_bee259b9&#45;9419&#45;44b1&#45;8d1f&#45;2b02dab3f5e3"><a xlink:title="[task] kubeinit.kubeinit.kubeinit_okd : Wait for the image registry operator to start its components">
<polygon fill="none" stroke="black" points="2501.74,-223.69 2501.74,-238.6 2203.72,-249.15 1782.26,-249.15 1484.24,-238.6 1484.24,-223.69 1782.26,-213.15 2203.72,-213.15 2501.74,-223.69"/>
<text text-anchor="middle" x="1992.99" y="-227.45" font-family="Times,serif" font-size="14.00">[task] kubeinit.kubeinit.kubeinit_okd : Wait for the image registry operator to start its components</text>
</a>
</g>
</g>
<!-- task&#45;post&#45;deployment&#45;&gt;task_bee259b9&#45;9419&#45;44b1&#45;8d1f&#45;2b02dab3f5e3 -->
<g id="edge_ff9c9b93&#45;ad62&#45;430b&#45;bab3&#45;78d647f2c779" class="edge">
<title>task&#45;post&#45;deployment&#45;&gt;task_bee259b9&#45;9419&#45;44b1&#45;8d1f&#45;2b02dab3f5e3</title>
<path fill="none" stroke="#000000" stroke-width="2" d="M407.16,-347.82C429.76,-320.66 476.5,-270.85 529.37,-251.15 620.83,-217.06 1129.93,-216.71 1522.06,-221.86"/>
<polygon fill="#000000" stroke="#000000" stroke-width="2" points="1522.13,-225.36 1532.18,-221.99 1522.22,-218.36 1522.13,-225.36"/>
<text text-anchor="middle" x="997.87" y="-254.95" font-family="Times,serif" font-size="14.00" fill="#000000">9 &#160;[when: &#39;nfs&#39; in kubeinit_cluster_hostvars.services]</text>
</g>
<!-- task_31b2fef9&#45;aee3&#45;434f&#45;9b52&#45;6e08a08bc974 -->
<g id="task_31b2fef9&#45;aee3&#45;434f&#45;9b52&#45;6e08a08bc974" class="node">
<title>task_31b2fef9&#45;aee3&#45;434f&#45;9b52&#45;6e08a08bc974</title>
<g id="a_task_31b2fef9&#45;aee3&#45;434f&#45;9b52&#45;6e08a08bc974"><a xlink:title="[task] kubeinit.kubeinit.kubeinit_okd : Patch imageregistry operator to claim storage">
<polygon fill="none" stroke="black" points="2431.04,-169.69 2431.04,-184.6 2174.44,-195.15 1811.55,-195.15 1554.94,-184.6 1554.94,-169.69 1811.55,-159.15 2174.44,-159.15 2431.04,-169.69"/>
<text text-anchor="middle" x="1992.99" y="-173.45" font-family="Times,serif" font-size="14.00">[task] kubeinit.kubeinit.kubeinit_okd : Patch imageregistry operator to claim storage</text>
</a>
</g>
</g>
<!-- task&#45;post&#45;deployment&#45;&gt;task_31b2fef9&#45;aee3&#45;434f&#45;9b52&#45;6e08a08bc974 -->
<g id="edge_98c50aa0&#45;dafd&#45;4848&#45;8209&#45;20f0c1d9370e" class="edge">
<title>task&#45;post&#45;deployment&#45;&gt;task_31b2fef9&#45;aee3&#45;434f&#45;9b52&#45;6e08a08bc974</title>
<path fill="none" stroke="#000000" stroke-width="2" d="M401.04,-348.02C418.64,-311.93 463.64,-231.82 529.37,-200.15 624.31,-154.41 1211.02,-158.31 1611.88,-166.71"/>
<polygon fill="#000000" stroke="#000000" stroke-width="2" points="1611.83,-170.21 1621.9,-166.93 1611.98,-163.21 1611.83,-170.21"/>
<text text-anchor="middle" x="997.87" y="-203.95" font-family="Times,serif" font-size="14.00" fill="#000000">10 &#160;[when: &#39;nfs&#39; in kubeinit_cluster_hostvars.services]</text>
</g>
<!-- task_e88849ef&#45;17ce&#45;4835&#45;99e7&#45;aea0fee9e50b -->
<g id="task_e88849ef&#45;17ce&#45;4835&#45;99e7&#45;aea0fee9e50b" class="node">
<title>task_e88849ef&#45;17ce&#45;4835&#45;99e7&#45;aea0fee9e50b</title>
<g id="a_task_e88849ef&#45;17ce&#45;4835&#45;99e7&#45;aea0fee9e50b"><a xlink:title="[task] kubeinit.kubeinit.kubeinit_okd : Patch imageregistry operator to move to Managed state">
<polygon fill="none" stroke="black" points="2481.44,-115.69 2481.44,-130.6 2195.31,-141.15 1790.67,-141.15 1504.54,-130.6 1504.54,-115.69 1790.67,-105.15 2195.31,-105.15 2481.44,-115.69"/>
<text text-anchor="middle" x="1992.99" y="-119.45" font-family="Times,serif" font-size="14.00">[task] kubeinit.kubeinit.kubeinit_okd : Patch imageregistry operator to move to Managed state</text>
</a>
</g>
</g>
<!-- task&#45;post&#45;deployment&#45;&gt;task_e88849ef&#45;17ce&#45;4835&#45;99e7&#45;aea0fee9e50b -->
<g id="edge_2d52fca5&#45;d587&#45;4aac&#45;8246&#45;a2f564766a27" class="edge">
<title>task&#45;post&#45;deployment&#45;&gt;task_e88849ef&#45;17ce&#45;4835&#45;99e7&#45;aea0fee9e50b</title>
<path fill="none" stroke="#000000" stroke-width="2" d="M397.4,-347.87C409.83,-303.09 448.64,-188.17 529.37,-142.15 623.11,-88.71 1237.01,-97.85 1639.11,-110.03"/>
<polygon fill="#000000" stroke="#000000" stroke-width="2" points="1639.06,-113.54 1649.16,-110.34 1639.28,-106.54 1639.06,-113.54"/>
<text text-anchor="middle" x="997.87" y="-145.95" font-family="Times,serif" font-size="14.00" fill="#000000">11 &#160;[when: &#39;nfs&#39; in kubeinit_cluster_hostvars.services]</text>
</g>
<!-- task_0a8b7d75&#45;d7ad&#45;48a5&#45;8e53&#45;de239f9eae0b -->
<g id="task_0a8b7d75&#45;d7ad&#45;48a5&#45;8e53&#45;de239f9eae0b" class="node">
<title>task_0a8b7d75&#45;d7ad&#45;48a5&#45;8e53&#45;de239f9eae0b</title>
<g id="a_task_0a8b7d75&#45;d7ad&#45;48a5&#45;8e53&#45;de239f9eae0b"><a xlink:title="[task] kubeinit.kubeinit.kubeinit_kubevirt : Install KubeVirt">
<polygon fill="none" stroke="black" points="2302.57,-61.69 2302.57,-76.6 2121.22,-87.15 1864.76,-87.15 1683.42,-76.6 1683.42,-61.69 1864.76,-51.15 2121.22,-51.15 2302.57,-61.69"/>
<text text-anchor="middle" x="1992.99" y="-65.45" font-family="Times,serif" font-size="14.00">[task] kubeinit.kubeinit.kubeinit_kubevirt : Install KubeVirt</text>
</a>
</g>
</g>
<!-- task&#45;post&#45;deployment&#45;&gt;task_0a8b7d75&#45;d7ad&#45;48a5&#45;8e53&#45;de239f9eae0b -->
<g id="edge_ec9ff927&#45;5d3a&#45;4bd3&#45;a5e3&#45;e59daef0ee6a" class="edge">
<title>task&#45;post&#45;deployment&#45;&gt;task_0a8b7d75&#45;d7ad&#45;48a5&#45;8e53&#45;de239f9eae0b</title>
<path fill="none" stroke="#000000" stroke-width="2" d="M395,-347.84C402.5,-295.14 432.11,-142.94 529.37,-81.15 743.16,54.69 1511.96,-13.9 1840.93,-50.79"/>
<polygon fill="#000000" stroke="#000000" stroke-width="2" points="1840.68,-54.29 1851.01,-51.93 1841.46,-47.33 1840.68,-54.29"/>
<text text-anchor="middle" x="997.87" y="-84.95" font-family="Times,serif" font-size="14.00" fill="#000000">12</text>
</g>
</g>
</svg>
