<?xml version="1.0" encoding="UTF-8" standalone="no"?>
<!DOCTYPE svg PUBLIC "-//W3C//DTD SVG 1.1//EN"
 "http://www.w3.org/Graphics/SVG/1.1/DTD/svg11.dtd">
<!-- Generated by graphviz version 2.43.0 (0)
 -->
<!-- Title: kubeinit/playbook.yml  Pages: 1 -->
<svg width="2510pt" height="983pt"
 viewBox="0.00 0.00 2509.62 982.62" xmlns="http://www.w3.org/2000/svg" xmlns:xlink="http://www.w3.org/1999/xlink">
<g id="graph0" class="graph" transform="scale(1 1) rotate(0) translate(4 978.62)">
<title>kubeinit/playbook.yml </title>
<polygon fill="white" stroke="transparent" points="-4,4 -4,-978.62 2505.62,-978.62 2505.62,4 -4,4"/>
<!-- kubeinit/playbook.yml -->
<g id="root_node" class="node">
<title>kubeinit/playbook.yml</title>
<ellipse fill="none" stroke="black" stroke-dasharray="1,5" cx="113.09" cy="-507.62" rx="113.18" ry="18"/>
<text text-anchor="middle" x="113.09" y="-503.92" font-family="Times,serif" font-size="14.00">kubeinit/playbook.yml</text>
</g>
<!-- task&#45;post&#45;deployment -->
<g id="play_05530888&#45;4ce7&#45;4eed&#45;ac08&#45;2aa819f7c2ec" class="node">
<title>task&#45;post&#45;deployment</title>
<g id="a_play_05530888&#45;4ce7&#45;4eed&#45;ac08&#45;2aa819f7c2ec"><a xlink:title="localhost">
<polygon fill="none" stroke="#000000" points="511.46,-500.17 511.46,-515.08 441.35,-525.62 342.2,-525.62 272.09,-515.08 272.09,-500.17 342.2,-489.62 441.35,-489.62 511.46,-500.17"/>
<text text-anchor="middle" x="391.77" y="-503.92" font-family="Times,serif" font-size="14.00" fill="#000000">task&#45;post&#45;deployment</text>
</a>
</g>
</g>
<!-- kubeinit/playbook.yml&#45;&gt;task&#45;post&#45;deployment -->
<g id="edge_0c255da9&#45;5e44&#45;4737&#45;a1a8&#45;0e9b0d1a7e1c" class="edge">
<title>kubeinit/playbook.yml&#45;&gt;task&#45;post&#45;deployment</title>
<path fill="none" stroke="#000000" stroke-width="2" d="M226.23,-507.62C238.05,-507.62 250.13,-507.62 262.12,-507.62"/>
<polygon fill="#000000" stroke="#000000" stroke-width="2" points="262.16,-511.12 272.16,-507.62 262.16,-504.12 262.16,-511.12"/>
<text text-anchor="middle" x="249.18" y="-511.42" font-family="Times,serif" font-size="14.00" fill="#000000">3</text>
</g>
<!-- task_943e87c3&#45;b8d1&#45;487b&#45;b4da&#45;d6112cef8f8e -->
<g id="task_943e87c3&#45;b8d1&#45;487b&#45;b4da&#45;d6112cef8f8e" class="node">
<title>task_943e87c3&#45;b8d1&#45;487b&#45;b4da&#45;d6112cef8f8e</title>
<g id="a_task_943e87c3&#45;b8d1&#45;487b&#45;b4da&#45;d6112cef8f8e"><a xlink:title="[task] kubeinit.kubeinit.kubeinit_nfs : Install NFS packages">
<polygon fill="none" stroke="black" points="2302.57,-932.17 2302.57,-947.08 2121.22,-957.62 1864.76,-957.62 1683.42,-947.08 1683.42,-932.17 1864.76,-921.62 2121.22,-921.62 2302.57,-932.17"/>
<text text-anchor="middle" x="1992.99" y="-935.92" font-family="Times,serif" font-size="14.00">[task] kubeinit.kubeinit.kubeinit_nfs : Install NFS packages</text>
</a>
</g>
</g>
<!-- task&#45;post&#45;deployment&#45;&gt;task_943e87c3&#45;b8d1&#45;487b&#45;b4da&#45;d6112cef8f8e -->
<g id="edge_1257d56c&#45;18a5&#45;4b8f&#45;9b45&#45;75ba8dbe5b4d" class="edge">
<title>task&#45;post&#45;deployment&#45;&gt;task_943e87c3&#45;b8d1&#45;487b&#45;b4da&#45;d6112cef8f8e</title>
<path fill="none" stroke="#000000" stroke-width="2" d="M392.39,-526.05C392.16,-591.34 401.15,-812.79 529.37,-906.62 622.59,-974.85 1322.02,-962.77 1718.94,-950.07"/>
<polygon fill="#000000" stroke="#000000" stroke-width="2" points="1719.25,-953.56 1729.14,-949.74 1719.03,-946.56 1719.25,-953.56"/>
<text text-anchor="middle" x="997.87" y="-963.42" font-family="Times,serif" font-size="14.00" fill="#000000">1</text>
</g>
<!-- task_fa1077e9&#45;fe58&#45;476c&#45;acc4&#45;2b4191912c89 -->
<g id="task_fa1077e9&#45;fe58&#45;476c&#45;acc4&#45;2b4191912c89" class="node">
<title>task_fa1077e9&#45;fe58&#45;476c&#45;acc4&#45;2b4191912c89</title>
<g id="a_task_fa1077e9&#45;fe58&#45;476c&#45;acc4&#45;2b4191912c89"><a xlink:title="[task] kubeinit.kubeinit.kubeinit_nfs : Configure NFS shares of CentOS based guests">
<polygon fill="none" stroke="black" points="2429.73,-878.17 2429.73,-893.08 2173.9,-903.62 1812.09,-903.62 1556.25,-893.08 1556.25,-878.17 1812.09,-867.62 2173.9,-867.62 2429.73,-878.17"/>
<text text-anchor="middle" x="1992.99" y="-881.92" font-family="Times,serif" font-size="14.00">[task] kubeinit.kubeinit.kubeinit_nfs : Configure NFS shares of CentOS based guests</text>
</a>
</g>
</g>
<!-- task&#45;post&#45;deployment&#45;&gt;task_fa1077e9&#45;fe58&#45;476c&#45;acc4&#45;2b4191912c89 -->
<g id="edge_3750b7c5&#45;ef76&#45;4c5a&#45;a0ca&#45;bbab8a510bb7" class="edge">
<title>task&#45;post&#45;deployment&#45;&gt;task_fa1077e9&#45;fe58&#45;476c&#45;acc4&#45;2b4191912c89</title>
<path fill="none" stroke="#000000" stroke-width="2" d="M393.37,-525.82C396.44,-585.5 415.15,-776.02 529.37,-855.62 571.01,-884.64 1131.18,-889.12 1545.93,-888.38"/>
<polygon fill="#000000" stroke="#000000" stroke-width="2" points="1546.01,-891.88 1556,-888.36 1546,-884.88 1546.01,-891.88"/>
<text text-anchor="middle" x="997.87" y="-891.42" font-family="Times,serif" font-size="14.00" fill="#000000">2 &#160;[when: hostvars[kubeinit_deployment_node_name].os == &#39;centos&#39;]</text>
</g>
<!-- task_0232f945&#45;0563&#45;48fa&#45;91ff&#45;2003e4ab047a -->
<g id="task_0232f945&#45;0563&#45;48fa&#45;91ff&#45;2003e4ab047a" class="node">
<title>task_0232f945&#45;0563&#45;48fa&#45;91ff&#45;2003e4ab047a</title>
<g id="a_task_0232f945&#45;0563&#45;48fa&#45;91ff&#45;2003e4ab047a"><a xlink:title="[task] kubeinit.kubeinit.kubeinit_nfs : Configure NFS shares of Ubuntu based guests">
<polygon fill="none" stroke="black" points="2429.32,-824.17 2429.32,-839.08 2173.73,-849.62 1812.26,-849.62 1556.66,-839.08 1556.66,-824.17 1812.26,-813.62 2173.73,-813.62 2429.32,-824.17"/>
<text text-anchor="middle" x="1992.99" y="-827.92" font-family="Times,serif" font-size="14.00">[task] kubeinit.kubeinit.kubeinit_nfs : Configure NFS shares of Ubuntu based guests</text>
</a>
</g>
</g>
<!-- task&#45;post&#45;deployment&#45;&gt;task_0232f945&#45;0563&#45;48fa&#45;91ff&#45;2003e4ab047a -->
<g id="edge_fc02323d&#45;eff8&#45;4086&#45;af30&#45;d888c01b8f72" class="edge">
<title>task&#45;post&#45;deployment&#45;&gt;task_0232f945&#45;0563&#45;48fa&#45;91ff&#45;2003e4ab047a</title>
<path fill="none" stroke="#000000" stroke-width="2" d="M394.5,-525.77C400.75,-580.28 427.6,-742.87 529.37,-809.62 571.82,-837.47 1132.21,-839.11 1546.74,-836.42"/>
<polygon fill="#000000" stroke="#000000" stroke-width="2" points="1546.84,-839.92 1556.82,-836.35 1546.79,-832.92 1546.84,-839.92"/>
<text text-anchor="middle" x="997.87" y="-840.42" font-family="Times,serif" font-size="14.00" fill="#000000">3 &#160;[when: hostvars[kubeinit_deployment_node_name].os == &#39;ubuntu&#39; or hostvars[kubeinit_deployment_node_name].os == &#39;debian&#39;]</text>
</g>
<!-- task_660c2d9a&#45;b50d&#45;4fa3&#45;b26b&#45;e723c9736860 -->
<g id="task_660c2d9a&#45;b50d&#45;4fa3&#45;b26b&#45;e723c9736860" class="node">
<title>task_660c2d9a&#45;b50d&#45;4fa3&#45;b26b&#45;e723c9736860</title>
<g id="a_task_660c2d9a&#45;b50d&#45;4fa3&#45;b26b&#45;e723c9736860"><a xlink:title="[task] kubeinit.kubeinit.kubeinit_nfs : Add nfs provisioning role">
<polygon fill="none" stroke="black" points="2321.55,-770.17 2321.55,-785.08 2129.09,-795.62 1856.9,-795.62 1664.43,-785.08 1664.43,-770.17 1856.9,-759.62 2129.09,-759.62 2321.55,-770.17"/>
<text text-anchor="middle" x="1992.99" y="-773.92" font-family="Times,serif" font-size="14.00">[task] kubeinit.kubeinit.kubeinit_nfs : Add nfs provisioning role</text>
</a>
</g>
</g>
<!-- task&#45;post&#45;deployment&#45;&gt;task_660c2d9a&#45;b50d&#45;4fa3&#45;b26b&#45;e723c9736860 -->
<g id="edge_d0026d8d&#45;c8bb&#45;4b83&#45;ade7&#45;01f609f38697" class="edge">
<title>task&#45;post&#45;deployment&#45;&gt;task_660c2d9a&#45;b50d&#45;4fa3&#45;b26b&#45;e723c9736860</title>
<path fill="none" stroke="#000000" stroke-width="2" d="M396.8,-525.92C408.14,-572.54 445.19,-695.64 529.37,-745.62 625.59,-802.75 1282.47,-796.39 1682.49,-786.88"/>
<polygon fill="#000000" stroke="#000000" stroke-width="2" points="1682.86,-790.37 1692.77,-786.63 1682.69,-783.37 1682.86,-790.37"/>
<text text-anchor="middle" x="997.87" y="-796.42" font-family="Times,serif" font-size="14.00" fill="#000000">4</text>
</g>
<!-- task_6d62eb0c&#45;8f36&#45;4cc7&#45;b073&#45;49e87af40b81 -->
<g id="task_6d62eb0c&#45;8f36&#45;4cc7&#45;b073&#45;49e87af40b81" class="node">
<title>task_6d62eb0c&#45;8f36&#45;4cc7&#45;b073&#45;49e87af40b81</title>
<g id="a_task_6d62eb0c&#45;8f36&#45;4cc7&#45;b073&#45;49e87af40b81"><a xlink:title="[task] kubeinit.kubeinit.kubeinit_nfs : Add nfs client provisioner deployment">
<polygon fill="none" stroke="black" points="2386.9,-716.17 2386.9,-731.08 2156.16,-741.62 1829.83,-741.62 1599.08,-731.08 1599.08,-716.17 1829.83,-705.62 2156.16,-705.62 2386.9,-716.17"/>
<text text-anchor="middle" x="1992.99" y="-719.92" font-family="Times,serif" font-size="14.00">[task] kubeinit.kubeinit.kubeinit_nfs : Add nfs client provisioner deployment</text>
</a>
</g>
</g>
<!-- task&#45;post&#45;deployment&#45;&gt;task_6d62eb0c&#45;8f36&#45;4cc7&#45;b073&#45;49e87af40b81 -->
<g id="edge_fd7dfec1&#45;8481&#45;44e3&#45;af37&#45;b1278039ffa9" class="edge">
<title>task&#45;post&#45;deployment&#45;&gt;task_6d62eb0c&#45;8f36&#45;4cc7&#45;b073&#45;49e87af40b81</title>
<path fill="none" stroke="#000000" stroke-width="2" d="M399.07,-525.88C414.13,-566.37 456.53,-663.13 529.37,-701.62 575.76,-726.14 1171.93,-728.17 1588.63,-726.53"/>
<polygon fill="#000000" stroke="#000000" stroke-width="2" points="1588.77,-730.03 1598.75,-726.49 1588.74,-723.03 1588.77,-730.03"/>
<text text-anchor="middle" x="997.87" y="-730.42" font-family="Times,serif" font-size="14.00" fill="#000000">5</text>
</g>
<!-- task_73227ace&#45;b6c0&#45;49c0&#45;9418&#45;7a52f07e5b36 -->
<g id="task_73227ace&#45;b6c0&#45;49c0&#45;9418&#45;7a52f07e5b36" class="node">
<title>task_73227ace&#45;b6c0&#45;49c0&#45;9418&#45;7a52f07e5b36</title>
<g id="a_task_73227ace&#45;b6c0&#45;49c0&#45;9418&#45;7a52f07e5b36"><a xlink:title="[task] kubeinit.kubeinit.kubeinit_nfs : Add default nfs storage class">
<polygon fill="none" stroke="black" points="2341.45,-662.17 2341.45,-677.08 2137.33,-687.62 1848.66,-687.62 1644.53,-677.08 1644.53,-662.17 1848.66,-651.62 2137.33,-651.62 2341.45,-662.17"/>
<text text-anchor="middle" x="1992.99" y="-665.92" font-family="Times,serif" font-size="14.00">[task] kubeinit.kubeinit.kubeinit_nfs : Add default nfs storage class</text>
</a>
</g>
</g>
<!-- task&#45;post&#45;deployment&#45;&gt;task_73227ace&#45;b6c0&#45;49c0&#45;9418&#45;7a52f07e5b36 -->
<g id="edge_c8e6bea4&#45;19c5&#45;48a0&#45;b2d9&#45;2d5ae0bd144f" class="edge">
<title>task&#45;post&#45;deployment&#45;&gt;task_73227ace&#45;b6c0&#45;49c0&#45;9418&#45;7a52f07e5b36</title>
<path fill="none" stroke="#000000" stroke-width="2" d="M403.51,-525.65C423.57,-557.35 470.1,-622.12 529.37,-647.62 629.28,-690.62 1250.48,-685.92 1650.53,-678.11"/>
<polygon fill="#000000" stroke="#000000" stroke-width="2" points="1650.6,-681.61 1660.53,-677.91 1650.46,-674.61 1650.6,-681.61"/>
<text text-anchor="middle" x="997.87" y="-686.42" font-family="Times,serif" font-size="14.00" fill="#000000">6</text>
</g>
<!-- task_f2a65b76&#45;ca54&#45;4eac&#45;b7bf&#45;328bbbd7b2f2 -->
<g id="task_f2a65b76&#45;ca54&#45;4eac&#45;b7bf&#45;328bbbd7b2f2" class="node">
<title>task_f2a65b76&#45;ca54&#45;4eac&#45;b7bf&#45;328bbbd7b2f2</title>
<g id="a_task_f2a65b76&#45;ca54&#45;4eac&#45;b7bf&#45;328bbbd7b2f2"><a xlink:title="[task] kubeinit.kubeinit.kubeinit_okd : Add security context constraint for nfs provisioner">
<polygon fill="none" stroke="black" points="2452.25,-608.17 2452.25,-623.08 2183.22,-633.62 1802.76,-633.62 1533.73,-623.08 1533.73,-608.17 1802.76,-597.62 2183.22,-597.62 2452.25,-608.17"/>
<text text-anchor="middle" x="1992.99" y="-611.92" font-family="Times,serif" font-size="14.00">[task] kubeinit.kubeinit.kubeinit_okd : Add security context constraint for nfs provisioner</text>
</a>
</g>
</g>
<!-- task&#45;post&#45;deployment&#45;&gt;task_f2a65b76&#45;ca54&#45;4eac&#45;b7bf&#45;328bbbd7b2f2 -->
<g id="edge_88443ddc&#45;45b4&#45;4094&#45;a7e8&#45;87a5d0fa51e7" class="edge">
<title>task&#45;post&#45;deployment&#45;&gt;task_f2a65b76&#45;ca54&#45;4eac&#45;b7bf&#45;328bbbd7b2f2</title>
<path fill="none" stroke="#000000" stroke-width="2" d="M417.42,-525.69C443.66,-543.74 487.14,-570.4 529.37,-581.62 726.12,-633.94 1250.02,-634.06 1614.18,-626.85"/>
<polygon fill="#000000" stroke="#000000" stroke-width="2" points="1614.44,-630.34 1624.37,-626.64 1614.3,-623.35 1614.44,-630.34"/>
<text text-anchor="middle" x="997.87" y="-633.42" font-family="Times,serif" font-size="14.00" fill="#000000">7 &#160;[when: &#39;nfs&#39; in kubeinit_cluster_hostvars.services]</text>
</g>
<!-- task_81f1c575&#45;4a93&#45;4145&#45;b23f&#45;b74150d75ff1 -->
<g id="task_81f1c575&#45;4a93&#45;4145&#45;b23f&#45;b74150d75ff1" class="node">
<title>task_81f1c575&#45;4a93&#45;4145&#45;b23f&#45;b74150d75ff1</title>
<g id="a_task_81f1c575&#45;4a93&#45;4145&#45;b23f&#45;b74150d75ff1"><a xlink:title="[task] kubeinit.kubeinit.kubeinit_okd : Apply nfs security policy to nfs user">
<polygon fill="none" stroke="black" points="2378.52,-554.17 2378.52,-569.08 2152.68,-579.62 1833.3,-579.62 1607.46,-569.08 1607.46,-554.17 1833.3,-543.62 2152.68,-543.62 2378.52,-554.17"/>
<text text-anchor="middle" x="1992.99" y="-557.92" font-family="Times,serif" font-size="14.00">[task] kubeinit.kubeinit.kubeinit_okd : Apply nfs security policy to nfs user</text>
</a>
</g>
</g>
<!-- task&#45;post&#45;deployment&#45;&gt;task_81f1c575&#45;4a93&#45;4145&#45;b23f&#45;b74150d75ff1 -->
<g id="edge_369c7530&#45;f1fc&#45;4098&#45;a536&#45;035de11280f3" class="edge">
<title>task&#45;post&#45;deployment&#45;&gt;task_81f1c575&#45;4a93&#45;4145&#45;b23f&#45;b74150d75ff1</title>
<path fill="none" stroke="#000000" stroke-width="2" d="M474.95,-520.6C492.84,-522.99 511.71,-525.19 529.37,-526.62 889.97,-555.92 1302.08,-563.45 1596.76,-564.37"/>
<polygon fill="#000000" stroke="#000000" stroke-width="2" points="1597.18,-567.87 1607.19,-564.4 1597.2,-560.87 1597.18,-567.87"/>
<text text-anchor="middle" x="997.87" y="-566.42" font-family="Times,serif" font-size="14.00" fill="#000000">8 &#160;[when: &#39;nfs&#39; in kubeinit_cluster_hostvars.services]</text>
</g>
<!-- task_46e20bba&#45;b9b8&#45;4dfc&#45;9982&#45;6039bd773b48 -->
<g id="task_46e20bba&#45;b9b8&#45;4dfc&#45;9982&#45;6039bd773b48" class="node">
<title>task_46e20bba&#45;b9b8&#45;4dfc&#45;9982&#45;6039bd773b48</title>
<g id="a_task_46e20bba&#45;b9b8&#45;4dfc&#45;9982&#45;6039bd773b48"><a xlink:title="[task] kubeinit.kubeinit.kubeinit_okd : Wait for the image registry operator to start its components">
<polygon fill="none" stroke="black" points="2501.74,-500.17 2501.74,-515.08 2203.72,-525.62 1782.26,-525.62 1484.24,-515.08 1484.24,-500.17 1782.26,-489.62 2203.72,-489.62 2501.74,-500.17"/>
<text text-anchor="middle" x="1992.99" y="-503.92" font-family="Times,serif" font-size="14.00">[task] kubeinit.kubeinit.kubeinit_okd : Wait for the image registry operator to start its components</text>
</a>
</g>
</g>
<!-- task&#45;post&#45;deployment&#45;&gt;task_46e20bba&#45;b9b8&#45;4dfc&#45;9982&#45;6039bd773b48 -->
<g id="edge_4f23b3a8&#45;9520&#45;422f&#45;ad73&#45;aba02c1d86a2" class="edge">
<title>task&#45;post&#45;deployment&#45;&gt;task_46e20bba&#45;b9b8&#45;4dfc&#45;9982&#45;6039bd773b48</title>
<path fill="none" stroke="#000000" stroke-width="2" d="M511.67,-507.62C713.09,-507.62 1132.8,-507.62 1474.05,-507.62"/>
<polygon fill="#000000" stroke="#000000" stroke-width="2" points="1474.12,-511.12 1484.12,-507.62 1474.12,-504.12 1474.12,-511.12"/>
<text text-anchor="middle" x="997.87" y="-511.42" font-family="Times,serif" font-size="14.00" fill="#000000">9 &#160;[when: &#39;nfs&#39; in kubeinit_cluster_hostvars.services]</text>
</g>
<!-- task_2d151b75&#45;2975&#45;4126&#45;a06d&#45;c33337336421 -->
<g id="task_2d151b75&#45;2975&#45;4126&#45;a06d&#45;c33337336421" class="node">
<title>task_2d151b75&#45;2975&#45;4126&#45;a06d&#45;c33337336421</title>
<g id="a_task_2d151b75&#45;2975&#45;4126&#45;a06d&#45;c33337336421"><a xlink:title="[task] kubeinit.kubeinit.kubeinit_okd : Patch imageregistry operator to claim storage">
<polygon fill="none" stroke="black" points="2431.04,-446.17 2431.04,-461.08 2174.44,-471.62 1811.55,-471.62 1554.94,-461.08 1554.94,-446.17 1811.55,-435.62 2174.44,-435.62 2431.04,-446.17"/>
<text text-anchor="middle" x="1992.99" y="-449.92" font-family="Times,serif" font-size="14.00">[task] kubeinit.kubeinit.kubeinit_okd : Patch imageregistry operator to claim storage</text>
</a>
</g>
</g>
<!-- task&#45;post&#45;deployment&#45;&gt;task_2d151b75&#45;2975&#45;4126&#45;a06d&#45;c33337336421 -->
<g id="edge_dcd63b62&#45;7c5a&#45;4998&#45;bb0d&#45;e67b92ff8885" class="edge">
<title>task&#45;post&#45;deployment&#45;&gt;task_2d151b75&#45;2975&#45;4126&#45;a06d&#45;c33337336421</title>
<path fill="none" stroke="#000000" stroke-width="2" d="M474.95,-494.64C492.84,-492.25 511.71,-490.06 529.37,-488.62 869.17,-461.01 1254.72,-452.73 1544.63,-451.11"/>
<polygon fill="#000000" stroke="#000000" stroke-width="2" points="1544.93,-454.6 1554.91,-451.05 1544.89,-447.6 1544.93,-454.6"/>
<text text-anchor="middle" x="997.87" y="-492.42" font-family="Times,serif" font-size="14.00" fill="#000000">10 &#160;[when: &#39;nfs&#39; in kubeinit_cluster_hostvars.services]</text>
</g>
<!-- task_e93d07c6&#45;bfb1&#45;47c7&#45;bf5b&#45;e0bb9aebf192 -->
<g id="task_e93d07c6&#45;bfb1&#45;47c7&#45;bf5b&#45;e0bb9aebf192" class="node">
<title>task_e93d07c6&#45;bfb1&#45;47c7&#45;bf5b&#45;e0bb9aebf192</title>
<g id="a_task_e93d07c6&#45;bfb1&#45;47c7&#45;bf5b&#45;e0bb9aebf192"><a xlink:title="[task] kubeinit.kubeinit.kubeinit_okd : Patch imageregistry operator to move to Managed state">
<polygon fill="none" stroke="black" points="2481.44,-392.17 2481.44,-407.08 2195.31,-417.62 1790.67,-417.62 1504.54,-407.08 1504.54,-392.17 1790.67,-381.62 2195.31,-381.62 2481.44,-392.17"/>
<text text-anchor="middle" x="1992.99" y="-395.92" font-family="Times,serif" font-size="14.00">[task] kubeinit.kubeinit.kubeinit_okd : Patch imageregistry operator to move to Managed state</text>
</a>
</g>
</g>
<!-- task&#45;post&#45;deployment&#45;&gt;task_e93d07c6&#45;bfb1&#45;47c7&#45;bf5b&#45;e0bb9aebf192 -->
<g id="edge_b3677306&#45;8895&#45;459f&#45;a587&#45;b6b7c6625beb" class="edge">
<title>task&#45;post&#45;deployment&#45;&gt;task_e93d07c6&#45;bfb1&#45;47c7&#45;bf5b&#45;e0bb9aebf192</title>
<path fill="none" stroke="#000000" stroke-width="2" d="M417.38,-489.31C443.58,-471 487.04,-443.99 529.37,-432.62 724.93,-380.11 1244.26,-380.21 1608.2,-387.75"/>
<polygon fill="#000000" stroke="#000000" stroke-width="2" points="1608.31,-391.26 1618.38,-387.97 1608.46,-384.26 1608.31,-391.26"/>
<text text-anchor="middle" x="997.87" y="-436.42" font-family="Times,serif" font-size="14.00" fill="#000000">11 &#160;[when: &#39;nfs&#39; in kubeinit_cluster_hostvars.services]</text>
</g>
<!-- task_2e1271f9&#45;1455&#45;4f29&#45;8a51&#45;0c3ee4532656 -->
<g id="task_2e1271f9&#45;1455&#45;4f29&#45;8a51&#45;0c3ee4532656" class="node">
<title>task_2e1271f9&#45;1455&#45;4f29&#45;8a51&#45;0c3ee4532656</title>
<g id="a_task_2e1271f9&#45;1455&#45;4f29&#45;8a51&#45;0c3ee4532656"><a xlink:title="[task] kubeinit.kubeinit.kubeinit_apps : Create the sampleapp template file">
<polygon fill="none" stroke="black" points="2381.15,-338.17 2381.15,-353.08 2153.77,-363.62 1832.21,-363.62 1604.84,-353.08 1604.84,-338.17 1832.21,-327.62 2153.77,-327.62 2381.15,-338.17"/>
<text text-anchor="middle" x="1992.99" y="-341.92" font-family="Times,serif" font-size="14.00">[task] kubeinit.kubeinit.kubeinit_apps : Create the sampleapp template file</text>
</a>
</g>
</g>
<!-- task&#45;post&#45;deployment&#45;&gt;task_2e1271f9&#45;1455&#45;4f29&#45;8a51&#45;0c3ee4532656 -->
<g id="edge_ceed201c&#45;25fa&#45;4d89&#45;a602&#45;5b1961ebbe3d" class="edge">
<title>task&#45;post&#45;deployment&#45;&gt;task_2e1271f9&#45;1455&#45;4f29&#45;8a51&#45;0c3ee4532656</title>
<path fill="none" stroke="#000000" stroke-width="2" d="M403.25,-489.46C423.04,-457.17 469.4,-390.73 529.37,-364.62 628.04,-321.66 1237.38,-327.26 1637.8,-335.95"/>
<polygon fill="#000000" stroke="#000000" stroke-width="2" points="1637.74,-339.45 1647.81,-336.17 1637.89,-332.45 1637.74,-339.45"/>
<text text-anchor="middle" x="997.87" y="-368.42" font-family="Times,serif" font-size="14.00" fill="#000000">12</text>
</g>
<!-- task_7683110d&#45;50ba&#45;40f8&#45;934d&#45;315eb76ff93b -->
<g id="task_7683110d&#45;50ba&#45;40f8&#45;934d&#45;315eb76ff93b" class="node">
<title>task_7683110d&#45;50ba&#45;40f8&#45;934d&#45;315eb76ff93b</title>
<g id="a_task_7683110d&#45;50ba&#45;40f8&#45;934d&#45;315eb76ff93b"><a xlink:title="[task] kubeinit.kubeinit.kubeinit_apps : Install the sample app">
<polygon fill="none" stroke="black" points="2315.8,-284.17 2315.8,-299.08 2126.7,-309.62 1859.28,-309.62 1670.19,-299.08 1670.19,-284.17 1859.28,-273.62 2126.7,-273.62 2315.8,-284.17"/>
<text text-anchor="middle" x="1992.99" y="-287.92" font-family="Times,serif" font-size="14.00">[task] kubeinit.kubeinit.kubeinit_apps : Install the sample app</text>
</a>
</g>
</g>
<!-- task&#45;post&#45;deployment&#45;&gt;task_7683110d&#45;50ba&#45;40f8&#45;934d&#45;315eb76ff93b -->
<g id="edge_56f95d98&#45;10b6&#45;4d16&#45;8e59&#45;e3d9ad79241f" class="edge">
<title>task&#45;post&#45;deployment&#45;&gt;task_7683110d&#45;50ba&#45;40f8&#45;934d&#45;315eb76ff93b</title>
<path fill="none" stroke="#000000" stroke-width="2" d="M398.86,-489.38C413.63,-448.45 455.69,-349.8 529.37,-310.62 629.92,-257.15 1307.77,-269.29 1704.46,-281.34"/>
<polygon fill="#000000" stroke="#000000" stroke-width="2" points="1704.55,-284.85 1714.65,-281.65 1704.76,-277.85 1704.55,-284.85"/>
<text text-anchor="middle" x="997.87" y="-314.42" font-family="Times,serif" font-size="14.00" fill="#000000">13</text>
</g>
<!-- task_90126aa7&#45;d191&#45;4e3f&#45;9318&#45;69df2889b1cf -->
<g id="task_90126aa7&#45;d191&#45;4e3f&#45;9318&#45;69df2889b1cf" class="node">
<title>task_90126aa7&#45;d191&#45;4e3f&#45;9318&#45;69df2889b1cf</title>
<g id="a_task_90126aa7&#45;d191&#45;4e3f&#45;9318&#45;69df2889b1cf"><a xlink:title="[task] kubeinit.kubeinit.kubeinit_apps : Wait until pods are created">
<polygon fill="none" stroke="black" points="2340.54,-230.17 2340.54,-245.08 2136.95,-255.62 1849.03,-255.62 1645.44,-245.08 1645.44,-230.17 1849.03,-219.62 2136.95,-219.62 2340.54,-230.17"/>
<text text-anchor="middle" x="1992.99" y="-233.92" font-family="Times,serif" font-size="14.00">[task] kubeinit.kubeinit.kubeinit_apps : Wait until pods are created</text>
</a>
</g>
</g>
<!-- task&#45;post&#45;deployment&#45;&gt;task_90126aa7&#45;d191&#45;4e3f&#45;9318&#45;69df2889b1cf -->
<g id="edge_643c7871&#45;925a&#45;49e0&#45;8a52&#45;4f4066c84df2" class="edge">
<title>task&#45;post&#45;deployment&#45;&gt;task_90126aa7&#45;d191&#45;4e3f&#45;9318&#45;69df2889b1cf</title>
<path fill="none" stroke="#000000" stroke-width="2" d="M396,-489.37C405.76,-440.35 439.99,-305.82 529.37,-251.62 628.06,-191.77 1324.27,-209.87 1719.52,-225.39"/>
<polygon fill="#000000" stroke="#000000" stroke-width="2" points="1719.54,-228.89 1729.68,-225.79 1719.82,-221.9 1719.54,-228.89"/>
<text text-anchor="middle" x="997.87" y="-255.42" font-family="Times,serif" font-size="14.00" fill="#000000">14</text>
</g>
<!-- task_c3f14564&#45;3ad2&#45;409c&#45;8673&#45;2b325262ed3e -->
<g id="task_c3f14564&#45;3ad2&#45;409c&#45;8673&#45;2b325262ed3e" class="node">
<title>task_c3f14564&#45;3ad2&#45;409c&#45;8673&#45;2b325262ed3e</title>
<g id="a_task_c3f14564&#45;3ad2&#45;409c&#45;8673&#45;2b325262ed3e"><a xlink:title="[task] kubeinit.kubeinit.kubeinit_apps : Wait until pods are running">
<polygon fill="none" stroke="black" points="2342.76,-176.17 2342.76,-191.08 2137.87,-201.62 1848.11,-201.62 1643.22,-191.08 1643.22,-176.17 1848.11,-165.62 2137.87,-165.62 2342.76,-176.17"/>
<text text-anchor="middle" x="1992.99" y="-179.92" font-family="Times,serif" font-size="14.00">[task] kubeinit.kubeinit.kubeinit_apps : Wait until pods are running</text>
</a>
</g>
</g>
<!-- task&#45;post&#45;deployment&#45;&gt;task_c3f14564&#45;3ad2&#45;409c&#45;8673&#45;2b325262ed3e -->
<g id="edge_9faeef9e&#45;93f6&#45;4f0e&#45;8488&#45;5b03a031d833" class="edge">
<title>task&#45;post&#45;deployment&#45;&gt;task_c3f14564&#45;3ad2&#45;409c&#45;8673&#45;2b325262ed3e</title>
<path fill="none" stroke="#000000" stroke-width="2" d="M394.06,-489.36C399.15,-432.92 423.15,-260.87 529.37,-190.62 627.5,-125.71 1350.18,-151.12 1741.65,-170.09"/>
<polygon fill="#000000" stroke="#000000" stroke-width="2" points="1741.54,-173.59 1751.69,-170.58 1741.88,-166.6 1741.54,-173.59"/>
<text text-anchor="middle" x="997.87" y="-194.42" font-family="Times,serif" font-size="14.00" fill="#000000">15</text>
</g>
<!-- task_2e6bfe76&#45;168c&#45;4876&#45;9f4e&#45;66b956bc2240 -->
<g id="task_2e6bfe76&#45;168c&#45;4876&#45;9f4e&#45;66b956bc2240" class="node">
<title>task_2e6bfe76&#45;168c&#45;4876&#45;9f4e&#45;66b956bc2240</title>
<g id="a_task_2e6bfe76&#45;168c&#45;4876&#45;9f4e&#45;66b956bc2240"><a xlink:title="[task] kubeinit.kubeinit.kubeinit_apps : Delete the sampleapp">
<polygon fill="none" stroke="black" points="2313.58,-122.17 2313.58,-137.08 2125.78,-147.62 1860.2,-147.62 1672.41,-137.08 1672.41,-122.17 1860.2,-111.62 2125.78,-111.62 2313.58,-122.17"/>
<text text-anchor="middle" x="1992.99" y="-125.92" font-family="Times,serif" font-size="14.00">[task] kubeinit.kubeinit.kubeinit_apps : Delete the sampleapp</text>
</a>
</g>
</g>
<!-- task&#45;post&#45;deployment&#45;&gt;task_2e6bfe76&#45;168c&#45;4876&#45;9f4e&#45;66b956bc2240 -->
<g id="edge_fb536ac9&#45;00a2&#45;48ee&#45;9427&#45;ca7c67239e59" class="edge">
<title>task&#45;post&#45;deployment&#45;&gt;task_2e6bfe76&#45;168c&#45;4876&#45;9f4e&#45;66b956bc2240</title>
<path fill="none" stroke="#000000" stroke-width="2" d="M392.69,-489.6C393.52,-426.76 405.72,-216.41 529.37,-129.62 575.75,-97.06 1268.93,-109.92 1684.11,-120.68"/>
<polygon fill="#000000" stroke="#000000" stroke-width="2" points="1684.08,-124.18 1694.17,-120.94 1684.27,-117.18 1684.08,-124.18"/>
<text text-anchor="middle" x="997.87" y="-133.42" font-family="Times,serif" font-size="14.00" fill="#000000">16</text>
</g>
<!-- task_2029d921&#45;23a5&#45;4b20&#45;a897&#45;f7da21180167 -->
<g id="task_2029d921&#45;23a5&#45;4b20&#45;a897&#45;f7da21180167" class="node">
<title>task_2029d921&#45;23a5&#45;4b20&#45;a897&#45;f7da21180167</title>
<g id="a_task_2029d921&#45;23a5&#45;4b20&#45;a897&#45;f7da21180167"><a xlink:title="[task] kubeinit.kubeinit.kubeinit_kubevirt : Install KubeVirt">
<polygon fill="none" stroke="black" points="2302.57,-68.17 2302.57,-83.08 2121.22,-93.62 1864.76,-93.62 1683.42,-83.08 1683.42,-68.17 1864.76,-57.62 2121.22,-57.62 2302.57,-68.17"/>
<text text-anchor="middle" x="1992.99" y="-71.92" font-family="Times,serif" font-size="14.00">[task] kubeinit.kubeinit.kubeinit_kubevirt : Install KubeVirt</text>
</a>
</g>
</g>
<!-- task&#45;post&#45;deployment&#45;&gt;task_2029d921&#45;23a5&#45;4b20&#45;a897&#45;f7da21180167 -->
<g id="edge_7b97294b&#45;b3c9&#45;411a&#45;b2a6&#45;b2d12ffcfde6" class="edge">
<title>task&#45;post&#45;deployment&#45;&gt;task_2029d921&#45;23a5&#45;4b20&#45;a897&#45;f7da21180167</title>
<path fill="none" stroke="#000000" stroke-width="2" d="M392.03,-489.23C390.46,-421.94 395.11,-187.98 529.37,-89.62 735.73,61.56 1523.21,-16.55 1849.29,-56.68"/>
<polygon fill="#000000" stroke="#000000" stroke-width="2" points="1848.92,-60.16 1859.27,-57.92 1849.78,-53.22 1848.92,-60.16"/>
<text text-anchor="middle" x="997.87" y="-93.42" font-family="Times,serif" font-size="14.00" fill="#000000">17</text>
</g>
</g>
</svg>
