<?xml version='1.0' encoding='UTF-8'?>
<!DOCTYPE svg PUBLIC "-//W3C//DTD SVG 1.1//EN" "http://www.w3.org/Graphics/SVG/1.1/DTD/svg11.dtd">
<!-- Generated by graphviz version 2.40.1 (20161225.0304)
 --><!-- Title: ./playbooks/submariner.yml  Pages: 1 --><svg xmlns="http://www.w3.org/2000/svg" xmlns:xlink="http://www.w3.org/1999/xlink" width="2251pt" height="1115pt" viewBox="0.00 0.00 2251.50 1115.39" id="svg">
<script type="text/javascript" href="https://ajax.googleapis.com/ajax/libs/jquery/3.2.1/jquery.min.js" id="jquery"/><script type="text/javascript" id="my_javascript"><![CDATA[const HOVER_CLASS = "my_hover";

var selectedElement = null;

function addClass(rootElement) {
    $(rootElement).find('link').each(function (index, element) {
        var target = $(element).attr('target');
        var currentElement = $('#' + target);
        currentElement.addClass(HOVER_CLASS);

        addClass(currentElement);
    })
}

function removeClass(rootElement, hover) {
    $(rootElement).find('link').each(function (index, element) {
        if ($(rootElement).attr('id') !== $(selectedElement).attr('id') || !hover) {
            var target = $(element).attr('target');
            var currentElement = $('#' + target);
            currentElement.removeClass(HOVER_CLASS);

            removeClass(currentElement);
        }

    })
}

function hoverIn(event) {
    addClass(event.currentTarget);
}

function hoverOut(event) {
    removeClass(event.currentTarget, true);
}

function clickOnElement(event) {
    var newElement = event.currentTarget;

    if ($(newElement).attr('id') === $(selectedElement).attr('id')) {
        removeClass(selectedElement, false);
    } else {
        removeClass(selectedElement);
        addClass(newElement)
    }

    selectedElement = newElement;
}


$("#svg").ready(function () {

    $("g[id^=play_]").hover(hoverIn, hoverOut);
    $("g[id^=role_]").hover(hoverIn, hoverOut);

    $("g[id^=play_]").click(clickOnElement);
    $("g[id^=role_]").click(clickOnElement);

});
]]></script><style type="text/css" id="my_css"><![CDATA[.node:hover, .edge:hover, path:hover, path + polygon:hover {
    cursor: pointer;
    stroke-width: 3;
    font-weight: bolder;
}

.my_hover {
    cursor: pointer;
    stroke-width: 3;
    font-weight: bolder;
}
]]></style><g id="graph0" class="graph" transform="scale(1 1) rotate(0) translate(4 1111.3874)">
<title>./playbooks/submariner.yml </title>
<polygon fill="#ffffff" stroke="transparent" points="-4,4 -4,-1111.3874 2247.4971,-1111.3874 2247.4971,4 -4,4"/>
<!-- ./playbooks/submariner.yml -->
<g id="root_node" class="node">
<title>./playbooks/submariner.yml</title>
<ellipse fill="none" stroke="#000000" stroke-dasharray="1,5" cx="110.4902" cy="-563.3874" rx="110.4804" ry="18"/>
<text text-anchor="middle" x="110.4902" y="-559.6874" font-family="Times,serif" font-size="14.00" fill="#000000">./playbooks/submariner.yml</text>
</g>
<!-- Play #1: Main deployment playbook for integrating submariner (0) -->
<g id="play_3624ee13-0ae2-4ffa-819c-efb2d8ddfe26" class="node">
<title>Play #1: Main deployment playbook for integrating submariner (0)</title>
<polygon fill="#7000db" stroke="#7000db" points="646.9804,-581.3874 263.9804,-581.3874 263.9804,-545.3874 646.9804,-545.3874 646.9804,-581.3874"/>
<text text-anchor="middle" x="455.4804" y="-559.6874" font-family="Times,serif" font-size="14.00" fill="#ffffff">Play #1: Main deployment playbook for integrating submariner (0)</text>
<links><link target="edge_0d25a5a8-6ce8-4ef3-85a1-b26dbd04e781"/><link target="edge_c297c9b8-c34e-47b7-beca-9a7cf2ef5bb1"/><link target="edge_ade470f4-d7f2-4004-a40c-fa976ade8d35"/><link target="edge_8da5e5f7-87bb-4285-91bc-d47739b7c36b"/><link target="edge_3a7aa0c6-a097-4c0c-8d2d-ace096a2184b"/><link target="edge_335e478b-6769-4269-b333-9e4021a4583d"/><link target="edge_69a14418-9890-4bb6-82df-d1a1a672a6f7"/><link target="edge_b38457c9-df0b-4c14-87c1-1cd517860d21"/><link target="edge_b7a3169e-3268-4800-8668-29bcd27c2669"/><link target="edge_90d1cb5d-94cd-4158-bb70-9ae7488c1cae"/><link target="edge_b13c9bbc-21d8-44ac-8ad9-ab9d1cffaf3c"/><link target="edge_c0e3948a-0bb1-4536-ae1b-6a5b5db654eb"/><link target="edge_bc0014f1-2202-4718-8798-492a87597069"/><link target="edge_6af839be-1a65-452a-9873-c8871c54670a"/><link target="edge_acaa93a6-2771-47f7-a969-e32a63112459"/><link target="edge_35c5eabc-0363-477c-84e4-b4ba95bd8f4c"/><link target="edge_a99b57e1-8a8f-4c3f-a238-6f5313b87958"/><link target="edge_1ee0a8a1-a092-4f2f-87e6-23cd68894142"/><link target="edge_8c9a5a43-8026-477d-a743-3f5f023643fc"/><link target="edge_ec0c0b2e-0d1f-4927-834c-129882f009e6"/></links></g>
<!-- ./playbooks/submariner.yml&#45;&gt;Play #1: Main deployment playbook for integrating submariner (0) -->
<g id="edge_b3525c18-d4b8-4227-a0b6-024db5a0375c" class="edge">
<title>./playbooks/submariner.yml-&gt;Play #1: Main deployment playbook for integrating submariner (0)</title>
<path fill="none" stroke="#7000db" stroke-width="2" d="M221.0708,-563.3874C231.6334,-563.3874 242.5531,-563.3874 253.6394,-563.3874"/>
<polygon fill="#7000db" stroke="#7000db" stroke-width="2" points="253.8622,-566.8875 263.8622,-563.3874 253.8621,-559.8875 253.8622,-566.8875"/>
<text text-anchor="middle" x="242.4804" y="-567.1874" font-family="Times,serif" font-size="14.00" fill="#7000db">1</text>
</g>
<!-- pre_task_6e748eee&#45;3f01&#45;45fd&#45;b849&#45;8ed8b8b6469a -->
<g id="pre_task_6e748eee-3f01-45fd-b849-8ed8b8b6469a" class="node">
<title>pre_task_6e748eee-3f01-45fd-b849-8ed8b8b6469a</title>
<polygon fill="none" stroke="#000000" points="2037.916,-1068.9315 2037.916,-1083.8432 1903.6671,-1094.3874 1713.8104,-1094.3874 1579.5615,-1083.8432 1579.5615,-1068.9315 1713.8104,-1058.3874 1903.6671,-1058.3874 2037.916,-1068.9315"/>
<text text-anchor="middle" x="1808.7388" y="-1072.6874" font-family="Times,serif" font-size="14.00" fill="#000000">[pre_task] Check if Ansible meets version requirements.</text>
</g>
<!-- Play #1: Main deployment playbook for integrating submariner (0)&#45;&gt;pre_task_6e748eee&#45;3f01&#45;45fd&#45;b849&#45;8ed8b8b6469a -->
<g id="edge_0d25a5a8-6ce8-4ef3-85a1-b26dbd04e781" class="edge">
<title>Play #1: Main deployment playbook for integrating submariner (0)-&gt;pre_task_6e748eee-3f01-45fd-b849-8ed8b8b6469a</title>
<path fill="none" stroke="#7000db" stroke-width="2" d="M456.5966,-581.482C462.2703,-655.8716 494.7885,-939.6024 664.9804,-1054.3874 738.6872,-1104.0985 1268.8267,-1095.0327 1580.8497,-1085.0922"/>
<polygon fill="#7000db" stroke="#7000db" stroke-width="2" points="1581.0539,-1088.5876 1590.9363,-1084.7682 1580.829,-1081.5912 1581.0539,-1088.5876"/>
<text text-anchor="middle" x="1010.4804" y="-1096.1874" font-family="Times,serif" font-size="14.00" fill="#7000db">1</text>
<links><link target="pre_task_6e748eee-3f01-45fd-b849-8ed8b8b6469a"/></links></g>
<!-- task_f005d3ae&#45;4c74&#45;412e&#45;9c67&#45;ff836da165d8 -->
<g id="task_f005d3ae-4c74-412e-9c67-ff836da165d8" class="node">
<title>task_f005d3ae-4c74-412e-9c67-ff836da165d8</title>
<polygon fill="none" stroke="#000000" points="1867.9257,-1014.9315 1867.9257,-1029.8432 1833.2548,-1040.3874 1784.2228,-1040.3874 1749.5519,-1029.8432 1749.5519,-1014.9315 1784.2228,-1004.3874 1833.2548,-1004.3874 1867.9257,-1014.9315"/>
<text text-anchor="middle" x="1808.7388" y="-1018.6874" font-family="Times,serif" font-size="14.00" fill="#000000">[task] debug</text>
</g>
<!-- Play #1: Main deployment playbook for integrating submariner (0)&#45;&gt;task_f005d3ae&#45;4c74&#45;412e&#45;9c67&#45;ff836da165d8 -->
<g id="edge_c297c9b8-c34e-47b7-beca-9a7cf2ef5bb1" class="edge">
<title>Play #1: Main deployment playbook for integrating submariner (0)-&gt;task_f005d3ae-4c74-412e-9c67-ff836da165d8</title>
<path fill="none" stroke="#7000db" stroke-width="2" d="M457.6682,-581.799C467.0305,-651.3419 510.577,-899.0981 664.9804,-998.3874 755.0513,-1056.3076 1505.1233,-1033.6709 1739.2259,-1025.1007"/>
<polygon fill="#7000db" stroke="#7000db" stroke-width="2" points="1739.4565,-1028.5947 1749.3206,-1024.7282 1739.1983,-1021.5995 1739.4565,-1028.5947"/>
<text text-anchor="middle" x="1010.4804" y="-1040.1874" font-family="Times,serif" font-size="14.00" fill="#7000db">2</text>
<links><link target="task_f005d3ae-4c74-412e-9c67-ff836da165d8"/></links></g>
<!-- task_7cbb6e82&#45;5074&#45;46f4&#45;9079&#45;e1ebd4165b18 -->
<g id="task_7cbb6e82-5074-46f4-9079-e1ebd4165b18" class="node">
<title>task_7cbb6e82-5074-46f4-9079-e1ebd4165b18</title>
<polygon fill="none" stroke="#000000" points="2132.859,-960.9315 2132.859,-975.8432 1942.9937,-986.3874 1674.4838,-986.3874 1484.6186,-975.8432 1484.6186,-960.9315 1674.4838,-950.3874 1942.9937,-950.3874 2132.859,-960.9315"/>
<text text-anchor="middle" x="1808.7388" y="-964.6874" font-family="Times,serif" font-size="14.00" fill="#000000">[task] ../../roles/kubeinit_submariner : Gather variables for each operating system</text>
</g>
<!-- Play #1: Main deployment playbook for integrating submariner (0)&#45;&gt;task_7cbb6e82&#45;5074&#45;46f4&#45;9079&#45;e1ebd4165b18 -->
<g id="edge_ade470f4-d7f2-4004-a40c-fa976ade8d35" class="edge">
<title>Play #1: Main deployment playbook for integrating submariner (0)-&gt;task_7cbb6e82-5074-46f4-9079-e1ebd4165b18</title>
<path fill="none" stroke="#7000db" stroke-width="2" d="M458.9587,-581.6524C472.1717,-645.3124 525.7311,-858.1053 664.9804,-942.3874 734.3195,-984.3555 1180.2237,-983.3754 1494.3022,-977.1534"/>
<polygon fill="#7000db" stroke="#7000db" stroke-width="2" points="1494.5588,-980.649 1504.4865,-976.9489 1494.4182,-973.6504 1494.5588,-980.649"/>
<text text-anchor="middle" x="1010.4804" y="-983.1874" font-family="Times,serif" font-size="14.00" fill="#7000db">3</text>
<links><link target="task_7cbb6e82-5074-46f4-9079-e1ebd4165b18"/></links></g>
<!-- task_6766a8f8&#45;de35&#45;4e32&#45;85ed&#45;41b87ef15882 -->
<g id="task_6766a8f8-de35-4e32-85ed-41b87ef15882" class="node">
<title>task_6766a8f8-de35-4e32-85ed-41b87ef15882</title>
<polygon fill="none" stroke="#000000" points="2017.6133,-906.9315 2017.6133,-921.8432 1895.2574,-932.3874 1722.2201,-932.3874 1599.8642,-921.8432 1599.8642,-906.9315 1722.2201,-896.3874 1895.2574,-896.3874 2017.6133,-906.9315"/>
<text text-anchor="middle" x="1808.7388" y="-910.6874" font-family="Times,serif" font-size="14.00" fill="#000000">[task] ../../roles/kubeinit_submariner : Install subctl</text>
</g>
<!-- Play #1: Main deployment playbook for integrating submariner (0)&#45;&gt;task_6766a8f8&#45;de35&#45;4e32&#45;85ed&#45;41b87ef15882 -->
<g id="edge_8da5e5f7-87bb-4285-91bc-d47739b7c36b" class="edge">
<title>Play #1: Main deployment playbook for integrating submariner (0)-&gt;task_6766a8f8-de35-4e32-85ed-41b87ef15882</title>
<path fill="none" stroke="#7000db" stroke-width="2" d="M460.71,-581.783C478.2069,-639.437 540.7261,-816.8947 664.9804,-886.3874 743.2253,-930.148 1279.9602,-926.1117 1589.5856,-919.9298"/>
<polygon fill="#7000db" stroke="#7000db" stroke-width="2" points="1589.6636,-923.4291 1599.5909,-919.7278 1589.5222,-916.4305 1589.6636,-923.4291"/>
<text text-anchor="middle" x="1010.4804" y="-927.1874" font-family="Times,serif" font-size="14.00" fill="#7000db">4  [when: kubeinit_submariner_is_broker|bool or kubeinit_submariner_is_secondary|bool]</text>
<links><link target="task_6766a8f8-de35-4e32-85ed-41b87ef15882"/></links></g>
<!-- task_d3987f20&#45;cbf2&#45;4fe4&#45;885d&#45;71d79069b0b7 -->
<g id="task_d3987f20-cbf2-4fe4-885d-71d79069b0b7" class="node">
<title>task_d3987f20-cbf2-4fe4-885d-71d79069b0b7</title>
<polygon fill="none" stroke="#000000" points="2063.9744,-852.9315 2063.9744,-867.8432 1914.4608,-878.3874 1703.0167,-878.3874 1553.5031,-867.8432 1553.5031,-852.9315 1703.0167,-842.3874 1914.4608,-842.3874 2063.9744,-852.9315"/>
<text text-anchor="middle" x="1808.7388" y="-856.6874" font-family="Times,serif" font-size="14.00" fill="#000000">[task] ../../roles/kubeinit_submariner : Check if ~/.profile exists</text>
</g>
<!-- Play #1: Main deployment playbook for integrating submariner (0)&#45;&gt;task_d3987f20&#45;cbf2&#45;4fe4&#45;885d&#45;71d79069b0b7 -->
<g id="edge_3a7aa0c6-a097-4c0c-8d2d-ace096a2184b" class="edge">
<title>Play #1: Main deployment playbook for integrating submariner (0)-&gt;task_d3987f20-cbf2-4fe4-885d-71d79069b0b7</title>
<path fill="none" stroke="#7000db" stroke-width="2" d="M462.8772,-581.7C484.6935,-632.918 554.2708,-777.5324 664.9804,-833.3874 741.1,-871.791 1229.6131,-870.8258 1543.0977,-866.0256"/>
<polygon fill="#7000db" stroke="#7000db" stroke-width="2" points="1543.3029,-869.5229 1553.2473,-865.8679 1543.1941,-862.5238 1543.3029,-869.5229"/>
<text text-anchor="middle" x="1010.4804" y="-871.1874" font-family="Times,serif" font-size="14.00" fill="#7000db">5  [when: kubeinit_submariner_is_broker|bool or kubeinit_submariner_is_secondary|bool]</text>
<links><link target="task_d3987f20-cbf2-4fe4-885d-71d79069b0b7"/></links></g>
<!-- task_34d6e302&#45;c988&#45;4e1f&#45;86fa&#45;87f8e0d866a4 -->
<g id="task_34d6e302-c988-4e1f-86fa-87f8e0d866a4" class="node">
<title>task_34d6e302-c988-4e1f-86fa-87f8e0d866a4</title>
<polygon fill="none" stroke="#000000" points="2080.7422,-798.9315 2080.7422,-813.8432 1921.4063,-824.3874 1696.0713,-824.3874 1536.7353,-813.8432 1536.7353,-798.9315 1696.0713,-788.3874 1921.4063,-788.3874 2080.7422,-798.9315"/>
<text text-anchor="middle" x="1808.7388" y="-802.6874" font-family="Times,serif" font-size="14.00" fill="#000000">[task] ../../roles/kubeinit_submariner : Append subctl path to profile</text>
</g>
<!-- Play #1: Main deployment playbook for integrating submariner (0)&#45;&gt;task_34d6e302&#45;c988&#45;4e1f&#45;86fa&#45;87f8e0d866a4 -->
<g id="edge_335e478b-6769-4269-b333-9e4021a4583d" class="edge">
<title>Play #1: Main deployment playbook for integrating submariner (0)-&gt;task_34d6e302-c988-4e1f-86fa-87f8e0d866a4</title>
<path fill="none" stroke="#7000db" stroke-width="2" d="M465.6877,-581.6476C491.8626,-626.358 566.3141,-740.8373 664.9804,-784.3874 741.5393,-818.1795 1213.0643,-817.0118 1526.296,-812.2702"/>
<polygon fill="#7000db" stroke="#7000db" stroke-width="2" points="1526.4982,-815.7676 1536.4432,-812.1145 1526.3907,-808.7685 1526.4982,-815.7676"/>
<text text-anchor="middle" x="1010.4804" y="-818.1874" font-family="Times,serif" font-size="14.00" fill="#7000db">6  [when: profile_exists.stat.exists and (kubeinit_submariner_is_broker|bool or kubeinit_submariner_is_secondary|bool)]</text>
<links><link target="task_34d6e302-c988-4e1f-86fa-87f8e0d866a4"/></links></g>
<!-- task_d0116b65&#45;3138&#45;402b&#45;835f&#45;763160fea5cd -->
<g id="task_d0116b65-3138-402b-835f-763160fea5cd" class="node">
<title>task_d0116b65-3138-402b-835f-763160fea5cd</title>
<polygon fill="none" stroke="#000000" points="2086.4979,-744.9315 2086.4979,-759.8432 1923.7904,-770.3874 1693.6872,-770.3874 1530.9796,-759.8432 1530.9796,-744.9315 1693.6872,-734.3874 1923.7904,-734.3874 2086.4979,-744.9315"/>
<text text-anchor="middle" x="1808.7388" y="-748.6874" font-family="Times,serif" font-size="14.00" fill="#000000">[task] ../../roles/kubeinit_submariner : Check if ~/.bash_profile exists</text>
</g>
<!-- Play #1: Main deployment playbook for integrating submariner (0)&#45;&gt;task_d0116b65&#45;3138&#45;402b&#45;835f&#45;763160fea5cd -->
<g id="edge_69a14418-9890-4bb6-82df-d1a1a672a6f7" class="edge">
<title>Play #1: Main deployment playbook for integrating submariner (0)-&gt;task_d0116b65-3138-402b-835f-763160fea5cd</title>
<path fill="none" stroke="#7000db" stroke-width="2" d="M472.0518,-581.4701C504.8937,-615.8448 582.2525,-689.7412 664.9804,-718.3874 823.1954,-773.1724 1268.9432,-770.5518 1554.9752,-762.3707"/>
<polygon fill="#7000db" stroke="#7000db" stroke-width="2" points="1555.1879,-765.8661 1565.0821,-762.0775 1554.9848,-758.8691 1555.1879,-765.8661"/>
<text text-anchor="middle" x="1010.4804" y="-770.1874" font-family="Times,serif" font-size="14.00" fill="#7000db">7  [when: kubeinit_submariner_is_broker|bool or kubeinit_submariner_is_secondary|bool]</text>
<links><link target="task_d0116b65-3138-402b-835f-763160fea5cd"/></links></g>
<!-- task_af948297&#45;fc04&#45;4f45&#45;9fbf&#45;290c98111a6a -->
<g id="task_af948297-fc04-4f45-9fbf-290c98111a6a" class="node">
<title>task_af948297-fc04-4f45-9fbf-290c98111a6a</title>
<polygon fill="none" stroke="#000000" points="2103.2657,-690.9315 2103.2657,-705.8432 1930.7358,-716.3874 1686.7417,-716.3874 1514.2119,-705.8432 1514.2119,-690.9315 1686.7417,-680.3874 1930.7358,-680.3874 2103.2657,-690.9315"/>
<text text-anchor="middle" x="1808.7388" y="-694.6874" font-family="Times,serif" font-size="14.00" fill="#000000">[task] ../../roles/kubeinit_submariner : Append subctl path to bash_profile</text>
</g>
<!-- Play #1: Main deployment playbook for integrating submariner (0)&#45;&gt;task_af948297&#45;fc04&#45;4f45&#45;9fbf&#45;290c98111a6a -->
<g id="edge_b38457c9-df0b-4c14-87c1-1cd517860d21" class="edge">
<title>Play #1: Main deployment playbook for integrating submariner (0)-&gt;task_af948297-fc04-4f45-9fbf-290c98111a6a</title>
<path fill="none" stroke="#7000db" stroke-width="2" d="M485.3706,-581.5009C524.8559,-604.3361 597.3266,-642.5222 664.9804,-658.3874 818.2795,-694.3368 1220.1749,-701.1045 1504.0813,-701.0448"/>
<polygon fill="#7000db" stroke="#7000db" stroke-width="2" points="1504.1322,-704.5448 1514.1304,-701.0398 1504.1286,-697.5448 1504.1322,-704.5448"/>
<text text-anchor="middle" x="1010.4804" y="-703.1874" font-family="Times,serif" font-size="14.00" fill="#7000db">8  [when: bash_profile_exists.stat.exists and (kubeinit_submariner_is_broker|bool or kubeinit_submariner_is_secondary|bool)]</text>
<links><link target="task_af948297-fc04-4f45-9fbf-290c98111a6a"/></links></g>
<!-- task_be1de3ad&#45;6344&#45;4cf3&#45;a6c3&#45;01b7fc68cf1e -->
<g id="task_be1de3ad-6344-4cf3-a6c3-01b7fc68cf1e" class="node">
<title>task_be1de3ad-6344-4cf3-a6c3-01b7fc68cf1e</title>
<polygon fill="none" stroke="#000000" points="2063.5674,-636.9315 2063.5674,-651.8432 1914.2923,-662.3874 1703.1853,-662.3874 1553.9101,-651.8432 1553.9101,-636.9315 1703.1853,-626.3874 1914.2923,-626.3874 2063.5674,-636.9315"/>
<text text-anchor="middle" x="1808.7388" y="-640.6874" font-family="Times,serif" font-size="14.00" fill="#000000">[task] ../../roles/kubeinit_submariner : Check if ~/.bashrc exists</text>
</g>
<!-- Play #1: Main deployment playbook for integrating submariner (0)&#45;&gt;task_be1de3ad&#45;6344&#45;4cf3&#45;a6c3&#45;01b7fc68cf1e -->
<g id="edge_b7a3169e-3268-4800-8668-29bcd27c2669" class="edge">
<title>Play #1: Main deployment playbook for integrating submariner (0)-&gt;task_be1de3ad-6344-4cf3-a6c3-01b7fc68cf1e</title>
<path fill="none" stroke="#7000db" stroke-width="2" d="M544.8364,-581.3932C581.8619,-588.1616 625.3419,-595.22 664.9804,-599.3874 964.9994,-630.9297 1311.3907,-640.8871 1543.6592,-643.7674"/>
<polygon fill="#7000db" stroke="#7000db" stroke-width="2" points="1543.9005,-647.2705 1553.9419,-643.8913 1543.9848,-640.271 1543.9005,-647.2705"/>
<text text-anchor="middle" x="1010.4804" y="-643.1874" font-family="Times,serif" font-size="14.00" fill="#7000db">9  [when: kubeinit_submariner_is_broker|bool or kubeinit_submariner_is_secondary|bool]</text>
<links><link target="task_be1de3ad-6344-4cf3-a6c3-01b7fc68cf1e"/></links></g>
<!-- task_fa718712&#45;3a2c&#45;4b59&#45;a3fe&#45;19ba7129efea -->
<g id="task_fa718712-3a2c-4b59-a3fe-19ba7129efea" class="node">
<title>task_fa718712-3a2c-4b59-a3fe-19ba7129efea</title>
<polygon fill="none" stroke="#000000" points="2080.335,-582.9315 2080.335,-597.8432 1921.2376,-608.3874 1696.2399,-608.3874 1537.1425,-597.8432 1537.1425,-582.9315 1696.2399,-572.3874 1921.2376,-572.3874 2080.335,-582.9315"/>
<text text-anchor="middle" x="1808.7388" y="-586.6874" font-family="Times,serif" font-size="14.00" fill="#000000">[task] ../../roles/kubeinit_submariner : Append subctl path to bashrc</text>
</g>
<!-- Play #1: Main deployment playbook for integrating submariner (0)&#45;&gt;task_fa718712&#45;3a2c&#45;4b59&#45;a3fe&#45;19ba7129efea -->
<g id="edge_90d1cb5d-94cd-4158-bb70-9ae7488c1cae" class="edge">
<title>Play #1: Main deployment playbook for integrating submariner (0)-&gt;task_fa718712-3a2c-4b59-a3fe-19ba7129efea</title>
<path fill="none" stroke="#7000db" stroke-width="2" d="M647.2151,-567.2128C876.8577,-571.7946 1263.4901,-579.5086 1527.0765,-584.7677"/>
<polygon fill="#7000db" stroke="#7000db" stroke-width="2" points="1527.1151,-588.269 1537.1829,-584.9693 1527.2548,-581.2704 1527.1151,-588.269"/>
<text text-anchor="middle" x="1010.4804" y="-584.1874" font-family="Times,serif" font-size="14.00" fill="#7000db">10  [when: bashrc_exists.stat.exists and (kubeinit_submariner_is_broker|bool or kubeinit_submariner_is_secondary|bool)]</text>
<links><link target="task_fa718712-3a2c-4b59-a3fe-19ba7129efea"/></links></g>
<!-- task_76eaf34e&#45;fd26&#45;4662&#45;8839&#45;e55e7f11a495 -->
<g id="task_76eaf34e-fd26-4662-8839-e55e7f11a495" class="node">
<title>task_76eaf34e-fd26-4662-8839-e55e7f11a495</title>
<polygon fill="none" stroke="#000000" points="2105.4865,-528.9315 2105.4865,-543.8432 1931.6557,-554.3874 1685.8218,-554.3874 1511.991,-543.8432 1511.991,-528.9315 1685.8218,-518.3874 1931.6557,-518.3874 2105.4865,-528.9315"/>
<text text-anchor="middle" x="1808.7388" y="-532.6874" font-family="Times,serif" font-size="14.00" fill="#000000">[task] ../../roles/kubeinit_submariner : Render the iptables persist template</text>
</g>
<!-- Play #1: Main deployment playbook for integrating submariner (0)&#45;&gt;task_76eaf34e&#45;fd26&#45;4662&#45;8839&#45;e55e7f11a495 -->
<g id="edge_b13c9bbc-21d8-44ac-8ad9-ab9d1cffaf3c" class="edge">
<title>Play #1: Main deployment playbook for integrating submariner (0)-&gt;task_76eaf34e-fd26-4662-8839-e55e7f11a495</title>
<path fill="none" stroke="#7000db" stroke-width="2" d="M647.257,-549.1861C653.2318,-548.8942 659.1509,-548.6264 664.9804,-548.3874 948.221,-536.7725 1271.2264,-534.3798 1501.5753,-534.5358"/>
<polygon fill="#7000db" stroke="#7000db" stroke-width="2" points="1501.7837,-538.0359 1511.7867,-534.5444 1501.7897,-531.0359 1501.7837,-538.0359"/>
<text text-anchor="middle" x="1010.4804" y="-552.1874" font-family="Times,serif" font-size="14.00" fill="#7000db">11  [when: kubeinit_submariner_is_broker|bool]</text>
<links><link target="task_76eaf34e-fd26-4662-8839-e55e7f11a495"/></links></g>
<!-- task_bf5c8b51&#45;3dbb&#45;47ac&#45;b854&#45;2a7a5c77e8f0 -->
<g id="task_bf5c8b51-3dbb-47ac-b854-2a7a5c77e8f0" class="node">
<title>task_bf5c8b51-3dbb-47ac-b854-2a7a5c77e8f0</title>
<polygon fill="none" stroke="#000000" points="2200.4295,-474.9315 2200.4295,-489.8432 1970.9824,-500.3874 1646.4952,-500.3874 1417.048,-489.8432 1417.048,-474.9315 1646.4952,-464.3874 1970.9824,-464.3874 2200.4295,-474.9315"/>
<text text-anchor="middle" x="1808.7388" y="-478.6874" font-family="Times,serif" font-size="14.00" fill="#000000">[task] ../../roles/kubeinit_submariner : Make sure there the traffic is allowed from/to the cluster net</text>
</g>
<!-- Play #1: Main deployment playbook for integrating submariner (0)&#45;&gt;task_bf5c8b51&#45;3dbb&#45;47ac&#45;b854&#45;2a7a5c77e8f0 -->
<g id="edge_c0e3948a-0bb1-4536-ae1b-6a5b5db654eb" class="edge">
<title>Play #1: Main deployment playbook for integrating submariner (0)-&gt;task_bf5c8b51-3dbb-47ac-b854-2a7a5c77e8f0</title>
<path fill="none" stroke="#7000db" stroke-width="2" d="M519.5399,-545.2687C560.7182,-534.4808 615.5677,-521.6986 664.9804,-515.3874 911.5684,-483.892 1190.3806,-475.3027 1410.9907,-474.7512"/>
<polygon fill="#7000db" stroke="#7000db" stroke-width="2" points="1411.128,-478.251 1421.1211,-474.7314 1411.1142,-471.2511 1411.128,-478.251"/>
<text text-anchor="middle" x="1010.4804" y="-519.1874" font-family="Times,serif" font-size="14.00" fill="#7000db">12  [when: kubeinit_submariner_is_broker|bool]</text>
<links><link target="task_bf5c8b51-3dbb-47ac-b854-2a7a5c77e8f0"/></links></g>
<!-- task_4cd6c09a&#45;d7dd&#45;4da3&#45;8e00&#45;6e1b383797ae -->
<g id="task_4cd6c09a-d7dd-4da3-8e00-6e1b383797ae" class="node">
<title>task_4cd6c09a-d7dd-4da3-8e00-6e1b383797ae</title>
<polygon fill="none" stroke="#000000" points="2062.6604,-420.9315 2062.6604,-435.8432 1913.9165,-446.3874 1703.561,-446.3874 1554.8172,-435.8432 1554.8172,-420.9315 1703.561,-410.3874 1913.9165,-410.3874 2062.6604,-420.9315"/>
<text text-anchor="middle" x="1808.7388" y="-424.6874" font-family="Times,serif" font-size="14.00" fill="#000000">[task] ../../roles/kubeinit_submariner : Configure broker cluster</text>
</g>
<!-- Play #1: Main deployment playbook for integrating submariner (0)&#45;&gt;task_4cd6c09a&#45;d7dd&#45;4da3&#45;8e00&#45;6e1b383797ae -->
<g id="edge_bc0014f1-2202-4718-8798-492a87597069" class="edge">
<title>Play #1: Main deployment playbook for integrating submariner (0)-&gt;task_4cd6c09a-d7dd-4da3-8e00-6e1b383797ae</title>
<path fill="none" stroke="#7000db" stroke-width="2" d="M481.0394,-545.2976C519.0308,-519.5919 593.6103,-473.5953 664.9804,-455.3874 824.99,-414.5657 1259.6707,-415.3826 1544.7059,-420.9694"/>
<polygon fill="#7000db" stroke="#7000db" stroke-width="2" points="1544.7139,-424.4702 1554.7817,-421.1701 1544.8534,-417.4716 1544.7139,-424.4702"/>
<text text-anchor="middle" x="1010.4804" y="-459.1874" font-family="Times,serif" font-size="14.00" fill="#7000db">13  [when: kubeinit_submariner_is_broker|bool]</text>
<links><link target="task_4cd6c09a-d7dd-4da3-8e00-6e1b383797ae"/></links></g>
<!-- task_26895c40&#45;de47&#45;4773&#45;8882&#45;59f31e165989 -->
<g id="task_26895c40-de47-4773-8882-59f31e165989" class="node">
<title>task_26895c40-de47-4773-8882-59f31e165989</title>
<polygon fill="none" stroke="#000000" points="2140.8357,-366.9315 2140.8357,-381.8432 1946.2978,-392.3874 1671.1797,-392.3874 1476.6418,-381.8432 1476.6418,-366.9315 1671.1797,-356.3874 1946.2978,-356.3874 2140.8357,-366.9315"/>
<text text-anchor="middle" x="1808.7388" y="-370.6874" font-family="Times,serif" font-size="14.00" fill="#000000">[task] ../../roles/kubeinit_submariner : Copy the broker-info.subm to the hypervisor</text>
</g>
<!-- Play #1: Main deployment playbook for integrating submariner (0)&#45;&gt;task_26895c40&#45;de47&#45;4773&#45;8882&#45;59f31e165989 -->
<g id="edge_6af839be-1a65-452a-9873-c8871c54670a" class="edge">
<title>Play #1: Main deployment playbook for integrating submariner (0)-&gt;task_26895c40-de47-4773-8882-59f31e165989</title>
<path fill="none" stroke="#7000db" stroke-width="2" d="M470.7755,-545.2123C502.5273,-509.0448 579.773,-428.9176 664.9804,-398.3874 823.7197,-341.5103 1275.0644,-349.5253 1561.022,-361.3718"/>
<polygon fill="#7000db" stroke="#7000db" stroke-width="2" points="1560.9862,-364.8733 1571.1239,-361.7947 1561.279,-357.8794 1560.9862,-364.8733"/>
<text text-anchor="middle" x="1010.4804" y="-402.1874" font-family="Times,serif" font-size="14.00" fill="#7000db">14  [when: kubeinit_submariner_is_broker|bool]</text>
<links><link target="task_26895c40-de47-4773-8882-59f31e165989"/></links></g>
<!-- task_d3bbc81e&#45;699e&#45;49d1&#45;8abf&#45;93619b075898 -->
<g id="task_d3bbc81e-699e-49d1-8abf-93619b075898" class="node">
<title>task_d3bbc81e-699e-49d1-8abf-93619b075898</title>
<polygon fill="none" stroke="#000000" points="2116.0912,-312.9315 2116.0912,-327.8432 1936.0483,-338.3874 1681.4292,-338.3874 1501.3863,-327.8432 1501.3863,-312.9315 1681.4292,-302.3874 1936.0483,-302.3874 2116.0912,-312.9315"/>
<text text-anchor="middle" x="1808.7388" y="-316.6874" font-family="Times,serif" font-size="14.00" fill="#000000">[task] ../../roles/kubeinit_submariner : Copy the kubeconfig to the hypervisor</text>
</g>
<!-- Play #1: Main deployment playbook for integrating submariner (0)&#45;&gt;task_d3bbc81e&#45;699e&#45;49d1&#45;8abf&#45;93619b075898 -->
<g id="edge_acaa93a6-2771-47f7-a969-e32a63112459" class="edge">
<title>Play #1: Main deployment playbook for integrating submariner (0)-&gt;task_d3bbc81e-699e-49d1-8abf-93619b075898</title>
<path fill="none" stroke="#7000db" stroke-width="2" d="M464.8986,-545.3716C490.0272,-499.5191 563.7082,-378.8178 664.9804,-333.3874 740.0651,-299.7046 1197.456,-304.1912 1510.5784,-311.5392"/>
<polygon fill="#7000db" stroke="#7000db" stroke-width="2" points="1510.647,-315.0417 1520.7271,-311.7795 1510.8128,-308.0436 1510.647,-315.0417"/>
<text text-anchor="middle" x="1010.4804" y="-337.1874" font-family="Times,serif" font-size="14.00" fill="#7000db">15  [when: kubeinit_submariner_is_broker|bool or kubeinit_submariner_is_secondary|bool]</text>
<links><link target="task_d3bbc81e-699e-49d1-8abf-93619b075898"/></links></g>
<!-- task_344469cc&#45;d781&#45;42b9&#45;b0a1&#45;b4257bd7868e -->
<g id="task_344469cc-d781-42b9-b0a1-b4257bd7868e" class="node">
<title>task_344469cc-d781-42b9-b0a1-b4257bd7868e</title>
<polygon fill="none" stroke="#000000" points="2243.2556,-258.9315 2243.2556,-273.8432 1988.7215,-284.3874 1628.756,-284.3874 1374.2219,-273.8432 1374.2219,-258.9315 1628.756,-248.3874 1988.7215,-248.3874 2243.2556,-258.9315"/>
<text text-anchor="middle" x="1808.7388" y="-262.6874" font-family="Times,serif" font-size="14.00" fill="#000000">[task] ../../roles/kubeinit_submariner : Copying the broker-info.subm and kubeconfig to the destination cluster</text>
</g>
<!-- Play #1: Main deployment playbook for integrating submariner (0)&#45;&gt;task_344469cc&#45;d781&#45;42b9&#45;b0a1&#45;b4257bd7868e -->
<g id="edge_35c5eabc-0363-477c-84e4-b4ba95bd8f4c" class="edge">
<title>Play #1: Main deployment playbook for integrating submariner (0)-&gt;task_344469cc-d781-42b9-b0a1-b4257bd7868e</title>
<path fill="none" stroke="#7000db" stroke-width="2" d="M462.4094,-545.3292C483.4427,-493.4076 552.1108,-343.7744 664.9804,-286.3874 731.4695,-252.5819 1113.8111,-251.5656 1418.3976,-256.4965"/>
<polygon fill="#7000db" stroke="#7000db" stroke-width="2" points="1418.6891,-260.0016 1428.7454,-256.6667 1418.8044,-253.0026 1418.6891,-260.0016"/>
<text text-anchor="middle" x="1010.4804" y="-290.1874" font-family="Times,serif" font-size="14.00" fill="#7000db">16  [when: kubeinit_submariner_is_secondary|bool]</text>
<links><link target="task_344469cc-d781-42b9-b0a1-b4257bd7868e"/></links></g>
<!-- task_36c53315&#45;fc34&#45;446d&#45;a523&#45;616867e2c619 -->
<g id="task_36c53315-fc34-446d-a523-616867e2c619" class="node">
<title>task_36c53315-fc34-446d-a523-616867e2c619</title>
<polygon fill="none" stroke="#000000" points="2063.9744,-204.9315 2063.9744,-219.8432 1914.4608,-230.3874 1703.0167,-230.3874 1553.5031,-219.8432 1553.5031,-204.9315 1703.0167,-194.3874 1914.4608,-194.3874 2063.9744,-204.9315"/>
<text text-anchor="middle" x="1808.7388" y="-208.6874" font-family="Times,serif" font-size="14.00" fill="#000000">[task] ../../roles/kubeinit_submariner : Join cluster to the broker</text>
</g>
<!-- Play #1: Main deployment playbook for integrating submariner (0)&#45;&gt;task_36c53315&#45;fc34&#45;446d&#45;a523&#45;616867e2c619 -->
<g id="edge_a99b57e1-8a8f-4c3f-a238-6f5313b87958" class="edge">
<title>Play #1: Main deployment playbook for integrating submariner (0)-&gt;task_36c53315-fc34-446d-a523-616867e2c619</title>
<path fill="none" stroke="#7000db" stroke-width="2" d="M460.4616,-545.0464C477.4082,-486.7133 538.912,-305.1537 664.9804,-234.3874 739.5875,-192.508 1231.9687,-197.0398 1545.9047,-204.4777"/>
<polygon fill="#7000db" stroke="#7000db" stroke-width="2" points="1545.9869,-207.9806 1556.0678,-204.721 1546.1545,-200.9826 1545.9869,-207.9806"/>
<text text-anchor="middle" x="1010.4804" y="-238.1874" font-family="Times,serif" font-size="14.00" fill="#7000db">17  [when: kubeinit_submariner_is_broker|bool or kubeinit_submariner_is_secondary|bool]</text>
<links><link target="task_36c53315-fc34-446d-a523-616867e2c619"/></links></g>
<!-- task_3961bb9f&#45;5bd6&#45;4304&#45;b109&#45;11a5f7f5b657 -->
<g id="task_3961bb9f-5bd6-4304-b109-11a5f7f5b657" class="node">
<title>task_3961bb9f-5bd6-4304-b109-11a5f7f5b657</title>
<polygon fill="none" stroke="#000000" points="2033.974,-150.9315 2033.974,-165.8432 1902.0343,-176.3874 1715.4433,-176.3874 1583.5035,-165.8432 1583.5035,-150.9315 1715.4433,-140.3874 1902.0343,-140.3874 2033.974,-150.9315"/>
<text text-anchor="middle" x="1808.7388" y="-154.6874" font-family="Times,serif" font-size="14.00" fill="#000000">[task] ../../roles/kubeinit_submariner : Tag worker node</text>
</g>
<!-- Play #1: Main deployment playbook for integrating submariner (0)&#45;&gt;task_3961bb9f&#45;5bd6&#45;4304&#45;b109&#45;11a5f7f5b657 -->
<g id="edge_1ee0a8a1-a092-4f2f-87e6-23cd68894142" class="edge">
<title>Play #1: Main deployment playbook for integrating submariner (0)-&gt;task_3961bb9f-5bd6-4304-b109-11a5f7f5b657</title>
<path fill="none" stroke="#7000db" stroke-width="2" d="M458.7919,-545.3629C471.5927,-481.5483 524.3198,-265.6137 664.9804,-180.3874 740.491,-134.6354 1262.9388,-141.8281 1575.0013,-150.4884"/>
<polygon fill="#7000db" stroke="#7000db" stroke-width="2" points="1574.9978,-153.9896 1585.0919,-150.771 1575.1938,-146.9923 1574.9978,-153.9896"/>
<text text-anchor="middle" x="1010.4804" y="-184.1874" font-family="Times,serif" font-size="14.00" fill="#7000db">18  [when: kubeinit_submariner_is_broker|bool or kubeinit_submariner_is_secondary|bool]</text>
<links><link target="task_3961bb9f-5bd6-4304-b109-11a5f7f5b657"/></links></g>
<!-- task_db825a5a&#45;dba0&#45;4d5b&#45;ab52&#45;e792b11a97c5 -->
<g id="task_db825a5a-dba0-4d5b-ab52-e792b11a97c5" class="node">
<title>task_db825a5a-dba0-4d5b-ab52-e792b11a97c5</title>
<polygon fill="none" stroke="#000000" points="2068.8234,-96.9315 2068.8234,-111.8432 1916.4693,-122.3874 1701.0082,-122.3874 1548.6541,-111.8432 1548.6541,-96.9315 1701.0082,-86.3874 1916.4693,-86.3874 2068.8234,-96.9315"/>
<text text-anchor="middle" x="1808.7388" y="-100.6874" font-family="Times,serif" font-size="14.00" fill="#000000">[task] ../../roles/kubeinit_submariner : Render the netshoot script</text>
</g>
<!-- Play #1: Main deployment playbook for integrating submariner (0)&#45;&gt;task_db825a5a&#45;dba0&#45;4d5b&#45;ab52&#45;e792b11a97c5 -->
<g id="edge_8c9a5a43-8026-477d-a743-3f5f023643fc" class="edge">
<title>Play #1: Main deployment playbook for integrating submariner (0)-&gt;task_db825a5a-dba0-4d5b-ab52-e792b11a97c5</title>
<path fill="none" stroke="#7000db" stroke-width="2" d="M457.5343,-545.2742C466.5036,-475.7192 509.072,-224.6524 664.9804,-124.3874 738.1528,-77.33 1246.9952,-85.3208 1560.828,-95.0489"/>
<polygon fill="#7000db" stroke="#7000db" stroke-width="2" points="1560.8772,-98.552 1570.9817,-95.3663 1561.096,-91.5555 1560.8772,-98.552"/>
<text text-anchor="middle" x="1010.4804" y="-128.1874" font-family="Times,serif" font-size="14.00" fill="#7000db">19  [when: kubeinit_submariner_is_broker|bool or kubeinit_submariner_is_secondary|bool]</text>
<links><link target="task_db825a5a-dba0-4d5b-ab52-e792b11a97c5"/></links></g>
<!-- task_f4d9c73d&#45;1138&#45;4ab5&#45;979b&#45;4877ec637ddb -->
<g id="task_f4d9c73d-1138-4ab5-979b-4877ec637ddb" class="node">
<title>task_f4d9c73d-1138-4ab5-979b-4877ec637ddb</title>
<polygon fill="none" stroke="#000000" points="2069.7302,-42.9315 2069.7302,-57.8432 1916.845,-68.3874 1700.6326,-68.3874 1547.7473,-57.8432 1547.7473,-42.9315 1700.6326,-32.3874 1916.845,-32.3874 2069.7302,-42.9315"/>
<text text-anchor="middle" x="1808.7388" y="-46.6874" font-family="Times,serif" font-size="14.00" fill="#000000">[task] ../../roles/kubeinit_submariner : Verify cluster deployment</text>
</g>
<!-- Play #1: Main deployment playbook for integrating submariner (0)&#45;&gt;task_f4d9c73d&#45;1138&#45;4ab5&#45;979b&#45;4877ec637ddb -->
<g id="edge_ec0c0b2e-0d1f-4927-834c-129882f009e6" class="edge">
<title>Play #1: Main deployment playbook for integrating submariner (0)-&gt;task_f4d9c73d-1138-4ab5-979b-4877ec637ddb</title>
<path fill="none" stroke="#7000db" stroke-width="2" d="M456.5308,-545.1348C461.945,-470.0977 493.5816,-183.9146 664.9804,-68.3874 823.2495,38.2901 1388.6597,-5.0808 1660.586,-33.3155"/>
<polygon fill="#7000db" stroke="#7000db" stroke-width="2" points="1660.6189,-36.8379 1670.9287,-34.3968 1661.3468,-29.8759 1660.6189,-36.8379"/>
<text text-anchor="middle" x="1010.4804" y="-72.1874" font-family="Times,serif" font-size="14.00" fill="#7000db">20  [when: kubeinit_submariner_is_secondary|bool]</text>
<links><link target="task_f4d9c73d-1138-4ab5-979b-4877ec637ddb"/></links></g>
</g>
</svg>