<?xml version='1.0' encoding='UTF-8'?>
<!DOCTYPE svg PUBLIC "-//W3C//DTD SVG 1.1//EN" "http://www.w3.org/Graphics/SVG/1.1/DTD/svg11.dtd">
<!-- Generated by graphviz version 2.43.0 (0)
 --><!-- Title: ./playbooks/submariner&#45;subctl&#45;verify.yml  Pages: 1 --><svg xmlns="http://www.w3.org/2000/svg" xmlns:xlink="http://www.w3.org/1999/xlink" width="1919pt" height="807pt" viewBox="0.00 0.00 1919.12 807.41" id="svg">
<script type="text/javascript" href="https://ajax.googleapis.com/ajax/libs/jquery/3.2.1/jquery.min.js" id="jquery"/><script type="text/javascript" id="my_javascript"><![CDATA[const HOVER_CLASS = "my_hover";

var selectedElement = null;

function addClass(rootElement) {
    $(rootElement).find('link').each(function (index, element) {
        var target = $(element).attr('target');
        var currentElement = $('#' + target);
        currentElement.addClass(HOVER_CLASS);

        addClass(currentElement);
    })
}

function removeClass(rootElement, hover) {
    $(rootElement).find('link').each(function (index, element) {
        if ($(rootElement).attr('id') !== $(selectedElement).attr('id') || !hover) {
            var target = $(element).attr('target');
            var currentElement = $('#' + target);
            currentElement.removeClass(HOVER_CLASS);

            removeClass(currentElement);
        }

    })
}

function hoverIn(event) {
    addClass(event.currentTarget);
}

function hoverOut(event) {
    removeClass(event.currentTarget, true);
}

function clickOnElement(event) {
    var newElement = event.currentTarget;

    if ($(newElement).attr('id') === $(selectedElement).attr('id')) {
        removeClass(selectedElement, false);
    } else {
        removeClass(selectedElement);
        addClass(newElement)
    }

    selectedElement = newElement;
}


$("#svg").ready(function () {

    $("g[id^=play_]").hover(hoverIn, hoverOut);
    $("g[id^=role_]").hover(hoverIn, hoverOut);

    $("g[id^=play_]").click(clickOnElement);
    $("g[id^=role_]").click(clickOnElement);

});
]]></script><style type="text/css" id="my_css"><![CDATA[.node:hover, .edge:hover, path:hover, path + polygon:hover {
    cursor: pointer;
    stroke-width: 3;
    font-weight: bolder;
}

.my_hover {
    cursor: pointer;
    stroke-width: 3;
    font-weight: bolder;
}
]]></style><g id="graph0" class="graph" transform="scale(1 1) rotate(0) translate(4 803.41)">
<title>./playbooks/submariner-subctl-verify.yml </title>
<polygon fill="white" stroke="transparent" points="-4,4 -4,-803.41 1915.12,-803.41 1915.12,4 -4,4"/>
<!-- ./playbooks/submariner&#45;subctl&#45;verify.yml -->
<g id="root_node" class="node">
<title>./playbooks/submariner-subctl-verify.yml</title>
<ellipse fill="none" stroke="black" stroke-dasharray="1,5" cx="198.88" cy="-399.72" rx="198.76" ry="18"/>
<text text-anchor="middle" x="198.88" y="-396.02" font-family="Times,serif" font-size="14.00">./playbooks/submariner-subctl-verify.yml</text>
</g>
<!-- Play #1: Main deployment playbook for integrating submariner (0) -->
<g id="play_b62f9469-d553-4220-b58f-8868f4924e4a" class="node">
<title>Play #1: Main deployment playbook for integrating submariner (0)</title>
<polygon fill="#7baabd" stroke="#7baabd" points="938.76,-417.72 443.76,-417.72 443.76,-381.72 938.76,-381.72 938.76,-417.72"/>
<text text-anchor="middle" x="691.26" y="-396.02" font-family="Times,serif" font-size="14.00" fill="#000000">Play #1: Main deployment playbook for integrating submariner (0)</text>
<links><link target="edge_4e3f03d1-5e12-420b-b3f4-97daf4c5e85e"/><link target="edge_43ff51ea-58b7-4996-a093-7e23ae1ac3ec"/><link target="edge_975fda40-11ca-47fd-aaec-57965d13ba0f"/><link target="edge_309b99cc-e1b0-4b38-bae0-ed2b34eab6c8"/><link target="edge_f3a8b1b7-c1df-4039-84f4-ba155e992365"/><link target="edge_6790616f-354a-4298-aa59-dc6bf9b5622a"/><link target="edge_473321c4-f63a-4b1a-9d27-0cc418a895d6"/><link target="edge_dc3adee3-0830-4e94-a42a-ba83ce34214c"/><link target="edge_71b7f938-0377-44c8-84d2-c89174a8d33c"/><link target="edge_ca675ad9-350b-4ac6-bc99-a44306f93e45"/><link target="edge_4b74b360-99c1-4bb4-8d0d-445bc01e11c2"/><link target="edge_3f5f3e67-a67b-4b4e-a52b-6ef4a12563c7"/><link target="edge_3beb79b9-d705-4adb-b71f-98554958e1f0"/><link target="edge_8ebe7927-a743-40d8-b780-271fef0ba57b"/><link target="edge_7e929bca-69b3-4a62-9336-20d2166b61d7"/></links></g>
<!-- ./playbooks/submariner&#45;subctl&#45;verify.yml&#45;&gt;Play #1: Main deployment playbook for integrating submariner (0) -->
<g id="edge_7071b1d7-49d7-413d-b82c-04c966a7d688" class="edge">
<title>./playbooks/submariner-subctl-verify.yml-&gt;Play #1: Main deployment playbook for integrating submariner (0)</title>
<path fill="none" stroke="#7baabd" stroke-width="2" d="M397.93,-399.72C409.66,-399.72 421.54,-399.72 433.46,-399.72"/>
<polygon fill="#7baabd" stroke="#7baabd" stroke-width="2" points="433.48,-403.22 443.48,-399.72 433.48,-396.22 433.48,-403.22"/>
<text text-anchor="middle" x="420.76" y="-403.52" font-family="Times,serif" font-size="14.00" fill="#7baabd">1</text>
</g>
<!-- pre_task_0590d4f1&#45;b2fa&#45;44db&#45;bbdc&#45;40564b15557c -->
<g id="pre_task_0590d4f1-b2fa-44db-bbdc-40564b15557c" class="node">
<title>pre_task_0590d4f1-b2fa-44db-bbdc-40564b15557c</title>
<g id="a_pre_task_0590d4f1-b2fa-44db-bbdc-40564b15557c"><a xlink:title="[pre_task] Check if Ansible meets version requirements.">
<polygon fill="none" stroke="black" points="1746.56,-770.26 1746.56,-785.18 1574.27,-795.72 1330.61,-795.72 1158.32,-785.18 1158.32,-770.26 1330.61,-759.72 1574.27,-759.72 1746.56,-770.26"/>
<text text-anchor="middle" x="1452.44" y="-774.02" font-family="Times,serif" font-size="14.00">[pre_task] Check if Ansible meets version requirements.</text>
</a>
</g>
</g>
<!-- Play #1: Main deployment playbook for integrating submariner (0)&#45;&gt;pre_task_0590d4f1&#45;b2fa&#45;44db&#45;bbdc&#45;40564b15557c -->
<g id="edge_4e3f03d1-5e12-420b-b3f4-97daf4c5e85e" class="edge">
<title>Play #1: Main deployment playbook for integrating submariner (0)-&gt;pre_task_0590d4f1-b2fa-44db-bbdc-40564b15557c</title>
<path fill="none" stroke="#7baabd" stroke-width="2" d="M701.08,-417.95C731.53,-478.59 839.01,-674.04 993.76,-750.72 1094.33,-800.55 1222.97,-803.68 1318.25,-796.43"/>
<polygon fill="#7baabd" stroke="#7baabd" stroke-width="2" points="1318.55,-799.92 1328.23,-795.63 1317.98,-792.94 1318.55,-799.92"/>
<text text-anchor="middle" x="966.26" y="-742.52" font-family="Times,serif" font-size="14.00" fill="#7baabd">1</text>
<links><link target="pre_task_0590d4f1-b2fa-44db-bbdc-40564b15557c"/></links></g>
<!-- task_ab8926f4&#45;6eaf&#45;49c4&#45;9fbb&#45;9ec34b167d8f -->
<g id="task_ab8926f4-6eaf-49c4-9fbb-9ec34b167d8f" class="node">
<title>task_ab8926f4-6eaf-49c4-9fbb-9ec34b167d8f</title>
<g id="a_task_ab8926f4-6eaf-49c4-9fbb-9ec34b167d8f"><a xlink:title="[task] ../../roles/kubeinit_prepare : Gather variables for each operating system">
<polygon fill="none" stroke="black" points="1856.05,-716.26 1856.05,-731.18 1619.62,-741.72 1285.26,-741.72 1048.83,-731.18 1048.83,-716.26 1285.26,-705.72 1619.62,-705.72 1856.05,-716.26"/>
<text text-anchor="middle" x="1452.44" y="-720.02" font-family="Times,serif" font-size="14.00">[task] ../../roles/kubeinit_prepare : Gather variables for each operating system</text>
</a>
</g>
</g>
<!-- Play #1: Main deployment playbook for integrating submariner (0)&#45;&gt;task_ab8926f4&#45;6eaf&#45;49c4&#45;9fbb&#45;9ec34b167d8f -->
<g id="edge_43ff51ea-58b7-4996-a093-7e23ae1ac3ec" class="edge">
<title>Play #1: Main deployment playbook for integrating submariner (0)-&gt;task_ab8926f4-6eaf-49c4-9fbb-9ec34b167d8f</title>
<path fill="none" stroke="#7baabd" stroke-width="2" d="M703.56,-417.8C738.61,-472.05 851.77,-633.58 993.76,-696.72 1080.17,-735.14 1184.93,-743.72 1272.42,-741.87"/>
<polygon fill="#7baabd" stroke="#7baabd" stroke-width="2" points="1272.55,-745.37 1282.45,-741.62 1272.37,-738.37 1272.55,-745.37"/>
<text text-anchor="middle" x="966.26" y="-690.52" font-family="Times,serif" font-size="14.00" fill="#7baabd">2</text>
<links><link target="task_ab8926f4-6eaf-49c4-9fbb-9ec34b167d8f"/></links></g>
<!-- task_8d0c597d&#45;4eb0&#45;45e5&#45;83e8&#45;b8d8044a2506 -->
<g id="task_8d0c597d-4eb0-45e5-83e8-b8d8044a2506" class="node">
<title>task_8d0c597d-4eb0-45e5-83e8-b8d8044a2506</title>
<g id="a_task_8d0c597d-4eb0-45e5-83e8-b8d8044a2506"><a xlink:title="[task] ../../roles/kubeinit_prepare : add all nodes to the all_nodes group">
<polygon fill="none" stroke="black" points="1818.98,-662.26 1818.98,-677.18 1604.27,-687.72 1300.62,-687.72 1085.9,-677.18 1085.9,-662.26 1300.62,-651.72 1604.27,-651.72 1818.98,-662.26"/>
<text text-anchor="middle" x="1452.44" y="-666.02" font-family="Times,serif" font-size="14.00">[task] ../../roles/kubeinit_prepare : add all nodes to the all_nodes group</text>
</a>
</g>
</g>
<!-- Play #1: Main deployment playbook for integrating submariner (0)&#45;&gt;task_8d0c597d&#45;4eb0&#45;45e5&#45;83e8&#45;b8d8044a2506 -->
<g id="edge_975fda40-11ca-47fd-aaec-57965d13ba0f" class="edge">
<title>Play #1: Main deployment playbook for integrating submariner (0)-&gt;task_8d0c597d-4eb0-45e5-83e8-b8d8044a2506</title>
<path fill="none" stroke="#7baabd" stroke-width="2" d="M707.2,-417.85C747.51,-465.26 864.27,-592.69 993.76,-642.72 1019.92,-652.82 1047.54,-660.66 1075.72,-666.66"/>
<polygon fill="#7baabd" stroke="#7baabd" stroke-width="2" points="1075.22,-670.12 1085.72,-668.7 1076.62,-663.27 1075.22,-670.12"/>
<text text-anchor="middle" x="966.26" y="-638.52" font-family="Times,serif" font-size="14.00" fill="#7baabd">3</text>
<links><link target="task_8d0c597d-4eb0-45e5-83e8-b8d8044a2506"/></links></g>
<!-- task_99776bf3&#45;36d1&#45;48c8&#45;9834&#45;5fc9501069e1 -->
<g id="task_99776bf3-36d1-48c8-9834-5fc9501069e1" class="node">
<title>task_99776bf3-36d1-48c8-9834-5fc9501069e1</title>
<g id="a_task_99776bf3-36d1-48c8-9834-5fc9501069e1"><a xlink:title="[task] ../../roles/kubeinit_prepare : add all master nodes to the all_master_nodes group">
<polygon fill="none" stroke="black" points="1897.56,-608.26 1897.56,-623.18 1636.82,-633.72 1268.07,-633.72 1007.32,-623.18 1007.32,-608.26 1268.07,-597.72 1636.82,-597.72 1897.56,-608.26"/>
<text text-anchor="middle" x="1452.44" y="-612.02" font-family="Times,serif" font-size="14.00">[task] ../../roles/kubeinit_prepare : add all master nodes to the all_master_nodes group</text>
</a>
</g>
</g>
<!-- Play #1: Main deployment playbook for integrating submariner (0)&#45;&gt;task_99776bf3&#45;36d1&#45;48c8&#45;9834&#45;5fc9501069e1 -->
<g id="edge_309b99cc-e1b0-4b38-bae0-ed2b34eab6c8" class="edge">
<title>Play #1: Main deployment playbook for integrating submariner (0)-&gt;task_99776bf3-36d1-48c8-9834-5fc9501069e1</title>
<path fill="none" stroke="#7baabd" stroke-width="2" d="M712.69,-417.79C758.84,-457.37 876.37,-551.19 993.76,-588.72 1012.33,-594.66 1031.53,-599.7 1051.08,-603.98"/>
<polygon fill="#7baabd" stroke="#7baabd" stroke-width="2" points="1050.5,-607.43 1061.01,-606.08 1051.95,-600.58 1050.5,-607.43"/>
<text text-anchor="middle" x="966.26" y="-585.52" font-family="Times,serif" font-size="14.00" fill="#7baabd">4</text>
<links><link target="task_99776bf3-36d1-48c8-9834-5fc9501069e1"/></links></g>
<!-- task_4d6eedb0&#45;bfb8&#45;4b5c&#45;9c14&#45;a82dc460d473 -->
<g id="task_4d6eedb0-bfb8-4b5c-9c14-a82dc460d473" class="node">
<title>task_4d6eedb0-bfb8-4b5c-9c14-a82dc460d473</title>
<g id="a_task_4d6eedb0-bfb8-4b5c-9c14-a82dc460d473"><a xlink:title="[task] ../../roles/kubeinit_prepare : add all worker nodes to the all_worker_nodes group">
<polygon fill="none" stroke="black" points="1897.56,-554.26 1897.56,-569.18 1636.82,-579.72 1268.07,-579.72 1007.32,-569.18 1007.32,-554.26 1268.07,-543.72 1636.82,-543.72 1897.56,-554.26"/>
<text text-anchor="middle" x="1452.44" y="-558.02" font-family="Times,serif" font-size="14.00">[task] ../../roles/kubeinit_prepare : add all worker nodes to the all_worker_nodes group</text>
</a>
</g>
</g>
<!-- Play #1: Main deployment playbook for integrating submariner (0)&#45;&gt;task_4d6eedb0&#45;bfb8&#45;4b5c&#45;9c14&#45;a82dc460d473 -->
<g id="edge_f3a8b1b7-c1df-4039-84f4-ba155e992365" class="edge">
<title>Play #1: Main deployment playbook for integrating submariner (0)-&gt;task_4d6eedb0-bfb8-4b5c-9c14-a82dc460d473</title>
<path fill="none" stroke="#7baabd" stroke-width="2" d="M722.61,-417.81C775.53,-448.3 889.03,-509.1 993.76,-534.72 1018.53,-540.78 1044.27,-545.75 1070.34,-549.8"/>
<polygon fill="#7baabd" stroke="#7baabd" stroke-width="2" points="1069.93,-553.28 1080.34,-551.31 1070.98,-546.35 1069.93,-553.28"/>
<text text-anchor="middle" x="966.26" y="-531.52" font-family="Times,serif" font-size="14.00" fill="#7baabd">5</text>
<links><link target="task_4d6eedb0-bfb8-4b5c-9c14-a82dc460d473"/></links></g>
<!-- task_6006f823&#45;41d4&#45;4fa3&#45;8f49&#45;984530f42c4d -->
<g id="task_6006f823-41d4-4fa3-8f49-984530f42c4d" class="node">
<title>task_6006f823-41d4-4fa3-8f49-984530f42c4d</title>
<g id="a_task_6006f823-41d4-4fa3-8f49-984530f42c4d"><a xlink:title="[task] ../../roles/kubeinit_prepare : add all bootstrap nodes the all_bootstrap_nodes group">
<polygon fill="none" stroke="black" points="1911.3,-500.26 1911.3,-515.18 1642.51,-525.72 1262.38,-525.72 993.59,-515.18 993.59,-500.26 1262.38,-489.72 1642.51,-489.72 1911.3,-500.26"/>
<text text-anchor="middle" x="1452.44" y="-504.02" font-family="Times,serif" font-size="14.00">[task] ../../roles/kubeinit_prepare : add all bootstrap nodes the all_bootstrap_nodes group</text>
</a>
</g>
</g>
<!-- Play #1: Main deployment playbook for integrating submariner (0)&#45;&gt;task_6006f823&#45;41d4&#45;4fa3&#45;8f49&#45;984530f42c4d -->
<g id="edge_6790616f-354a-4298-aa59-dc6bf9b5622a" class="edge">
<title>Play #1: Main deployment playbook for integrating submariner (0)-&gt;task_6006f823-41d4-4fa3-8f49-984530f42c4d</title>
<path fill="none" stroke="#7baabd" stroke-width="2" d="M746.01,-417.72C805.76,-436.9 905.49,-466.41 993.76,-480.72 1028.96,-486.42 1065.84,-490.96 1102.75,-494.56"/>
<polygon fill="#7baabd" stroke="#7baabd" stroke-width="2" points="1102.88,-498.09 1113.16,-495.55 1103.54,-491.12 1102.88,-498.09"/>
<text text-anchor="middle" x="966.26" y="-479.52" font-family="Times,serif" font-size="14.00" fill="#7baabd">6</text>
<links><link target="task_6006f823-41d4-4fa3-8f49-984530f42c4d"/></links></g>
<!-- task_6ef71328&#45;d8a5&#45;4251&#45;bcc1&#45;f289a6b40cc7 -->
<g id="task_6ef71328-d8a5-4251-bcc1-f289a6b40cc7" class="node">
<title>task_6ef71328-d8a5-4251-bcc1-f289a6b40cc7</title>
<g id="a_task_6ef71328-d8a5-4251-bcc1-f289a6b40cc7"><a xlink:title="[task] ../../roles/kubeinit_prepare : add all service nodes to the all_service_nodes group">
<polygon fill="none" stroke="black" points="1899.38,-446.26 1899.38,-461.18 1637.57,-471.72 1267.32,-471.72 1005.51,-461.18 1005.51,-446.26 1267.32,-435.72 1637.57,-435.72 1899.38,-446.26"/>
<text text-anchor="middle" x="1452.44" y="-450.02" font-family="Times,serif" font-size="14.00">[task] ../../roles/kubeinit_prepare : add all service nodes to the all_service_nodes group</text>
</a>
</g>
</g>
<!-- Play #1: Main deployment playbook for integrating submariner (0)&#45;&gt;task_6ef71328&#45;d8a5&#45;4251&#45;bcc1&#45;f289a6b40cc7 -->
<g id="edge_473321c4-f63a-4b1a-9d27-0cc418a895d6" class="edge">
<title>Play #1: Main deployment playbook for integrating submariner (0)-&gt;task_6ef71328-d8a5-4251-bcc1-f289a6b40cc7</title>
<path fill="none" stroke="#7baabd" stroke-width="2" d="M883.59,-417.74C920.15,-420.93 958.13,-424.07 993.76,-426.72 1051.17,-430.98 1112.66,-434.99 1171.35,-438.55"/>
<polygon fill="#7baabd" stroke="#7baabd" stroke-width="2" points="1171.32,-442.05 1181.51,-439.16 1171.74,-435.07 1171.32,-442.05"/>
<text text-anchor="middle" x="966.26" y="-428.52" font-family="Times,serif" font-size="14.00" fill="#7baabd">7</text>
<links><link target="task_6ef71328-d8a5-4251-bcc1-f289a6b40cc7"/></links></g>
<!-- task_bcf43a97&#45;316d&#45;48cf&#45;b860&#45;998f38ca1621 -->
<g id="task_bcf43a97-316d-48cf-b860-998f38ca1621" class="node">
<title>task_bcf43a97-316d-48cf-b860-998f38ca1621</title>
<g id="a_task_bcf43a97-316d-48cf-b860-998f38ca1621"><a xlink:title="[task] ../../roles/kubeinit_prepare : add all hosts to the all_hosts group">
<polygon fill="none" stroke="black" points="1814.13,-392.26 1814.13,-407.18 1602.26,-417.72 1302.62,-417.72 1090.75,-407.18 1090.75,-392.26 1302.62,-381.72 1602.26,-381.72 1814.13,-392.26"/>
<text text-anchor="middle" x="1452.44" y="-396.02" font-family="Times,serif" font-size="14.00">[task] ../../roles/kubeinit_prepare : add all hosts to the all_hosts group</text>
</a>
</g>
</g>
<!-- Play #1: Main deployment playbook for integrating submariner (0)&#45;&gt;task_bcf43a97&#45;316d&#45;48cf&#45;b860&#45;998f38ca1621 -->
<g id="edge_dc3adee3-0830-4e94-a42a-ba83ce34214c" class="edge">
<title>Play #1: Main deployment playbook for integrating submariner (0)-&gt;task_bcf43a97-316d-48cf-b860-998f38ca1621</title>
<path fill="none" stroke="#7baabd" stroke-width="2" d="M939.01,-399.72C984.27,-399.72 1032.42,-399.72 1080.39,-399.72"/>
<polygon fill="#7baabd" stroke="#7baabd" stroke-width="2" points="1080.62,-403.22 1090.62,-399.72 1080.62,-396.22 1080.62,-403.22"/>
<text text-anchor="middle" x="966.26" y="-403.52" font-family="Times,serif" font-size="14.00" fill="#7baabd">8</text>
<links><link target="task_bcf43a97-316d-48cf-b860-998f38ca1621"/></links></g>
<!-- task_a695735d&#45;9b8d&#45;479b&#45;953d&#45;cd3be1c06535 -->
<g id="task_a695735d-9b8d-479b-953d-cd3be1c06535" class="node">
<title>task_a695735d-9b8d-479b-953d-cd3be1c06535</title>
<g id="a_task_a695735d-9b8d-479b-953d-cd3be1c06535"><a xlink:title="[task] ../../roles/kubeinit_prepare : list all_hosts">
<polygon fill="none" stroke="black" points="1700.61,-338.26 1700.61,-353.18 1555.24,-363.72 1349.65,-363.72 1204.28,-353.18 1204.28,-338.26 1349.65,-327.72 1555.24,-327.72 1700.61,-338.26"/>
<text text-anchor="middle" x="1452.44" y="-342.02" font-family="Times,serif" font-size="14.00">[task] ../../roles/kubeinit_prepare : list all_hosts</text>
</a>
</g>
</g>
<!-- Play #1: Main deployment playbook for integrating submariner (0)&#45;&gt;task_a695735d&#45;9b8d&#45;479b&#45;953d&#45;cd3be1c06535 -->
<g id="edge_71b7f938-0377-44c8-84d2-c89174a8d33c" class="edge">
<title>Play #1: Main deployment playbook for integrating submariner (0)-&gt;task_a695735d-9b8d-479b-953d-cd3be1c06535</title>
<path fill="none" stroke="#7baabd" stroke-width="2" d="M883.59,-381.71C920.15,-378.51 958.13,-375.37 993.76,-372.72 1073.43,-366.8 1160.98,-361.38 1237.99,-356.96"/>
<polygon fill="#7baabd" stroke="#7baabd" stroke-width="2" points="1238.51,-360.44 1248.3,-356.38 1238.11,-353.45 1238.51,-360.44"/>
<text text-anchor="middle" x="966.26" y="-378.52" font-family="Times,serif" font-size="14.00" fill="#7baabd">9</text>
<links><link target="task_a695735d-9b8d-479b-953d-cd3be1c06535"/></links></g>
<!-- task_2abe12e4&#45;90ae&#45;4e22&#45;85d9&#45;8bbf76ba9854 -->
<g id="task_2abe12e4-90ae-4e22-85d9-8bbf76ba9854" class="node">
<title>task_2abe12e4-90ae-4e22-85d9-8bbf76ba9854</title>
<g id="a_task_2abe12e4-90ae-4e22-85d9-8bbf76ba9854"><a xlink:title="[task] ../../roles/kubeinit_prepare : list all_nodes">
<polygon fill="none" stroke="black" points="1702.83,-284.26 1702.83,-299.18 1556.16,-309.72 1348.73,-309.72 1202.06,-299.18 1202.06,-284.26 1348.73,-273.72 1556.16,-273.72 1702.83,-284.26"/>
<text text-anchor="middle" x="1452.44" y="-288.02" font-family="Times,serif" font-size="14.00">[task] ../../roles/kubeinit_prepare : list all_nodes</text>
</a>
</g>
</g>
<!-- Play #1: Main deployment playbook for integrating submariner (0)&#45;&gt;task_2abe12e4&#45;90ae&#45;4e22&#45;85d9&#45;8bbf76ba9854 -->
<g id="edge_ca675ad9-350b-4ac6-bc99-a44306f93e45" class="edge">
<title>Play #1: Main deployment playbook for integrating submariner (0)-&gt;task_2abe12e4-90ae-4e22-85d9-8bbf76ba9854</title>
<path fill="none" stroke="#7baabd" stroke-width="2" d="M746.01,-381.72C805.76,-362.54 905.49,-333.03 993.76,-318.72 1057.44,-308.4 1126.66,-301.91 1191.54,-297.85"/>
<polygon fill="#7baabd" stroke="#7baabd" stroke-width="2" points="1192.15,-301.32 1201.92,-297.22 1191.72,-294.34 1192.15,-301.32"/>
<text text-anchor="middle" x="966.26" y="-327.52" font-family="Times,serif" font-size="14.00" fill="#7baabd">10</text>
<links><link target="task_2abe12e4-90ae-4e22-85d9-8bbf76ba9854"/></links></g>
<!-- task_6909d83f&#45;c48b&#45;40da&#45;933f&#45;5cabe29803cb -->
<g id="task_6909d83f-c48b-40da-933f-5cabe29803cb" class="node">
<title>task_6909d83f-c48b-40da-933f-5cabe29803cb</title>
<g id="a_task_6909d83f-c48b-40da-933f-5cabe29803cb"><a xlink:title="[task] ../../roles/kubeinit_prepare : list all_master_nodes">
<polygon fill="none" stroke="black" points="1743.03,-230.26 1743.03,-245.18 1572.81,-255.72 1332.08,-255.72 1161.86,-245.18 1161.86,-230.26 1332.08,-219.72 1572.81,-219.72 1743.03,-230.26"/>
<text text-anchor="middle" x="1452.44" y="-234.02" font-family="Times,serif" font-size="14.00">[task] ../../roles/kubeinit_prepare : list all_master_nodes</text>
</a>
</g>
</g>
<!-- Play #1: Main deployment playbook for integrating submariner (0)&#45;&gt;task_6909d83f&#45;c48b&#45;40da&#45;933f&#45;5cabe29803cb -->
<g id="edge_4b74b360-99c1-4bb4-8d0d-445bc01e11c2" class="edge">
<title>Play #1: Main deployment playbook for integrating submariner (0)-&gt;task_6909d83f-c48b-40da-933f-5cabe29803cb</title>
<path fill="none" stroke="#7baabd" stroke-width="2" d="M722.61,-381.63C775.53,-351.14 889.03,-290.35 993.76,-264.72 1044.15,-252.39 1098.55,-244.59 1151.65,-239.81"/>
<polygon fill="#7baabd" stroke="#7baabd" stroke-width="2" points="1152.24,-243.27 1161.9,-238.92 1151.63,-236.3 1152.24,-243.27"/>
<text text-anchor="middle" x="966.26" y="-277.52" font-family="Times,serif" font-size="14.00" fill="#7baabd">11</text>
<links><link target="task_6909d83f-c48b-40da-933f-5cabe29803cb"/></links></g>
<!-- task_1218863e&#45;e43a&#45;4c55&#45;a340&#45;e8ef3d100f2d -->
<g id="task_1218863e-e43a-4c55-a340-e8ef3d100f2d" class="node">
<title>task_1218863e-e43a-4c55-a340-e8ef3d100f2d</title>
<g id="a_task_1218863e-e43a-4c55-a340-e8ef3d100f2d"><a xlink:title="[task] ../../roles/kubeinit_prepare : list all_worker_nodes">
<polygon fill="none" stroke="black" points="1743.03,-176.26 1743.03,-191.18 1572.81,-201.72 1332.08,-201.72 1161.86,-191.18 1161.86,-176.26 1332.08,-165.72 1572.81,-165.72 1743.03,-176.26"/>
<text text-anchor="middle" x="1452.44" y="-180.02" font-family="Times,serif" font-size="14.00">[task] ../../roles/kubeinit_prepare : list all_worker_nodes</text>
</a>
</g>
</g>
<!-- Play #1: Main deployment playbook for integrating submariner (0)&#45;&gt;task_1218863e&#45;e43a&#45;4c55&#45;a340&#45;e8ef3d100f2d -->
<g id="edge_3f5f3e67-a67b-4b4e-a52b-6ef4a12563c7" class="edge">
<title>Play #1: Main deployment playbook for integrating submariner (0)-&gt;task_1218863e-e43a-4c55-a340-e8ef3d100f2d</title>
<path fill="none" stroke="#7baabd" stroke-width="2" d="M712.69,-381.65C758.84,-342.07 876.37,-248.25 993.76,-210.72 1043.73,-194.75 1098.29,-185.21 1151.78,-179.85"/>
<polygon fill="#7baabd" stroke="#7baabd" stroke-width="2" points="1152.14,-183.33 1161.76,-178.9 1151.47,-176.36 1152.14,-183.33"/>
<text text-anchor="middle" x="966.26" y="-227.52" font-family="Times,serif" font-size="14.00" fill="#7baabd">12</text>
<links><link target="task_1218863e-e43a-4c55-a340-e8ef3d100f2d"/></links></g>
<!-- task_4a92ebf3&#45;c0d9&#45;4c02&#45;bf46&#45;2cb5c6da33a9 -->
<g id="task_4a92ebf3-c0d9-4c02-bf46-2cb5c6da33a9" class="node">
<title>task_4a92ebf3-c0d9-4c02-bf46-2cb5c6da33a9</title>
<g id="a_task_4a92ebf3-c0d9-4c02-bf46-2cb5c6da33a9"><a xlink:title="[task] ../../roles/kubeinit_prepare : list all_service_nodes">
<polygon fill="none" stroke="black" points="1743.93,-122.26 1743.93,-137.18 1573.18,-147.72 1331.7,-147.72 1160.95,-137.18 1160.95,-122.26 1331.7,-111.72 1573.18,-111.72 1743.93,-122.26"/>
<text text-anchor="middle" x="1452.44" y="-126.02" font-family="Times,serif" font-size="14.00">[task] ../../roles/kubeinit_prepare : list all_service_nodes</text>
</a>
</g>
</g>
<!-- Play #1: Main deployment playbook for integrating submariner (0)&#45;&gt;task_4a92ebf3&#45;c0d9&#45;4c02&#45;bf46&#45;2cb5c6da33a9 -->
<g id="edge_3beb79b9-d705-4adb-b71f-98554958e1f0" class="edge">
<title>Play #1: Main deployment playbook for integrating submariner (0)-&gt;task_4a92ebf3-c0d9-4c02-bf46-2cb5c6da33a9</title>
<path fill="none" stroke="#7baabd" stroke-width="2" d="M707.2,-381.59C747.51,-334.18 864.27,-206.75 993.76,-156.72 1078.49,-123.99 1178.61,-115.07 1263.58,-115.25"/>
<polygon fill="#7baabd" stroke="#7baabd" stroke-width="2" points="1263.57,-118.75 1273.6,-115.31 1263.62,-111.75 1263.57,-118.75"/>
<text text-anchor="middle" x="966.26" y="-172.52" font-family="Times,serif" font-size="14.00" fill="#7baabd">13</text>
<links><link target="task_4a92ebf3-c0d9-4c02-bf46-2cb5c6da33a9"/></links></g>
<!-- task_0509615c&#45;4806&#45;4286&#45;9d79&#45;d3b863ba4e19 -->
<g id="task_0509615c-4806-4286-9d79-d3b863ba4e19" class="node">
<title>task_0509615c-4806-4286-9d79-d3b863ba4e19</title>
<g id="a_task_0509615c-4806-4286-9d79-d3b863ba4e19"><a xlink:title="[task] ../../roles/kubeinit_prepare : list all_bootstrap_nodes">
<polygon fill="none" stroke="black" points="1756.26,-68.26 1756.26,-83.18 1578.29,-93.72 1326.6,-93.72 1148.62,-83.18 1148.62,-68.26 1326.6,-57.72 1578.29,-57.72 1756.26,-68.26"/>
<text text-anchor="middle" x="1452.44" y="-72.02" font-family="Times,serif" font-size="14.00">[task] ../../roles/kubeinit_prepare : list all_bootstrap_nodes</text>
</a>
</g>
</g>
<!-- Play #1: Main deployment playbook for integrating submariner (0)&#45;&gt;task_0509615c&#45;4806&#45;4286&#45;9d79&#45;d3b863ba4e19 -->
<g id="edge_8ebe7927-a743-40d8-b780-271fef0ba57b" class="edge">
<title>Play #1: Main deployment playbook for integrating submariner (0)-&gt;task_0509615c-4806-4286-9d79-d3b863ba4e19</title>
<path fill="none" stroke="#7baabd" stroke-width="2" d="M703.56,-381.64C738.61,-327.39 851.77,-165.86 993.76,-102.72 1088.4,-60.64 1205.08,-54.36 1296.94,-58.36"/>
<polygon fill="#7baabd" stroke="#7baabd" stroke-width="2" points="1297,-61.87 1307.16,-58.85 1297.34,-54.88 1297,-61.87"/>
<text text-anchor="middle" x="966.26" y="-121.52" font-family="Times,serif" font-size="14.00" fill="#7baabd">14</text>
<links><link target="task_0509615c-4806-4286-9d79-d3b863ba4e19"/></links></g>
<!-- task_2306c821&#45;69c2&#45;408d&#45;a0af&#45;6f5aa33eb435 -->
<g id="task_2306c821-69c2-408d-a0af-6f5aa33eb435" class="node">
<title>task_2306c821-69c2-408d-a0af-6f5aa33eb435</title>
<g id="a_task_2306c821-69c2-408d-a0af-6f5aa33eb435"><a xlink:title="[task] ../../roles/kubeinit_submariner : Execute subctl verify">
<polygon fill="none" stroke="black" points="1762.92,-14.26 1762.92,-29.18 1581.05,-39.72 1323.84,-39.72 1141.96,-29.18 1141.96,-14.26 1323.84,-3.72 1581.05,-3.72 1762.92,-14.26"/>
<text text-anchor="middle" x="1452.44" y="-18.02" font-family="Times,serif" font-size="14.00">[task] ../../roles/kubeinit_submariner : Execute subctl verify</text>
</a>
</g>
</g>
<!-- Play #1: Main deployment playbook for integrating submariner (0)&#45;&gt;task_2306c821&#45;69c2&#45;408d&#45;a0af&#45;6f5aa33eb435 -->
<g id="edge_7e929bca-69b3-4a62-9336-20d2166b61d7" class="edge">
<title>Play #1: Main deployment playbook for integrating submariner (0)-&gt;task_2306c821-69c2-408d-a0af-6f5aa33eb435</title>
<path fill="none" stroke="#7baabd" stroke-width="2" d="M701.08,-381.5C731.53,-320.86 839.01,-125.4 993.76,-48.72 1093.82,0.85 1221.65,4.2 1316.77,-2.9"/>
<polygon fill="#7baabd" stroke="#7baabd" stroke-width="2" points="1316.5,-6.39 1326.75,-3.69 1317.06,0.59 1316.5,-6.39"/>
<text text-anchor="middle" x="966.26" y="-70.52" font-family="Times,serif" font-size="14.00" fill="#7baabd">15</text>
<links><link target="task_2306c821-69c2-408d-a0af-6f5aa33eb435"/></links></g>
</g>
</svg>