<?xml version='1.0' encoding='UTF-8'?>
<!DOCTYPE svg PUBLIC "-//W3C//DTD SVG 1.1//EN" "http://www.w3.org/Graphics/SVG/1.1/DTD/svg11.dtd">
<!-- Generated by graphviz version 2.43.0 (0)
 --><!-- Title: ./playbooks/submariner&#45;subctl&#45;verify.yml  Pages: 1 --><svg xmlns="http://www.w3.org/2000/svg" xmlns:xlink="http://www.w3.org/1999/xlink" width="1919pt" height="807pt" viewBox="0.00 0.00 1919.12 807.41" id="svg">
<script type="text/javascript" href="https://ajax.googleapis.com/ajax/libs/jquery/3.2.1/jquery.min.js" id="jquery"/><script type="text/javascript" id="my_javascript"><![CDATA[const HOVER_CLASS = "my_hover";

var selectedElement = null;

function addClass(rootElement) {
    $(rootElement).find('link').each(function (index, element) {
        var target = $(element).attr('target');
        var currentElement = $('#' + target);
        currentElement.addClass(HOVER_CLASS);

        addClass(currentElement);
    })
}

function removeClass(rootElement, hover) {
    $(rootElement).find('link').each(function (index, element) {
        if ($(rootElement).attr('id') !== $(selectedElement).attr('id') || !hover) {
            var target = $(element).attr('target');
            var currentElement = $('#' + target);
            currentElement.removeClass(HOVER_CLASS);

            removeClass(currentElement);
        }

    })
}

function hoverIn(event) {
    addClass(event.currentTarget);
}

function hoverOut(event) {
    removeClass(event.currentTarget, true);
}

function clickOnElement(event) {
    var newElement = event.currentTarget;

    if ($(newElement).attr('id') === $(selectedElement).attr('id')) {
        removeClass(selectedElement, false);
    } else {
        removeClass(selectedElement);
        addClass(newElement)
    }

    selectedElement = newElement;
}


$("#svg").ready(function () {

    $("g[id^=play_]").hover(hoverIn, hoverOut);
    $("g[id^=role_]").hover(hoverIn, hoverOut);

    $("g[id^=play_]").click(clickOnElement);
    $("g[id^=role_]").click(clickOnElement);

});
]]></script><style type="text/css" id="my_css"><![CDATA[.node:hover, .edge:hover, path:hover, path + polygon:hover {
    cursor: pointer;
    stroke-width: 3;
    font-weight: bolder;
}

.my_hover {
    cursor: pointer;
    stroke-width: 3;
    font-weight: bolder;
}
]]></style><g id="graph0" class="graph" transform="scale(1 1) rotate(0) translate(4 803.41)">
<title>./playbooks/submariner-subctl-verify.yml </title>
<polygon fill="white" stroke="transparent" points="-4,4 -4,-803.41 1915.12,-803.41 1915.12,4 -4,4"/>
<!-- ./playbooks/submariner&#45;subctl&#45;verify.yml -->
<g id="root_node" class="node">
<title>./playbooks/submariner-subctl-verify.yml</title>
<ellipse fill="none" stroke="black" stroke-dasharray="1,5" cx="198.88" cy="-399.72" rx="198.76" ry="18"/>
<text text-anchor="middle" x="198.88" y="-396.02" font-family="Times,serif" font-size="14.00">./playbooks/submariner-subctl-verify.yml</text>
</g>
<!-- Play #1: Main deployment playbook for integrating submariner (0) -->
<g id="play_2d9a19f9-ba42-4577-9b4a-6b916da7741c" class="node">
<title>Play #1: Main deployment playbook for integrating submariner (0)</title>
<polygon fill="#fa9b5c" stroke="#fa9b5c" points="938.76,-417.72 443.76,-417.72 443.76,-381.72 938.76,-381.72 938.76,-417.72"/>
<text text-anchor="middle" x="691.26" y="-396.02" font-family="Times,serif" font-size="14.00" fill="#000000">Play #1: Main deployment playbook for integrating submariner (0)</text>
<links><link target="edge_937e6c41-ef05-41b2-a588-792919219aa5"/><link target="edge_a8062540-1fe6-4105-9732-282bfe84aee6"/><link target="edge_99ec0ccb-d069-44f6-9039-f354264c61cc"/><link target="edge_9475d6ca-7377-4e23-ae65-6574b1abadd6"/><link target="edge_958ad170-e49c-41f6-b837-e42eb90971b2"/><link target="edge_8642e925-2440-4393-8366-d4b80a33b1c4"/><link target="edge_3af1f1e4-70ee-4294-8573-6583e841d178"/><link target="edge_3e74c3c0-93be-4a6e-8ff1-5ce7a4b96014"/><link target="edge_1e731ff2-a9e3-43d5-b7f8-91076262ad5e"/><link target="edge_71779f39-ca63-444a-b356-dbbf78ad700d"/><link target="edge_1d19938f-0082-4b0a-9bb4-8eb0b461ba3a"/><link target="edge_4fb239a5-76f2-4e01-8e49-870d7e060445"/><link target="edge_ea59a8c6-4d2b-4ffa-b71f-0817e4cb1411"/><link target="edge_cc143fbc-5cf5-4908-9844-f0bf3e327248"/><link target="edge_05b4eecc-76cd-4467-89af-6087ca42a73d"/></links></g>
<!-- ./playbooks/submariner&#45;subctl&#45;verify.yml&#45;&gt;Play #1: Main deployment playbook for integrating submariner (0) -->
<g id="edge_02d3b1b1-05cf-4f27-b6dd-36e1867406e1" class="edge">
<title>./playbooks/submariner-subctl-verify.yml-&gt;Play #1: Main deployment playbook for integrating submariner (0)</title>
<path fill="none" stroke="#fa9b5c" stroke-width="2" d="M397.93,-399.72C409.66,-399.72 421.54,-399.72 433.46,-399.72"/>
<polygon fill="#fa9b5c" stroke="#fa9b5c" stroke-width="2" points="433.48,-403.22 443.48,-399.72 433.48,-396.22 433.48,-403.22"/>
<text text-anchor="middle" x="420.76" y="-403.52" font-family="Times,serif" font-size="14.00" fill="#fa9b5c">1</text>
</g>
<!-- pre_task_d8001382&#45;85e7&#45;4de7&#45;a70d&#45;0f2d8a17a3cb -->
<g id="pre_task_d8001382-85e7-4de7-a70d-0f2d8a17a3cb" class="node">
<title>pre_task_d8001382-85e7-4de7-a70d-0f2d8a17a3cb</title>
<g id="a_pre_task_d8001382-85e7-4de7-a70d-0f2d8a17a3cb"><a xlink:title="[pre_task] Check if Ansible meets version requirements.">
<polygon fill="none" stroke="black" points="1746.56,-770.26 1746.56,-785.18 1574.27,-795.72 1330.61,-795.72 1158.32,-785.18 1158.32,-770.26 1330.61,-759.72 1574.27,-759.72 1746.56,-770.26"/>
<text text-anchor="middle" x="1452.44" y="-774.02" font-family="Times,serif" font-size="14.00">[pre_task] Check if Ansible meets version requirements.</text>
</a>
</g>
</g>
<!-- Play #1: Main deployment playbook for integrating submariner (0)&#45;&gt;pre_task_d8001382&#45;85e7&#45;4de7&#45;a70d&#45;0f2d8a17a3cb -->
<g id="edge_937e6c41-ef05-41b2-a588-792919219aa5" class="edge">
<title>Play #1: Main deployment playbook for integrating submariner (0)-&gt;pre_task_d8001382-85e7-4de7-a70d-0f2d8a17a3cb</title>
<path fill="none" stroke="#fa9b5c" stroke-width="2" d="M701.08,-417.95C731.53,-478.59 839.01,-674.04 993.76,-750.72 1094.33,-800.55 1222.97,-803.68 1318.25,-796.43"/>
<polygon fill="#fa9b5c" stroke="#fa9b5c" stroke-width="2" points="1318.55,-799.92 1328.23,-795.63 1317.98,-792.94 1318.55,-799.92"/>
<text text-anchor="middle" x="966.26" y="-742.52" font-family="Times,serif" font-size="14.00" fill="#fa9b5c">1</text>
<links><link target="pre_task_d8001382-85e7-4de7-a70d-0f2d8a17a3cb"/></links></g>
<!-- task_5a31dc77&#45;5a8a&#45;4762&#45;ab09&#45;34808a45c6e2 -->
<g id="task_5a31dc77-5a8a-4762-ab09-34808a45c6e2" class="node">
<title>task_5a31dc77-5a8a-4762-ab09-34808a45c6e2</title>
<g id="a_task_5a31dc77-5a8a-4762-ab09-34808a45c6e2"><a xlink:title="[task] ../../roles/kubeinit_prepare : Gather variables for each operating system">
<polygon fill="none" stroke="black" points="1856.05,-716.26 1856.05,-731.18 1619.62,-741.72 1285.26,-741.72 1048.83,-731.18 1048.83,-716.26 1285.26,-705.72 1619.62,-705.72 1856.05,-716.26"/>
<text text-anchor="middle" x="1452.44" y="-720.02" font-family="Times,serif" font-size="14.00">[task] ../../roles/kubeinit_prepare : Gather variables for each operating system</text>
</a>
</g>
</g>
<!-- Play #1: Main deployment playbook for integrating submariner (0)&#45;&gt;task_5a31dc77&#45;5a8a&#45;4762&#45;ab09&#45;34808a45c6e2 -->
<g id="edge_a8062540-1fe6-4105-9732-282bfe84aee6" class="edge">
<title>Play #1: Main deployment playbook for integrating submariner (0)-&gt;task_5a31dc77-5a8a-4762-ab09-34808a45c6e2</title>
<path fill="none" stroke="#fa9b5c" stroke-width="2" d="M703.56,-417.8C738.61,-472.05 851.77,-633.58 993.76,-696.72 1080.17,-735.14 1184.93,-743.72 1272.42,-741.87"/>
<polygon fill="#fa9b5c" stroke="#fa9b5c" stroke-width="2" points="1272.55,-745.37 1282.45,-741.62 1272.37,-738.37 1272.55,-745.37"/>
<text text-anchor="middle" x="966.26" y="-690.52" font-family="Times,serif" font-size="14.00" fill="#fa9b5c">2</text>
<links><link target="task_5a31dc77-5a8a-4762-ab09-34808a45c6e2"/></links></g>
<!-- task_9e36ae59&#45;0b0c&#45;42c5&#45;91ea&#45;4082c4755b90 -->
<g id="task_9e36ae59-0b0c-42c5-91ea-4082c4755b90" class="node">
<title>task_9e36ae59-0b0c-42c5-91ea-4082c4755b90</title>
<g id="a_task_9e36ae59-0b0c-42c5-91ea-4082c4755b90"><a xlink:title="[task] ../../roles/kubeinit_prepare : add all nodes to the all_nodes group">
<polygon fill="none" stroke="black" points="1818.98,-662.26 1818.98,-677.18 1604.27,-687.72 1300.62,-687.72 1085.9,-677.18 1085.9,-662.26 1300.62,-651.72 1604.27,-651.72 1818.98,-662.26"/>
<text text-anchor="middle" x="1452.44" y="-666.02" font-family="Times,serif" font-size="14.00">[task] ../../roles/kubeinit_prepare : add all nodes to the all_nodes group</text>
</a>
</g>
</g>
<!-- Play #1: Main deployment playbook for integrating submariner (0)&#45;&gt;task_9e36ae59&#45;0b0c&#45;42c5&#45;91ea&#45;4082c4755b90 -->
<g id="edge_99ec0ccb-d069-44f6-9039-f354264c61cc" class="edge">
<title>Play #1: Main deployment playbook for integrating submariner (0)-&gt;task_9e36ae59-0b0c-42c5-91ea-4082c4755b90</title>
<path fill="none" stroke="#fa9b5c" stroke-width="2" d="M707.2,-417.85C747.51,-465.26 864.27,-592.69 993.76,-642.72 1019.92,-652.82 1047.54,-660.66 1075.72,-666.66"/>
<polygon fill="#fa9b5c" stroke="#fa9b5c" stroke-width="2" points="1075.22,-670.12 1085.72,-668.7 1076.62,-663.27 1075.22,-670.12"/>
<text text-anchor="middle" x="966.26" y="-638.52" font-family="Times,serif" font-size="14.00" fill="#fa9b5c">3</text>
<links><link target="task_9e36ae59-0b0c-42c5-91ea-4082c4755b90"/></links></g>
<!-- task_cba8cb65&#45;e39e&#45;4713&#45;831d&#45;111d3bf9fac0 -->
<g id="task_cba8cb65-e39e-4713-831d-111d3bf9fac0" class="node">
<title>task_cba8cb65-e39e-4713-831d-111d3bf9fac0</title>
<g id="a_task_cba8cb65-e39e-4713-831d-111d3bf9fac0"><a xlink:title="[task] ../../roles/kubeinit_prepare : add all master nodes to the all_master_nodes group">
<polygon fill="none" stroke="black" points="1897.56,-608.26 1897.56,-623.18 1636.82,-633.72 1268.07,-633.72 1007.32,-623.18 1007.32,-608.26 1268.07,-597.72 1636.82,-597.72 1897.56,-608.26"/>
<text text-anchor="middle" x="1452.44" y="-612.02" font-family="Times,serif" font-size="14.00">[task] ../../roles/kubeinit_prepare : add all master nodes to the all_master_nodes group</text>
</a>
</g>
</g>
<!-- Play #1: Main deployment playbook for integrating submariner (0)&#45;&gt;task_cba8cb65&#45;e39e&#45;4713&#45;831d&#45;111d3bf9fac0 -->
<g id="edge_9475d6ca-7377-4e23-ae65-6574b1abadd6" class="edge">
<title>Play #1: Main deployment playbook for integrating submariner (0)-&gt;task_cba8cb65-e39e-4713-831d-111d3bf9fac0</title>
<path fill="none" stroke="#fa9b5c" stroke-width="2" d="M712.69,-417.79C758.84,-457.37 876.37,-551.19 993.76,-588.72 1012.33,-594.66 1031.53,-599.7 1051.08,-603.98"/>
<polygon fill="#fa9b5c" stroke="#fa9b5c" stroke-width="2" points="1050.5,-607.43 1061.01,-606.08 1051.95,-600.58 1050.5,-607.43"/>
<text text-anchor="middle" x="966.26" y="-585.52" font-family="Times,serif" font-size="14.00" fill="#fa9b5c">4</text>
<links><link target="task_cba8cb65-e39e-4713-831d-111d3bf9fac0"/></links></g>
<!-- task_55cb7e64&#45;9da7&#45;4e33&#45;9566&#45;f2a03627c24a -->
<g id="task_55cb7e64-9da7-4e33-9566-f2a03627c24a" class="node">
<title>task_55cb7e64-9da7-4e33-9566-f2a03627c24a</title>
<g id="a_task_55cb7e64-9da7-4e33-9566-f2a03627c24a"><a xlink:title="[task] ../../roles/kubeinit_prepare : add all worker nodes to the all_worker_nodes group">
<polygon fill="none" stroke="black" points="1897.56,-554.26 1897.56,-569.18 1636.82,-579.72 1268.07,-579.72 1007.32,-569.18 1007.32,-554.26 1268.07,-543.72 1636.82,-543.72 1897.56,-554.26"/>
<text text-anchor="middle" x="1452.44" y="-558.02" font-family="Times,serif" font-size="14.00">[task] ../../roles/kubeinit_prepare : add all worker nodes to the all_worker_nodes group</text>
</a>
</g>
</g>
<!-- Play #1: Main deployment playbook for integrating submariner (0)&#45;&gt;task_55cb7e64&#45;9da7&#45;4e33&#45;9566&#45;f2a03627c24a -->
<g id="edge_958ad170-e49c-41f6-b837-e42eb90971b2" class="edge">
<title>Play #1: Main deployment playbook for integrating submariner (0)-&gt;task_55cb7e64-9da7-4e33-9566-f2a03627c24a</title>
<path fill="none" stroke="#fa9b5c" stroke-width="2" d="M722.61,-417.81C775.53,-448.3 889.03,-509.1 993.76,-534.72 1018.53,-540.78 1044.27,-545.75 1070.34,-549.8"/>
<polygon fill="#fa9b5c" stroke="#fa9b5c" stroke-width="2" points="1069.93,-553.28 1080.34,-551.31 1070.98,-546.35 1069.93,-553.28"/>
<text text-anchor="middle" x="966.26" y="-531.52" font-family="Times,serif" font-size="14.00" fill="#fa9b5c">5</text>
<links><link target="task_55cb7e64-9da7-4e33-9566-f2a03627c24a"/></links></g>
<!-- task_2056a06f&#45;f35e&#45;4eb6&#45;9527&#45;033542d521b5 -->
<g id="task_2056a06f-f35e-4eb6-9527-033542d521b5" class="node">
<title>task_2056a06f-f35e-4eb6-9527-033542d521b5</title>
<g id="a_task_2056a06f-f35e-4eb6-9527-033542d521b5"><a xlink:title="[task] ../../roles/kubeinit_prepare : add all bootstrap nodes the all_bootstrap_nodes group">
<polygon fill="none" stroke="black" points="1911.3,-500.26 1911.3,-515.18 1642.51,-525.72 1262.38,-525.72 993.59,-515.18 993.59,-500.26 1262.38,-489.72 1642.51,-489.72 1911.3,-500.26"/>
<text text-anchor="middle" x="1452.44" y="-504.02" font-family="Times,serif" font-size="14.00">[task] ../../roles/kubeinit_prepare : add all bootstrap nodes the all_bootstrap_nodes group</text>
</a>
</g>
</g>
<!-- Play #1: Main deployment playbook for integrating submariner (0)&#45;&gt;task_2056a06f&#45;f35e&#45;4eb6&#45;9527&#45;033542d521b5 -->
<g id="edge_8642e925-2440-4393-8366-d4b80a33b1c4" class="edge">
<title>Play #1: Main deployment playbook for integrating submariner (0)-&gt;task_2056a06f-f35e-4eb6-9527-033542d521b5</title>
<path fill="none" stroke="#fa9b5c" stroke-width="2" d="M746.01,-417.72C805.76,-436.9 905.49,-466.41 993.76,-480.72 1028.96,-486.42 1065.84,-490.96 1102.75,-494.56"/>
<polygon fill="#fa9b5c" stroke="#fa9b5c" stroke-width="2" points="1102.88,-498.09 1113.16,-495.55 1103.54,-491.12 1102.88,-498.09"/>
<text text-anchor="middle" x="966.26" y="-479.52" font-family="Times,serif" font-size="14.00" fill="#fa9b5c">6</text>
<links><link target="task_2056a06f-f35e-4eb6-9527-033542d521b5"/></links></g>
<!-- task_c90f47ef&#45;b1d7&#45;4d80&#45;ae2f&#45;be6ae8fc7d90 -->
<g id="task_c90f47ef-b1d7-4d80-ae2f-be6ae8fc7d90" class="node">
<title>task_c90f47ef-b1d7-4d80-ae2f-be6ae8fc7d90</title>
<g id="a_task_c90f47ef-b1d7-4d80-ae2f-be6ae8fc7d90"><a xlink:title="[task] ../../roles/kubeinit_prepare : add all service nodes to the all_service_nodes group">
<polygon fill="none" stroke="black" points="1899.38,-446.26 1899.38,-461.18 1637.57,-471.72 1267.32,-471.72 1005.51,-461.18 1005.51,-446.26 1267.32,-435.72 1637.57,-435.72 1899.38,-446.26"/>
<text text-anchor="middle" x="1452.44" y="-450.02" font-family="Times,serif" font-size="14.00">[task] ../../roles/kubeinit_prepare : add all service nodes to the all_service_nodes group</text>
</a>
</g>
</g>
<!-- Play #1: Main deployment playbook for integrating submariner (0)&#45;&gt;task_c90f47ef&#45;b1d7&#45;4d80&#45;ae2f&#45;be6ae8fc7d90 -->
<g id="edge_3af1f1e4-70ee-4294-8573-6583e841d178" class="edge">
<title>Play #1: Main deployment playbook for integrating submariner (0)-&gt;task_c90f47ef-b1d7-4d80-ae2f-be6ae8fc7d90</title>
<path fill="none" stroke="#fa9b5c" stroke-width="2" d="M883.59,-417.74C920.15,-420.93 958.13,-424.07 993.76,-426.72 1051.17,-430.98 1112.66,-434.99 1171.35,-438.55"/>
<polygon fill="#fa9b5c" stroke="#fa9b5c" stroke-width="2" points="1171.32,-442.05 1181.51,-439.16 1171.74,-435.07 1171.32,-442.05"/>
<text text-anchor="middle" x="966.26" y="-428.52" font-family="Times,serif" font-size="14.00" fill="#fa9b5c">7</text>
<links><link target="task_c90f47ef-b1d7-4d80-ae2f-be6ae8fc7d90"/></links></g>
<!-- task_22ccffd3&#45;a2df&#45;40e8&#45;90c1&#45;87d8eb18f82f -->
<g id="task_22ccffd3-a2df-40e8-90c1-87d8eb18f82f" class="node">
<title>task_22ccffd3-a2df-40e8-90c1-87d8eb18f82f</title>
<g id="a_task_22ccffd3-a2df-40e8-90c1-87d8eb18f82f"><a xlink:title="[task] ../../roles/kubeinit_prepare : add all hosts to the all_hosts group">
<polygon fill="none" stroke="black" points="1814.13,-392.26 1814.13,-407.18 1602.26,-417.72 1302.62,-417.72 1090.75,-407.18 1090.75,-392.26 1302.62,-381.72 1602.26,-381.72 1814.13,-392.26"/>
<text text-anchor="middle" x="1452.44" y="-396.02" font-family="Times,serif" font-size="14.00">[task] ../../roles/kubeinit_prepare : add all hosts to the all_hosts group</text>
</a>
</g>
</g>
<!-- Play #1: Main deployment playbook for integrating submariner (0)&#45;&gt;task_22ccffd3&#45;a2df&#45;40e8&#45;90c1&#45;87d8eb18f82f -->
<g id="edge_3e74c3c0-93be-4a6e-8ff1-5ce7a4b96014" class="edge">
<title>Play #1: Main deployment playbook for integrating submariner (0)-&gt;task_22ccffd3-a2df-40e8-90c1-87d8eb18f82f</title>
<path fill="none" stroke="#fa9b5c" stroke-width="2" d="M939.01,-399.72C984.27,-399.72 1032.42,-399.72 1080.39,-399.72"/>
<polygon fill="#fa9b5c" stroke="#fa9b5c" stroke-width="2" points="1080.62,-403.22 1090.62,-399.72 1080.62,-396.22 1080.62,-403.22"/>
<text text-anchor="middle" x="966.26" y="-403.52" font-family="Times,serif" font-size="14.00" fill="#fa9b5c">8</text>
<links><link target="task_22ccffd3-a2df-40e8-90c1-87d8eb18f82f"/></links></g>
<!-- task_07cdeda1&#45;6dc9&#45;416e&#45;bc97&#45;649ccf1e69e0 -->
<g id="task_07cdeda1-6dc9-416e-bc97-649ccf1e69e0" class="node">
<title>task_07cdeda1-6dc9-416e-bc97-649ccf1e69e0</title>
<g id="a_task_07cdeda1-6dc9-416e-bc97-649ccf1e69e0"><a xlink:title="[task] ../../roles/kubeinit_prepare : list all_hosts">
<polygon fill="none" stroke="black" points="1700.61,-338.26 1700.61,-353.18 1555.24,-363.72 1349.65,-363.72 1204.28,-353.18 1204.28,-338.26 1349.65,-327.72 1555.24,-327.72 1700.61,-338.26"/>
<text text-anchor="middle" x="1452.44" y="-342.02" font-family="Times,serif" font-size="14.00">[task] ../../roles/kubeinit_prepare : list all_hosts</text>
</a>
</g>
</g>
<!-- Play #1: Main deployment playbook for integrating submariner (0)&#45;&gt;task_07cdeda1&#45;6dc9&#45;416e&#45;bc97&#45;649ccf1e69e0 -->
<g id="edge_1e731ff2-a9e3-43d5-b7f8-91076262ad5e" class="edge">
<title>Play #1: Main deployment playbook for integrating submariner (0)-&gt;task_07cdeda1-6dc9-416e-bc97-649ccf1e69e0</title>
<path fill="none" stroke="#fa9b5c" stroke-width="2" d="M883.59,-381.71C920.15,-378.51 958.13,-375.37 993.76,-372.72 1073.43,-366.8 1160.98,-361.38 1237.99,-356.96"/>
<polygon fill="#fa9b5c" stroke="#fa9b5c" stroke-width="2" points="1238.51,-360.44 1248.3,-356.38 1238.11,-353.45 1238.51,-360.44"/>
<text text-anchor="middle" x="966.26" y="-378.52" font-family="Times,serif" font-size="14.00" fill="#fa9b5c">9</text>
<links><link target="task_07cdeda1-6dc9-416e-bc97-649ccf1e69e0"/></links></g>
<!-- task_f86144f2&#45;6568&#45;4cca&#45;af4a&#45;4f7a3e43587d -->
<g id="task_f86144f2-6568-4cca-af4a-4f7a3e43587d" class="node">
<title>task_f86144f2-6568-4cca-af4a-4f7a3e43587d</title>
<g id="a_task_f86144f2-6568-4cca-af4a-4f7a3e43587d"><a xlink:title="[task] ../../roles/kubeinit_prepare : list all_nodes">
<polygon fill="none" stroke="black" points="1702.83,-284.26 1702.83,-299.18 1556.16,-309.72 1348.73,-309.72 1202.06,-299.18 1202.06,-284.26 1348.73,-273.72 1556.16,-273.72 1702.83,-284.26"/>
<text text-anchor="middle" x="1452.44" y="-288.02" font-family="Times,serif" font-size="14.00">[task] ../../roles/kubeinit_prepare : list all_nodes</text>
</a>
</g>
</g>
<!-- Play #1: Main deployment playbook for integrating submariner (0)&#45;&gt;task_f86144f2&#45;6568&#45;4cca&#45;af4a&#45;4f7a3e43587d -->
<g id="edge_71779f39-ca63-444a-b356-dbbf78ad700d" class="edge">
<title>Play #1: Main deployment playbook for integrating submariner (0)-&gt;task_f86144f2-6568-4cca-af4a-4f7a3e43587d</title>
<path fill="none" stroke="#fa9b5c" stroke-width="2" d="M746.01,-381.72C805.76,-362.54 905.49,-333.03 993.76,-318.72 1057.44,-308.4 1126.66,-301.91 1191.54,-297.85"/>
<polygon fill="#fa9b5c" stroke="#fa9b5c" stroke-width="2" points="1192.15,-301.32 1201.92,-297.22 1191.72,-294.34 1192.15,-301.32"/>
<text text-anchor="middle" x="966.26" y="-327.52" font-family="Times,serif" font-size="14.00" fill="#fa9b5c">10</text>
<links><link target="task_f86144f2-6568-4cca-af4a-4f7a3e43587d"/></links></g>
<!-- task_5441b8f5&#45;36ce&#45;4bfe&#45;b24f&#45;f5f570c49547 -->
<g id="task_5441b8f5-36ce-4bfe-b24f-f5f570c49547" class="node">
<title>task_5441b8f5-36ce-4bfe-b24f-f5f570c49547</title>
<g id="a_task_5441b8f5-36ce-4bfe-b24f-f5f570c49547"><a xlink:title="[task] ../../roles/kubeinit_prepare : list all_master_nodes">
<polygon fill="none" stroke="black" points="1743.03,-230.26 1743.03,-245.18 1572.81,-255.72 1332.08,-255.72 1161.86,-245.18 1161.86,-230.26 1332.08,-219.72 1572.81,-219.72 1743.03,-230.26"/>
<text text-anchor="middle" x="1452.44" y="-234.02" font-family="Times,serif" font-size="14.00">[task] ../../roles/kubeinit_prepare : list all_master_nodes</text>
</a>
</g>
</g>
<!-- Play #1: Main deployment playbook for integrating submariner (0)&#45;&gt;task_5441b8f5&#45;36ce&#45;4bfe&#45;b24f&#45;f5f570c49547 -->
<g id="edge_1d19938f-0082-4b0a-9bb4-8eb0b461ba3a" class="edge">
<title>Play #1: Main deployment playbook for integrating submariner (0)-&gt;task_5441b8f5-36ce-4bfe-b24f-f5f570c49547</title>
<path fill="none" stroke="#fa9b5c" stroke-width="2" d="M722.61,-381.63C775.53,-351.14 889.03,-290.35 993.76,-264.72 1044.15,-252.39 1098.55,-244.59 1151.65,-239.81"/>
<polygon fill="#fa9b5c" stroke="#fa9b5c" stroke-width="2" points="1152.24,-243.27 1161.9,-238.92 1151.63,-236.3 1152.24,-243.27"/>
<text text-anchor="middle" x="966.26" y="-277.52" font-family="Times,serif" font-size="14.00" fill="#fa9b5c">11</text>
<links><link target="task_5441b8f5-36ce-4bfe-b24f-f5f570c49547"/></links></g>
<!-- task_a21e59a6&#45;3547&#45;496a&#45;becf&#45;dc03caf3e568 -->
<g id="task_a21e59a6-3547-496a-becf-dc03caf3e568" class="node">
<title>task_a21e59a6-3547-496a-becf-dc03caf3e568</title>
<g id="a_task_a21e59a6-3547-496a-becf-dc03caf3e568"><a xlink:title="[task] ../../roles/kubeinit_prepare : list all_worker_nodes">
<polygon fill="none" stroke="black" points="1743.03,-176.26 1743.03,-191.18 1572.81,-201.72 1332.08,-201.72 1161.86,-191.18 1161.86,-176.26 1332.08,-165.72 1572.81,-165.72 1743.03,-176.26"/>
<text text-anchor="middle" x="1452.44" y="-180.02" font-family="Times,serif" font-size="14.00">[task] ../../roles/kubeinit_prepare : list all_worker_nodes</text>
</a>
</g>
</g>
<!-- Play #1: Main deployment playbook for integrating submariner (0)&#45;&gt;task_a21e59a6&#45;3547&#45;496a&#45;becf&#45;dc03caf3e568 -->
<g id="edge_4fb239a5-76f2-4e01-8e49-870d7e060445" class="edge">
<title>Play #1: Main deployment playbook for integrating submariner (0)-&gt;task_a21e59a6-3547-496a-becf-dc03caf3e568</title>
<path fill="none" stroke="#fa9b5c" stroke-width="2" d="M712.69,-381.65C758.84,-342.07 876.37,-248.25 993.76,-210.72 1043.73,-194.75 1098.29,-185.21 1151.78,-179.85"/>
<polygon fill="#fa9b5c" stroke="#fa9b5c" stroke-width="2" points="1152.14,-183.33 1161.76,-178.9 1151.47,-176.36 1152.14,-183.33"/>
<text text-anchor="middle" x="966.26" y="-227.52" font-family="Times,serif" font-size="14.00" fill="#fa9b5c">12</text>
<links><link target="task_a21e59a6-3547-496a-becf-dc03caf3e568"/></links></g>
<!-- task_aa6774e4&#45;09dd&#45;47a2&#45;a504&#45;50799bf9548f -->
<g id="task_aa6774e4-09dd-47a2-a504-50799bf9548f" class="node">
<title>task_aa6774e4-09dd-47a2-a504-50799bf9548f</title>
<g id="a_task_aa6774e4-09dd-47a2-a504-50799bf9548f"><a xlink:title="[task] ../../roles/kubeinit_prepare : list all_service_nodes">
<polygon fill="none" stroke="black" points="1743.93,-122.26 1743.93,-137.18 1573.18,-147.72 1331.7,-147.72 1160.95,-137.18 1160.95,-122.26 1331.7,-111.72 1573.18,-111.72 1743.93,-122.26"/>
<text text-anchor="middle" x="1452.44" y="-126.02" font-family="Times,serif" font-size="14.00">[task] ../../roles/kubeinit_prepare : list all_service_nodes</text>
</a>
</g>
</g>
<!-- Play #1: Main deployment playbook for integrating submariner (0)&#45;&gt;task_aa6774e4&#45;09dd&#45;47a2&#45;a504&#45;50799bf9548f -->
<g id="edge_ea59a8c6-4d2b-4ffa-b71f-0817e4cb1411" class="edge">
<title>Play #1: Main deployment playbook for integrating submariner (0)-&gt;task_aa6774e4-09dd-47a2-a504-50799bf9548f</title>
<path fill="none" stroke="#fa9b5c" stroke-width="2" d="M707.2,-381.59C747.51,-334.18 864.27,-206.75 993.76,-156.72 1078.49,-123.99 1178.61,-115.07 1263.58,-115.25"/>
<polygon fill="#fa9b5c" stroke="#fa9b5c" stroke-width="2" points="1263.57,-118.75 1273.6,-115.31 1263.62,-111.75 1263.57,-118.75"/>
<text text-anchor="middle" x="966.26" y="-172.52" font-family="Times,serif" font-size="14.00" fill="#fa9b5c">13</text>
<links><link target="task_aa6774e4-09dd-47a2-a504-50799bf9548f"/></links></g>
<!-- task_30abc2b7&#45;f867&#45;4195&#45;adc3&#45;3abbe23bcbde -->
<g id="task_30abc2b7-f867-4195-adc3-3abbe23bcbde" class="node">
<title>task_30abc2b7-f867-4195-adc3-3abbe23bcbde</title>
<g id="a_task_30abc2b7-f867-4195-adc3-3abbe23bcbde"><a xlink:title="[task] ../../roles/kubeinit_prepare : list all_bootstrap_nodes">
<polygon fill="none" stroke="black" points="1756.26,-68.26 1756.26,-83.18 1578.29,-93.72 1326.6,-93.72 1148.62,-83.18 1148.62,-68.26 1326.6,-57.72 1578.29,-57.72 1756.26,-68.26"/>
<text text-anchor="middle" x="1452.44" y="-72.02" font-family="Times,serif" font-size="14.00">[task] ../../roles/kubeinit_prepare : list all_bootstrap_nodes</text>
</a>
</g>
</g>
<!-- Play #1: Main deployment playbook for integrating submariner (0)&#45;&gt;task_30abc2b7&#45;f867&#45;4195&#45;adc3&#45;3abbe23bcbde -->
<g id="edge_cc143fbc-5cf5-4908-9844-f0bf3e327248" class="edge">
<title>Play #1: Main deployment playbook for integrating submariner (0)-&gt;task_30abc2b7-f867-4195-adc3-3abbe23bcbde</title>
<path fill="none" stroke="#fa9b5c" stroke-width="2" d="M703.56,-381.64C738.61,-327.39 851.77,-165.86 993.76,-102.72 1088.4,-60.64 1205.08,-54.36 1296.94,-58.36"/>
<polygon fill="#fa9b5c" stroke="#fa9b5c" stroke-width="2" points="1297,-61.87 1307.16,-58.85 1297.34,-54.88 1297,-61.87"/>
<text text-anchor="middle" x="966.26" y="-121.52" font-family="Times,serif" font-size="14.00" fill="#fa9b5c">14</text>
<links><link target="task_30abc2b7-f867-4195-adc3-3abbe23bcbde"/></links></g>
<!-- task_53817a72&#45;880f&#45;4655&#45;a189&#45;e9b0bf068b4d -->
<g id="task_53817a72-880f-4655-a189-e9b0bf068b4d" class="node">
<title>task_53817a72-880f-4655-a189-e9b0bf068b4d</title>
<g id="a_task_53817a72-880f-4655-a189-e9b0bf068b4d"><a xlink:title="[task] ../../roles/kubeinit_submariner : Execute subctl verify">
<polygon fill="none" stroke="black" points="1762.92,-14.26 1762.92,-29.18 1581.05,-39.72 1323.84,-39.72 1141.96,-29.18 1141.96,-14.26 1323.84,-3.72 1581.05,-3.72 1762.92,-14.26"/>
<text text-anchor="middle" x="1452.44" y="-18.02" font-family="Times,serif" font-size="14.00">[task] ../../roles/kubeinit_submariner : Execute subctl verify</text>
</a>
</g>
</g>
<!-- Play #1: Main deployment playbook for integrating submariner (0)&#45;&gt;task_53817a72&#45;880f&#45;4655&#45;a189&#45;e9b0bf068b4d -->
<g id="edge_05b4eecc-76cd-4467-89af-6087ca42a73d" class="edge">
<title>Play #1: Main deployment playbook for integrating submariner (0)-&gt;task_53817a72-880f-4655-a189-e9b0bf068b4d</title>
<path fill="none" stroke="#fa9b5c" stroke-width="2" d="M701.08,-381.5C731.53,-320.86 839.01,-125.4 993.76,-48.72 1093.82,0.85 1221.65,4.2 1316.77,-2.9"/>
<polygon fill="#fa9b5c" stroke="#fa9b5c" stroke-width="2" points="1316.5,-6.39 1326.75,-3.69 1317.06,0.59 1316.5,-6.39"/>
<text text-anchor="middle" x="966.26" y="-70.52" font-family="Times,serif" font-size="14.00" fill="#fa9b5c">15</text>
<links><link target="task_53817a72-880f-4655-a189-e9b0bf068b4d"/></links></g>
</g>
</svg>