<?xml version="1.0" encoding="UTF-8" standalone="no"?>
<!DOCTYPE svg PUBLIC "-//W3C//DTD SVG 1.1//EN"
 "http://www.w3.org/Graphics/SVG/1.1/DTD/svg11.dtd">
<!-- Generated by graphviz version 2.43.0 (0)
 -->
<!-- Title: kubeinit/playbook.yml  Pages: 1 -->
<svg width="3480pt" height="1674pt"
 viewBox="0.00 0.00 3480.22 1673.54" xmlns="http://www.w3.org/2000/svg" xmlns:xlink="http://www.w3.org/1999/xlink">
<g id="graph0" class="graph" transform="scale(1 1) rotate(0) translate(4 1669.54)">
<title>kubeinit/playbook.yml </title>
<polygon fill="white" stroke="transparent" points="-4,4 -4,-1669.54 3476.22,-1669.54 3476.22,4 -4,4"/>
<!-- kubeinit/playbook.yml -->
<g id="root_node" class="node">
<title>kubeinit/playbook.yml</title>
<ellipse fill="none" stroke="black" stroke-dasharray="1,5" cx="113.09" cy="-848.54" rx="113.18" ry="18"/>
<text text-anchor="middle" x="113.09" y="-844.84" font-family="Times,serif" font-size="14.00">kubeinit/playbook.yml</text>
</g>
<!-- task&#45;prepare&#45;hypervisors -->
<g id="play_99e8e09e&#45;bd6e&#45;4e29&#45;942a&#45;3ea6620e52b3" class="node">
<title>task&#45;prepare&#45;hypervisors</title>
<polygon fill="none" stroke="#000000" points="547.83,-841.08 547.83,-856 467.13,-866.54 353,-866.54 272.3,-856 272.3,-841.08 353,-830.54 467.13,-830.54 547.83,-841.08"/>
<text text-anchor="middle" x="410.06" y="-844.84" font-family="Times,serif" font-size="14.00" fill="#000000">task&#45;prepare&#45;hypervisors</text>
</g>
<!-- kubeinit/playbook.yml&#45;&gt;task&#45;prepare&#45;hypervisors -->
<g id="edge_daf17ed6&#45;b845&#45;490e&#45;864a&#45;80d8993d2bb9" class="edge">
<title>kubeinit/playbook.yml&#45;&gt;task&#45;prepare&#45;hypervisors</title>
<path fill="none" stroke="#000000" stroke-width="2" d="M226.45,-848.54C238.15,-848.54 250.17,-848.54 262.18,-848.54"/>
<polygon fill="#000000" stroke="#000000" stroke-width="2" points="262.26,-852.04 272.26,-848.54 262.26,-845.04 262.26,-852.04"/>
<text text-anchor="middle" x="249.18" y="-852.34" font-family="Times,serif" font-size="14.00" fill="#000000">2</text>
</g>
<!-- task_4423c73f&#45;39af&#45;4feb&#45;9531&#45;fe32cfd03961 -->
<g id="task_4423c73f&#45;39af&#45;4feb&#45;9531&#45;fe32cfd03961" class="node">
<title>task_4423c73f&#45;39af&#45;4feb&#45;9531&#45;fe32cfd03961</title>
<g id="a_task_4423c73f&#45;39af&#45;4feb&#45;9531&#45;fe32cfd03961"><a xlink:title="[task] kubeinit.kubeinit.kubeinit_libvirt : Show ansible_distribution">
<polygon fill="none" stroke="black" points="3108.04,-1624.08 3108.04,-1639 2903.92,-1649.54 2615.25,-1649.54 2411.13,-1639 2411.13,-1624.08 2615.25,-1613.54 2903.92,-1613.54 3108.04,-1624.08"/>
<text text-anchor="middle" x="2759.59" y="-1627.84" font-family="Times,serif" font-size="14.00">[task] kubeinit.kubeinit.kubeinit_libvirt : Show ansible_distribution</text>
</a>
</g>
</g>
<!-- task&#45;prepare&#45;hypervisors&#45;&gt;task_4423c73f&#45;39af&#45;4feb&#45;9531&#45;fe32cfd03961 -->
<g id="edge_c71abfae&#45;ea9c&#45;4f68&#45;b416&#45;dfef2f518e73" class="edge">
<title>task&#45;prepare&#45;hypervisors&#45;&gt;task_4423c73f&#45;39af&#45;4feb&#45;9531&#45;fe32cfd03961</title>
<path fill="none" stroke="#000000" stroke-width="2" d="M411.8,-866.74C416.51,-972.89 446.11,-1510.63 565.95,-1609.54 635.51,-1666.96 1804.2,-1651.41 2406.19,-1639.47"/>
<polygon fill="#000000" stroke="#000000" stroke-width="2" points="2406.4,-1642.96 2416.33,-1639.27 2406.26,-1635.97 2406.4,-1642.96"/>
<text text-anchor="middle" x="1297.45" y="-1654.34" font-family="Times,serif" font-size="14.00" fill="#000000">1</text>
</g>
<!-- task_83a964b0&#45;b53e&#45;4759&#45;9034&#45;0bbbf0c3da25 -->
<g id="task_83a964b0&#45;b53e&#45;4759&#45;9034&#45;0bbbf0c3da25" class="node">
<title>task_83a964b0&#45;b53e&#45;4759&#45;9034&#45;0bbbf0c3da25</title>
<g id="a_task_83a964b0&#45;b53e&#45;4759&#45;9034&#45;0bbbf0c3da25"><a xlink:title="[task] kubeinit.kubeinit.kubeinit_libvirt : Show distribution_family">
<polygon fill="none" stroke="black" points="3102.7,-1570.08 3102.7,-1585 2901.71,-1595.54 2617.47,-1595.54 2416.48,-1585 2416.48,-1570.08 2617.47,-1559.54 2901.71,-1559.54 3102.7,-1570.08"/>
<text text-anchor="middle" x="2759.59" y="-1573.84" font-family="Times,serif" font-size="14.00">[task] kubeinit.kubeinit.kubeinit_libvirt : Show distribution_family</text>
</a>
</g>
</g>
<!-- task&#45;prepare&#45;hypervisors&#45;&gt;task_83a964b0&#45;b53e&#45;4759&#45;9034&#45;0bbbf0c3da25 -->
<g id="edge_f88e6e39&#45;671c&#45;4e9e&#45;aac4&#45;ceffc9cc9eba" class="edge">
<title>task&#45;prepare&#45;hypervisors&#45;&gt;task_83a964b0&#45;b53e&#45;4759&#45;9034&#45;0bbbf0c3da25</title>
<path fill="none" stroke="#000000" stroke-width="2" d="M412.18,-866.84C418.72,-967.84 455.77,-1455.83 565.95,-1545.54 635.9,-1602.5 1804.4,-1592.65 2406.27,-1583.7"/>
<polygon fill="#000000" stroke="#000000" stroke-width="2" points="2406.46,-1587.2 2416.41,-1583.55 2406.36,-1580.2 2406.46,-1587.2"/>
<text text-anchor="middle" x="1297.45" y="-1594.34" font-family="Times,serif" font-size="14.00" fill="#000000">2</text>
</g>
<!-- task_0fc1e4b2&#45;f8f0&#45;41ce&#45;a2a1&#45;aa09d20bbc35 -->
<g id="task_0fc1e4b2&#45;f8f0&#45;41ce&#45;a2a1&#45;aa09d20bbc35" class="node">
<title>task_0fc1e4b2&#45;f8f0&#45;41ce&#45;a2a1&#45;aa09d20bbc35</title>
<g id="a_task_0fc1e4b2&#45;f8f0&#45;41ce&#45;a2a1&#45;aa09d20bbc35"><a xlink:title="[task] kubeinit.kubeinit.kubeinit_libvirt : Fails if CentOS 7 hypervisor">
<polygon fill="none" stroke="black" points="3119.96,-1516.08 3119.96,-1531 2908.86,-1541.54 2610.31,-1541.54 2399.21,-1531 2399.21,-1516.08 2610.31,-1505.54 2908.86,-1505.54 3119.96,-1516.08"/>
<text text-anchor="middle" x="2759.59" y="-1519.84" font-family="Times,serif" font-size="14.00">[task] kubeinit.kubeinit.kubeinit_libvirt : Fails if CentOS 7 hypervisor</text>
</a>
</g>
</g>
<!-- task&#45;prepare&#45;hypervisors&#45;&gt;task_0fc1e4b2&#45;f8f0&#45;41ce&#45;a2a1&#45;aa09d20bbc35 -->
<g id="edge_953ebae8&#45;9eed&#45;46f6&#45;8475&#45;258e30d478ac" class="edge">
<title>task&#45;prepare&#45;hypervisors&#45;&gt;task_0fc1e4b2&#45;f8f0&#45;41ce&#45;a2a1&#45;aa09d20bbc35</title>
<path fill="none" stroke="#000000" stroke-width="2" d="M412.44,-866.65C420.21,-963.45 461.94,-1418.46 565.95,-1501.54 600.99,-1529.53 1773.21,-1528.23 2388.95,-1525.6"/>
<polygon fill="#000000" stroke="#000000" stroke-width="2" points="2389.34,-1529.09 2399.33,-1525.55 2389.31,-1522.09 2389.34,-1529.09"/>
<text text-anchor="middle" x="1297.45" y="-1530.34" font-family="Times,serif" font-size="14.00" fill="#000000">3 &#160;[when: (hostvars[kubeinit_deployment_node_name].ansible_distribution == &#39;CentOS&#39; and hostvars[kubeinit_deployment_node_name].ansible_distribution_major_version == &quot;7&quot;)]</text>
</g>
<!-- task_e5d1c0ff&#45;5705&#45;4081&#45;974e&#45;cce7c4a72949 -->
<g id="task_e5d1c0ff&#45;5705&#45;4081&#45;974e&#45;cce7c4a72949" class="node">
<title>task_e5d1c0ff&#45;5705&#45;4081&#45;974e&#45;cce7c4a72949</title>
<g id="a_task_e5d1c0ff&#45;5705&#45;4081&#45;974e&#45;cce7c4a72949"><a xlink:title="[task] kubeinit.kubeinit.kubeinit_libvirt : Fix libvirt qemu bug">
<polygon fill="none" stroke="black" points="3080.17,-1462.08 3080.17,-1477 2892.38,-1487.54 2626.8,-1487.54 2439,-1477 2439,-1462.08 2626.8,-1451.54 2892.38,-1451.54 3080.17,-1462.08"/>
<text text-anchor="middle" x="2759.59" y="-1465.84" font-family="Times,serif" font-size="14.00">[task] kubeinit.kubeinit.kubeinit_libvirt : Fix libvirt qemu bug</text>
</a>
</g>
</g>
<!-- task&#45;prepare&#45;hypervisors&#45;&gt;task_e5d1c0ff&#45;5705&#45;4081&#45;974e&#45;cce7c4a72949 -->
<g id="edge_9f678eee&#45;9449&#45;4ba0&#45;80fa&#45;f3695b994cf5" class="edge">
<title>task&#45;prepare&#45;hypervisors&#45;&gt;task_e5d1c0ff&#45;5705&#45;4081&#45;974e&#45;cce7c4a72949</title>
<path fill="none" stroke="#000000" stroke-width="2" d="M412.86,-866.6C422.38,-958.26 470.13,-1370.57 565.95,-1445.54 637.89,-1501.83 1834.63,-1487.2 2428.99,-1476.36"/>
<polygon fill="#000000" stroke="#000000" stroke-width="2" points="2429.07,-1479.85 2439,-1476.17 2428.94,-1472.86 2429.07,-1479.85"/>
<text text-anchor="middle" x="1297.45" y="-1489.34" font-family="Times,serif" font-size="14.00" fill="#000000">4</text>
</g>
<!-- task_2e5dfab4&#45;0fbe&#45;4f2e&#45;9d6c&#45;a0b665076947 -->
<g id="task_2e5dfab4&#45;0fbe&#45;4f2e&#45;9d6c&#45;a0b665076947" class="node">
<title>task_2e5dfab4&#45;0fbe&#45;4f2e&#45;9d6c&#45;a0b665076947</title>
<g id="a_task_2e5dfab4&#45;0fbe&#45;4f2e&#45;9d6c&#45;a0b665076947"><a xlink:title="[task] kubeinit.kubeinit.kubeinit_libvirt : Install CentOS based requirements">
<polygon fill="none" stroke="black" points="3154.81,-1408.08 3154.81,-1423 2923.29,-1433.54 2595.88,-1433.54 2364.36,-1423 2364.36,-1408.08 2595.88,-1397.54 2923.29,-1397.54 3154.81,-1408.08"/>
<text text-anchor="middle" x="2759.59" y="-1411.84" font-family="Times,serif" font-size="14.00">[task] kubeinit.kubeinit.kubeinit_libvirt : Install CentOS based requirements</text>
</a>
</g>
</g>
<!-- task&#45;prepare&#45;hypervisors&#45;&gt;task_2e5dfab4&#45;0fbe&#45;4f2e&#45;9d6c&#45;a0b665076947 -->
<g id="edge_58823fd4&#45;aead&#45;4e1d&#45;ba2f&#45;f4f31ba043eb" class="edge">
<title>task&#45;prepare&#45;hypervisors&#45;&gt;task_2e5dfab4&#45;0fbe&#45;4f2e&#45;9d6c&#45;a0b665076947</title>
<path fill="none" stroke="#000000" stroke-width="2" d="M413.45,-866.66C425.15,-952.47 479.42,-1316.52 565.95,-1382.54 635.62,-1435.7 1739.6,-1429.46 2353.82,-1421.76"/>
<polygon fill="#000000" stroke="#000000" stroke-width="2" points="2354.23,-1425.26 2364.18,-1421.63 2354.14,-1418.26 2354.23,-1425.26"/>
<text text-anchor="middle" x="1297.45" y="-1430.34" font-family="Times,serif" font-size="14.00" fill="#000000">5 &#160;[when: hostvars[kubeinit_deployment_node_name].distribution_family == &#39;CentOS&#39; or hostvars[kubeinit_deployment_node_name].distribution_family == &#39;Fedora&#39;]</text>
</g>
<!-- task_ba1a104d&#45;8249&#45;4bc0&#45;9e90&#45;f3bff096b18d -->
<g id="task_ba1a104d&#45;8249&#45;4bc0&#45;9e90&#45;f3bff096b18d" class="node">
<title>task_ba1a104d&#45;8249&#45;4bc0&#45;9e90&#45;f3bff096b18d</title>
<g id="a_task_ba1a104d&#45;8249&#45;4bc0&#45;9e90&#45;f3bff096b18d"><a xlink:title="[task] kubeinit.kubeinit.kubeinit_libvirt : Install Debian based requirements">
<polygon fill="none" stroke="black" points="3151.28,-1354.08 3151.28,-1369 2921.83,-1379.54 2597.34,-1379.54 2367.9,-1369 2367.9,-1354.08 2597.34,-1343.54 2921.83,-1343.54 3151.28,-1354.08"/>
<text text-anchor="middle" x="2759.59" y="-1357.84" font-family="Times,serif" font-size="14.00">[task] kubeinit.kubeinit.kubeinit_libvirt : Install Debian based requirements</text>
</a>
</g>
</g>
<!-- task&#45;prepare&#45;hypervisors&#45;&gt;task_ba1a104d&#45;8249&#45;4bc0&#45;9e90&#45;f3bff096b18d -->
<g id="edge_613cdf29&#45;a161&#45;4ab3&#45;a042&#45;13ff2ec2e044" class="edge">
<title>task&#45;prepare&#45;hypervisors&#45;&gt;task_ba1a104d&#45;8249&#45;4bc0&#45;9e90&#45;f3bff096b18d</title>
<path fill="none" stroke="#000000" stroke-width="2" d="M413.9,-866.57C427.13,-947.98 485.42,-1279.88 565.95,-1339.54 601.38,-1365.79 1734.82,-1365.56 2357.79,-1363.44"/>
<polygon fill="#000000" stroke="#000000" stroke-width="2" points="2357.85,-1366.94 2367.84,-1363.4 2357.83,-1359.94 2357.85,-1366.94"/>
<text text-anchor="middle" x="1297.45" y="-1367.34" font-family="Times,serif" font-size="14.00" fill="#000000">6 &#160;[when: hostvars[kubeinit_deployment_node_name].distribution_family == &#39;Debian&#39;]</text>
</g>
<!-- task_ca276fd2&#45;5c1c&#45;49c8&#45;947f&#45;0fabfd2b07bc -->
<g id="task_ca276fd2&#45;5c1c&#45;49c8&#45;947f&#45;0fabfd2b07bc" class="node">
<title>task_ca276fd2&#45;5c1c&#45;49c8&#45;947f&#45;0fabfd2b07bc</title>
<g id="a_task_ca276fd2&#45;5c1c&#45;49c8&#45;947f&#45;0fabfd2b07bc"><a xlink:title="[task] kubeinit.kubeinit.kubeinit_libvirt : Upgrade all packages">
<polygon fill="none" stroke="black" points="3085.93,-1300.08 3085.93,-1315 2894.76,-1325.54 2624.41,-1325.54 2433.25,-1315 2433.25,-1300.08 2624.41,-1289.54 2894.76,-1289.54 3085.93,-1300.08"/>
<text text-anchor="middle" x="2759.59" y="-1303.84" font-family="Times,serif" font-size="14.00">[task] kubeinit.kubeinit.kubeinit_libvirt : Upgrade all packages</text>
</a>
</g>
</g>
<!-- task&#45;prepare&#45;hypervisors&#45;&gt;task_ca276fd2&#45;5c1c&#45;49c8&#45;947f&#45;0fabfd2b07bc -->
<g id="edge_1ba794bd&#45;9090&#45;45b3&#45;9d2a&#45;d9973dd60419" class="edge">
<title>task&#45;prepare&#45;hypervisors&#45;&gt;task_ca276fd2&#45;5c1c&#45;49c8&#45;947f&#45;0fabfd2b07bc</title>
<path fill="none" stroke="#000000" stroke-width="2" d="M410.85,-866.87C411.13,-936.12 422.49,-1183.1 565.95,-1285.54 640.02,-1338.43 1827.33,-1324.57 2423.07,-1314.18"/>
<polygon fill="#000000" stroke="#000000" stroke-width="2" points="2423.17,-1317.68 2433.11,-1314 2423.05,-1310.68 2423.17,-1317.68"/>
<text text-anchor="middle" x="1297.45" y="-1327.34" font-family="Times,serif" font-size="14.00" fill="#000000">7</text>
</g>
<!-- task_c72edc74&#45;d886&#45;49b1&#45;939a&#45;3eb6d43f14ec -->
<g id="task_c72edc74&#45;d886&#45;49b1&#45;939a&#45;3eb6d43f14ec" class="node">
<title>task_c72edc74&#45;d886&#45;49b1&#45;939a&#45;3eb6d43f14ec</title>
<g id="a_task_c72edc74&#45;d886&#45;49b1&#45;939a&#45;3eb6d43f14ec"><a xlink:title="[task] kubeinit.kubeinit.kubeinit_libvirt : Add users to libvirt">
<polygon fill="none" stroke="black" points="3074.92,-1246.08 3074.92,-1261 2890.2,-1271.54 2628.97,-1271.54 2444.26,-1261 2444.26,-1246.08 2628.97,-1235.54 2890.2,-1235.54 3074.92,-1246.08"/>
<text text-anchor="middle" x="2759.59" y="-1249.84" font-family="Times,serif" font-size="14.00">[task] kubeinit.kubeinit.kubeinit_libvirt : Add users to libvirt</text>
</a>
</g>
</g>
<!-- task&#45;prepare&#45;hypervisors&#45;&gt;task_c72edc74&#45;d886&#45;49b1&#45;939a&#45;3eb6d43f14ec -->
<g id="edge_254c1923&#45;44d4&#45;47b6&#45;b014&#45;d50dc13484de" class="edge">
<title>task&#45;prepare&#45;hypervisors&#45;&gt;task_c72edc74&#45;d886&#45;49b1&#45;939a&#45;3eb6d43f14ec</title>
<path fill="none" stroke="#000000" stroke-width="2" d="M411.86,-866.74C415.74,-930.19 438.17,-1142.53 565.95,-1229.54 641.63,-1281.07 1842.02,-1268.7 2433.82,-1259.37"/>
<polygon fill="#000000" stroke="#000000" stroke-width="2" points="2434.28,-1262.87 2444.22,-1259.21 2434.17,-1255.87 2434.28,-1262.87"/>
<text text-anchor="middle" x="1297.45" y="-1271.34" font-family="Times,serif" font-size="14.00" fill="#000000">8</text>
</g>
<!-- task_7380e8f1&#45;3390&#45;415f&#45;90a8&#45;976f06511b0a -->
<g id="task_7380e8f1&#45;3390&#45;415f&#45;90a8&#45;976f06511b0a" class="node">
<title>task_7380e8f1&#45;3390&#45;415f&#45;90a8&#45;976f06511b0a</title>
<g id="a_task_7380e8f1&#45;3390&#45;415f&#45;90a8&#45;976f06511b0a"><a xlink:title="[task] kubeinit.kubeinit.kubeinit_libvirt : Reboot host and wait for it to restart">
<polygon fill="none" stroke="black" points="3163.2,-1192.08 3163.2,-1207 2926.77,-1217.54 2592.41,-1217.54 2355.98,-1207 2355.98,-1192.08 2592.41,-1181.54 2926.77,-1181.54 3163.2,-1192.08"/>
<text text-anchor="middle" x="2759.59" y="-1195.84" font-family="Times,serif" font-size="14.00">[task] kubeinit.kubeinit.kubeinit_libvirt : Reboot host and wait for it to restart</text>
</a>
</g>
</g>
<!-- task&#45;prepare&#45;hypervisors&#45;&gt;task_7380e8f1&#45;3390&#45;415f&#45;90a8&#45;976f06511b0a -->
<g id="edge_97ce4659&#45;e408&#45;4995&#45;8698&#45;664a1de1f7f4" class="edge">
<title>task&#45;prepare&#45;hypervisors&#45;&gt;task_7380e8f1&#45;3390&#45;415f&#45;90a8&#45;976f06511b0a</title>
<path fill="none" stroke="#000000" stroke-width="2" d="M413.23,-866.84C421.13,-924.22 454.04,-1101.04 565.95,-1172.54 639.42,-1219.49 1730.81,-1213.06 2345.46,-1205.62"/>
<polygon fill="#000000" stroke="#000000" stroke-width="2" points="2345.87,-1209.11 2355.83,-1205.49 2345.79,-1202.11 2345.87,-1209.11"/>
<text text-anchor="middle" x="1297.45" y="-1214.34" font-family="Times,serif" font-size="14.00" fill="#000000">9 &#160;[when: (_result_installed_packages_centos.changed or _result_installed_packages_debian.changed or _result_upgraded_packages.changed) and kubeinit_libvirt_reboot_hypervisors_after_package_update]</text>
</g>
<!-- task_aa04da0d&#45;6498&#45;4d44&#45;89dc&#45;8d1cb2c0675b -->
<g id="task_aa04da0d&#45;6498&#45;4d44&#45;89dc&#45;8d1cb2c0675b" class="node">
<title>task_aa04da0d&#45;6498&#45;4d44&#45;89dc&#45;8d1cb2c0675b</title>
<g id="a_task_aa04da0d&#45;6498&#45;4d44&#45;89dc&#45;8d1cb2c0675b"><a xlink:title="[task] kubeinit.kubeinit.kubeinit_libvirt : Clear installed/upgraded packages facts">
<polygon fill="none" stroke="black" points="3178.65,-1138.08 3178.65,-1153 2933.17,-1163.54 2586.01,-1163.54 2340.52,-1153 2340.52,-1138.08 2586.01,-1127.54 2933.17,-1127.54 3178.65,-1138.08"/>
<text text-anchor="middle" x="2759.59" y="-1141.84" font-family="Times,serif" font-size="14.00">[task] kubeinit.kubeinit.kubeinit_libvirt : Clear installed/upgraded packages facts</text>
</a>
</g>
</g>
<!-- task&#45;prepare&#45;hypervisors&#45;&gt;task_aa04da0d&#45;6498&#45;4d44&#45;89dc&#45;8d1cb2c0675b -->
<g id="edge_586262a7&#45;206b&#45;474a&#45;83b6&#45;8844176ddcb2" class="edge">
<title>task&#45;prepare&#45;hypervisors&#45;&gt;task_aa04da0d&#45;6498&#45;4d44&#45;89dc&#45;8d1cb2c0675b</title>
<path fill="none" stroke="#000000" stroke-width="2" d="M415.01,-866.58C427.13,-917.06 469.04,-1059.76 565.95,-1116.54 640.52,-1160.23 1713.01,-1156.53 2329.85,-1150.68"/>
<polygon fill="#000000" stroke="#000000" stroke-width="2" points="2330.29,-1154.18 2340.25,-1150.58 2330.22,-1147.18 2330.29,-1154.18"/>
<text text-anchor="middle" x="1297.45" y="-1157.34" font-family="Times,serif" font-size="14.00" fill="#000000">10</text>
</g>
<!-- task_dc21f2b0&#45;1ea0&#45;48e5&#45;8e0d&#45;319bf0e3b5c4 -->
<g id="task_dc21f2b0&#45;1ea0&#45;48e5&#45;8e0d&#45;319bf0e3b5c4" class="node">
<title>task_dc21f2b0&#45;1ea0&#45;48e5&#45;8e0d&#45;319bf0e3b5c4</title>
<g id="a_task_dc21f2b0&#45;1ea0&#45;48e5&#45;8e0d&#45;319bf0e3b5c4"><a xlink:title="[task] kubeinit.kubeinit.kubeinit_libvirt : Check if Intel virtualization is supported">
<polygon fill="none" stroke="black" points="3180.87,-1084.08 3180.87,-1099 2934.09,-1109.54 2585.09,-1109.54 2338.3,-1099 2338.3,-1084.08 2585.09,-1073.54 2934.09,-1073.54 3180.87,-1084.08"/>
<text text-anchor="middle" x="2759.59" y="-1087.84" font-family="Times,serif" font-size="14.00">[task] kubeinit.kubeinit.kubeinit_libvirt : Check if Intel virtualization is supported</text>
</a>
</g>
</g>
<!-- task&#45;prepare&#45;hypervisors&#45;&gt;task_dc21f2b0&#45;1ea0&#45;48e5&#45;8e0d&#45;319bf0e3b5c4 -->
<g id="edge_e47b77ae&#45;7bf2&#45;4096&#45;9f62&#45;473e600a5552" class="edge">
<title>task&#45;prepare&#45;hypervisors&#45;&gt;task_dc21f2b0&#45;1ea0&#45;48e5&#45;8e0d&#45;319bf0e3b5c4</title>
<path fill="none" stroke="#000000" stroke-width="2" d="M417.63,-866.66C434.43,-909.93 483.53,-1018.85 565.95,-1061.54 642.59,-1101.24 1711.35,-1099.74 2327.87,-1095.5"/>
<polygon fill="#000000" stroke="#000000" stroke-width="2" points="2328.29,-1098.99 2338.27,-1095.42 2328.24,-1091.99 2328.29,-1098.99"/>
<text text-anchor="middle" x="1297.45" y="-1101.34" font-family="Times,serif" font-size="14.00" fill="#000000">11</text>
</g>
<!-- task_6c92da04&#45;793e&#45;4eb5&#45;a513&#45;3ddc8597693b -->
<g id="task_6c92da04&#45;793e&#45;4eb5&#45;a513&#45;3ddc8597693b" class="node">
<title>task_6c92da04&#45;793e&#45;4eb5&#45;a513&#45;3ddc8597693b</title>
<g id="a_task_6c92da04&#45;793e&#45;4eb5&#45;a513&#45;3ddc8597693b"><a xlink:title="[task] kubeinit.kubeinit.kubeinit_libvirt : Check if AMD virtualization is supported">
<polygon fill="none" stroke="black" points="3182.18,-1030.08 3182.18,-1045 2934.63,-1055.54 2584.54,-1055.54 2336.99,-1045 2336.99,-1030.08 2584.54,-1019.54 2934.63,-1019.54 3182.18,-1030.08"/>
<text text-anchor="middle" x="2759.59" y="-1033.84" font-family="Times,serif" font-size="14.00">[task] kubeinit.kubeinit.kubeinit_libvirt : Check if AMD virtualization is supported</text>
</a>
</g>
</g>
<!-- task&#45;prepare&#45;hypervisors&#45;&gt;task_6c92da04&#45;793e&#45;4eb5&#45;a513&#45;3ddc8597693b -->
<g id="edge_75132ebb&#45;894a&#45;4190&#45;8784&#45;c4c4174676e7" class="edge">
<title>task&#45;prepare&#45;hypervisors&#45;&gt;task_6c92da04&#45;793e&#45;4eb5&#45;a513&#45;3ddc8597693b</title>
<path fill="none" stroke="#000000" stroke-width="2" d="M421.18,-866.54C442.47,-902.38 495.81,-981.83 565.95,-1012.54 644.93,-1047.12 1710.56,-1045.27 2326.58,-1041.24"/>
<polygon fill="#000000" stroke="#000000" stroke-width="2" points="2327,-1044.74 2336.98,-1041.17 2326.95,-1037.74 2327,-1044.74"/>
<text text-anchor="middle" x="1297.45" y="-1046.34" font-family="Times,serif" font-size="14.00" fill="#000000">12</text>
</g>
<!-- task_a4100ec3&#45;153c&#45;4cef&#45;88da&#45;8fb6d92007d3 -->
<g id="task_a4100ec3&#45;153c&#45;4cef&#45;88da&#45;8fb6d92007d3" class="node">
<title>task_a4100ec3&#45;153c&#45;4cef&#45;88da&#45;8fb6d92007d3</title>
<g id="a_task_a4100ec3&#45;153c&#45;4cef&#45;88da&#45;8fb6d92007d3"><a xlink:title="[task] kubeinit.kubeinit.kubeinit_libvirt : Fail in case no Intel or AMD virtualization support is not detected and is not a hosted deployment.">
<polygon fill="none" stroke="black" points="3472.36,-976.08 3472.36,-991 3054.83,-1001.54 2464.35,-1001.54 2046.81,-991 2046.81,-976.08 2464.35,-965.54 3054.83,-965.54 3472.36,-976.08"/>
<text text-anchor="middle" x="2759.59" y="-979.84" font-family="Times,serif" font-size="14.00">[task] kubeinit.kubeinit.kubeinit_libvirt : Fail in case no Intel or AMD virtualization support is not detected and is not a hosted deployment.</text>
</a>
</g>
</g>
<!-- task&#45;prepare&#45;hypervisors&#45;&gt;task_a4100ec3&#45;153c&#45;4cef&#45;88da&#45;8fb6d92007d3 -->
<g id="edge_16055787&#45;d2e6&#45;4566&#45;9b9a&#45;0fc60b335be3" class="edge">
<title>task&#45;prepare&#45;hypervisors&#45;&gt;task_a4100ec3&#45;153c&#45;4cef&#45;88da&#45;8fb6d92007d3</title>
<path fill="none" stroke="#000000" stroke-width="2" d="M430.65,-866.89C458.29,-891.43 511.48,-933.77 565.95,-950.54 708.23,-994.35 1495.26,-996.94 2086,-992.33"/>
<polygon fill="#000000" stroke="#000000" stroke-width="2" points="2086.45,-995.83 2096.43,-992.25 2086.4,-988.83 2086.45,-995.83"/>
<text text-anchor="middle" x="1297.45" y="-997.34" font-family="Times,serif" font-size="14.00" fill="#000000">13 &#160;[when: _result_intel_processor.rc != 0 and _result_amd_processor.rc != 0 and not (kubeinit_inventory_hosted_deployment | default(false))]</text>
</g>
<!-- task_2bb07fa9&#45;fd59&#45;4cb0&#45;aac9&#45;c81a7430dd67 -->
<g id="task_2bb07fa9&#45;fd59&#45;4cb0&#45;aac9&#45;c81a7430dd67" class="node">
<title>task_2bb07fa9&#45;fd59&#45;4cb0&#45;aac9&#45;c81a7430dd67</title>
<g id="a_task_2bb07fa9&#45;fd59&#45;4cb0&#45;aac9&#45;c81a7430dd67"><a xlink:title="[task] kubeinit.kubeinit.kubeinit_libvirt : Set fact for Intel virtualization">
<polygon fill="none" stroke="black" points="3130.57,-922.08 3130.57,-937 2913.25,-947.54 2605.92,-947.54 2388.61,-937 2388.61,-922.08 2605.92,-911.54 2913.25,-911.54 3130.57,-922.08"/>
<text text-anchor="middle" x="2759.59" y="-925.84" font-family="Times,serif" font-size="14.00">[task] kubeinit.kubeinit.kubeinit_libvirt : Set fact for Intel virtualization</text>
</a>
</g>
</g>
<!-- task&#45;prepare&#45;hypervisors&#45;&gt;task_2bb07fa9&#45;fd59&#45;4cb0&#45;aac9&#45;c81a7430dd67 -->
<g id="edge_405a3d8c&#45;9ba8&#45;4a9c&#45;ad68&#45;f027bc19df9f" class="edge">
<title>task&#45;prepare&#45;hypervisors&#45;&gt;task_2bb07fa9&#45;fd59&#45;4cb0&#45;aac9&#45;c81a7430dd67</title>
<path fill="none" stroke="#000000" stroke-width="2" d="M471.19,-866.08C499.66,-873.56 534.28,-881.49 565.95,-885.54 904.8,-928.9 1845.97,-933.09 2378.55,-931.72"/>
<polygon fill="#000000" stroke="#000000" stroke-width="2" points="2378.71,-935.22 2388.7,-931.7 2378.69,-928.22 2378.71,-935.22"/>
<text text-anchor="middle" x="1297.45" y="-935.34" font-family="Times,serif" font-size="14.00" fill="#000000">14 &#160;[when: _result_intel_processor.rc == 0]</text>
</g>
<!-- task_b0f1cc3b&#45;dca9&#45;4c42&#45;b321&#45;a78bc0c15f41 -->
<g id="task_b0f1cc3b&#45;dca9&#45;4c42&#45;b321&#45;a78bc0c15f41" class="node">
<title>task_b0f1cc3b&#45;dca9&#45;4c42&#45;b321&#45;a78bc0c15f41</title>
<g id="a_task_b0f1cc3b&#45;dca9&#45;4c42&#45;b321&#45;a78bc0c15f41"><a xlink:title="[task] kubeinit.kubeinit.kubeinit_libvirt : Set fact for AMD virtualization">
<polygon fill="none" stroke="black" points="3132.29,-868.08 3132.29,-883 2913.97,-893.54 2605.21,-893.54 2386.88,-883 2386.88,-868.08 2605.21,-857.54 2913.97,-857.54 3132.29,-868.08"/>
<text text-anchor="middle" x="2759.59" y="-871.84" font-family="Times,serif" font-size="14.00">[task] kubeinit.kubeinit.kubeinit_libvirt : Set fact for AMD virtualization</text>
</a>
</g>
</g>
<!-- task&#45;prepare&#45;hypervisors&#45;&gt;task_b0f1cc3b&#45;dca9&#45;4c42&#45;b321&#45;a78bc0c15f41 -->
<g id="edge_0ee3f5c9&#45;0a66&#45;4690&#45;82a9&#45;ff36f3a17474" class="edge">
<title>task&#45;prepare&#45;hypervisors&#45;&gt;task_b0f1cc3b&#45;dca9&#45;4c42&#45;b321&#45;a78bc0c15f41</title>
<path fill="none" stroke="#000000" stroke-width="2" d="M547.85,-850.11C899.13,-854.15 1842.74,-865.01 2376.69,-871.15"/>
<polygon fill="#000000" stroke="#000000" stroke-width="2" points="2376.83,-874.65 2386.87,-871.26 2376.91,-867.65 2376.83,-874.65"/>
<text text-anchor="middle" x="1297.45" y="-870.34" font-family="Times,serif" font-size="14.00" fill="#000000">15 &#160;[when: _result_amd_processor.rc == 0]</text>
</g>
<!-- task_e5f60e32&#45;b83d&#45;4bc2&#45;ae53&#45;e05e2b988e8a -->
<g id="task_e5f60e32&#45;b83d&#45;4bc2&#45;ae53&#45;e05e2b988e8a" class="node">
<title>task_e5f60e32&#45;b83d&#45;4bc2&#45;ae53&#45;e05e2b988e8a</title>
<g id="a_task_e5f60e32&#45;b83d&#45;4bc2&#45;ae53&#45;e05e2b988e8a"><a xlink:title="[task] kubeinit.kubeinit.kubeinit_libvirt : Set fact for nested virtualization test path">
<polygon fill="none" stroke="black" points="3189.25,-814.08 3189.25,-829 2937.56,-839.54 2581.61,-839.54 2329.92,-829 2329.92,-814.08 2581.61,-803.54 2937.56,-803.54 3189.25,-814.08"/>
<text text-anchor="middle" x="2759.59" y="-817.84" font-family="Times,serif" font-size="14.00">[task] kubeinit.kubeinit.kubeinit_libvirt : Set fact for nested virtualization test path</text>
</a>
</g>
</g>
<!-- task&#45;prepare&#45;hypervisors&#45;&gt;task_e5f60e32&#45;b83d&#45;4bc2&#45;ae53&#45;e05e2b988e8a -->
<g id="edge_ebf46410&#45;6884&#45;4fae&#45;9c0f&#45;4dc2d034770b" class="edge">
<title>task&#45;prepare&#45;hypervisors&#45;&gt;task_e5f60e32&#45;b83d&#45;4bc2&#45;ae53&#45;e05e2b988e8a</title>
<path fill="none" stroke="#000000" stroke-width="2" d="M507.17,-835.68C526.59,-833.56 546.9,-831.68 565.95,-830.54 1209,-791.97 1960.04,-800.46 2395.28,-810.65"/>
<polygon fill="#000000" stroke="#000000" stroke-width="2" points="2395.42,-814.15 2405.5,-810.89 2395.59,-807.16 2395.42,-814.15"/>
<text text-anchor="middle" x="1297.45" y="-834.34" font-family="Times,serif" font-size="14.00" fill="#000000">16 &#160;[when: _result_intel_processor.rc == 0 or _result_amd_processor.rc == 0]</text>
</g>
<!-- task_0218167f&#45;7c00&#45;4259&#45;a7e9&#45;08ce4f924188 -->
<g id="task_0218167f&#45;7c00&#45;4259&#45;a7e9&#45;08ce4f924188" class="node">
<title>task_0218167f&#45;7c00&#45;4259&#45;a7e9&#45;08ce4f924188</title>
<g id="a_task_0218167f&#45;7c00&#45;4259&#45;a7e9&#45;08ce4f924188"><a xlink:title="[task] kubeinit.kubeinit.kubeinit_libvirt : Ensure {{ nested_virtualization_module_name }} module is available and loaded">
<polygon fill="none" stroke="black" points="3385.8,-760.08 3385.8,-775 3018.97,-785.54 2500.2,-785.54 2133.37,-775 2133.37,-760.08 2500.2,-749.54 3018.97,-749.54 3385.8,-760.08"/>
<text text-anchor="middle" x="2759.59" y="-763.84" font-family="Times,serif" font-size="14.00">[task] kubeinit.kubeinit.kubeinit_libvirt : Ensure {{ nested_virtualization_module_name }} module is available and loaded</text>
</a>
</g>
</g>
<!-- task&#45;prepare&#45;hypervisors&#45;&gt;task_0218167f&#45;7c00&#45;4259&#45;a7e9&#45;08ce4f924188 -->
<g id="edge_8e3f5966&#45;b366&#45;454b&#45;b77e&#45;eea1aa9d8251" class="edge">
<title>task&#45;prepare&#45;hypervisors&#45;&gt;task_0218167f&#45;7c00&#45;4259&#45;a7e9&#45;08ce4f924188</title>
<path fill="none" stroke="#000000" stroke-width="2" d="M443.06,-830.44C473.56,-814.29 521.3,-791.81 565.95,-782.54 901.35,-712.86 1848.87,-733.74 2382.06,-752.29"/>
<polygon fill="#000000" stroke="#000000" stroke-width="2" points="2382.11,-755.79 2392.23,-752.64 2382.35,-748.8 2382.11,-755.79"/>
<text text-anchor="middle" x="1297.45" y="-786.34" font-family="Times,serif" font-size="14.00" fill="#000000">17 &#160;[when: _result_intel_processor.rc == 0 or _result_amd_processor.rc == 0]</text>
</g>
<!-- task_011304e3&#45;ed59&#45;450b&#45;b6e2&#45;77fe9a4db74a -->
<g id="task_011304e3&#45;ed59&#45;450b&#45;b6e2&#45;77fe9a4db74a" class="node">
<title>task_011304e3&#45;ed59&#45;450b&#45;b6e2&#45;77fe9a4db74a</title>
<g id="a_task_011304e3&#45;ed59&#45;450b&#45;b6e2&#45;77fe9a4db74a"><a xlink:title="[task] kubeinit.kubeinit.kubeinit_libvirt : Test status of nested virtualization">
<polygon fill="none" stroke="black" points="3152.59,-706.08 3152.59,-721 2922.37,-731.54 2596.8,-731.54 2366.58,-721 2366.58,-706.08 2596.8,-695.54 2922.37,-695.54 3152.59,-706.08"/>
<text text-anchor="middle" x="2759.59" y="-709.84" font-family="Times,serif" font-size="14.00">[task] kubeinit.kubeinit.kubeinit_libvirt : Test status of nested virtualization</text>
</a>
</g>
</g>
<!-- task&#45;prepare&#45;hypervisors&#45;&gt;task_011304e3&#45;ed59&#45;450b&#45;b6e2&#45;77fe9a4db74a -->
<g id="edge_edc0a53a&#45;c5cf&#45;49b3&#45;9fa3&#45;c6a4e37aa109" class="edge">
<title>task&#45;prepare&#45;hypervisors&#45;&gt;task_011304e3&#45;ed59&#45;450b&#45;b6e2&#45;77fe9a4db74a</title>
<path fill="none" stroke="#000000" stroke-width="2" d="M424.79,-830.14C449.14,-799.21 503.31,-737.89 565.95,-714.54 648.02,-683.94 1745.83,-696.83 2356.14,-706.49"/>
<polygon fill="#000000" stroke="#000000" stroke-width="2" points="2356.38,-709.99 2366.43,-706.65 2356.49,-702.99 2356.38,-709.99"/>
<text text-anchor="middle" x="1297.45" y="-718.34" font-family="Times,serif" font-size="14.00" fill="#000000">18 &#160;[when: _result_intel_processor.rc == 0 or _result_amd_processor.rc == 0]</text>
</g>
<!-- task_e9a28fe4&#45;be61&#45;476d&#45;a56d&#45;630cb56ee4d1 -->
<g id="task_e9a28fe4&#45;be61&#45;476d&#45;a56d&#45;630cb56ee4d1" class="node">
<title>task_e9a28fe4&#45;be61&#45;476d&#45;a56d&#45;630cb56ee4d1</title>
<g id="a_task_e9a28fe4&#45;be61&#45;476d&#45;a56d&#45;630cb56ee4d1"><a xlink:title="[task] kubeinit.kubeinit.kubeinit_libvirt : Persist configuration in /etc/modprobe.d/kvm.conf">
<polygon fill="none" stroke="black" points="3228.14,-652.08 3228.14,-667 2953.67,-677.54 2565.51,-677.54 2291.03,-667 2291.03,-652.08 2565.51,-641.54 2953.67,-641.54 3228.14,-652.08"/>
<text text-anchor="middle" x="2759.59" y="-655.84" font-family="Times,serif" font-size="14.00">[task] kubeinit.kubeinit.kubeinit_libvirt : Persist configuration in /etc/modprobe.d/kvm.conf</text>
</a>
</g>
</g>
<!-- task&#45;prepare&#45;hypervisors&#45;&gt;task_e9a28fe4&#45;be61&#45;476d&#45;a56d&#45;630cb56ee4d1 -->
<g id="edge_811ead4e&#45;edcc&#45;4d31&#45;984c&#45;fa6d8261f7f1" class="edge">
<title>task&#45;prepare&#45;hypervisors&#45;&gt;task_e9a28fe4&#45;be61&#45;476d&#45;a56d&#45;630cb56ee4d1</title>
<path fill="none" stroke="#000000" stroke-width="2" d="M420.42,-830.41C440.86,-793.05 493.56,-708.21 565.95,-675.54 729.02,-601.95 1834.92,-627.81 2411.05,-646.74"/>
<polygon fill="#000000" stroke="#000000" stroke-width="2" points="2411.07,-650.25 2421.18,-647.08 2411.3,-643.25 2411.07,-650.25"/>
<text text-anchor="middle" x="1297.45" y="-679.34" font-family="Times,serif" font-size="14.00" fill="#000000">19 &#160;[when: _result_intel_processor.rc == 0 or _result_amd_processor.rc == 0]</text>
</g>
<!-- task_a73fa367&#45;8d65&#45;49d6&#45;b439&#45;f4301e858c63 -->
<g id="task_a73fa367&#45;8d65&#45;49d6&#45;b439&#45;f4301e858c63" class="node">
<title>task_a73fa367&#45;8d65&#45;49d6&#45;b439&#45;f4301e858c63</title>
<g id="a_task_a73fa367&#45;8d65&#45;49d6&#45;b439&#45;f4301e858c63"><a xlink:title="[task] kubeinit.kubeinit.kubeinit_libvirt : Load {{ nested_virtualization_module_name }} module">
<polygon fill="none" stroke="black" points="3256.42,-598.08 3256.42,-613 2965.38,-623.54 2553.79,-623.54 2262.76,-613 2262.76,-598.08 2553.79,-587.54 2965.38,-587.54 3256.42,-598.08"/>
<text text-anchor="middle" x="2759.59" y="-601.84" font-family="Times,serif" font-size="14.00">[task] kubeinit.kubeinit.kubeinit_libvirt : Load {{ nested_virtualization_module_name }} module</text>
</a>
</g>
</g>
<!-- task&#45;prepare&#45;hypervisors&#45;&gt;task_a73fa367&#45;8d65&#45;49d6&#45;b439&#45;f4301e858c63 -->
<g id="edge_18b38fff&#45;db17&#45;4f35&#45;a79e&#45;2174b362204a" class="edge">
<title>task&#45;prepare&#45;hypervisors&#45;&gt;task_a73fa367&#45;8d65&#45;49d6&#45;b439&#45;f4301e858c63</title>
<path fill="none" stroke="#000000" stroke-width="2" d="M416.06,-830.44C430.23,-783.13 475.6,-656.01 565.95,-606.54 641.61,-565.11 1709.7,-581.86 2326.67,-595.16"/>
<polygon fill="#000000" stroke="#000000" stroke-width="2" points="2327.01,-598.67 2337.08,-595.39 2327.16,-591.67 2327.01,-598.67"/>
<text text-anchor="middle" x="1297.45" y="-610.34" font-family="Times,serif" font-size="14.00" fill="#000000">20 &#160;[when: _result_intel_processor.rc == 0 or _result_amd_processor.rc == 0]</text>
</g>
<!-- task_15c80e0a&#45;f376&#45;440a&#45;a4aa&#45;a57d60654fba -->
<g id="task_15c80e0a&#45;f376&#45;440a&#45;a4aa&#45;a57d60654fba" class="node">
<title>task_15c80e0a&#45;f376&#45;440a&#45;a4aa&#45;a57d60654fba</title>
<g id="a_task_15c80e0a&#45;f376&#45;440a&#45;a4aa&#45;a57d60654fba"><a xlink:title="[task] kubeinit.kubeinit.kubeinit_libvirt : Clear intel and amd processor facts">
<polygon fill="none" stroke="black" points="3156.13,-544.08 3156.13,-559 2923.84,-569.54 2595.33,-569.54 2363.05,-559 2363.05,-544.08 2595.33,-533.54 2923.84,-533.54 3156.13,-544.08"/>
<text text-anchor="middle" x="2759.59" y="-547.84" font-family="Times,serif" font-size="14.00">[task] kubeinit.kubeinit.kubeinit_libvirt : Clear intel and amd processor facts</text>
</a>
</g>
</g>
<!-- task&#45;prepare&#45;hypervisors&#45;&gt;task_15c80e0a&#45;f376&#45;440a&#45;a4aa&#45;a57d60654fba -->
<g id="edge_e78f27d4&#45;032e&#45;4018&#45;adba&#45;ad7f002021de" class="edge">
<title>task&#45;prepare&#45;hypervisors&#45;&gt;task_15c80e0a&#45;f376&#45;440a&#45;a4aa&#45;a57d60654fba</title>
<path fill="none" stroke="#000000" stroke-width="2" d="M414.29,-830.31C424.81,-777.13 463.49,-622.06 565.95,-560.54 641.81,-514.99 1764.32,-530.86 2372.95,-542.96"/>
<polygon fill="#000000" stroke="#000000" stroke-width="2" points="2373.15,-546.47 2383.21,-543.17 2373.28,-539.47 2373.15,-546.47"/>
<text text-anchor="middle" x="1297.45" y="-564.34" font-family="Times,serif" font-size="14.00" fill="#000000">21</text>
</g>
<!-- task_211896d1&#45;2e09&#45;449e&#45;aeab&#45;5fb609585bfa -->
<g id="task_211896d1&#45;2e09&#45;449e&#45;aeab&#45;5fb609585bfa" class="node">
<title>task_211896d1&#45;2e09&#45;449e&#45;aeab&#45;5fb609585bfa</title>
<g id="a_task_211896d1&#45;2e09&#45;449e&#45;aeab&#45;5fb609585bfa"><a xlink:title="[task] kubeinit.kubeinit.kubeinit_libvirt : Enable and start libvirtd">
<polygon fill="none" stroke="black" points="3101.38,-490.08 3101.38,-505 2901.16,-515.54 2618.01,-515.54 2417.79,-505 2417.79,-490.08 2618.01,-479.54 2901.16,-479.54 3101.38,-490.08"/>
<text text-anchor="middle" x="2759.59" y="-493.84" font-family="Times,serif" font-size="14.00">[task] kubeinit.kubeinit.kubeinit_libvirt : Enable and start libvirtd</text>
</a>
</g>
</g>
<!-- task&#45;prepare&#45;hypervisors&#45;&gt;task_211896d1&#45;2e09&#45;449e&#45;aeab&#45;5fb609585bfa -->
<g id="edge_bb43af9e&#45;b918&#45;42d6&#45;add6&#45;a89993f406f1" class="edge">
<title>task&#45;prepare&#45;hypervisors&#45;&gt;task_211896d1&#45;2e09&#45;449e&#45;aeab&#45;5fb609585bfa</title>
<path fill="none" stroke="#000000" stroke-width="2" d="M412.83,-830.28C419.64,-771.32 449.92,-585.49 565.95,-510.54 641.75,-461.58 1808.57,-478.02 2408.33,-489.84"/>
<polygon fill="#000000" stroke="#000000" stroke-width="2" points="2408.36,-493.34 2418.43,-490.04 2408.5,-486.34 2408.36,-493.34"/>
<text text-anchor="middle" x="1297.45" y="-514.34" font-family="Times,serif" font-size="14.00" fill="#000000">22</text>
</g>
<!-- task_3e313f18&#45;c511&#45;4f28&#45;974a&#45;5d955536c2bc -->
<g id="task_3e313f18&#45;c511&#45;4f28&#45;974a&#45;5d955536c2bc" class="node">
<title>task_3e313f18&#45;c511&#45;4f28&#45;974a&#45;5d955536c2bc</title>
<g id="a_task_3e313f18&#45;c511&#45;4f28&#45;974a&#45;5d955536c2bc"><a xlink:title="[task] kubeinit.kubeinit.kubeinit_libvirt : Make sure we have a &#39;toor&#39; group">
<polygon fill="none" stroke="black" points="3145.11,-436.08 3145.11,-451 2919.28,-461.54 2599.9,-461.54 2374.06,-451 2374.06,-436.08 2599.9,-425.54 2919.28,-425.54 3145.11,-436.08"/>
<text text-anchor="middle" x="2759.59" y="-439.84" font-family="Times,serif" font-size="14.00">[task] kubeinit.kubeinit.kubeinit_libvirt : Make sure we have a &#39;toor&#39; group</text>
</a>
</g>
</g>
<!-- task&#45;prepare&#45;hypervisors&#45;&gt;task_3e313f18&#45;c511&#45;4f28&#45;974a&#45;5d955536c2bc -->
<g id="edge_df141fb0&#45;adfd&#45;4533&#45;a11d&#45;1e18b88e51f9" class="edge">
<title>task&#45;prepare&#45;hypervisors&#45;&gt;task_3e313f18&#45;c511&#45;4f28&#45;974a&#45;5d955536c2bc</title>
<path fill="none" stroke="#000000" stroke-width="2" d="M411.65,-830.31C414.82,-765.74 435.18,-547 565.95,-457.54 639.33,-407.34 1773.69,-422.96 2381.14,-435.06"/>
<polygon fill="#000000" stroke="#000000" stroke-width="2" points="2381.31,-438.57 2391.38,-435.27 2381.45,-431.57 2381.31,-438.57"/>
<text text-anchor="middle" x="1297.45" y="-461.34" font-family="Times,serif" font-size="14.00" fill="#000000">23</text>
</g>
<!-- task_a7cd1a47&#45;a1b1&#45;4586&#45;a7c1&#45;51d48c66ba8a -->
<g id="task_a7cd1a47&#45;a1b1&#45;4586&#45;a7c1&#45;51d48c66ba8a" class="node">
<title>task_a7cd1a47&#45;a1b1&#45;4586&#45;a7c1&#45;51d48c66ba8a</title>
<g id="a_task_a7cd1a47&#45;a1b1&#45;4586&#45;a7c1&#45;51d48c66ba8a"><a xlink:title="[task] kubeinit.kubeinit.kubeinit_libvirt : Allow &#39;toor&#39; group to have passwordless sudo">
<polygon fill="none" stroke="black" points="3204.3,-382.08 3204.3,-397 2943.79,-407.54 2575.38,-407.54 2314.87,-397 2314.87,-382.08 2575.38,-371.54 2943.79,-371.54 3204.3,-382.08"/>
<text text-anchor="middle" x="2759.59" y="-385.84" font-family="Times,serif" font-size="14.00">[task] kubeinit.kubeinit.kubeinit_libvirt : Allow &#39;toor&#39; group to have passwordless sudo</text>
</a>
</g>
</g>
<!-- task&#45;prepare&#45;hypervisors&#45;&gt;task_a7cd1a47&#45;a1b1&#45;4586&#45;a7c1&#45;51d48c66ba8a -->
<g id="edge_cb7076a3&#45;3c23&#45;41d9&#45;b91e&#45;0a838e7b8f6a" class="edge">
<title>task&#45;prepare&#45;hypervisors&#45;&gt;task_a7cd1a47&#45;a1b1&#45;4586&#45;a7c1&#45;51d48c66ba8a</title>
<path fill="none" stroke="#000000" stroke-width="2" d="M410.71,-830.35C410.44,-760.49 419.93,-508.03 565.95,-403.54 637,-352.69 1734.17,-367.58 2348.9,-380.07"/>
<polygon fill="#000000" stroke="#000000" stroke-width="2" points="2349.2,-383.58 2359.27,-380.28 2349.35,-376.58 2349.2,-383.58"/>
<text text-anchor="middle" x="1297.45" y="-407.34" font-family="Times,serif" font-size="14.00" fill="#000000">24</text>
</g>
<!-- task_66981bec&#45;50b6&#45;4e6a&#45;b31c&#45;9c270b7aee8d -->
<g id="task_66981bec&#45;50b6&#45;4e6a&#45;b31c&#45;9c270b7aee8d" class="node">
<title>task_66981bec&#45;50b6&#45;4e6a&#45;b31c&#45;9c270b7aee8d</title>
<g id="a_task_66981bec&#45;50b6&#45;4e6a&#45;b31c&#45;9c270b7aee8d"><a xlink:title="[task] kubeinit.kubeinit.kubeinit_libvirt : Add sudoers users to toor group">
<polygon fill="none" stroke="black" points="3140.27,-328.08 3140.27,-343 2917.27,-353.54 2601.9,-353.54 2378.91,-343 2378.91,-328.08 2601.9,-317.54 2917.27,-317.54 3140.27,-328.08"/>
<text text-anchor="middle" x="2759.59" y="-331.84" font-family="Times,serif" font-size="14.00">[task] kubeinit.kubeinit.kubeinit_libvirt : Add sudoers users to toor group</text>
</a>
</g>
</g>
<!-- task&#45;prepare&#45;hypervisors&#45;&gt;task_66981bec&#45;50b6&#45;4e6a&#45;b31c&#45;9c270b7aee8d -->
<g id="edge_0d031c4b&#45;1cdc&#45;458e&#45;acea&#45;100e018b9758" class="edge">
<title>task&#45;prepare&#45;hypervisors&#45;&gt;task_66981bec&#45;50b6&#45;4e6a&#45;b31c&#45;9c270b7aee8d</title>
<path fill="none" stroke="#000000" stroke-width="2" d="M413.8,-830.45C426.67,-748.02 484.02,-409.31 565.95,-348.54 637.93,-295.15 1790.82,-313.28 2395.17,-326.6"/>
<polygon fill="#000000" stroke="#000000" stroke-width="2" points="2395.28,-330.1 2405.36,-326.82 2395.44,-323.1 2395.28,-330.1"/>
<text text-anchor="middle" x="1297.45" y="-352.34" font-family="Times,serif" font-size="14.00" fill="#000000">25</text>
</g>
<!-- task_b0777d11&#45;8d21&#45;44d9&#45;9038&#45;4990e7514f46 -->
<g id="task_b0777d11&#45;8d21&#45;44d9&#45;9038&#45;4990e7514f46" class="node">
<title>task_b0777d11&#45;8d21&#45;44d9&#45;9038&#45;4990e7514f46</title>
<g id="a_task_b0777d11&#45;8d21&#45;44d9&#45;9038&#45;4990e7514f46"><a xlink:title="[task] kubeinit.kubeinit.kubeinit_libvirt : Add cloud user to libvirt">
<polygon fill="none" stroke="black" points="3099.16,-274.08 3099.16,-289 2900.24,-299.54 2618.93,-299.54 2420.01,-289 2420.01,-274.08 2618.93,-263.54 2900.24,-263.54 3099.16,-274.08"/>
<text text-anchor="middle" x="2759.59" y="-277.84" font-family="Times,serif" font-size="14.00">[task] kubeinit.kubeinit.kubeinit_libvirt : Add cloud user to libvirt</text>
</a>
</g>
</g>
<!-- task&#45;prepare&#45;hypervisors&#45;&gt;task_b0777d11&#45;8d21&#45;44d9&#45;9038&#45;4990e7514f46 -->
<g id="edge_36cb6eaa&#45;3ce2&#45;4422&#45;92a9&#45;6475065ac596" class="edge">
<title>task&#45;prepare&#45;hypervisors&#45;&gt;task_b0777d11&#45;8d21&#45;44d9&#45;9038&#45;4990e7514f46</title>
<path fill="none" stroke="#000000" stroke-width="2" d="M413.24,-830.25C424.15,-741.97 475.95,-361.25 565.95,-292.54 638.53,-237.12 1834.57,-258.61 2428.83,-272.85"/>
<polygon fill="#000000" stroke="#000000" stroke-width="2" points="2428.75,-276.34 2438.83,-273.09 2428.92,-269.35 2428.75,-276.34"/>
<text text-anchor="middle" x="1297.45" y="-296.34" font-family="Times,serif" font-size="14.00" fill="#000000">26</text>
</g>
<!-- task_fd1ad3f3&#45;41bd&#45;439b&#45;915a&#45;b1a4f2014225 -->
<g id="task_fd1ad3f3&#45;41bd&#45;439b&#45;915a&#45;b1a4f2014225" class="node">
<title>task_fd1ad3f3&#45;41bd&#45;439b&#45;915a&#45;b1a4f2014225</title>
<g id="a_task_fd1ad3f3&#45;41bd&#45;439b&#45;915a&#45;b1a4f2014225"><a xlink:title="[task] kubeinit.kubeinit.kubeinit_libvirt : Create ssh folder">
<polygon fill="none" stroke="black" points="3064.31,-220.08 3064.31,-235 2885.81,-245.54 2633.37,-245.54 2454.86,-235 2454.86,-220.08 2633.37,-209.54 2885.81,-209.54 3064.31,-220.08"/>
<text text-anchor="middle" x="2759.59" y="-223.84" font-family="Times,serif" font-size="14.00">[task] kubeinit.kubeinit.kubeinit_libvirt : Create ssh folder</text>
</a>
</g>
</g>
<!-- task&#45;prepare&#45;hypervisors&#45;&gt;task_fd1ad3f3&#45;41bd&#45;439b&#45;915a&#45;b1a4f2014225 -->
<g id="edge_04f7657f&#45;7d10&#45;42ac&#45;acba&#45;2a4817ad073b" class="edge">
<title>task&#45;prepare&#45;hypervisors&#45;&gt;task_fd1ad3f3&#45;41bd&#45;439b&#45;915a&#45;b1a4f2014225</title>
<path fill="none" stroke="#000000" stroke-width="2" d="M412.75,-830.36C421.8,-737.14 467.88,-314.21 565.95,-237.54 638.97,-180.45 1870.32,-204.45 2454.99,-219.19"/>
<polygon fill="#000000" stroke="#000000" stroke-width="2" points="2455.18,-222.7 2465.26,-219.45 2455.35,-215.7 2455.18,-222.7"/>
<text text-anchor="middle" x="1297.45" y="-241.34" font-family="Times,serif" font-size="14.00" fill="#000000">27</text>
</g>
<!-- task_8f426c1c&#45;1347&#45;4583&#45;86fe&#45;1eb85a0abcac -->
<g id="task_8f426c1c&#45;1347&#45;4583&#45;86fe&#45;1eb85a0abcac" class="node">
<title>task_8f426c1c&#45;1347&#45;4583&#45;86fe&#45;1eb85a0abcac</title>
<g id="a_task_8f426c1c&#45;1347&#45;4583&#45;86fe&#45;1eb85a0abcac"><a xlink:title="[task] kubeinit.kubeinit.kubeinit_libvirt : Generate an OpenSSH keypair with the default values (4096 bits, rsa)">
<polygon fill="none" stroke="black" points="3330.15,-166.08 3330.15,-181 2995.92,-191.54 2523.25,-191.54 2189.02,-181 2189.02,-166.08 2523.25,-155.54 2995.92,-155.54 3330.15,-166.08"/>
<text text-anchor="middle" x="2759.59" y="-169.84" font-family="Times,serif" font-size="14.00">[task] kubeinit.kubeinit.kubeinit_libvirt : Generate an OpenSSH keypair with the default values (4096 bits, rsa)</text>
</a>
</g>
</g>
<!-- task&#45;prepare&#45;hypervisors&#45;&gt;task_8f426c1c&#45;1347&#45;4583&#45;86fe&#45;1eb85a0abcac -->
<g id="edge_78330c61&#45;9174&#45;434d&#45;9929&#45;3abc4db035d5" class="edge">
<title>task&#45;prepare&#45;hypervisors&#45;&gt;task_8f426c1c&#45;1347&#45;4583&#45;86fe&#45;1eb85a0abcac</title>
<path fill="none" stroke="#000000" stroke-width="2" d="M412.34,-830.36C419.65,-732.15 459.64,-266.31 565.95,-181.54 633.26,-127.87 1700.66,-146.06 2320.88,-161.35"/>
<polygon fill="#000000" stroke="#000000" stroke-width="2" points="2320.81,-164.85 2330.89,-161.6 2320.98,-157.85 2320.81,-164.85"/>
<text text-anchor="middle" x="1297.45" y="-185.34" font-family="Times,serif" font-size="14.00" fill="#000000">28</text>
</g>
<!-- task_1fd5eceb&#45;27cd&#45;4cb9&#45;babf&#45;5e1538c4bf13 -->
<g id="task_1fd5eceb&#45;27cd&#45;4cb9&#45;babf&#45;5e1538c4bf13" class="node">
<title>task_1fd5eceb&#45;27cd&#45;4cb9&#45;babf&#45;5e1538c4bf13</title>
<g id="a_task_1fd5eceb&#45;27cd&#45;4cb9&#45;babf&#45;5e1538c4bf13"><a xlink:title="[task] kubeinit.kubeinit.kubeinit_libvirt : Fix owner of the generated pub key">
<polygon fill="none" stroke="black" points="3157.03,-112.08 3157.03,-127 2924.21,-137.54 2594.96,-137.54 2362.14,-127 2362.14,-112.08 2594.96,-101.54 2924.21,-101.54 3157.03,-112.08"/>
<text text-anchor="middle" x="2759.59" y="-115.84" font-family="Times,serif" font-size="14.00">[task] kubeinit.kubeinit.kubeinit_libvirt : Fix owner of the generated pub key</text>
</a>
</g>
</g>
<!-- task&#45;prepare&#45;hypervisors&#45;&gt;task_1fd5eceb&#45;27cd&#45;4cb9&#45;babf&#45;5e1538c4bf13 -->
<g id="edge_7c69de3d&#45;7a02&#45;4425&#45;8bd0&#45;229e40df834f" class="edge">
<title>task&#45;prepare&#45;hypervisors&#45;&gt;task_1fd5eceb&#45;27cd&#45;4cb9&#45;babf&#45;5e1538c4bf13</title>
<path fill="none" stroke="#000000" stroke-width="2" d="M412.01,-830.25C417.74,-727.09 451.56,-219.29 565.95,-126.54 636.07,-69.68 1806.37,-93.25 2407.77,-109.27"/>
<polygon fill="#000000" stroke="#000000" stroke-width="2" points="2407.81,-112.77 2417.9,-109.54 2408,-105.77 2407.81,-112.77"/>
<text text-anchor="middle" x="1297.45" y="-130.34" font-family="Times,serif" font-size="14.00" fill="#000000">29</text>
</g>
<!-- task_846d75ce&#45;99b5&#45;46ea&#45;be17&#45;52418a23315b -->
<g id="task_846d75ce&#45;99b5&#45;46ea&#45;be17&#45;52418a23315b" class="node">
<title>task_846d75ce&#45;99b5&#45;46ea&#45;be17&#45;52418a23315b</title>
<g id="a_task_846d75ce&#45;99b5&#45;46ea&#45;be17&#45;52418a23315b"><a xlink:title="[task] kubeinit.kubeinit.kubeinit_libvirt : Insert the default libvirt uri in user&#39;s home">
<polygon fill="none" stroke="black" points="3193.7,-58.08 3193.7,-73 2939.4,-83.54 2579.77,-83.54 2325.48,-73 2325.48,-58.08 2579.77,-47.54 2939.4,-47.54 3193.7,-58.08"/>
<text text-anchor="middle" x="2759.59" y="-61.84" font-family="Times,serif" font-size="14.00">[task] kubeinit.kubeinit.kubeinit_libvirt : Insert the default libvirt uri in user&#39;s home</text>
</a>
</g>
</g>
<!-- task&#45;prepare&#45;hypervisors&#45;&gt;task_846d75ce&#45;99b5&#45;46ea&#45;be17&#45;52418a23315b -->
<g id="edge_8ebac133&#45;1b2f&#45;48bf&#45;8191&#45;6cdfd1493042" class="edge">
<title>task&#45;prepare&#45;hypervisors&#45;&gt;task_846d75ce&#45;99b5&#45;46ea&#45;be17&#45;52418a23315b</title>
<path fill="none" stroke="#000000" stroke-width="2" d="M411.71,-830.27C415.9,-722.55 443.23,-171.47 565.95,-70.54 713.39,50.72 1976,-14.98 2515.64,-49.1"/>
<polygon fill="#000000" stroke="#000000" stroke-width="2" points="2515.69,-52.61 2525.89,-49.75 2516.13,-45.62 2515.69,-52.61"/>
<text text-anchor="middle" x="1297.45" y="-74.34" font-family="Times,serif" font-size="14.00" fill="#000000">30</text>
</g>
</g>
</svg>
