<?xml version='1.0' encoding='UTF-8'?>
<!DOCTYPE svg PUBLIC "-//W3C//DTD SVG 1.1//EN" "http://www.w3.org/Graphics/SVG/1.1/DTD/svg11.dtd">
<!-- Generated by graphviz version 2.43.0 (0)
 --><!-- Title: ./playbooks/submariner&#45;subctl&#45;verify.yml  Pages: 1 --><svg xmlns="http://www.w3.org/2000/svg" xmlns:xlink="http://www.w3.org/1999/xlink" width="1919pt" height="807pt" viewBox="0.00 0.00 1919.12 807.41" id="svg">
<script type="text/javascript" href="https://ajax.googleapis.com/ajax/libs/jquery/3.2.1/jquery.min.js" id="jquery"/><script type="text/javascript" id="my_javascript"><![CDATA[const HOVER_CLASS = "my_hover";

var selectedElement = null;

function addClass(rootElement) {
    $(rootElement).find('link').each(function (index, element) {
        var target = $(element).attr('target');
        var currentElement = $('#' + target);
        currentElement.addClass(HOVER_CLASS);

        addClass(currentElement);
    })
}

function removeClass(rootElement, hover) {
    $(rootElement).find('link').each(function (index, element) {
        if ($(rootElement).attr('id') !== $(selectedElement).attr('id') || !hover) {
            var target = $(element).attr('target');
            var currentElement = $('#' + target);
            currentElement.removeClass(HOVER_CLASS);

            removeClass(currentElement);
        }

    })
}

function hoverIn(event) {
    addClass(event.currentTarget);
}

function hoverOut(event) {
    removeClass(event.currentTarget, true);
}

function clickOnElement(event) {
    var newElement = event.currentTarget;

    if ($(newElement).attr('id') === $(selectedElement).attr('id')) {
        removeClass(selectedElement, false);
    } else {
        removeClass(selectedElement);
        addClass(newElement)
    }

    selectedElement = newElement;
}


$("#svg").ready(function () {

    $("g[id^=play_]").hover(hoverIn, hoverOut);
    $("g[id^=role_]").hover(hoverIn, hoverOut);

    $("g[id^=play_]").click(clickOnElement);
    $("g[id^=role_]").click(clickOnElement);

});
]]></script><style type="text/css" id="my_css"><![CDATA[.node:hover, .edge:hover, path:hover, path + polygon:hover {
    cursor: pointer;
    stroke-width: 3;
    font-weight: bolder;
}

.my_hover {
    cursor: pointer;
    stroke-width: 3;
    font-weight: bolder;
}
]]></style><g id="graph0" class="graph" transform="scale(1 1) rotate(0) translate(4 803.41)">
<title>./playbooks/submariner-subctl-verify.yml </title>
<polygon fill="white" stroke="transparent" points="-4,4 -4,-803.41 1915.12,-803.41 1915.12,4 -4,4"/>
<!-- ./playbooks/submariner&#45;subctl&#45;verify.yml -->
<g id="root_node" class="node">
<title>./playbooks/submariner-subctl-verify.yml</title>
<ellipse fill="none" stroke="black" stroke-dasharray="1,5" cx="198.88" cy="-399.72" rx="198.76" ry="18"/>
<text text-anchor="middle" x="198.88" y="-396.02" font-family="Times,serif" font-size="14.00">./playbooks/submariner-subctl-verify.yml</text>
</g>
<!-- Play #1: Main deployment playbook for integrating submariner (0) -->
<g id="play_f95be986-1cd7-430c-a27d-0b8782ccc509" class="node">
<title>Play #1: Main deployment playbook for integrating submariner (0)</title>
<polygon fill="#0c880a" stroke="#0c880a" points="938.76,-417.72 443.76,-417.72 443.76,-381.72 938.76,-381.72 938.76,-417.72"/>
<text text-anchor="middle" x="691.26" y="-396.02" font-family="Times,serif" font-size="14.00" fill="#ffffff">Play #1: Main deployment playbook for integrating submariner (0)</text>
<links><link target="edge_12602c85-844d-41c1-9ee7-907d83778ae6"/><link target="edge_eb955e91-0303-48c7-8801-6626bbeeb2dd"/><link target="edge_35209959-de46-4f91-ba81-c5f13c8cbe23"/><link target="edge_ff6bbb69-6377-479f-93af-ce6e7aeaa5f2"/><link target="edge_3e212cdc-d3c8-4509-bea9-76bbee808bed"/><link target="edge_b06dc221-df45-4ca1-90d7-1fd90fb0005a"/><link target="edge_f609fa86-fe15-4658-a123-e21c4bec55c9"/><link target="edge_d65f3774-7105-4a85-a805-de4981eb1f92"/><link target="edge_319f50c2-bf55-4664-b182-f669973ab195"/><link target="edge_1f274c2d-7503-49fe-9606-7755af56cf6b"/><link target="edge_7dc06850-9fce-4580-9366-9997410cd658"/><link target="edge_605cc9d0-055e-46ec-a758-9950289a49af"/><link target="edge_e13c5190-021d-4a88-99d1-ed1c443a3253"/><link target="edge_1f011280-5376-4e8e-b49f-48bcea662045"/><link target="edge_fc1fdf57-62dd-4099-9bd5-35a2d584ee0d"/></links></g>
<!-- ./playbooks/submariner&#45;subctl&#45;verify.yml&#45;&gt;Play #1: Main deployment playbook for integrating submariner (0) -->
<g id="edge_a8776ab6-ab49-42d4-9d63-79ad1a84e78a" class="edge">
<title>./playbooks/submariner-subctl-verify.yml-&gt;Play #1: Main deployment playbook for integrating submariner (0)</title>
<path fill="none" stroke="#0c880a" stroke-width="2" d="M397.93,-399.72C409.66,-399.72 421.54,-399.72 433.46,-399.72"/>
<polygon fill="#0c880a" stroke="#0c880a" stroke-width="2" points="433.48,-403.22 443.48,-399.72 433.48,-396.22 433.48,-403.22"/>
<text text-anchor="middle" x="420.76" y="-403.52" font-family="Times,serif" font-size="14.00" fill="#0c880a">1</text>
</g>
<!-- pre_task_a52fc006&#45;3663&#45;44dd&#45;bf7b&#45;298e73624758 -->
<g id="pre_task_a52fc006-3663-44dd-bf7b-298e73624758" class="node">
<title>pre_task_a52fc006-3663-44dd-bf7b-298e73624758</title>
<g id="a_pre_task_a52fc006-3663-44dd-bf7b-298e73624758"><a xlink:title="[pre_task] Check if Ansible meets version requirements.">
<polygon fill="none" stroke="black" points="1746.56,-770.26 1746.56,-785.18 1574.27,-795.72 1330.61,-795.72 1158.32,-785.18 1158.32,-770.26 1330.61,-759.72 1574.27,-759.72 1746.56,-770.26"/>
<text text-anchor="middle" x="1452.44" y="-774.02" font-family="Times,serif" font-size="14.00">[pre_task] Check if Ansible meets version requirements.</text>
</a>
</g>
</g>
<!-- Play #1: Main deployment playbook for integrating submariner (0)&#45;&gt;pre_task_a52fc006&#45;3663&#45;44dd&#45;bf7b&#45;298e73624758 -->
<g id="edge_12602c85-844d-41c1-9ee7-907d83778ae6" class="edge">
<title>Play #1: Main deployment playbook for integrating submariner (0)-&gt;pre_task_a52fc006-3663-44dd-bf7b-298e73624758</title>
<path fill="none" stroke="#0c880a" stroke-width="2" d="M701.08,-417.95C731.53,-478.59 839.01,-674.04 993.76,-750.72 1094.33,-800.55 1222.97,-803.68 1318.25,-796.43"/>
<polygon fill="#0c880a" stroke="#0c880a" stroke-width="2" points="1318.55,-799.92 1328.23,-795.63 1317.98,-792.94 1318.55,-799.92"/>
<text text-anchor="middle" x="966.26" y="-742.52" font-family="Times,serif" font-size="14.00" fill="#0c880a">1</text>
<links><link target="pre_task_a52fc006-3663-44dd-bf7b-298e73624758"/></links></g>
<!-- task_ee1ed519&#45;3041&#45;4638&#45;b27a&#45;e44a6298661e -->
<g id="task_ee1ed519-3041-4638-b27a-e44a6298661e" class="node">
<title>task_ee1ed519-3041-4638-b27a-e44a6298661e</title>
<g id="a_task_ee1ed519-3041-4638-b27a-e44a6298661e"><a xlink:title="[task] ../../roles/kubeinit_prepare : Gather variables for each operating system">
<polygon fill="none" stroke="black" points="1856.05,-716.26 1856.05,-731.18 1619.62,-741.72 1285.26,-741.72 1048.83,-731.18 1048.83,-716.26 1285.26,-705.72 1619.62,-705.72 1856.05,-716.26"/>
<text text-anchor="middle" x="1452.44" y="-720.02" font-family="Times,serif" font-size="14.00">[task] ../../roles/kubeinit_prepare : Gather variables for each operating system</text>
</a>
</g>
</g>
<!-- Play #1: Main deployment playbook for integrating submariner (0)&#45;&gt;task_ee1ed519&#45;3041&#45;4638&#45;b27a&#45;e44a6298661e -->
<g id="edge_eb955e91-0303-48c7-8801-6626bbeeb2dd" class="edge">
<title>Play #1: Main deployment playbook for integrating submariner (0)-&gt;task_ee1ed519-3041-4638-b27a-e44a6298661e</title>
<path fill="none" stroke="#0c880a" stroke-width="2" d="M703.56,-417.8C738.61,-472.05 851.77,-633.58 993.76,-696.72 1080.17,-735.14 1184.93,-743.72 1272.42,-741.87"/>
<polygon fill="#0c880a" stroke="#0c880a" stroke-width="2" points="1272.55,-745.37 1282.45,-741.62 1272.37,-738.37 1272.55,-745.37"/>
<text text-anchor="middle" x="966.26" y="-690.52" font-family="Times,serif" font-size="14.00" fill="#0c880a">2</text>
<links><link target="task_ee1ed519-3041-4638-b27a-e44a6298661e"/></links></g>
<!-- task_0a2aed52&#45;d6e6&#45;40e3&#45;930d&#45;1b6d0ad480a1 -->
<g id="task_0a2aed52-d6e6-40e3-930d-1b6d0ad480a1" class="node">
<title>task_0a2aed52-d6e6-40e3-930d-1b6d0ad480a1</title>
<g id="a_task_0a2aed52-d6e6-40e3-930d-1b6d0ad480a1"><a xlink:title="[task] ../../roles/kubeinit_prepare : add all nodes to the all_nodes group">
<polygon fill="none" stroke="black" points="1818.98,-662.26 1818.98,-677.18 1604.27,-687.72 1300.62,-687.72 1085.9,-677.18 1085.9,-662.26 1300.62,-651.72 1604.27,-651.72 1818.98,-662.26"/>
<text text-anchor="middle" x="1452.44" y="-666.02" font-family="Times,serif" font-size="14.00">[task] ../../roles/kubeinit_prepare : add all nodes to the all_nodes group</text>
</a>
</g>
</g>
<!-- Play #1: Main deployment playbook for integrating submariner (0)&#45;&gt;task_0a2aed52&#45;d6e6&#45;40e3&#45;930d&#45;1b6d0ad480a1 -->
<g id="edge_35209959-de46-4f91-ba81-c5f13c8cbe23" class="edge">
<title>Play #1: Main deployment playbook for integrating submariner (0)-&gt;task_0a2aed52-d6e6-40e3-930d-1b6d0ad480a1</title>
<path fill="none" stroke="#0c880a" stroke-width="2" d="M707.2,-417.85C747.51,-465.26 864.27,-592.69 993.76,-642.72 1019.92,-652.82 1047.54,-660.66 1075.72,-666.66"/>
<polygon fill="#0c880a" stroke="#0c880a" stroke-width="2" points="1075.22,-670.12 1085.72,-668.7 1076.62,-663.27 1075.22,-670.12"/>
<text text-anchor="middle" x="966.26" y="-638.52" font-family="Times,serif" font-size="14.00" fill="#0c880a">3</text>
<links><link target="task_0a2aed52-d6e6-40e3-930d-1b6d0ad480a1"/></links></g>
<!-- task_2aa5097e&#45;23cc&#45;4c04&#45;88db&#45;cf880d672c6d -->
<g id="task_2aa5097e-23cc-4c04-88db-cf880d672c6d" class="node">
<title>task_2aa5097e-23cc-4c04-88db-cf880d672c6d</title>
<g id="a_task_2aa5097e-23cc-4c04-88db-cf880d672c6d"><a xlink:title="[task] ../../roles/kubeinit_prepare : add all master nodes to the all_master_nodes group">
<polygon fill="none" stroke="black" points="1897.56,-608.26 1897.56,-623.18 1636.82,-633.72 1268.07,-633.72 1007.32,-623.18 1007.32,-608.26 1268.07,-597.72 1636.82,-597.72 1897.56,-608.26"/>
<text text-anchor="middle" x="1452.44" y="-612.02" font-family="Times,serif" font-size="14.00">[task] ../../roles/kubeinit_prepare : add all master nodes to the all_master_nodes group</text>
</a>
</g>
</g>
<!-- Play #1: Main deployment playbook for integrating submariner (0)&#45;&gt;task_2aa5097e&#45;23cc&#45;4c04&#45;88db&#45;cf880d672c6d -->
<g id="edge_ff6bbb69-6377-479f-93af-ce6e7aeaa5f2" class="edge">
<title>Play #1: Main deployment playbook for integrating submariner (0)-&gt;task_2aa5097e-23cc-4c04-88db-cf880d672c6d</title>
<path fill="none" stroke="#0c880a" stroke-width="2" d="M712.69,-417.79C758.84,-457.37 876.37,-551.19 993.76,-588.72 1012.33,-594.66 1031.53,-599.7 1051.08,-603.98"/>
<polygon fill="#0c880a" stroke="#0c880a" stroke-width="2" points="1050.5,-607.43 1061.01,-606.08 1051.95,-600.58 1050.5,-607.43"/>
<text text-anchor="middle" x="966.26" y="-585.52" font-family="Times,serif" font-size="14.00" fill="#0c880a">4</text>
<links><link target="task_2aa5097e-23cc-4c04-88db-cf880d672c6d"/></links></g>
<!-- task_d42e77cc&#45;4f72&#45;4d83&#45;9aca&#45;e9676c968aae -->
<g id="task_d42e77cc-4f72-4d83-9aca-e9676c968aae" class="node">
<title>task_d42e77cc-4f72-4d83-9aca-e9676c968aae</title>
<g id="a_task_d42e77cc-4f72-4d83-9aca-e9676c968aae"><a xlink:title="[task] ../../roles/kubeinit_prepare : add all worker nodes to the all_worker_nodes group">
<polygon fill="none" stroke="black" points="1897.56,-554.26 1897.56,-569.18 1636.82,-579.72 1268.07,-579.72 1007.32,-569.18 1007.32,-554.26 1268.07,-543.72 1636.82,-543.72 1897.56,-554.26"/>
<text text-anchor="middle" x="1452.44" y="-558.02" font-family="Times,serif" font-size="14.00">[task] ../../roles/kubeinit_prepare : add all worker nodes to the all_worker_nodes group</text>
</a>
</g>
</g>
<!-- Play #1: Main deployment playbook for integrating submariner (0)&#45;&gt;task_d42e77cc&#45;4f72&#45;4d83&#45;9aca&#45;e9676c968aae -->
<g id="edge_3e212cdc-d3c8-4509-bea9-76bbee808bed" class="edge">
<title>Play #1: Main deployment playbook for integrating submariner (0)-&gt;task_d42e77cc-4f72-4d83-9aca-e9676c968aae</title>
<path fill="none" stroke="#0c880a" stroke-width="2" d="M722.61,-417.81C775.53,-448.3 889.03,-509.1 993.76,-534.72 1018.53,-540.78 1044.27,-545.75 1070.34,-549.8"/>
<polygon fill="#0c880a" stroke="#0c880a" stroke-width="2" points="1069.93,-553.28 1080.34,-551.31 1070.98,-546.35 1069.93,-553.28"/>
<text text-anchor="middle" x="966.26" y="-531.52" font-family="Times,serif" font-size="14.00" fill="#0c880a">5</text>
<links><link target="task_d42e77cc-4f72-4d83-9aca-e9676c968aae"/></links></g>
<!-- task_a9f9dd68&#45;38a7&#45;4af1&#45;a5cf&#45;e4af7c1b63fc -->
<g id="task_a9f9dd68-38a7-4af1-a5cf-e4af7c1b63fc" class="node">
<title>task_a9f9dd68-38a7-4af1-a5cf-e4af7c1b63fc</title>
<g id="a_task_a9f9dd68-38a7-4af1-a5cf-e4af7c1b63fc"><a xlink:title="[task] ../../roles/kubeinit_prepare : add all bootstrap nodes the all_bootstrap_nodes group">
<polygon fill="none" stroke="black" points="1911.3,-500.26 1911.3,-515.18 1642.51,-525.72 1262.38,-525.72 993.59,-515.18 993.59,-500.26 1262.38,-489.72 1642.51,-489.72 1911.3,-500.26"/>
<text text-anchor="middle" x="1452.44" y="-504.02" font-family="Times,serif" font-size="14.00">[task] ../../roles/kubeinit_prepare : add all bootstrap nodes the all_bootstrap_nodes group</text>
</a>
</g>
</g>
<!-- Play #1: Main deployment playbook for integrating submariner (0)&#45;&gt;task_a9f9dd68&#45;38a7&#45;4af1&#45;a5cf&#45;e4af7c1b63fc -->
<g id="edge_b06dc221-df45-4ca1-90d7-1fd90fb0005a" class="edge">
<title>Play #1: Main deployment playbook for integrating submariner (0)-&gt;task_a9f9dd68-38a7-4af1-a5cf-e4af7c1b63fc</title>
<path fill="none" stroke="#0c880a" stroke-width="2" d="M746.01,-417.72C805.76,-436.9 905.49,-466.41 993.76,-480.72 1028.96,-486.42 1065.84,-490.96 1102.75,-494.56"/>
<polygon fill="#0c880a" stroke="#0c880a" stroke-width="2" points="1102.88,-498.09 1113.16,-495.55 1103.54,-491.12 1102.88,-498.09"/>
<text text-anchor="middle" x="966.26" y="-479.52" font-family="Times,serif" font-size="14.00" fill="#0c880a">6</text>
<links><link target="task_a9f9dd68-38a7-4af1-a5cf-e4af7c1b63fc"/></links></g>
<!-- task_80148333&#45;4e19&#45;41e0&#45;be00&#45;5b50326833ee -->
<g id="task_80148333-4e19-41e0-be00-5b50326833ee" class="node">
<title>task_80148333-4e19-41e0-be00-5b50326833ee</title>
<g id="a_task_80148333-4e19-41e0-be00-5b50326833ee"><a xlink:title="[task] ../../roles/kubeinit_prepare : add all service nodes to the all_service_nodes group">
<polygon fill="none" stroke="black" points="1899.38,-446.26 1899.38,-461.18 1637.57,-471.72 1267.32,-471.72 1005.51,-461.18 1005.51,-446.26 1267.32,-435.72 1637.57,-435.72 1899.38,-446.26"/>
<text text-anchor="middle" x="1452.44" y="-450.02" font-family="Times,serif" font-size="14.00">[task] ../../roles/kubeinit_prepare : add all service nodes to the all_service_nodes group</text>
</a>
</g>
</g>
<!-- Play #1: Main deployment playbook for integrating submariner (0)&#45;&gt;task_80148333&#45;4e19&#45;41e0&#45;be00&#45;5b50326833ee -->
<g id="edge_f609fa86-fe15-4658-a123-e21c4bec55c9" class="edge">
<title>Play #1: Main deployment playbook for integrating submariner (0)-&gt;task_80148333-4e19-41e0-be00-5b50326833ee</title>
<path fill="none" stroke="#0c880a" stroke-width="2" d="M883.59,-417.74C920.15,-420.93 958.13,-424.07 993.76,-426.72 1051.17,-430.98 1112.66,-434.99 1171.35,-438.55"/>
<polygon fill="#0c880a" stroke="#0c880a" stroke-width="2" points="1171.32,-442.05 1181.51,-439.16 1171.74,-435.07 1171.32,-442.05"/>
<text text-anchor="middle" x="966.26" y="-428.52" font-family="Times,serif" font-size="14.00" fill="#0c880a">7</text>
<links><link target="task_80148333-4e19-41e0-be00-5b50326833ee"/></links></g>
<!-- task_4cd1d89d&#45;cf72&#45;42ab&#45;bef6&#45;63a4aca4e89a -->
<g id="task_4cd1d89d-cf72-42ab-bef6-63a4aca4e89a" class="node">
<title>task_4cd1d89d-cf72-42ab-bef6-63a4aca4e89a</title>
<g id="a_task_4cd1d89d-cf72-42ab-bef6-63a4aca4e89a"><a xlink:title="[task] ../../roles/kubeinit_prepare : add all hosts to the all_hosts group">
<polygon fill="none" stroke="black" points="1814.13,-392.26 1814.13,-407.18 1602.26,-417.72 1302.62,-417.72 1090.75,-407.18 1090.75,-392.26 1302.62,-381.72 1602.26,-381.72 1814.13,-392.26"/>
<text text-anchor="middle" x="1452.44" y="-396.02" font-family="Times,serif" font-size="14.00">[task] ../../roles/kubeinit_prepare : add all hosts to the all_hosts group</text>
</a>
</g>
</g>
<!-- Play #1: Main deployment playbook for integrating submariner (0)&#45;&gt;task_4cd1d89d&#45;cf72&#45;42ab&#45;bef6&#45;63a4aca4e89a -->
<g id="edge_d65f3774-7105-4a85-a805-de4981eb1f92" class="edge">
<title>Play #1: Main deployment playbook for integrating submariner (0)-&gt;task_4cd1d89d-cf72-42ab-bef6-63a4aca4e89a</title>
<path fill="none" stroke="#0c880a" stroke-width="2" d="M939.01,-399.72C984.27,-399.72 1032.42,-399.72 1080.39,-399.72"/>
<polygon fill="#0c880a" stroke="#0c880a" stroke-width="2" points="1080.62,-403.22 1090.62,-399.72 1080.62,-396.22 1080.62,-403.22"/>
<text text-anchor="middle" x="966.26" y="-403.52" font-family="Times,serif" font-size="14.00" fill="#0c880a">8</text>
<links><link target="task_4cd1d89d-cf72-42ab-bef6-63a4aca4e89a"/></links></g>
<!-- task_fea946ab&#45;808e&#45;4da6&#45;979b&#45;27bd9199e0f9 -->
<g id="task_fea946ab-808e-4da6-979b-27bd9199e0f9" class="node">
<title>task_fea946ab-808e-4da6-979b-27bd9199e0f9</title>
<g id="a_task_fea946ab-808e-4da6-979b-27bd9199e0f9"><a xlink:title="[task] ../../roles/kubeinit_prepare : list all_hosts">
<polygon fill="none" stroke="black" points="1700.61,-338.26 1700.61,-353.18 1555.24,-363.72 1349.65,-363.72 1204.28,-353.18 1204.28,-338.26 1349.65,-327.72 1555.24,-327.72 1700.61,-338.26"/>
<text text-anchor="middle" x="1452.44" y="-342.02" font-family="Times,serif" font-size="14.00">[task] ../../roles/kubeinit_prepare : list all_hosts</text>
</a>
</g>
</g>
<!-- Play #1: Main deployment playbook for integrating submariner (0)&#45;&gt;task_fea946ab&#45;808e&#45;4da6&#45;979b&#45;27bd9199e0f9 -->
<g id="edge_319f50c2-bf55-4664-b182-f669973ab195" class="edge">
<title>Play #1: Main deployment playbook for integrating submariner (0)-&gt;task_fea946ab-808e-4da6-979b-27bd9199e0f9</title>
<path fill="none" stroke="#0c880a" stroke-width="2" d="M883.59,-381.71C920.15,-378.51 958.13,-375.37 993.76,-372.72 1073.43,-366.8 1160.98,-361.38 1237.99,-356.96"/>
<polygon fill="#0c880a" stroke="#0c880a" stroke-width="2" points="1238.51,-360.44 1248.3,-356.38 1238.11,-353.45 1238.51,-360.44"/>
<text text-anchor="middle" x="966.26" y="-378.52" font-family="Times,serif" font-size="14.00" fill="#0c880a">9</text>
<links><link target="task_fea946ab-808e-4da6-979b-27bd9199e0f9"/></links></g>
<!-- task_172babf0&#45;8747&#45;4870&#45;95c1&#45;da0660f9d971 -->
<g id="task_172babf0-8747-4870-95c1-da0660f9d971" class="node">
<title>task_172babf0-8747-4870-95c1-da0660f9d971</title>
<g id="a_task_172babf0-8747-4870-95c1-da0660f9d971"><a xlink:title="[task] ../../roles/kubeinit_prepare : list all_nodes">
<polygon fill="none" stroke="black" points="1702.83,-284.26 1702.83,-299.18 1556.16,-309.72 1348.73,-309.72 1202.06,-299.18 1202.06,-284.26 1348.73,-273.72 1556.16,-273.72 1702.83,-284.26"/>
<text text-anchor="middle" x="1452.44" y="-288.02" font-family="Times,serif" font-size="14.00">[task] ../../roles/kubeinit_prepare : list all_nodes</text>
</a>
</g>
</g>
<!-- Play #1: Main deployment playbook for integrating submariner (0)&#45;&gt;task_172babf0&#45;8747&#45;4870&#45;95c1&#45;da0660f9d971 -->
<g id="edge_1f274c2d-7503-49fe-9606-7755af56cf6b" class="edge">
<title>Play #1: Main deployment playbook for integrating submariner (0)-&gt;task_172babf0-8747-4870-95c1-da0660f9d971</title>
<path fill="none" stroke="#0c880a" stroke-width="2" d="M746.01,-381.72C805.76,-362.54 905.49,-333.03 993.76,-318.72 1057.44,-308.4 1126.66,-301.91 1191.54,-297.85"/>
<polygon fill="#0c880a" stroke="#0c880a" stroke-width="2" points="1192.15,-301.32 1201.92,-297.22 1191.72,-294.34 1192.15,-301.32"/>
<text text-anchor="middle" x="966.26" y="-327.52" font-family="Times,serif" font-size="14.00" fill="#0c880a">10</text>
<links><link target="task_172babf0-8747-4870-95c1-da0660f9d971"/></links></g>
<!-- task_2fde002f&#45;2f14&#45;46c1&#45;9061&#45;aedc556feb96 -->
<g id="task_2fde002f-2f14-46c1-9061-aedc556feb96" class="node">
<title>task_2fde002f-2f14-46c1-9061-aedc556feb96</title>
<g id="a_task_2fde002f-2f14-46c1-9061-aedc556feb96"><a xlink:title="[task] ../../roles/kubeinit_prepare : list all_master_nodes">
<polygon fill="none" stroke="black" points="1743.03,-230.26 1743.03,-245.18 1572.81,-255.72 1332.08,-255.72 1161.86,-245.18 1161.86,-230.26 1332.08,-219.72 1572.81,-219.72 1743.03,-230.26"/>
<text text-anchor="middle" x="1452.44" y="-234.02" font-family="Times,serif" font-size="14.00">[task] ../../roles/kubeinit_prepare : list all_master_nodes</text>
</a>
</g>
</g>
<!-- Play #1: Main deployment playbook for integrating submariner (0)&#45;&gt;task_2fde002f&#45;2f14&#45;46c1&#45;9061&#45;aedc556feb96 -->
<g id="edge_7dc06850-9fce-4580-9366-9997410cd658" class="edge">
<title>Play #1: Main deployment playbook for integrating submariner (0)-&gt;task_2fde002f-2f14-46c1-9061-aedc556feb96</title>
<path fill="none" stroke="#0c880a" stroke-width="2" d="M722.61,-381.63C775.53,-351.14 889.03,-290.35 993.76,-264.72 1044.15,-252.39 1098.55,-244.59 1151.65,-239.81"/>
<polygon fill="#0c880a" stroke="#0c880a" stroke-width="2" points="1152.24,-243.27 1161.9,-238.92 1151.63,-236.3 1152.24,-243.27"/>
<text text-anchor="middle" x="966.26" y="-277.52" font-family="Times,serif" font-size="14.00" fill="#0c880a">11</text>
<links><link target="task_2fde002f-2f14-46c1-9061-aedc556feb96"/></links></g>
<!-- task_940dd252&#45;0909&#45;44c1&#45;b95d&#45;48f5e7ac4132 -->
<g id="task_940dd252-0909-44c1-b95d-48f5e7ac4132" class="node">
<title>task_940dd252-0909-44c1-b95d-48f5e7ac4132</title>
<g id="a_task_940dd252-0909-44c1-b95d-48f5e7ac4132"><a xlink:title="[task] ../../roles/kubeinit_prepare : list all_worker_nodes">
<polygon fill="none" stroke="black" points="1743.03,-176.26 1743.03,-191.18 1572.81,-201.72 1332.08,-201.72 1161.86,-191.18 1161.86,-176.26 1332.08,-165.72 1572.81,-165.72 1743.03,-176.26"/>
<text text-anchor="middle" x="1452.44" y="-180.02" font-family="Times,serif" font-size="14.00">[task] ../../roles/kubeinit_prepare : list all_worker_nodes</text>
</a>
</g>
</g>
<!-- Play #1: Main deployment playbook for integrating submariner (0)&#45;&gt;task_940dd252&#45;0909&#45;44c1&#45;b95d&#45;48f5e7ac4132 -->
<g id="edge_605cc9d0-055e-46ec-a758-9950289a49af" class="edge">
<title>Play #1: Main deployment playbook for integrating submariner (0)-&gt;task_940dd252-0909-44c1-b95d-48f5e7ac4132</title>
<path fill="none" stroke="#0c880a" stroke-width="2" d="M712.69,-381.65C758.84,-342.07 876.37,-248.25 993.76,-210.72 1043.73,-194.75 1098.29,-185.21 1151.78,-179.85"/>
<polygon fill="#0c880a" stroke="#0c880a" stroke-width="2" points="1152.14,-183.33 1161.76,-178.9 1151.47,-176.36 1152.14,-183.33"/>
<text text-anchor="middle" x="966.26" y="-227.52" font-family="Times,serif" font-size="14.00" fill="#0c880a">12</text>
<links><link target="task_940dd252-0909-44c1-b95d-48f5e7ac4132"/></links></g>
<!-- task_1d9c1ee4&#45;7544&#45;4a7c&#45;a7e7&#45;44735fc7514a -->
<g id="task_1d9c1ee4-7544-4a7c-a7e7-44735fc7514a" class="node">
<title>task_1d9c1ee4-7544-4a7c-a7e7-44735fc7514a</title>
<g id="a_task_1d9c1ee4-7544-4a7c-a7e7-44735fc7514a"><a xlink:title="[task] ../../roles/kubeinit_prepare : list all_service_nodes">
<polygon fill="none" stroke="black" points="1743.93,-122.26 1743.93,-137.18 1573.18,-147.72 1331.7,-147.72 1160.95,-137.18 1160.95,-122.26 1331.7,-111.72 1573.18,-111.72 1743.93,-122.26"/>
<text text-anchor="middle" x="1452.44" y="-126.02" font-family="Times,serif" font-size="14.00">[task] ../../roles/kubeinit_prepare : list all_service_nodes</text>
</a>
</g>
</g>
<!-- Play #1: Main deployment playbook for integrating submariner (0)&#45;&gt;task_1d9c1ee4&#45;7544&#45;4a7c&#45;a7e7&#45;44735fc7514a -->
<g id="edge_e13c5190-021d-4a88-99d1-ed1c443a3253" class="edge">
<title>Play #1: Main deployment playbook for integrating submariner (0)-&gt;task_1d9c1ee4-7544-4a7c-a7e7-44735fc7514a</title>
<path fill="none" stroke="#0c880a" stroke-width="2" d="M707.2,-381.59C747.51,-334.18 864.27,-206.75 993.76,-156.72 1078.49,-123.99 1178.61,-115.07 1263.58,-115.25"/>
<polygon fill="#0c880a" stroke="#0c880a" stroke-width="2" points="1263.57,-118.75 1273.6,-115.31 1263.62,-111.75 1263.57,-118.75"/>
<text text-anchor="middle" x="966.26" y="-172.52" font-family="Times,serif" font-size="14.00" fill="#0c880a">13</text>
<links><link target="task_1d9c1ee4-7544-4a7c-a7e7-44735fc7514a"/></links></g>
<!-- task_5f9da215&#45;4770&#45;4338&#45;b9ff&#45;e4534a841333 -->
<g id="task_5f9da215-4770-4338-b9ff-e4534a841333" class="node">
<title>task_5f9da215-4770-4338-b9ff-e4534a841333</title>
<g id="a_task_5f9da215-4770-4338-b9ff-e4534a841333"><a xlink:title="[task] ../../roles/kubeinit_prepare : list all_bootstrap_nodes">
<polygon fill="none" stroke="black" points="1756.26,-68.26 1756.26,-83.18 1578.29,-93.72 1326.6,-93.72 1148.62,-83.18 1148.62,-68.26 1326.6,-57.72 1578.29,-57.72 1756.26,-68.26"/>
<text text-anchor="middle" x="1452.44" y="-72.02" font-family="Times,serif" font-size="14.00">[task] ../../roles/kubeinit_prepare : list all_bootstrap_nodes</text>
</a>
</g>
</g>
<!-- Play #1: Main deployment playbook for integrating submariner (0)&#45;&gt;task_5f9da215&#45;4770&#45;4338&#45;b9ff&#45;e4534a841333 -->
<g id="edge_1f011280-5376-4e8e-b49f-48bcea662045" class="edge">
<title>Play #1: Main deployment playbook for integrating submariner (0)-&gt;task_5f9da215-4770-4338-b9ff-e4534a841333</title>
<path fill="none" stroke="#0c880a" stroke-width="2" d="M703.56,-381.64C738.61,-327.39 851.77,-165.86 993.76,-102.72 1088.4,-60.64 1205.08,-54.36 1296.94,-58.36"/>
<polygon fill="#0c880a" stroke="#0c880a" stroke-width="2" points="1297,-61.87 1307.16,-58.85 1297.34,-54.88 1297,-61.87"/>
<text text-anchor="middle" x="966.26" y="-121.52" font-family="Times,serif" font-size="14.00" fill="#0c880a">14</text>
<links><link target="task_5f9da215-4770-4338-b9ff-e4534a841333"/></links></g>
<!-- task_fd86244f&#45;59f7&#45;4b2f&#45;93cf&#45;a3e50436feb2 -->
<g id="task_fd86244f-59f7-4b2f-93cf-a3e50436feb2" class="node">
<title>task_fd86244f-59f7-4b2f-93cf-a3e50436feb2</title>
<g id="a_task_fd86244f-59f7-4b2f-93cf-a3e50436feb2"><a xlink:title="[task] ../../roles/kubeinit_submariner : Execute subctl verify">
<polygon fill="none" stroke="black" points="1762.92,-14.26 1762.92,-29.18 1581.05,-39.72 1323.84,-39.72 1141.96,-29.18 1141.96,-14.26 1323.84,-3.72 1581.05,-3.72 1762.92,-14.26"/>
<text text-anchor="middle" x="1452.44" y="-18.02" font-family="Times,serif" font-size="14.00">[task] ../../roles/kubeinit_submariner : Execute subctl verify</text>
</a>
</g>
</g>
<!-- Play #1: Main deployment playbook for integrating submariner (0)&#45;&gt;task_fd86244f&#45;59f7&#45;4b2f&#45;93cf&#45;a3e50436feb2 -->
<g id="edge_fc1fdf57-62dd-4099-9bd5-35a2d584ee0d" class="edge">
<title>Play #1: Main deployment playbook for integrating submariner (0)-&gt;task_fd86244f-59f7-4b2f-93cf-a3e50436feb2</title>
<path fill="none" stroke="#0c880a" stroke-width="2" d="M701.08,-381.5C731.53,-320.86 839.01,-125.4 993.76,-48.72 1093.82,0.85 1221.65,4.2 1316.77,-2.9"/>
<polygon fill="#0c880a" stroke="#0c880a" stroke-width="2" points="1316.5,-6.39 1326.75,-3.69 1317.06,0.59 1316.5,-6.39"/>
<text text-anchor="middle" x="966.26" y="-70.52" font-family="Times,serif" font-size="14.00" fill="#0c880a">15</text>
<links><link target="task_fd86244f-59f7-4b2f-93cf-a3e50436feb2"/></links></g>
</g>
</svg>