<?xml version='1.0' encoding='UTF-8'?>
<!DOCTYPE svg PUBLIC "-//W3C//DTD SVG 1.1//EN" "http://www.w3.org/Graphics/SVG/1.1/DTD/svg11.dtd">
<!-- Generated by graphviz version 2.43.0 (0)
 --><!-- Title: ./playbooks/submariner&#45;subctl&#45;verify.yml  Pages: 1 --><svg xmlns="http://www.w3.org/2000/svg" xmlns:xlink="http://www.w3.org/1999/xlink" width="1919pt" height="807pt" viewBox="0.00 0.00 1919.12 807.41" id="svg">
<script type="text/javascript" href="https://ajax.googleapis.com/ajax/libs/jquery/3.2.1/jquery.min.js" id="jquery"/><script type="text/javascript" id="my_javascript"><![CDATA[const HOVER_CLASS = "my_hover";

var selectedElement = null;

function addClass(rootElement) {
    $(rootElement).find('link').each(function (index, element) {
        var target = $(element).attr('target');
        var currentElement = $('#' + target);
        currentElement.addClass(HOVER_CLASS);

        addClass(currentElement);
    })
}

function removeClass(rootElement, hover) {
    $(rootElement).find('link').each(function (index, element) {
        if ($(rootElement).attr('id') !== $(selectedElement).attr('id') || !hover) {
            var target = $(element).attr('target');
            var currentElement = $('#' + target);
            currentElement.removeClass(HOVER_CLASS);

            removeClass(currentElement);
        }

    })
}

function hoverIn(event) {
    addClass(event.currentTarget);
}

function hoverOut(event) {
    removeClass(event.currentTarget, true);
}

function clickOnElement(event) {
    var newElement = event.currentTarget;

    if ($(newElement).attr('id') === $(selectedElement).attr('id')) {
        removeClass(selectedElement, false);
    } else {
        removeClass(selectedElement);
        addClass(newElement)
    }

    selectedElement = newElement;
}


$("#svg").ready(function () {

    $("g[id^=play_]").hover(hoverIn, hoverOut);
    $("g[id^=role_]").hover(hoverIn, hoverOut);

    $("g[id^=play_]").click(clickOnElement);
    $("g[id^=role_]").click(clickOnElement);

});
]]></script><style type="text/css" id="my_css"><![CDATA[.node:hover, .edge:hover, path:hover, path + polygon:hover {
    cursor: pointer;
    stroke-width: 3;
    font-weight: bolder;
}

.my_hover {
    cursor: pointer;
    stroke-width: 3;
    font-weight: bolder;
}
]]></style><g id="graph0" class="graph" transform="scale(1 1) rotate(0) translate(4 803.41)">
<title>./playbooks/submariner-subctl-verify.yml </title>
<polygon fill="white" stroke="transparent" points="-4,4 -4,-803.41 1915.12,-803.41 1915.12,4 -4,4"/>
<!-- ./playbooks/submariner&#45;subctl&#45;verify.yml -->
<g id="root_node" class="node">
<title>./playbooks/submariner-subctl-verify.yml</title>
<ellipse fill="none" stroke="black" stroke-dasharray="1,5" cx="198.88" cy="-399.72" rx="198.76" ry="18"/>
<text text-anchor="middle" x="198.88" y="-396.02" font-family="Times,serif" font-size="14.00">./playbooks/submariner-subctl-verify.yml</text>
</g>
<!-- Play #1: Main deployment playbook for integrating submariner (0) -->
<g id="play_57c22e07-1df5-4d70-9ed4-66475237b26e" class="node">
<title>Play #1: Main deployment playbook for integrating submariner (0)</title>
<polygon fill="#ab51bd" stroke="#ab51bd" points="938.76,-417.72 443.76,-417.72 443.76,-381.72 938.76,-381.72 938.76,-417.72"/>
<text text-anchor="middle" x="691.26" y="-396.02" font-family="Times,serif" font-size="14.00" fill="#ffffff">Play #1: Main deployment playbook for integrating submariner (0)</text>
<links><link target="edge_b585ae22-d248-4b64-8481-5e86bd90d40e"/><link target="edge_577168c8-1691-48fe-a12a-87317872b3f5"/><link target="edge_3c8e1561-85ff-4983-bc0d-ab6b1bebcc61"/><link target="edge_d0d7cacd-c760-4b5a-aaa3-a95410195104"/><link target="edge_8da4bb10-c32e-4fe3-af8c-4bb8eac9cb83"/><link target="edge_61b9e972-500d-420d-a5da-b8b5afc89890"/><link target="edge_1d1f6075-43c6-40bf-a4c4-a5f9257b6d12"/><link target="edge_7d4346f4-0e4d-4deb-9257-48c940ae7698"/><link target="edge_e68d1473-a17a-44e2-bc3b-a7e1190a464b"/><link target="edge_3b2cb43e-4dd5-4f05-8c6f-957d466528fe"/><link target="edge_b35b7874-f158-4a7a-9aa0-953b0ec6d751"/><link target="edge_84fa537a-4f26-4aed-b77f-ae6335230c6f"/><link target="edge_c82eaa29-2d49-447b-8d8f-d9ccaa935f13"/><link target="edge_ea38c24f-ed2c-4d46-8b9f-50a72adb3b3b"/><link target="edge_78e8e049-117f-443c-9653-eff843eb6e9d"/></links></g>
<!-- ./playbooks/submariner&#45;subctl&#45;verify.yml&#45;&gt;Play #1: Main deployment playbook for integrating submariner (0) -->
<g id="edge_b4573726-a23e-4ce2-af59-b632323bfe45" class="edge">
<title>./playbooks/submariner-subctl-verify.yml-&gt;Play #1: Main deployment playbook for integrating submariner (0)</title>
<path fill="none" stroke="#ab51bd" stroke-width="2" d="M397.93,-399.72C409.66,-399.72 421.54,-399.72 433.46,-399.72"/>
<polygon fill="#ab51bd" stroke="#ab51bd" stroke-width="2" points="433.48,-403.22 443.48,-399.72 433.48,-396.22 433.48,-403.22"/>
<text text-anchor="middle" x="420.76" y="-403.52" font-family="Times,serif" font-size="14.00" fill="#ab51bd">1</text>
</g>
<!-- pre_task_f42748e5&#45;e8c7&#45;42d0&#45;8216&#45;8e5e36743202 -->
<g id="pre_task_f42748e5-e8c7-42d0-8216-8e5e36743202" class="node">
<title>pre_task_f42748e5-e8c7-42d0-8216-8e5e36743202</title>
<g id="a_pre_task_f42748e5-e8c7-42d0-8216-8e5e36743202"><a xlink:title="[pre_task] Check if Ansible meets version requirements.">
<polygon fill="none" stroke="black" points="1746.56,-770.26 1746.56,-785.18 1574.27,-795.72 1330.61,-795.72 1158.32,-785.18 1158.32,-770.26 1330.61,-759.72 1574.27,-759.72 1746.56,-770.26"/>
<text text-anchor="middle" x="1452.44" y="-774.02" font-family="Times,serif" font-size="14.00">[pre_task] Check if Ansible meets version requirements.</text>
</a>
</g>
</g>
<!-- Play #1: Main deployment playbook for integrating submariner (0)&#45;&gt;pre_task_f42748e5&#45;e8c7&#45;42d0&#45;8216&#45;8e5e36743202 -->
<g id="edge_b585ae22-d248-4b64-8481-5e86bd90d40e" class="edge">
<title>Play #1: Main deployment playbook for integrating submariner (0)-&gt;pre_task_f42748e5-e8c7-42d0-8216-8e5e36743202</title>
<path fill="none" stroke="#ab51bd" stroke-width="2" d="M701.08,-417.95C731.53,-478.59 839.01,-674.04 993.76,-750.72 1094.33,-800.55 1222.97,-803.68 1318.25,-796.43"/>
<polygon fill="#ab51bd" stroke="#ab51bd" stroke-width="2" points="1318.55,-799.92 1328.23,-795.63 1317.98,-792.94 1318.55,-799.92"/>
<text text-anchor="middle" x="966.26" y="-742.52" font-family="Times,serif" font-size="14.00" fill="#ab51bd">1</text>
<links><link target="pre_task_f42748e5-e8c7-42d0-8216-8e5e36743202"/></links></g>
<!-- task_302a6783&#45;f1bd&#45;4537&#45;8353&#45;b35ffddf0b6c -->
<g id="task_302a6783-f1bd-4537-8353-b35ffddf0b6c" class="node">
<title>task_302a6783-f1bd-4537-8353-b35ffddf0b6c</title>
<g id="a_task_302a6783-f1bd-4537-8353-b35ffddf0b6c"><a xlink:title="[task] ../../roles/kubeinit_prepare : Gather variables for each operating system">
<polygon fill="none" stroke="black" points="1856.05,-716.26 1856.05,-731.18 1619.62,-741.72 1285.26,-741.72 1048.83,-731.18 1048.83,-716.26 1285.26,-705.72 1619.62,-705.72 1856.05,-716.26"/>
<text text-anchor="middle" x="1452.44" y="-720.02" font-family="Times,serif" font-size="14.00">[task] ../../roles/kubeinit_prepare : Gather variables for each operating system</text>
</a>
</g>
</g>
<!-- Play #1: Main deployment playbook for integrating submariner (0)&#45;&gt;task_302a6783&#45;f1bd&#45;4537&#45;8353&#45;b35ffddf0b6c -->
<g id="edge_577168c8-1691-48fe-a12a-87317872b3f5" class="edge">
<title>Play #1: Main deployment playbook for integrating submariner (0)-&gt;task_302a6783-f1bd-4537-8353-b35ffddf0b6c</title>
<path fill="none" stroke="#ab51bd" stroke-width="2" d="M703.56,-417.8C738.61,-472.05 851.77,-633.58 993.76,-696.72 1080.17,-735.14 1184.93,-743.72 1272.42,-741.87"/>
<polygon fill="#ab51bd" stroke="#ab51bd" stroke-width="2" points="1272.55,-745.37 1282.45,-741.62 1272.37,-738.37 1272.55,-745.37"/>
<text text-anchor="middle" x="966.26" y="-690.52" font-family="Times,serif" font-size="14.00" fill="#ab51bd">2</text>
<links><link target="task_302a6783-f1bd-4537-8353-b35ffddf0b6c"/></links></g>
<!-- task_2840b733&#45;f91d&#45;4cf9&#45;b80f&#45;9e833c731bcc -->
<g id="task_2840b733-f91d-4cf9-b80f-9e833c731bcc" class="node">
<title>task_2840b733-f91d-4cf9-b80f-9e833c731bcc</title>
<g id="a_task_2840b733-f91d-4cf9-b80f-9e833c731bcc"><a xlink:title="[task] ../../roles/kubeinit_prepare : add all nodes to the all_nodes group">
<polygon fill="none" stroke="black" points="1818.98,-662.26 1818.98,-677.18 1604.27,-687.72 1300.62,-687.72 1085.9,-677.18 1085.9,-662.26 1300.62,-651.72 1604.27,-651.72 1818.98,-662.26"/>
<text text-anchor="middle" x="1452.44" y="-666.02" font-family="Times,serif" font-size="14.00">[task] ../../roles/kubeinit_prepare : add all nodes to the all_nodes group</text>
</a>
</g>
</g>
<!-- Play #1: Main deployment playbook for integrating submariner (0)&#45;&gt;task_2840b733&#45;f91d&#45;4cf9&#45;b80f&#45;9e833c731bcc -->
<g id="edge_3c8e1561-85ff-4983-bc0d-ab6b1bebcc61" class="edge">
<title>Play #1: Main deployment playbook for integrating submariner (0)-&gt;task_2840b733-f91d-4cf9-b80f-9e833c731bcc</title>
<path fill="none" stroke="#ab51bd" stroke-width="2" d="M707.2,-417.85C747.51,-465.26 864.27,-592.69 993.76,-642.72 1019.92,-652.82 1047.54,-660.66 1075.72,-666.66"/>
<polygon fill="#ab51bd" stroke="#ab51bd" stroke-width="2" points="1075.22,-670.12 1085.72,-668.7 1076.62,-663.27 1075.22,-670.12"/>
<text text-anchor="middle" x="966.26" y="-638.52" font-family="Times,serif" font-size="14.00" fill="#ab51bd">3</text>
<links><link target="task_2840b733-f91d-4cf9-b80f-9e833c731bcc"/></links></g>
<!-- task_24ae8622&#45;244d&#45;4e54&#45;b89a&#45;35bbfe00d4ab -->
<g id="task_24ae8622-244d-4e54-b89a-35bbfe00d4ab" class="node">
<title>task_24ae8622-244d-4e54-b89a-35bbfe00d4ab</title>
<g id="a_task_24ae8622-244d-4e54-b89a-35bbfe00d4ab"><a xlink:title="[task] ../../roles/kubeinit_prepare : add all master nodes to the all_master_nodes group">
<polygon fill="none" stroke="black" points="1897.56,-608.26 1897.56,-623.18 1636.82,-633.72 1268.07,-633.72 1007.32,-623.18 1007.32,-608.26 1268.07,-597.72 1636.82,-597.72 1897.56,-608.26"/>
<text text-anchor="middle" x="1452.44" y="-612.02" font-family="Times,serif" font-size="14.00">[task] ../../roles/kubeinit_prepare : add all master nodes to the all_master_nodes group</text>
</a>
</g>
</g>
<!-- Play #1: Main deployment playbook for integrating submariner (0)&#45;&gt;task_24ae8622&#45;244d&#45;4e54&#45;b89a&#45;35bbfe00d4ab -->
<g id="edge_d0d7cacd-c760-4b5a-aaa3-a95410195104" class="edge">
<title>Play #1: Main deployment playbook for integrating submariner (0)-&gt;task_24ae8622-244d-4e54-b89a-35bbfe00d4ab</title>
<path fill="none" stroke="#ab51bd" stroke-width="2" d="M712.69,-417.79C758.84,-457.37 876.37,-551.19 993.76,-588.72 1012.33,-594.66 1031.53,-599.7 1051.08,-603.98"/>
<polygon fill="#ab51bd" stroke="#ab51bd" stroke-width="2" points="1050.5,-607.43 1061.01,-606.08 1051.95,-600.58 1050.5,-607.43"/>
<text text-anchor="middle" x="966.26" y="-585.52" font-family="Times,serif" font-size="14.00" fill="#ab51bd">4</text>
<links><link target="task_24ae8622-244d-4e54-b89a-35bbfe00d4ab"/></links></g>
<!-- task_d61bbd0d&#45;bb1c&#45;4d28&#45;b0f4&#45;963943305c5a -->
<g id="task_d61bbd0d-bb1c-4d28-b0f4-963943305c5a" class="node">
<title>task_d61bbd0d-bb1c-4d28-b0f4-963943305c5a</title>
<g id="a_task_d61bbd0d-bb1c-4d28-b0f4-963943305c5a"><a xlink:title="[task] ../../roles/kubeinit_prepare : add all worker nodes to the all_worker_nodes group">
<polygon fill="none" stroke="black" points="1897.56,-554.26 1897.56,-569.18 1636.82,-579.72 1268.07,-579.72 1007.32,-569.18 1007.32,-554.26 1268.07,-543.72 1636.82,-543.72 1897.56,-554.26"/>
<text text-anchor="middle" x="1452.44" y="-558.02" font-family="Times,serif" font-size="14.00">[task] ../../roles/kubeinit_prepare : add all worker nodes to the all_worker_nodes group</text>
</a>
</g>
</g>
<!-- Play #1: Main deployment playbook for integrating submariner (0)&#45;&gt;task_d61bbd0d&#45;bb1c&#45;4d28&#45;b0f4&#45;963943305c5a -->
<g id="edge_8da4bb10-c32e-4fe3-af8c-4bb8eac9cb83" class="edge">
<title>Play #1: Main deployment playbook for integrating submariner (0)-&gt;task_d61bbd0d-bb1c-4d28-b0f4-963943305c5a</title>
<path fill="none" stroke="#ab51bd" stroke-width="2" d="M722.61,-417.81C775.53,-448.3 889.03,-509.1 993.76,-534.72 1018.53,-540.78 1044.27,-545.75 1070.34,-549.8"/>
<polygon fill="#ab51bd" stroke="#ab51bd" stroke-width="2" points="1069.93,-553.28 1080.34,-551.31 1070.98,-546.35 1069.93,-553.28"/>
<text text-anchor="middle" x="966.26" y="-531.52" font-family="Times,serif" font-size="14.00" fill="#ab51bd">5</text>
<links><link target="task_d61bbd0d-bb1c-4d28-b0f4-963943305c5a"/></links></g>
<!-- task_89382bd1&#45;643e&#45;4b7f&#45;8fe6&#45;9c65caf3bd58 -->
<g id="task_89382bd1-643e-4b7f-8fe6-9c65caf3bd58" class="node">
<title>task_89382bd1-643e-4b7f-8fe6-9c65caf3bd58</title>
<g id="a_task_89382bd1-643e-4b7f-8fe6-9c65caf3bd58"><a xlink:title="[task] ../../roles/kubeinit_prepare : add all bootstrap nodes the all_bootstrap_nodes group">
<polygon fill="none" stroke="black" points="1911.3,-500.26 1911.3,-515.18 1642.51,-525.72 1262.38,-525.72 993.59,-515.18 993.59,-500.26 1262.38,-489.72 1642.51,-489.72 1911.3,-500.26"/>
<text text-anchor="middle" x="1452.44" y="-504.02" font-family="Times,serif" font-size="14.00">[task] ../../roles/kubeinit_prepare : add all bootstrap nodes the all_bootstrap_nodes group</text>
</a>
</g>
</g>
<!-- Play #1: Main deployment playbook for integrating submariner (0)&#45;&gt;task_89382bd1&#45;643e&#45;4b7f&#45;8fe6&#45;9c65caf3bd58 -->
<g id="edge_61b9e972-500d-420d-a5da-b8b5afc89890" class="edge">
<title>Play #1: Main deployment playbook for integrating submariner (0)-&gt;task_89382bd1-643e-4b7f-8fe6-9c65caf3bd58</title>
<path fill="none" stroke="#ab51bd" stroke-width="2" d="M746.01,-417.72C805.76,-436.9 905.49,-466.41 993.76,-480.72 1028.96,-486.42 1065.84,-490.96 1102.75,-494.56"/>
<polygon fill="#ab51bd" stroke="#ab51bd" stroke-width="2" points="1102.88,-498.09 1113.16,-495.55 1103.54,-491.12 1102.88,-498.09"/>
<text text-anchor="middle" x="966.26" y="-479.52" font-family="Times,serif" font-size="14.00" fill="#ab51bd">6</text>
<links><link target="task_89382bd1-643e-4b7f-8fe6-9c65caf3bd58"/></links></g>
<!-- task_f331b198&#45;4abe&#45;44a2&#45;a1eb&#45;023c1667c885 -->
<g id="task_f331b198-4abe-44a2-a1eb-023c1667c885" class="node">
<title>task_f331b198-4abe-44a2-a1eb-023c1667c885</title>
<g id="a_task_f331b198-4abe-44a2-a1eb-023c1667c885"><a xlink:title="[task] ../../roles/kubeinit_prepare : add all service nodes to the all_service_nodes group">
<polygon fill="none" stroke="black" points="1899.38,-446.26 1899.38,-461.18 1637.57,-471.72 1267.32,-471.72 1005.51,-461.18 1005.51,-446.26 1267.32,-435.72 1637.57,-435.72 1899.38,-446.26"/>
<text text-anchor="middle" x="1452.44" y="-450.02" font-family="Times,serif" font-size="14.00">[task] ../../roles/kubeinit_prepare : add all service nodes to the all_service_nodes group</text>
</a>
</g>
</g>
<!-- Play #1: Main deployment playbook for integrating submariner (0)&#45;&gt;task_f331b198&#45;4abe&#45;44a2&#45;a1eb&#45;023c1667c885 -->
<g id="edge_1d1f6075-43c6-40bf-a4c4-a5f9257b6d12" class="edge">
<title>Play #1: Main deployment playbook for integrating submariner (0)-&gt;task_f331b198-4abe-44a2-a1eb-023c1667c885</title>
<path fill="none" stroke="#ab51bd" stroke-width="2" d="M883.59,-417.74C920.15,-420.93 958.13,-424.07 993.76,-426.72 1051.17,-430.98 1112.66,-434.99 1171.35,-438.55"/>
<polygon fill="#ab51bd" stroke="#ab51bd" stroke-width="2" points="1171.32,-442.05 1181.51,-439.16 1171.74,-435.07 1171.32,-442.05"/>
<text text-anchor="middle" x="966.26" y="-428.52" font-family="Times,serif" font-size="14.00" fill="#ab51bd">7</text>
<links><link target="task_f331b198-4abe-44a2-a1eb-023c1667c885"/></links></g>
<!-- task_4c9e7b2f&#45;4dff&#45;4788&#45;9694&#45;4e35f1225207 -->
<g id="task_4c9e7b2f-4dff-4788-9694-4e35f1225207" class="node">
<title>task_4c9e7b2f-4dff-4788-9694-4e35f1225207</title>
<g id="a_task_4c9e7b2f-4dff-4788-9694-4e35f1225207"><a xlink:title="[task] ../../roles/kubeinit_prepare : add all hosts to the all_hosts group">
<polygon fill="none" stroke="black" points="1814.13,-392.26 1814.13,-407.18 1602.26,-417.72 1302.62,-417.72 1090.75,-407.18 1090.75,-392.26 1302.62,-381.72 1602.26,-381.72 1814.13,-392.26"/>
<text text-anchor="middle" x="1452.44" y="-396.02" font-family="Times,serif" font-size="14.00">[task] ../../roles/kubeinit_prepare : add all hosts to the all_hosts group</text>
</a>
</g>
</g>
<!-- Play #1: Main deployment playbook for integrating submariner (0)&#45;&gt;task_4c9e7b2f&#45;4dff&#45;4788&#45;9694&#45;4e35f1225207 -->
<g id="edge_7d4346f4-0e4d-4deb-9257-48c940ae7698" class="edge">
<title>Play #1: Main deployment playbook for integrating submariner (0)-&gt;task_4c9e7b2f-4dff-4788-9694-4e35f1225207</title>
<path fill="none" stroke="#ab51bd" stroke-width="2" d="M939.01,-399.72C984.27,-399.72 1032.42,-399.72 1080.39,-399.72"/>
<polygon fill="#ab51bd" stroke="#ab51bd" stroke-width="2" points="1080.62,-403.22 1090.62,-399.72 1080.62,-396.22 1080.62,-403.22"/>
<text text-anchor="middle" x="966.26" y="-403.52" font-family="Times,serif" font-size="14.00" fill="#ab51bd">8</text>
<links><link target="task_4c9e7b2f-4dff-4788-9694-4e35f1225207"/></links></g>
<!-- task_c8aa74a5&#45;7a2c&#45;4390&#45;bb1a&#45;86cac615cfde -->
<g id="task_c8aa74a5-7a2c-4390-bb1a-86cac615cfde" class="node">
<title>task_c8aa74a5-7a2c-4390-bb1a-86cac615cfde</title>
<g id="a_task_c8aa74a5-7a2c-4390-bb1a-86cac615cfde"><a xlink:title="[task] ../../roles/kubeinit_prepare : list all_hosts">
<polygon fill="none" stroke="black" points="1700.61,-338.26 1700.61,-353.18 1555.24,-363.72 1349.65,-363.72 1204.28,-353.18 1204.28,-338.26 1349.65,-327.72 1555.24,-327.72 1700.61,-338.26"/>
<text text-anchor="middle" x="1452.44" y="-342.02" font-family="Times,serif" font-size="14.00">[task] ../../roles/kubeinit_prepare : list all_hosts</text>
</a>
</g>
</g>
<!-- Play #1: Main deployment playbook for integrating submariner (0)&#45;&gt;task_c8aa74a5&#45;7a2c&#45;4390&#45;bb1a&#45;86cac615cfde -->
<g id="edge_e68d1473-a17a-44e2-bc3b-a7e1190a464b" class="edge">
<title>Play #1: Main deployment playbook for integrating submariner (0)-&gt;task_c8aa74a5-7a2c-4390-bb1a-86cac615cfde</title>
<path fill="none" stroke="#ab51bd" stroke-width="2" d="M883.59,-381.71C920.15,-378.51 958.13,-375.37 993.76,-372.72 1073.43,-366.8 1160.98,-361.38 1237.99,-356.96"/>
<polygon fill="#ab51bd" stroke="#ab51bd" stroke-width="2" points="1238.51,-360.44 1248.3,-356.38 1238.11,-353.45 1238.51,-360.44"/>
<text text-anchor="middle" x="966.26" y="-378.52" font-family="Times,serif" font-size="14.00" fill="#ab51bd">9</text>
<links><link target="task_c8aa74a5-7a2c-4390-bb1a-86cac615cfde"/></links></g>
<!-- task_ace861dd&#45;56eb&#45;420a&#45;ae8a&#45;5e70cb07648c -->
<g id="task_ace861dd-56eb-420a-ae8a-5e70cb07648c" class="node">
<title>task_ace861dd-56eb-420a-ae8a-5e70cb07648c</title>
<g id="a_task_ace861dd-56eb-420a-ae8a-5e70cb07648c"><a xlink:title="[task] ../../roles/kubeinit_prepare : list all_nodes">
<polygon fill="none" stroke="black" points="1702.83,-284.26 1702.83,-299.18 1556.16,-309.72 1348.73,-309.72 1202.06,-299.18 1202.06,-284.26 1348.73,-273.72 1556.16,-273.72 1702.83,-284.26"/>
<text text-anchor="middle" x="1452.44" y="-288.02" font-family="Times,serif" font-size="14.00">[task] ../../roles/kubeinit_prepare : list all_nodes</text>
</a>
</g>
</g>
<!-- Play #1: Main deployment playbook for integrating submariner (0)&#45;&gt;task_ace861dd&#45;56eb&#45;420a&#45;ae8a&#45;5e70cb07648c -->
<g id="edge_3b2cb43e-4dd5-4f05-8c6f-957d466528fe" class="edge">
<title>Play #1: Main deployment playbook for integrating submariner (0)-&gt;task_ace861dd-56eb-420a-ae8a-5e70cb07648c</title>
<path fill="none" stroke="#ab51bd" stroke-width="2" d="M746.01,-381.72C805.76,-362.54 905.49,-333.03 993.76,-318.72 1057.44,-308.4 1126.66,-301.91 1191.54,-297.85"/>
<polygon fill="#ab51bd" stroke="#ab51bd" stroke-width="2" points="1192.15,-301.32 1201.92,-297.22 1191.72,-294.34 1192.15,-301.32"/>
<text text-anchor="middle" x="966.26" y="-327.52" font-family="Times,serif" font-size="14.00" fill="#ab51bd">10</text>
<links><link target="task_ace861dd-56eb-420a-ae8a-5e70cb07648c"/></links></g>
<!-- task_91ffe5c1&#45;0ce5&#45;4907&#45;8499&#45;dc8133c2197c -->
<g id="task_91ffe5c1-0ce5-4907-8499-dc8133c2197c" class="node">
<title>task_91ffe5c1-0ce5-4907-8499-dc8133c2197c</title>
<g id="a_task_91ffe5c1-0ce5-4907-8499-dc8133c2197c"><a xlink:title="[task] ../../roles/kubeinit_prepare : list all_master_nodes">
<polygon fill="none" stroke="black" points="1743.03,-230.26 1743.03,-245.18 1572.81,-255.72 1332.08,-255.72 1161.86,-245.18 1161.86,-230.26 1332.08,-219.72 1572.81,-219.72 1743.03,-230.26"/>
<text text-anchor="middle" x="1452.44" y="-234.02" font-family="Times,serif" font-size="14.00">[task] ../../roles/kubeinit_prepare : list all_master_nodes</text>
</a>
</g>
</g>
<!-- Play #1: Main deployment playbook for integrating submariner (0)&#45;&gt;task_91ffe5c1&#45;0ce5&#45;4907&#45;8499&#45;dc8133c2197c -->
<g id="edge_b35b7874-f158-4a7a-9aa0-953b0ec6d751" class="edge">
<title>Play #1: Main deployment playbook for integrating submariner (0)-&gt;task_91ffe5c1-0ce5-4907-8499-dc8133c2197c</title>
<path fill="none" stroke="#ab51bd" stroke-width="2" d="M722.61,-381.63C775.53,-351.14 889.03,-290.35 993.76,-264.72 1044.15,-252.39 1098.55,-244.59 1151.65,-239.81"/>
<polygon fill="#ab51bd" stroke="#ab51bd" stroke-width="2" points="1152.24,-243.27 1161.9,-238.92 1151.63,-236.3 1152.24,-243.27"/>
<text text-anchor="middle" x="966.26" y="-277.52" font-family="Times,serif" font-size="14.00" fill="#ab51bd">11</text>
<links><link target="task_91ffe5c1-0ce5-4907-8499-dc8133c2197c"/></links></g>
<!-- task_2c6c05a7&#45;fc6c&#45;4aa3&#45;a93c&#45;11964dfacdbc -->
<g id="task_2c6c05a7-fc6c-4aa3-a93c-11964dfacdbc" class="node">
<title>task_2c6c05a7-fc6c-4aa3-a93c-11964dfacdbc</title>
<g id="a_task_2c6c05a7-fc6c-4aa3-a93c-11964dfacdbc"><a xlink:title="[task] ../../roles/kubeinit_prepare : list all_worker_nodes">
<polygon fill="none" stroke="black" points="1743.03,-176.26 1743.03,-191.18 1572.81,-201.72 1332.08,-201.72 1161.86,-191.18 1161.86,-176.26 1332.08,-165.72 1572.81,-165.72 1743.03,-176.26"/>
<text text-anchor="middle" x="1452.44" y="-180.02" font-family="Times,serif" font-size="14.00">[task] ../../roles/kubeinit_prepare : list all_worker_nodes</text>
</a>
</g>
</g>
<!-- Play #1: Main deployment playbook for integrating submariner (0)&#45;&gt;task_2c6c05a7&#45;fc6c&#45;4aa3&#45;a93c&#45;11964dfacdbc -->
<g id="edge_84fa537a-4f26-4aed-b77f-ae6335230c6f" class="edge">
<title>Play #1: Main deployment playbook for integrating submariner (0)-&gt;task_2c6c05a7-fc6c-4aa3-a93c-11964dfacdbc</title>
<path fill="none" stroke="#ab51bd" stroke-width="2" d="M712.69,-381.65C758.84,-342.07 876.37,-248.25 993.76,-210.72 1043.73,-194.75 1098.29,-185.21 1151.78,-179.85"/>
<polygon fill="#ab51bd" stroke="#ab51bd" stroke-width="2" points="1152.14,-183.33 1161.76,-178.9 1151.47,-176.36 1152.14,-183.33"/>
<text text-anchor="middle" x="966.26" y="-227.52" font-family="Times,serif" font-size="14.00" fill="#ab51bd">12</text>
<links><link target="task_2c6c05a7-fc6c-4aa3-a93c-11964dfacdbc"/></links></g>
<!-- task_3f09993a&#45;19c8&#45;46e4&#45;8c02&#45;500f583944b0 -->
<g id="task_3f09993a-19c8-46e4-8c02-500f583944b0" class="node">
<title>task_3f09993a-19c8-46e4-8c02-500f583944b0</title>
<g id="a_task_3f09993a-19c8-46e4-8c02-500f583944b0"><a xlink:title="[task] ../../roles/kubeinit_prepare : list all_service_nodes">
<polygon fill="none" stroke="black" points="1743.93,-122.26 1743.93,-137.18 1573.18,-147.72 1331.7,-147.72 1160.95,-137.18 1160.95,-122.26 1331.7,-111.72 1573.18,-111.72 1743.93,-122.26"/>
<text text-anchor="middle" x="1452.44" y="-126.02" font-family="Times,serif" font-size="14.00">[task] ../../roles/kubeinit_prepare : list all_service_nodes</text>
</a>
</g>
</g>
<!-- Play #1: Main deployment playbook for integrating submariner (0)&#45;&gt;task_3f09993a&#45;19c8&#45;46e4&#45;8c02&#45;500f583944b0 -->
<g id="edge_c82eaa29-2d49-447b-8d8f-d9ccaa935f13" class="edge">
<title>Play #1: Main deployment playbook for integrating submariner (0)-&gt;task_3f09993a-19c8-46e4-8c02-500f583944b0</title>
<path fill="none" stroke="#ab51bd" stroke-width="2" d="M707.2,-381.59C747.51,-334.18 864.27,-206.75 993.76,-156.72 1078.49,-123.99 1178.61,-115.07 1263.58,-115.25"/>
<polygon fill="#ab51bd" stroke="#ab51bd" stroke-width="2" points="1263.57,-118.75 1273.6,-115.31 1263.62,-111.75 1263.57,-118.75"/>
<text text-anchor="middle" x="966.26" y="-172.52" font-family="Times,serif" font-size="14.00" fill="#ab51bd">13</text>
<links><link target="task_3f09993a-19c8-46e4-8c02-500f583944b0"/></links></g>
<!-- task_066d250f&#45;6cb5&#45;4142&#45;a604&#45;d061160bbe00 -->
<g id="task_066d250f-6cb5-4142-a604-d061160bbe00" class="node">
<title>task_066d250f-6cb5-4142-a604-d061160bbe00</title>
<g id="a_task_066d250f-6cb5-4142-a604-d061160bbe00"><a xlink:title="[task] ../../roles/kubeinit_prepare : list all_bootstrap_nodes">
<polygon fill="none" stroke="black" points="1756.26,-68.26 1756.26,-83.18 1578.29,-93.72 1326.6,-93.72 1148.62,-83.18 1148.62,-68.26 1326.6,-57.72 1578.29,-57.72 1756.26,-68.26"/>
<text text-anchor="middle" x="1452.44" y="-72.02" font-family="Times,serif" font-size="14.00">[task] ../../roles/kubeinit_prepare : list all_bootstrap_nodes</text>
</a>
</g>
</g>
<!-- Play #1: Main deployment playbook for integrating submariner (0)&#45;&gt;task_066d250f&#45;6cb5&#45;4142&#45;a604&#45;d061160bbe00 -->
<g id="edge_ea38c24f-ed2c-4d46-8b9f-50a72adb3b3b" class="edge">
<title>Play #1: Main deployment playbook for integrating submariner (0)-&gt;task_066d250f-6cb5-4142-a604-d061160bbe00</title>
<path fill="none" stroke="#ab51bd" stroke-width="2" d="M703.56,-381.64C738.61,-327.39 851.77,-165.86 993.76,-102.72 1088.4,-60.64 1205.08,-54.36 1296.94,-58.36"/>
<polygon fill="#ab51bd" stroke="#ab51bd" stroke-width="2" points="1297,-61.87 1307.16,-58.85 1297.34,-54.88 1297,-61.87"/>
<text text-anchor="middle" x="966.26" y="-121.52" font-family="Times,serif" font-size="14.00" fill="#ab51bd">14</text>
<links><link target="task_066d250f-6cb5-4142-a604-d061160bbe00"/></links></g>
<!-- task_726da1d8&#45;585a&#45;424e&#45;a926&#45;34d6a4620df5 -->
<g id="task_726da1d8-585a-424e-a926-34d6a4620df5" class="node">
<title>task_726da1d8-585a-424e-a926-34d6a4620df5</title>
<g id="a_task_726da1d8-585a-424e-a926-34d6a4620df5"><a xlink:title="[task] ../../roles/kubeinit_submariner : Execute subctl verify">
<polygon fill="none" stroke="black" points="1762.92,-14.26 1762.92,-29.18 1581.05,-39.72 1323.84,-39.72 1141.96,-29.18 1141.96,-14.26 1323.84,-3.72 1581.05,-3.72 1762.92,-14.26"/>
<text text-anchor="middle" x="1452.44" y="-18.02" font-family="Times,serif" font-size="14.00">[task] ../../roles/kubeinit_submariner : Execute subctl verify</text>
</a>
</g>
</g>
<!-- Play #1: Main deployment playbook for integrating submariner (0)&#45;&gt;task_726da1d8&#45;585a&#45;424e&#45;a926&#45;34d6a4620df5 -->
<g id="edge_78e8e049-117f-443c-9653-eff843eb6e9d" class="edge">
<title>Play #1: Main deployment playbook for integrating submariner (0)-&gt;task_726da1d8-585a-424e-a926-34d6a4620df5</title>
<path fill="none" stroke="#ab51bd" stroke-width="2" d="M701.08,-381.5C731.53,-320.86 839.01,-125.4 993.76,-48.72 1093.82,0.85 1221.65,4.2 1316.77,-2.9"/>
<polygon fill="#ab51bd" stroke="#ab51bd" stroke-width="2" points="1316.5,-6.39 1326.75,-3.69 1317.06,0.59 1316.5,-6.39"/>
<text text-anchor="middle" x="966.26" y="-70.52" font-family="Times,serif" font-size="14.00" fill="#ab51bd">15</text>
<links><link target="task_726da1d8-585a-424e-a926-34d6a4620df5"/></links></g>
</g>
</svg>