<?xml version='1.0' encoding='UTF-8'?>
<!DOCTYPE svg PUBLIC "-//W3C//DTD SVG 1.1//EN" "http://www.w3.org/Graphics/SVG/1.1/DTD/svg11.dtd">
<!-- Generated by graphviz version 2.40.1 (20161225.0304)
 --><!-- Title: ./playbooks/submariner.yml  Pages: 1 --><svg xmlns="http://www.w3.org/2000/svg" xmlns:xlink="http://www.w3.org/1999/xlink" width="2258pt" height="1450pt" viewBox="0.00 0.00 2258.50 1450.01" id="svg">
<script type="text/javascript" href="https://ajax.googleapis.com/ajax/libs/jquery/3.2.1/jquery.min.js" id="jquery"/><script type="text/javascript" id="my_javascript"><![CDATA[const HOVER_CLASS = "my_hover";

var selectedElement = null;

function addClass(rootElement) {
    $(rootElement).find('link').each(function (index, element) {
        var target = $(element).attr('target');
        var currentElement = $('#' + target);
        currentElement.addClass(HOVER_CLASS);

        addClass(currentElement);
    })
}

function removeClass(rootElement, hover) {
    $(rootElement).find('link').each(function (index, element) {
        if ($(rootElement).attr('id') !== $(selectedElement).attr('id') || !hover) {
            var target = $(element).attr('target');
            var currentElement = $('#' + target);
            currentElement.removeClass(HOVER_CLASS);

            removeClass(currentElement);
        }

    })
}

function hoverIn(event) {
    addClass(event.currentTarget);
}

function hoverOut(event) {
    removeClass(event.currentTarget, true);
}

function clickOnElement(event) {
    var newElement = event.currentTarget;

    if ($(newElement).attr('id') === $(selectedElement).attr('id')) {
        removeClass(selectedElement, false);
    } else {
        removeClass(selectedElement);
        addClass(newElement)
    }

    selectedElement = newElement;
}


$("#svg").ready(function () {

    $("g[id^=play_]").hover(hoverIn, hoverOut);
    $("g[id^=role_]").hover(hoverIn, hoverOut);

    $("g[id^=play_]").click(clickOnElement);
    $("g[id^=role_]").click(clickOnElement);

});
]]></script><style type="text/css" id="my_css"><![CDATA[.node:hover, .edge:hover, path:hover, path + polygon:hover {
    cursor: pointer;
    stroke-width: 3;
    font-weight: bolder;
}

.my_hover {
    cursor: pointer;
    stroke-width: 3;
    font-weight: bolder;
}
]]></style><g id="graph0" class="graph" transform="scale(1 1) rotate(0) translate(4 1446.0123)">
<title>./playbooks/submariner.yml </title>
<polygon fill="#ffffff" stroke="transparent" points="-4,4 -4,-1446.0123 2254.4971,-1446.0123 2254.4971,4 -4,4"/>
<!-- ./playbooks/submariner.yml -->
<g id="root_node" class="node">
<title>./playbooks/submariner.yml</title>
<ellipse fill="none" stroke="#000000" stroke-dasharray="1,5" cx="110.4902" cy="-735.0123" rx="110.4804" ry="18"/>
<text text-anchor="middle" x="110.4902" y="-731.3123" font-family="Times,serif" font-size="14.00" fill="#000000">./playbooks/submariner.yml</text>
</g>
<!-- Play #1: Main deployment playbook for integrating submariner (0) -->
<g id="play_e6ecde2a-f192-4760-a039-26794b3c5722" class="node">
<title>Play #1: Main deployment playbook for integrating submariner (0)</title>
<polygon fill="#6de447" stroke="#6de447" points="646.9804,-753.0123 263.9804,-753.0123 263.9804,-717.0123 646.9804,-717.0123 646.9804,-753.0123"/>
<text text-anchor="middle" x="455.4804" y="-731.3123" font-family="Times,serif" font-size="14.00" fill="#ffffff">Play #1: Main deployment playbook for integrating submariner (0)</text>
<links><link target="edge_b450953e-23ba-4f51-a1fa-2b60d1a4ea63"/><link target="edge_5400499b-4774-447d-8dbc-adfe3b724446"/><link target="edge_bb338d9d-a088-4ee1-ab66-69859a1ecbe4"/><link target="edge_b405da87-6b2f-41ea-b511-36ec521215b3"/><link target="edge_63dbd125-7946-4afb-b788-5d4a3e08c68a"/><link target="edge_ed3d3889-0f2e-4444-a939-6df6d214f00b"/><link target="edge_a45d4d7c-b001-4ae9-af27-9db5dea4885b"/><link target="edge_67000163-d53a-42d3-a6eb-5f64c3b0028e"/><link target="edge_d682d58a-2242-4036-b1dc-20a822ea5bdc"/><link target="edge_486c2e5e-0e69-4876-a7e2-d6d2a71a7134"/><link target="edge_5f7b9850-02b1-4373-afeb-a7b92b7198de"/><link target="edge_d3f811dc-bff2-4cba-9465-a84936dab4d3"/><link target="edge_b37212ad-0152-4766-9c9c-b44a62ca1923"/><link target="edge_1c7c29d6-2026-4cf0-8e53-bf3d3a2bd968"/><link target="edge_c550729d-9db8-48a2-ae64-cef7db46c217"/><link target="edge_5ea052e6-9576-4705-879c-31008212e44e"/><link target="edge_dc8e42a2-6983-473f-9ac7-2bccc623a231"/><link target="edge_2c36b6aa-9aac-4492-bef7-810ceddd637e"/><link target="edge_4bb0d8c3-bc0e-488f-947b-23f0f15f24a8"/><link target="edge_355f4f41-5cee-45b3-8eed-060802e9a9fb"/><link target="edge_81bb696c-4827-4d65-844b-d75fc898c038"/><link target="edge_845a91b9-148e-4068-9738-15d5c8b2d012"/><link target="edge_0deb525a-e7ea-493e-ae97-7003d5924493"/><link target="edge_8b2c22cb-090a-4890-8303-efd01366d5a7"/><link target="edge_d606d1f0-b0bf-4c66-8829-06b94d69e344"/><link target="edge_03f8cfe5-1c44-4098-9577-172a6a6191f5"/></links></g>
<!-- ./playbooks/submariner.yml&#45;&gt;Play #1: Main deployment playbook for integrating submariner (0) -->
<g id="edge_2474cbdf-2cb2-497b-a787-6c38b672651b" class="edge">
<title>./playbooks/submariner.yml-&gt;Play #1: Main deployment playbook for integrating submariner (0)</title>
<path fill="none" stroke="#6de447" stroke-width="2" d="M221.0708,-735.0123C231.6334,-735.0123 242.5531,-735.0123 253.6394,-735.0123"/>
<polygon fill="#6de447" stroke="#6de447" stroke-width="2" points="253.8622,-738.5124 263.8622,-735.0123 253.8621,-731.5124 253.8622,-738.5124"/>
<text text-anchor="middle" x="242.4804" y="-738.8123" font-family="Times,serif" font-size="14.00" fill="#6de447">1</text>
</g>
<!-- pre_task_03c8a840&#45;8ff1&#45;4ab7&#45;948c&#45;252a0c7809c5 -->
<g id="pre_task_03c8a840-8ff1-4ab7-948c-252a0c7809c5" class="node">
<title>pre_task_03c8a840-8ff1-4ab7-948c-252a0c7809c5</title>
<polygon fill="none" stroke="#000000" points="2044.916,-1402.5564 2044.916,-1417.4681 1910.6671,-1428.0123 1720.8104,-1428.0123 1586.5615,-1417.4681 1586.5615,-1402.5564 1720.8104,-1392.0123 1910.6671,-1392.0123 2044.916,-1402.5564"/>
<text text-anchor="middle" x="1815.7388" y="-1406.3123" font-family="Times,serif" font-size="14.00" fill="#000000">[pre_task] Check if Ansible meets version requirements.</text>
</g>
<!-- Play #1: Main deployment playbook for integrating submariner (0)&#45;&gt;pre_task_03c8a840&#45;8ff1&#45;4ab7&#45;948c&#45;252a0c7809c5 -->
<g id="edge_b450953e-23ba-4f51-a1fa-2b60d1a4ea63" class="edge">
<title>Play #1: Main deployment playbook for integrating submariner (0)-&gt;pre_task_03c8a840-8ff1-4ab7-948c-252a0c7809c5</title>
<path fill="none" stroke="#6de447" stroke-width="2" d="M458.4474,-753.1299C474.6997,-849.9557 556.19,-1304.9874 664.9804,-1386.0123 737.2158,-1439.8117 1278.4715,-1429.7367 1592.2887,-1419.0724"/>
<polygon fill="#6de447" stroke="#6de447" stroke-width="2" points="1592.5562,-1422.5654 1602.4304,-1418.7248 1592.3164,-1415.5695 1592.5562,-1422.5654"/>
<text text-anchor="middle" x="1013.9804" y="-1430.8123" font-family="Times,serif" font-size="14.00" fill="#6de447">1</text>
<links><link target="pre_task_03c8a840-8ff1-4ab7-948c-252a0c7809c5"/></links></g>
<!-- task_af5a824a&#45;4ad3&#45;4b1b&#45;95a2&#45;bf6d150ea699 -->
<g id="task_af5a824a-4ad3-4b1b-95a2-bf6d150ea699" class="node">
<title>task_af5a824a-4ad3-4b1b-95a2-bf6d150ea699</title>
<polygon fill="none" stroke="#000000" points="1874.9257,-1348.5564 1874.9257,-1363.4681 1840.2548,-1374.0123 1791.2228,-1374.0123 1756.5519,-1363.4681 1756.5519,-1348.5564 1791.2228,-1338.0123 1840.2548,-1338.0123 1874.9257,-1348.5564"/>
<text text-anchor="middle" x="1815.7388" y="-1352.3123" font-family="Times,serif" font-size="14.00" fill="#000000">[task] debug</text>
</g>
<!-- Play #1: Main deployment playbook for integrating submariner (0)&#45;&gt;task_af5a824a&#45;4ad3&#45;4b1b&#45;95a2&#45;bf6d150ea699 -->
<g id="edge_5400499b-4774-447d-8dbc-adfe3b724446" class="edge">
<title>Play #1: Main deployment playbook for integrating submariner (0)-&gt;task_af5a824a-4ad3-4b1b-95a2-bf6d150ea699</title>
<path fill="none" stroke="#6de447" stroke-width="2" d="M459.1065,-753.1551C477.7165,-844.2993 565.4922,-1250.6874 664.9804,-1323.0123 752.2439,-1386.4502 1510.9057,-1366.3534 1746.3509,-1358.5044"/>
<polygon fill="#6de447" stroke="#6de447" stroke-width="2" points="1746.624,-1361.9973 1756.5006,-1358.1628 1746.3885,-1355.0013 1746.624,-1361.9973"/>
<text text-anchor="middle" x="1013.9804" y="-1370.8123" font-family="Times,serif" font-size="14.00" fill="#6de447">2</text>
<links><link target="task_af5a824a-4ad3-4b1b-95a2-bf6d150ea699"/></links></g>
<!-- task_f3205299&#45;d741&#45;483a&#45;8610&#45;f002c427ad1c -->
<g id="task_f3205299-d741-483a-8610-f002c427ad1c" class="node">
<title>task_f3205299-d741-483a-8610-f002c427ad1c</title>
<polygon fill="none" stroke="#000000" points="2139.859,-1294.5564 2139.859,-1309.4681 1949.9937,-1320.0123 1681.4838,-1320.0123 1491.6186,-1309.4681 1491.6186,-1294.5564 1681.4838,-1284.0123 1949.9937,-1284.0123 2139.859,-1294.5564"/>
<text text-anchor="middle" x="1815.7388" y="-1298.3123" font-family="Times,serif" font-size="14.00" fill="#000000">[task] ../../roles/kubeinit_submariner : Gather variables for each operating system</text>
</g>
<!-- Play #1: Main deployment playbook for integrating submariner (0)&#45;&gt;task_f3205299&#45;d741&#45;483a&#45;8610&#45;f002c427ad1c -->
<g id="edge_bb338d9d-a088-4ee1-ab66-69859a1ecbe4" class="edge">
<title>Play #1: Main deployment playbook for integrating submariner (0)-&gt;task_f3205299-d741-483a-8610-f002c427ad1c</title>
<path fill="none" stroke="#6de447" stroke-width="2" d="M459.6403,-753.2916C479.9249,-840.6784 571.2929,-1214.3283 664.9804,-1280.0123 698.2409,-1303.3311 1153.6438,-1305.901 1481.4226,-1304.6735"/>
<polygon fill="#6de447" stroke="#6de447" stroke-width="2" points="1481.582,-1308.173 1491.5683,-1304.6342 1481.5548,-1301.1731 1481.582,-1308.173"/>
<text text-anchor="middle" x="1013.9804" y="-1307.8123" font-family="Times,serif" font-size="14.00" fill="#6de447">3</text>
<links><link target="task_f3205299-d741-483a-8610-f002c427ad1c"/></links></g>
<!-- task_09343dfd&#45;51ed&#45;4ae5&#45;8806&#45;5b692c49eb2d -->
<g id="task_09343dfd-51ed-4ae5-8806-5b692c49eb2d" class="node">
<title>task_09343dfd-51ed-4ae5-8806-5b692c49eb2d</title>
<polygon fill="none" stroke="#000000" points="2173.8942,-1240.5564 2173.8942,-1255.4681 1964.0916,-1266.0123 1667.3859,-1266.0123 1457.5834,-1255.4681 1457.5834,-1240.5564 1667.3859,-1230.0123 1964.0916,-1230.0123 2173.8942,-1240.5564"/>
<text text-anchor="middle" x="1815.7388" y="-1244.3123" font-family="Times,serif" font-size="14.00" fill="#000000">[task] ../../roles/kubeinit_submariner : Get submariner code based on a PR or from master</text>
</g>
<!-- Play #1: Main deployment playbook for integrating submariner (0)&#45;&gt;task_09343dfd&#45;51ed&#45;4ae5&#45;8806&#45;5b692c49eb2d -->
<g id="edge_b405da87-6b2f-41ea-b511-36ec521215b3" class="edge">
<title>Play #1: Main deployment playbook for integrating submariner (0)-&gt;task_09343dfd-51ed-4ae5-8806-5b692c49eb2d</title>
<path fill="none" stroke="#6de447" stroke-width="2" d="M456.5962,-753.1075C462.2685,-827.4992 494.7818,-1111.2372 664.9804,-1226.0123 733.5585,-1272.2585 1194.8241,-1267.8853 1512.1198,-1259.0262"/>
<polygon fill="#6de447" stroke="#6de447" stroke-width="2" points="1512.5073,-1262.5167 1522.4046,-1258.736 1512.3099,-1255.5195 1512.5073,-1262.5167"/>
<text text-anchor="middle" x="1013.9804" y="-1267.8123" font-family="Times,serif" font-size="14.00" fill="#6de447">4  [when: kubeinit_submariner_is_broker|bool or kubeinit_submariner_is_secondary|bool]</text>
<links><link target="task_09343dfd-51ed-4ae5-8806-5b692c49eb2d"/></links></g>
<!-- task_bd61eca8&#45;3fce&#45;4ae6&#45;baaa&#45;8778b0003d37 -->
<g id="task_bd61eca8-3fce-4ae6-baaa-8778b0003d37" class="node">
<title>task_bd61eca8-3fce-4ae6-baaa-8778b0003d37</title>
<polygon fill="none" stroke="#000000" points="2063.4976,-1186.5564 2063.4976,-1201.4681 1918.3638,-1212.0123 1713.1137,-1212.0123 1567.98,-1201.4681 1567.98,-1186.5564 1713.1137,-1176.0123 1918.3638,-1176.0123 2063.4976,-1186.5564"/>
<text text-anchor="middle" x="1815.7388" y="-1190.3123" font-family="Times,serif" font-size="14.00" fill="#000000">[task] ../../roles/kubeinit_submariner : Clean previous images</text>
</g>
<!-- Play #1: Main deployment playbook for integrating submariner (0)&#45;&gt;task_bd61eca8&#45;3fce&#45;4ae6&#45;baaa&#45;8778b0003d37 -->
<g id="edge_63dbd125-7946-4afb-b788-5d4a3e08c68a" class="edge">
<title>Play #1: Main deployment playbook for integrating submariner (0)-&gt;task_bd61eca8-3fce-4ae6-baaa-8778b0003d37</title>
<path fill="none" stroke="#6de447" stroke-width="2" d="M457.6498,-753.4694C466.9457,-823.1836 510.2839,-1071.5453 664.9804,-1171.0123 738.8679,-1218.5206 1254.1803,-1211.6155 1569.648,-1202.6333"/>
<polygon fill="#6de447" stroke="#6de447" stroke-width="2" points="1569.9581,-1206.1259 1579.8534,-1202.34 1569.7569,-1199.1288 1569.9581,-1206.1259"/>
<text text-anchor="middle" x="1013.9804" y="-1212.8123" font-family="Times,serif" font-size="14.00" fill="#6de447">5  [when: kubeinit_submariner_is_broker|bool or kubeinit_submariner_is_secondary|bool]</text>
<links><link target="task_bd61eca8-3fce-4ae6-baaa-8778b0003d37"/></links></g>
<!-- task_629aab6b&#45;59b4&#45;455e&#45;88d0&#45;652cd13cad7e -->
<g id="task_629aab6b-59b4-455e-88d0-652cd13cad7e" class="node">
<title>task_629aab6b-59b4-455e-88d0-652cd13cad7e</title>
<polygon fill="none" stroke="#000000" points="2020.6716,-1132.5564 2020.6716,-1147.4681 1900.6247,-1158.0123 1730.8528,-1158.0123 1610.8059,-1147.4681 1610.8059,-1132.5564 1730.8528,-1122.0123 1900.6247,-1122.0123 2020.6716,-1132.5564"/>
<text text-anchor="middle" x="1815.7388" y="-1136.3123" font-family="Times,serif" font-size="14.00" fill="#000000">[task] ../../roles/kubeinit_submariner : Make clean</text>
</g>
<!-- Play #1: Main deployment playbook for integrating submariner (0)&#45;&gt;task_629aab6b&#45;59b4&#45;455e&#45;88d0&#45;652cd13cad7e -->
<g id="edge_ed3d3889-0f2e-4444-a939-6df6d214f00b" class="edge">
<title>Play #1: Main deployment playbook for integrating submariner (0)-&gt;task_629aab6b-59b4-455e-88d0-652cd13cad7e</title>
<path fill="none" stroke="#6de447" stroke-width="2" d="M458.9389,-753.3287C472.0862,-817.1672 525.4542,-1030.5523 664.9804,-1115.0123 742.6408,-1162.0228 1289.8567,-1154.8913 1600.8981,-1146.7941"/>
<polygon fill="#6de447" stroke="#6de447" stroke-width="2" points="1601.0417,-1150.2916 1610.9463,-1146.53 1600.8578,-1143.294 1601.0417,-1150.2916"/>
<text text-anchor="middle" x="1013.9804" y="-1155.8123" font-family="Times,serif" font-size="14.00" fill="#6de447">6  [when: kubeinit_submariner_is_broker|bool or kubeinit_submariner_is_secondary|bool]</text>
<links><link target="task_629aab6b-59b4-455e-88d0-652cd13cad7e"/></links></g>
<!-- task_50acb437&#45;de39&#45;49da&#45;8cc5&#45;b976d49e816b -->
<g id="task_50acb437-de39-49da-8cc5-b976d49e816b" class="node">
<title>task_50acb437-de39-49da-8cc5-b976d49e816b</title>
<polygon fill="none" stroke="#000000" points="2063.9046,-1078.5564 2063.9046,-1093.4681 1918.5324,-1104.0123 1712.9451,-1104.0123 1567.5729,-1093.4681 1567.5729,-1078.5564 1712.9451,-1068.0123 1918.5324,-1068.0123 2063.9046,-1078.5564"/>
<text text-anchor="middle" x="1815.7388" y="-1082.3123" font-family="Times,serif" font-size="14.00" fill="#000000">[task] ../../roles/kubeinit_submariner : Make the subctl binary</text>
</g>
<!-- Play #1: Main deployment playbook for integrating submariner (0)&#45;&gt;task_50acb437&#45;de39&#45;49da&#45;8cc5&#45;b976d49e816b -->
<g id="edge_a45d4d7c-b001-4ae9-af27-9db5dea4885b" class="edge">
<title>Play #1: Main deployment playbook for integrating submariner (0)-&gt;task_50acb437-de39-49da-8cc5-b976d49e816b</title>
<path fill="none" stroke="#6de447" stroke-width="2" d="M460.5662,-753.0628C477.8281,-810.4741 540.1766,-989.18 664.9804,-1059.0123 740.5667,-1101.3055 1241.5398,-1098.6982 1557.0762,-1092.6085"/>
<polygon fill="#6de447" stroke="#6de447" stroke-width="2" points="1557.3592,-1096.1037 1567.2889,-1092.4089 1557.2224,-1089.1051 1557.3592,-1096.1037"/>
<text text-anchor="middle" x="1013.9804" y="-1099.8123" font-family="Times,serif" font-size="14.00" fill="#6de447">7  [when: kubeinit_submariner_is_broker|bool or kubeinit_submariner_is_secondary|bool]</text>
<links><link target="task_50acb437-de39-49da-8cc5-b976d49e816b"/></links></g>
<!-- task_6be9e96f&#45;a637&#45;43f7&#45;bb66&#45;035a40bf2f31 -->
<g id="task_6be9e96f-a637-43f7-bb66-035a40bf2f31" class="node">
<title>task_6be9e96f-a637-43f7-bb66-035a40bf2f31</title>
<polygon fill="none" stroke="#000000" points="2019.7644,-1024.5564 2019.7644,-1039.4681 1900.249,-1050.0123 1731.2286,-1050.0123 1611.7131,-1039.4681 1611.7131,-1024.5564 1731.2286,-1014.0123 1900.249,-1014.0123 2019.7644,-1024.5564"/>
<text text-anchor="middle" x="1815.7388" y="-1028.3123" font-family="Times,serif" font-size="14.00" fill="#000000">[task] ../../roles/kubeinit_submariner : Make build</text>
</g>
<!-- Play #1: Main deployment playbook for integrating submariner (0)&#45;&gt;task_6be9e96f&#45;a637&#45;43f7&#45;bb66&#45;035a40bf2f31 -->
<g id="edge_67000163-d53a-42d3-a6eb-5f64c3b0028e" class="edge">
<title>Play #1: Main deployment playbook for integrating submariner (0)-&gt;task_6be9e96f-a637-43f7-bb66-035a40bf2f31</title>
<path fill="none" stroke="#6de447" stroke-width="2" d="M462.8768,-753.3257C484.692,-804.5458 554.2668,-949.1653 664.9804,-1005.0123 746.0086,-1045.8851 1291.4559,-1042.3475 1601.4394,-1036.8453"/>
<polygon fill="#6de447" stroke="#6de447" stroke-width="2" points="1601.5179,-1040.3445 1611.4534,-1036.6654 1601.3921,-1033.3456 1601.5179,-1040.3445"/>
<text text-anchor="middle" x="1013.9804" y="-1043.8123" font-family="Times,serif" font-size="14.00" fill="#6de447">8  [when: kubeinit_submariner_is_broker|bool or kubeinit_submariner_is_secondary|bool]</text>
<links><link target="task_6be9e96f-a637-43f7-bb66-035a40bf2f31"/></links></g>
<!-- task_fc454552&#45;4300&#45;4d35&#45;9ddb&#45;e0397fb83908 -->
<g id="task_fc454552-4300-4d35-9ddb-e0397fb83908" class="node">
<title>task_fc454552-4300-4d35-9ddb-e0397fb83908</title>
<polygon fill="none" stroke="#000000" points="2028.1482,-970.5564 2028.1482,-985.4681 1903.7217,-996.0123 1727.7559,-996.0123 1603.3293,-985.4681 1603.3293,-970.5564 1727.7559,-960.0123 1903.7217,-960.0123 2028.1482,-970.5564"/>
<text text-anchor="middle" x="1815.7388" y="-974.3123" font-family="Times,serif" font-size="14.00" fill="#000000">[task] ../../roles/kubeinit_submariner : Make images</text>
</g>
<!-- Play #1: Main deployment playbook for integrating submariner (0)&#45;&gt;task_fc454552&#45;4300&#45;4d35&#45;9ddb&#45;e0397fb83908 -->
<g id="edge_d682d58a-2242-4036-b1dc-20a822ea5bdc" class="edge">
<title>Play #1: Main deployment playbook for integrating submariner (0)-&gt;task_fc454552-4300-4d35-9ddb-e0397fb83908</title>
<path fill="none" stroke="#6de447" stroke-width="2" d="M465.6874,-753.2732C491.8616,-797.9852 566.3115,-912.4679 664.9804,-956.0123 747.209,-992.3012 1282.274,-988.4481 1593.0358,-982.953"/>
<polygon fill="#6de447" stroke="#6de447" stroke-width="2" points="1593.1433,-986.4517 1603.0791,-982.7734 1593.0181,-979.4528 1593.1433,-986.4517"/>
<text text-anchor="middle" x="1013.9804" y="-989.8123" font-family="Times,serif" font-size="14.00" fill="#6de447">9  [when: kubeinit_submariner_is_broker|bool or kubeinit_submariner_is_secondary|bool]</text>
<links><link target="task_fc454552-4300-4d35-9ddb-e0397fb83908"/></links></g>
<!-- task_d597f1c7&#45;53b1&#45;4c54&#45;8a37&#45;39c456032d8d -->
<g id="task_d597f1c7-53b1-4c54-8a37-39c456032d8d" class="node">
<title>task_d597f1c7-53b1-4c54-8a37-39c456032d8d</title>
<polygon fill="none" stroke="#000000" points="2101.4747,-916.5564 2101.4747,-931.4681 1934.0945,-942.0123 1697.3831,-942.0123 1530.0028,-931.4681 1530.0028,-916.5564 1697.3831,-906.0123 1934.0945,-906.0123 2101.4747,-916.5564"/>
<text text-anchor="middle" x="1815.7388" y="-920.3123" font-family="Times,serif" font-size="14.00" fill="#000000">[task] ../../roles/kubeinit_submariner : Make the subctl binary available</text>
</g>
<!-- Play #1: Main deployment playbook for integrating submariner (0)&#45;&gt;task_d597f1c7&#45;53b1&#45;4c54&#45;8a37&#45;39c456032d8d -->
<g id="edge_486c2e5e-0e69-4876-a7e2-d6d2a71a7134" class="edge">
<title>Play #1: Main deployment playbook for integrating submariner (0)-&gt;task_d597f1c7-53b1-4c54-8a37-39c456032d8d</title>
<path fill="none" stroke="#6de447" stroke-width="2" d="M472.0513,-753.0963C504.8924,-787.4734 582.2499,-861.3736 664.9804,-890.0123 823.7011,-944.9564 1270.0155,-942.4112 1557.8886,-934.1806"/>
<polygon fill="#6de447" stroke="#6de447" stroke-width="2" points="1558.1673,-937.6741 1568.0615,-933.8855 1557.9642,-930.677 1558.1673,-937.6741"/>
<text text-anchor="middle" x="1013.9804" y="-941.8123" font-family="Times,serif" font-size="14.00" fill="#6de447">10  [when: kubeinit_submariner_is_broker|bool or kubeinit_submariner_is_secondary|bool]</text>
<links><link target="task_d597f1c7-53b1-4c54-8a37-39c456032d8d"/></links></g>
<!-- task_ed30253d&#45;a885&#45;4dcb&#45;801b&#45;b4a00db57717 -->
<g id="task_ed30253d-a885-4dcb-801b-b4a00db57717" class="node">
<title>task_ed30253d-a885-4dcb-801b-b4a00db57717</title>
<polygon fill="none" stroke="#000000" points="2070.9744,-862.5564 2070.9744,-877.4681 1921.4608,-888.0123 1710.0167,-888.0123 1560.5031,-877.4681 1560.5031,-862.5564 1710.0167,-852.0123 1921.4608,-852.0123 2070.9744,-862.5564"/>
<text text-anchor="middle" x="1815.7388" y="-866.3123" font-family="Times,serif" font-size="14.00" fill="#000000">[task] ../../roles/kubeinit_submariner : Check if ~/.profile exists</text>
</g>
<!-- Play #1: Main deployment playbook for integrating submariner (0)&#45;&gt;task_ed30253d&#45;a885&#45;4dcb&#45;801b&#45;b4a00db57717 -->
<g id="edge_5f7b9850-02b1-4373-afeb-a7b92b7198de" class="edge">
<title>Play #1: Main deployment playbook for integrating submariner (0)-&gt;task_ed30253d-a885-4dcb-801b-b4a00db57717</title>
<path fill="none" stroke="#6de447" stroke-width="2" d="M485.3701,-753.128C524.8548,-775.9656 597.3249,-814.1543 664.9804,-830.0123 826.7341,-867.9262 1263.5638,-873.4691 1550.0746,-872.6936"/>
<polygon fill="#6de447" stroke="#6de447" stroke-width="2" points="1550.2131,-876.1933 1560.2026,-872.6634 1550.1921,-869.1933 1550.2131,-876.1933"/>
<text text-anchor="middle" x="1013.9804" y="-874.8123" font-family="Times,serif" font-size="14.00" fill="#6de447">11  [when: kubeinit_submariner_is_broker|bool or kubeinit_submariner_is_secondary|bool]</text>
<links><link target="task_ed30253d-a885-4dcb-801b-b4a00db57717"/></links></g>
<!-- task_760e54fb&#45;8a3d&#45;4493&#45;84ca&#45;1d20ca8d9f3f -->
<g id="task_760e54fb-8a3d-4493-84ca-1d20ca8d9f3f" class="node">
<title>task_760e54fb-8a3d-4493-84ca-1d20ca8d9f3f</title>
<polygon fill="none" stroke="#000000" points="2087.7422,-808.5564 2087.7422,-823.4681 1928.4063,-834.0123 1703.0713,-834.0123 1543.7353,-823.4681 1543.7353,-808.5564 1703.0713,-798.0123 1928.4063,-798.0123 2087.7422,-808.5564"/>
<text text-anchor="middle" x="1815.7388" y="-812.3123" font-family="Times,serif" font-size="14.00" fill="#000000">[task] ../../roles/kubeinit_submariner : Append subctl path to profile</text>
</g>
<!-- Play #1: Main deployment playbook for integrating submariner (0)&#45;&gt;task_760e54fb&#45;8a3d&#45;4493&#45;84ca&#45;1d20ca8d9f3f -->
<g id="edge_d3f811dc-bff2-4cba-9465-a84936dab4d3" class="edge">
<title>Play #1: Main deployment playbook for integrating submariner (0)-&gt;task_760e54fb-8a3d-4493-84ca-1d20ca8d9f3f</title>
<path fill="none" stroke="#6de447" stroke-width="2" d="M544.8359,-753.0229C581.8613,-759.792 625.3414,-766.8496 664.9804,-771.0123 960.1014,-802.004 1299.8186,-812.1857 1533.2252,-815.27"/>
<polygon fill="#6de447" stroke="#6de447" stroke-width="2" points="1533.5196,-818.774 1543.5638,-815.4029 1533.6096,-811.7745 1533.5196,-818.774"/>
<text text-anchor="middle" x="1013.9804" y="-814.8123" font-family="Times,serif" font-size="14.00" fill="#6de447">12  [when: profile_exists.stat.exists and (kubeinit_submariner_is_broker|bool or kubeinit_submariner_is_secondary|bool)]</text>
<links><link target="task_760e54fb-8a3d-4493-84ca-1d20ca8d9f3f"/></links></g>
<!-- task_212e350c&#45;92e9&#45;4776&#45;834c&#45;344d732c3e4e -->
<g id="task_212e350c-92e9-4776-834c-344d732c3e4e" class="node">
<title>task_212e350c-92e9-4776-834c-344d732c3e4e</title>
<polygon fill="none" stroke="#000000" points="2093.4979,-754.5564 2093.4979,-769.4681 1930.7904,-780.0123 1700.6872,-780.0123 1537.9796,-769.4681 1537.9796,-754.5564 1700.6872,-744.0123 1930.7904,-744.0123 2093.4979,-754.5564"/>
<text text-anchor="middle" x="1815.7388" y="-758.3123" font-family="Times,serif" font-size="14.00" fill="#000000">[task] ../../roles/kubeinit_submariner : Check if ~/.bash_profile exists</text>
</g>
<!-- Play #1: Main deployment playbook for integrating submariner (0)&#45;&gt;task_212e350c&#45;92e9&#45;4776&#45;834c&#45;344d732c3e4e -->
<g id="edge_b37212ad-0152-4766-9c9c-b44a62ca1923" class="edge">
<title>Play #1: Main deployment playbook for integrating submariner (0)-&gt;task_212e350c-92e9-4776-834c-344d732c3e4e</title>
<path fill="none" stroke="#6de447" stroke-width="2" d="M647.1277,-738.8163C876.4213,-743.3676 1262.5251,-751.0314 1527.764,-756.2962"/>
<polygon fill="#6de447" stroke="#6de447" stroke-width="2" points="1527.8677,-759.7989 1537.9352,-756.4981 1528.0067,-752.8002 1527.8677,-759.7989"/>
<text text-anchor="middle" x="1013.9804" y="-755.8123" font-family="Times,serif" font-size="14.00" fill="#6de447">13  [when: kubeinit_submariner_is_broker|bool or kubeinit_submariner_is_secondary|bool]</text>
<links><link target="task_212e350c-92e9-4776-834c-344d732c3e4e"/></links></g>
<!-- task_211a20ba&#45;4b39&#45;429a&#45;b4e4&#45;06169b6865e7 -->
<g id="task_211a20ba-4b39-429a-b4e4-06169b6865e7" class="node">
<title>task_211a20ba-4b39-429a-b4e4-06169b6865e7</title>
<polygon fill="none" stroke="#000000" points="2110.2657,-700.5564 2110.2657,-715.4681 1937.7358,-726.0123 1693.7417,-726.0123 1521.2119,-715.4681 1521.2119,-700.5564 1693.7417,-690.0123 1937.7358,-690.0123 2110.2657,-700.5564"/>
<text text-anchor="middle" x="1815.7388" y="-704.3123" font-family="Times,serif" font-size="14.00" fill="#000000">[task] ../../roles/kubeinit_submariner : Append subctl path to bash_profile</text>
</g>
<!-- Play #1: Main deployment playbook for integrating submariner (0)&#45;&gt;task_211a20ba&#45;4b39&#45;429a&#45;b4e4&#45;06169b6865e7 -->
<g id="edge_1c7c29d6-2026-4cf0-8e53-bf3d3a2bd968" class="edge">
<title>Play #1: Main deployment playbook for integrating submariner (0)-&gt;task_211a20ba-4b39-429a-b4e4-06169b6865e7</title>
<path fill="none" stroke="#6de447" stroke-width="2" d="M647.257,-720.8105C653.2318,-720.5187 659.1509,-720.2511 664.9804,-720.0123 951.6758,-708.2649 1278.864,-705.9213 1510.8845,-706.1277"/>
<polygon fill="#6de447" stroke="#6de447" stroke-width="2" points="1511.1651,-709.6279 1521.1688,-706.1386 1511.1725,-702.6279 1511.1651,-709.6279"/>
<text text-anchor="middle" x="1013.9804" y="-723.8123" font-family="Times,serif" font-size="14.00" fill="#6de447">14  [when: bash_profile_exists.stat.exists and (kubeinit_submariner_is_broker|bool or kubeinit_submariner_is_secondary|bool)]</text>
<links><link target="task_211a20ba-4b39-429a-b4e4-06169b6865e7"/></links></g>
<!-- task_a23e6bb7&#45;568d&#45;49a9&#45;8af9&#45;a3e131efd2d3 -->
<g id="task_a23e6bb7-568d-49a9-8af9-a3e131efd2d3" class="node">
<title>task_a23e6bb7-568d-49a9-8af9-a3e131efd2d3</title>
<polygon fill="none" stroke="#000000" points="2070.5674,-646.5564 2070.5674,-661.4681 1921.2923,-672.0123 1710.1853,-672.0123 1560.9101,-661.4681 1560.9101,-646.5564 1710.1853,-636.0123 1921.2923,-636.0123 2070.5674,-646.5564"/>
<text text-anchor="middle" x="1815.7388" y="-650.3123" font-family="Times,serif" font-size="14.00" fill="#000000">[task] ../../roles/kubeinit_submariner : Check if ~/.bashrc exists</text>
</g>
<!-- Play #1: Main deployment playbook for integrating submariner (0)&#45;&gt;task_a23e6bb7&#45;568d&#45;49a9&#45;8af9&#45;a3e131efd2d3 -->
<g id="edge_c550729d-9db8-48a2-ae64-cef7db46c217" class="edge">
<title>Play #1: Main deployment playbook for integrating submariner (0)-&gt;task_a23e6bb7-568d-49a9-8af9-a3e131efd2d3</title>
<path fill="none" stroke="#6de447" stroke-width="2" d="M519.0774,-717.0117C560.3067,-706.1974 615.382,-693.3428 664.9804,-687.0123 966.9519,-648.4699 1316.9514,-644.109 1550.9339,-646.8992"/>
<polygon fill="#6de447" stroke="#6de447" stroke-width="2" points="1550.9012,-650.399 1560.9441,-647.0238 1550.9884,-643.3996 1550.9012,-650.399"/>
<text text-anchor="middle" x="1013.9804" y="-690.8123" font-family="Times,serif" font-size="14.00" fill="#6de447">15  [when: kubeinit_submariner_is_broker|bool or kubeinit_submariner_is_secondary|bool]</text>
<links><link target="task_a23e6bb7-568d-49a9-8af9-a3e131efd2d3"/></links></g>
<!-- task_13b4300a&#45;0990&#45;4ea7&#45;ac31&#45;1840b3c23418 -->
<g id="task_13b4300a-0990-4ea7-ac31-1840b3c23418" class="node">
<title>task_13b4300a-0990-4ea7-ac31-1840b3c23418</title>
<polygon fill="none" stroke="#000000" points="2087.335,-592.5564 2087.335,-607.4681 1928.2376,-618.0123 1703.2399,-618.0123 1544.1425,-607.4681 1544.1425,-592.5564 1703.2399,-582.0123 1928.2376,-582.0123 2087.335,-592.5564"/>
<text text-anchor="middle" x="1815.7388" y="-596.3123" font-family="Times,serif" font-size="14.00" fill="#000000">[task] ../../roles/kubeinit_submariner : Append subctl path to bashrc</text>
</g>
<!-- Play #1: Main deployment playbook for integrating submariner (0)&#45;&gt;task_13b4300a&#45;0990&#45;4ea7&#45;ac31&#45;1840b3c23418 -->
<g id="edge_5ea052e6-9576-4705-879c-31008212e44e" class="edge">
<title>Play #1: Main deployment playbook for integrating submariner (0)-&gt;task_13b4300a-0990-4ea7-ac31-1840b3c23418</title>
<path fill="none" stroke="#6de447" stroke-width="2" d="M481.039,-716.9211C519.03,-691.2137 593.609,-645.2151 664.9804,-627.0123 823.3403,-586.6236 1249.0894,-586.8227 1535.9101,-592.2327"/>
<polygon fill="#6de447" stroke="#6de447" stroke-width="2" points="1535.9886,-595.7348 1546.0539,-592.4273 1536.1229,-588.7361 1535.9886,-595.7348"/>
<text text-anchor="middle" x="1013.9804" y="-630.8123" font-family="Times,serif" font-size="14.00" fill="#6de447">16  [when: bashrc_exists.stat.exists and (kubeinit_submariner_is_broker|bool or kubeinit_submariner_is_secondary|bool)]</text>
<links><link target="task_13b4300a-0990-4ea7-ac31-1840b3c23418"/></links></g>
<!-- task_b8ed3923&#45;a51e&#45;4844&#45;a95d&#45;bb69c74bcc7b -->
<g id="task_b8ed3923-a51e-4844-a95d-bb69c74bcc7b" class="node">
<title>task_b8ed3923-a51e-4844-a95d-bb69c74bcc7b</title>
<polygon fill="none" stroke="#000000" points="2112.4865,-538.5564 2112.4865,-553.4681 1938.6557,-564.0123 1692.8218,-564.0123 1518.991,-553.4681 1518.991,-538.5564 1692.8218,-528.0123 1938.6557,-528.0123 2112.4865,-538.5564"/>
<text text-anchor="middle" x="1815.7388" y="-542.3123" font-family="Times,serif" font-size="14.00" fill="#000000">[task] ../../roles/kubeinit_submariner : Render the iptables persist template</text>
</g>
<!-- Play #1: Main deployment playbook for integrating submariner (0)&#45;&gt;task_b8ed3923&#45;a51e&#45;4844&#45;a95d&#45;bb69c74bcc7b -->
<g id="edge_dc8e42a2-6983-473f-9ac7-2bccc623a231" class="edge">
<title>Play #1: Main deployment playbook for integrating submariner (0)-&gt;task_b8ed3923-a51e-4844-a95d-bb69c74bcc7b</title>
<path fill="none" stroke="#6de447" stroke-width="2" d="M470.7752,-716.8363C502.5263,-680.6671 579.771,-600.5371 664.9804,-570.0123 827.8318,-511.6735 1296.7545,-521.2672 1583.2656,-533.5905"/>
<polygon fill="#6de447" stroke="#6de447" stroke-width="2" points="1583.2374,-537.0925 1593.3799,-534.03 1583.5413,-530.0991 1583.2374,-537.0925"/>
<text text-anchor="middle" x="1013.9804" y="-573.8123" font-family="Times,serif" font-size="14.00" fill="#6de447">17  [when: kubeinit_submariner_is_broker|bool]</text>
<links><link target="task_b8ed3923-a51e-4844-a95d-bb69c74bcc7b"/></links></g>
<!-- task_64b2db49&#45;6222&#45;4694&#45;b834&#45;e2156bf58641 -->
<g id="task_64b2db49-6222-4694-b834-e2156bf58641" class="node">
<title>task_64b2db49-6222-4694-b834-e2156bf58641</title>
<polygon fill="none" stroke="#000000" points="2207.4295,-484.5564 2207.4295,-499.4681 1977.9824,-510.0123 1653.4952,-510.0123 1424.048,-499.4681 1424.048,-484.5564 1653.4952,-474.0123 1977.9824,-474.0123 2207.4295,-484.5564"/>
<text text-anchor="middle" x="1815.7388" y="-488.3123" font-family="Times,serif" font-size="14.00" fill="#000000">[task] ../../roles/kubeinit_submariner : Make sure there the traffic is allowed from/to the cluster net</text>
</g>
<!-- Play #1: Main deployment playbook for integrating submariner (0)&#45;&gt;task_64b2db49&#45;6222&#45;4694&#45;b834&#45;e2156bf58641 -->
<g id="edge_2c36b6aa-9aac-4492-bef7-810ceddd637e" class="edge">
<title>Play #1: Main deployment playbook for integrating submariner (0)-&gt;task_64b2db49-6222-4694-b834-e2156bf58641</title>
<path fill="none" stroke="#6de447" stroke-width="2" d="M464.8985,-716.9961C490.0266,-671.1426 563.7066,-550.4392 664.9804,-505.0123 736.5808,-472.8955 1153.7029,-475.3025 1465.2888,-481.955"/>
<polygon fill="#6de447" stroke="#6de447" stroke-width="2" points="1465.328,-485.4566 1475.4012,-482.1732 1465.4791,-478.4582 1465.328,-485.4566"/>
<text text-anchor="middle" x="1013.9804" y="-508.8123" font-family="Times,serif" font-size="14.00" fill="#6de447">18  [when: kubeinit_submariner_is_broker|bool]</text>
<links><link target="task_64b2db49-6222-4694-b834-e2156bf58641"/></links></g>
<!-- task_a240372c&#45;b342&#45;4efc&#45;9e04&#45;25e632041689 -->
<g id="task_a240372c-b342-4efc-9e04-25e632041689" class="node">
<title>task_a240372c-b342-4efc-9e04-25e632041689</title>
<polygon fill="none" stroke="#000000" points="2069.6604,-430.5564 2069.6604,-445.4681 1920.9165,-456.0123 1710.561,-456.0123 1561.8172,-445.4681 1561.8172,-430.5564 1710.561,-420.0123 1920.9165,-420.0123 2069.6604,-430.5564"/>
<text text-anchor="middle" x="1815.7388" y="-434.3123" font-family="Times,serif" font-size="14.00" fill="#000000">[task] ../../roles/kubeinit_submariner : Configure broker cluster</text>
</g>
<!-- Play #1: Main deployment playbook for integrating submariner (0)&#45;&gt;task_a240372c&#45;b342&#45;4efc&#45;9e04&#45;25e632041689 -->
<g id="edge_4bb0d8c3-bc0e-488f-947b-23f0f15f24a8" class="edge">
<title>Play #1: Main deployment playbook for integrating submariner (0)-&gt;task_a240372c-b342-4efc-9e04-25e632041689</title>
<path fill="none" stroke="#6de447" stroke-width="2" d="M462.4091,-716.9535C483.4416,-665.0304 552.1077,-515.3933 664.9804,-458.0123 741.685,-419.0179 1236.1746,-423.4447 1551.4915,-430.5139"/>
<polygon fill="#6de447" stroke="#6de447" stroke-width="2" points="1551.6226,-434.0177 1561.6993,-430.7451 1551.7812,-427.0195 1551.6226,-434.0177"/>
<text text-anchor="middle" x="1013.9804" y="-461.8123" font-family="Times,serif" font-size="14.00" fill="#6de447">19  [when: kubeinit_submariner_is_broker|bool]</text>
<links><link target="task_a240372c-b342-4efc-9e04-25e632041689"/></links></g>
<!-- task_39ff9ffb&#45;7fc2&#45;498d&#45;819b&#45;492d37e15a2d -->
<g id="task_39ff9ffb-7fc2-498d-819b-492d37e15a2d" class="node">
<title>task_39ff9ffb-7fc2-498d-819b-492d37e15a2d</title>
<polygon fill="none" stroke="#000000" points="2147.8357,-376.5564 2147.8357,-391.4681 1953.2978,-402.0123 1678.1797,-402.0123 1483.6418,-391.4681 1483.6418,-376.5564 1678.1797,-366.0123 1953.2978,-366.0123 2147.8357,-376.5564"/>
<text text-anchor="middle" x="1815.7388" y="-380.3123" font-family="Times,serif" font-size="14.00" fill="#000000">[task] ../../roles/kubeinit_submariner : Copy the broker-info.subm to the hypervisor</text>
</g>
<!-- Play #1: Main deployment playbook for integrating submariner (0)&#45;&gt;task_39ff9ffb&#45;7fc2&#45;498d&#45;819b&#45;492d37e15a2d -->
<g id="edge_355f4f41-5cee-45b3-8eed-060802e9a9fb" class="edge">
<title>Play #1: Main deployment playbook for integrating submariner (0)-&gt;task_39ff9ffb-7fc2-498d-819b-492d37e15a2d</title>
<path fill="none" stroke="#6de447" stroke-width="2" d="M460.4613,-716.6707C477.4069,-658.3358 538.9079,-476.7712 664.9804,-406.0123 736.114,-366.0881 1184.6903,-368.1444 1500.2656,-374.87"/>
<polygon fill="#6de447" stroke="#6de447" stroke-width="2" points="1500.425,-378.3741 1510.4982,-375.0906 1500.576,-371.3757 1500.425,-378.3741"/>
<text text-anchor="middle" x="1013.9804" y="-409.8123" font-family="Times,serif" font-size="14.00" fill="#6de447">20  [when: kubeinit_submariner_is_broker|bool]</text>
<links><link target="task_39ff9ffb-7fc2-498d-819b-492d37e15a2d"/></links></g>
<!-- task_a32b0ff8&#45;7305&#45;45cc&#45;b4a5&#45;c8e8c96cf92f -->
<g id="task_a32b0ff8-7305-45cc-b4a5-c8e8c96cf92f" class="node">
<title>task_a32b0ff8-7305-45cc-b4a5-c8e8c96cf92f</title>
<polygon fill="none" stroke="#000000" points="2123.0912,-322.5564 2123.0912,-337.4681 1943.0483,-348.0123 1688.4292,-348.0123 1508.3863,-337.4681 1508.3863,-322.5564 1688.4292,-312.0123 1943.0483,-312.0123 2123.0912,-322.5564"/>
<text text-anchor="middle" x="1815.7388" y="-326.3123" font-family="Times,serif" font-size="14.00" fill="#000000">[task] ../../roles/kubeinit_submariner : Copy the kubeconfig to the hypervisor</text>
</g>
<!-- Play #1: Main deployment playbook for integrating submariner (0)&#45;&gt;task_a32b0ff8&#45;7305&#45;45cc&#45;b4a5&#45;c8e8c96cf92f -->
<g id="edge_81bb696c-4827-4d65-844b-d75fc898c038" class="edge">
<title>Play #1: Main deployment playbook for integrating submariner (0)-&gt;task_a32b0ff8-7305-45cc-b4a5-c8e8c96cf92f</title>
<path fill="none" stroke="#6de447" stroke-width="2" d="M458.7916,-716.9873C471.5912,-653.1707 524.3148,-437.2304 664.9804,-352.0123 736.7553,-308.5295 1209.8537,-312.6406 1526.6685,-320.6068"/>
<polygon fill="#6de447" stroke="#6de447" stroke-width="2" points="1526.8475,-324.1124 1536.9332,-320.8677 1527.0253,-317.1147 1526.8475,-324.1124"/>
<text text-anchor="middle" x="1013.9804" y="-355.8123" font-family="Times,serif" font-size="14.00" fill="#6de447">21  [when: kubeinit_submariner_is_broker|bool or kubeinit_submariner_is_secondary|bool]</text>
<links><link target="task_a32b0ff8-7305-45cc-b4a5-c8e8c96cf92f"/></links></g>
<!-- task_48a3e6bb&#45;2b38&#45;45b2&#45;b236&#45;b49c2d438b32 -->
<g id="task_48a3e6bb-2b38-45b2-b236-b49c2d438b32" class="node">
<title>task_48a3e6bb-2b38-45b2-b236-b49c2d438b32</title>
<polygon fill="none" stroke="#000000" points="2250.2556,-268.5564 2250.2556,-283.4681 1995.7215,-294.0123 1635.756,-294.0123 1381.2219,-283.4681 1381.2219,-268.5564 1635.756,-258.0123 1995.7215,-258.0123 2250.2556,-268.5564"/>
<text text-anchor="middle" x="1815.7388" y="-272.3123" font-family="Times,serif" font-size="14.00" fill="#000000">[task] ../../roles/kubeinit_submariner : Copying the broker-info.subm and kubeconfig to the destination cluster</text>
</g>
<!-- Play #1: Main deployment playbook for integrating submariner (0)&#45;&gt;task_48a3e6bb&#45;2b38&#45;45b2&#45;b236&#45;b49c2d438b32 -->
<g id="edge_845a91b9-148e-4068-9738-15d5c8b2d012" class="edge">
<title>Play #1: Main deployment playbook for integrating submariner (0)-&gt;task_48a3e6bb-2b38-45b2-b236-b49c2d438b32</title>
<path fill="none" stroke="#6de447" stroke-width="2" d="M457.534,-716.8986C466.502,-647.3417 509.0667,-396.269 664.9804,-296.0123 731.8486,-253.0142 1160.3112,-255.7477 1474.9428,-263.9706"/>
<polygon fill="#6de447" stroke="#6de447" stroke-width="2" points="1475.0625,-267.4749 1485.1515,-264.2404 1475.2475,-260.4773 1475.0625,-267.4749"/>
<text text-anchor="middle" x="1013.9804" y="-299.8123" font-family="Times,serif" font-size="14.00" fill="#6de447">22  [when: kubeinit_submariner_is_secondary|bool]</text>
<links><link target="task_48a3e6bb-2b38-45b2-b236-b49c2d438b32"/></links></g>
<!-- task_8e9fedb8&#45;405e&#45;40cc&#45;b512&#45;e65d695d88c2 -->
<g id="task_8e9fedb8-405e-40cc-b512-e65d695d88c2" class="node">
<title>task_8e9fedb8-405e-40cc-b512-e65d695d88c2</title>
<polygon fill="none" stroke="#000000" points="2070.9744,-214.5564 2070.9744,-229.4681 1921.4608,-240.0123 1710.0167,-240.0123 1560.5031,-229.4681 1560.5031,-214.5564 1710.0167,-204.0123 1921.4608,-204.0123 2070.9744,-214.5564"/>
<text text-anchor="middle" x="1815.7388" y="-218.3123" font-family="Times,serif" font-size="14.00" fill="#000000">[task] ../../roles/kubeinit_submariner : Join cluster to the broker</text>
</g>
<!-- Play #1: Main deployment playbook for integrating submariner (0)&#45;&gt;task_8e9fedb8&#45;405e&#45;40cc&#45;b512&#45;e65d695d88c2 -->
<g id="edge_0deb525a-e7ea-493e-ae97-7003d5924493" class="edge">
<title>Play #1: Main deployment playbook for integrating submariner (0)-&gt;task_8e9fedb8-405e-40cc-b512-e65d695d88c2</title>
<path fill="none" stroke="#6de447" stroke-width="2" d="M456.5305,-716.7592C461.9435,-641.7204 493.576,-355.5313 664.9804,-240.0123 738.6126,-190.3874 1264.8183,-200.9995 1579.5946,-212.1219"/>
<polygon fill="#6de447" stroke="#6de447" stroke-width="2" points="1579.6551,-215.6262 1589.7733,-212.4843 1579.9042,-208.6306 1579.6551,-215.6262"/>
<text text-anchor="middle" x="1013.9804" y="-243.8123" font-family="Times,serif" font-size="14.00" fill="#6de447">23  [when: kubeinit_submariner_is_broker|bool or kubeinit_submariner_is_secondary|bool]</text>
<links><link target="task_8e9fedb8-405e-40cc-b512-e65d695d88c2"/></links></g>
<!-- task_c4445d07&#45;87e5&#45;4074&#45;bb42&#45;8bf849e05c01 -->
<g id="task_c4445d07-87e5-4074-bb42-8bf849e05c01" class="node">
<title>task_c4445d07-87e5-4074-bb42-8bf849e05c01</title>
<polygon fill="none" stroke="#000000" points="2040.974,-160.5564 2040.974,-175.4681 1909.0343,-186.0123 1722.4433,-186.0123 1590.5035,-175.4681 1590.5035,-160.5564 1722.4433,-150.0123 1909.0343,-150.0123 2040.974,-160.5564"/>
<text text-anchor="middle" x="1815.7388" y="-164.3123" font-family="Times,serif" font-size="14.00" fill="#000000">[task] ../../roles/kubeinit_submariner : Tag worker node</text>
</g>
<!-- Play #1: Main deployment playbook for integrating submariner (0)&#45;&gt;task_c4445d07&#45;87e5&#45;4074&#45;bb42&#45;8bf849e05c01 -->
<g id="edge_8b2c22cb-090a-4890-8303-efd01366d5a7" class="edge">
<title>Play #1: Main deployment playbook for integrating submariner (0)-&gt;task_c4445d07-87e5-4074-bb42-8bf849e05c01</title>
<path fill="none" stroke="#6de447" stroke-width="2" d="M459.5274,-716.7831C479.4622,-628.7818 570.078,-249.4187 664.9804,-183.0123 739.779,-130.6731 1294.3086,-145.4213 1605.4588,-158.1427"/>
<polygon fill="#6de447" stroke="#6de447" stroke-width="2" points="1605.3725,-161.642 1615.508,-158.5563 1605.6604,-154.6479 1605.3725,-161.642"/>
<text text-anchor="middle" x="1013.9804" y="-186.8123" font-family="Times,serif" font-size="14.00" fill="#6de447">24  [when: kubeinit_submariner_is_broker|bool or kubeinit_submariner_is_secondary|bool]</text>
<links><link target="task_c4445d07-87e5-4074-bb42-8bf849e05c01"/></links></g>
<!-- task_711aba3d&#45;ee35&#45;4060&#45;8446&#45;c561f44e75d2 -->
<g id="task_711aba3d-ee35-4060-8446-c561f44e75d2" class="node">
<title>task_711aba3d-ee35-4060-8446-c561f44e75d2</title>
<polygon fill="none" stroke="#000000" points="2075.8234,-106.5564 2075.8234,-121.4681 1923.4693,-132.0123 1708.0082,-132.0123 1555.6541,-121.4681 1555.6541,-106.5564 1708.0082,-96.0123 1923.4693,-96.0123 2075.8234,-106.5564"/>
<text text-anchor="middle" x="1815.7388" y="-110.3123" font-family="Times,serif" font-size="14.00" fill="#000000">[task] ../../roles/kubeinit_submariner : Render the netshoot script</text>
</g>
<!-- Play #1: Main deployment playbook for integrating submariner (0)&#45;&gt;task_711aba3d&#45;ee35&#45;4060&#45;8446&#45;c561f44e75d2 -->
<g id="edge_d606d1f0-b0bf-4c66-8829-06b94d69e344" class="edge">
<title>Play #1: Main deployment playbook for integrating submariner (0)-&gt;task_711aba3d-ee35-4060-8446-c561f44e75d2</title>
<path fill="none" stroke="#6de447" stroke-width="2" d="M458.8628,-716.8469C476.6011,-623.7205 561.9998,-201.3316 664.9804,-127.0123 737.9545,-74.3481 1278.1962,-89.3732 1591.8501,-102.8956"/>
<polygon fill="#6de447" stroke="#6de447" stroke-width="2" points="1591.8445,-106.3985 1601.9869,-103.3355 1592.148,-99.4051 1591.8445,-106.3985"/>
<text text-anchor="middle" x="1013.9804" y="-130.8123" font-family="Times,serif" font-size="14.00" fill="#6de447">25  [when: kubeinit_submariner_is_broker|bool or kubeinit_submariner_is_secondary|bool]</text>
<links><link target="task_711aba3d-ee35-4060-8446-c561f44e75d2"/></links></g>
<!-- task_047b1214&#45;79db&#45;406c&#45;890f&#45;3cebcdfe170f -->
<g id="task_047b1214-79db-406c-890f-3cebcdfe170f" class="node">
<title>task_047b1214-79db-406c-890f-3cebcdfe170f</title>
<polygon fill="none" stroke="#000000" points="2076.7302,-52.5564 2076.7302,-67.4681 1923.845,-78.0123 1707.6326,-78.0123 1554.7473,-67.4681 1554.7473,-52.5564 1707.6326,-42.0123 1923.845,-42.0123 2076.7302,-52.5564"/>
<text text-anchor="middle" x="1815.7388" y="-56.3123" font-family="Times,serif" font-size="14.00" fill="#000000">[task] ../../roles/kubeinit_submariner : Verify cluster deployment</text>
</g>
<!-- Play #1: Main deployment playbook for integrating submariner (0)&#45;&gt;task_047b1214&#45;79db&#45;406c&#45;890f&#45;3cebcdfe170f -->
<g id="edge_03f8cfe5-1c44-4098-9577-172a6a6191f5" class="edge">
<title>Play #1: Main deployment playbook for integrating submariner (0)-&gt;task_047b1214-79db-406c-890f-3cebcdfe170f</title>
<path fill="none" stroke="#6de447" stroke-width="2" d="M458.3194,-716.84C474.0526,-618.6916 553.8687,-153.2855 664.9804,-71.0123 821.8251,45.1241 1409.4574,-9.5891 1679.0351,-42.0241"/>
<polygon fill="#6de447" stroke="#6de447" stroke-width="2" points="1678.9267,-45.5364 1689.2749,-43.2638 1679.7681,-38.5872 1678.9267,-45.5364"/>
<text text-anchor="middle" x="1013.9804" y="-74.8123" font-family="Times,serif" font-size="14.00" fill="#6de447">26  [when: kubeinit_submariner_is_secondary|bool]</text>
<links><link target="task_047b1214-79db-406c-890f-3cebcdfe170f"/></links></g>
</g>
</svg>