<?xml version="1.0" encoding="UTF-8" standalone="no"?>
<!DOCTYPE svg PUBLIC "-//W3C//DTD SVG 1.1//EN"
 "http://www.w3.org/Graphics/SVG/1.1/DTD/svg11.dtd">
<!-- Generated by graphviz version 2.43.0 (0)
 -->
<!-- Title: kubeinit/playbook.yml  Pages: 1 -->
<svg width="3480pt" height="1674pt"
 viewBox="0.00 0.00 3480.22 1673.54" xmlns="http://www.w3.org/2000/svg" xmlns:xlink="http://www.w3.org/1999/xlink">
<g id="graph0" class="graph" transform="scale(1 1) rotate(0) translate(4 1669.54)">
<title>kubeinit/playbook.yml </title>
<polygon fill="white" stroke="transparent" points="-4,4 -4,-1669.54 3476.22,-1669.54 3476.22,4 -4,4"/>
<!-- kubeinit/playbook.yml -->
<g id="root_node" class="node">
<title>kubeinit/playbook.yml</title>
<ellipse fill="none" stroke="black" stroke-dasharray="1,5" cx="113.09" cy="-848.54" rx="113.18" ry="18"/>
<text text-anchor="middle" x="113.09" y="-844.84" font-family="Times,serif" font-size="14.00">kubeinit/playbook.yml</text>
</g>
<!-- task&#45;prepare&#45;hypervisors -->
<g id="play_91cfe302&#45;eef4&#45;43e2&#45;993a&#45;040adea71047" class="node">
<title>task&#45;prepare&#45;hypervisors</title>
<polygon fill="none" stroke="#000000" points="547.83,-841.08 547.83,-856 467.13,-866.54 353,-866.54 272.3,-856 272.3,-841.08 353,-830.54 467.13,-830.54 547.83,-841.08"/>
<text text-anchor="middle" x="410.06" y="-844.84" font-family="Times,serif" font-size="14.00" fill="#000000">task&#45;prepare&#45;hypervisors</text>
</g>
<!-- kubeinit/playbook.yml&#45;&gt;task&#45;prepare&#45;hypervisors -->
<g id="edge_c499a165&#45;9887&#45;428a&#45;a392&#45;740eb6de59a8" class="edge">
<title>kubeinit/playbook.yml&#45;&gt;task&#45;prepare&#45;hypervisors</title>
<path fill="none" stroke="#000000" stroke-width="2" d="M226.45,-848.54C238.15,-848.54 250.17,-848.54 262.18,-848.54"/>
<polygon fill="#000000" stroke="#000000" stroke-width="2" points="262.26,-852.04 272.26,-848.54 262.26,-845.04 262.26,-852.04"/>
<text text-anchor="middle" x="249.18" y="-852.34" font-family="Times,serif" font-size="14.00" fill="#000000">2</text>
</g>
<!-- task_18fedcf6&#45;fc82&#45;4d07&#45;9b35&#45;0dace4cb5d93 -->
<g id="task_18fedcf6&#45;fc82&#45;4d07&#45;9b35&#45;0dace4cb5d93" class="node">
<title>task_18fedcf6&#45;fc82&#45;4d07&#45;9b35&#45;0dace4cb5d93</title>
<g id="a_task_18fedcf6&#45;fc82&#45;4d07&#45;9b35&#45;0dace4cb5d93"><a xlink:title="[task] kubeinit.kubeinit.kubeinit_libvirt : Show ansible_distribution">
<polygon fill="none" stroke="black" points="3108.04,-1624.08 3108.04,-1639 2903.92,-1649.54 2615.25,-1649.54 2411.13,-1639 2411.13,-1624.08 2615.25,-1613.54 2903.92,-1613.54 3108.04,-1624.08"/>
<text text-anchor="middle" x="2759.59" y="-1627.84" font-family="Times,serif" font-size="14.00">[task] kubeinit.kubeinit.kubeinit_libvirt : Show ansible_distribution</text>
</a>
</g>
</g>
<!-- task&#45;prepare&#45;hypervisors&#45;&gt;task_18fedcf6&#45;fc82&#45;4d07&#45;9b35&#45;0dace4cb5d93 -->
<g id="edge_3b68793e&#45;1f2e&#45;429f&#45;90c8&#45;4eb0f66a57ee" class="edge">
<title>task&#45;prepare&#45;hypervisors&#45;&gt;task_18fedcf6&#45;fc82&#45;4d07&#45;9b35&#45;0dace4cb5d93</title>
<path fill="none" stroke="#000000" stroke-width="2" d="M411.8,-866.74C416.51,-972.89 446.11,-1510.63 565.95,-1609.54 635.51,-1666.96 1804.2,-1651.41 2406.19,-1639.47"/>
<polygon fill="#000000" stroke="#000000" stroke-width="2" points="2406.4,-1642.96 2416.33,-1639.27 2406.26,-1635.97 2406.4,-1642.96"/>
<text text-anchor="middle" x="1297.45" y="-1654.34" font-family="Times,serif" font-size="14.00" fill="#000000">1</text>
</g>
<!-- task_f2f81bec&#45;3e0e&#45;4c63&#45;bd76&#45;2d45cad307c0 -->
<g id="task_f2f81bec&#45;3e0e&#45;4c63&#45;bd76&#45;2d45cad307c0" class="node">
<title>task_f2f81bec&#45;3e0e&#45;4c63&#45;bd76&#45;2d45cad307c0</title>
<g id="a_task_f2f81bec&#45;3e0e&#45;4c63&#45;bd76&#45;2d45cad307c0"><a xlink:title="[task] kubeinit.kubeinit.kubeinit_libvirt : Show distribution_family">
<polygon fill="none" stroke="black" points="3102.7,-1570.08 3102.7,-1585 2901.71,-1595.54 2617.47,-1595.54 2416.48,-1585 2416.48,-1570.08 2617.47,-1559.54 2901.71,-1559.54 3102.7,-1570.08"/>
<text text-anchor="middle" x="2759.59" y="-1573.84" font-family="Times,serif" font-size="14.00">[task] kubeinit.kubeinit.kubeinit_libvirt : Show distribution_family</text>
</a>
</g>
</g>
<!-- task&#45;prepare&#45;hypervisors&#45;&gt;task_f2f81bec&#45;3e0e&#45;4c63&#45;bd76&#45;2d45cad307c0 -->
<g id="edge_f6afc16d&#45;ef95&#45;46d3&#45;9ee8&#45;0adfc720fbd5" class="edge">
<title>task&#45;prepare&#45;hypervisors&#45;&gt;task_f2f81bec&#45;3e0e&#45;4c63&#45;bd76&#45;2d45cad307c0</title>
<path fill="none" stroke="#000000" stroke-width="2" d="M412.18,-866.84C418.72,-967.84 455.77,-1455.83 565.95,-1545.54 635.9,-1602.5 1804.4,-1592.65 2406.27,-1583.7"/>
<polygon fill="#000000" stroke="#000000" stroke-width="2" points="2406.46,-1587.2 2416.41,-1583.55 2406.36,-1580.2 2406.46,-1587.2"/>
<text text-anchor="middle" x="1297.45" y="-1594.34" font-family="Times,serif" font-size="14.00" fill="#000000">2</text>
</g>
<!-- task_45eae33f&#45;2188&#45;4a5e&#45;8a70&#45;def7f20b2794 -->
<g id="task_45eae33f&#45;2188&#45;4a5e&#45;8a70&#45;def7f20b2794" class="node">
<title>task_45eae33f&#45;2188&#45;4a5e&#45;8a70&#45;def7f20b2794</title>
<g id="a_task_45eae33f&#45;2188&#45;4a5e&#45;8a70&#45;def7f20b2794"><a xlink:title="[task] kubeinit.kubeinit.kubeinit_libvirt : Fails if CentOS 7 hypervisor">
<polygon fill="none" stroke="black" points="3119.96,-1516.08 3119.96,-1531 2908.86,-1541.54 2610.31,-1541.54 2399.21,-1531 2399.21,-1516.08 2610.31,-1505.54 2908.86,-1505.54 3119.96,-1516.08"/>
<text text-anchor="middle" x="2759.59" y="-1519.84" font-family="Times,serif" font-size="14.00">[task] kubeinit.kubeinit.kubeinit_libvirt : Fails if CentOS 7 hypervisor</text>
</a>
</g>
</g>
<!-- task&#45;prepare&#45;hypervisors&#45;&gt;task_45eae33f&#45;2188&#45;4a5e&#45;8a70&#45;def7f20b2794 -->
<g id="edge_45ac1473&#45;a068&#45;4e95&#45;bb5d&#45;a5f0cb84ec28" class="edge">
<title>task&#45;prepare&#45;hypervisors&#45;&gt;task_45eae33f&#45;2188&#45;4a5e&#45;8a70&#45;def7f20b2794</title>
<path fill="none" stroke="#000000" stroke-width="2" d="M412.44,-866.65C420.21,-963.45 461.94,-1418.46 565.95,-1501.54 600.99,-1529.53 1773.21,-1528.23 2388.95,-1525.6"/>
<polygon fill="#000000" stroke="#000000" stroke-width="2" points="2389.34,-1529.09 2399.33,-1525.55 2389.31,-1522.09 2389.34,-1529.09"/>
<text text-anchor="middle" x="1297.45" y="-1530.34" font-family="Times,serif" font-size="14.00" fill="#000000">3 &#160;[when: (hostvars[kubeinit_deployment_node_name].ansible_distribution == &#39;CentOS&#39; and hostvars[kubeinit_deployment_node_name].ansible_distribution_major_version == &quot;7&quot;)]</text>
</g>
<!-- task_babb302e&#45;d90d&#45;4796&#45;8325&#45;41485ac16b0a -->
<g id="task_babb302e&#45;d90d&#45;4796&#45;8325&#45;41485ac16b0a" class="node">
<title>task_babb302e&#45;d90d&#45;4796&#45;8325&#45;41485ac16b0a</title>
<g id="a_task_babb302e&#45;d90d&#45;4796&#45;8325&#45;41485ac16b0a"><a xlink:title="[task] kubeinit.kubeinit.kubeinit_libvirt : Fix libvirt qemu bug">
<polygon fill="none" stroke="black" points="3080.17,-1462.08 3080.17,-1477 2892.38,-1487.54 2626.8,-1487.54 2439,-1477 2439,-1462.08 2626.8,-1451.54 2892.38,-1451.54 3080.17,-1462.08"/>
<text text-anchor="middle" x="2759.59" y="-1465.84" font-family="Times,serif" font-size="14.00">[task] kubeinit.kubeinit.kubeinit_libvirt : Fix libvirt qemu bug</text>
</a>
</g>
</g>
<!-- task&#45;prepare&#45;hypervisors&#45;&gt;task_babb302e&#45;d90d&#45;4796&#45;8325&#45;41485ac16b0a -->
<g id="edge_bd908a8d&#45;a134&#45;4761&#45;9202&#45;42dd0311b0dd" class="edge">
<title>task&#45;prepare&#45;hypervisors&#45;&gt;task_babb302e&#45;d90d&#45;4796&#45;8325&#45;41485ac16b0a</title>
<path fill="none" stroke="#000000" stroke-width="2" d="M412.86,-866.6C422.38,-958.26 470.13,-1370.57 565.95,-1445.54 637.89,-1501.83 1834.63,-1487.2 2428.99,-1476.36"/>
<polygon fill="#000000" stroke="#000000" stroke-width="2" points="2429.07,-1479.85 2439,-1476.17 2428.94,-1472.86 2429.07,-1479.85"/>
<text text-anchor="middle" x="1297.45" y="-1489.34" font-family="Times,serif" font-size="14.00" fill="#000000">4</text>
</g>
<!-- task_6022804b&#45;3230&#45;4a7d&#45;b011&#45;dc4c79012612 -->
<g id="task_6022804b&#45;3230&#45;4a7d&#45;b011&#45;dc4c79012612" class="node">
<title>task_6022804b&#45;3230&#45;4a7d&#45;b011&#45;dc4c79012612</title>
<g id="a_task_6022804b&#45;3230&#45;4a7d&#45;b011&#45;dc4c79012612"><a xlink:title="[task] kubeinit.kubeinit.kubeinit_libvirt : Install CentOS based requirements">
<polygon fill="none" stroke="black" points="3154.81,-1408.08 3154.81,-1423 2923.29,-1433.54 2595.88,-1433.54 2364.36,-1423 2364.36,-1408.08 2595.88,-1397.54 2923.29,-1397.54 3154.81,-1408.08"/>
<text text-anchor="middle" x="2759.59" y="-1411.84" font-family="Times,serif" font-size="14.00">[task] kubeinit.kubeinit.kubeinit_libvirt : Install CentOS based requirements</text>
</a>
</g>
</g>
<!-- task&#45;prepare&#45;hypervisors&#45;&gt;task_6022804b&#45;3230&#45;4a7d&#45;b011&#45;dc4c79012612 -->
<g id="edge_289a192e&#45;b0dc&#45;43c7&#45;a953&#45;67a9d3c251d3" class="edge">
<title>task&#45;prepare&#45;hypervisors&#45;&gt;task_6022804b&#45;3230&#45;4a7d&#45;b011&#45;dc4c79012612</title>
<path fill="none" stroke="#000000" stroke-width="2" d="M413.45,-866.66C425.15,-952.47 479.42,-1316.52 565.95,-1382.54 635.62,-1435.7 1739.6,-1429.46 2353.82,-1421.76"/>
<polygon fill="#000000" stroke="#000000" stroke-width="2" points="2354.23,-1425.26 2364.18,-1421.63 2354.14,-1418.26 2354.23,-1425.26"/>
<text text-anchor="middle" x="1297.45" y="-1430.34" font-family="Times,serif" font-size="14.00" fill="#000000">5 &#160;[when: hostvars[kubeinit_deployment_node_name].distribution_family == &#39;CentOS&#39; or hostvars[kubeinit_deployment_node_name].distribution_family == &#39;Fedora&#39;]</text>
</g>
<!-- task_350e6ac9&#45;749d&#45;48d4&#45;bae2&#45;b3ed16225a97 -->
<g id="task_350e6ac9&#45;749d&#45;48d4&#45;bae2&#45;b3ed16225a97" class="node">
<title>task_350e6ac9&#45;749d&#45;48d4&#45;bae2&#45;b3ed16225a97</title>
<g id="a_task_350e6ac9&#45;749d&#45;48d4&#45;bae2&#45;b3ed16225a97"><a xlink:title="[task] kubeinit.kubeinit.kubeinit_libvirt : Install Debian based requirements">
<polygon fill="none" stroke="black" points="3151.28,-1354.08 3151.28,-1369 2921.83,-1379.54 2597.34,-1379.54 2367.9,-1369 2367.9,-1354.08 2597.34,-1343.54 2921.83,-1343.54 3151.28,-1354.08"/>
<text text-anchor="middle" x="2759.59" y="-1357.84" font-family="Times,serif" font-size="14.00">[task] kubeinit.kubeinit.kubeinit_libvirt : Install Debian based requirements</text>
</a>
</g>
</g>
<!-- task&#45;prepare&#45;hypervisors&#45;&gt;task_350e6ac9&#45;749d&#45;48d4&#45;bae2&#45;b3ed16225a97 -->
<g id="edge_6d1b8cfe&#45;62e4&#45;478f&#45;89d4&#45;2d2f66433cd1" class="edge">
<title>task&#45;prepare&#45;hypervisors&#45;&gt;task_350e6ac9&#45;749d&#45;48d4&#45;bae2&#45;b3ed16225a97</title>
<path fill="none" stroke="#000000" stroke-width="2" d="M413.9,-866.57C427.13,-947.98 485.42,-1279.88 565.95,-1339.54 601.38,-1365.79 1734.82,-1365.56 2357.79,-1363.44"/>
<polygon fill="#000000" stroke="#000000" stroke-width="2" points="2357.85,-1366.94 2367.84,-1363.4 2357.83,-1359.94 2357.85,-1366.94"/>
<text text-anchor="middle" x="1297.45" y="-1367.34" font-family="Times,serif" font-size="14.00" fill="#000000">6 &#160;[when: hostvars[kubeinit_deployment_node_name].distribution_family == &#39;Debian&#39;]</text>
</g>
<!-- task_3552a17b&#45;d6f2&#45;4c35&#45;9454&#45;2cabb09aaf9c -->
<g id="task_3552a17b&#45;d6f2&#45;4c35&#45;9454&#45;2cabb09aaf9c" class="node">
<title>task_3552a17b&#45;d6f2&#45;4c35&#45;9454&#45;2cabb09aaf9c</title>
<g id="a_task_3552a17b&#45;d6f2&#45;4c35&#45;9454&#45;2cabb09aaf9c"><a xlink:title="[task] kubeinit.kubeinit.kubeinit_libvirt : Upgrade all packages">
<polygon fill="none" stroke="black" points="3085.93,-1300.08 3085.93,-1315 2894.76,-1325.54 2624.41,-1325.54 2433.25,-1315 2433.25,-1300.08 2624.41,-1289.54 2894.76,-1289.54 3085.93,-1300.08"/>
<text text-anchor="middle" x="2759.59" y="-1303.84" font-family="Times,serif" font-size="14.00">[task] kubeinit.kubeinit.kubeinit_libvirt : Upgrade all packages</text>
</a>
</g>
</g>
<!-- task&#45;prepare&#45;hypervisors&#45;&gt;task_3552a17b&#45;d6f2&#45;4c35&#45;9454&#45;2cabb09aaf9c -->
<g id="edge_3e7e601f&#45;3c8a&#45;4502&#45;a32b&#45;cb04a4a783a9" class="edge">
<title>task&#45;prepare&#45;hypervisors&#45;&gt;task_3552a17b&#45;d6f2&#45;4c35&#45;9454&#45;2cabb09aaf9c</title>
<path fill="none" stroke="#000000" stroke-width="2" d="M410.85,-866.87C411.13,-936.12 422.49,-1183.1 565.95,-1285.54 640.02,-1338.43 1827.33,-1324.57 2423.07,-1314.18"/>
<polygon fill="#000000" stroke="#000000" stroke-width="2" points="2423.17,-1317.68 2433.11,-1314 2423.05,-1310.68 2423.17,-1317.68"/>
<text text-anchor="middle" x="1297.45" y="-1327.34" font-family="Times,serif" font-size="14.00" fill="#000000">7</text>
</g>
<!-- task_a5a00e84&#45;6632&#45;4495&#45;9a04&#45;77febc4dff11 -->
<g id="task_a5a00e84&#45;6632&#45;4495&#45;9a04&#45;77febc4dff11" class="node">
<title>task_a5a00e84&#45;6632&#45;4495&#45;9a04&#45;77febc4dff11</title>
<g id="a_task_a5a00e84&#45;6632&#45;4495&#45;9a04&#45;77febc4dff11"><a xlink:title="[task] kubeinit.kubeinit.kubeinit_libvirt : Add users to libvirt">
<polygon fill="none" stroke="black" points="3074.92,-1246.08 3074.92,-1261 2890.2,-1271.54 2628.97,-1271.54 2444.26,-1261 2444.26,-1246.08 2628.97,-1235.54 2890.2,-1235.54 3074.92,-1246.08"/>
<text text-anchor="middle" x="2759.59" y="-1249.84" font-family="Times,serif" font-size="14.00">[task] kubeinit.kubeinit.kubeinit_libvirt : Add users to libvirt</text>
</a>
</g>
</g>
<!-- task&#45;prepare&#45;hypervisors&#45;&gt;task_a5a00e84&#45;6632&#45;4495&#45;9a04&#45;77febc4dff11 -->
<g id="edge_d0ff0fc5&#45;8291&#45;48a3&#45;964d&#45;99178b9c6a1b" class="edge">
<title>task&#45;prepare&#45;hypervisors&#45;&gt;task_a5a00e84&#45;6632&#45;4495&#45;9a04&#45;77febc4dff11</title>
<path fill="none" stroke="#000000" stroke-width="2" d="M411.86,-866.74C415.74,-930.19 438.17,-1142.53 565.95,-1229.54 641.63,-1281.07 1842.02,-1268.7 2433.82,-1259.37"/>
<polygon fill="#000000" stroke="#000000" stroke-width="2" points="2434.28,-1262.87 2444.22,-1259.21 2434.17,-1255.87 2434.28,-1262.87"/>
<text text-anchor="middle" x="1297.45" y="-1271.34" font-family="Times,serif" font-size="14.00" fill="#000000">8</text>
</g>
<!-- task_662737c7&#45;79dc&#45;4309&#45;b5b7&#45;1ee51471b692 -->
<g id="task_662737c7&#45;79dc&#45;4309&#45;b5b7&#45;1ee51471b692" class="node">
<title>task_662737c7&#45;79dc&#45;4309&#45;b5b7&#45;1ee51471b692</title>
<g id="a_task_662737c7&#45;79dc&#45;4309&#45;b5b7&#45;1ee51471b692"><a xlink:title="[task] kubeinit.kubeinit.kubeinit_libvirt : Reboot host and wait for it to restart">
<polygon fill="none" stroke="black" points="3163.2,-1192.08 3163.2,-1207 2926.77,-1217.54 2592.41,-1217.54 2355.98,-1207 2355.98,-1192.08 2592.41,-1181.54 2926.77,-1181.54 3163.2,-1192.08"/>
<text text-anchor="middle" x="2759.59" y="-1195.84" font-family="Times,serif" font-size="14.00">[task] kubeinit.kubeinit.kubeinit_libvirt : Reboot host and wait for it to restart</text>
</a>
</g>
</g>
<!-- task&#45;prepare&#45;hypervisors&#45;&gt;task_662737c7&#45;79dc&#45;4309&#45;b5b7&#45;1ee51471b692 -->
<g id="edge_fb10c1b4&#45;0460&#45;45a8&#45;8059&#45;e265e4fc48e9" class="edge">
<title>task&#45;prepare&#45;hypervisors&#45;&gt;task_662737c7&#45;79dc&#45;4309&#45;b5b7&#45;1ee51471b692</title>
<path fill="none" stroke="#000000" stroke-width="2" d="M413.23,-866.84C421.13,-924.22 454.04,-1101.04 565.95,-1172.54 639.42,-1219.49 1730.81,-1213.06 2345.46,-1205.62"/>
<polygon fill="#000000" stroke="#000000" stroke-width="2" points="2345.87,-1209.11 2355.83,-1205.49 2345.79,-1202.11 2345.87,-1209.11"/>
<text text-anchor="middle" x="1297.45" y="-1214.34" font-family="Times,serif" font-size="14.00" fill="#000000">9 &#160;[when: (_result_installed_packages_centos.changed or _result_installed_packages_debian.changed or _result_upgraded_packages.changed) and kubeinit_libvirt_reboot_hypervisors_after_package_update]</text>
</g>
<!-- task_c12d7f69&#45;ce84&#45;41d5&#45;80f5&#45;5ed254cd95e0 -->
<g id="task_c12d7f69&#45;ce84&#45;41d5&#45;80f5&#45;5ed254cd95e0" class="node">
<title>task_c12d7f69&#45;ce84&#45;41d5&#45;80f5&#45;5ed254cd95e0</title>
<g id="a_task_c12d7f69&#45;ce84&#45;41d5&#45;80f5&#45;5ed254cd95e0"><a xlink:title="[task] kubeinit.kubeinit.kubeinit_libvirt : Clear installed/upgraded packages facts">
<polygon fill="none" stroke="black" points="3178.65,-1138.08 3178.65,-1153 2933.17,-1163.54 2586.01,-1163.54 2340.52,-1153 2340.52,-1138.08 2586.01,-1127.54 2933.17,-1127.54 3178.65,-1138.08"/>
<text text-anchor="middle" x="2759.59" y="-1141.84" font-family="Times,serif" font-size="14.00">[task] kubeinit.kubeinit.kubeinit_libvirt : Clear installed/upgraded packages facts</text>
</a>
</g>
</g>
<!-- task&#45;prepare&#45;hypervisors&#45;&gt;task_c12d7f69&#45;ce84&#45;41d5&#45;80f5&#45;5ed254cd95e0 -->
<g id="edge_bea75bd4&#45;2662&#45;464d&#45;9265&#45;5b0522b819c3" class="edge">
<title>task&#45;prepare&#45;hypervisors&#45;&gt;task_c12d7f69&#45;ce84&#45;41d5&#45;80f5&#45;5ed254cd95e0</title>
<path fill="none" stroke="#000000" stroke-width="2" d="M415.01,-866.58C427.13,-917.06 469.04,-1059.76 565.95,-1116.54 640.52,-1160.23 1713.01,-1156.53 2329.85,-1150.68"/>
<polygon fill="#000000" stroke="#000000" stroke-width="2" points="2330.29,-1154.18 2340.25,-1150.58 2330.22,-1147.18 2330.29,-1154.18"/>
<text text-anchor="middle" x="1297.45" y="-1157.34" font-family="Times,serif" font-size="14.00" fill="#000000">10</text>
</g>
<!-- task_0fdb1da6&#45;f079&#45;46aa&#45;a340&#45;40fce4b5b7f9 -->
<g id="task_0fdb1da6&#45;f079&#45;46aa&#45;a340&#45;40fce4b5b7f9" class="node">
<title>task_0fdb1da6&#45;f079&#45;46aa&#45;a340&#45;40fce4b5b7f9</title>
<g id="a_task_0fdb1da6&#45;f079&#45;46aa&#45;a340&#45;40fce4b5b7f9"><a xlink:title="[task] kubeinit.kubeinit.kubeinit_libvirt : Check if Intel virtualization is supported">
<polygon fill="none" stroke="black" points="3180.87,-1084.08 3180.87,-1099 2934.09,-1109.54 2585.09,-1109.54 2338.3,-1099 2338.3,-1084.08 2585.09,-1073.54 2934.09,-1073.54 3180.87,-1084.08"/>
<text text-anchor="middle" x="2759.59" y="-1087.84" font-family="Times,serif" font-size="14.00">[task] kubeinit.kubeinit.kubeinit_libvirt : Check if Intel virtualization is supported</text>
</a>
</g>
</g>
<!-- task&#45;prepare&#45;hypervisors&#45;&gt;task_0fdb1da6&#45;f079&#45;46aa&#45;a340&#45;40fce4b5b7f9 -->
<g id="edge_0c4baf50&#45;230d&#45;4fd0&#45;a12c&#45;bbe9a6a5419d" class="edge">
<title>task&#45;prepare&#45;hypervisors&#45;&gt;task_0fdb1da6&#45;f079&#45;46aa&#45;a340&#45;40fce4b5b7f9</title>
<path fill="none" stroke="#000000" stroke-width="2" d="M417.63,-866.66C434.43,-909.93 483.53,-1018.85 565.95,-1061.54 642.59,-1101.24 1711.35,-1099.74 2327.87,-1095.5"/>
<polygon fill="#000000" stroke="#000000" stroke-width="2" points="2328.29,-1098.99 2338.27,-1095.42 2328.24,-1091.99 2328.29,-1098.99"/>
<text text-anchor="middle" x="1297.45" y="-1101.34" font-family="Times,serif" font-size="14.00" fill="#000000">11</text>
</g>
<!-- task_20cce998&#45;dced&#45;445e&#45;ad4c&#45;45ce2df3c1ba -->
<g id="task_20cce998&#45;dced&#45;445e&#45;ad4c&#45;45ce2df3c1ba" class="node">
<title>task_20cce998&#45;dced&#45;445e&#45;ad4c&#45;45ce2df3c1ba</title>
<g id="a_task_20cce998&#45;dced&#45;445e&#45;ad4c&#45;45ce2df3c1ba"><a xlink:title="[task] kubeinit.kubeinit.kubeinit_libvirt : Check if AMD virtualization is supported">
<polygon fill="none" stroke="black" points="3182.18,-1030.08 3182.18,-1045 2934.63,-1055.54 2584.54,-1055.54 2336.99,-1045 2336.99,-1030.08 2584.54,-1019.54 2934.63,-1019.54 3182.18,-1030.08"/>
<text text-anchor="middle" x="2759.59" y="-1033.84" font-family="Times,serif" font-size="14.00">[task] kubeinit.kubeinit.kubeinit_libvirt : Check if AMD virtualization is supported</text>
</a>
</g>
</g>
<!-- task&#45;prepare&#45;hypervisors&#45;&gt;task_20cce998&#45;dced&#45;445e&#45;ad4c&#45;45ce2df3c1ba -->
<g id="edge_5f095951&#45;8022&#45;40ae&#45;86a0&#45;f90b70d3cff9" class="edge">
<title>task&#45;prepare&#45;hypervisors&#45;&gt;task_20cce998&#45;dced&#45;445e&#45;ad4c&#45;45ce2df3c1ba</title>
<path fill="none" stroke="#000000" stroke-width="2" d="M421.18,-866.54C442.47,-902.38 495.81,-981.83 565.95,-1012.54 644.93,-1047.12 1710.56,-1045.27 2326.58,-1041.24"/>
<polygon fill="#000000" stroke="#000000" stroke-width="2" points="2327,-1044.74 2336.98,-1041.17 2326.95,-1037.74 2327,-1044.74"/>
<text text-anchor="middle" x="1297.45" y="-1046.34" font-family="Times,serif" font-size="14.00" fill="#000000">12</text>
</g>
<!-- task_d610ae3c&#45;f241&#45;4a0d&#45;8eef&#45;21d36f1d01ef -->
<g id="task_d610ae3c&#45;f241&#45;4a0d&#45;8eef&#45;21d36f1d01ef" class="node">
<title>task_d610ae3c&#45;f241&#45;4a0d&#45;8eef&#45;21d36f1d01ef</title>
<g id="a_task_d610ae3c&#45;f241&#45;4a0d&#45;8eef&#45;21d36f1d01ef"><a xlink:title="[task] kubeinit.kubeinit.kubeinit_libvirt : Fail in case no Intel or AMD virtualization support is not detected and is not a hosted deployment.">
<polygon fill="none" stroke="black" points="3472.36,-976.08 3472.36,-991 3054.83,-1001.54 2464.35,-1001.54 2046.81,-991 2046.81,-976.08 2464.35,-965.54 3054.83,-965.54 3472.36,-976.08"/>
<text text-anchor="middle" x="2759.59" y="-979.84" font-family="Times,serif" font-size="14.00">[task] kubeinit.kubeinit.kubeinit_libvirt : Fail in case no Intel or AMD virtualization support is not detected and is not a hosted deployment.</text>
</a>
</g>
</g>
<!-- task&#45;prepare&#45;hypervisors&#45;&gt;task_d610ae3c&#45;f241&#45;4a0d&#45;8eef&#45;21d36f1d01ef -->
<g id="edge_e2567fbb&#45;86d7&#45;49b1&#45;a1ef&#45;8771a0590d4d" class="edge">
<title>task&#45;prepare&#45;hypervisors&#45;&gt;task_d610ae3c&#45;f241&#45;4a0d&#45;8eef&#45;21d36f1d01ef</title>
<path fill="none" stroke="#000000" stroke-width="2" d="M430.65,-866.89C458.29,-891.43 511.48,-933.77 565.95,-950.54 708.23,-994.35 1495.26,-996.94 2086,-992.33"/>
<polygon fill="#000000" stroke="#000000" stroke-width="2" points="2086.45,-995.83 2096.43,-992.25 2086.4,-988.83 2086.45,-995.83"/>
<text text-anchor="middle" x="1297.45" y="-997.34" font-family="Times,serif" font-size="14.00" fill="#000000">13 &#160;[when: _result_intel_processor.rc != 0 and _result_amd_processor.rc != 0 and not (kubeinit_inventory_hosted_deployment | default(false))]</text>
</g>
<!-- task_44cd2210&#45;e4b8&#45;4557&#45;8d09&#45;71972ab65a45 -->
<g id="task_44cd2210&#45;e4b8&#45;4557&#45;8d09&#45;71972ab65a45" class="node">
<title>task_44cd2210&#45;e4b8&#45;4557&#45;8d09&#45;71972ab65a45</title>
<g id="a_task_44cd2210&#45;e4b8&#45;4557&#45;8d09&#45;71972ab65a45"><a xlink:title="[task] kubeinit.kubeinit.kubeinit_libvirt : Set fact for Intel virtualization">
<polygon fill="none" stroke="black" points="3130.57,-922.08 3130.57,-937 2913.25,-947.54 2605.92,-947.54 2388.61,-937 2388.61,-922.08 2605.92,-911.54 2913.25,-911.54 3130.57,-922.08"/>
<text text-anchor="middle" x="2759.59" y="-925.84" font-family="Times,serif" font-size="14.00">[task] kubeinit.kubeinit.kubeinit_libvirt : Set fact for Intel virtualization</text>
</a>
</g>
</g>
<!-- task&#45;prepare&#45;hypervisors&#45;&gt;task_44cd2210&#45;e4b8&#45;4557&#45;8d09&#45;71972ab65a45 -->
<g id="edge_8633ebf4&#45;25de&#45;4aa8&#45;8094&#45;68607b767e1f" class="edge">
<title>task&#45;prepare&#45;hypervisors&#45;&gt;task_44cd2210&#45;e4b8&#45;4557&#45;8d09&#45;71972ab65a45</title>
<path fill="none" stroke="#000000" stroke-width="2" d="M471.19,-866.08C499.66,-873.56 534.28,-881.49 565.95,-885.54 904.8,-928.9 1845.97,-933.09 2378.55,-931.72"/>
<polygon fill="#000000" stroke="#000000" stroke-width="2" points="2378.71,-935.22 2388.7,-931.7 2378.69,-928.22 2378.71,-935.22"/>
<text text-anchor="middle" x="1297.45" y="-935.34" font-family="Times,serif" font-size="14.00" fill="#000000">14 &#160;[when: _result_intel_processor.rc == 0]</text>
</g>
<!-- task_15069cac&#45;2020&#45;4ba0&#45;a666&#45;7226d22a650e -->
<g id="task_15069cac&#45;2020&#45;4ba0&#45;a666&#45;7226d22a650e" class="node">
<title>task_15069cac&#45;2020&#45;4ba0&#45;a666&#45;7226d22a650e</title>
<g id="a_task_15069cac&#45;2020&#45;4ba0&#45;a666&#45;7226d22a650e"><a xlink:title="[task] kubeinit.kubeinit.kubeinit_libvirt : Set fact for AMD virtualization">
<polygon fill="none" stroke="black" points="3132.29,-868.08 3132.29,-883 2913.97,-893.54 2605.21,-893.54 2386.88,-883 2386.88,-868.08 2605.21,-857.54 2913.97,-857.54 3132.29,-868.08"/>
<text text-anchor="middle" x="2759.59" y="-871.84" font-family="Times,serif" font-size="14.00">[task] kubeinit.kubeinit.kubeinit_libvirt : Set fact for AMD virtualization</text>
</a>
</g>
</g>
<!-- task&#45;prepare&#45;hypervisors&#45;&gt;task_15069cac&#45;2020&#45;4ba0&#45;a666&#45;7226d22a650e -->
<g id="edge_0527e459&#45;b3f0&#45;47a2&#45;9b1b&#45;5414499ca9b3" class="edge">
<title>task&#45;prepare&#45;hypervisors&#45;&gt;task_15069cac&#45;2020&#45;4ba0&#45;a666&#45;7226d22a650e</title>
<path fill="none" stroke="#000000" stroke-width="2" d="M547.85,-850.11C899.13,-854.15 1842.74,-865.01 2376.69,-871.15"/>
<polygon fill="#000000" stroke="#000000" stroke-width="2" points="2376.83,-874.65 2386.87,-871.26 2376.91,-867.65 2376.83,-874.65"/>
<text text-anchor="middle" x="1297.45" y="-870.34" font-family="Times,serif" font-size="14.00" fill="#000000">15 &#160;[when: _result_amd_processor.rc == 0]</text>
</g>
<!-- task_fe743ca5&#45;d2e5&#45;4516&#45;8e8f&#45;2d6e4b18bfb2 -->
<g id="task_fe743ca5&#45;d2e5&#45;4516&#45;8e8f&#45;2d6e4b18bfb2" class="node">
<title>task_fe743ca5&#45;d2e5&#45;4516&#45;8e8f&#45;2d6e4b18bfb2</title>
<g id="a_task_fe743ca5&#45;d2e5&#45;4516&#45;8e8f&#45;2d6e4b18bfb2"><a xlink:title="[task] kubeinit.kubeinit.kubeinit_libvirt : Set fact for nested virtualization test path">
<polygon fill="none" stroke="black" points="3189.25,-814.08 3189.25,-829 2937.56,-839.54 2581.61,-839.54 2329.92,-829 2329.92,-814.08 2581.61,-803.54 2937.56,-803.54 3189.25,-814.08"/>
<text text-anchor="middle" x="2759.59" y="-817.84" font-family="Times,serif" font-size="14.00">[task] kubeinit.kubeinit.kubeinit_libvirt : Set fact for nested virtualization test path</text>
</a>
</g>
</g>
<!-- task&#45;prepare&#45;hypervisors&#45;&gt;task_fe743ca5&#45;d2e5&#45;4516&#45;8e8f&#45;2d6e4b18bfb2 -->
<g id="edge_3e84ccc4&#45;8add&#45;4357&#45;94c4&#45;f6b77e546ff7" class="edge">
<title>task&#45;prepare&#45;hypervisors&#45;&gt;task_fe743ca5&#45;d2e5&#45;4516&#45;8e8f&#45;2d6e4b18bfb2</title>
<path fill="none" stroke="#000000" stroke-width="2" d="M507.17,-835.68C526.59,-833.56 546.9,-831.68 565.95,-830.54 1209,-791.97 1960.04,-800.46 2395.28,-810.65"/>
<polygon fill="#000000" stroke="#000000" stroke-width="2" points="2395.42,-814.15 2405.5,-810.89 2395.59,-807.16 2395.42,-814.15"/>
<text text-anchor="middle" x="1297.45" y="-834.34" font-family="Times,serif" font-size="14.00" fill="#000000">16 &#160;[when: _result_intel_processor.rc == 0 or _result_amd_processor.rc == 0]</text>
</g>
<!-- task_76d13b35&#45;61a5&#45;43cd&#45;a219&#45;d89e9ff1cd49 -->
<g id="task_76d13b35&#45;61a5&#45;43cd&#45;a219&#45;d89e9ff1cd49" class="node">
<title>task_76d13b35&#45;61a5&#45;43cd&#45;a219&#45;d89e9ff1cd49</title>
<g id="a_task_76d13b35&#45;61a5&#45;43cd&#45;a219&#45;d89e9ff1cd49"><a xlink:title="[task] kubeinit.kubeinit.kubeinit_libvirt : Ensure {{ nested_virtualization_module_name }} module is available and loaded">
<polygon fill="none" stroke="black" points="3385.8,-760.08 3385.8,-775 3018.97,-785.54 2500.2,-785.54 2133.37,-775 2133.37,-760.08 2500.2,-749.54 3018.97,-749.54 3385.8,-760.08"/>
<text text-anchor="middle" x="2759.59" y="-763.84" font-family="Times,serif" font-size="14.00">[task] kubeinit.kubeinit.kubeinit_libvirt : Ensure {{ nested_virtualization_module_name }} module is available and loaded</text>
</a>
</g>
</g>
<!-- task&#45;prepare&#45;hypervisors&#45;&gt;task_76d13b35&#45;61a5&#45;43cd&#45;a219&#45;d89e9ff1cd49 -->
<g id="edge_5a95b4aa&#45;b57d&#45;41b8&#45;865d&#45;5bc126868122" class="edge">
<title>task&#45;prepare&#45;hypervisors&#45;&gt;task_76d13b35&#45;61a5&#45;43cd&#45;a219&#45;d89e9ff1cd49</title>
<path fill="none" stroke="#000000" stroke-width="2" d="M443.06,-830.44C473.56,-814.29 521.3,-791.81 565.95,-782.54 901.35,-712.86 1848.87,-733.74 2382.06,-752.29"/>
<polygon fill="#000000" stroke="#000000" stroke-width="2" points="2382.11,-755.79 2392.23,-752.64 2382.35,-748.8 2382.11,-755.79"/>
<text text-anchor="middle" x="1297.45" y="-786.34" font-family="Times,serif" font-size="14.00" fill="#000000">17 &#160;[when: _result_intel_processor.rc == 0 or _result_amd_processor.rc == 0]</text>
</g>
<!-- task_9f712d8d&#45;234b&#45;442e&#45;a6a0&#45;6f6584614734 -->
<g id="task_9f712d8d&#45;234b&#45;442e&#45;a6a0&#45;6f6584614734" class="node">
<title>task_9f712d8d&#45;234b&#45;442e&#45;a6a0&#45;6f6584614734</title>
<g id="a_task_9f712d8d&#45;234b&#45;442e&#45;a6a0&#45;6f6584614734"><a xlink:title="[task] kubeinit.kubeinit.kubeinit_libvirt : Test status of nested virtualization">
<polygon fill="none" stroke="black" points="3152.59,-706.08 3152.59,-721 2922.37,-731.54 2596.8,-731.54 2366.58,-721 2366.58,-706.08 2596.8,-695.54 2922.37,-695.54 3152.59,-706.08"/>
<text text-anchor="middle" x="2759.59" y="-709.84" font-family="Times,serif" font-size="14.00">[task] kubeinit.kubeinit.kubeinit_libvirt : Test status of nested virtualization</text>
</a>
</g>
</g>
<!-- task&#45;prepare&#45;hypervisors&#45;&gt;task_9f712d8d&#45;234b&#45;442e&#45;a6a0&#45;6f6584614734 -->
<g id="edge_4d56bdb4&#45;7ebb&#45;4a6c&#45;aa40&#45;9e87e85fd0ad" class="edge">
<title>task&#45;prepare&#45;hypervisors&#45;&gt;task_9f712d8d&#45;234b&#45;442e&#45;a6a0&#45;6f6584614734</title>
<path fill="none" stroke="#000000" stroke-width="2" d="M424.79,-830.14C449.14,-799.21 503.31,-737.89 565.95,-714.54 648.02,-683.94 1745.83,-696.83 2356.14,-706.49"/>
<polygon fill="#000000" stroke="#000000" stroke-width="2" points="2356.38,-709.99 2366.43,-706.65 2356.49,-702.99 2356.38,-709.99"/>
<text text-anchor="middle" x="1297.45" y="-718.34" font-family="Times,serif" font-size="14.00" fill="#000000">18 &#160;[when: _result_intel_processor.rc == 0 or _result_amd_processor.rc == 0]</text>
</g>
<!-- task_a3fffb1e&#45;217f&#45;422c&#45;973b&#45;d54968a091f3 -->
<g id="task_a3fffb1e&#45;217f&#45;422c&#45;973b&#45;d54968a091f3" class="node">
<title>task_a3fffb1e&#45;217f&#45;422c&#45;973b&#45;d54968a091f3</title>
<g id="a_task_a3fffb1e&#45;217f&#45;422c&#45;973b&#45;d54968a091f3"><a xlink:title="[task] kubeinit.kubeinit.kubeinit_libvirt : Persist configuration in /etc/modprobe.d/kvm.conf">
<polygon fill="none" stroke="black" points="3228.14,-652.08 3228.14,-667 2953.67,-677.54 2565.51,-677.54 2291.03,-667 2291.03,-652.08 2565.51,-641.54 2953.67,-641.54 3228.14,-652.08"/>
<text text-anchor="middle" x="2759.59" y="-655.84" font-family="Times,serif" font-size="14.00">[task] kubeinit.kubeinit.kubeinit_libvirt : Persist configuration in /etc/modprobe.d/kvm.conf</text>
</a>
</g>
</g>
<!-- task&#45;prepare&#45;hypervisors&#45;&gt;task_a3fffb1e&#45;217f&#45;422c&#45;973b&#45;d54968a091f3 -->
<g id="edge_cdc7349d&#45;468b&#45;45df&#45;bae1&#45;b5ce82a948f9" class="edge">
<title>task&#45;prepare&#45;hypervisors&#45;&gt;task_a3fffb1e&#45;217f&#45;422c&#45;973b&#45;d54968a091f3</title>
<path fill="none" stroke="#000000" stroke-width="2" d="M420.42,-830.41C440.86,-793.05 493.56,-708.21 565.95,-675.54 729.02,-601.95 1834.92,-627.81 2411.05,-646.74"/>
<polygon fill="#000000" stroke="#000000" stroke-width="2" points="2411.07,-650.25 2421.18,-647.08 2411.3,-643.25 2411.07,-650.25"/>
<text text-anchor="middle" x="1297.45" y="-679.34" font-family="Times,serif" font-size="14.00" fill="#000000">19 &#160;[when: _result_intel_processor.rc == 0 or _result_amd_processor.rc == 0]</text>
</g>
<!-- task_19aa74bc&#45;0155&#45;4546&#45;be89&#45;8dc385de298c -->
<g id="task_19aa74bc&#45;0155&#45;4546&#45;be89&#45;8dc385de298c" class="node">
<title>task_19aa74bc&#45;0155&#45;4546&#45;be89&#45;8dc385de298c</title>
<g id="a_task_19aa74bc&#45;0155&#45;4546&#45;be89&#45;8dc385de298c"><a xlink:title="[task] kubeinit.kubeinit.kubeinit_libvirt : Load {{ nested_virtualization_module_name }} module">
<polygon fill="none" stroke="black" points="3256.42,-598.08 3256.42,-613 2965.38,-623.54 2553.79,-623.54 2262.76,-613 2262.76,-598.08 2553.79,-587.54 2965.38,-587.54 3256.42,-598.08"/>
<text text-anchor="middle" x="2759.59" y="-601.84" font-family="Times,serif" font-size="14.00">[task] kubeinit.kubeinit.kubeinit_libvirt : Load {{ nested_virtualization_module_name }} module</text>
</a>
</g>
</g>
<!-- task&#45;prepare&#45;hypervisors&#45;&gt;task_19aa74bc&#45;0155&#45;4546&#45;be89&#45;8dc385de298c -->
<g id="edge_090a4e6c&#45;d9b5&#45;4b94&#45;88e4&#45;52c7be12c084" class="edge">
<title>task&#45;prepare&#45;hypervisors&#45;&gt;task_19aa74bc&#45;0155&#45;4546&#45;be89&#45;8dc385de298c</title>
<path fill="none" stroke="#000000" stroke-width="2" d="M416.06,-830.44C430.23,-783.13 475.6,-656.01 565.95,-606.54 641.61,-565.11 1709.7,-581.86 2326.67,-595.16"/>
<polygon fill="#000000" stroke="#000000" stroke-width="2" points="2327.01,-598.67 2337.08,-595.39 2327.16,-591.67 2327.01,-598.67"/>
<text text-anchor="middle" x="1297.45" y="-610.34" font-family="Times,serif" font-size="14.00" fill="#000000">20 &#160;[when: _result_intel_processor.rc == 0 or _result_amd_processor.rc == 0]</text>
</g>
<!-- task_8a2b8170&#45;5773&#45;4c63&#45;b4dd&#45;422404b276b8 -->
<g id="task_8a2b8170&#45;5773&#45;4c63&#45;b4dd&#45;422404b276b8" class="node">
<title>task_8a2b8170&#45;5773&#45;4c63&#45;b4dd&#45;422404b276b8</title>
<g id="a_task_8a2b8170&#45;5773&#45;4c63&#45;b4dd&#45;422404b276b8"><a xlink:title="[task] kubeinit.kubeinit.kubeinit_libvirt : Clear intel and amd processor facts">
<polygon fill="none" stroke="black" points="3156.13,-544.08 3156.13,-559 2923.84,-569.54 2595.33,-569.54 2363.05,-559 2363.05,-544.08 2595.33,-533.54 2923.84,-533.54 3156.13,-544.08"/>
<text text-anchor="middle" x="2759.59" y="-547.84" font-family="Times,serif" font-size="14.00">[task] kubeinit.kubeinit.kubeinit_libvirt : Clear intel and amd processor facts</text>
</a>
</g>
</g>
<!-- task&#45;prepare&#45;hypervisors&#45;&gt;task_8a2b8170&#45;5773&#45;4c63&#45;b4dd&#45;422404b276b8 -->
<g id="edge_5177a527&#45;6087&#45;4192&#45;9e8c&#45;ab8046142358" class="edge">
<title>task&#45;prepare&#45;hypervisors&#45;&gt;task_8a2b8170&#45;5773&#45;4c63&#45;b4dd&#45;422404b276b8</title>
<path fill="none" stroke="#000000" stroke-width="2" d="M414.29,-830.31C424.81,-777.13 463.49,-622.06 565.95,-560.54 641.81,-514.99 1764.32,-530.86 2372.95,-542.96"/>
<polygon fill="#000000" stroke="#000000" stroke-width="2" points="2373.15,-546.47 2383.21,-543.17 2373.28,-539.47 2373.15,-546.47"/>
<text text-anchor="middle" x="1297.45" y="-564.34" font-family="Times,serif" font-size="14.00" fill="#000000">21</text>
</g>
<!-- task_91265657&#45;62da&#45;4f40&#45;901f&#45;836d96843ae8 -->
<g id="task_91265657&#45;62da&#45;4f40&#45;901f&#45;836d96843ae8" class="node">
<title>task_91265657&#45;62da&#45;4f40&#45;901f&#45;836d96843ae8</title>
<g id="a_task_91265657&#45;62da&#45;4f40&#45;901f&#45;836d96843ae8"><a xlink:title="[task] kubeinit.kubeinit.kubeinit_libvirt : Enable and start libvirtd">
<polygon fill="none" stroke="black" points="3101.38,-490.08 3101.38,-505 2901.16,-515.54 2618.01,-515.54 2417.79,-505 2417.79,-490.08 2618.01,-479.54 2901.16,-479.54 3101.38,-490.08"/>
<text text-anchor="middle" x="2759.59" y="-493.84" font-family="Times,serif" font-size="14.00">[task] kubeinit.kubeinit.kubeinit_libvirt : Enable and start libvirtd</text>
</a>
</g>
</g>
<!-- task&#45;prepare&#45;hypervisors&#45;&gt;task_91265657&#45;62da&#45;4f40&#45;901f&#45;836d96843ae8 -->
<g id="edge_3c8ef5ec&#45;f23b&#45;4fbe&#45;842f&#45;dd3379539eba" class="edge">
<title>task&#45;prepare&#45;hypervisors&#45;&gt;task_91265657&#45;62da&#45;4f40&#45;901f&#45;836d96843ae8</title>
<path fill="none" stroke="#000000" stroke-width="2" d="M412.83,-830.28C419.64,-771.32 449.92,-585.49 565.95,-510.54 641.75,-461.58 1808.57,-478.02 2408.33,-489.84"/>
<polygon fill="#000000" stroke="#000000" stroke-width="2" points="2408.36,-493.34 2418.43,-490.04 2408.5,-486.34 2408.36,-493.34"/>
<text text-anchor="middle" x="1297.45" y="-514.34" font-family="Times,serif" font-size="14.00" fill="#000000">22</text>
</g>
<!-- task_e332e7a5&#45;05a6&#45;4e56&#45;b569&#45;1d81ce1f4934 -->
<g id="task_e332e7a5&#45;05a6&#45;4e56&#45;b569&#45;1d81ce1f4934" class="node">
<title>task_e332e7a5&#45;05a6&#45;4e56&#45;b569&#45;1d81ce1f4934</title>
<g id="a_task_e332e7a5&#45;05a6&#45;4e56&#45;b569&#45;1d81ce1f4934"><a xlink:title="[task] kubeinit.kubeinit.kubeinit_libvirt : Make sure we have a &#39;toor&#39; group">
<polygon fill="none" stroke="black" points="3145.11,-436.08 3145.11,-451 2919.28,-461.54 2599.9,-461.54 2374.06,-451 2374.06,-436.08 2599.9,-425.54 2919.28,-425.54 3145.11,-436.08"/>
<text text-anchor="middle" x="2759.59" y="-439.84" font-family="Times,serif" font-size="14.00">[task] kubeinit.kubeinit.kubeinit_libvirt : Make sure we have a &#39;toor&#39; group</text>
</a>
</g>
</g>
<!-- task&#45;prepare&#45;hypervisors&#45;&gt;task_e332e7a5&#45;05a6&#45;4e56&#45;b569&#45;1d81ce1f4934 -->
<g id="edge_ca9b186a&#45;5da5&#45;4a9d&#45;a80c&#45;ea8e3347b5a7" class="edge">
<title>task&#45;prepare&#45;hypervisors&#45;&gt;task_e332e7a5&#45;05a6&#45;4e56&#45;b569&#45;1d81ce1f4934</title>
<path fill="none" stroke="#000000" stroke-width="2" d="M411.65,-830.31C414.82,-765.74 435.18,-547 565.95,-457.54 639.33,-407.34 1773.69,-422.96 2381.14,-435.06"/>
<polygon fill="#000000" stroke="#000000" stroke-width="2" points="2381.31,-438.57 2391.38,-435.27 2381.45,-431.57 2381.31,-438.57"/>
<text text-anchor="middle" x="1297.45" y="-461.34" font-family="Times,serif" font-size="14.00" fill="#000000">23</text>
</g>
<!-- task_fe85d5ba&#45;8822&#45;4fb8&#45;814a&#45;d240073e9069 -->
<g id="task_fe85d5ba&#45;8822&#45;4fb8&#45;814a&#45;d240073e9069" class="node">
<title>task_fe85d5ba&#45;8822&#45;4fb8&#45;814a&#45;d240073e9069</title>
<g id="a_task_fe85d5ba&#45;8822&#45;4fb8&#45;814a&#45;d240073e9069"><a xlink:title="[task] kubeinit.kubeinit.kubeinit_libvirt : Allow &#39;toor&#39; group to have passwordless sudo">
<polygon fill="none" stroke="black" points="3204.3,-382.08 3204.3,-397 2943.79,-407.54 2575.38,-407.54 2314.87,-397 2314.87,-382.08 2575.38,-371.54 2943.79,-371.54 3204.3,-382.08"/>
<text text-anchor="middle" x="2759.59" y="-385.84" font-family="Times,serif" font-size="14.00">[task] kubeinit.kubeinit.kubeinit_libvirt : Allow &#39;toor&#39; group to have passwordless sudo</text>
</a>
</g>
</g>
<!-- task&#45;prepare&#45;hypervisors&#45;&gt;task_fe85d5ba&#45;8822&#45;4fb8&#45;814a&#45;d240073e9069 -->
<g id="edge_41a8cbd0&#45;d530&#45;4811&#45;bb19&#45;7831583078b4" class="edge">
<title>task&#45;prepare&#45;hypervisors&#45;&gt;task_fe85d5ba&#45;8822&#45;4fb8&#45;814a&#45;d240073e9069</title>
<path fill="none" stroke="#000000" stroke-width="2" d="M410.71,-830.35C410.44,-760.49 419.93,-508.03 565.95,-403.54 637,-352.69 1734.17,-367.58 2348.9,-380.07"/>
<polygon fill="#000000" stroke="#000000" stroke-width="2" points="2349.2,-383.58 2359.27,-380.28 2349.35,-376.58 2349.2,-383.58"/>
<text text-anchor="middle" x="1297.45" y="-407.34" font-family="Times,serif" font-size="14.00" fill="#000000">24</text>
</g>
<!-- task_b96380ff&#45;6697&#45;4859&#45;a19d&#45;5abf37ee93f6 -->
<g id="task_b96380ff&#45;6697&#45;4859&#45;a19d&#45;5abf37ee93f6" class="node">
<title>task_b96380ff&#45;6697&#45;4859&#45;a19d&#45;5abf37ee93f6</title>
<g id="a_task_b96380ff&#45;6697&#45;4859&#45;a19d&#45;5abf37ee93f6"><a xlink:title="[task] kubeinit.kubeinit.kubeinit_libvirt : Add sudoers users to toor group">
<polygon fill="none" stroke="black" points="3140.27,-328.08 3140.27,-343 2917.27,-353.54 2601.9,-353.54 2378.91,-343 2378.91,-328.08 2601.9,-317.54 2917.27,-317.54 3140.27,-328.08"/>
<text text-anchor="middle" x="2759.59" y="-331.84" font-family="Times,serif" font-size="14.00">[task] kubeinit.kubeinit.kubeinit_libvirt : Add sudoers users to toor group</text>
</a>
</g>
</g>
<!-- task&#45;prepare&#45;hypervisors&#45;&gt;task_b96380ff&#45;6697&#45;4859&#45;a19d&#45;5abf37ee93f6 -->
<g id="edge_05473d2f&#45;2ff9&#45;43c0&#45;99ee&#45;2c839a8902a4" class="edge">
<title>task&#45;prepare&#45;hypervisors&#45;&gt;task_b96380ff&#45;6697&#45;4859&#45;a19d&#45;5abf37ee93f6</title>
<path fill="none" stroke="#000000" stroke-width="2" d="M413.8,-830.45C426.67,-748.02 484.02,-409.31 565.95,-348.54 637.93,-295.15 1790.82,-313.28 2395.17,-326.6"/>
<polygon fill="#000000" stroke="#000000" stroke-width="2" points="2395.28,-330.1 2405.36,-326.82 2395.44,-323.1 2395.28,-330.1"/>
<text text-anchor="middle" x="1297.45" y="-352.34" font-family="Times,serif" font-size="14.00" fill="#000000">25</text>
</g>
<!-- task_15c4f5d5&#45;cfd3&#45;4e58&#45;a386&#45;8958a93eccc1 -->
<g id="task_15c4f5d5&#45;cfd3&#45;4e58&#45;a386&#45;8958a93eccc1" class="node">
<title>task_15c4f5d5&#45;cfd3&#45;4e58&#45;a386&#45;8958a93eccc1</title>
<g id="a_task_15c4f5d5&#45;cfd3&#45;4e58&#45;a386&#45;8958a93eccc1"><a xlink:title="[task] kubeinit.kubeinit.kubeinit_libvirt : Add cloud user to libvirt">
<polygon fill="none" stroke="black" points="3099.16,-274.08 3099.16,-289 2900.24,-299.54 2618.93,-299.54 2420.01,-289 2420.01,-274.08 2618.93,-263.54 2900.24,-263.54 3099.16,-274.08"/>
<text text-anchor="middle" x="2759.59" y="-277.84" font-family="Times,serif" font-size="14.00">[task] kubeinit.kubeinit.kubeinit_libvirt : Add cloud user to libvirt</text>
</a>
</g>
</g>
<!-- task&#45;prepare&#45;hypervisors&#45;&gt;task_15c4f5d5&#45;cfd3&#45;4e58&#45;a386&#45;8958a93eccc1 -->
<g id="edge_75fadf91&#45;b6cf&#45;4441&#45;99f0&#45;a96d43ee4776" class="edge">
<title>task&#45;prepare&#45;hypervisors&#45;&gt;task_15c4f5d5&#45;cfd3&#45;4e58&#45;a386&#45;8958a93eccc1</title>
<path fill="none" stroke="#000000" stroke-width="2" d="M413.24,-830.25C424.15,-741.97 475.95,-361.25 565.95,-292.54 638.53,-237.12 1834.57,-258.61 2428.83,-272.85"/>
<polygon fill="#000000" stroke="#000000" stroke-width="2" points="2428.75,-276.34 2438.83,-273.09 2428.92,-269.35 2428.75,-276.34"/>
<text text-anchor="middle" x="1297.45" y="-296.34" font-family="Times,serif" font-size="14.00" fill="#000000">26</text>
</g>
<!-- task_6b192f07&#45;657c&#45;440e&#45;a74c&#45;8109198d3edb -->
<g id="task_6b192f07&#45;657c&#45;440e&#45;a74c&#45;8109198d3edb" class="node">
<title>task_6b192f07&#45;657c&#45;440e&#45;a74c&#45;8109198d3edb</title>
<g id="a_task_6b192f07&#45;657c&#45;440e&#45;a74c&#45;8109198d3edb"><a xlink:title="[task] kubeinit.kubeinit.kubeinit_libvirt : Create ssh folder">
<polygon fill="none" stroke="black" points="3064.31,-220.08 3064.31,-235 2885.81,-245.54 2633.37,-245.54 2454.86,-235 2454.86,-220.08 2633.37,-209.54 2885.81,-209.54 3064.31,-220.08"/>
<text text-anchor="middle" x="2759.59" y="-223.84" font-family="Times,serif" font-size="14.00">[task] kubeinit.kubeinit.kubeinit_libvirt : Create ssh folder</text>
</a>
</g>
</g>
<!-- task&#45;prepare&#45;hypervisors&#45;&gt;task_6b192f07&#45;657c&#45;440e&#45;a74c&#45;8109198d3edb -->
<g id="edge_6951202d&#45;37d6&#45;4693&#45;95cf&#45;d7a073ca33e0" class="edge">
<title>task&#45;prepare&#45;hypervisors&#45;&gt;task_6b192f07&#45;657c&#45;440e&#45;a74c&#45;8109198d3edb</title>
<path fill="none" stroke="#000000" stroke-width="2" d="M412.75,-830.36C421.8,-737.14 467.88,-314.21 565.95,-237.54 638.97,-180.45 1870.32,-204.45 2454.99,-219.19"/>
<polygon fill="#000000" stroke="#000000" stroke-width="2" points="2455.18,-222.7 2465.26,-219.45 2455.35,-215.7 2455.18,-222.7"/>
<text text-anchor="middle" x="1297.45" y="-241.34" font-family="Times,serif" font-size="14.00" fill="#000000">27</text>
</g>
<!-- task_a5d50bdf&#45;eeee&#45;4475&#45;8fb3&#45;0efd7932df75 -->
<g id="task_a5d50bdf&#45;eeee&#45;4475&#45;8fb3&#45;0efd7932df75" class="node">
<title>task_a5d50bdf&#45;eeee&#45;4475&#45;8fb3&#45;0efd7932df75</title>
<g id="a_task_a5d50bdf&#45;eeee&#45;4475&#45;8fb3&#45;0efd7932df75"><a xlink:title="[task] kubeinit.kubeinit.kubeinit_libvirt : Generate an OpenSSH keypair with the default values (4096 bits, rsa)">
<polygon fill="none" stroke="black" points="3330.15,-166.08 3330.15,-181 2995.92,-191.54 2523.25,-191.54 2189.02,-181 2189.02,-166.08 2523.25,-155.54 2995.92,-155.54 3330.15,-166.08"/>
<text text-anchor="middle" x="2759.59" y="-169.84" font-family="Times,serif" font-size="14.00">[task] kubeinit.kubeinit.kubeinit_libvirt : Generate an OpenSSH keypair with the default values (4096 bits, rsa)</text>
</a>
</g>
</g>
<!-- task&#45;prepare&#45;hypervisors&#45;&gt;task_a5d50bdf&#45;eeee&#45;4475&#45;8fb3&#45;0efd7932df75 -->
<g id="edge_23d65fe4&#45;be1e&#45;48cb&#45;af1a&#45;a5684a802ae4" class="edge">
<title>task&#45;prepare&#45;hypervisors&#45;&gt;task_a5d50bdf&#45;eeee&#45;4475&#45;8fb3&#45;0efd7932df75</title>
<path fill="none" stroke="#000000" stroke-width="2" d="M412.34,-830.36C419.65,-732.15 459.64,-266.31 565.95,-181.54 633.26,-127.87 1700.66,-146.06 2320.88,-161.35"/>
<polygon fill="#000000" stroke="#000000" stroke-width="2" points="2320.81,-164.85 2330.89,-161.6 2320.98,-157.85 2320.81,-164.85"/>
<text text-anchor="middle" x="1297.45" y="-185.34" font-family="Times,serif" font-size="14.00" fill="#000000">28</text>
</g>
<!-- task_dfb07936&#45;d012&#45;4273&#45;8cd4&#45;3153e010f4c0 -->
<g id="task_dfb07936&#45;d012&#45;4273&#45;8cd4&#45;3153e010f4c0" class="node">
<title>task_dfb07936&#45;d012&#45;4273&#45;8cd4&#45;3153e010f4c0</title>
<g id="a_task_dfb07936&#45;d012&#45;4273&#45;8cd4&#45;3153e010f4c0"><a xlink:title="[task] kubeinit.kubeinit.kubeinit_libvirt : Fix owner of the generated pub key">
<polygon fill="none" stroke="black" points="3157.03,-112.08 3157.03,-127 2924.21,-137.54 2594.96,-137.54 2362.14,-127 2362.14,-112.08 2594.96,-101.54 2924.21,-101.54 3157.03,-112.08"/>
<text text-anchor="middle" x="2759.59" y="-115.84" font-family="Times,serif" font-size="14.00">[task] kubeinit.kubeinit.kubeinit_libvirt : Fix owner of the generated pub key</text>
</a>
</g>
</g>
<!-- task&#45;prepare&#45;hypervisors&#45;&gt;task_dfb07936&#45;d012&#45;4273&#45;8cd4&#45;3153e010f4c0 -->
<g id="edge_80fcebea&#45;1d1d&#45;4cce&#45;8dad&#45;0588bd764fce" class="edge">
<title>task&#45;prepare&#45;hypervisors&#45;&gt;task_dfb07936&#45;d012&#45;4273&#45;8cd4&#45;3153e010f4c0</title>
<path fill="none" stroke="#000000" stroke-width="2" d="M412.01,-830.25C417.74,-727.09 451.56,-219.29 565.95,-126.54 636.07,-69.68 1806.37,-93.25 2407.77,-109.27"/>
<polygon fill="#000000" stroke="#000000" stroke-width="2" points="2407.81,-112.77 2417.9,-109.54 2408,-105.77 2407.81,-112.77"/>
<text text-anchor="middle" x="1297.45" y="-130.34" font-family="Times,serif" font-size="14.00" fill="#000000">29</text>
</g>
<!-- task_570c1d26&#45;2aa8&#45;47b3&#45;94de&#45;c43983711070 -->
<g id="task_570c1d26&#45;2aa8&#45;47b3&#45;94de&#45;c43983711070" class="node">
<title>task_570c1d26&#45;2aa8&#45;47b3&#45;94de&#45;c43983711070</title>
<g id="a_task_570c1d26&#45;2aa8&#45;47b3&#45;94de&#45;c43983711070"><a xlink:title="[task] kubeinit.kubeinit.kubeinit_libvirt : Insert the default libvirt uri in user&#39;s home">
<polygon fill="none" stroke="black" points="3193.7,-58.08 3193.7,-73 2939.4,-83.54 2579.77,-83.54 2325.48,-73 2325.48,-58.08 2579.77,-47.54 2939.4,-47.54 3193.7,-58.08"/>
<text text-anchor="middle" x="2759.59" y="-61.84" font-family="Times,serif" font-size="14.00">[task] kubeinit.kubeinit.kubeinit_libvirt : Insert the default libvirt uri in user&#39;s home</text>
</a>
</g>
</g>
<!-- task&#45;prepare&#45;hypervisors&#45;&gt;task_570c1d26&#45;2aa8&#45;47b3&#45;94de&#45;c43983711070 -->
<g id="edge_80701496&#45;efb1&#45;4858&#45;a354&#45;a639d06d6dee" class="edge">
<title>task&#45;prepare&#45;hypervisors&#45;&gt;task_570c1d26&#45;2aa8&#45;47b3&#45;94de&#45;c43983711070</title>
<path fill="none" stroke="#000000" stroke-width="2" d="M411.71,-830.27C415.9,-722.55 443.23,-171.47 565.95,-70.54 713.39,50.72 1976,-14.98 2515.64,-49.1"/>
<polygon fill="#000000" stroke="#000000" stroke-width="2" points="2515.69,-52.61 2525.89,-49.75 2516.13,-45.62 2515.69,-52.61"/>
<text text-anchor="middle" x="1297.45" y="-74.34" font-family="Times,serif" font-size="14.00" fill="#000000">30</text>
</g>
</g>
</svg>
